<svg width="360" height="136" viewBox="0 0 360 136" fill="none" xmlns="http://www.w3.org/2000/svg">
<path d="M210.012 -550.03C224.895 -507.57 232.887 -468.171 230.839 -449.383C225.172 -397.288 152.209 -368.021 149.268 -350.464C145.691 -329.12 223.94 -319.651 235.793 -295.221C247.299 -271.502 212.337 -227.384 227.22 -193.959C244.552 -155.018 296.896 -90.9291 309.683 -58.861C325.375 -19.486 156.99 0.698597 156.859 28.0638C156.707 59.9031 342.141 99.5069 378.342 110.42" stroke="black" stroke-width="0.265171" stroke-miterlimit="10"/>
<path opacity="0.98" d="M207.293 -549.241C222.19 -507.049 230.23 -467.974 228.362 -449.131C223.187 -396.871 151.504 -367.683 148.072 -350.189C143.858 -328.892 219.333 -319.604 231.137 -294.961C242.553 -271.178 208.781 -227.59 224.003 -194.725C235.752 -169.356 262.411 -133.84 282.463 -103.342C293.105 -87.134 301.989 -72.1968 306.21 -60.9603C313.676 -41.1071 276.381 -25.7753 237.468 -12.3926C198.271 1.06118 157.655 12.8184 158.271 26.359C158.776 37.4061 181.665 49.408 212.448 60.889C269.227 82.2257 352.001 103.452 375.526 110.79" stroke="black" stroke-width="0.268707" stroke-miterlimit="10"/>
<path opacity="0.95" d="M177.604 -602.646C194.921 -554.022 204.302 -509.085 202.343 -487.17C196.913 -426.366 115.179 -392.629 110.625 -372.406C104.995 -347.765 189.395 -337.205 203.041 -308.382C216.19 -280.729 178.375 -230.796 196.431 -193.335C210.551 -164.036 241.908 -123.664 264.743 -88.8658C276.896 -70.2815 286.895 -52.9509 291.562 -39.7653C299.811 -16.4686 257.209 1.85948 213.282 17.415C169.026 33.0163 123.982 46.4581 125.484 61.9587C126.713 74.577 153.227 88.2018 188.255 101.525C253.177 126.212 345.385 153.444 372.766 162.292" stroke="black" stroke-width="0.268707" stroke-miterlimit="10"/>
<path opacity="0.93" d="M174.349 -601.72C191.694 -553.378 201.139 -508.789 199.386 -486.788C194.532 -425.755 114.267 -392.08 109.091 -371.938C102.773 -347.318 183.954 -336.981 197.554 -307.893C210.615 -280.151 174.172 -230.811 192.611 -193.958C207.231 -164.752 239.004 -125.18 261.421 -90.9284C273.389 -72.5436 283.075 -55.1934 287.511 -41.8351C295.356 -18.2498 253.4 0.629429 210.703 16.24C167.67 31.8598 124.692 45.1083 126.991 60.4076C128.856 72.832 155.316 86.2269 189.693 99.5211C253.641 124.26 342.055 154.044 369.536 163.218" stroke="#060606" stroke-width="0.272243" stroke-miterlimit="10"/>
<path opacity="0.91" d="M171.707 -600.794C189.033 -552.792 198.51 -508.596 196.963 -486.544C192.697 -425.356 114.115 -391.793 108.382 -371.735C101.351 -347.176 179.115 -337.074 192.625 -307.747C205.55 -279.949 170.608 -231.251 189.362 -195.071C204.443 -165.991 236.522 -127.267 258.451 -93.6032C270.197 -75.4399 279.546 -58.1001 283.731 -44.5851C291.14 -20.7486 249.976 -1.32255 208.637 14.3061C166.96 29.9257 126.174 42.9648 129.261 58.0536C131.762 70.2693 158.084 83.4183 191.687 96.6679C254.458 121.429 338.813 153.729 366.306 163.218" stroke="#060606" stroke-width="0.272243" stroke-miterlimit="10"/>
<path opacity="0.88" d="M168.485 -599.868C185.839 -552.148 195.378 -508.3 194.038 -486.161C190.348 -424.744 113.206 -391.251 106.884 -371.255C99.1253 -346.726 173.652 -336.801 187.171 -307.246C199.943 -279.321 166.455 -231.243 185.574 -195.691C201.163 -166.694 233.712 -128.826 255.15 -95.6631C266.743 -77.7359 275.745 -60.3397 279.701 -46.6608C286.705 -22.535 246.188 -2.54777 206.081 13.1271C165.621 28.7562 126.893 41.6019 130.784 56.4985C133.921 68.511 160.197 81.4391 193.132 94.6602C254.933 119.473 335.485 154.32 363.077 164.144" stroke="#060606" stroke-width="0.275778" stroke-miterlimit="10"/>
<path opacity="0.86" d="M165.272 -598.942C182.659 -551.563 192.252 -508.109 191.12 -485.919C187.998 -424.348 112.308 -390.959 105.404 -371.067C96.9113 -346.599 168.242 -336.9 181.728 -307.107C194.395 -279.126 162.334 -231.701 181.8 -196.802C197.911 -167.933 230.856 -130.921 251.863 -98.3373C263.278 -80.6317 271.956 -63.2373 275.68 -49.4114C282.279 -25.0263 242.455 -4.41097 203.547 11.1992C164.349 26.9283 127.656 39.4457 132.344 54.1408C136.109 65.9445 162.334 78.6267 194.604 91.8029C255.419 116.636 332.161 153.997 359.847 164.144" stroke="#060606" stroke-width="0.275778" stroke-miterlimit="10"/>
<path opacity="0.84" d="M162.072 -598.016C179.483 -550.91 189.136 -507.806 188.212 -485.539C185.666 -423.729 111.43 -390.421 103.945 -370.59C94.7178 -346.154 162.843 -336.659 176.286 -306.61C188.846 -278.53 158.225 -231.708 178.029 -197.429C194.661 -168.653 228.005 -132.452 248.571 -100.407C259.798 -82.9105 268.166 -65.4965 271.652 -51.4975C277.835 -26.8231 238.685 -5.62778 201.013 10.0101C163.052 25.7669 128.415 38.0721 133.924 52.5838C138.325 64.184 164.497 76.654 196.09 89.7923C255.919 114.687 328.839 154.596 356.617 165.07" stroke="#060606" stroke-width="0.279314" stroke-miterlimit="10"/>
<path opacity="0.81" d="M158.89 -597.09C176.331 -550.324 186.036 -507.621 185.321 -485.295C183.353 -423.331 110.575 -390.135 102.509 -370.389C92.5473 -346.004 157.468 -336.745 170.868 -306.467C183.329 -278.322 154.15 -232.169 174.283 -198.543C191.443 -169.885 225.169 -134.547 245.301 -103.08C256.348 -85.8144 264.39 -68.3928 267.643 -54.2377C273.42 -29.3131 234.946 -7.56344 198.505 8.09224C161.782 23.8577 129.205 35.9266 135.528 50.2372C140.549 61.6199 166.683 73.8534 197.597 86.9471C256.428 111.863 325.519 154.273 353.388 165.07" stroke="black" stroke-width="0.28285" stroke-miterlimit="10"/>
<path opacity="0.79" d="M155.721 -596.164C173.184 -549.682 182.948 -507.319 182.441 -484.915C181.051 -422.722 109.738 -389.597 101.099 -369.913C90.4023 -345.559 152.105 -336.514 165.461 -305.971C177.813 -277.735 150.104 -232.187 170.548 -199.172C188.244 -170.607 222.349 -136.081 242.038 -105.154C252.895 -88.097 260.618 -70.6558 263.64 -56.3274C269 -31.1131 231.205 -8.78278 196.007 6.90062C160.535 22.703 130.013 34.5411 137.149 48.6772C142.799 59.8561 168.876 71.8773 199.117 84.9331C256.954 109.909 322.208 154.872 350.158 165.996" stroke="black" stroke-width="0.28285" stroke-miterlimit="10"/>
<path opacity="0.77" d="M152.578 -595.238C170.066 -549.094 179.887 -507.131 179.582 -484.677C178.77 -422.328 108.937 -389.315 99.7182 -369.724C88.2816 -345.431 146.759 -336.61 160.076 -305.838C172.316 -277.537 146.092 -232.656 166.835 -200.283C185.063 -171.844 219.534 -138.172 238.782 -107.821C249.456 -90.9846 256.85 -73.5445 259.638 -59.069C264.589 -33.5951 227.482 -10.7199 193.526 4.97254C159.305 20.7839 130.846 32.3954 138.802 46.3219C145.063 57.2837 171.103 69.0782 200.663 82.0897C257.485 107.097 318.887 154.559 346.928 165.996" stroke="black" stroke-width="0.286385" stroke-miterlimit="10"/>
<path opacity="0.74" d="M149.465 -594.312C166.971 -548.442 176.85 -506.83 176.753 -484.298C176.512 -421.71 108.166 -388.768 98.3682 -369.249C86.1989 -344.986 141.451 -336.38 154.713 -305.342C166.85 -276.951 142.11 -232.684 163.145 -200.914C181.921 -172.568 216.749 -139.708 235.55 -109.898C246.039 -93.2711 253.112 -75.8022 255.66 -61.1623C260.202 -35.3985 223.774 -11.9418 191.06 3.77838C158.097 19.6176 131.685 31.0072 140.47 44.7497C147.351 55.5076 173.345 67.0894 202.217 80.0629C258.032 105.14 315.582 155.139 343.699 166.922" stroke="black" stroke-width="0.286385" stroke-miterlimit="10"/>
<path opacity="0.72" d="M146.208 -593.386C163.678 -547.855 173.571 -506.644 173.683 -484.053C174.019 -421.311 107.382 -388.481 97.0493 -369.047C84.185 -344.845 136.027 -336.454 149.204 -305.198C161.195 -276.742 138.029 -233.151 159.272 -202.023C178.529 -173.805 213.581 -141.789 231.877 -112.564C242.138 -96.167 248.866 -78.6997 251.173 -63.9042C255.282 -37.8908 219.677 -13.8813 188.317 1.85664C156.725 17.7135 132.446 28.8674 142.034 42.4093C149.5 52.9501 175.357 64.3052 203.449 77.225C258.062 102.333 311.562 154.826 339.662 166.922" stroke="black" stroke-width="0.289921" stroke-miterlimit="10"/>
<path opacity="0.7" d="M143.152 -592.46C160.633 -547.213 170.579 -506.343 170.899 -483.674C171.812 -420.703 106.668 -387.945 95.7767 -368.572C82.1792 -344.401 130.796 -336.225 143.913 -304.703C155.788 -276.156 134.135 -233.189 155.644 -202.647C175.456 -174.53 210.827 -143.319 228.669 -114.635C238.743 -98.439 245.141 -80.952 247.215 -65.992C250.915 -39.6883 216.008 -15.0966 185.898 0.669089C155.564 16.5539 133.342 27.4947 143.752 40.8433C151.824 51.189 177.634 62.3312 205.029 75.2038C258.619 100.381 308.26 155.424 336.432 167.848" stroke="black" stroke-width="0.293456" stroke-miterlimit="10"/>
<path opacity="0.67" d="M140.14 -591.534C157.637 -546.626 167.626 -506.147 168.154 -483.428C169.643 -420.304 106.012 -387.657 94.5499 -368.378C80.2229 -344.268 125.605 -336.317 138.667 -304.567C150.433 -275.965 130.303 -233.674 152.058 -203.763C172.42 -175.783 208.109 -145.415 225.494 -117.306C235.371 -101.34 241.454 -83.8455 243.286 -68.73C246.568 -42.168 212.375 -17.0334 183.521 -1.24992C154.459 14.6434 134.281 25.367 145.519 38.5062C154.187 48.6442 179.952 59.5508 206.645 72.3697C259.19 97.5958 304.964 155.103 333.202 167.848" stroke="black" stroke-width="0.293456" stroke-miterlimit="10"/>
<path opacity="0.65" d="M136.523 -590.607C154.082 -545.974 164.153 -505.854 164.892 -483.048C166.962 -419.682 104.64 -387.116 92.5788 -367.898C77.4758 -343.819 119.759 -336.082 132.8 -304.065C144.492 -275.372 125.826 -233.714 147.903 -204.388C168.888 -176.51 204.992 -146.937 221.981 -119.379C231.699 -103.622 237.469 -86.1075 239.074 -70.8177C241.955 -43.9644 208.363 -18.2556 180.677 -2.44387C152.798 13.4777 134.613 23.9883 146.707 36.9343C156 46.8772 181.792 57.5709 207.873 70.343C259.546 95.6398 301.588 155.7 329.973 168.775" stroke="black" stroke-width="0.296992" stroke-miterlimit="10"/>
<path opacity="0.63" d="M133.603 -589.681C151.159 -545.387 161.283 -505.658 162.221 -482.801C164.859 -419.282 104.086 -386.827 91.468 -367.695C75.6355 -343.676 114.668 -336.174 127.646 -303.92C139.222 -275.162 122.107 -234.198 144.401 -205.494C165.933 -177.761 202.32 -149.021 218.849 -122.038C228.365 -106.501 233.808 -88.9882 235.179 -73.5522C237.64 -46.4502 204.781 -20.1899 178.366 -4.36049C151.776 11.5787 135.647 21.8632 148.569 34.5908C158.462 44.3263 184.186 54.7938 209.55 67.503C260.158 92.8483 298.301 155.379 326.743 168.774" stroke="black" stroke-width="0.296992" stroke-miterlimit="10"/>
<path opacity="0.6" d="M130.736 -588.755C148.294 -544.745 158.454 -505.368 159.599 -482.424C162.809 -418.675 103.586 -386.292 90.4234 -367.23C73.8742 -343.252 109.647 -335.955 122.553 -303.435C134.002 -274.586 118.446 -234.265 140.952 -206.131C163.041 -178.509 199.687 -150.557 215.755 -124.125C225.075 -108.799 230.191 -91.2574 231.32 -75.6565C233.369 -48.2634 201.24 -21.4287 176.1 -5.56235C150.8 10.4048 136.716 20.4941 150.463 33.0187C160.944 42.5679 186.596 52.8128 211.248 65.4748C260.783 90.8995 295.035 155.967 323.513 169.7" stroke="black" stroke-width="0.300528" stroke-miterlimit="10"/>
<path opacity="0.58" d="M127.295 -587.829C144.899 -544.156 155.133 -505.168 156.48 -482.183C160.273 -418.28 102.416 -386.017 88.6694 -367.03C71.3459 -343.112 103.972 -336.039 116.852 -303.291C128.217 -274.386 114.182 -234.767 136.951 -207.234C159.664 -179.766 196.677 -152.636 212.332 -126.778C221.475 -111.681 226.279 -94.1403 227.178 -78.384C228.822 -50.7326 197.327 -23.3558 173.386 -7.47136C149.302 8.49541 137.232 18.3774 151.836 30.6842C162.936 40.0355 188.601 50.0548 212.613 62.6452C261.223 88.128 291.676 155.655 320.284 169.7" stroke="black" stroke-width="0.300528" stroke-miterlimit="10"/>
<path opacity="0.56" d="M123.923 -586.903C141.575 -543.515 151.871 -504.87 153.429 -481.807C157.806 -417.663 101.347 -385.481 87.0116 -366.557C68.9176 -342.679 98.3756 -335.813 111.217 -302.798C122.501 -273.802 109.989 -234.845 133.014 -207.873C156.352 -180.525 193.713 -154.176 208.948 -128.87C217.91 -113.974 222.4 -96.4134 223.066 -80.4919C224.295 -52.5492 193.456 -24.5973 170.728 -8.67579C147.879 7.31894 137.824 17.0055 153.284 29.1092C165.001 38.2739 190.661 48.0794 214.023 60.6134C261.688 86.1848 288.319 156.252 317.054 170.626" stroke="black" stroke-width="0.304063" stroke-miterlimit="10"/>
<path opacity="0.53" d="M121.301 -585.977C138.925 -542.919 149.251 -504.683 151.013 -481.562C155.956 -417.269 101.114 -385.199 86.2459 -366.36C67.4606 -342.544 93.6318 -335.902 106.393 -302.652C117.544 -273.602 106.617 -235.357 129.801 -208.97C153.681 -181.796 191.235 -156.25 205.991 -131.519C214.747 -116.852 218.896 -99.2943 219.329 -83.2094C220.146 -55.0196 190.082 -26.5188 168.637 -10.5803C147.104 5.42231 139.101 14.9012 155.371 26.7773C167.659 35.7439 193.222 45.3235 215.836 57.7851C262.371 83.4222 285.09 155.923 313.824 170.627" stroke="black" stroke-width="0.307599" stroke-miterlimit="10"/>
<path opacity="0.51" d="M118.12 -585.051C135.775 -542.277 146.153 -504.383 148.124 -481.183C153.637 -416.655 100.25 -384.666 84.8233 -365.889C65.2858 -342.112 88.2612 -335.676 100.971 -302.158C112.022 -273.016 102.654 -235.442 126.054 -209.606C150.552 -182.561 188.401 -157.786 202.721 -133.607C211.288 -119.141 215.127 -101.563 215.319 -85.3118C215.72 -56.8293 186.341 -27.7517 166.131 -11.7847C145.848 4.23732 139.878 13.5392 156.987 25.1941C169.873 33.9741 195.413 43.3401 217.355 55.7457C262.897 81.4816 281.769 156.519 310.594 171.553" stroke="black" stroke-width="0.307599" stroke-miterlimit="10"/>
<path opacity="0.49" d="M114.403 -584.125C132.129 -541.688 142.604 -504.193 144.783 -480.934C150.892 -416.255 98.8152 -384.377 82.7692 -365.684C62.4223 -341.977 82.2627 -335.764 94.9564 -302.011C105.938 -272.814 98.1077 -235.968 121.791 -210.706C146.977 -183.842 185.219 -159.851 199.143 -136.254C207.544 -122.017 211.073 -104.431 211.033 -88.0348C211.025 -59.2955 182.253 -29.6869 163.216 -13.6931C144.14 2.33721 140.176 11.4412 158.184 22.8692C171.714 31.4608 197.294 40.6015 218.622 52.9262C263.287 78.7376 278.368 156.208 307.365 171.553" stroke="black" stroke-width="0.311135" stroke-miterlimit="10"/>
<path opacity="0.47" d="M111.501 -583.199C129.233 -541.048 139.745 -503.895 142.13 -480.558C148.812 -415.646 98.2581 -383.849 81.6665 -365.209C60.5938 -341.542 77.2014 -335.536 89.8258 -301.515C100.691 -272.227 94.4436 -236.063 118.303 -211.343C144.082 -184.628 182.557 -161.391 196.025 -138.347C204.232 -124.312 207.429 -106.715 207.156 -90.144C206.73 -61.1122 178.695 -30.9361 160.914 -14.8958C143.126 1.15359 141.199 10.071 160.023 21.2863C174.149 29.7001 199.663 38.6266 220.278 50.8857C263.885 76.8046 275.088 156.795 304.135 172.479" stroke="black" stroke-width="0.311135" stroke-miterlimit="10"/>
<path opacity="0.44" d="M108.094 -582.273C125.869 -540.45 136.453 -503.705 139.051 -480.31C146.322 -415.238 97.1721 -383.571 79.9846 -365.006C58.1321 -341.409 71.5556 -335.618 84.1427 -301.371C94.9282 -272.028 90.2392 -236.601 114.336 -212.437C140.772 -185.921 179.579 -163.449 192.625 -140.987C200.652 -127.171 203.539 -109.577 203.024 -92.8602C202.188 -63.5815 174.81 -32.8662 158.242 -16.7995C141.697 -0.751065 141.802 7.97763 161.499 18.9663C176.25 27.1918 201.761 35.9022 221.724 48.0712C264.375 74.0653 271.742 156.485 300.906 172.479" stroke="black" stroke-width="0.31467" stroke-miterlimit="10"/>
<path opacity="0.42" d="M105.544 -581.347C123.29 -539.81 133.892 -503.409 136.69 -479.935C144.517 -414.631 96.9794 -383.046 79.289 -364.543C56.755 -340.987 66.9314 -335.412 79.4254 -300.887C90.0749 -271.454 86.9875 -236.728 111.197 -213.09C138.19 -186.741 177.131 -165.007 189.705 -143.098C197.516 -129.494 200.074 -111.87 199.328 -94.9788C198.086 -65.4076 171.486 -34.1244 156.201 -18.0113C140.965 -1.95317 143.106 6.61608 163.579 17.3734C178.888 25.4208 204.284 33.9168 223.506 46.0199C265.022 72.1396 268.51 157.072 297.676 173.405" stroke="black" stroke-width="0.318206" stroke-miterlimit="10"/>
<path opacity="0.4" d="M101.869 -580.421C119.683 -539.22 130.372 -503.207 133.388 -479.684C141.808 -414.228 95.6203 -382.753 77.3075 -364.335C53.9602 -340.848 60.9572 -335.486 73.4311 -300.736C84.015 -271.247 82.4949 -237.265 106.968 -214.181C134.675 -188.041 173.978 -167.061 186.154 -145.733C193.795 -132.347 196.039 -114.734 195.057 -97.6883C193.393 -67.8607 167.424 -36.0568 153.333 -19.9077C139.323 -3.85936 143.497 4.53083 164.874 15.0529C180.83 22.9124 206.261 31.1927 224.863 43.2062C265.477 69.4197 265.124 156.753 294.446 173.405" stroke="black" stroke-width="0.318206" stroke-miterlimit="10"/>
<path opacity="0.37" d="M99.0885 -579.495C116.897 -538.58 127.616 -502.92 130.836 -479.318C139.82 -413.629 95.1783 -382.235 76.334 -363.87C52.2789 -340.423 56.0606 -335.278 68.4495 -300.25C78.9114 -270.67 78.9836 -237.409 103.601 -214.822C131.895 -188.867 171.391 -168.607 183.105 -147.833C190.54 -134.65 192.467 -117.017 191.246 -99.805C189.175 -69.6842 163.948 -37.3204 151.117 -21.1247C138.399 -5.06642 144.597 3.16412 166.774 13.4638C183.306 21.145 208.646 29.2291 226.542 41.1584C266.062 67.5073 261.862 157.348 291.217 174.331" stroke="black" stroke-width="0.321741" stroke-miterlimit="10"/>
<path opacity="0.35" d="M95.856 -578.569C113.691 -537.989 124.472 -502.717 127.902 -479.065C137.47 -413.214 94.2814 -381.949 74.8562 -363.668C50.0404 -340.299 50.6188 -335.358 62.9584 -300.104C73.3298 -270.468 74.9847 -237.968 99.8004 -215.917C128.753 -190.188 168.512 -170.662 179.799 -150.468C187.045 -137.512 188.652 -119.872 187.198 -102.514C184.707 -72.1462 160.165 -39.2619 148.572 -23.021C137.116 -6.98144 145.351 1.07954 168.383 11.1443C185.527 18.638 210.841 26.5159 228.065 38.3466C266.586 64.8078 258.536 157.038 287.987 174.331" stroke="black" stroke-width="0.321741" stroke-miterlimit="10"/>
<path opacity="0.33" d="M92.8371 -577.642C110.689 -537.341 121.522 -502.432 125.152 -478.693C135.294 -412.61 93.592 -381.427 73.6122 -363.199C48.0592 -339.872 45.4332 -335.148 57.7038 -299.616C67.9748 -269.889 71.2191 -238.111 96.2019 -216.569C125.794 -191.044 165.77 -172.212 176.619 -152.583C183.67 -139.83 184.955 -122.178 183.268 -104.646C180.369 -73.9852 156.535 -40.5503 146.176 -24.2448C135.985 -8.20483 146.256 -0.294671 170.114 9.54721C187.862 16.8622 213.11 24.5435 229.652 36.2897C267.131 62.8948 255.237 157.615 284.757 175.257" stroke="black" stroke-width="0.325277" stroke-miterlimit="10"/>
<path opacity="0.3" d="M89.3325 -576.716C107.237 -536.751 118.149 -502.23 121.995 -478.441C132.738 -412.208 92.4226 -381.145 71.8463 -362.992C45.4842 -339.743 39.6501 -335.223 51.8816 -299.467C62.0772 -269.685 66.9215 -238.686 92.1329 -217.652C122.438 -192.371 162.729 -174.255 173.158 -155.206C180.031 -142.671 181.004 -125.022 179.073 -107.345C175.758 -76.4285 152.574 -42.4837 143.433 -26.1334C134.484 -10.1217 146.821 -2.36295 171.565 7.23492C189.953 14.3716 215.204 21.8467 231.105 33.485C267.623 60.2199 251.866 157.306 281.528 175.257" stroke="black" stroke-width="0.325277" stroke-miterlimit="10"/>
<path opacity="0.28" d="M86.6402 -575.79C104.53 -536.113 115.466 -501.937 119.513 -478.07C130.803 -411.605 92.0602 -380.633 70.9585 -362.525C43.9068 -339.317 34.8816 -335.014 47.0304 -298.98C57.0994 -269.107 63.5311 -238.85 88.8644 -218.306C119.754 -193.249 160.183 -175.808 170.164 -157.324C176.82 -144.993 177.479 -127.333 175.319 -109.471C171.593 -78.2709 149.158 -43.7841 141.281 -27.3508C133.613 -11.3479 147.97 -3.73095 173.488 5.64377C192.446 12.6016 217.586 19.8889 232.778 31.4334C268.181 58.3308 248.621 157.901 278.298 176.183" stroke="black" stroke-width="0.328813" stroke-miterlimit="10"/>
<path opacity="0.26" d="M83.4162 -574.864C101.333 -535.521 112.332 -501.74 116.59 -477.814C128.465 -411.187 91.1694 -380.343 69.4926 -362.318C41.6776 -339.188 29.4412 -335.089 41.533 -298.829C51.5117 -268.91 59.538 -239.43 85.0633 -219.392C116.63 -194.606 157.308 -177.853 166.861 -159.947C173.329 -147.833 173.666 -130.174 171.272 -112.168C167.135 -80.7112 145.369 -45.7231 138.741 -29.2446C132.322 -13.2785 148.736 -5.80316 175.113 3.32817C194.684 10.108 219.792 17.1989 234.318 28.6268C268.705 55.664 245.293 157.582 275.068 176.183" stroke="black" stroke-width="0.332348" stroke-miterlimit="10"/>
<path opacity="0.23" d="M80.1221 -573.938C98.0038 -534.873 109.015 -501.446 113.467 -477.441C125.879 -410.58 90.18 -379.818 68.006 -361.846C39.5378 -338.766 24.1466 -334.875 36.1424 -298.336C45.9922 -268.325 55.5857 -239.604 81.1951 -220.04C113.323 -195.494 154.075 -179.399 163.172 -162.059C169.419 -150.148 169.443 -132.469 166.824 -114.296C162.284 -82.545 141.271 -47.0224 135.921 -30.4604C130.772 -14.5118 149.174 -7.16923 176.297 1.72973C196.413 8.33072 221.374 15.243 235.188 26.5681C268.413 53.796 241.274 158.176 271.031 177.109" stroke="black" stroke-width="0.332348" stroke-miterlimit="10"/>
<path opacity="0.21" d="M77.0564 -573.012C94.9492 -534.283 106.013 -501.254 110.673 -477.192C123.658 -410.182 89.4332 -379.542 66.7129 -361.646C37.5078 -338.644 18.9265 -334.957 30.855 -298.186C40.6061 -268.122 51.7821 -240.198 77.5607 -221.122C110.344 -196.867 151.302 -181.432 159.964 -164.68C166.016 -152.987 165.728 -135.32 162.87 -116.994C157.923 -84.99 137.588 -48.9876 133.497 -32.3542C129.582 -16.4528 150.045 -9.24314 177.985 -0.57878C198.696 5.84401 223.594 12.5596 236.747 23.7674C268.907 51.1603 237.972 157.859 267.802 177.109" stroke="black" stroke-width="0.335884" stroke-miterlimit="10"/>
<path opacity="0.19" d="M73.4147 -572.086C91.3816 -533.644 102.533 -500.96 107.406 -476.827C121.005 -409.583 88.1543 -379.033 64.8086 -361.18C34.7754 -338.22 12.9469 -334.75 24.8446 -297.699C34.5265 -267.542 47.3314 -240.388 73.3505 -221.776C106.892 -197.781 148.173 -182.986 156.433 -166.8C162.302 -155.301 161.7 -137.623 158.601 -119.129C153.222 -86.8395 133.505 -50.2924 130.671 -33.5753C127.982 -17.6912 150.565 -10.6144 179.418 -2.18253C200.797 4.07039 225.692 10.6163 238.224 21.7031C269.413 49.3056 234.587 158.443 264.572 178.035" stroke="black" stroke-width="0.335884" stroke-miterlimit="10"/>
<path opacity="0.16" d="M70.461 -571.16C88.4286 -533.052 99.6263 -500.764 104.704 -476.573C118.861 -409.178 87.5222 -378.747 63.627 -360.978C32.8655 -338.096 7.86331 -334.838 19.6866 -297.554C29.272 -267.343 43.646 -241.001 69.8193 -222.867C103.998 -199.179 145.444 -185.025 153.28 -169.425C158.943 -158.144 158.029 -140.467 154.7 -121.83C148.917 -89.2849 129.866 -52.2479 128.318 -35.4678C126.85 -19.6209 151.492 -12.6855 181.162 -4.48762C203.132 1.57848 227.934 7.94646 239.797 18.9075C269.885 46.7036 231.295 158.135 261.342 178.035" stroke="black" stroke-width="0.33942" stroke-miterlimit="10"/>
<path opacity="0.14" d="M67.5381 -570.234C85.5122 -532.406 96.7469 -500.473 102.028 -476.203C116.748 -408.567 86.8744 -378.282 62.4736 -360.512C30.9569 -337.753 2.82988 -334.622 14.5775 -297.069C24.0574 -266.775 40.004 -241.214 66.3281 -223.518C101.138 -200.118 142.752 -186.578 150.156 -171.545C155.613 -160.468 154.395 -142.78 150.829 -123.958C144.643 -91.1189 126.797 -53.5196 125.996 -36.6836C125.235 -20.873 152.448 -14.0526 182.915 -6.08777C205.465 -0.191979 230.17 6.00591 241.373 16.8454C270.341 44.8687 228.022 158.729 258.113 178.961" stroke="black" stroke-width="0.342955" stroke-miterlimit="10"/>
<path opacity="0.12" d="M64.0059 -569.308C82.0375 -531.813 93.3544 -500.266 98.8562 -475.947C114.189 -408.159 85.7321 -377.993 60.7049 -360.298C28.3766 -337.607 -2.96375 -334.725 8.68245 -296.911C18.136 -266.58 35.6695 -241.822 62.2228 -224.593C97.7879 -201.528 139.69 -188.599 146.686 -174.153C151.955 -163.283 150.421 -145.606 146.614 -126.639C139.995 -93.5459 122.213 -55.4659 123.241 -38.5669C124.205 -22.7658 153.063 -16.1142 184.428 -8.39205C207.64 -2.67364 232.322 3.34672 242.9 14.0516C270.826 42.2959 224.643 158.421 254.883 178.961" stroke="black" stroke-width="0.342955" stroke-miterlimit="10"/>
<path opacity="0.09" d="M61.0806 -568.382C79.0972 -531.176 90.4376 -499.984 96.1359 -475.577C112.013 -407.555 85.092 -377.472 59.5498 -359.839C26.5543 -337.189 -7.93203 -334.516 3.64087 -296.431C12.9697 -266.009 32.0602 -242.041 58.7323 -225.26C94.8936 -202.5 136.898 -190.159 143.461 -176.29C148.51 -165.615 146.675 -147.936 142.644 -128.793C135.631 -95.4139 118.52 -56.7705 120.845 -39.8062C123.008 -24.0046 153.896 -17.4953 186.026 -10.0065C209.797 -4.46771 234.337 1.40068 244.251 11.9747C270.996 40.4835 221.178 158.996 251.432 179.887" stroke="black" stroke-width="0.346491" stroke-miterlimit="10"/>
<path opacity="0.07" d="M58.3042 -567.456C76.3334 -530.583 87.7278 -499.777 93.6254 -475.321C110.076 -407.149 84.6348 -377.175 58.5286 -359.626C24.802 -337.046 -12.883 -334.585 -1.37642 -296.276C7.84651 -265.799 28.528 -242.669 55.3714 -226.338C92.1991 -203.931 134.387 -192.183 140.533 -178.898C145.373 -168.44 143.242 -150.764 138.971 -131.477C131.543 -97.8433 115.076 -58.6838 118.698 -41.6842C122.063 -25.8923 155.037 -19.4968 188.002 -12.3054C212.37 -6.89806 236.817 -1.24373 246.096 9.18661C271.698 37.9341 218.163 158.688 248.492 179.887" stroke="black" stroke-width="0.346491" stroke-miterlimit="10"/>
<path opacity="0.05" d="M54.894 -566.53C72.9905 -529.947 84.4684 -499.497 90.5809 -474.953C107.641 -406.538 83.625 -376.657 56.886 -359.162C22.3317 -336.613 -18.6564 -334.37 -7.17039 -295.791C1.97822 -265.223 24.2996 -242.903 51.384 -226.992C88.9744 -204.92 131.456 -193.732 137.199 -181.025C141.842 -170.763 139.4 -153.075 134.886 -133.621C127.031 -99.6931 111.159 -59.9608 116.091 -42.9143C120.669 -27.1038 155.826 -20.8968 189.698 -13.9116C214.734 -8.69327 239.135 -3.17288 247.81 7.11724C272.308 36.1658 214.943 159.281 245.417 180.813" stroke="black" stroke-width="0.350026" stroke-miterlimit="10"/>
<path opacity="0.02" d="M52.0816 -565.604C70.1732 -529.345 81.6941 -499.29 88.0081 -474.697C105.626 -406.133 83.1141 -376.371 55.8443 -358.951C20.5917 -336.472 -23.5664 -334.441 -12.1498 -295.639C-3.11602 -265.008 20.7762 -243.534 48.0059 -228.072C86.227 -206.37 128.845 -195.757 134.172 -183.635C138.592 -173.58 135.857 -155.913 131.115 -136.297C122.852 -102.116 107.64 -61.841 113.866 -44.787C119.642 -28.968 156.861 -22.957 191.52 -16.205C217.137 -11.1821 241.398 -5.80227 249.453 4.33501C272.727 33.649 211.753 158.965 242.28 180.813" stroke="black" stroke-width="0.350026" stroke-miterlimit="10"/>
</svg>
