<svg xmlns="http://www.w3.org/2000/svg" width="87" height="94" fill="none"><g fill="#fff" clip-path="url(#a)" opacity=".1"><path d="m4.984 40.065 5.85 29.36c2.692 13.51 15.83 22.282 29.34 19.59l29.36-5.849c13.51-2.692 22.283-15.83 19.591-29.34l-5.85-29.36c-2.691-13.51-15.83-22.283-29.34-19.591l-29.36 5.85c-13.51 2.691-22.283 15.83-19.59 29.34Zm50.413-27.85c9.444-1.882 18.657 4.27 20.539 13.713l5.85 29.36c1.881 9.444-4.27 18.657-13.715 20.538l-29.359 5.85c-9.444 1.882-18.657-4.27-20.538-13.714l-5.85-29.36c-1.882-9.443 4.27-18.656 13.714-20.538l29.36-5.85Z"/><path d="M27.482 50.845c2.154 10.809 12.664 17.827 23.473 15.673 10.809-2.154 17.826-12.664 15.673-23.473-2.154-10.809-12.664-17.826-23.473-15.673-10.809 2.154-17.827 12.664-15.673 23.473Zm31.806-6.337c1.343 6.743-3.053 13.327-9.796 14.67-6.747 1.345-13.327-3.053-14.67-9.795-1.344-6.743 3.048-13.326 9.795-14.67 6.743-1.344 13.327 3.052 14.67 9.795ZM24.43 29.577a2.66 2.66 0 1 0-5.216 1.04 2.66 2.66 0 0 0 5.216-1.04Z"/></g><defs><clipPath id="a"><path fill="#fff" d="M15.709 93.89.109 15.6 78.402 0 94 78.293z"/></clipPath></defs></svg>