<svg xmlns="http://www.w3.org/2000/svg" fill="none" viewBox="0 0 69 69"><path d="m55.861 9.203 1.812-.038.92-.017c.305 0 .614 0 .922-.007h.062v1.676h-.069l-1.824-.01c-.609 0-1.217-.015-1.827-.022h-.037v-.036c0-.262.012-.523.018-.781l.023-.765Zm0 0 .02.78c.006.257.016.51.019.764l-.039-.038c.61 0 1.219-.022 1.827-.022l1.827-.009-.069.07.009-1.545.06.06h-.902l-.908-.017-1.844-.043Zm2.038-1.947 1.812-.039.92-.016h.984v.062l.007 1.544v.069h-.075l-1.822-.017c-.608 0-1.217-.015-1.827-.022h-.037V8.8c0-.262.012-.523.018-.781l.02-.763Zm0 0 .021.78c0 .256.015.51.018.764l-.039-.039c.61-.006 1.219-.022 1.827-.022l1.822-.008-.068.07.007-1.545.061.058c-.3 0-.6 0-.903-.007l-.908-.017-1.838-.034Zm-4.079 0 1.812-.039.919-.016h.984v.062l.011 1.537v.07h-.069l-1.827-.01c-.609 0-1.219-.014-1.827-.021h-.038V8.8c0-.262.012-.523.019-.78l.016-.765Zm0 0 .02.78c0 .256.014.51.017.764l-.037-.039c.609-.006 1.219-.022 1.827-.022l1.827-.008-.069.07.008-1.545.061.06c-.3 0-.601 0-.902-.006l-.908-.017-1.844-.037ZM14.196 23.85l1.81-.04.92-.014c.308-.007.615 0 .924-.007h.061v.062l.008 1.544v.07h-.069l-1.827-.01c-.61 0-1.218-.014-1.827-.021h-.038v-.043c0-.262.012-.522.017-.78l.021-.761Zm0 0 .02.78c0 .257.015.511.017.764l-.037-.037c.609-.007 1.217-.023 1.827-.023l1.827-.01-.069.07.007-1.544.062.062c-.302 0-.601 0-.904-.009l-.908-.015-1.842-.038Zm2.038-1.948 1.81-.038.92-.016c.308 0 .617 0 .925-.006h.06v.062l.009 1.544v.069h-.07l-1.827-.008c-.61 0-1.218-.016-1.827-.023h-.038v-.037c0-.262.012-.521.018-.78l.02-.767Zm0 0 .02.781c0 .257.015.51.018.764l-.038-.038c.609 0 1.217-.022 1.827-.022l1.828-.01-.07.07v-1.545l.063.062c-.301 0-.602 0-.904-.008l-.9-.015-1.844-.039Zm-4.078 0 1.812-.038.92-.016c.306 0 .615 0 .923-.006h.059v1.675h-.07l-1.828-.008c-.608 0-1.217-.016-1.827-.023h-.037v-.037c0-.262.013-.521.018-.78l.03-.767Zm0 0 .021.781c0 .257.015.51.018.764l-.039-.038c.61 0 1.219-.022 1.828-.022l1.827-.01-.07.07.009-1.545.06.062c-.3 0-.6 0-.902-.008L14 21.942l-1.844-.039ZM7.452 6.362l1.81-.039.92-.015c.307-.007.615 0 .924-.007h.061v.062l.008 1.544v.07h-.069l-1.832-.01c-.61 0-1.219-.015-1.827-.024h-.04v-.037c0-.262.013-.522.019-.78l.026-.764Zm0 0 .02.78c0 .258.015.511.017.764l-.037-.04c.609-.007 1.217-.022 1.827-.022l1.827-.01-.069.07.003-1.542.062.062c-.302 0-.601 0-.904-.008L9.29 6.4l-1.838-.038Zm2.033 39.42 1.81-.04.92-.014c.307-.007.616 0 .924-.009h.06v.062l.009 1.545v.069h-.069l-1.823-.01c-.61 0-1.219-.015-1.827-.022H9.45v-.037c0-.263.013-.523.018-.782l.017-.763Zm0 0 .02.779c0 .257.014.512.017.765l-.037-.04c.608-.006 1.217-.02 1.827-.021l1.827-.008-.069.069.007-1.545.062.061c-.3 0-.602 0-.904-.007l-.908-.02-1.842-.034Zm-2.033-1.948 1.81-.038.92-.015c.307-.007.615 0 .924-.009h.061v.062l.008 1.544v.07h-.069l-1.827-.01c-.61 0-1.218-.015-1.827-.022h-.039v-.037c0-.263.013-.523.018-.782l.021-.763Zm0 0 .02.78c0 .257.015.512.017.765l-.037-.04c.609-.006 1.217-.02 1.827-.021l1.827-.008-.069.069v-1.545l.062.061c-.302 0-.601 0-.904-.007l-.908-.015-1.835-.039Zm50.447 1.946 1.812-.039.92-.016h.984v.062l.007 1.544v.07h-.075l-1.827-.01c-.609 0-1.217-.014-1.827-.021h-.038v-.037c0-.263.013-.523.018-.782l.025-.77Zm0 0 .021.78c0 .256.015.51.018.764l-.039-.038c.61 0 1.219-.022 1.827-.022l1.828-.009-.068.07.007-1.545.06.06c-.3 0-.6 0-.902-.006l-.908-.017-1.844-.037Zm-2.391-20.438-1.81.039-.92.015c-.308.007-.617 0-.925.007h-.06v-.062l-.007-1.544v-.061h1.896c.609 0 1.218.015 1.827.023h.039v.038c0 .262-.011.521-.018.78l-.022.765Zm0 0-.02-.78c0-.258-.015-.512-.017-.764l.037.037c-.609.007-1.219.022-1.827.022l-1.828.01.07-.07-.007 1.545-.063-.062c.301 0 .602 0 .904.008l.908.015 1.843.04Zm-2.039 1.947-1.811.039-.92.015c-.306.007-.615 0-.923.007h-.06v-1.676h.069l1.827.01c.608 0 1.218.014 1.827.021h.038v.037c0 .263-.01.522-.017.78l-.03.767Zm0 0-.019-.78c-.007-.257-.015-.511-.018-.764l.037.037c-.608 0-1.218.023-1.827.023l-1.827.01.07-.07-.009 1.544-.06-.062c.3 0 .601 0 .902.009l.908.015 1.843.038Zm2.697-8.763a4.934 4.934 0 1 1-4.88-5.658v4.934l4.88.724Z" fill="#EBEBEB"/><path d="M57.216 16.799c0 .242-.017.483-.054.723l-4.878-.723v-4.931a4.93 4.93 0 0 1 4.932 4.932v-.001Z" fill="#DBDBDB"/><path d="M10.23 26.634v4.067l-2.64 3.093a4.067 4.067 0 0 1 2.64-7.16Z" fill="#EBEBEB"/><path d="M15.125 31.115a4.067 4.067 0 0 1-6.707 3.092l2.639-3.092v-4.067a4.062 4.062 0 0 1 4.066 4.067h.002Z" fill="#EBEBEB"/><path d="M15.125 31.115a4.067 4.067 0 0 1-6.707 3.092l2.639-3.092v-4.067a4.062 4.062 0 0 1 4.066 4.067h.002Z" fill="#DBDBDB"/><path d="M8.488 23.472H8.35v5.246h.138v-5.246Z" fill="#C7C7C7"/><path d="M8.418 23.541a.438.438 0 1 1 0-.875.438.438 0 0 1 0 .875Zm0-.735a.299.299 0 0 0-.058.593.3.3 0 1 0 .058-.593Zm5.192-.07H9.534v.184h4.076v-.183Zm-1.77.37H9.534v.183h2.306v-.184Zm45.219-3.552h-5.245v.138h5.245v-.138Z" fill="#C7C7C7"/><path d="M57.427 20.061a.438.438 0 1 1-.002-.876.438.438 0 0 1 .002.876Zm0-.736a.299.299 0 1 0 .298.299.298.298 0 0 0-.298-.304v.005Zm5.409.023H58.76v.183h4.076v-.183Zm-1.77.368H58.76v.184h2.306v-.184Z" fill="#C7C7C7"/><path d="M10.807 35.658s-2.786-.39-2.135-3.754c0 0 3.113.698 2.135 3.754Z" fill="#407BFF"/><path d="M10.807 35.658s-2.786-.39-2.135-3.754c0 0 3.113.698 2.135 3.754Z" fill="#000" opacity=".1"/><path d="M10.666 34.955a5.386 5.386 0 0 0-.19-.5v-.064c0-.047-.009-.093-.012-.138-.008-.1-.015-.2-.02-.301-.011-.201-.025-.402-.028-.603 0-.002 0-.004-.002-.006a.009.009 0 0 0-.006-.002c-.002 0-.004 0-.006.002a.008.008 0 0 0-.002.006v.604c0 .1.01.2.016.301v.067a5.964 5.964 0 0 0-.552-.956 4.404 4.404 0 0 0-.303-.386c-.108-.124-.23-.247-.341-.374-.009-.008-.02 0-.013.013.2.221.38.46.537.714.086.127.166.26.242.394l-.027-.011-.106-.043-.228-.086-.448-.167c-.008 0-.015.013 0 .016.148.059.295.121.442.184l.215.093c.036.016.072.03.109.045.023.012.048.02.073.027a7.078 7.078 0 0 1 .504 1.108l.02.058a1.583 1.583 0 0 0-.229-.11l-.288-.132c-.195-.09-.39-.18-.577-.287-.008 0-.017.01-.008.015.192.105.38.216.571.32.097.052.192.103.291.15.08.049.169.084.261.105.093.255.155.52.184.79.03.381.027.765.036 1.146 0 .006.01 0 .01 0 .027-.347.043-.69.045-1.042a3.053 3.053 0 0 0-.17-.95Z" fill="#263238"/><path d="M10.237 32.982a3.28 3.28 0 0 0-.028.593h.008c.011-.197.013-.393.036-.589.002-.015-.015-.02-.016-.004Zm-.796.164a2.111 2.111 0 0 1-.36-.177c-.009 0-.017.01-.008.016.112.075.234.133.362.172 0 0 .012-.008.006-.01Zm1.461 7.85c0-.307-.008-.614-.011-.922 0-1.023-.014-2.045-.033-3.068a193.769 193.769 0 0 0-.057-2.445v-.664s0-.01-.012-.008c-.013 0-.014 0-.014.008v.666a.01.01 0 0 0 0 .009c-.041 1.444-.079 2.89-.087 4.334v.882c-.01.942-.014 1.884-.011 2.826v.45c0 .863.008 1.724.01 2.586 0 .046.05.07.106.072.055.003.128-.023.128-.076v-2.85c-.019-.6-.019-1.2-.019-1.8Z" fill="#263238"/><path d="M9.732 40.063s-1.34-.994-2.613-.323c-1.272.67-1.47 3.257-1.47 3.257s1.868.267 3.045-.852c1.132-1.079 1.038-2.082 1.038-2.082Z" fill="#407BFF"/><path d="M10.098 40.123a1.599 1.599 0 0 0-.777-.1 1.077 1.077 0 0 0-.165-.017l-.186-.014-.39-.027c-.264-.021-.53-.036-.794-.064-.008 0-.011.017 0 .017.26.034.522.071.782.098.138.014.276.027.405.037.031 0 .065 0 .1.01a1.67 1.67 0 0 0-.12.029c-.211.06-.415.144-.608.247-.105.019-.21.048-.313.073a16.33 16.33 0 0 0-.496.124c-.325.085-.648.18-.966.276-.01 0 0 .018 0 .015.323-.079.647-.152.966-.228l.472-.113.123-.029c-.36.223-.682.503-.952.828a5.2 5.2 0 0 0-.663 1.045c0 .01.009.02.014.01.22-.384.49-.738.802-1.052 0 .018-.012.035-.018.053l-.075.237c-.05.157-.099.316-.146.473 0 .011.013.015.017 0 .056-.152.109-.306.164-.46l.079-.226.04-.118c0-.011.01-.024.013-.036.15-.145.308-.28.475-.405.22-.165.46-.303.712-.414 0 .024-.01.047-.014.07a8.72 8.72 0 0 0-.04.183l-.075.38c-.05.26-.082.523-.13.782 0 .002 0 .004.002.006a.009.009 0 0 0 .006.002c.002 0 .004 0 .006-.002a.008.008 0 0 0 .002-.006c.06-.26.138-.518.196-.778l.086-.394.037-.183a.827.827 0 0 0 .018-.102l.073-.03a2.12 2.12 0 0 1 1.115-.154 1.103 1.103 0 0 1 .808.647c.01.03.058.011.05-.019a1.04 1.04 0 0 0-.636-.67Z" fill="#263238"/><path d="M6.75 41.66c-.172.086-.337.184-.515.255-.011 0 0 .022 0 .016a5.44 5.44 0 0 0 .512-.265s.007-.01.003-.007Z" fill="#263238"/><path d="M10.033 38.238s-1.637.105-2.4-.975c-.763-1.08-.595-2.625-.595-2.625s1.72.208 2.404.984c.683.775.59 2.616.59 2.616Z" fill="#407BFF"/><path d="M10.803 39.854c-.058-.175-.129-.347-.195-.52-.066-.173-.138-.328-.203-.49-.146-.33-.31-.653-.491-.966a10.58 10.58 0 0 0-.367-.582c0-.03-.008-.058-.013-.087l-.023-.152c-.015-.104-.035-.207-.051-.31-.037-.227-.084-.452-.12-.678 0-.011-.02-.011-.018 0 .033.223.056.448.087.672.015.11.03.22.047.33 0 .04.012.079.018.119a11.62 11.62 0 0 0-.81-1.052L8.544 36c0-.014-.01-.025-.014-.039-.004-.014-.025-.062-.036-.093l-.072-.195a4.874 4.874 0 0 1-.121-.39c0-.01-.02 0-.017 0a5.28 5.28 0 0 0 .17.592l.012.032c-.21-.227-.428-.448-.648-.665-.009-.008-.02 0-.011.013.424.445.813.924 1.163 1.43a.78.78 0 0 0-.121-.03 6.041 6.041 0 0 0-.381-.059c-.268-.034-.533-.067-.8-.109l-.005.002a.008.008 0 0 0-.003.006c0 .003.001.005.003.006a23.564 23.564 0 0 1 .763.167c.119.028.239.05.358.074a2.2 2.2 0 0 1 .288.082l.08.114c.12.174.235.354.348.533l-.167-.033a16.906 16.906 0 0 0-.381-.068c-.25-.041-.5-.084-.747-.138a.005.005 0 0 0-.005.003.008.008 0 0 0-.003.006c0 .002.001.004.003.005a.008.008 0 0 0 .005.003c.252.058.5.127.748.193.12.032.24.062.362.088l.182.039c.024.006.049.01.073.014a16.778 16.778 0 0 1 .937 1.729c.086.18.163.375.243.564.006.035.065.02.053-.022Z" fill="#263238"/><path d="M9.126 36.091a18.324 18.324 0 0 0-.1-.468c0-.01-.017 0-.016 0 .032.154.06.308.088.463.023.154.055.307.094.458a3.395 3.395 0 0 0-.066-.453Zm-.956-.046a2.49 2.49 0 0 0-.235-.099l-.124-.05-.064-.024a.257.257 0 0 1-.069-.03c-.012-.01-.02.012-.008.014a.258.258 0 0 1 .07.028l.063.028.118.053c.08.037.16.069.243.096.01.004.015-.011.006-.016Z" fill="#263238"/><path d="M11.71 36.95s.986-1.851 2.504-2.138c1.518-.287 2.43 1.265 2.43 1.265s-1.104 1.405-2.484 1.656c-1.38.251-2.45-.782-2.45-.782Z" fill="#407BFF"/><path d="M15.22 35.643a4.045 4.045 0 0 0-1.183.013c.022-.012.044-.024.068-.035l.334-.173c.232-.12.465-.248.708-.346a.008.008 0 0 0 .004-.011.008.008 0 0 0-.011-.005c-.236.11-.48.203-.718.31a8.191 8.191 0 0 0-.349.173c-.074.04-.157.078-.23.125a4.092 4.092 0 0 0-.958.324l.188-.206c.138-.154.276-.316.433-.455.008-.008 0-.02-.012-.013-.158.139-.325.276-.478.425-.073.074-.138.148-.214.226a2.83 2.83 0 0 0-.102.118 3.977 3.977 0 0 0-2.022 2.731c0 .002.001.005.003.006a.008.008 0 0 0 .006.002c.002 0 .004 0 .006-.002a4.353 4.353 0 0 1 4.532-3.18.016.016 0 0 0-.005-.027Z" fill="#263238"/><path d="M16.64 36.077s-1.104 1.405-2.484 1.656c-1.056.187-1.924-.364-2.277-.635l-.076-.125s.714-.602 2.07-.948c1.357-.347 2.767.052 2.767.052Z" fill="#000" opacity=".1"/><path d="M14.344 34.982a3.814 3.814 0 0 0-.336.222 2.116 2.116 0 0 0-.292.271c0 .002 0 .005.003.006a.009.009 0 0 0 .012 0c.1-.087.2-.174.305-.255.1-.083.207-.16.317-.23.009-.005-.001-.02-.01-.014Zm.828.313-.169.067-.168.07c-.012 0 0 .024 0 .019l.168-.068.167-.072c.017-.004.01-.02.002-.016Z" fill="#263238"/><path d="M11.512 39.282s.265 1.835 1.646 2.484c1.382.648 3.065 0 3.065 0s-.662-3.98-4.711-2.484Z" fill="#407BFF"/><path d="M15.271 40.572a5.02 5.02 0 0 1-.38-.06l-.186-.034-.096-.02-.112-.103a5.663 5.663 0 0 0-.845-.612 4.618 4.618 0 0 0-.506-.26h.026l.454.02c.304.015.607.022.91.04.01 0 .01-.016 0-.016-.305-.02-.608-.053-.911-.08l-.442-.04-.228-.02-.057-.006a4.793 4.793 0 0 0-.24-.081 2.151 2.151 0 0 0-1.17-.065c-.346.088-.69.316-.783.683 0 .012.016.02.022.008.13-.306.469-.46.775-.523.207-.04.419-.044.627-.012.014.094.037.186.069.276.038.13.076.258.116.387.077.258.164.514.24.772 0 .01.02 0 .016 0-.063-.258-.118-.519-.18-.777-.03-.127-.063-.253-.094-.38a2.153 2.153 0 0 0-.07-.26c.122.02.242.049.36.084.213.063.421.14.625.229.02.138.05.26.08.39a4.011 4.011 0 0 0 .141.491l.004.001h.004a.009.009 0 0 0 .003-.004l.002-.003a.01.01 0 0 0-.001-.004v-.03c-.03-.151-.064-.3-.095-.45-.025-.122-.049-.243-.076-.364.172.076.34.16.504.254 0 .038.012.076.018.11.01.064.022.126.033.188a7.437 7.437 0 0 0 .325 1.224.01.01 0 0 0 0 .01l.009.009c0 .006.015 0 .013-.009-.063-.276-.138-.542-.197-.815-.029-.138-.06-.276-.087-.414-.014-.068-.026-.138-.039-.206 0-.02 0-.04-.01-.06a5.814 5.814 0 0 1 1.366 1.11c.01.01.03-.001.022-.018a5.072 5.072 0 0 0-.33-.401 3.515 3.515 0 0 0-.215-.217h.023l.195.029c.128.018.255.03.383.044-.008-.004-.004-.015-.015-.015Z" fill="#263238"/><path d="m14.3 41.189-.007-.049c0-.02-.014-.04-.017-.06a6.739 6.739 0 0 1-.078-.374.008.008 0 0 0-.008 0 .008.008 0 0 0-.004.004c.008.165.044.327.105.48h.01v-.001Zm-1.155-.03a.008.008 0 0 0-.003-.006.009.009 0 0 0-.006-.002 14.802 14.802 0 0 1-.161-.747c-.008-.047-.018-.093-.027-.138a.404.404 0 0 0-.028-.12h-.016a.757.757 0 0 0 .035.246 8.14 8.14 0 0 0 .195.812.01.01 0 0 0 .011 0 .009.009 0 0 0 .004-.004c-.003-.014-.003-.028-.004-.042Zm2-1.123c-.252-.034-.505-.071-.757-.102-.01 0-.015.016 0 .017.252.037.505.069.758.102.006.001.01-.015 0-.017Z" fill="#263238"/><path d="M10.804 34.973s-.845-3.708 3.134-5.208c0 0 1.104 4.881-3.134 5.208Z" fill="#407BFF"/><path d="m11.664 32.87.043-.026.226-.126.46-.258c.306-.17.605-.348.912-.513.01 0 0-.02-.009-.015-.307.167-.62.323-.927.485l-.457.242-.186.1c.138-.253.276-.5.43-.738.209-.317.436-.62.674-.916.01-.014 0-.032-.02-.02-.35.34-.659.72-.921 1.13v-.038c0-.092 0-.185.008-.276v-.542c0-.011-.017-.011-.018 0 0 .178-.028.356-.039.534 0 .088-.008.177-.01.266v.155c-.085.13-.164.261-.238.392a7.136 7.136 0 0 0-.356.746c0-.092-.01-.183-.015-.276-.013-.194-.043-.401-.043-.608 0-.011-.018-.011-.018 0v.61c0 .1 0 .203.012.303v.114a6.943 6.943 0 0 0-.3 1.02c-.067.372-.115.749-.143 1.127.042-.338.113-.672.212-.998.05-.175.102-.349.157-.523.166-.077.324-.175.484-.263l.501-.276c.332-.183.664-.369 1.006-.529.011 0 0-.02-.008-.015-.348.157-.69.306-1.038.479a9.79 9.79 0 0 0-.503.269 7.246 7.246 0 0 0-.414.245 9.078 9.078 0 0 1 .538-1.26Z" fill="#263238"/><path d="M11.328 32.023c0-.011-.018-.011-.016 0 .014.211.02.424.044.633a.01.01 0 0 0 0 .005l.001.004a.01.01 0 0 0 .003.004.01.01 0 0 0 .01 0 .01.01 0 0 0 .004-.013c-.007-.21-.03-.422-.046-.633Zm1.91.708c-.25.1-.5.196-.749.3v.01c.251-.094.5-.196.75-.294.009-.004.009-.02 0-.016Zm.378-1.71a6.49 6.49 0 0 0-.707.38c-.011.006 0 .024.01.017.232-.138.467-.264.707-.383.01-.004.002-.02-.01-.014Z" fill="#263238"/><path d="M13.557 42.991H7.812v6.055h5.745v-6.055Z" fill="#C7C7C7"/><path d="M7.71 45.134h-.294v10.374h.294V45.134Zm6.211 0h-.293v10.374h.293V45.134Zm-2.949 0h-.294v10.374h.294V45.134Z" fill="#263238"/><path d="M13.775 48.659H7.564v.839h6.211v-.84ZM6.44 55.508l7.016-.035 7.014-.012 14.031-.022 14.03.022 7.015.012 7.016.035-7.016.033-7.014.012-14.031.022-14.03-.022-7.015-.012-7.016-.033Z" fill="#263238"/><path d="M50.436 7.135H18.59c-.779 0-1.41.63-1.41 1.409v49.023a1.41 1.41 0 0 0 1.41 1.409h31.847a1.41 1.41 0 0 0 1.41-1.41V8.544a1.41 1.41 0 0 0-1.41-1.408Z" fill="#455A64"/><path d="M50.381 10.794h-31.72v44.621h31.72v-44.62Z" fill="#fff"/><path d="m24.212 11.744-.041.04-.022.022a.552.552 0 0 0-.777 0l-.022-.023-.039-.04a.77.77 0 0 1 .168-.12.577.577 0 0 1 .156-.053l.079-.01h.121a.586.586 0 0 1 .235.079c.032.02.063.04.092.065l.043.038.007.002Z" fill="#C7C7C7"/><path d="M23.5 11.933a1.358 1.358 0 0 1-.063-.063.457.457 0 0 1 .647 0l-.064.063a.368.368 0 0 0-.52 0Z" fill="#C7C7C7"/><path d="m23.957 11.996-.064.064a.187.187 0 0 0-.266 0l-.063-.064a.275.275 0 0 1 .393 0Z" fill="#C7C7C7"/><path d="M23.817 12.118a.058.058 0 1 1-.116 0 .058.058 0 0 1 .116 0Zm-3.531-.25a.167.167 0 0 1 .33-.034.167.167 0 1 1-.33.034Zm.52 0a.165.165 0 1 1 .331 0 .165.165 0 0 1-.33 0Zm.522 0a.166.166 0 0 1 .199-.165.167.167 0 0 1 .06.302.167.167 0 0 1-.26-.137Zm.523 0a.167.167 0 0 1 .33-.034.167.167 0 1 1-.33.034Zm.523 0a.165.165 0 1 1 .33 0 .165.165 0 0 1-.33 0Zm26.223.36h-1.353V11.6h1.353v.628Zm-1.282-.07h1.211v-.487h-1.211v.487Z" fill="#C7C7C7"/><path d="M48.228 11.708h-.87v.412h.87v-.412Zm.489.039h-.12v.334h.12v-.334Z" fill="#C7C7C7"/><path d="M21.568 53.856h-.11v.508h-.207v-.258h-.366v.258h-.206v-.508h-.11l.5-.516.499.516Zm26.863-.516h-1.205v.172h1.205v-.172Zm0 .426h-1.205v.173h1.205v-.173Zm0 .425h-1.205v.173h1.205v-.173Zm-13.589-.407-.342.364-.342-.364.06-.056.282.3.282-.3.06.056Z" fill="#EBEBEB"/><path d="M34.5 54.526a.623.623 0 1 1-.003-1.245.623.623 0 0 1 .003 1.245Zm0-1.162a.54.54 0 1 0 0 1.08.54.54 0 0 0 0-1.08Z" fill="#EBEBEB"/><path d="M36.67 15.695H20.34V32.75h16.33V15.695Z" fill="#407BFF" opacity=".3"/><path d="M48.715 15.695H38.008V32.75h10.707V15.695Z" fill="#407BFF" opacity=".1"/><path d="m44.712 18.96-1.076 3.766v3.916a3.916 3.916 0 1 1 1.076-7.682Z" fill="#A6A6A6"/><path d="M45.954 25.88a3.882 3.882 0 0 1-2.32.762v-3.916l2.32 3.153Z" fill="#fff"/><path d="M47.547 22.726a3.904 3.904 0 0 1-1.593 3.153l-2.32-3.153 3.046-2.462c.563.696.87 1.566.867 2.462Z" fill="#37474F"/><path d="M47.547 18.996 44.5 21.458l1.076-3.768a3.921 3.921 0 0 1 1.97 1.306Z" fill="#407BFF"/><path d="M46.971 28.945h-4.572v.44h4.572v-.44Zm-1.537.917h-3.035v.439h3.035v-.44Z" fill="#455A64"/><path d="M41.658 28.939H40.29v1.368h1.37V28.94Z" fill="#A6A6A6"/><path d="M32.386 51.165h16.33V34.108h-16.33v17.057Z" fill="#407BFF" opacity=".3"/><path d="M36.633 48.548h-.735v.736h.735v-.736Z" fill="#407BFF"/><path d="M45.205 48.548h-8.06v.218h8.06v-.218Zm-2.853.52h-5.207v.217h5.207v-.218ZM34.21 37.826c2.114-.018 4.228-.014 6.348-.02 2.12-.008 4.228 0 6.348.02-2.114.02-4.229.015-6.348.022a516.23 516.23 0 0 1-6.348-.022Zm0 1.788c2.114-.019 4.228-.015 6.348-.022 2.12-.007 4.228 0 6.348.022-2.114.018-4.229.014-6.348.021a541.25 541.25 0 0 1-6.348-.02Zm0 1.785c2.114-.02 4.228-.015 6.348-.022 2.12-.007 4.228 0 6.348.022-2.114.018-4.229.014-6.348.02-2.12.008-4.234 0-6.348-.02Zm0 1.794c2.114-.02 4.228-.015 6.348-.022 2.12-.007 4.228 0 6.348.022-2.114.018-4.229.014-6.348.02-2.12.007-4.234-.006-6.348-.02Zm0 1.783c2.114-.02 4.228-.015 6.348-.022 2.12-.007 4.228 0 6.348.022-2.114.018-4.229.014-6.348.02a541.25 541.25 0 0 1-6.348-.02Z" fill="#455A64"/><path d="M36.763 36.666c.018 1.67.014 3.34.02 5.01.008 1.67 0 3.34-.02 5.01-.02-1.67-.015-3.34-.022-5.01-.007-1.67.003-3.34.022-5.01Zm2.193 0c.02 1.67.014 3.34.022 5.01.008 1.67 0 3.34-.022 5.01-.018-1.67-.014-3.34-.022-5.01-.008-1.67.004-3.34.022-5.01Zm2.194 0c.018 1.67.014 3.34.02 5.01.008 1.67 0 3.34-.02 5.01-.02-1.67-.014-3.34-.022-5.01-.008-1.67.003-3.34.022-5.01Zm2.193 0c.02 1.67.014 3.34.022 5.01.008 1.67 0 3.34-.022 5.01-.018-1.67-.014-3.34-.02-5.01-.008-1.67.009-3.34.02-5.01Zm2.197 0c.018 1.67.014 3.34.022 5.01.008 1.67 0 3.34-.022 5.01-.02-1.67-.014-3.34-.022-5.01-.008-1.67 0-3.34.022-5.01Z" fill="#455A64"/><path d="M34.528 43.68c.387 0 .618-1.815 1.167-1.815.55 0 .606 1.325 1.068 1.325.462 0 .447-2.327 1.067-2.327.62 0 .477.944 1.126.944.649 0 .404-2.191 1.082-2.191s.404 3.026 1.112 3.026c.447 0 .62-.96 1.154-.96.354 0 .563.48 1.025.48.462 0 .563-1.844 1.14-1.844s.643 1.082 1.071 1.082c.428 0 .577-1.787 1.357-1.787v7.072h-12.37V43.68Z" fill="#407BFF" opacity=".5"/><path d="M34.528 43.768v-.175c.117 0 .276-.424.397-.735.203-.53.414-1.08.77-1.08.356 0 .513.401.664.758.117.276.24.565.403.565.163 0 .276-.559.361-.966.15-.669.305-1.36.707-1.36.36 0 .5.276.625.512.124.236.225.432.501.432.25 0 .348-.512.442-1.006.111-.583.226-1.186.64-1.186.414 0 .517.76.628 1.562.09.649.203 1.458.484 1.458.169 0 .305-.2.452-.414.178-.257.378-.552.702-.552a.83.83 0 0 1 .494.234.864.864 0 0 0 .531.246c.16 0 .307-.439.424-.79.172-.52.35-1.055.716-1.055s.542.349.701.655c.115.225.224.436.367.436.122 0 .261-.34.383-.639.208-.51.467-1.148.974-1.148v.175c-.39 0-.616.553-.814 1.04-.17.414-.304.748-.543.748-.239 0-.38-.258-.521-.53-.141-.272-.289-.562-.552-.562-.264 0-.406.497-.552.934-.163.489-.304.911-.588.911a1.01 1.01 0 0 1-.638-.283.68.68 0 0 0-.388-.197c-.233 0-.398.24-.56.473-.161.233-.334.486-.593.486-.434 0-.541-.781-.656-1.61-.087-.627-.196-1.41-.457-1.41-.26 0-.376.553-.469 1.044-.113.59-.22 1.148-.613 1.148s-.525-.276-.654-.527c-.117-.224-.216-.414-.472-.414-.255 0-.414.679-.536 1.224-.138.615-.247 1.104-.532 1.104-.284 0-.414-.327-.563-.674-.138-.32-.276-.65-.503-.65-.228 0-.443.537-.609.965-.167.479-.316.853-.553.853Z" fill="#407BFF"/><path d="M34.528 36.774c.015 1.656.025 3.308.027 4.956l.014 4.955-.041-.041 6.183.011 3.092.008 3.09.022-3.09.022-3.092.009-6.183.01h-.04v-.04l.013-4.956c-.001-1.652.013-3.304.027-4.956Z" fill="#455A64"/><path d="M20.338 51.165h10.708V34.108H20.338v17.057Z" fill="#407BFF" opacity=".1"/><path d="M24.076 36.417a1.605 1.605 0 1 1-3.21-.002 1.605 1.605 0 0 1 3.21.002Z" fill="#455A64"/><path d="m23.863 35.618-1.394.799V34.81a1.606 1.606 0 0 1 1.394.808Z" fill="#407BFF"/><path d="M23.564 36.59a1.11 1.11 0 1 0-2.193-.354 1.11 1.11 0 0 0 2.193.355Z" fill="#fff"/><path d="M22.931 36.17h-.924v.13h.924v-.13Z" fill="#263238"/><path d="M23.162 36.533h-1.383v.13h1.383v-.13Z" fill="#A6A6A6"/><path d="M24.076 40.562a1.594 1.594 0 1 1-3.188-.005 1.594 1.594 0 0 1 3.188.005Z" fill="#455A64"/><path d="M24.076 40.562c0 .08-.006.158-.018.236l-1.589-.236v-1.605a1.606 1.606 0 0 1 1.607 1.605Z" fill="#407BFF"/><path d="M23.552 40.82a1.11 1.11 0 1 0-2.163-.509 1.11 1.11 0 0 0 2.163.51Z" fill="#fff"/><path d="M22.931 40.315h-.924v.131h.924v-.13Z" fill="#263238"/><path d="M23.16 40.678h-1.382v.131h1.383v-.13Z" fill="#A6A6A6"/><path d="M24.076 44.712a1.605 1.605 0 1 1-3.21-.002 1.605 1.605 0 0 1 3.21.002Z" fill="#455A64"/><path d="M24.076 44.712a1.605 1.605 0 0 1-1.03 1.496l-.577-1.496v-1.61a1.603 1.603 0 0 1 1.607 1.61Z" fill="#407BFF"/><path d="M23.58 44.712a1.103 1.103 0 0 1-2.186.21 1.104 1.104 0 1 1 2.186-.21Z" fill="#fff"/><path d="M22.931 44.462h-.924v.131h.924v-.13Z" fill="#263238"/><path d="M23.162 44.825h-1.383v.131h1.383v-.13Z" fill="#A6A6A6"/><path d="M24.076 48.852a1.605 1.605 0 1 1-3.211 0 1.605 1.605 0 0 1 3.21 0Z" fill="#455A64"/><path d="M24.076 48.852a1.605 1.605 0 0 1-2.649 1.221l1.042-1.221V47.25a1.604 1.604 0 0 1 1.607 1.602Z" fill="#407BFF"/><path d="M23.564 49.03a1.11 1.11 0 1 0-2.193-.355 1.11 1.11 0 0 0 2.193.354Z" fill="#fff"/><path d="M22.931 48.608h-.924v.13h.924v-.13Z" fill="#263238"/><path d="M23.16 48.97h-1.382v.132h1.383v-.131Z" fill="#A6A6A6"/><path d="M29.506 35.921h-4.452v.125h4.452v-.125Zm0 .434h-4.452v.124h4.452v-.124Zm0 .432h-4.452v.124h4.452v-.124Zm0 3.281h-4.452v.124h4.452v-.124Zm0 .432h-4.452v.124h4.452V40.5Zm0 .434h-4.452v.124h4.452v-.124Zm0 3.281h-4.452v.124h4.452v-.124Zm0 .432h-4.452v.124h4.452v-.124Zm0 .432h-4.452v.124h4.452v-.124Zm0 3.282h-4.452v.124h4.452v-.124Zm0 .433h-4.452v.124h4.452v-.124Zm0 .432h-4.452v.124h4.452v-.124Z" fill="#455A64"/><path d="M24.135 20.273h-1.13v9.914h1.13v-9.914Zm1.943 1.648h-1.13v8.266h1.13v-8.266Zm1.943 3.006h-1.13v5.262h1.13v-5.262Zm1.943-3.15h-1.13v8.412h1.13v-8.411Zm1.943 1.382h-1.13v7.03h1.13v-7.03Zm1.943-4.267h-1.13V30.19h1.13V18.892Z" fill="#fff"/><path d="m22.356 18.204.012 2.996.007 2.997.009 5.992-.028-.05c2.746-.014 5.492 0 8.239.01l2.29.01 2.032.03-2.032.029-2.29.01c-2.747 0-5.493.024-8.239.01h-.029v-.05l.008-5.991V21.2l.021-2.996Z" fill="#263238"/><path d="M22.1 18.892a.542.542 0 0 1 .25-.055.523.523 0 0 1 .247.055.542.542 0 0 1-.248.055.563.563 0 0 1-.25-.055Zm0 1.19a.543.543 0 0 1 .25-.056.524.524 0 0 1 .247.056.59.59 0 0 1-.498 0Zm0 1.19a.576.576 0 0 1 .497 0 .59.59 0 0 1-.498 0Zm0 1.188a.59.59 0 0 1 .497 0 .576.576 0 0 1-.498 0Zm0 1.189a.589.589 0 0 1 .497 0 .589.589 0 0 1-.498 0Zm0 1.191a.56.56 0 0 1 .25-.055.54.54 0 0 1 .247.055.525.525 0 0 1-.248.055.544.544 0 0 1-.25-.055Zm0 1.188a.544.544 0 0 1 .25-.055.525.525 0 0 1 .247.055.54.54 0 0 1-.248.055.56.56 0 0 1-.25-.055Zm0 1.19a.544.544 0 0 1 .25-.055.525.525 0 0 1 .247.055.589.589 0 0 1-.498 0Zm0 1.19a.577.577 0 0 1 .497 0 .589.589 0 0 1-.498 0Zm16.176-19.04v-.194a.172.172 0 0 0-.173-.172H30.9a.172.172 0 0 0-.173.172v.195c0 .095.077.172.173.172h7.203a.172.172 0 0 0 .173-.172Zm-3.484 48.79a.976.976 0 1 0-.578-1.864.976.976 0 0 0 .578 1.864Z" fill="#263238"/><path d="M51.373 28.663v11.836H35.988v-.56a.743.743 0 0 1-.216.03.871.871 0 0 1-.17-.018.728.728 0 0 1-.367-.017.824.824 0 0 1-.481-.013.937.937 0 0 1-.24.041h-.026a.733.733 0 0 1-.726-.64.868.868 0 0 1 1.021-1.216.833.833 0 0 1 .448-.007.811.811 0 0 1 .405-.015.704.704 0 0 1 .352.012v-.394a.762.762 0 0 1-.396.015.728.728 0 0 1-.366-.017.848.848 0 0 1-.454-.006.867.867 0 0 1-1.047-1.147.813.813 0 0 1 1.04-.674.84.84 0 0 1 .458-.008.81.81 0 0 1 .403-.015.707.707 0 0 1 .362.015v-.414a.762.762 0 0 1-.276.048.775.775 0 0 1-.172-.018.698.698 0 0 1-.365-.016.827.827 0 0 1-.473-.011.73.73 0 0 1-.966-.798.73.73 0 0 1 .654-1.054h.328l.066.013h.007a.803.803 0 0 1 .375.014.81.81 0 0 1 .403-.016.698.698 0 0 1 .408.031v-.414a.747.747 0 0 1-.216.03.863.863 0 0 1-.17-.017.731.731 0 0 1-.367-.017.828.828 0 0 1-.455-.005.866.866 0 0 1-1.033-.48l-.061-.072-.013-.235v-.072c0-.134.023-.267.07-.393a.907.907 0 0 1 .825-.606h.026c.069 0 .138.01.204.03a.836.836 0 0 1 .436-.002.804.804 0 0 1 .404-.015.705.705 0 0 1 .352.012v-.397a.81.81 0 0 1-.41.018.705.705 0 0 1-.368-.017.809.809 0 0 1-.457-.007.878.878 0 0 1-.852-.211l-.034-.039h-.067v-.099a.741.741 0 0 1-.072-.625.731.731 0 0 1 .716-.882h.215c.057 0 .113.007.167.02a.822.822 0 0 1 .394.01.797.797 0 0 1 .401-.016.691.691 0 0 1 .376.02v-.5h15.385Z" fill="#fff"/><path d="M50.682 31.585H36.678v1.523h14.004v-1.523Z" fill="#EBEBEB"/><path d="M43.343 32.016h-6.158v.658h6.158v-.658Z" fill="#455A64"/><path d="M34.717 32.394a.177.177 0 0 1-.295.14.176.176 0 0 1-.059-.122v-.041a.42.42 0 0 1 .027-.15.253.253 0 0 1 .093-.125.205.205 0 0 1 .11-.034.04.04 0 0 1 .03.01.04.04 0 0 1 .012.028c0 .01-.004.021-.01.03a.043.043 0 0 1-.028.013.127.127 0 0 0-.07.02.15.15 0 0 0-.046.05.083.083 0 0 1-.01.02.175.175 0 0 1 .194.038.177.177 0 0 1 .052.123Zm-.082 0a.095.095 0 0 0-.023-.075.097.097 0 0 0-.165.035.096.096 0 1 0 .188.04Zm.196-.078a.3.3 0 0 1 .05-.176.162.162 0 0 1 .138-.081.164.164 0 0 1 .138.081.331.331 0 0 1 0 .35.166.166 0 0 1-.138.08.163.163 0 0 1-.138-.08.3.3 0 0 1-.05-.175Zm.289 0a.254.254 0 0 0-.035-.132.086.086 0 0 0-.069-.044.087.087 0 0 0-.069.044.243.243 0 0 0-.036.132c0 .045.012.09.036.128a.091.091 0 0 0 .07.045.088.088 0 0 0 .068-.045.248.248 0 0 0 .035-.129Zm.223-.13a.12.12 0 0 1 .033-.092.122.122 0 0 1 .089-.04.12.12 0 0 1 .087.04.122.122 0 0 1 .031.09.124.124 0 0 1-.121.132.122.122 0 0 1-.087-.04.123.123 0 0 1-.032-.09Zm.175 0c0-.042-.023-.075-.056-.075s-.054.033-.054.073c0 .042.023.075.057.075.033 0 .053-.033.053-.073Zm-.092.34.337-.458a.026.026 0 0 1 .025-.012.029.029 0 0 1 .028.028.03.03 0 0 1-.006.019l-.336.465a.029.029 0 0 1-.026.014c-.004 0-.007 0-.01-.002a.027.027 0 0 1-.01-.007.03.03 0 0 1-.006-.01.028.028 0 0 1-.002-.01c0-.01.002-.018.006-.026Zm.226-.078a.122.122 0 0 1 .072-.124.122.122 0 0 1 .165.074.12.12 0 0 1 .005.05.124.124 0 0 1-.122.13.12.12 0 0 1-.12-.13Zm.176 0c0-.041-.024-.075-.056-.075-.031 0-.055.034-.055.072 0 .042.024.075.057.075s.054-.033.054-.072Z" fill="#263238"/><path d="M50.682 29.351H36.678v1.523h14.004V29.35Z" fill="#EBEBEB"/><path d="M40.221 29.783h-3.035v.659h3.035v-.659Z" fill="#407BFF"/><path d="M34.638 30.026a.18.18 0 0 1 0 .257.177.177 0 0 1-.128.054.182.182 0 0 1-.129-.054.043.043 0 0 1 0-.058.042.042 0 0 1 .03-.013.043.043 0 0 1 .03.013.096.096 0 0 0 .069.029.1.1 0 0 0 .099-.1.1.1 0 0 0-.098-.098.04.04 0 0 1-.03-.013.041.041 0 0 1 0-.058l.074-.076h-.117a.041.041 0 0 1 0-.083h.215a.04.04 0 0 1 .039.025.04.04 0 0 1 .003.016.048.048 0 0 1 0 .02v.01l-.093.095c.014.01.026.02.036.034Zm.17.058a.3.3 0 0 1 .05-.175.16.16 0 0 1 .137-.08.164.164 0 0 1 .138.08.31.31 0 0 1 .05.175.315.315 0 0 1-.05.175.166.166 0 0 1-.138.08.164.164 0 0 1-.138-.08.305.305 0 0 1-.05-.175Zm.288 0a.25.25 0 0 0-.034-.13.087.087 0 0 0-.07-.045.09.09 0 0 0-.068.045.261.261 0 0 0 0 .26.09.09 0 0 0 .069.045.087.087 0 0 0 .069-.045.25.25 0 0 0 .034-.13Zm.224-.138a.123.123 0 0 1 .121-.131.122.122 0 0 1 .112.081.12.12 0 0 1 .007.049.12.12 0 0 1-.24 0v.001Zm.175 0c0-.04-.023-.075-.057-.075-.033 0-.053.035-.053.074 0 .041.023.074.056.074s.054-.027.054-.073Zm-.092.342.336-.46a.026.026 0 0 1 .025-.012.03.03 0 0 1 .03.03.026.026 0 0 1-.008.017l-.335.46a.029.029 0 0 1-.012.01.03.03 0 0 1-.014.002.028.028 0 0 1-.028-.027c0-.005.003-.01.006-.014v-.006Zm.226-.08a.119.119 0 0 1 .03-.094.122.122 0 0 1 .206.044.12.12 0 0 1 .005.05.124.124 0 0 1-.121.131.122.122 0 0 1-.12-.125v-.006Zm.175 0c0-.041-.023-.074-.055-.074s-.055.033-.055.073c0 .041.023.074.056.074s.054-.027.054-.067v-.006Z" fill="#263238"/><path d="M50.682 38.287H36.678v1.522h14.004v-1.522Z" fill="#EBEBEB"/><path d="M47.693 38.717H37.185v.659h10.508v-.659Z" fill="#407BFF"/><path d="M34.362 38.937a.177.177 0 1 1 .353-.018v.041a.435.435 0 0 1-.025.15.265.265 0 0 1-.095.126.218.218 0 0 1-.127.034.04.04 0 0 1-.027-.023.041.041 0 0 1 0-.035.04.04 0 0 1 .027-.022.042.042 0 0 1 .018 0 .14.14 0 0 0 .115-.072l.01-.02a.174.174 0 0 1-.196-.036.178.178 0 0 1-.053-.125Zm.081 0a.097.097 0 1 0 .194 0 .097.097 0 0 0-.194 0Zm.388.08a.301.301 0 0 1 .05-.176.162.162 0 0 1 .138-.081.165.165 0 0 1 .138.081.332.332 0 0 1 0 .35.166.166 0 0 1-.138.081.162.162 0 0 1-.138-.081.3.3 0 0 1-.05-.174Zm.289 0a.258.258 0 0 0-.035-.138.085.085 0 0 0-.069-.044.088.088 0 0 0-.069.044.246.246 0 0 0-.036.138c0 .045.012.09.036.128a.09.09 0 0 0 .07.046.087.087 0 0 0 .068-.046.247.247 0 0 0 .035-.128Zm.223-.13a.125.125 0 0 1 .033-.092.124.124 0 0 1 .089-.04.122.122 0 0 1 .118.13.125.125 0 0 1-.121.139.124.124 0 0 1-.09-.043.125.125 0 0 1-.029-.094Zm.175 0c0-.041-.023-.075-.056-.075s-.054.034-.054.074c0 .041.023.074.057.074.033 0 .053-.034.053-.073Zm-.092.34.337-.457a.027.027 0 0 1 .025-.013.029.029 0 0 1 .029.028.033.033 0 0 1-.007.02l-.336.457a.028.028 0 0 1-.01.01.028.028 0 0 1-.016.004c-.004 0-.007 0-.01-.002a.028.028 0 0 1-.01-.006.03.03 0 0 1-.006-.01.027.027 0 0 1-.002-.01c0-.008.003-.014.006-.02Zm.226-.078a.122.122 0 0 1 .072-.124.122.122 0 0 1 .14.03.12.12 0 0 1 .03.094.126.126 0 0 1-.033.091.124.124 0 0 1-.089.04.122.122 0 0 1-.12-.13Zm.176 0c0-.04-.024-.074-.056-.074-.031 0-.055.034-.055.073 0 .043.024.076.057.076s.054-.032.054-.075Z" fill="#263238"/><path d="M50.682 36.053H36.678v1.522h14.004v-1.523Z" fill="#EBEBEB"/><path d="M46.629 36.484h-9.444v.659h9.444v-.659Z" fill="#455A64"/><path d="M34.704 36.864a.175.175 0 1 1-.272-.145.12.12 0 0 1-.012-.127.121.121 0 0 1 .109-.066.12.12 0 0 1 .107.067.121.121 0 0 1-.01.126.173.173 0 0 1 .078.145Zm-.08 0a.095.095 0 1 0-.059.087.092.092 0 0 0 .052-.05.094.094 0 0 0 .007-.037Zm-.138-.218a.04.04 0 0 0 .026.039.04.04 0 0 0 .016.002.04.04 0 0 0 .034-.008.042.042 0 0 0-.016-.072.04.04 0 0 0-.018-.001.04.04 0 0 0-.04.04h-.002Zm.336.137a.316.316 0 0 1 .05-.176.167.167 0 0 1 .137-.081.164.164 0 0 1 .138.081.331.331 0 0 1 0 .35.163.163 0 0 1-.138.08.168.168 0 0 1-.138-.08.322.322 0 0 1-.05-.174Zm.29 0a.245.245 0 0 0-.037-.138.086.086 0 0 0-.067-.045.088.088 0 0 0-.07.045.256.256 0 0 0 0 .26.088.088 0 0 0 .07.044.086.086 0 0 0 .067-.044.244.244 0 0 0 .036-.122Zm.216-.13a.126.126 0 0 1 .033-.091.124.124 0 0 1 .088-.04.123.123 0 0 1 .114.08.122.122 0 0 1 .006.05.125.125 0 0 1-.07.126.122.122 0 0 1-.051.011.121.121 0 0 1-.09-.041.123.123 0 0 1-.03-.095Zm.177 0c0-.042-.024-.075-.057-.075s-.055.033-.055.073c0 .042.023.075.056.075.034 0 .061-.033.061-.073h-.005Zm-.093.34.336-.458a.03.03 0 0 1 .055.015.04.04 0 0 1-.007.02l-.33.458a.032.032 0 0 1-.026.014.03.03 0 0 1-.03-.029.039.039 0 0 1 .008-.02h-.006Zm.225-.078a.124.124 0 0 1 .121-.131.123.123 0 0 1 .12.13.124.124 0 0 1-.12.13.12.12 0 0 1-.109-.082.122.122 0 0 1-.006-.047h-.006Zm.177 0c0-.041-.024-.075-.057-.075s-.054.034-.054.074c0 .041.022.074.055.074.034 0 .061-.034.061-.073h-.005Z" fill="#263238"/><path d="M50.682 33.818H36.678v1.523h14.004v-1.523Z" fill="#EBEBEB"/><path d="M45.202 34.25h-8.017v.658h8.017v-.658Z" fill="#407BFF"/><path d="m34.689 34.348-.189.428a.037.037 0 0 1-.037.025h-.016a.04.04 0 0 1-.02-.022.041.041 0 0 1-.002-.03l.16-.375h-.19a.041.041 0 0 1-.04-.041.039.039 0 0 1 .025-.037.04.04 0 0 1 .015-.003h.273v.017s.021.035.021.038Zm.087.2a.304.304 0 0 1 .05-.174.166.166 0 0 1 .138-.081.168.168 0 0 1 .138.081c.032.052.05.113.048.174a.324.324 0 0 1-.048.175.171.171 0 0 1-.138.082.168.168 0 0 1-.138-.081.315.315 0 0 1-.05-.176Zm.288 0a.24.24 0 0 0-.034-.13.086.086 0 0 0-.068-.044.087.087 0 0 0-.07.044.24.24 0 0 0-.035.13c0 .046.011.091.035.13a.09.09 0 0 0 .07.046.087.087 0 0 0 .068-.046.238.238 0 0 0 .034-.13Zm.224-.13a.12.12 0 0 1 .071-.123.122.122 0 0 1 .17.123.122.122 0 0 1-.07.124.122.122 0 0 1-.14-.03.12.12 0 0 1-.031-.093Zm.175 0c0-.04-.022-.074-.055-.074s-.055.035-.055.073c0 .042.023.075.056.075.034 0 .057-.033.057-.073h-.003Zm-.09.343.335-.458a.026.026 0 0 1 .024-.014.03.03 0 0 1 .03.029.026.026 0 0 1-.008.018l-.335.46a.03.03 0 0 1-.025.012.027.027 0 0 1-.02-.008.027.027 0 0 1-.009-.02c0-.007.003-.014.007-.02Zm.224-.08a.122.122 0 0 1 .12-.135.122.122 0 0 1 .116.084.122.122 0 0 1 .006.05.124.124 0 0 1-.122.132.122.122 0 0 1-.113-.131h-.007Zm.177 0c0-.042-.024-.075-.057-.075s-.055.033-.055.073c0 .042.023.075.056.075.034 0 .056-.033.056-.073Z" fill="#263238"/><path d="M36.87 14.722a6.876 6.876 0 0 1-4.387 6.392l-.645.247-.06-.156-.122.047a6.838 6.838 0 0 1-7.71-10.758 6.839 6.839 0 0 1 5.258-2.467h.138V7.89h.69a6.832 6.832 0 0 1 6.839 6.84v-.007Z" fill="#fff"/><path d="M31.407 20.602A6.15 6.15 0 1 1 29.2 8.71v6.15l2.208 5.742Z" fill="#37474F"/><path d="M36.18 14.722a6.148 6.148 0 0 1-3.944 5.742l-2.208-5.742v-6.15a6.144 6.144 0 0 1 6.149 6.15h.004Z" fill="#407BFF"/><path d="M26.45 11.498h.03a.276.276 0 0 1 .22.276.265.265 0 0 1-.163.258.275.275 0 0 1-.3-.041.264.264 0 0 1-.089-.286.275.275 0 0 1 .225-.203h.015l.063-.004Zm-.002 2.806v-.464c0-.022 0-.022-.024-.022-.023 0-.033 0-.033.032v.906a.15.15 0 0 1-.058.123.084.084 0 0 1-.063.022.165.165 0 0 0-.037 0c-.056.009-.114-.056-.118-.11v-.956c0-.014 0-.018-.018-.017h-.309c-.023 0-.025 0-.018-.025.091-.313.18-.628.276-.941l.093-.32c0-.02 0-.02-.016-.02-.045 0-.035 0-.048.035-.067.233-.138.468-.2.701a.114.114 0 0 1-.084.09.124.124 0 0 1-.126-.037.106.106 0 0 1-.022-.11l.072-.252.156-.54a.395.395 0 0 1 .186-.24.342.342 0 0 1 .153-.04h.414a.35.35 0 0 1 .32.19c.029.062.051.125.067.191.063.224.128.447.192.67a.193.193 0 0 1 0 .097c0 .038-.039.056-.072.068a.119.119 0 0 1-.156-.084c-.066-.242-.138-.482-.206-.723a.02.02 0 0 0-.022-.017c-.041 0-.043 0-.03.04.1.348.199.695.3 1.042l.057.201c0 .023 0 .024-.016.024h-.308c-.023 0-.023 0-.023.024v.924a.13.13 0 0 1-.075.123.064.064 0 0 1-.032.008h-.034a.138.138 0 0 1-.138-.138v-.455Zm-.874 2.162a.402.402 0 0 1-.8.042v-.096a.974.974 0 0 1 .058-.34.58.58 0 0 1 .214-.275.476.476 0 0 1 .248-.077.091.091 0 0 1 .07.154.093.093 0 0 1-.063.03.302.302 0 0 0-.156.046.344.344 0 0 0-.126.159.4.4 0 0 1 .555.358Zm-.183 0a.217.217 0 0 0-.378-.165.22.22 0 0 0-.057.165.218.218 0 0 0 .435 0Zm1.053-.3a.403.403 0 0 1 .121.29.414.414 0 0 1-.41.41.401.401 0 0 1-.288-.12.098.098 0 0 1 .069-.166.098.098 0 0 1 .069.028.221.221 0 0 0 .316 0 .226.226 0 0 0 .05-.243.212.212 0 0 0-.05-.073.21.21 0 0 0-.156-.065.22.22 0 0 0-.16.065.095.095 0 0 1-.138 0 .25.25 0 0 0-.018-.022.012.012 0 0 0 0-.008v-.013a.1.1 0 0 1 0-.028l.05-.428a.104.104 0 0 1 .04-.067h.008a.084.084 0 0 1 .043-.01h.488a.093.093 0 0 1 .097.055.095.095 0 0 1-.023.11.093.093 0 0 1-.074.022h-.407l-.02.164a.401.401 0 0 1 .393.098Zm.375-.172a.275.275 0 0 1 .276-.296.275.275 0 0 1 .276.292.277.277 0 1 1-.552.004Zm.399 0c0-.092-.054-.168-.127-.168-.073 0-.124.076-.124.164 0 .094.052.168.127.168.074 0 .124-.074.124-.164Zm-.209.773.76-1.038a.067.067 0 0 1 .032-.025.067.067 0 0 1 .076.022.067.067 0 0 1 .014.04c0 .015-.006.03-.015.042l-.759 1.038a.069.069 0 0 1-.058.029.063.063 0 0 1-.06-.039.062.062 0 0 1-.005-.025c0-.016.006-.031.015-.044Zm.51-.18a.277.277 0 1 1 .552-.002.276.276 0 1 1-.552.003Zm.398 0c0-.092-.052-.168-.127-.168-.074 0-.124.076-.124.166 0 .095.053.17.127.17.075 0 .124-.08.124-.167Zm4.521-4.134a.422.422 0 0 1 .03-.109.343.343 0 0 1 .318-.212h.639a.358.358 0 0 1 .346.321v.892a.124.124 0 0 1-.059.113.12.12 0 0 1-.122 0 .12.12 0 0 1-.062-.105v-.745c0-.04 0-.035-.034-.036h-.01c-.01 0-.02 0-.019.02v2.142a.164.164 0 0 1-.094.158.05.05 0 0 1-.032 0 .4.4 0 0 0-.057 0 .122.122 0 0 1-.11-.057.154.154 0 0 1-.035-.106v-1.242c0-.014 0-.02-.02-.02-.047 0-.047 0-.047.047v1.207a.162.162 0 0 1-.093.155h-.007a.239.239 0 0 1-.155-.016.16.16 0 0 1-.072-.138v-2.119c0-.031 0-.031-.029-.031s-.033 0-.033.033v.745a.123.123 0 0 1-.129.125.122.122 0 0 1-.086-.045.12.12 0 0 1-.022-.044v-.016l-.006-.917Zm.668-.396a.276.276 0 1 1 0-.552.276.276 0 0 1 0 .552Zm-.771 4.503a.092.092 0 0 1-.027.065.09.09 0 0 1-.066.026h-.016v.125a.09.09 0 0 1-.156.065.09.09 0 0 1-.026-.065v-.125h-.522a.077.077 0 0 1-.055-.02.088.088 0 0 1-.015-.126l.612-.762h.116l.007.008a.157.157 0 0 1 0 .02v.681h.017a.093.093 0 0 1 .13.055.093.093 0 0 1 0 .053Zm-.291-.5-.33.414h.33v-.414Zm1.116.105a.4.4 0 0 1 .12.291.414.414 0 0 1-.253.38.403.403 0 0 1-.157.03.399.399 0 0 1-.288-.12.09.09 0 0 1 0-.138.093.093 0 0 1 .138 0 .224.224 0 0 0 .244.05.225.225 0 0 0 .122-.292.218.218 0 0 0-.05-.074.211.211 0 0 0-.157-.065.213.213 0 0 0-.16.065.095.095 0 0 1-.137 0c-.007 0-.011-.015-.018-.022v-.02a.1.1 0 0 1 0-.028l.05-.428a.094.094 0 0 1 .041-.067.087.087 0 0 1 .043-.01h.488a.093.093 0 0 1 .097.055.095.095 0 0 1-.023.11.093.093 0 0 1-.074.022h-.407l-.02.164a.434.434 0 0 1 .267.013c.05.02.096.048.134.085Zm.374-.17a.277.277 0 1 1 .552-.005.276.276 0 1 1-.552 0v.004Zm.399 0c0-.093-.053-.17-.127-.17-.075 0-.124.077-.124.165 0 .094.052.168.127.168.074 0 .124-.074.124-.164Zm-.209.772.76-1.038a.063.063 0 0 1 .057-.029.063.063 0 0 1 .065.065c0 .015-.005.03-.014.043l-.76 1.038a.067.067 0 0 1-.058.029.066.066 0 0 1-.046-.018.062.062 0 0 1-.019-.046.08.08 0 0 1 .015-.044Zm.511-.18a.276.276 0 1 1 .545 0 .277.277 0 0 1-.276.297.276.276 0 0 1-.269-.296Zm.399 0c0-.092-.054-.168-.128-.168-.075 0-.125.076-.125.166 0 .095.054.17.129.17.074 0 .128-.08.128-.167h-.004Z" fill="#fff"/><path d="M43.282 61.765c.316.098 9.263-.094 9.601-.316.127-.083.175-1.39.188-2.967v-1.05c0-.424 0-.853-.009-1.269-.023-1.868-.08-3.515-.08-3.515l-5.825.11.068 3.513.025 1.268.05 1.049s-3.392 1.606-3.736 1.89c-.344.285-.595 1.19-.282 1.287Z" fill="#F7F7F7"/><path d="M43.282 61.764c.316.098 9.263-.093 9.601-.316.127-.082.175-1.39.188-2.967v-1.05c0-.423 0-.852-.009-1.268l-5.837.108.025 1.268.05 1.049s-3.392 1.606-3.736 1.89c-.344.285-.595 1.19-.282 1.286Z" fill="#fff"/><path d="M43.256 61.778c.206.064 4.017.007 6.791-.102a77.539 77.539 0 0 0 1.702-.084c.652-.041 1.09-.085 1.16-.138.156-.103.196-2.019.193-4.04l-5.853.11.05 1.054s-3.412 1.615-3.757 1.9c-.345.286-.602 1.208-.286 1.3Z" fill="#407BFF"/><path d="M43.256 61.778c.206.064 4.017.007 6.791-.102a77.539 77.539 0 0 0 1.702-.084c.652-.041 1.09-.085 1.16-.138.156-.103.196-2.019.193-4.04l-5.853.11.05 1.054s-3.412 1.615-3.757 1.9c-.345.286-.602 1.208-.286 1.3Z" fill="#fff" opacity=".5"/><path d="M43.378 61.41c1.507-.07 7.59-.206 9.088-.16.013 0 .013.008 0 .01-1.493.1-7.58.189-9.09.175-.03.005-.03-.018.002-.025Zm3.7-3.156c.591-.124 1.319-.048 1.782.366.018.015 0 .04-.025.034a8.386 8.386 0 0 0-1.752-.326.038.038 0 0 1-.04-.035.038.038 0 0 1 .036-.04Zm-.423.268c.592-.125 1.32-.049 1.782.364.018.016 0 .041-.025.036a8.296 8.296 0 0 0-1.767-.328.037.037 0 0 1-.016-.06.037.037 0 0 1 .026-.012Zm-.425.266c.59-.123 1.32-.047 1.782.366.017.016 0 .041-.025.036a8.296 8.296 0 0 0-1.753-.326.039.039 0 0 1-.026-.061.039.039 0 0 1 .022-.015Zm-.414.268c.592-.123 1.32-.049 1.782.365.017.016 0 .042-.024.035a8.414 8.414 0 0 0-1.758-.326.037.037 0 0 1-.026-.064.037.037 0 0 1 .026-.01Z" fill="#263238"/><path d="M47.835 61.747c.753-.02 1.518-.044 2.208-.072a63.391 63.391 0 0 0 1.702-.083c.652-.041 1.09-.085 1.16-.138.138-.09.185-1.57.192-3.294-1.324.893-3.934 2.677-5.262 3.587Z" fill="#000" opacity=".1"/><path d="m46.727 58.512 6.647.007s-.364-14.963-.292-15.318c.17-.828 3.952-14.026 3.952-14.026l-5.244.09-1.412.032s-.226 2.197-.29 2.43c-.876 3.2-2.588 8.666-2.938 10.691-.61 3.52-.423 16.094-.423 16.094Z" fill="#37474F"/><path d="M46.942 57.408c1.038-.028 4.71-.138 6.093-.033a.01.01 0 0 1 .007.003.01.01 0 0 1 0 .014.01.01 0 0 1-.007.002c-.474.078-5.055.057-6.092.043a.015.015 0 0 1-.018-.007.015.015 0 0 1 0-.014.015.015 0 0 1 .004-.005.015.015 0 0 1 .013-.003Zm5.618-14.529c.199-.808 1.68-5.848 2.132-7.44.453-1.59.878-3.19 1.268-4.796.05-.204.1-.414.155-.61 0-.017.029-.01.026.007-.15.81-.348 1.612-.538 2.412-.19.8-.392 1.6-.606 2.394a99.67 99.67 0 0 1-1.405 4.76c-.252.784-.67 2.396-.894 3.19-.224.795.138 13.825.119 14.037a.048.048 0 0 1-.048.04.048.048 0 0 1-.047-.04c-.03-1.536-.358-13.155-.162-13.954Z" fill="#263238"/><path d="M51.783 29.274s1.285 14.004 1.299 13.938c.165-.805 3.726-13.212 3.942-13.988 0-.025.01-.037.01-.037l-5.25.087Z" fill="#263238"/><path d="M49.984 62.532c.316.098 9.262-.094 9.6-.316.127-.084.175-1.39.188-2.967v-1.052c0-.422 0-.851-.008-1.267-.024-1.87-.08-3.514-.08-3.514l-5.825.107.067 3.515.025 1.268.05 1.049s-3.392 1.606-3.736 1.89c-.343.285-.595 1.189-.281 1.287Z" fill="#F7F7F7"/><path d="M49.984 62.532c.316.098 9.262-.094 9.6-.316.127-.084.175-1.39.188-2.967v-1.052c0-.422 0-.851-.008-1.267l-5.838.108.025 1.268.05 1.05s-3.392 1.605-3.736 1.89c-.343.284-.595 1.188-.281 1.286Z" fill="#fff"/><path d="M49.956 62.546c.206.063 4.017 0 6.791-.102a87.308 87.308 0 0 0 1.702-.085c.652-.042 1.09-.085 1.16-.138.156-.103.195-2.019.193-4.039l-5.854.108.05 1.056s-3.411 1.614-3.756 1.9c-.345.285-.6 1.2-.286 1.3Z" fill="#407BFF"/><path d="M49.956 62.546c.206.063 4.017 0 6.791-.102a87.308 87.308 0 0 0 1.702-.085c.652-.042 1.09-.085 1.16-.138.156-.103.195-2.019.193-4.039l-5.854.108.05 1.056s-3.411 1.614-3.756 1.9c-.345.285-.6 1.2-.286 1.3Z" fill="#fff" opacity=".5"/><path d="M50.079 62.183c1.507-.07 7.59-.207 9.088-.16.013 0 .013.008 0 .008-1.493.102-7.58.19-9.09.177-.03 0-.03-.024.002-.025Zm3.701-3.162c.59-.124 1.318-.048 1.782.364.018.017 0 .042-.025.036a8.296 8.296 0 0 0-1.753-.325.038.038 0 0 1-.04-.036c0-.01.004-.02.01-.027a.037.037 0 0 1 .026-.012Zm-.424.267c.592-.123 1.32-.047 1.782.365.018.017 0 .042-.025.036a8.302 8.302 0 0 0-1.752-.326.038.038 0 0 1-.034-.036.039.039 0 0 1 .03-.04Zm-.422.267c.59-.123 1.32-.048 1.782.366.018.015 0 .041-.025.035a8.389 8.389 0 0 0-1.767-.328.037.037 0 0 1-.016-.06.038.038 0 0 1 .026-.013Zm-.424.268c.592-.124 1.32-.048 1.782.364.018.017 0 .042-.023.036a8.413 8.413 0 0 0-1.755-.33.038.038 0 0 1-.025-.034.038.038 0 0 1 .021-.036Z" fill="#263238"/><path d="M52.938 58.512c.427.318.976.44 1.47.61a.072.072 0 0 0 .065-.015.074.074 0 0 0 .026-.061.015.015 0 0 0 .014-.02 3.167 3.167 0 0 0-.943-1.34c-.252-.203-.69-.339-.916-.013-.226.326.034.653.284.84Zm-.161-.473c-.119-.65.588-.323.767-.166a3.5 3.5 0 0 1 .323.333c.21.243.382.51.567.771-.237-.1-.481-.176-.722-.266-.287-.11-.87-.316-.935-.674v.002Z" fill="#263238"/><path d="M56.475 58.076c-.152-.366-.607-.327-.897-.184a3.163 3.163 0 0 0-1.21 1.11.016.016 0 0 0 .005.014.017.017 0 0 0 .006.004.073.073 0 0 0 .04.087c.01.005.021.007.033.007.519-.061 1.082-.063 1.566-.276.286-.13.6-.415.457-.762Zm-1.256.788c-.254.036-.509.06-.761.106a9 9 0 0 1 .719-.632c.122-.094.25-.18.385-.257.21-.114.966-.283.714.326-.139.335-.753.413-1.057.457Z" fill="#263238"/><path d="m53.805 59.194 6.45-.12s-1.81-23.264-1.586-24.498c.369-2.018-.036-3.864-.572-5.414l-6.624.117s-.093 1.767.575 2.807c0 0 .596.362.886.522l.87 26.586Z" fill="#37474F"/><path d="M53.983 58.048c.978-.044.697-.045 1.675-.077.479-.016 3.625-.119 4.075-.055a.01.01 0 0 1 .007.003.01.01 0 0 1 .003.007.01.01 0 0 1-.003.006.01.01 0 0 1-.007.003c-.445.086-3.588.138-4.072.138-.98.014-.698 0-1.678 0a.015.015 0 0 1-.005-.005.015.015 0 0 1 0-.014.015.015 0 0 1 .005-.006Zm-2.336-26.236c.623.285 1.221.624 1.787 1.012a.021.021 0 0 1 .01.013.021.021 0 0 1-.015.025.02.02 0 0 1-.016-.002c-.604-.318-1.221-.629-1.806-.98a.039.039 0 0 1-.014-.01.04.04 0 0 1-.004-.046.04.04 0 0 1 .058-.013Z" fill="#263238"/><path d="M52.44 31.706c.039.12.07.244.092.37a.815.815 0 0 1 .025.299c0 .02-.03.018-.04 0a1.017 1.017 0 0 1-.103-.298c-.032-.115-.067-.23-.096-.345-.016-.072.103-.101.122-.026Z" fill="#263238"/><path d="M52.491 31.1c-.02-.105-.037-.21-.06-.314-.021-.103-.049-.216-.063-.325 0-.017-.029-.011-.026.007.018.103.022.212.032.318.01.106.023.213.036.319.023.197.06.396.103.59a.69.69 0 0 1-.291-.114.552.552 0 0 1-.16-.3c-.033-.118-.06-.24-.097-.358a2.38 2.38 0 0 1-.1-.402c0-.016-.028-.01-.025.007.03.286.089.569.175.843a.46.46 0 0 0 .164.276c.11.057.23.09.353.098.014 0 .035 0 .034-.018a6.023 6.023 0 0 0-.075-.628Zm5.156 3.415c.037-.464.103-.923.138-1.38.084-.929-.064-1.844-.218-2.76-.036-.212.063-.105.066-.088.18.822.265 1.663.251 2.505-.023.815-.153 1.621-.152 2.438.002.817.083 1.656.15 2.476l.208 2.484c.276 3.33.535 6.662.8 9.994.073.93.145 1.86.215 2.79.072.947.181 3.282.234 4.23 0 .082-.118.078-.126 0-.172-1.672-.31-4.738-.449-6.412-.138-1.674-.252-3.32-.39-4.976-.138-1.656-.264-3.312-.392-4.968-.065-.828-.129-1.656-.19-2.484-.063-.828-.138-1.656-.167-2.484-.019-.455-.011-.91.022-1.365Zm-2.309-4.165c0-.01.02-.014.025 0 .04.109.062.223.066.338.021.123.052.245.093.363.073.24.207.456.389.628.403.363.934.49 1.447.606.02 0 .013.029 0 .032a2.313 2.313 0 0 1-.893-.123 1.878 1.878 0 0 1-.69-.373 1.287 1.287 0 0 1-.383-.665 2.24 2.24 0 0 1-.05-.407c0-.065 0-.138-.007-.196a.538.538 0 0 1 .003-.203Z" fill="#263238"/><path d="M53.459 21.375c-.462 1.356-2.76 6.243-4.244 6.51-1.052.188-5.015-.61-5.915-1.07-.51-.263.828-3.268 1.518-3.162.852.138 3.259.807 3.76.73.277-.041 1.687-1.643 3.71-3.796 1.034-1.107 1.568-.384 1.17.788Z" fill="#F7F7F7"/><path d="M43.518 26.91c-.388-.082-2.366-.661-2.819-.918-.453-.257-1.7-1.086-1.539-1.453.162-.367.552-.152.552-.152s-.47-.434-.276-.788c.195-.353.784 0 .784 0s-.453-.481-.232-.82c.221-.338.752.115.752.115s-.433-.414-.138-.624c.36-.244 1.073.621 1.593.867.117.055 2.476.956 2.476.956l-1.153 2.817Z" fill="#F7F7F7"/><path d="M40.687 22.854c.525.636.865.828 1.635 1.077.015 0 .01.029 0 .024-.777-.179-1.242-.353-1.656-1.077-.032-.035-.004-.054.02-.024Zm-.515.693c.603.613.966.818 1.757 1.144a.01.01 0 0 1 .005.005.01.01 0 0 1 0 .008.01.01 0 0 1-.013.006c-.798-.254-1.254-.437-1.775-1.129-.024-.03-.002-.062.026-.034Zm-.428.856c.627.552 1.018.795 1.823 1.011.004 0 .008.002.01.005a.015.015 0 0 1 0 .021.015.015 0 0 1-.01.005c-.843-.139-1.334-.442-1.833-1.022-.037-.038-.027-.055.01-.02Z" fill="#263238"/><path d="M45.326 23.753s-.746-.817-1.144-1.058c-.397-.24-2.208-.596-2.307-.208-.127.5.877.91 1.396 1.046 0 0-.295 1.155.362 1.605.657.45 1.693-1.385 1.693-1.385Z" fill="#F7F7F7"/><path d="M41.886 22.632c.21.54.904.675 1.396.846a.045.045 0 0 1 .033.03.045.045 0 0 1-.008.043c-.09.493-.077 1.214.294 1.59.011.01 0 .029-.015.019-.453-.35-.524-1.057-.39-1.59-.508-.167-1.197-.332-1.316-.935l.006-.003Z" fill="#263238"/><path d="m45.326 23.65-1.38 3.674s3.977.98 5.56.606c1.179-.276 3.34-4.502 4.023-6.381.683-1.88-.472-1.907-1.416-.924-.944.984-3.366 3.58-3.533 3.638-.11.039-3.254-.613-3.254-.613Z" fill="#407BFF"/><path d="m43.767 27.553.952.28 1.3-4.274-.893-.332-1.36 4.326Z" fill="#407BFF"/><path d="M45.413 25.71c.084-.296.166-.594.247-.893.082-.3.171-.595.23-.896 0-.014-.016-.022-.022-.008-.106.276-.184.57-.276.854-.09.284-.183.604-.276.907a34.875 34.875 0 0 0-.481 1.809c0 .015.016.018.02 0a30.09 30.09 0 0 0 .558-1.772Z" fill="#263238"/><path d="M53.533 21.549c-.683 1.878-2.844 6.1-4.023 6.38a5.281 5.281 0 0 1-1.422.071l5.402-7.96c.279.152.364.627.043 1.509Z" fill="#000" opacity=".1"/><path d="M50.123 30.108c.214.17 8.46.096 8.494.037.034-.06-1.087-7.775-3.55-9.867-.71-.602-2.051-.552-2.539.128-1.14 1.604-2.539 9.595-2.405 9.702Z" fill="#407BFF"/><path d="m53.55 22.13-.348-.64-.536.584.154.485.51.038.22-.467Zm-.22.468.113 5.77-.828 1.746-.83-1.858 1.035-5.697.51.038Z" fill="#263238"/><path d="M56.137 20.897c2.492 2.27 4.533 6.083 4.194 7.314-.246.886-4.477 2.27-6.962 3.009-.458.138-1.242-3.555-.743-3.668.895-.206 3.815-1.572 3.874-1.59.128-.039-1.056-2.503-1.695-4.14-.815-2.105.216-1.942 1.332-.925Z" fill="#F7F7F7"/><path d="M48.52 28.885a.552.552 0 0 0 .332.54.828.828 0 0 0-.168.537c.03.34.575.44.575.44-.088.185-.12.392-.088.594.062.322.597.501.597.501a.893.893 0 0 0 .253.571c.414.395 1.264.176 1.805.04.54-.135 1.949-1.02 2.234-1.163l-.828-3.478s-2.596-.088-3.21.16c-.52.21-1.463.824-1.503 1.258Z" fill="#F7F7F7"/><path d="M48.852 29.41c.495-.353 1.07-.542 1.631-.763a.011.011 0 1 1 .008.021c-.561.213-1.073.534-1.625.769l-.01-.001a.015.015 0 0 1-.004-.026Zm.4.98c.12-.07.25-.123.384-.16l.42-.138a16.1 16.1 0 0 1 .855-.233c.012 0 .02.017.007.02-.276.085-.562.173-.84.27a24.5 24.5 0 0 0-.413.149c-.127.056-.26.097-.396.124a.02.02 0 0 1-.01-.003.021.021 0 0 1-.01-.018c0-.004.001-.008.003-.01Zm.529 1.104c.11-.062.229-.104.353-.125l.388-.11c.258-.074.516-.148.771-.233a.01.01 0 0 1 .013.015.01.01 0 0 1-.006.005c-.26.087-.516.176-.777.26l-.382.122a1.04 1.04 0 0 1-.358.079l-.002-.013Z" fill="#263238"/><path d="m53.102 27.152 1.347 3.864s5.42-1.684 5.95-2.622c.528-.939-1.43-4.83-3.836-7.214-1.317-1.302-2.766-1.878-1.736.901 1.031 2.78 1.56 3.753 1.556 3.789-.005.035-3.28 1.282-3.28 1.282Z" fill="#407BFF"/><path d="m54.104 31.305.928-.354-1.561-4.186-.912.277 1.545 4.263Z" fill="#407BFF"/><path d="M54.296 28.842c-.114-.287-.23-.574-.348-.86-.116-.284-.225-.578-.36-.853-.007-.012-.026-.008-.022 0 .084.286.199.566.3.845.103.279.222.592.335.887.22.584.463 1.158.715 1.73.007.013.023 0 .019-.01a43.38 43.38 0 0 0-.639-1.739Zm2.372-3.066c-.088.017-.176.04-.263.063a13.108 13.108 0 0 0-.57-1.413 70.272 70.272 0 0 0-.663-1.424h-.008c.115.307.236.615.358.922-.083-.138-.162-.285-.24-.428 0-.01-.021 0-.017.01.06.137.128.27.207.398l.106.158.164.414c.183.472.393.932.63 1.38-.439.13-.87.284-1.292.46-.52.193-1.03.415-1.525.664 0 0-.039-.237-.076-.262-.037-.025-.763.22-.982.319.039.104.085.204.138.302a.012.012 0 0 0 .006.004.012.012 0 0 0 .016-.012c-.03-.097-.057-.146-.094-.25.146-.044.828-.276.865-.283.03.078.066.154.108.226 0 0 1.054-.414 1.573-.608.257-.1.515-.195.773-.289.258-.093.531-.183.79-.3.027-.021.023-.057-.004-.052Z" fill="#263238"/><path d="M52.955 21.518c.463.16 1.343-.436 1.725-.992.026-.037 0-.469.01-.995 0-.32.012-.675.045-.998.007-.066-2.078.286-2.078.286.074.417.097.84.069 1.263a.772.772 0 0 1-.028.13.074.074 0 0 0 0 .023c-.072.247-.192 1.127.257 1.283Z" fill="#F7F7F7"/><path d="M54.61 18.53c-.15.536-.624 1.822-1.71 1.737a1.265 1.265 0 0 1-.206-.032.082.082 0 0 1 0-.022.905.905 0 0 0 .029-.131 5.172 5.172 0 0 0-.07-1.263s1.508-.255 1.956-.29Z" fill="#263238"/><path d="M55.127 16.099c.167.737-.367 2.792-.914 3.22-.793.618-2.014.593-2.521-.343-.491-.908.253-3.574.856-3.953.89-.56 2.332-.013 2.579 1.076Z" fill="#F7F7F7"/><path d="M55.033 17.436c-.171.79-.493 1.629-.828 1.883-.792.618-2.013.592-2.521-.343-.18-.335-.193-.906-.108-1.518 0 .03.048.485.3.552a.36.36 0 0 0 .394-.147l.175-.02c.229.195.52.3.82.296a1.327 1.327 0 0 0 1.077-.463c.189-.23.191-.327.191-.327l.5.087Z" fill="#263238" opacity=".2"/><path d="M53.084 17.24s.01.009.009.015c-.04.138-.062.301.05.38-.151-.054-.118-.272-.059-.395Z" fill="#263238"/><path d="M53.246 17.127c.226.039.13.491-.08.454-.21-.037-.112-.488.08-.454Zm-.965-.06s-.012 0-.014.01c-.024.138-.077.299-.213.318v.008c.158.011.226-.198.227-.335Z" fill="#263238"/><path d="M52.188 16.895c-.221-.066-.336.383-.13.442.205.06.316-.388.13-.442Z" fill="#263238"/><path d="M53.497 16.944a1.709 1.709 0 0 1-.189-.014.31.31 0 0 1-.19-.053.102.102 0 0 1-.016-.118.245.245 0 0 1 .23-.087.361.361 0 0 1 .238.096.103.103 0 0 1-.016.158.103.103 0 0 1-.057.018Zm-1.435-.314c.065 0 .124 0 .189-.008a.309.309 0 0 0 .192-.046.1.1 0 0 0 .02-.117.244.244 0 0 0-.227-.095.353.353 0 0 0-.242.088.105.105 0 0 0 .013.158.1.1 0 0 0 .055.02Z" fill="#A6A6A6"/><path d="M52.88 18.558a.212.212 0 0 1-.138.057.379.379 0 0 1-.138-.066h-.007a.19.19 0 0 0 .162.113.152.152 0 0 0 .138-.1c0-.002-.011-.008-.017-.004Zm-.058-.45a.486.486 0 0 1-.363.138.569.569 0 0 1-.204-.038l-.03-.011a.038.038 0 0 1-.02-.039.023.023 0 0 1-.001-.014v-.012c.02-.11.066-.276.066-.276-.044.012-.263.06-.248 0a7.2 7.2 0 0 1 .492-1.402.013.013 0 0 1 .008-.005h.008c.003 0 .005.003.007.005a.013.013 0 0 1 .002.008c-.105.447-.288.872-.4 1.32a.862.862 0 0 1 .239-.02c.015.007-.093.31-.098.36a.675.675 0 0 0 .526-.047c.018.013.027.024.016.033Z" fill="#263238"/><path d="M52.359 18.202a.56.56 0 0 0 .187.22.258.258 0 0 0 .15.041c.118 0 .139-.106.139-.197a.603.603 0 0 0-.022-.138.738.738 0 0 1-.454.074Z" fill="#263238"/><path d="M52.546 18.422a.252.252 0 0 0 .15.04c.118 0 .139-.105.139-.196a.265.265 0 0 0-.289.156Z" fill="#FF9ABB"/><path d="M52.962 16.327a1.76 1.76 0 0 1-.238-.036c-.078-.02-.151-.058-.23-.076a1.273 1.273 0 0 0-.458 0c-.014 0-.013.01 0 .008.16-.02.323-.005.477.043.123.05.253.08.385.094.303.004.597.104.84.286a1.444 1.444 0 0 0-.776-.32Zm.052-.209a1.78 1.78 0 0 1-.225-.034c-.074-.02-.138-.054-.22-.072a1.232 1.232 0 0 0-.433 0c-.012 0-.012.01 0 .008a1.09 1.09 0 0 1 .453.04c.117.047.24.078.366.091.287.006.566.103.795.276a1.365 1.365 0 0 0-.736-.309Z" fill="#000" opacity=".2"/><path d="M54.756 17.963s.835-1.119.835-1.813c0-.314-.405-.564-.405-.564a.704.704 0 0 0-.153-.729c-.334-.382-1.232-.39-1.232-.39s-.496-.89-1.344-.64c-.85.252-.407 1.23-.407 1.23s-.341.396.358.8c.7.402 2.17.216 2.17.216a5.089 5.089 0 0 0-.125 1.518.464.464 0 0 0 .303.372Z" fill="#A6A6A6"/><path d="M53.658 14.464c.19-.057.39-.074.586-.05.176.017.348.064.509.138a.86.86 0 0 1 .542.704.602.602 0 0 1-.157.44h-.007c.211-.216.146-.59-.029-.804a1.312 1.312 0 0 0-.828-.402 2.56 2.56 0 0 0-.609 0 .014.014 0 0 1-.016-.01.014.014 0 0 1 .01-.016Zm-1.824-.298a.697.697 0 0 1 .527-.4 1.2 1.2 0 0 1 .77.103c.24.12.442.304.587.53 0 0 0 .01-.008 0a1.326 1.326 0 0 0-1.218-.592.728.728 0 0 0-.552.306.72.72 0 0 0-.04.609c.101.232.265.432.474.577 0 0 0 .01 0 0a1.358 1.358 0 0 1-.48-.497.778.778 0 0 1-.06-.636Zm.393 1.712c.314.163.658.258 1.01.276.366.025.734.01 1.096-.043.212-.03.414-.067.63-.109.006 0 .01.009 0 .01a5.55 5.55 0 0 1-1.14.235 2.781 2.781 0 0 1-1.066-.114 2.407 2.407 0 0 1-.536-.25s.002-.013.007-.005Z" fill="#A6A6A6"/><path d="M54.453 17.705s.534-.629.828-.433c.294.196-.154 1.139-.525 1.242a.365.365 0 0 1-.47-.241l.167-.568Z" fill="#F7F7F7"/><path d="M55.142 17.54v.01c-.26.077-.414.297-.53.53a.203.203 0 0 1 .306-.025s0 .013-.008.012a.225.225 0 0 0-.254.055c-.052.058-.099.12-.138.188-.014.022-.054 0-.043-.02.035-.325.32-.75.667-.75Z" fill="#263238"/><path d="m52.724 20.098.522 1.19 1.449-1.572.439.475s-1.38 2.469-1.4 2.36l-.53-1.023-.69.745v-1.816l.21-.359Z" fill="#407BFF"/><path d="M52.46 21.375c.01-.3.013-.602.037-.9 0-.011.017-.017.02 0 .07.287.024 1.434.033 1.707.03-.032.644-.657.65-.647.113.161.501.905.529.974.22-.392 1.154-1.94 1.417-2.313a.01.01 0 0 1 .006-.005l.008.001a.01.01 0 0 1 .004.014c-.192.414-1.398 2.455-1.416 2.45-.203-.35-.387-.711-.552-1.081-.103.138-.721.838-.724.792a9.41 9.41 0 0 1-.011-.992Z" fill="#263238"/><path d="M28.51 61.824c-.303.1-8.94.076-9.269-.138-.124-.079-.194-1.337-.236-2.86-.008-.33-.02-5.63-.02-5.63h5.622l-.033 5.63s3.302 1.491 3.639 1.756c.336.265.597 1.14.296 1.242Z" fill="#F7F7F7"/><path d="M19.026 59.495c.043 1.207.11 2.126.215 2.193.329.208 8.97.233 9.268.137.299-.095.036-.966-.296-1.242-.185-.147-1.267-.665-2.201-1.103.325.202.742.49.705.66-.072.343-4.373.56-7.69-.645ZM16.92 28.222s1.518 16.044 1.555 16.235c0 .025.016.314.03.786.082 2.588.176 11.413.176 11.413h6.199s-.294-10.313-.527-12.543c-.296-2.843-2.174-15.89-2.174-15.89H16.92Z" fill="#263238"/><path d="M19.215 44.988c-.192-3.257-.48-6.506-.862-9.747-.218-1.826-.48-3.646-.741-5.466 0-.015-.027-.015-.025 0 .48 3.239.82 6.505 1.112 9.766.103 1.152.3 3.138.404 5.451.19 4.226.276 9.28.31 10.477 0 .01.003.018.01.024.006.007.015.01.024.01a.035.035 0 0 0 .035-.034c-.087-3.305-.074-7.186-.267-10.481Zm5.24 10.64c-2.826-.088-5.272-.025-5.483-.008-.175.012-.077.031.01.036 2.4.144 5.382.01 5.473 0a.013.013 0 0 0 .01-.005.014.014 0 0 0 0-.02.013.013 0 0 0-.01-.003Z" fill="#37474F"/><path d="M16.919 28.222s1.416 14.936 1.548 16.156l2.95-16.156h-4.498Z" fill="#37474F"/><path d="M18.713 62.57c-.315.055-9.02-1.287-9.315-1.542-.112-.095 1.436-8.338 1.436-8.338l5.68.839-1.044 5.641s2.837 1.82 3.13 2.133c.292.313.425 1.211.113 1.266Z" fill="#F7F7F7"/><path d="M9.4 61.028c.293.255 9 1.596 9.313 1.543.313-.054.178-.955-.113-1.269-.17-.182-1.19-.865-2.02-1.411.295.255.709.644.641.817-.127.32-4.416-.188-7.49-1.94-.219 1.262-.37 2.228-.332 2.26Zm12.78-32.806s-.184 2.552-1.066 3.648c-.211.265-.856.51-1.19.753 0 0-1.241 11.454-1.627 12.758-.422 1.442-2.07 11.301-2.07 11.301l-6.39-.882s1.858-9.246 2.32-11.645c.103-.536 1.491-10.627 1.46-10.856-.373-2.776.978-5.077.978-5.077h7.584Z" fill="#263238"/><path d="M17.298 29.346a2.75 2.75 0 0 1-.772 1.373c-.38.38-.871.63-1.403.709-.084.008-.073.065.014.065 1.012 0 2.041-.828 2.208-2.14-.003-.03-.041-.036-.047-.007Zm3.94 2.478a5.576 5.576 0 0 0-1.044.552c-.347.214-.668.467-1.004.698-.012.009 0 .03.013.021.352-.201.717-.377 1.065-.586.348-.19.677-.411.985-.66.011-.008-.001-.03-.015-.025Z" fill="#37474F"/><path d="M21.38 29.717c-.053.232-.121.46-.182.69-.06.23-.102.436-.17.649-.056.206-.17.392-.33.535-.09.076-.187.138-.275.21-.051.037-.107.073-.16.11.01-.03.016-.062.023-.094l.058-.263.121-.587c.078-.385.15-.774.247-1.153 0-.016-.019-.024-.023 0-.115.375-.237.746-.34 1.126a31.9 31.9 0 0 0-.248 1.173c-.01.069-.02.138-.025.204a.808.808 0 0 0-.01.208.018.018 0 0 0 .007.007.019.019 0 0 0 .019 0 .018.018 0 0 0 .006-.007.826.826 0 0 0 .068-.198c.02-.067.038-.133.054-.2 0-.024.01-.049.014-.072.093-.053.183-.122.275-.18a2.53 2.53 0 0 0 .276-.193 1.04 1.04 0 0 0 .358-.505c.066-.216.112-.438.138-.662.041-.263.076-.528.124-.788.002-.018-.015-.027-.025-.01Zm-5.444 25.704c-2.786-.482-5.216-.76-5.427-.773-.176-.011-.082.02 0 .039 2.355.476 5.325.757 5.42.759h.005a.013.013 0 0 0 .009-.005.013.013 0 0 0 .002-.004v-.005l-.001-.005a.014.014 0 0 0-.008-.006Zm-4.166-6.329c.366-1.603.69-3.21.966-4.83s.489-3.236.698-4.86c.21-1.624.414-3.273.628-4.91.074-.399.113-.803.116-1.21-.02-.391-.153-.77-.19-1.16a5.262 5.262 0 0 1 .32-2.237c.065-.182.488-1.185.566-1.362.01-.022.047-.012.038.013-.244.74-.73 1.689-.836 3.113-.03.406.07.79.153 1.187.072.38.079.769.02 1.15-.202 1.632-.413 3.26-.623 4.89-.21 1.63-.422 3.246-.677 4.862a71.41 71.41 0 0 1-.925 4.804c-.364 1.59-.74 3.208-1.14 4.8-.05.197-.1.395-.152.593 0 .023-.04.01-.036-.011.325-1.622.707-3.224 1.074-4.832Z" fill="#37474F"/><path d="m22.945 23.71-.494.032a1.319 1.319 0 0 0-.138-.366c-.251-.447-.69-.779-1.039-1.122.352.355.644.765.863 1.214.04.092.071.188.09.286l-.307.02a1.825 1.825 0 0 0-.341-.803s-.015 0-.011.012c.143.243.226.517.241.799l-2.667.174a4.371 4.371 0 0 1-.153-.72.02.02 0 0 0-.02-.02.02.02 0 0 0-.019.02c.027.242.068.482.123.718l-.222.014a4.982 4.982 0 0 1-.09-1.266.011.011 0 0 0-.004-.004.01.01 0 0 0-.005 0 .012.012 0 0 0-.01.005.011.011 0 0 0 0 .004 5.948 5.948 0 0 0 0 1.27l-1.847.12a5.217 5.217 0 0 0 .173-.852.017.017 0 0 0-.01-.013.017.017 0 0 0-.015 0 .018.018 0 0 0-.007.005.019.019 0 0 0-.003.008v.008c-.05.293-.131.58-.244.854l-.276.018c.168-.48.251-.985.244-1.493a.016.016 0 0 0-.017-.017.017.017 0 0 0-.011.005.017.017 0 0 0-.005.012c-.01.552-.23 1.03-.448 1.508l-.69.046c.197-.446.572-.87.58-1.38 0-.563-.533-.774-.736-1.226-.341-.756 0-1.38.434-1.969.406-.544.297-1.104.341-1.75.017-.492.123-.977.312-1.432a2.174 2.174 0 0 1 1.992-1.28 1.705 1.705 0 0 1 .968.202c.325.185.598.449.795.766.067.102.128.208.184.316.099.267.18.54.244.817a.045.045 0 0 0 0 .018c.17.579.552 1.072 1.07 1.38.797.493.69 1.434.205 2.42-.208.413-.189.67-.066.874.018.026.034.051.054.077.17.223.454.402.668.707.193.293.302.633.314.984Z" fill="#263238"/><path d="M17.355 15.456a2.391 2.391 0 0 0-1 1.526c-.099.497-.057 1.021-.208 1.507-.138.46-.44.828-.667 1.242-.3.541-.459 1.179-.098 1.718.222.336.667.642.698 1.096.034.53-.365 1.09-.562 1.553-.008.023.024.042.035.02.276-.53.79-1.242.518-1.867-.124-.286-.346-.49-.53-.724-.358-.456-.356-.987-.114-1.518.327-.726.811-1.223.897-2.062.05-.479.04-.966.226-1.416.172-.415.456-.773.821-1.033.017-.017 0-.042-.016-.042Zm5.058 7.166c-.234-.255-.506-.431-.448-.863.042-.3.214-.572.323-.846.276-.683.374-1.518-.047-2.143-.235-.352-.576-.408-.886-.65-.375-.296-.56-.793-.724-1.252-.247-.69-.552-1.468-1.301-1.55v.011c.966.164 1.104 1.357 1.47 2.153.115.27.29.511.514.702.358.276.76.344.984.817.193.455.224.963.087 1.438-.1.414-.338.781-.433 1.195a.845.845 0 0 0 .098.7c.113.16.284.255.404.414.157.212.25.464.266.727 0 .028.04.02.038-.008a1.362 1.362 0 0 0-.345-.845Z" fill="#263238"/><path d="M19.134 22.457c2.128 2.049 4.638 4.177 5.852 4.039.946-.11 4.387-1.914 5.382-3.845.22-.426-3.152-1.741-3.367-1.482-.632.769-2.6 1.869-2.753 1.805-.201-.085-2.614-1.256-4.249-1.966-2.197-.964-1.966.389-.865 1.449Z" fill="#F7F7F7"/><path d="M30.966 22.174c-.358.653-1.61 1.7-2.01 1.838-.398.138-2.254-1.932-2.176-2.36.079-.428 1.45-2.53 2.152-2.823.7-.293 2.404 2.669 2.034 3.345Z" fill="#F7F7F7"/><path d="M26.951 21.252a6.2 6.2 0 0 0-.048-1.794c-.148-.701-.447-1.726-.073-1.82.769-.192 1.518 2.364 1.518 2.364s.146 1.18-.598 1.439a.782.782 0 0 1-.799-.19Z" fill="#F7F7F7"/><path d="M27.945 19.495c.206.337.47.15.47.15s-.568.51-.394.91c.174.4.708.068.748.046-.03.027-.541.51-.324.894.216.384.712-.012.742-.039-.02.035-.276.497-.047.751.398.436 1.09-.729 1.557-.828 0 0 .256.773.269.794 0 0 .681-1.095.513-1.717a.414.414 0 0 0-.414-.31s.26-.33.098-.637c-.083-.157-.414-.164-.414-.164a.514.514 0 0 0 .035-.535c-.119-.21-.424-.18-.424-.18s1.259-1.156.994-1.518c-.457-.63-3.01 1.996-3.35 1.942-.17-.035-.15.295-.059.441Z" fill="#F7F7F7"/><path d="M30.764 19.338c.009 0 0-.015 0-.014a3.45 3.45 0 0 0-2.02 1.268c-.017.024-.008.061.014.036.36-.425 1.365-1.053 2.006-1.29Zm-1.595 2.178c.495-.632 1.143-1.04 1.869-1.365.01 0 0-.018 0-.017-.4.063-.84.318-1.166.546a2.114 2.114 0 0 0-.718.818c-.012.014.005.03.015.018Z" fill="#263238"/><path d="M28.403 19.643c-.02.02.068.028.05.048-.2.236-.537.674-.382.88.124.164.431.111.54.045l.276-.168-.2.252a1.32 1.32 0 0 0-.212.373.472.472 0 0 0 0 .386.277.277 0 0 0 .306.148.81.81 0 0 0 .358-.199l.287-.253-.187.332a1.241 1.241 0 0 0-.12.294.5.5 0 0 0 0 .295.243.243 0 0 0 .2.163.533.533 0 0 0 .286-.09c.187-.12.364-.253.53-.4.086-.072.173-.138.262-.211a.784.784 0 0 1 .297-.159.877.877 0 0 0-.276.182c-.083.073-.164.152-.244.23a3.608 3.608 0 0 1-.52.437.62.62 0 0 1-.341.118.347.347 0 0 1-.303-.227.63.63 0 0 1-.008-.367c.03-.115.072-.226.128-.33l.101.078a.939.939 0 0 1-.422.24.396.396 0 0 1-.446-.22.593.593 0 0 1 0-.489c.057-.147.139-.284.24-.405l.076.085c-.138.08-.48.177-.705-.055-.251-.342.316-.922.43-1.013Z" fill="#263238"/><path d="m26.65 21.39 2.792 3.211s-3.36 2.108-4.672 2.01c-1.313-.099-4.374-2.571-5.864-4.325-1.525-1.794-.117-1.932 1.04-1.36 1.156.573 4.232 1.942 4.317 1.932.086-.01 2.386-1.468 2.386-1.468Z" fill="#407BFF"/><path d="M19.491 20.744c.001.064.006.128.015.19.014.11.04.216.079.318a1.432 1.432 0 0 0-.043-.49l-.05-.018Zm4.87 5.401c.014.109.04.215.079.318a1.565 1.565 0 0 0-.09-.645c-.009.11-.005.22.011.327Zm3.874-1.556c.014.108.04.214.079.316a1.419 1.419 0 0 0-.012-.326 1.318 1.318 0 0 0-.077-.317c-.01.109-.006.218.01.327Zm-2.705-2.022c.014.109.04.215.079.317a1.533 1.533 0 0 0-.089-.643c-.009.109-.006.218.01.326Zm-4.09 1.55c.014.108.04.215.078.317a1.43 1.43 0 0 0-.01-.327 1.4 1.4 0 0 0-.08-.316 1.48 1.48 0 0 0 .006.326h.006Zm4.708 1.577a1.486 1.486 0 0 0 .642-.09 1.518 1.518 0 0 0-.642.09Zm1.754-2.718a.935.935 0 0 0 .138 0l-.034-.039a.987.987 0 0 0-.11.039h.006Zm-4.194.5c.218.015.437-.016.642-.09a1.35 1.35 0 0 0-.326.01c-.11.013-.217.04-.321.08h.005Zm-5.057-1.847a1.496 1.496 0 0 0 .513.393 1.478 1.478 0 0 0-.24-.225 1.457 1.457 0 0 0-.279-.168h.006Zm7.88 0c.07.084.15.16.238.223.086.067.178.124.276.17a1.283 1.283 0 0 0-.237-.223 1.394 1.394 0 0 0-.282-.17h.006Zm-1.54 2.696c.071.084.151.158.24.222.084.068.177.124.276.169a1.519 1.519 0 0 0-.515-.39Zm-2.861-1.621c.143.164.32.297.517.39a1.345 1.345 0 0 0-.238-.222 1.328 1.328 0 0 0-.28-.168Zm4.325 1.446c.083-.07.158-.15.222-.237a1.3 1.3 0 0 0 .168-.276c-.083.07-.157.15-.222.238a1.495 1.495 0 0 0-.168.275Zm-3.522 1.01c.083-.07.157-.15.222-.237.067-.085.124-.178.168-.276a1.607 1.607 0 0 0-.39.519v-.006Zm-2.46-2.712a1.382 1.382 0 0 0 .395-.506 1.609 1.609 0 0 0-.39.519l-.004-.013Z" fill="#fff"/><path d="M27.186 23.396a85.17 85.17 0 0 0-.562-.665c-.189-.22-.37-.448-.572-.655-.01-.009-.028 0-.02.014.158.23.341.447.515.666.174.22.37.464.552.69.369.457.754.897 1.145 1.333a.01.01 0 0 0 .007.003.01.01 0 0 0 .011-.01.01.01 0 0 0-.001-.007c-.344-.462-.7-.92-1.075-1.369Z" fill="#263238"/><path d="M18.906 22.286c1.492 1.752 4.554 4.227 5.865 4.323.305.024.723-.073 1.181-.237l-7.214-5.738c-.587.043-.798.512.168 1.652Z" fill="#000" opacity=".1"/><path d="m22.025 26.496.481 2.12-1.643.095-.512-.828-.617.885c0 .084-5.528-.07-5.528-.07s1.38-5.208 3.127-7.289c.873-1.04 1.957-1.015 2.677-.349.182.169 2.06 2.43 2.327 3.468.24.917-.312 1.968-.312 1.968Z" fill="#407BFF"/><path d="M14.214 28.704s5.532.153 5.528.07l.61-.894.514.828 1.643-.095-.484-2.117s.552-1.046.319-1.962c-.264-1.046-2.146-3.305-2.334-3.474a1.809 1.809 0 0 0-.526-.343c-.664-.283-1.47-.119-2.153.69-1.737 2.082-3.117 7.297-3.117 7.297Z" fill="#407BFF"/><path d="M19.843 25.326c.083-.07.158-.15.222-.238.067-.084.124-.177.168-.276a1.46 1.46 0 0 0-.39.514Zm.63-2.878c.084-.07.16-.15.224-.238.04-.054.079-.11.113-.169a.308.308 0 0 1-.027-.035 1.74 1.74 0 0 0-.31.442Zm-3.36 5.852c.083-.071.158-.151.222-.24a1.3 1.3 0 0 0 .169-.275 1.526 1.526 0 0 0-.224.24 1.448 1.448 0 0 0-.167.275Zm-.93-3.779c.083-.07.158-.15.223-.237.067-.085.123-.178.167-.276a1.453 1.453 0 0 0-.222.24 1.39 1.39 0 0 0-.172.273h.004Zm-.925 1.04c.03.016.06.031.093.044a.969.969 0 0 0-.082-.087c-.008.012-.01.029-.015.042h.004Zm5.34 1.45c.144.165.32.299.518.392a1.527 1.527 0 0 0-.517-.392Zm-2.725-2.041c.07.083.15.158.238.222.085.066.178.123.276.168a1.336 1.336 0 0 0-.238-.222 1.389 1.389 0 0 0-.28-.168h.004Zm.779-3.341c.07.084.15.16.237.225.085.066.178.123.276.168a1.5 1.5 0 0 0-.518-.393h.005Zm2.983 6.762c.11.01.22.006.327-.01.108-.014.213-.04.315-.079a1.519 1.519 0 0 0-.642.089Zm-2.953.313c.11.009.219.005.327-.011.108-.013.214-.039.316-.077a1.35 1.35 0 0 0-.326.01c-.108.014-.214.04-.317.078Zm2.847-2.792c.109.009.218.005.326-.01a1.44 1.44 0 0 0 .317-.078 1.42 1.42 0 0 0-.326.01c-.108.013-.215.04-.317.078Zm-4.99.508c.218.016.436-.015.642-.09a1.554 1.554 0 0 0-.642.09Zm2.612-2.996c.11.01.22.007.327-.01.108-.014.213-.04.315-.08a1.419 1.419 0 0 0-.326.012c-.107.013-.211.04-.312.078h-.004Zm-3.737 3.9c.014.108.04.215.079.317.01-.109.006-.218-.011-.327a1.266 1.266 0 0 0-.079-.316 1.35 1.35 0 0 0 .011.326Zm6.021-3.204c.014.108.04.215.079.317a1.426 1.426 0 0 0-.011-.327 1.327 1.327 0 0 0-.078-.316c-.009.108-.005.216.01.323v.003Zm-2.358 2.652c.013.108.039.214.077.316a1.519 1.519 0 0 0-.088-.642c-.01.109-.005.218.01.326Zm.414-6.055a1.657 1.657 0 0 0 .096.535 1.427 1.427 0 0 0-.05-.515.28.28 0 0 0-.046-.02Zm-1.794 2.542c.012.108.038.214.077.316a1.35 1.35 0 0 0-.01-.326 1.447 1.447 0 0 0-.08-.317c-.011.108-.01.218.006.327h.007Z" fill="#fff"/><path d="M19.241 26.376a8.488 8.488 0 0 1 1.27-.02c.21.013.414.038.626.067.105.015.209.026.312.036.11.014.22.014.329 0a.008.008 0 0 1 .005.008c0 .001 0 .003-.002.004a2.583 2.583 0 0 1-.31.053c-.1.007-.201.007-.302 0-.212-.013-.425-.036-.639-.051-.429-.03-.858-.062-1.29-.061-.017 0-.018-.034.001-.036Zm-.959.555a9.212 9.212 0 0 1 1.021-.238 5.97 5.97 0 0 1 .52-.062c.084 0 .166-.012.25-.016.085-.005.184 0 .276 0 .01 0 .013.013 0 .015-.085.008-.17.03-.256.044l-.258.04-.516.081c-.347.051-.69.105-1.033.167-.018 0-.02-.027-.004-.031Z" fill="#263238"/><path d="M19.775 21.896c.061.5.118 1 .17 1.5l.152 1.502.138 1.503c.044.5.083 1.003.117 1.504-.06-.5-.117-1-.17-1.499l-.151-1.502-.138-1.503a110.43 110.43 0 0 1-.118-1.505Zm.563 1.19a.1.1 0 0 1-.02.077.1.1 0 0 1-.069.04.1.1 0 0 1-.11-.096.102.102 0 0 1 .089-.112.103.103 0 0 1 .074.022.1.1 0 0 1 .036.069Zm.068 1.036a.101.101 0 0 1-.11.111.101.101 0 0 1-.086-.07.1.1 0 0 1 .032-.108.101.101 0 0 1 .164.067Zm.068 1.037a.101.101 0 0 1-.13.108.101.101 0 1 1 .093-.176.1.1 0 0 1 .037.068Zm.067 1.038a.1.1 0 0 1-.164.088.102.102 0 0 1-.037-.068.102.102 0 0 1 .201-.02Zm.068 1.036a.102.102 0 0 1-.09.112.1.1 0 1 1 .09-.112Z" fill="#263238"/><path d="M18.426 21.903c-.333 1.346-2.592 6.103-2.75 6.38 0 0-2.965 2.331-3.36.494-.397-1.837 3.14-5.382 4.753-7.163.973-1.071 1.587-.638 1.357.29Z" fill="#407BFF"/><path d="M17.689 23.258c.012.109.038.215.077.317.01-.11.006-.218-.01-.326a1.453 1.453 0 0 0-.08-.318c-.01.11-.005.22.013.327Zm-2.557.478c.013.091.036.181.069.268.009-.11.006-.22-.01-.327l-.06.059Zm-1.945 5.244c.014.108.04.214.078.316.01-.109.006-.218-.01-.326a1.422 1.422 0 0 0-.079-.317 1.49 1.49 0 0 0 .011.327Zm.917-.958c.07.084.15.158.237.222.085.067.178.124.276.169a1.336 1.336 0 0 0-.237-.222 1.425 1.425 0 0 0-.276-.165v-.004Zm3.025-6.137c.083-.07.158-.15.223-.238.067-.085.124-.178.168-.276a1.512 1.512 0 0 0-.392.519v-.005Zm-1.716 5.439c.014.108.04.215.079.317a1.433 1.433 0 0 0-.011-.327 1.326 1.326 0 0 0-.08-.316 1.35 1.35 0 0 0 .012.326Zm.61-4.57a1.532 1.532 0 0 0 .476-.092 1.355 1.355 0 0 0-.325.01c-.03 0-.06.008-.09.015l-.06.066Zm.52 3.669h.017v-.011a.108.108 0 0 0-.018.008v.003Zm-3.372.302c.108.009.218.005.325-.011a1.38 1.38 0 0 0 .318-.077 1.35 1.35 0 0 0-.326.01 1.43 1.43 0 0 0-.317.075v.003Zm3.007-2.201c.083-.07.157-.15.222-.238a1.34 1.34 0 0 0 .168-.276 1.458 1.458 0 0 0-.222.24 1.386 1.386 0 0 0-.168.271v.003ZM12.31 28.29c.083-.07.158-.15.222-.237.067-.085.124-.178.168-.276-.083.07-.157.15-.222.237a1.459 1.459 0 0 0-.168.276Zm2.52-3.072c.07.084.15.159.237.224.085.066.178.122.276.167a1.337 1.337 0 0 0-.238-.223 1.428 1.428 0 0 0-.276-.172v.004Z" fill="#fff"/><path d="M15.921 27.75c.155-.37.317-.736.48-1.105l.498-1.091 1.01-2.178c-.126.38-.275.75-.431 1.12-.156.37-.32.735-.485 1.105-.164.37-.34.724-.52 1.083s-.359.715-.552 1.065Z" fill="#263238"/><path d="M17.868 23.83a1.395 1.395 0 0 1-.138.237.68.68 0 0 1-.192.195.96.96 0 0 0 .086-.105l.079-.11c.055-.072.106-.147.165-.217Zm1.613 6.969 4.726.635 1.792-6.566-4.725-.637-1.793 6.568Z" fill="#263238"/><path d="m19.713 30.83 4.725.635 1.793-6.566-4.725-.636-1.793 6.566Z" fill="#455A64"/><path d="M23.633 27.655a.516.516 0 0 1-.562.392.414.414 0 0 1-.358-.516.516.516 0 0 1 .562-.392.413.413 0 0 1 .358.516Z" fill="#fff"/><path d="M18.681 27.764c.444.03.71 3.333.057 3.355-3.076.104-5.624-1.332-6.072-1.738-.594-.532-.396-1.508 0-1.845.582-.488 5.524.202 6.015.228Z" fill="#F7F7F7"/><path d="M18.322 27.79s1.29-.296 2.137-.444c.471-.083 1.294-.152 1.67-.054.56.146 2.81 1.12 2.587 1.67-.203.498-2.032-.582-2.032-.582s1.942.927 1.587 1.482c-.354.555-2.257-.94-2.257-.94s1.973.998 1.518 1.518c-.345.39-2.145-.868-2.145-.868s1.69.87 1.353 1.285c-.373.46-2.106-.598-2.106-.598-1.035.912-1.902.923-2.519.857-.15-.02.207-3.326.207-3.326Z" fill="#F7F7F7"/><path d="M22.003 28.06c.234.094.472.187.697.303.226.114.447.239.66.374.282.173.544.376.782.606a9.335 9.335 0 0 0-1.476-.915c-.224-.114-.444-.241-.667-.356-.007-.007-.002-.015.004-.012Zm-.435.765c.291.138.585.276.87.425.284.15.672.383.943.552.021.014.011.05-.01.038-.277-.162-.69-.377-.967-.536-.276-.158-.552-.327-.84-.474-.004 0 0-.006.004-.005Zm-.52.61c.456.191.892.43 1.3.711.02.014 0 .02-.021.008-.428-.244-.762-.44-1.286-.705-.008-.004-.003-.02.007-.015Z" fill="#263238"/><path d="m17.692 27.544 1.186 4.058c-3.198-.368-5.764-1.812-6.218-2.218-.593-.532-.396-1.508 0-1.845.588-.491 4.63-.175 5.032.005Z" fill="#407BFF"/><path d="M16.865 29.723c.083-.07.158-.15.222-.238.067-.084.124-.177.169-.276-.084.07-.158.15-.223.239a1.45 1.45 0 0 0-.168.274Zm1.217.681c.109.01.218.006.326-.01l.106-.017-.018-.061-.096.01c-.11.014-.218.04-.322.078h.004Zm-5.153-2.252c.109.01.218.007.326-.01a1.44 1.44 0 0 0 .317-.078 1.42 1.42 0 0 0-.325.01 1.35 1.35 0 0 0-.318.078Zm3.371-.302c.218.017.437-.013.642-.088a1.437 1.437 0 0 0-.327.01 1.4 1.4 0 0 0-.314.07v.008Zm-1.128.901c.012.108.038.215.077.317a1.36 1.36 0 0 0-.01-.325 1.357 1.357 0 0 0-.08-.318 1.35 1.35 0 0 0 .013.32v.006Zm-1.313.705c.07.084.15.16.238.224.085.066.178.123.276.168a1.345 1.345 0 0 0-.238-.223 1.456 1.456 0 0 0-.276-.176v.007Zm1.507 1.042c.218.017.437-.013.642-.09a1.431 1.431 0 0 0-.326.011 1.38 1.38 0 0 0-.316.079Z" fill="#fff"/><path d="M17.371 29.29a93.396 93.396 0 0 0-.253-.829c-.086-.276-.163-.552-.276-.828 0-.012-.025-.01-.023 0 .054.276.138.552.21.816.072.263.157.572.238.857.158.565.338 1.122.528 1.678 0 .013.022.007.02 0a25.617 25.617 0 0 0-.444-1.695Zm-3.157-2.028a16.651 16.651 0 0 1 3.37.237c.03 0 .057.061.04.061-.308-.012-1.72-.243-3.4-.256-.01 0-.02-.042-.01-.042Z" fill="#263238"/><path d="M18.53 21.024c.043.138.775.954 1.393.867.202-.029.093-1.134.093-1.134l.01-.083.15-1.169-1.426-.737-.204-.095s-.02.321-.04.723v.123c0 .06-.009.121-.01.182v.284c-.013.347-.002.694.033 1.04Z" fill="#F7F7F7"/><path d="M18.506 19.396a2.364 2.364 0 0 0 1.518 1.278l.149-1.169-1.423-.737-.204-.095s-.02.321-.04.723Z" fill="#263238"/><path d="M21.264 17.068c.884 1.868-.138 2.608-.54 2.797-.365.173-1.633.713-2.704-1.054-1.07-1.768-.482-2.768.335-3.207.817-.44 2.028-.405 2.91 1.464Z" fill="#F7F7F7"/><path d="M20.899 17.043a1.32 1.32 0 0 1-.138.022.239.239 0 0 1-.15 0 .073.073 0 0 1-.031-.084.181.181 0 0 1 .152-.105.261.261 0 0 1 .19.028.078.078 0 0 1 .032.077.079.079 0 0 1-.055.062Zm-1.303.454c.04-.024.08-.05.119-.079.045-.03.085-.05.107-.103a.074.074 0 0 0-.033-.083.18.18 0 0 0-.183.025.268.268 0 0 0-.122.15.079.079 0 0 0 .112.09Zm.425.26s-.008.01 0 .015c.058.128.104.285 0 .377v.006c.138-.077.076-.287 0-.398Z" fill="#263238"/><path d="M19.849 17.664c-.216.07-.058.497.138.43.196-.066.042-.485-.138-.43Z" fill="#263238"/><path d="M19.773 17.723c-.028.038-.049.094-.091.115-.043.02-.107 0-.156-.036 0 0-.007 0 0 .007.029.083.09.154.183.138.093-.017.115-.112.105-.202-.008-.02-.029-.038-.041-.022Zm.957-.302s.013 0 .014.008c.044.138.117.276.253.276v.009c-.152.036-.246-.159-.267-.293Z" fill="#263238"/><path d="M20.798 17.24c.207-.093.378.327.188.414-.19.087-.36-.335-.188-.414Z" fill="#263238"/><path d="M20.897 17.232c.043.01.093.036.138.022.046-.014.064-.074.075-.13h.008c.035.08.043.174-.029.221-.072.047-.138 0-.196-.077-.015-.018-.012-.039.004-.036Zm-.1.954c.05.09.096.181.138.276 0 .008-.017.02-.049.035a.47.47 0 0 1-.495-.005.01.01 0 0 1 .013-.012c.15.034.306.02.446-.04 0-.028-.186-.312-.172-.32a.892.892 0 0 1 .229-.032c-.203-.394-.466-.751-.662-1.146a.014.014 0 0 1 .005-.016.014.014 0 0 1 .017.001c.294.375.551.778.766 1.203.024.054-.195.057-.236.056Z" fill="#263238"/><path d="M20.864 18.468a.568.568 0 0 1-.138.257.264.264 0 0 1-.138.073c-.114.02-.16-.073-.178-.162a.62.62 0 0 1-.01-.139.731.731 0 0 0 .464-.029Z" fill="#263238"/><path d="M20.73 18.725a.264.264 0 0 1-.138.073c-.114.02-.16-.073-.178-.162a.265.265 0 0 1 .316.09Z" fill="#FF9ABB"/><path d="M18.06 18.917a.857.857 0 0 0 .257-.805c.301-.257.528-.59.658-.965 0 .044-.008.368-.017.534 1.189-.616 1.287-1.697 1.287-1.697.307.149.577.365.789.633 0 0-.224-.776-.777-1.172a1.3 1.3 0 0 0-1.303-.167 1.858 1.858 0 0 0-1.576 1.06c-.542 1.141.682 2.579.682 2.579Z" fill="#263238"/><path d="M19.853 17.187a2.42 2.42 0 0 1-.574.432 2.07 2.07 0 0 0 .755-.838c.07-.147.124-.302.157-.462.042-.174.05-.354.022-.53 0-.002.002-.004.004-.005a.011.011 0 0 1 .006-.003.01.01 0 0 1 .007.002.011.011 0 0 1 .004.006c.045.171.062.349.05.525a1.468 1.468 0 0 1-.155.501 1.612 1.612 0 0 1-.276.377" fill="#263238"/><path d="M18.384 18.815s-.646-.448-.865-.196c-.22.253.425 1.012.79 1.012a.348.348 0 0 0 .375-.338l-.3-.478Z" fill="#F7F7F7"/><path d="m20.043 20.722-.361.954-1.198-1.173-.326.39s1.187 1.877 1.192 1.794l.373-.828.574.552-.073-1.423-.18-.266Z" fill="#EBEBEB"/><path d="M20.3 21.713c-.02-.235-.033-.472-.064-.705 0-.009-.015-.011-.016 0-.043.227.038 1.123.043 1.338-.025-.024-.532-.49-.537-.481-.082.138-.356.73-.374.784-.188-.299-.983-1.473-1.204-1.755-.006-.008-.019 0-.013.009.166.316 1.193 1.867 1.208 1.863a9.3 9.3 0 0 0 .391-.871c.186.211.387.41.6.593a7.224 7.224 0 0 0-.034-.775Z" fill="#263238"/></svg>