<svg xmlns="http://www.w3.org/2000/svg" fill="none" viewBox="0 0 60 60"><path d="M14.108 50.692 2.891 44.21l20.927-12.057 11.216 6.481-20.926 12.058Z" fill="#E0E0E0"/><path d="M31.786 50.808c4.175 0 7.56-1.954 7.56-4.365 0-2.412-3.385-4.366-7.56-4.366-4.176 0-7.56 1.954-7.56 4.366 0 2.41 3.384 4.365 7.56 4.365Z" fill="#E0E0E0"/><path d="m14.873 50.315 1.356.782a1.11 1.11 0 0 0 1.007 0l7.964-4.6c.278-.161.278-.422 0-.583l-1.355-.782a1.112 1.112 0 0 0-1.007 0l-7.97 4.6c-.272.162-.272.428.005.583Zm32.377-1.76c4.546 0 8.232-2.129 8.232-4.754 0-2.625-3.686-4.753-8.232-4.753-4.546 0-8.232 2.128-8.232 4.753s3.686 4.753 8.232 4.753Z" fill="#E0E0E0"/><path d="m51.325 14.977-.243.14-6.09-3.517.243-.14 6.09 3.517Z" fill="#455A64"/><path d="m45.235 11.46 5.847 3.375V9.768l-5.847-3.376v5.068Z" fill="#407BFF"/><path d="m45.235 11.46 5.847 3.375V9.768l-5.847-3.376v5.068Z" fill="#fff" opacity=".8"/><path d="m44.748 11.742 6.577 3.797V9.628L44.748 5.83v5.912Zm.24-5.49 6.09 3.516v5.352l-6.086-3.52-.004-5.348Z" fill="#37474F"/><path d="m44.992 11.6.243-.14V6.392l-.243-.14V11.6Z" fill="#263238"/><path d="m44.748 5.83.244-.14 6.577 3.797-.244.14-6.577-3.797Z" fill="#455A64"/><path d="m51.569 9.487-.244.14v5.912l.244-.14V9.486Z" fill="#263238"/><path d="M49.84 12.67a.909.909 0 0 1 .411.713c0 .262-.183.369-.41.24a.905.905 0 0 1-.412-.711c0-.267.184-.372.412-.241Z" fill="#407BFF"/><path d="m46.518 7.763 3.096 1.787a.346.346 0 0 1 .156.27v.008c0 .1-.07.14-.156.09l-3.096-1.784a.343.343 0 0 1-.156-.27v-.011c0-.099.07-.14.156-.09Zm-.491.843 4.08 2.353a.313.313 0 0 1 .156.231c0 .077-.07.1-.156.05l-4.08-2.354a.307.307 0 0 1-.155-.23c0-.077.069-.1.155-.05Zm0 .562 4.08 2.353a.31.31 0 0 1 .156.23c0 .079-.07.101-.156.051l-4.08-2.354a.304.304 0 0 1-.155-.23c0-.078.069-.098.155-.05Zm0 .562 4.08 2.353a.313.313 0 0 1 .156.23c0 .078-.07.101-.156.052l-4.08-2.356a.304.304 0 0 1-.155-.229c0-.077.069-.1.155-.05Z" fill="#000" opacity=".2"/><path d="M49.109 13.03a.515.515 0 0 1-.102-.092.287.287 0 0 1-.076-.24c0-.026-.037-.113-.057-.1a1.763 1.763 0 0 1-.177.073c-.035.017-.1.068-.185-.047a.24.24 0 0 1-.046-.145.204.204 0 0 0 .055-.191c0-.03-.048-.12-.063-.095a.36.36 0 0 0-.052.173.283.283 0 0 1-.132.044.371.371 0 0 1-.102.018.04.04 0 0 1-.016-.008.081.081 0 0 1-.03-.065.12.12 0 0 1 .013-.067c0-.029-.035-.11-.049-.093a.259.259 0 0 1-.24.12.037.037 0 0 1-.016 0c0-.016 0-.038-.006-.055a.73.73 0 0 0-.019-.133c-.007-.025-.038-.089-.054-.084-.086.025-.156.094-.271.061a.37.37 0 0 1-.058-.026c-.018-.031.011-.097.015-.108a.541.541 0 0 1 .04-.084.169.169 0 0 0 .033-.07c0-.029-.053-.146-.064-.114 0 .014-.02.04-.037.076a.566.566 0 0 1-.229.12.36.36 0 0 1-.318-.06.411.411 0 0 1-.144-.148.359.359 0 0 1-.037-.157.618.618 0 0 1 .038-.24c.108.072.228.126.354.159.097.026.203.053.267.013.036-.024.057-.107-.03-.24a.512.512 0 0 0-.19-.185.48.48 0 0 0-.193-.073.24.24 0 0 0-.24.163l-.028.065a1.91 1.91 0 0 1-.449-.443c-.008-.01-.01 0 0 .015.123.176.271.333.44.466a.608.608 0 0 0 .098.552c.168.24.35.25.434.233a.352.352 0 0 0 .17-.078h.015a.29.29 0 0 0 .094.232.171.171 0 0 0 .193.038.73.73 0 0 0 .12-.042.36.36 0 0 0 .088.24c.066.062.12.012.156 0a.297.297 0 0 0 .078-.038.274.274 0 0 0 .015.04c.057.12.12.138.16.132a.64.64 0 0 0 .158-.032.616.616 0 0 0 .067.154c.088.141.17.164.22.157a.373.373 0 0 0 .164-.073c.01.053.03.105.06.152a.6.6 0 0 0 .206.223c.014.013-.012-.075-.041-.093Zm-1.907-1.863c.04.027.12.09.13.163 0 .042-.035.05-.056.056a.492.492 0 0 1-.24-.022 1.206 1.206 0 0 1-.296-.12c.077-.165.22-.233.462-.077Z" fill="#000" opacity=".3"/><path d="m7.916 15.097.244.14 6.09-3.517-.244-.14-6.09 3.517Z" fill="#455A64"/><path d="M14.006 11.58 8.16 14.956V9.888l5.846-3.376v5.068Z" fill="#407BFF"/><path d="M14.006 11.58 8.16 14.956V9.888l5.846-3.376v5.068Z" fill="#fff" opacity=".8"/><path d="M14.494 5.95 7.92 9.748v5.91l6.578-3.796-.004-5.912Zm-.24 5.77L8.16 15.24V9.888l6.091-3.516.003 5.348Z" fill="#37474F"/><path d="m14.25 11.72-.244-.14V6.512l.244-.14v5.348Z" fill="#263238"/><path d="m14.494 5.95-.244-.14-6.578 3.797.243.14 6.579-3.797Z" fill="#455A64"/><path d="m7.672 9.607.243.14.001 5.912-.244-.14V9.607Z" fill="#263238"/><path d="M12.86 10.728c.227-.13.41-.024.41.24a.91.91 0 0 1-.41.713c-.228.13-.411.024-.411-.24a.908.908 0 0 1 .41-.713Z" fill="#407BFF"/><path d="m9.536 9.658 3.096-1.79c.087-.049.156-.01.156.09v.009a.348.348 0 0 1-.156.271l-3.096 1.79c-.086.05-.156.01-.156-.09v-.01a.343.343 0 0 1 .156-.27Zm-.489 1.409 4.08-2.354c.085-.049.156-.026.156.052a.316.316 0 0 1-.156.23l-4.08 2.355c-.086.049-.155.026-.155-.052a.318.318 0 0 1 .155-.231Zm0 .561 4.08-2.352c.085-.05.156-.027.156.05a.314.314 0 0 1-.156.231l-4.08 2.354c-.087.05-.155.027-.155-.051a.32.32 0 0 1 .155-.232Zm0 .563 4.08-2.353c.085-.05.156-.027.156.05a.318.318 0 0 1-.156.232l-4.084 2.36c-.086.05-.155.027-.155-.051a.317.317 0 0 1 .159-.238Z" fill="#000" opacity=".2"/><path d="M12.128 11.932a.238.238 0 0 1-.102.026c-.087 0-.079-.089-.076-.15 0-.028-.038-.07-.058-.034-.053.096-.12.184-.176.278-.035.056-.101.184-.185.166-.035-.008-.046-.045-.046-.092a.452.452 0 0 0 .054-.253c0-.028-.048-.06-.061-.024a.811.811 0 0 0-.054.24 3.96 3.96 0 0 1-.216.31c-.007.009-.022.03-.034.033-.012.002-.025-.012-.03-.031a.208.208 0 0 1 .015-.084v-.007c0-.028-.035-.069-.05-.035a1.21 1.21 0 0 1-.24.398.057.057 0 0 1-.016.013v-.048a.39.39 0 0 0-.02-.111c0-.017-.038-.045-.055-.022a1.871 1.871 0 0 1-.27.376.554.554 0 0 1-.057.04c-.02-.011.01-.11.013-.12.012-.045.026-.088.04-.131a.448.448 0 0 0 .033-.108c0-.034-.053-.086-.062-.04 0 .018-.02.064-.039.12a2.896 2.896 0 0 1-.228.388.895.895 0 0 1-.321.29c-.037.02-.105.048-.144.02-.04-.03-.036-.08-.037-.12a.937.937 0 0 1 .038-.283c.128-.067.246-.151.353-.25.104-.083.195-.183.267-.296.036-.065.058-.173-.03-.21-.06-.025-.139.017-.19.046a.848.848 0 0 0-.195.151 1.13 1.13 0 0 0-.24.444 1.376 1.376 0 0 0-.027.097.753.753 0 0 1-.45.076c-.008 0-.011.017 0 .019.148.03.301.016.44-.042-.04.17-.061.396.097.44.159.042.35-.156.436-.27.064-.086.121-.178.17-.274a.208.208 0 0 1 .014-.02c0 .078.016.136.093.12.077-.018.15-.12.193-.186.043-.064.078-.12.12-.175.007.071.02.153.088.138.068-.014.12-.132.156-.18a1.34 1.34 0 0 0 .077-.127.1.1 0 0 0 .015.023c.056.061.12 0 .16-.052.053-.068.11-.14.16-.217a.134.134 0 0 0 .066.077c.087.04.17-.031.22-.096.062-.083.116-.171.163-.263a.12.12 0 0 0 .06.083.2.2 0 0 0 .205-.013c.017-.005-.008-.063-.037-.048Zm-1.906.34c.04-.021.12-.055.128.012a.24.24 0 0 1-.055.12c-.07.094-.15.178-.24.252-.092.085-.191.16-.298.226a.96.96 0 0 1 .465-.61Z" fill="#000" opacity=".3"/><path d="M13.94 37.111 3.68 31.188 23.638 19.67l10.26 5.925L13.94 37.11Z" fill="#407BFF"/><path d="M13.94 37.111 3.68 31.188 23.638 19.67l10.26 5.925L13.94 37.11Z" fill="#fff" opacity=".8"/><path d="M3.68 31.188v12.959l.54.312v-1.247l9.18 5.3v1.247l.54.312v-12.96L3.68 31.188Z" fill="#407BFF"/><path d="M3.68 31.188v12.959l.54.312v-1.247l9.18 5.3v1.247l.54.312v-12.96L3.68 31.188Z" fill="#fff" opacity=".6"/><path d="m4.22 44.459.54-.312v-.624l-.54-.311v1.247Z" fill="#407BFF"/><path d="m4.22 44.459.54-.312v-.624l-.54-.311v1.247Zm9.72 5.612.54-.312V38.251l18.88-10.893v11.456l.54-.31v-12.91L13.94 37.112v12.96Z" fill="#407BFF"/><path d="m13.94 50.071.54-.312V38.251l18.88-10.893v11.456l.54-.31v-12.91L13.94 37.112v12.96Z" fill="#fff" opacity=".7"/><path d="m33.359 38.814-9.923-5.727 9.383-5.417.54-.312v11.456Z" fill="#407BFF"/><path d="m33.359 38.814-9.923-5.727 9.923-5.73v11.457Z" fill="#fff" opacity=".6"/><path d="m33.359 38.814-9.923-5.727 9.923-5.73v11.457Z" fill="#000" opacity=".15"/><path d="M28.049 26.336c.008.014 0 .03-.017.041l-4.042 2.334a.095.095 0 0 1-.05.012.082.082 0 0 1-.05-.012l-5.64-3.257a.046.046 0 0 1-.017-.019.027.027 0 0 1 .006-.029.016.016 0 0 1 .007-.006l4.042-2.332a.107.107 0 0 1 .1 0l5.64 3.258h.006c.006.002.01.006.014.012v-.002Z" fill="#000" opacity=".2"/><path d="M18.437 25.168v.097a.106.106 0 0 0 .049.084l5.413 3.12a.104.104 0 0 0 .096 0l3.879-2.238a.109.109 0 0 0 .048-.084v-.097a.108.108 0 0 0-.048-.084l-5.415-3.12a.104.104 0 0 0-.096 0l-3.877 2.234a.104.104 0 0 0-.05.088Z" fill="#407BFF"/><path d="M27.88 25.975c.02.016.018.037-.006.052L24 28.267a.099.099 0 0 1-.048.01v.209a.088.088 0 0 0 .048-.012l3.878-2.238a.108.108 0 0 0 .048-.084v-.098a.107.107 0 0 0-.046-.079Z" fill="#fff" opacity=".4"/><path d="m18.48 25.09-.007.006a.11.11 0 0 0-.025.051v.109a.11.11 0 0 0 .049.084l5.413 3.12a.089.089 0 0 0 .048.012v-.208a.101.101 0 0 1-.048-.011l-5.43-3.113a.046.046 0 0 1-.018-.02.025.025 0 0 1 .006-.026l.012-.004Z" fill="#000" opacity=".15"/><path d="M19.903 23.783c0 .087.12.179.155.257a.062.062 0 0 1 .007.019c-.017.055-.067.093-.078.13a.089.089 0 0 0 0 .026v.073a.428.428 0 0 0 .006.05.417.417 0 0 1-.012.054.31.31 0 0 0-.018.093v.07a.064.064 0 0 0 .037.067l.218.12 1.622-.933v-.072l-.217-.126a.197.197 0 0 0-.11-.02H21.5c-.036 0-.084 0-.149.01-.08.009-.16.011-.24.005h-.062a.29.29 0 0 0-.046 0 1.08 1.08 0 0 1-.379.042 3.086 3.086 0 0 0-.441-.088h-.022a.36.36 0 0 0-.172.045c-.058.034-.08.07-.08.107l-.005.07Zm.24.05a.11.11 0 0 1 .04-.038.201.201 0 0 1 .04-.017.422.422 0 0 1 .298.044.22.22 0 0 1 .088.086.111.111 0 0 1-.04.038.32.32 0 0 1-.22.017.451.451 0 0 1-.12-.045.214.214 0 0 1-.08-.085h-.006Z" fill="#263238"/><path d="M21.512 23.59h-.014c-.036 0-.084 0-.149.01-.08.01-.16.012-.24.006h-.062a.29.29 0 0 0-.046 0 1.08 1.08 0 0 1-.379.042 3.086 3.086 0 0 0-.442-.088h-.02a.36.36 0 0 0-.172.045c-.199.12.028.253.075.36.047.107-.055.167-.071.222-.016.055.028.084-.01.203-.037.119-.008.142.02.157l.217.12 1.621-.93-.217-.126a.198.198 0 0 0-.11-.02Zm-1.218.914a.107.107 0 0 1-.09-.007c-.027-.017-.033-.04-.013-.052a.096.096 0 0 1 .09.007c.028.016.034.04.013.052Zm.281-.558a.32.32 0 0 1-.22.017.451.451 0 0 1-.12-.045c-.107-.062-.129-.148-.049-.195a.201.201 0 0 1 .041-.017.422.422 0 0 1 .298.044c.115.063.13.15.05.196Zm.972-.166a.102.102 0 0 1-.089-.007c-.028-.017-.033-.04-.013-.051a.096.096 0 0 1 .09.007c.028.015.034.038.012.051Z" fill="#37474F"/><path d="m23.797 27.925 3.375-1.947a.067.067 0 0 0 .028-.05v-.038a.064.064 0 0 0-.028-.05l-4.46-2.574a.061.061 0 0 0-.057 0l-3.375 1.947a.07.07 0 0 0-.028.05v.038a.066.066 0 0 0 .028.05l4.458 2.574a.063.063 0 0 0 .06 0Z" fill="#F5F5F5"/><path d="m24.99 26.47 1.165-.672.042.024-1.165.672-.042-.024Zm-1.4.807 1.166-.673.042.025-1.165.672-.042-.024Z" fill="#E0E0E0"/><path d="M27.179 25.845c.008.01 0 .02-.007.028l-3.375 1.948a.06.06 0 0 1-.029.007v.105c.01 0 .021-.003.03-.008l3.375-1.948a.062.062 0 0 0 .029-.05v-.037a.067.067 0 0 0-.023-.046Z" fill="#FAFAFA"/><path d="m19.274 25.218-.007.008a.117.117 0 0 0-.008.016.04.04 0 0 0 0 .01v.045a.065.065 0 0 0 .029.05l4.458 2.575a.06.06 0 0 0 .028.007v-.105a.062.062 0 0 1-.03-.007l-4.458-2.574c-.019-.003-.021-.015-.012-.025Z" fill="#E0E0E0"/><path d="M24.032 26.75c-.01.014 0 .03.012.041 0 .02-.003.04-.012.058a.07.07 0 0 1-.026.04c-.017.01-.04 0-.05-.011-.011-.011-.015 0-.016 0v.02a.09.09 0 0 1-.02-.01.06.06 0 0 0-.022-.013h-.013a.04.04 0 0 0 0 .03c0 .01.008.024 0 .035-.009.01-.027-.007-.03-.01a.187.187 0 0 1-.022-.032h-.017a.173.173 0 0 1 0 .043.198.198 0 0 1-.013.064c0 .007-.012.032-.03.032a.025.025 0 0 1-.022-.013v-.02a.15.15 0 0 0 0-.094.07.07 0 0 0-.015-.018.015.015 0 0 0-.014 0 .034.034 0 0 0-.016.016.034.034 0 0 0-.001.022.36.36 0 0 0 .008.039.159.159 0 0 0 .017.055.152.152 0 0 1-.025.055c-.015.017-.058.05-.093.028a.103.103 0 0 1-.042-.064v-.02a.229.229 0 0 0 .044-.055.15.15 0 0 0 .016-.054.12.12 0 0 0 0-.068.021.021 0 0 0-.005-.01.021.021 0 0 0-.011-.006.045.045 0 0 0-.032 0 .055.055 0 0 0-.028.048.302.302 0 0 0 .001.149.364.364 0 0 1-.003.003c.006.028.02.053.041.072a.075.075 0 0 0 .04.014c.02.001.04-.004.056-.014a.111.111 0 0 0 .055-.07h.008a.047.047 0 0 0 .056-.017.153.153 0 0 0 .023-.067v-.034l.01.01a.048.048 0 0 0 .047.011c.016-.007.01-.024.009-.032-.001-.008 0-.016-.006-.023-.006-.007 0-.006 0-.008 0-.003.023.021.048.019a.01.01 0 0 0 .004 0 .01.01 0 0 0 .004 0 .027.027 0 0 0 0-.014.09.09 0 0 0 .048.008.056.056 0 0 0 .04-.037.141.141 0 0 0 .017-.047l.025.042c.025.043.045.09.061.137l.028.079h.016a1.031 1.031 0 0 0-.111-.26c0-.008-.012-.016-.017-.024a.06.06 0 0 0-.013-.038l-.009.014Zm-.469.233a.347.347 0 0 1 .007-.11.043.043 0 0 1 .035-.033c.004 0 .008 0 .011.003a.017.017 0 0 1 .007.008.11.11 0 0 1 0 .063.26.26 0 0 1-.015.058.261.261 0 0 1-.04.053.297.297 0 0 1-.005-.042Zm.177 0c0-.012-.006-.024-.009-.036a.02.02 0 0 1-.01-.021.02.02 0 0 1 .019-.015.02.02 0 0 1 .008.036.203.203 0 0 1 0 .047v.007a.076.076 0 0 1-.008-.015v-.003Zm.672-.463h-.016c0 .003.001.005.003.008a.017.017 0 0 0 .005.005.058.058 0 0 1 0 .02.13.13 0 0 1 0 .039v.025h-.015l-.022-.008h-.014a.073.073 0 0 1 0 .036h-.007c-.008 0-.011 0-.014-.007a.071.071 0 0 0-.021-.014h-.012a.071.071 0 0 0 0 .022s.007.022 0 .025c-.007.004-.016-.007-.023-.018a.024.024 0 0 0-.014-.028h-.014c0 .01.005.02.011.026a.11.11 0 0 1-.007.033.08.08 0 0 1-.03.052.037.037 0 0 1-.044-.007.119.119 0 0 0 0-.069.164.164 0 0 0-.086-.1h-.01c-.012.006-.01.018-.009.026a.423.423 0 0 0 .06.116c.01.013.021.024.034.033a.075.075 0 0 1-.015.03h.006a.087.087 0 0 0 .017-.027.065.065 0 0 0 .05.008.07.07 0 0 0 .044-.053.238.238 0 0 0 .008-.029.03.03 0 0 0 .012.007.03.03 0 0 0 .015.001c.026 0 .018-.026.013-.043a.044.044 0 0 0 .03.014c.006 0 .01 0 .015-.003h-.002v-.016c.01.005.02.009.031.01.023 0 .025-.017.028-.026a.175.175 0 0 0 .007-.05.503.503 0 0 1 .074.098.12.12 0 0 0-.052.025c-.018.017-.041.059.01.066a.06.06 0 0 0 .062-.024.06.06 0 0 0 .01-.022.079.079 0 0 0-.01-.04.183.183 0 0 1 .045 0c.01 0 .015-.007 0-.008a.186.186 0 0 0-.051 0 .23.23 0 0 0-.02-.032l-.034-.043-.028-.028-.013-.01a.037.037 0 0 0-.007-.02Zm-.276.193a.438.438 0 0 1-.056-.102c0-.006-.007-.018 0-.026.037.02.064.053.077.092a.137.137 0 0 1 0 .063.159.159 0 0 1-.021-.024v-.003Zm.36.013a.044.044 0 0 1-.045 0c-.013-.01 0-.027 0-.038a.088.088 0 0 1 .052-.032.051.051 0 0 1 .006.057.05.05 0 0 1-.012.016l-.001-.003Zm.584-.534a.022.022 0 0 0-.01.018.187.187 0 0 0-.01.045.065.065 0 0 0-.024-.015h-.012a.033.033 0 0 0-.014.016.05.05 0 0 0-.045-.016.05.05 0 0 0-.036.038v.019c-.007-.017-.015-.034-.02-.05a.201.201 0 0 0-.043-.087.064.064 0 0 0-.075-.024.07.07 0 0 0-.029.026.122.122 0 0 0-.017.038v.018l-.04-.02h-.008l.048.026a.212.212 0 0 0 0 .055.168.168 0 0 0 .024.067.025.025 0 0 0 .01.006.028.028 0 0 0 .013.003c.005 0 .01 0 .013-.003.03-.022.02-.055.006-.08a.135.135 0 0 0-.053-.045.106.106 0 0 1 .035-.078.033.033 0 0 1 .018-.01c.009 0 .017.003.023.009.01.008.018.017.025.028a.28.28 0 0 1 .034.075c.008.026.018.05.03.075v.007a.089.089 0 0 0 .012.067h.017a.102.102 0 0 0-.011-.067c0-.018.004-.037.01-.054a.051.051 0 0 1 .019-.024.023.023 0 0 1 .011 0 .022.022 0 0 1 .01.006c.01.009.016.02.02.031v.012h.019v-.025c0-.008.002-.016.007-.023.018.008.025.025.035.036.01.01.019 0 .016 0a.09.09 0 0 1 0-.066.073.073 0 0 1 .006-.017c.005.005.008.01.01.017 0 .012 0 .024.01.036.01.012.01.025.015.038a.495.495 0 0 0 .11.15h.01a.808.808 0 0 1-.066-.081.612.612 0 0 1-.06-.131.048.048 0 0 0-.017-.034.021.021 0 0 0-.01-.01.021.021 0 0 0-.016-.002Zm-.302.064a.07.07 0 0 1 .022.073.058.058 0 0 1-.01.016.026.026 0 0 1-.007-.007.188.188 0 0 1-.018-.106.197.197 0 0 1 .015.024h-.002Zm.744-.201a.11.11 0 0 0-.053 0l-.023-.02a.466.466 0 0 0-.055-.036h-.017a.161.161 0 0 1 .016.05.045.045 0 0 1 0 .026c-.006.007-.016 0-.024 0h-.015v.018c0 .001-.02-.01-.025-.01-.005-.002-.012 0-.012 0s.007.016 0 .023l-.02-.012h-.014a.113.113 0 0 1 .008.018s.006.017 0 .02c-.006.004 0 0-.009 0l-.01-.007a.08.08 0 0 0-.02-.01h-.012v.044s0 .01-.007.013c-.007.002-.05-.046-.054-.053-.004-.007-.016 0-.014 0a.314.314 0 0 1 .016.044c0 .014.008.035-.021.041a.034.034 0 0 0 .031-.04v-.006a.047.047 0 0 0 .04.018.022.022 0 0 0 .01-.003.022.022 0 0 0 .01-.014.25.25 0 0 0 0-.04c.014.01.028.022.044.015.017-.008.01-.014.009-.02a.04.04 0 0 0 0-.013h.019c.013 0 .012-.013.01-.021a.032.032 0 0 0 .012.006h.014c.012 0 .01-.011.01-.017.01.003.02.003.03 0a.027.027 0 0 0 .013-.024.12.12 0 0 0-.009-.046l.022.014a.189.189 0 0 1 .032.028l-.014.01c-.012.01-.014.029.013.031.028.002.034-.015.03-.026a.035.035 0 0 0-.007-.014.112.112 0 0 1 .04 0c.008.022.018.014.006.012Zm-.058.034c0 .008-.012.01-.016 0-.003-.01 0-.013.012-.018a.015.015 0 0 1 .005.009l-.001.01Zm.067-.38c.007.025.017.05.024.074.007.024.011.052.015.077.003.025 0 .05.008.076a.532.532 0 0 0-.04-.05.241.241 0 0 0-.062-.044.074.074 0 0 0-.064 0 .059.059 0 0 0-.021.016h-.028a.068.068 0 0 1-.027 0h-.008l.057.008a.08.08 0 0 0-.011.023.059.059 0 0 0 .007.05.059.059 0 0 0 .047.022.042.042 0 0 0 .042-.032c0-.02-.013-.042-.04-.056a.126.126 0 0 0-.025-.01.051.051 0 0 1 .067-.012c.02.012.038.026.053.043.016.017.03.035.043.054l.014.018a.026.026 0 0 0 .01.025h.016c0-.01-.003-.02-.01-.029l-.007-.04c0-.024 0-.049-.008-.074a.322.322 0 0 0-.043-.143s-.01 0-.009.004Zm-.083.19a.03.03 0 0 1 .008.025.03.03 0 0 1-.015.021c-.018.011-.036 0-.042-.013a.057.057 0 0 1-.008-.043.082.082 0 0 1 .01-.024.08.08 0 0 1 .047.035Zm.616-.139a.486.486 0 0 0-.1-.12h-.018a.17.17 0 0 1 .017.064.02.02 0 0 1-.007.017s-.012 0-.018.008a.016.016 0 0 0-.008.013.131.131 0 0 0-.022-.014h-.016a.106.106 0 0 0 0 .026v.02a.155.155 0 0 1-.034-.032h-.018c-.003 0 0 .024 0 .034v.034h-.008a.095.095 0 0 1-.012-.02.09.09 0 0 1-.01-.036c0-.006-.016-.006-.016 0a.875.875 0 0 1 0 .098.092.092 0 0 1-.042.068.1.1 0 0 1-.036.016c-.012 0-.014-.011-.016-.016a.13.13 0 0 1-.007-.029v-.015a.088.088 0 0 0 .041-.094.022.022 0 0 0-.003-.01.024.024 0 0 0-.028-.011.019.019 0 0 0-.009.005.02.02 0 0 0-.004.009.24.24 0 0 0 0 .024c0 .02-.008.04-.009.061v.016l-.013.01h.01v.012a.086.086 0 0 0 .01.033c.011.019.044.01.064 0a.11.11 0 0 0 .05-.046.144.144 0 0 0 .012-.074l.009.007a.037.037 0 0 0 .038 0 .035.035 0 0 0 0-.032.09.09 0 0 0 0-.018.171.171 0 0 0 .028.02h.012a.02.02 0 0 0 .011-.009.02.02 0 0 0 .003-.014v-.019a.207.207 0 0 0 .023.012h.014v-.016a.044.044 0 0 1 .018-.01.032.032 0 0 0 .015-.027.085.085 0 0 0-.009-.033c.022.024.041.05.058.078 0 .008.01.015.016.022a.108.108 0 0 0-.056.039.079.079 0 0 0-.015.037.05.05 0 0 0 .013.043.077.077 0 0 0 .067.011.061.061 0 0 0 .041-.037.12.12 0 0 0-.029-.088h.02c.007 0 .01 0 0 0a.07.07 0 0 0-.027-.017Zm-.373.054v-.055a.03.03 0 0 1 0 .01.09.09 0 0 1 0 .044.071.071 0 0 1-.025.039.392.392 0 0 1 .025-.038Zm.386 0a.06.06 0 0 1 0 .041.05.05 0 0 1-.044.029.039.039 0 0 1-.036-.023.041.041 0 0 1-.004-.014.069.069 0 0 1 0-.03.095.095 0 0 1 .053-.05.184.184 0 0 1 .031.051v-.004Z" fill="#37474F"/><path d="m22.998 23.86.04.023c.021.012.021.03 0 .044l-2.709 1.56a.087.087 0 0 1-.076 0l-.04-.023a.023.023 0 0 1 0-.044l2.708-1.56a.079.079 0 0 1 .077 0Zm.238.14.038.022c.022.013.022.032 0 .044l-2.708 1.56a.086.086 0 0 1-.077 0l-.04-.023a.023.023 0 0 1-.017-.022.023.023 0 0 1 .017-.022L23.16 24a.082.082 0 0 1 .076 0Zm.235.132.038.023a.024.024 0 0 1 .011.009.024.024 0 0 1 0 .026.024.024 0 0 1-.01.01l-2.71 1.56a.087.087 0 0 1-.077 0l-.04-.024a.023.023 0 0 1 0-.044l2.71-1.56a.086.086 0 0 1 .078 0Zm.52.301.04.023c.022.012.022.031 0 .044l-2.708 1.56a.089.089 0 0 1-.078 0l-.039-.022a.023.023 0 0 1-.012-.008.023.023 0 0 1 .012-.037l2.709-1.56a.083.083 0 0 1 .077 0Zm.238.137.039.022c.021.013.021.032 0 .045l-2.709 1.56a.086.086 0 0 1-.077 0l-.04-.023a.023.023 0 0 1-.012-.008.023.023 0 0 1 .013-.036l2.708-1.56a.082.082 0 0 1 .078 0Zm.235.136.039.023c.005 0 .01.004.012.008a.023.023 0 0 1 0 .028.023.023 0 0 1-.012.008l-2.709 1.56a.087.087 0 0 1-.076 0l-.04-.023a.023.023 0 0 1 0-.044l2.71-1.56a.087.087 0 0 1 .076 0Zm.521.3.04.024c.021.012.021.03 0 .044L22.32 26.64a.088.088 0 0 1-.078 0l-.038-.023a.023.023 0 0 1-.018-.022c0-.005.002-.01.005-.014a.023.023 0 0 1 .013-.008l2.708-1.56a.086.086 0 0 1 .073-.006Zm.238.138.038.023c.022.011.022.03 0 .044l-2.708 1.56a.087.087 0 0 1-.077 0l-.04-.023a.023.023 0 0 1-.017-.022.023.023 0 0 1 .017-.022l2.709-1.56a.082.082 0 0 1 .078 0Zm.235.135.039.023a.02.02 0 0 1 .012.008.023.023 0 0 1-.012.037l-2.709 1.56a.08.08 0 0 1-.077 0l-.04-.023c-.02-.012-.02-.032 0-.045l2.71-1.56a.085.085 0 0 1 .077 0Z" fill="#E0E0E0"/><path d="M20.424 24.748v.072a.167.167 0 0 0 .038.1l1.989-1.148V23.7a.43.43 0 0 0-.195-.05.311.311 0 0 0-.132.028c-.144.065-.186.086-.274.12a.14.14 0 0 1-.135-.019l-.06-.054-.16-.15a.097.097 0 0 0-.076-.024.154.154 0 0 0-.037 0 .56.56 0 0 1-.166 0 .342.342 0 0 1-.179-.068.418.418 0 0 0-.277-.097h-.008a.414.414 0 0 0-.184.044.197.197 0 0 0-.12.215.194.194 0 0 0 .07.185c.023.022.04.052.044.085a.187.187 0 0 1-.04.092.082.082 0 0 0-.021.048v.073a.048.048 0 0 0 .018.036l.187.17.059.056a.014.014 0 0 1 .006.006.079.079 0 0 1-.013.02l-.24.188a.201.201 0 0 0-.094.144Zm.532-1.091a.137.137 0 0 1-.07.073.274.274 0 0 1-.29-.034.149.149 0 0 1-.038-.055.14.14 0 0 1 .071-.073l.028-.013a.276.276 0 0 1 .26.045c.017.016.03.035.039.057Z" fill="#37474F"/><path d="M22.256 23.65a.312.312 0 0 0-.132.028c-.144.065-.186.086-.274.12a.14.14 0 0 1-.135-.019l-.06-.054-.16-.15a.095.095 0 0 0-.076-.024.154.154 0 0 0-.037 0 .56.56 0 0 1-.166 0 .342.342 0 0 1-.179-.068.418.418 0 0 0-.277-.097h-.008a.414.414 0 0 0-.184.044.19.19 0 0 0-.05.328.197.197 0 0 1 0 .25c-.046.054 0 .084 0 .084l.187.17.059.055c.044.04-.008.098-.008.098l-.24.189c-.104.093-.098.169-.044.24l1.988-1.148a.428.428 0 0 0-.204-.045Zm-1.339-.12a.12.12 0 0 1 .017.166.12.12 0 0 1-.048.036.274.274 0 0 1-.29-.033.12.12 0 0 1-.015-.165.12.12 0 0 1 .048-.037l.028-.012a.275.275 0 0 1 .26.043v.003Z" fill="#455A64"/><path d="m18.875 28.227 2.945 1.701.504.103h.008a.016.016 0 0 0 .008-.022l-.158-.29-2.945-1.701c-.1-.058-.439.164-.362.209Z" fill="#000" opacity=".2"/><path d="M19.2 27.733h.014l-.028-.015h-.023a.125.125 0 0 0-.06.018.3.3 0 0 0-.143.224.145.145 0 0 0 0 .034.01.01 0 0 0 0 .006.068.068 0 0 0 .01.02l.033.018a.108.108 0 0 1-.014-.01.11.11 0 0 0 .078-.017.3.3 0 0 0 .133-.278Z" fill="#407BFF"/><path d="m22.027 29.362-.187.331-.032-.018-2.779-1.604a.15.15 0 0 1-.014-.011.112.112 0 0 1-.024-.077.298.298 0 0 1 .134-.233.12.12 0 0 1 .06-.019h.033l2.81 1.63Z" fill="#F0F0F0"/><path d="M21.931 29.371c.075-.043.136-.007.136.078a.302.302 0 0 1-.136.24c-.074.044-.134.009-.134-.078a.298.298 0 0 1 .134-.24Z" fill="#407BFF"/><path d="m22.222 29.572-.172-.19a.089.089 0 0 0-.108 0 .298.298 0 0 0-.134.24c0 .05.02.083.051.093h.01l.25.053c.015.003.03 0 .044-.008a.174.174 0 0 0 .077-.134.07.07 0 0 0-.018-.054Z" fill="#E0E0E0"/><path d="M20.016 28.343a.035.035 0 0 0-.031 0 .103.103 0 0 0-.048.083c0 .005 0 .01.002.016a.05.05 0 0 0 .009.013h.006L22 29.64l.134-.077-2.118-1.22Z" fill="#455A64"/><path d="m21.809 29.535.19.109.135-.077-.258-.149a.313.313 0 0 0-.067.117Z" fill="#37474F"/><path d="m22.29 29.662-.156-.172a.062.062 0 0 0-.077 0 .208.208 0 0 0-.095.165c0 .036.014.058.036.066h.006l.23.049a.042.042 0 0 0 .025 0 .097.097 0 0 0 .043-.076.039.039 0 0 0-.012-.032Z" fill="#407BFF"/><path d="m22.29 29.662-.156-.172a.062.062 0 0 0-.077 0 .208.208 0 0 0-.095.165c0 .036.014.058.036.066h.006l.23.049a.042.042 0 0 0 .025 0 .097.097 0 0 0 .043-.076.039.039 0 0 0-.012-.032Z" fill="#000" opacity=".1"/><path d="M22.298 29.687a.097.097 0 0 1-.043.075.042.042 0 0 1-.025 0l-.12-.025c-.02 0-.031-.02-.031-.048a.156.156 0 0 1 .07-.12.046.046 0 0 1 .056 0l.078.085a.039.039 0 0 1 .015.033Z" fill="#407BFF"/><path d="M22.255 29.662c.024-.014.043 0 .043.025a.098.098 0 0 1-.043.075c-.024.014-.043 0-.043-.025a.097.097 0 0 1 .043-.075Z" fill="#000" opacity=".1"/><path d="M19.506 28.049a.034.034 0 0 0-.035 0 .105.105 0 0 0-.047.083c0 .006 0 .012.003.017.002.006.006.01.01.014l.506.292a.037.037 0 0 1-.011-.03.104.104 0 0 1 .048-.082.035.035 0 0 1 .031 0l-.505-.294Z" fill="#FAFAFA"/><path d="M19.52 28.08a.103.103 0 0 1-.049.083.03.03 0 0 1-.044-.014.033.033 0 0 1-.003-.017.103.103 0 0 1 .047-.083.034.034 0 0 1 .035 0 .032.032 0 0 1 .013.031Z" fill="#F5F5F5"/><path d="m19.412 27.875-.199-.12a.086.086 0 0 0-.083.01.267.267 0 0 0-.12.21.083.083 0 0 0 .036.079l.202.12a.086.086 0 0 0 .084-.009.268.268 0 0 0 .12-.21.088.088 0 0 0-.04-.08Z" fill="#407BFF"/><path d="m19.412 27.875-.199-.12a.086.086 0 0 0-.083.01.267.267 0 0 0-.12.21.083.083 0 0 0 .036.079l.202.12a.086.086 0 0 0 .084-.009.268.268 0 0 0 .12-.21.088.088 0 0 0-.04-.08Z" fill="#000" opacity=".05"/><path d="M19.32 27.882c.067-.038.12-.007.12.07a.27.27 0 0 1-.12.211c-.067.038-.12.007-.12-.07a.27.27 0 0 1 .12-.21Z" fill="#000" opacity=".1"/><path d="m22.354 29.735-.083-.05a.013.013 0 0 0-.016 0 .046.046 0 0 0-.023.038c0 .003 0 .006.002.008a.014.014 0 0 0 .006.006l.081.05h.016a.031.031 0 0 0 .022-.01.03.03 0 0 0 .009-.021.031.031 0 0 0-.014-.02Z" fill="#455A64"/><path d="M22.36 29.739a.013.013 0 0 0-.015 0 .052.052 0 0 0-.024.04c0 .002 0 .005.002.008a.017.017 0 0 0 .004.007h.015a.033.033 0 0 0 .033-.033.03.03 0 0 0-.015-.022Z" fill="#263238"/><path d="m12.247 33.647 2.16 1.248a.265.265 0 0 0 .24 0l6.369-3.672a.074.074 0 0 0 0-.14l-2.16-1.248a.27.27 0 0 0-.24 0l-6.369 3.672a.074.074 0 0 0 0 .14Z" fill="#000" opacity=".2"/><path d="M20.88 30.863a.085.085 0 0 0-.049-.07l-2.026-1.17a.266.266 0 0 0-.24 0l-6.18 3.575a.085.085 0 0 0-.05.07v.212a.086.086 0 0 0 .05.07l2.025 1.169a.267.267 0 0 0 .24 0l6.181-3.57a.084.084 0 0 0 .05-.069v-.217Z" fill="#EBEBEB"/><path d="m14.411 34.501-2.024-1.164a.073.073 0 0 1-.05-.07.073.073 0 0 1 .05-.069l6.18-3.575a.266.266 0 0 1 .24 0l2.025 1.17a.073.073 0 0 1 .037.113.073.073 0 0 1-.037.027l-6.18 3.567a.267.267 0 0 1-.24.001Z" fill="#fff"/><path d="M14.52 34.529v.217a.24.24 0 0 1-.12-.027l-2.023-1.17a.085.085 0 0 1-.05-.069v-.213a.088.088 0 0 0 .05.07l2.023 1.164a.24.24 0 0 0 .12.028Z" fill="#E0E0E0"/><path d="m14.532 34.32-.2-.12.27-.157.208.12-.276.157h-.002Zm-.313-.181-.2-.12.213-.12.208.12-.214.12h-.007Zm.693-.039-.2-.12.214-.12.207.12-.213.12h-.008Zm-1.008-.142-.2-.12.346-.2.207.12-.35.202-.003-.002Zm.636 0-.2-.12.17-.098.207.12-.17.098h-.007Zm.694-.039-.2-.12.213-.12.208.12-.214.12h-.007Zm-.416-.12-.2-.12.17-.098.206.12-.17.098h-.006Zm-1.227-.017-.2-.12.272-.157.207.12-.272.157h-.007Zm1.965-.046-.2-.12 1.542-.892.208.12-1.543.89-.007.002Zm-1.2-.034-.2-.12.168-.097.208.12-.17.097h-.006Zm.736-.064-.2-.12.17-.097.207.12-.17.097h-.007Zm-1.815-.038-.2-.12.17-.097.207.12-.17.097h-.007Zm.693-.037-.2-.12.17-.097.207.12-.17.097h-.007Zm.665-.022-.2-.12.17-.098.207.12-.17.098h-.007Zm.738-.063-.2-.12.169-.099.208.12-.17.099h-.007Zm-1.813-.039-.2-.12.169-.098.207.12-.169.098h-.007Zm.694-.038-.2-.12.168-.099.208.12-.17.099h-.006Zm.664-.022-.2-.12.17-.098.207.12-.17.097-.007.001Zm-2.017 0-.2-.12.213-.12.208.12-.214.12h-.007Zm2.754-.063-.2-.12.17-.098.207.12-.17.098h-.007Zm-1.818-.038-.2-.12.17-.098.207.12-.17.098h-.007Zm.694-.038-.2-.12.17-.097.206.12-.169.097h-.007Zm.665-.02-.2-.12.168-.098.208.12-.17.098h-.006Zm.736-.064-.2-.12.17-.098.207.12-.17.098h-.007Zm-2.594-.036-.2-.12.169-.097.207.12-.169.097h-.007Zm.772 0-.2-.12.168-.097.208.12-.17.097h-.006Zm.694-.038-.2-.12.17-.099.207.12-.17.099h-.007Zm.664-.022-.2-.12.17-.098.208.12-.17.098h-.008Zm.738-.064-.2-.12.169-.098.207.12-.169.097-.007.001Zm-2.59-.03-.2-.12.17-.1.207.12-.17.1h-.007Zm.772-.007-.2-.12.169-.098.207.12-.169.098h-.007Zm.694-.038-.2-.12.168-.099.208.12-.17.098h-.006Zm.664-.022-.2-.12.17-.097.207.12-.17.097h-.007Zm.737-.062-.2-.12.17-.097.207.12-.17.097h-.007Zm-2.59-.033-.2-.12.17-.098.208.12-.17.097-.007.001Zm.772-.006-.2-.12.17-.097.207.12-.17.097h-.007Zm2.542-.016-.2-.12.213-.12.206.12-.212.12h-.007Zm-1.847-.022-.2-.12.17-.098.208.12-.178.098Zm.665-.022-.2-.12.17-.098.206.12-.169.098h-.007Zm.738-.063-.2-.12.169-.099.207.12-.169.099h-.007Zm-2.591-.035-.2-.12.169-.098.207.12-.169.097-.007.001Zm.772 0-.2-.12.168-.098.208.12-.17.098h-.006Zm.693-.038-.2-.12.169-.099.208.12-.17.099h-.007Zm1.891 0-.2-.12.214-.12.206.12-.212.12h-.008Zm-1.227-.017-.2-.12.17-.097.207.12-.17.097h-.007Zm.739-.065-.2-.12.17-.097.206.12-.176.097Zm-1.818-.037-.2-.12.169-.097.207.12-.169.097h-.007Zm.694-.039-.2-.12.17-.097.206.12-.17.097h-.006Zm.664-.02-.2-.12.17-.098.207.12-.17.098h-.007Zm-2.008 0-.2-.12.168-.098.208.12-.17.098h-.006Zm3.278 0-.2-.12.213-.12.207.12-.213.12h-.007Zm-.533-.054-.201-.12.17-.098.208.12-.17.098h-.007Zm-1.818-.037-.2-.12.17-.099.208.12-.17.099h-.008Zm.694-.039-.202-.12.17-.098.208.12-.169.084-.007.014Zm.665-.021-.2-.12.17-.099.206.12-.17.098h-.006Zm-2.01 0-.2-.12.17-.097.207.12-.169.097h-.007Zm3.324-.029-.202-.12.272-.157.208.12-.272.157h-.006Zm-.576-.03-.2-.12.534-.308.207.12-.534.308h-.007Zm-1.82-.054-.201-.12.169-.098.208.12-.17.097-.007.001Zm.694-.038-.2-.12.169-.098.207.12-.169.098h-.007Zm.664-.02-.2-.12.168-.098.208.12-.17.097h-.006Zm-2.01 0-.2-.12.17-.1.207.12-.17.1h-.006Zm.93-.097-.2-.12.17-.097.206.12-.17.097h-.006Zm2.556-.026-.2-.12.168-.099.208.12-.17.099h-.006Zm-1.863-.012-.2-.12.17-.099.207.12-.17.099h-.007Zm.665-.022-.2-.12.154-.09a.034.034 0 0 0 .018-.027.036.036 0 0 0-.019-.03l-.263-.153.2-.114.52.298-.403.233-.007.003Zm-2.009 0-.2-.12.169-.098.208.12-.17.097-.007.001Zm.928-.096-.2-.12.169-.098.207.12-.17.098h-.006Zm2.556-.026-.2-.12.17-.099.206.12-.169.098h-.007Zm-1.863-.012-.201-.12.17-.099.208.12-.17.098h-.007Zm-1.222-.096-.2-.12.168-.097.208.12-.17.097h-.006Zm.807-.027-.2-.12.169-.097.208.12-.17.097h-.007Zm2.555-.025-.2-.12.17-.097.208.12-.17.097h-.008Zm-.592-.021-.2-.12.17-.099.207.12-.17.097-.007.002Zm-2.492-.1-.2-.12.17-.098.206.12-.169.098h-.007Zm.808-.026-.2-.12.3-.174.208.12-.301.174h-.007Zm2.613-.06-.2-.12.446-.258.208.12-.448.258h-.006Zm-1.832-.03-.2-.12.17-.098.206.12-.169.099h-.007Zm-1.312-.045-.2-.12.169-.097.208.12-.17.097h-.007Zm2.831-.107-.2-.12.17-.098.206.12-.169.098h-.007Zm-1.242-.008-.2-.12.169-.097.207.12-.169.097h-.007Zm-.59-.02-.2-.12.168-.099.208.12-.17.099h-.006Zm-.72-.024-.2-.12.168-.099.208.12-.17.099h-.006Zm3.42-.087-.2-.12.17-.098.207.12-.169.098h-.007Zm-.59-.021-.201-.12.17-.098.207.12-.17.098h-.007Zm-1.242-.008-.2-.12.17-.098.207.12-.17.098h-.007Zm.65-.013-.2-.12.168-.098.208.12-.17.098h-.006Zm-1.242-.013-.2-.12.17-.097.206.12-.168.097h-.008Zm-.66-.059-.2-.12.17-.098.207.12-.17.098h-.006Zm3.36-.051-.514-.298.17-.098.521.297-.169.099h-.007Zm-.59-.02-.2-.12.17-.1.207.12-.17.1h-.007Zm-.591-.022-.2-.12.169-.098.207.12-.169.098h-.007Zm-1.242-.008-.2-.12.17-.098.207.12-.17.098h-.007Zm.65-.013-.2-.12.169-.098.208.12-.17.098h-.007Zm-1.308-.047-.2-.12.169-.098.208.12-.17.098h-.007Zm2.177-.092-.2-.12.17-.098.206.12-.169.098h-.007Zm-.592-.022-.201-.12.17-.097.208.12-.17.097h-.007Zm-.591-.02-.2-.12.169-.098.207.12-.17.098h-.006Zm-.72-.025-.2-.12.17-.097.206.12-.169.097h-.007Zm2.177-.094-.515-.297.17-.098.521.297-.17.098h-.006Zm-.59-.02-.201-.12.169-.099.208.12-.17.099h-.007Zm-.592-.02-.2-.12.168-.098.208.12-.17.097h-.006Zm-.74-.107-.086-.05.17-.097.093.05-.17.098-.007-.001Zm1.017-.054-.2-.12.17-.099.206.12-.169.099h-.007Zm-.74-.107-.086-.05.17-.098.093.05-.17.098h-.006Zm1.017-.054-.2-.12.169-.097.207.12-.169.097h-.007Zm-.738-.106-.088-.049.17-.097.093.05-.168.097h-.007Zm.277-.16-.086-.05.169-.098.094.05-.17.097h-.007Z" fill="#407BFF"/><path d="m14.532 34.32-.2-.12.27-.157.208.12-.276.157h-.002Zm-.313-.181-.2-.12.213-.12.208.12-.214.12h-.007Zm.693-.039-.2-.12.214-.12.207.12-.213.12h-.008Zm-1.008-.142-.2-.12.346-.2.207.12-.35.202-.003-.002Zm.636 0-.2-.12.17-.098.207.12-.17.098h-.007Zm.694-.039-.2-.12.213-.12.208.12-.214.12h-.007Zm-.416-.12-.2-.12.17-.098.206.12-.17.098h-.006Zm-1.227-.017-.2-.12.272-.157.207.12-.272.157h-.007Zm1.965-.046-.2-.12 1.542-.892.208.12-1.543.89-.007.002Zm-1.2-.034-.2-.12.168-.097.208.12-.17.097h-.006Zm.736-.064-.2-.12.17-.097.207.12-.17.097h-.007Zm-1.815-.038-.2-.12.17-.097.207.12-.17.097h-.007Zm.693-.037-.2-.12.17-.097.207.12-.17.097h-.007Zm.665-.022-.2-.12.17-.098.207.12-.17.098h-.007Zm.738-.063-.2-.12.169-.099.208.12-.17.099h-.007Zm-1.813-.039-.2-.12.169-.098.207.12-.169.098h-.007Zm.694-.038-.2-.12.168-.099.208.12-.17.099h-.006Zm.664-.022-.2-.12.17-.098.207.12-.17.097-.007.001Zm-2.017 0-.2-.12.213-.12.208.12-.214.12h-.007Zm2.754-.063-.2-.12.17-.098.207.12-.17.098h-.007Zm-1.818-.038-.2-.12.17-.098.207.12-.17.098h-.007Zm.694-.038-.2-.12.17-.097.206.12-.169.097h-.007Zm.665-.02-.2-.12.168-.098.208.12-.17.098h-.006Zm.736-.064-.2-.12.17-.098.207.12-.17.098h-.007Zm-2.594-.036-.2-.12.169-.097.207.12-.169.097h-.007Zm.772 0-.2-.12.168-.097.208.12-.17.097h-.006Zm.694-.038-.2-.12.17-.099.207.12-.17.099h-.007Zm.664-.022-.2-.12.17-.098.208.12-.17.098h-.008Zm.738-.064-.2-.12.169-.098.207.12-.169.097-.007.001Zm-2.59-.03-.2-.12.17-.1.207.12-.17.1h-.007Zm.772-.007-.2-.12.169-.098.207.12-.169.098h-.007Zm.694-.038-.2-.12.168-.099.208.12-.17.098h-.006Zm.664-.022-.2-.12.17-.097.207.12-.17.097h-.007Zm.737-.062-.2-.12.17-.097.207.12-.17.097h-.007Zm-2.59-.033-.2-.12.17-.098.208.12-.17.097-.007.001Zm.772-.006-.2-.12.17-.097.207.12-.17.097h-.007Zm2.542-.016-.2-.12.213-.12.206.12-.212.12h-.007Zm-1.847-.022-.2-.12.17-.098.208.12-.178.098Zm.665-.022-.2-.12.17-.098.206.12-.169.098h-.007Zm.738-.063-.2-.12.169-.099.207.12-.169.099h-.007Zm-2.591-.035-.2-.12.169-.098.207.12-.169.097-.007.001Zm.772 0-.2-.12.168-.098.208.12-.17.098h-.006Zm.693-.038-.2-.12.169-.099.208.12-.17.099h-.007Zm1.891 0-.2-.12.214-.12.206.12-.212.12h-.008Zm-1.227-.017-.2-.12.17-.097.207.12-.17.097h-.007Zm.739-.065-.2-.12.17-.097.206.12-.176.097Zm-1.818-.037-.2-.12.169-.097.207.12-.169.097h-.007Zm.694-.039-.2-.12.17-.097.206.12-.17.097h-.006Zm.664-.02-.2-.12.17-.098.207.12-.17.098h-.007Zm-2.008 0-.2-.12.168-.098.208.12-.17.098h-.006Zm3.278 0-.2-.12.213-.12.207.12-.213.12h-.007Zm-.533-.054-.201-.12.17-.098.208.12-.17.098h-.007Zm-1.818-.037-.2-.12.17-.099.208.12-.17.099h-.008Zm.694-.039-.202-.12.17-.098.208.12-.169.084-.007.014Zm.665-.021-.2-.12.17-.099.206.12-.17.098h-.006Zm-2.01 0-.2-.12.17-.097.207.12-.169.097h-.007Zm3.324-.029-.202-.12.272-.157.208.12-.272.157h-.006Zm-.576-.03-.2-.12.534-.308.207.12-.534.308h-.007Zm-1.82-.054-.201-.12.169-.098.208.12-.17.097-.007.001Zm.694-.038-.2-.12.169-.098.207.12-.169.098h-.007Zm.664-.02-.2-.12.168-.098.208.12-.17.097h-.006Zm-2.01 0-.2-.12.17-.1.207.12-.17.1h-.006Zm.93-.097-.2-.12.17-.097.206.12-.17.097h-.006Zm2.556-.026-.2-.12.168-.099.208.12-.17.099h-.006Zm-1.863-.012-.2-.12.17-.099.207.12-.17.099h-.007Zm.665-.022-.2-.12.154-.09a.034.034 0 0 0 .018-.027.036.036 0 0 0-.019-.03l-.263-.153.2-.114.52.298-.403.233-.007.003Zm-2.009 0-.2-.12.169-.098.208.12-.17.097-.007.001Zm.928-.096-.2-.12.169-.098.207.12-.17.098h-.006Zm2.556-.026-.2-.12.17-.099.206.12-.169.098h-.007Zm-1.863-.012-.201-.12.17-.099.208.12-.17.098h-.007Zm-1.222-.096-.2-.12.168-.097.208.12-.17.097h-.006Zm.807-.027-.2-.12.169-.097.208.12-.17.097h-.007Zm2.555-.025-.2-.12.17-.097.208.12-.17.097h-.008Zm-.592-.021-.2-.12.17-.099.207.12-.17.097-.007.002Zm-2.492-.1-.2-.12.17-.098.206.12-.169.098h-.007Zm.808-.026-.2-.12.3-.174.208.12-.301.174h-.007Zm2.613-.06-.2-.12.446-.258.208.12-.448.258h-.006Zm-1.832-.03-.2-.12.17-.098.206.12-.169.099h-.007Zm-1.312-.045-.2-.12.169-.097.208.12-.17.097h-.007Zm2.831-.107-.2-.12.17-.098.206.12-.169.098h-.007Zm-1.242-.008-.2-.12.169-.097.207.12-.169.097h-.007Zm-.59-.02-.2-.12.168-.099.208.12-.17.099h-.006Zm-.72-.024-.2-.12.168-.099.208.12-.17.099h-.006Zm3.42-.087-.2-.12.17-.098.207.12-.169.098h-.007Zm-.59-.021-.201-.12.17-.098.207.12-.17.098h-.007Zm-1.242-.008-.2-.12.17-.098.207.12-.17.098h-.007Zm.65-.013-.2-.12.168-.098.208.12-.17.098h-.006Zm-1.242-.013-.2-.12.17-.097.206.12-.168.097h-.008Zm-.66-.059-.2-.12.17-.098.207.12-.17.098h-.006Zm3.36-.051-.514-.298.17-.098.521.297-.169.099h-.007Zm-.59-.02-.2-.12.17-.1.207.12-.17.1h-.007Zm-.591-.022-.2-.12.169-.098.207.12-.169.098h-.007Zm-1.242-.008-.2-.12.17-.098.207.12-.17.098h-.007Zm.65-.013-.2-.12.169-.098.208.12-.17.098h-.007Zm-1.308-.047-.2-.12.169-.098.208.12-.17.098h-.007Zm2.177-.092-.2-.12.17-.098.206.12-.169.098h-.007Zm-.592-.022-.201-.12.17-.097.208.12-.17.097h-.007Zm-.591-.02-.2-.12.169-.098.207.12-.17.098h-.006Zm-.72-.025-.2-.12.17-.097.206.12-.169.097h-.007Zm2.177-.094-.515-.297.17-.098.521.297-.17.098h-.006Zm-.59-.02-.201-.12.169-.099.208.12-.17.099h-.007Zm-.592-.02-.2-.12.168-.098.208.12-.17.097h-.006Zm-.74-.107-.086-.05.17-.097.093.05-.17.098-.007-.001Zm1.017-.054-.2-.12.17-.099.206.12-.169.099h-.007Zm-.74-.107-.086-.05.17-.098.093.05-.17.098h-.006Zm1.017-.054-.2-.12.169-.097.207.12-.169.097h-.007Zm-.738-.106-.088-.049.17-.097.093.05-.168.097h-.007Zm.277-.16-.086-.05.169-.098.094.05-.17.097h-.007Z" fill="#000" opacity=".5"/><path d="m7.343 32.598-2.097-1.21 10.485-6.054 2.096 1.21-10.484 6.054Z" fill="#000" opacity=".15"/><path d="m13.673 30.849 1.497-.867a.393.393 0 0 0 .232-.322v-.208l-1.8-1.02a.33.33 0 0 1-.149-.26v-1.845l-2.616 1.513v1.847a.327.327 0 0 0 .149.258l1.57.906a1.236 1.236 0 0 0 1.117-.002Z" fill="#E6E6E6"/><path d="M11.465 30.01v.208l-.48-.276a.33.33 0 0 1-.149-.259V27.84l.498-.288c.01.12.022.257.031.385l-.349.202v1.44a.329.329 0 0 0 .149.258l.3.174Z" fill="#E0E0E0"/><path d="M11.017 29.58a.332.332 0 0 0 .149.258l1.39.802a1.23 1.23 0 0 0 1.117 0l1.497-.865c.31-.178.31-.467 0-.645l-1.39-.803a.333.333 0 0 1-.148-.258v-1.44l-2.615 1.509v1.442Z" fill="#F5F5F5"/><path d="m14.084 28.503-.303-.176a.333.333 0 0 1-.149-.258v-1.44l-2.615 1.509v1.44a.332.332 0 0 0 .149.258l.299.173 2.62-1.506Zm1.318.949v.208a.397.397 0 0 1-.232.323l-1.497.866a1.13 1.13 0 0 1-.533.131v-.207c.186 0 .369-.044.533-.132l1.497-.866a.394.394 0 0 0 .232-.323Z" fill="#EBEBEB"/><path d="M6.819 31.57a.4.4 0 0 0 .36 0l10.112-5.837a.412.412 0 0 0 .186-.323v-8.857a.349.349 0 0 0-.535-.31L6.83 22.08a.412.412 0 0 0-.186.323v8.851a.399.399 0 0 0 .174.317Z" fill="#455A64"/><path d="m7.18 31.56 10.112-5.84a.408.408 0 0 0 .186-.32v-8.847c0-.12-.083-.168-.186-.108L7.18 22.283a.416.416 0 0 0-.186.323v8.85c0 .12.086.168.186.104Z" fill="#407BFF"/><path d="m7.18 31.56 10.112-5.84a.408.408 0 0 0 .186-.32v-8.847c0-.12-.083-.168-.186-.108L7.18 22.283a.416.416 0 0 0-.186.323v8.85c0 .12.086.168.186.104Z" fill="#37474F"/><path d="M7.152 31.578a.349.349 0 0 1-.508-.323v-.996l.35.203v.995c0 .103.068.157.158.121Z" fill="#E0E0E0"/><path d="M6.994 30.461v.996c0 .12.084.167.186.108l10.112-5.84a.408.408 0 0 0 .186-.32v-.997L6.994 30.461Z" fill="#fff"/><path d="M7.343 29.727v-7.005a.25.25 0 0 1 .111-.194l9.563-5.52c.061-.036.112-.008.112.065v7.004a.25.25 0 0 1-.112.194l-9.563 5.52c-.06.036-.111.008-.111-.064Z" fill="#407BFF"/><path d="M7.343 29.727v-7.005a.25.25 0 0 1 .111-.194l9.563-5.52c.061-.036.112-.008.112.065v7.004a.25.25 0 0 1-.112.194l-9.563 5.52c-.06.036-.111.008-.111-.064Z" fill="#fff" opacity=".5"/><path d="m7.908 22.663 8.514-4.92c.062-.036.112-.007.112.065v6.204a.24.24 0 0 1-.112.193l-8.513 4.92c-.062.036-.113.006-.113-.064v-6.203a.25.25 0 0 1 .112-.195Z" fill="#455A64"/><path d="M16.534 17.812c0-.071-.05-.1-.112-.064l-8.514 4.92a.25.25 0 0 0-.112.195v.48l8.738-5.04v-.491Z" fill="#37474F"/><path d="M12.24 27.84a.383.383 0 0 0-.175.302c0 .112.078.157.175.101a.388.388 0 0 0 .174-.302c-.004-.113-.082-.159-.174-.1Z" fill="#455A64"/><path d="M7.049 22.42a.4.4 0 0 0-.055.186v7.856l-.35-.203v-7.855a.383.383 0 0 1 .056-.183l.349.2Z" fill="#263238"/><path d="M9.186 23.262v5.12l6.025-3.48v-5.119c0-.078-.055-.11-.12-.07l-5.778 3.335a.274.274 0 0 0-.127.214Z" fill="#FAFAFA"/><path d="M10.169 23.39a.42.42 0 0 0 0 .043v.11a.368.368 0 0 0 .006.089.079.079 0 0 0 .017.033.04.04 0 0 0 .028.012.07.07 0 0 0 .042-.013.153.153 0 0 0 .044-.033.198.198 0 0 0 .042-.077.264.264 0 0 0 .01-.035.112.112 0 0 1 .008-.031.037.037 0 0 1 .016-.017l.099-.058a.007.007 0 0 1 .005-.002.007.007 0 0 1 .006.002.44.44 0 0 1-.018.136.552.552 0 0 1-.12.222.36.36 0 0 1-.093.076.2.2 0 0 1-.096.03.12.12 0 0 1-.072-.026.154.154 0 0 1-.047-.073.373.373 0 0 1-.018-.11v-.205a.62.62 0 0 1 .137-.368.38.38 0 0 1 .096-.08.227.227 0 0 1 .093-.031.137.137 0 0 1 .074.018.145.145 0 0 1 .05.062.251.251 0 0 1 .017.1.04.04 0 0 1 0 .02.03.03 0 0 1-.01.015l-.099.056c-.008.006-.014.006-.017 0a.046.046 0 0 1-.008-.022.113.113 0 0 0-.01-.025.044.044 0 0 0-.015-.02.045.045 0 0 0-.027-.007.137.137 0 0 0-.085.052.162.162 0 0 0-.029.045.26.26 0 0 0-.017.051.301.301 0 0 0-.01.062Zm.426-.252a.561.561 0 0 1 .136-.366.375.375 0 0 1 .098-.081.19.19 0 0 1 .097-.031.106.106 0 0 1 .072.025c.022.02.037.044.046.072a.389.389 0 0 1 .019.111v.206a.637.637 0 0 1-.137.368.413.413 0 0 1-.097.08.201.201 0 0 1-.099.033.109.109 0 0 1-.072-.025.174.174 0 0 1-.045-.075.373.373 0 0 1-.018-.11v-.207Zm.329.01v-.193a.273.273 0 0 0-.008-.05.086.086 0 0 0-.018-.03.04.04 0 0 0-.028-.012.077.077 0 0 0-.041.013.162.162 0 0 0-.07.08.311.311 0 0 0-.026.11v.193a.12.12 0 0 0 .026.08c.016.017.039.017.07 0a.16.16 0 0 0 .068-.078.311.311 0 0 0 .023-.113h.004Zm.606-.042h-.022a.035.035 0 0 1-.01-.01l-.171-.296v.391a.067.067 0 0 1 0 .025.029.029 0 0 1-.014.017l-.099.058a.012.012 0 0 1-.007.002c-.003 0-.005 0-.007-.002a.028.028 0 0 1 0-.02v-.745a.078.078 0 0 1 0-.026.04.04 0 0 1 .014-.017l.078-.045a.018.018 0 0 1 .02 0 .03.03 0 0 1 .011.01l.172.296v-.39c0-.01.002-.018.006-.026a.037.037 0 0 1 .014-.018l.099-.056a.01.01 0 0 1 .003-.002.01.01 0 0 1 .008 0l.003.002a.025.025 0 0 1 .006.018v.746a.065.065 0 0 1-.006.026.06.06 0 0 1-.014.018l-.084.044Zm.626-1.17a.01.01 0 0 1 .007-.003.01.01 0 0 1 .006.003.02.02 0 0 1 0 .018v.12a.049.049 0 0 1 0 .025.038.038 0 0 1-.013.018l-.132.077v.592a.078.078 0 0 1 0 .026.072.072 0 0 1-.014.017l-.099.056h-.014a.025.025 0 0 1 0-.018v-.593l-.132.077a.012.012 0 0 1-.007.003c-.003 0-.005-.001-.008-.003a.025.025 0 0 1 0-.018v-.12a.069.069 0 0 1 0-.026.033.033 0 0 1 .015-.017l.391-.234Zm.348-.202a.279.279 0 0 1 .089-.034.09.09 0 0 1 .066.01c.02.014.035.034.042.058a.497.497 0 0 1-.008.266.4.4 0 0 1-.067.12l.094.222v.011a.058.058 0 0 1 0 .02.03.03 0 0 1-.012.015l-.102.059c-.01.006-.017.007-.022 0a.043.043 0 0 1-.01-.016l-.083-.198-.069.04v.253a.063.063 0 0 1 0 .025.042.042 0 0 1-.014.017l-.098.058a.012.012 0 0 1-.008.002c-.002 0-.005 0-.007-.002a.026.026 0 0 1 0-.02v-.745a.078.078 0 0 1 0-.026.04.04 0 0 1 .015-.017l.194-.118Zm-.084.4.084-.05a.16.16 0 0 0 .053-.048.14.14 0 0 0 .02-.078c0-.033-.007-.052-.02-.056a.067.067 0 0 0-.053.011l-.084.05v.171Zm.694-.751c.01-.006.018-.006.022 0a.052.052 0 0 1 .011.02l.163.632v.015a.071.071 0 0 1 0 .022.033.033 0 0 1-.012.013l-.094.055c-.01.006-.017.006-.02 0a.022.022 0 0 1-.01-.014l-.02-.084-.2.12-.02.108a.085.085 0 0 1-.009.024.053.053 0 0 1-.021.021l-.095.055-.003.002-.003.001H12.8l-.002-.003a.018.018 0 0 1-.002-.007l.002-.007v-.02l.163-.821a.15.15 0 0 1 .012-.032.047.047 0 0 1 .023-.026l.118-.074Zm-.12.575.12-.07-.062-.24-.058.31Zm.526-.502v.193a.175.175 0 0 0 0 .047.079.079 0 0 0 .017.034.04.04 0 0 0 .029.013.08.08 0 0 0 .042-.014.134.134 0 0 0 .042-.034.163.163 0 0 0 .043-.076.28.28 0 0 0 .01-.036.172.172 0 0 1 .007-.03.042.042 0 0 1 .018-.018l.098-.056.003-.002h.003a.007.007 0 0 1 .005.002v.014a.406.406 0 0 1-.018.12.584.584 0 0 1-.123.224.36.36 0 0 1-.093.075.187.187 0 0 1-.096.031.105.105 0 0 1-.072-.025.16.16 0 0 1-.047-.073.383.383 0 0 1-.018-.11v-.207a.633.633 0 0 1 .064-.257.524.524 0 0 1 .073-.109.383.383 0 0 1 .096-.081.218.218 0 0 1 .093-.03.127.127 0 0 1 .074.018c.022.015.04.036.05.06a.254.254 0 0 1 .017.102.047.047 0 0 1 0 .02.03.03 0 0 1-.01.014l-.099.057c-.008 0-.014.006-.018 0a.07.07 0 0 1-.007-.022.187.187 0 0 0-.01-.025.04.04 0 0 0-.015-.02.047.047 0 0 0-.028-.006.095.095 0 0 0-.042.014.177.177 0 0 0-.07.082.266.266 0 0 0-.018.052.275.275 0 0 0 0 .06Zm.828-.786h.015a.02.02 0 0 1 0 .018v.12a.049.049 0 0 1 0 .025.038.038 0 0 1-.015.018l-.132.076v.593a.049.049 0 0 1 0 .025.045.045 0 0 1-.013.018l-.098.056a.011.011 0 0 1-.007.003.011.011 0 0 1-.008-.003.02.02 0 0 1-.005-.008.019.019 0 0 1 0-.01v-.592l-.133.076a.012.012 0 0 1-.007.003.01.01 0 0 1-.007-.003.03.03 0 0 1 0-.019v-.12a.063.063 0 0 1 0-.025.037.037 0 0 1 .014-.018l.396-.233Zm-4.585 3.835 4.877-2.817c.05-.03.089 0 .089.05a.194.194 0 0 1-.089.154l-4.876 2.806c-.049.028-.09.008-.09-.045a.194.194 0 0 1 .09-.148Zm0 .54 4.877-2.818c.05-.03.089-.006.089.051a.196.196 0 0 1-.089.162l-4.876 2.797c-.049.028-.09.008-.09-.045a.191.191 0 0 1 .09-.147Zm0 .54 4.877-2.82c.05-.027.089 0 .089.052a.198.198 0 0 1-.089.154l-4.876 2.805c-.049.029-.09.009-.09-.044a.19.19 0 0 1 .09-.148Zm0 .8 4.877-2.818c.05-.029.089 0 .089.05a.193.193 0 0 1-.089.153l-4.876 2.808c-.049.027-.09.007-.09-.046a.194.194 0 0 1 .09-.148Zm0 .54 4.877-2.82c.05-.027.089 0 .089.052a.198.198 0 0 1-.089.154L9.764 27.12c-.049.029-.09.008-.09-.044a.191.191 0 0 1 .09-.152Zm0 .538 4.877-2.819c.05-.027.089 0 .089.052a.194.194 0 0 1-.089.154l-4.876 2.805c-.049.029-.09.009-.09-.044a.194.194 0 0 1 .09-.148Z" fill="#E0E0E0"/><path d="M47.134 47.538a.17.17 0 0 0 .169-.17V36.472a.17.17 0 0 0-.339 0V47.37a.169.169 0 0 0 .17.169Zm-6.743-3.966a.17.17 0 0 0 .158-.107l3.341-8.458a.17.17 0 0 0-.16-.232.167.167 0 0 0-.119.052.17.17 0 0 0-.035.056l-3.342 8.457a.17.17 0 0 0 .157.232Z" fill="#455A64"/><path d="M40.793 42.557a.165.165 0 0 0 .12-.054l6.218-6.58 6.209 6.557a.17.17 0 0 0 .183.042.171.171 0 0 0 .11-.154.17.17 0 0 0-.047-.121l-6.33-6.686a.165.165 0 0 0-.12-.054.168.168 0 0 0-.12.054l-6.34 6.709a.17.17 0 0 0 .117.287Z" fill="#455A64"/><path d="M53.88 43.572a.167.167 0 0 0 .118-.048.168.168 0 0 0 .04-.184l-3.342-8.457a.17.17 0 1 0-.315.124l3.342 8.458a.17.17 0 0 0 .157.107Z" fill="#455A64"/><path d="m40.621 42.295-.441 1.165a.137.137 0 0 0 0 .03.065.065 0 0 0 0 .022.135.135 0 0 0 .066.073.296.296 0 0 0 .268 0 .12.12 0 0 0 .053-.055v-.017l.41-1.092-.356-.126Zm13.019 0 .442 1.165v.052a.143.143 0 0 1-.068.073.296.296 0 0 1-.268 0 .113.113 0 0 1-.052-.055v-.017l-.41-1.092.356-.126Zm-6.702 4.23v.96a.096.096 0 0 0 .058.08.302.302 0 0 0 .276 0 .096.096 0 0 0 .057-.08v-.96a.418.418 0 0 0-.391 0Zm-7.382-11.632c0-.304.265-.627.828-.992 1.039-.674 4.063-2.362 5.52-3.168 0-.003.002-.005.004-.007a.017.017 0 0 1 .008-.005c1.118-.679 1.459-3.576 2.233-6.032.264-.84.587-1.312.97-1.535.09-.053.427-.24.501-.282.76-.455 1.757.093 3 .772 1.144.626 2.04 1.428 2.218 3.554.109 1.295 0 3.77-.258 5.64-.382 3.133-.849 3.14-1.528 3.664-1.168.902-3.798 2.17-4.907 2.606-2.011.791-3.654-.428-4.878-1.033a28.68 28.68 0 0 1-3.24-1.92c-.306-.223-.465-.449-.462-.685a13.76 13.76 0 0 1-.01-.577Z" fill="#407BFF"/><path d="M39.556 34.893c0-.304.265-.627.828-.992 1.039-.674 4.063-2.362 5.52-3.168 0-.003.002-.005.004-.007a.017.017 0 0 1 .008-.005c1.118-.679 1.459-3.576 2.233-6.032.264-.84.587-1.312.97-1.535.09-.053.427-.24.501-.282.76-.455 1.757.093 3 .772 1.144.626 2.04 1.428 2.218 3.554.109 1.295 0 3.77-.258 5.64-.382 3.133-.849 3.14-1.528 3.664-1.168.902-3.798 2.17-4.907 2.606-2.011.791-3.654-.428-4.878-1.033a28.68 28.68 0 0 1-3.24-1.92c-.306-.223-.465-.449-.462-.685a13.76 13.76 0 0 1-.01-.577Z" fill="#000" opacity=".2"/><path d="M43.264 37.495a28.478 28.478 0 0 1-3.24-1.92c-.698-.506-.633-1.024.36-1.672 1.387-.9 6.315-3.61 6.315-3.61s7.15 4.221 6.84 5c-.31.779-4.005 2.69-5.4 3.24-2.009.786-3.651-.433-4.875-1.038Z" fill="#407BFF"/><path d="M43.264 37.495a28.478 28.478 0 0 1-3.24-1.92c-.698-.506-.633-1.024.36-1.672 1.387-.9 6.315-3.61 6.315-3.61s7.15 4.221 6.84 5c-.31.779-4.005 2.69-5.4 3.24-2.009.786-3.651-.433-4.875-1.038Z" fill="#fff" opacity=".5"/><path d="M49.16 23.129c.753-.395 1.73.142 2.94.805.776.425 1.44.927 1.838 1.87l.51-.296c-.401-.937-1.06-1.44-1.833-1.864-1.242-.68-2.239-1.227-3-.772-.065.038-.329.186-.455.257Z" fill="#407BFF"/><path d="M49.16 23.129c.753-.395 1.73.142 2.94.805.776.425 1.44.927 1.838 1.87l.51-.296c-.401-.937-1.06-1.44-1.833-1.864-1.242-.68-2.239-1.227-3-.772-.065.038-.329.186-.455.257Z" fill="#fff" opacity=".5"/><path d="M52.102 23.934c-1.86-1.018-3.17-1.74-3.96.755-.774 2.456-1.115 5.353-2.234 6.032 0 0 .73.24 3.332 1.517 1.068.524 1.768 1.053 2.77 1.68 1.47.925 1.359 1.614 1.359 1.614.73-.606 1.125-5.918.947-8.046-.18-2.128-1.07-2.926-2.214-3.552ZM27.305 10.133a.12.12 0 0 0-.063-.017H26.1l-.472.272v1.635l.472-.273.408-.47v1.154l.472-.272 1.236-1.332a.122.122 0 0 0 .031-.103.12.12 0 0 0-.063-.087l-.88-.507Z" fill="#407BFF"/><path d="M27.305 10.133a.12.12 0 0 0-.063-.017H26.1l-.472.272v1.635l.472-.273.408-.47v1.154l.472-.272 1.236-1.332a.122.122 0 0 0 .031-.103.12.12 0 0 0-.063-.087l-.88-.507Z" fill="#fff" opacity=".4"/><path d="m26.508 12.434.472-.272 1.236-1.332a.12.12 0 0 0 .026-.136.12.12 0 0 0-.12-.07H26.98l-.472.272v1.538Z" fill="#407BFF"/><path d="M26.983 9.275a1 1 0 0 0-.453-.785 1 1 0 0 0-.908 0l-3.444 1.97a1.006 1.006 0 0 0-.452.786v3.72a1.006 1.006 0 0 0 .452.786.999.999 0 0 0 .908 0l3.48-2.001c.408-.233.411-.466.411-.755l.006-3.721Z" fill="#407BFF"/><path d="M21.727 14.964a1.006 1.006 0 0 0 .453.786 1.011 1.011 0 0 0 .829.038c-.214.08-.376-.042-.376-.3v-3.72a.93.93 0 0 1 .132-.446l-.906-.522a.935.935 0 0 0-.132.448v3.716Z" fill="#000" opacity=".15"/><path d="M26.969 9.146c-.053-.192-.23-.254-.438-.133l-3.445 1.972a.897.897 0 0 0-.32.338l-.906-.523a.92.92 0 0 1 .32-.338l3.442-1.972a1.007 1.007 0 0 1 .908 0 .998.998 0 0 1 .439.656Z" fill="#fff" opacity=".4"/><path d="M24.926 10.836a.402.402 0 0 1 .38.092.45.45 0 0 1 .109.155.534.534 0 0 1 .043.196c0 .025-.006.05-.018.073a.1.1 0 0 1-.038.048l-.346.204a.079.079 0 0 1-.107 0l-.024-.025a.154.154 0 0 0-.049-.032.166.166 0 0 0-.08-.007.311.311 0 0 0-.12.045.585.585 0 0 0-.179.146.397.397 0 0 0-.058.097.297.297 0 0 0-.021.12.12.12 0 0 0 .025.088.12.12 0 0 0 .084.026.643.643 0 0 0 .157-.024 8.67 8.67 0 0 0 .24-.062.826.826 0 0 1 .254-.034.29.29 0 0 1 .18.07.36.36 0 0 1 .11.181 1.346 1.346 0 0 1-.007.65 1.543 1.543 0 0 1-.297.597 1.626 1.626 0 0 1-.24.24v.289a.206.206 0 0 1-.022.09.138.138 0 0 1-.05.061l-.347.2a.036.036 0 0 1-.049 0 .088.088 0 0 1-.022-.067v-.297a.493.493 0 0 1-.229 0 .397.397 0 0 1-.287-.253.64.64 0 0 1-.042-.226.17.17 0 0 1 .017-.073.12.12 0 0 1 .039-.05l.346-.199a.112.112 0 0 1 .058-.02.1.1 0 0 1 .043.02l.031.034a.21.21 0 0 0 .057.042.185.185 0 0 0 .09.016.318.318 0 0 0 .134-.05.986.986 0 0 0 .234-.182.318.318 0 0 0 .094-.222.091.091 0 0 0-.035-.083.18.18 0 0 0-.103-.015c-.06.006-.118.018-.175.034l-.254.065c-.18.045-.314.022-.397-.07-.083-.09-.12-.254-.12-.487 0-.099.013-.198.035-.295a1.625 1.625 0 0 1 .258-.582 1.63 1.63 0 0 1 .212-.25v-.297c0-.031.008-.062.022-.09a.13.13 0 0 1 .05-.061l.346-.2a.04.04 0 0 1 .05 0 .088.088 0 0 1 .022.065l-.004.309Z" fill="#FAFAFA"/><path d="M15.47 43.42v6.25c0 .304.214.48.48.633l.657.38a.634.634 0 0 0 .513.101 1.397 1.397 0 0 0 .365-.151l.035-.02 6.72-3.879a1.588 1.588 0 0 0 .787-1.374v-5.69a.454.454 0 0 0-.205-.354l-1.122-.647a.443.443 0 0 0-.407 0l-7.62 4.4a.413.413 0 0 0-.145.151.424.424 0 0 0-.059.2Z" fill="#407BFF"/><path d="M15.47 43.42v6.25c0 .304.214.48.48.633l.657.38a.634.634 0 0 0 .513.101c.123-.032.241-.08.35-.144-.26.12-.467-.014-.467-.324v-5.89a.64.64 0 0 1 .09-.306l-1.56-.9a.424.424 0 0 0-.064.2Z" fill="#000" opacity=".3" style="mix-blend-mode:multiply"/><path d="M17 44.425a.684.684 0 0 1 .308-.534l7.2-4.159c.284-.164.517-.029.517.3v5.328a1.585 1.585 0 0 1-.785 1.374l-6.72 3.878c-.284.165-.517.03-.517-.298l-.004-5.889Z" fill="#000" opacity=".2" style="mix-blend-mode:multiply"/><path d="m24.065 38.88-7.633 4.45a.72.72 0 0 0-.36.618v6.432l.12.067v-6.5a.6.6 0 0 1 .297-.517l7.691-4.484-.115-.066Z" fill="#407BFF"/><path d="M16.172 43.591a.719.719 0 0 0-.096.36v6.432l.12.067v-6.504a.6.6 0 0 1 .08-.297l-.104-.058Z" fill="#000" opacity=".4" style="mix-blend-mode:multiply"/><path d="M16.273 43.649a.583.583 0 0 1 .217-.218l7.691-4.485-.12-.067-7.633 4.45a.712.712 0 0 0-.26.262" fill="#000" opacity=".3" style="mix-blend-mode:multiply"/><path d="M21.24 39.692v.969l.378.218V39.6c0-.065-.046-.091-.103-.06l-.275.153Z" fill="#263238"/><path d="M18.58 40.649v1.567l.36.209.24-.14v-1.286a.233.233 0 0 1 .103-.18l1.844-1.064.383-.221c.058-.032.103-.006.103.06v1.285l.24-.14v-1.586a.23.23 0 0 0-.103-.16l-.154-.09a.24.24 0 0 0-.207 0l-2.713 1.567a.225.225 0 0 0-.096.179Z" fill="#455A64"/><path d="M18.94 40.859v1.566l.24-.14v-1.286a.233.233 0 0 1 .104-.18l1.844-1.064.383-.22c.058-.033.103-.007.103.06v1.284l.24-.14v-1.586c-.01-.052-.051-.07-.103-.04l-2.707 1.567a.233.233 0 0 0-.103.179Z" fill="#37474F"/><path d="M37.072 14.16c.12-.068.217-.891.12-1.487-.098-.595.172-.72.294-.535.07.107.119.226.144.352.276.079.525.232.72.444.303.342.66.76.506 1.627-.03.168-.2.392-.284.636-.132.38 1.638 3.395 1.638 5.068 0 1.614-1.028 1.413-2.04.883-1.166-.61-2.979-2.54-2.979-2.54l-.871-3.14c1.186.087 1.32.271 2.047 1.176.815 1.023 1.659 2.12 1.659 2.12-.306-1.2-.614-2.897-1.11-3.315" fill="#FFA8A7"/><path d="M34.092 15.43c.684.008 1.067.056 1.49.31.422.255.773.84 1.042 1.147.269.305 1.345 1.758 1.345 1.758l-.333-1.505 1.484-.41s.448.998.738 1.721c.29.724.48 1.498.353 2.27-.127.771-.539.97-1.2.813-.661-.157-1.373-.534-3.011-2.02-1.638-1.488-1.8-1.663-1.8-1.663l-.108-2.42Z" fill="#455A64"/><path d="m37.458 16.51.224.84c.285-.001.568-.045.84-.129.532-.145.663-.352.663-.352l-.328-.758s-.651.442-1.399.4Zm.511 2.135c.183.88.631 1.54.906 1.776 0 0-1.04-.519-1.157-2.112l.251.336Z" fill="#37474F"/><path d="m38.92 12.54-2.86-1.56a.17.17 0 0 0-.178-.007c-.042.025-.21.12-.258.146a.178.178 0 0 0-.087.147l-.187 1.694a.42.42 0 0 0 .199.384l2.86 1.56a.18.18 0 0 0 .167.013c.047-.024.23-.128.278-.158a.181.181 0 0 0 .078-.14l.187-1.7a.415.415 0 0 0-.2-.379Z" fill="#407BFF"/><path d="m38.653 12.691-2.86-1.56a.17.17 0 0 0-.183 0l.014-.01c.047-.023.215-.12.258-.145a.172.172 0 0 1 .178.008l2.86 1.56a.365.365 0 0 1 .102.09l-.262.146a.368.368 0 0 0-.107-.089Z" fill="#000" opacity=".35"/><path d="m35.549 13.349 2.86 1.56a.162.162 0 0 0 .256-.135l.187-1.697a.416.416 0 0 0-.199-.383l-2.86-1.56a.163.163 0 0 0-.234.048.161.161 0 0 0-.022.086l-.187 1.692a.418.418 0 0 0 .199.389Z" fill="#000" opacity=".45"/><path d="M38.603 13.735a.19.19 0 0 1 .083.17.068.068 0 0 1-.108.056.183.183 0 0 1-.083-.168.068.068 0 0 1 .108-.058Z" fill="#000" opacity=".35"/><path d="M35.76 13.215a.21.21 0 0 1-.092-.178l.2-1.692 2.56 1.403a.215.215 0 0 1 .092.177l-.2 1.69-2.56-1.4Z" fill="#407BFF"/><path d="M35.76 13.215a.21.21 0 0 1-.092-.178l.2-1.692 2.56 1.403a.215.215 0 0 1 .092.177l-.2 1.69-2.56-1.4Z" fill="#fff" opacity=".7"/><path d="m38.327 14.545-.009.071-2.558-1.401a.218.218 0 0 1-.092-.178l.2-1.692.062.035-.192 1.62a.213.213 0 0 0 .093.179l2.496 1.365Z" fill="#407BFF"/><path d="M39.12 12.923c-.047.426-.142 1.273-.188 1.7a.178.178 0 0 1-.078.14 5.97 5.97 0 0 1-.278.158.02.02 0 0 1-.01 0 .168.168 0 0 0 .1-.151l.186-1.698a.419.419 0 0 0-.094-.295l.265-.15c.07.082.104.188.097.296Z" fill="#000" opacity=".55"/><path d="M37.024 14.16c-.093-.085-.114-.35-.266-.588-.175-.273-.61-.225-.487 0 .124.226.161.418.233.97.072.552.196.6.418.912l.15-1.261-.048-.033Z" fill="#FFA8A7"/><path d="M38.252 11.188a.294.294 0 0 1-.1-.24l.016-.378c0-.094.057-.14.12-.102a.294.294 0 0 1 .1.24l-.017.378c-.008.095-.06.14-.119.102Zm-.812-.172a.246.246 0 0 1-.089-.145l-.105-.405c-.026-.1 0-.193.05-.207.05-.014.12.056.144.156l.106.404c.025.101 0 .195-.05.208a.073.073 0 0 1-.056-.01Zm2.221 5.159a.192.192 0 0 1-.053-.058l-.198-.321a.289.289 0 0 1-.03-.258c.034-.063.101-.048.15.032l.2.322a.293.293 0 0 1 .028.258.063.063 0 0 1-.07.038.062.062 0 0 1-.027-.013Zm.312-1.295-.24-.152a.293.293 0 0 1-.1-.24c0-.095.056-.14.12-.102l.24.152a.294.294 0 0 1 .101.24c-.014.102-.062.142-.12.102Zm-.396-1.548a.24.24 0 0 1-.09-.145c-.026-.1 0-.194.05-.208l.215-.056c.054-.014.12.055.146.156.025.1 0 .193-.05.208l-.217.056a.067.067 0 0 1-.054-.01Zm-.543-1.297a.191.191 0 0 1-.053-.058.295.295 0 0 1-.029-.257l.136-.252c.032-.062.1-.047.15.033a.293.293 0 0 1 .028.258l-.134.25a.065.065 0 0 1-.043.038.065.065 0 0 1-.055-.012Z" fill="#E0E0E0"/><path d="M29.532 47.987c-.044.176-.138.675-1.067.675-.929 0-1.46-.38-1.643-.852-.182-.471-.078-.82-.06-1.232.016-.412-.289-.673-.36-.895-.1-.328.173-.778.173-.778l2.957 3.082Zm8.701-2.561a.563.563 0 0 1-.043.448c-.067.09-.69.542-1.458.448a3.551 3.551 0 0 1-1.582-.553c-.448-.264-.758-.302-1.215-.301-.457.001-.77-.085-.808-.2-.066-.2-.07-.33.027-.327l5.08.485Z" fill="#263238"/><path d="M26.888 44.23c0 .846 1.62 1 1.58.319l.565-1.978-1.831-.194-.314 1.853Z" fill="#FFA8A7"/><path d="M29.52 47.565c-.06-.161-.265-.41-.35-.558a4.547 4.547 0 0 1-.61-2.547c0-.05.01-.145-.035-.181-.044-.036-.1 0-.155.014a.998.998 0 0 1-.292.035c-.328-.008-.674-.136-.756-.136-.064 0-.11.193-.134.402-.104-.087-.12-.24-.214-.334-.05-.053-.074-.058-.062-.133l.023-.14c-.079-.036-.192.271-.294.505-.12.27-.259.573-.187.873.048.166.114.327.196.48.141.262.217.554.22.852-.006.13-.033.258-.032.387a1.138 1.138 0 0 0 .667 1.035c.532.25 1.37.337 1.913.016.184-.116.164-.41.102-.57Z" fill="#263238"/><path d="M33.48 43.54c.458.328.88.37 1.42.1l.27-2.88h-1.984l.294 2.78Z" fill="#FFA8A7"/><path d="M29.138 25.048c-.36 3.36-.852 10.022-.852 10.022s-.55 1.01-.763 2.63c-.265 2-.576 5.804-.576 5.804s.935.607 1.845.313c0 0 2.08-6 2.496-7.973.36-1.718 1.004-5.247 1.004-5.247l.802 4.8a7.539 7.539 0 0 0-.26 2.34c.04.925.404 4.46.404 4.46.3.286 1.459.323 1.845.077 0 0 .556-5.886.636-6.858.107-1.278.305-10.44.305-10.44l-6.886.072Z" fill="#263238"/><path d="m32.292 30.6.448-2.064s1-.229 1.716-.803c0 0-.262.66-1.359 1.164l-.457 1.931.394 4.242-.742-4.47Z" fill="#000"/><path d="M37.84 44.849c-.759-.283-1.497-.614-1.964-.943a3.954 3.954 0 0 1-.315-.24c-.193-.193-.311-.616-.394-.664-.027-.015-.066 0-.12.037a.137.137 0 0 0-.089-.052l-.01.12c-.157.1-.334.165-.519.19-.465.058-.48-.034-.499.12a1.024 1.024 0 0 0 0 .167c-.248-.031-.445-.103-.46-.197l-.038-.307c-.246-.012-.246.427-.308.924-.05.401-.136.694-.015.984.383.31 1.035.207 1.41.255.532.067.792.448 1.535.675 1.2.36 1.927-.135 2.14-.349.138-.266.06-.569-.354-.72Z" fill="#263238"/><path d="M31.99 15.55c-.938.143-2.01.217-2.668.307-.72.097-.974.684-.974 1.92 0 1.808.925 4.824.925 4.824l-.252 3.084c.84.899 4.872 1.292 7.021-.026 0 0 .058-6.134 0-7.168-.102-1.82-1.154-2.983-1.825-3.035 0-.006-.617-.151-2.227.094Z" fill="#37474F"/><path d="M33.24 17.612c-.016.424-.2 3.453-.269 3.936-.068.484.677 1.51.84 1.498.163-.012.505-.848.579-1.386-.042-.665-.431-3.385-.737-4.098l-.413.05Z" fill="#407BFF"/><path d="m33.685 17.62-.023-.058-.417.05c0 .035 0 .09-.007.159a.798.798 0 0 0 .447-.151Z" fill="#000" opacity=".15"/><path d="M33.031 16.7c.211.022.424.003.628-.056.07.147.124.301.162.46a1.259 1.259 0 0 1-.159.458.503.503 0 0 1-.417.05 1.614 1.614 0 0 1-.36-.342c.029-.194.078-.385.146-.57Z" fill="#407BFF"/><path d="M31.08 9.929s-.514.07-.702.458c-.164.338-.106 1.151.113 2.04.218.89.425 1.421.553 1.667a.68.68 0 0 0 .392.315l-.025-1.053-.038-.733s.47-.643.523-1.17c.066-.677-.077-.96-.077-.96l-.739-.564Z" fill="#263238"/><path d="m30.96 10.057-.72-.33a.425.425 0 0 1 .548-.226.41.41 0 0 1 .172.556Zm.953.89a1.966 1.966 0 1 0 3.931-.013 1.966 1.966 0 0 0-3.931.013Z" fill="#263238"/><path d="M31.403 12.503c-.177.153-.32-.24-.47-.397-.148-.158-.633-.36-.873.144s.222 1.225.584 1.393c.532.24.77-.29.77-.29l.056 2.213c.56 1.008 1.705.674 1.88 1.134.105-.409.644-.6.258-1.047v-.72s.6.089.886.043c.48-.077.736-.44.88-.96.234-.84.327-2.254 0-3.886-.54-.418-2.415-.349-3.55.37.08 1.444-.244 1.85-.421 2.003Z" fill="#FFA8A7"/><path d="m35.95 11.437-.107-.01c-.345-.023-.796-.017-1.067.076-.34.12-.46.24-.648.25-.188.01-.329-.107-.692-.198-.29-.073-.77-.043-1.14.008l-.113.018a.191.191 0 0 0-.127.197c.014.083.052.16.11.22.017.028.03.058.037.09.04.153.064.45.14.613a.76.76 0 0 0 .146.217.714.714 0 0 0 .074.063l.043.027c.04.024.084.043.129.058l.021.006.034.01.036.006a.79.79 0 0 0 .113.014h.109c.468-.016.662-.251.779-.49.116-.239.085-.57.301-.577h.04c.16.031.14.336.24.55a.84.84 0 0 0 .19.27l.018.016.02.017.02.013.02.014.016.01.01.006a.64.64 0 0 0 .187.069h.018a.968.968 0 0 0 .228.014.685.685 0 0 0 .66-.455c.06-.204.104-.413.133-.624a.192.192 0 0 1 .04-.083.453.453 0 0 0 .098-.231c.006-.09-.058-.178-.116-.184Zm-2.244.96a.736.736 0 0 1-.162.333.667.667 0 0 1-.51.206.547.547 0 0 1-.49-.22l-.016-.022-.014-.023a.175.175 0 0 1-.012-.022l-.01-.019-.008-.016a.073.073 0 0 1-.006-.014l-.01-.023a.607.607 0 0 1-.025-.067l-.012-.04-.015-.066v-.025c-.036-.162-.08-.48 0-.558.079-.078.292-.16.64-.138h.038c.053.004.106.011.16.022l.06.013c.053.012.106.027.156.046l.047.018.052.023h.01l.019.01c.04.02.076.047.104.082.062.103.042.317.004.502v-.002Zm2.031-.147c-.027.13-.085.408-.329.537a.599.599 0 0 1-.259.067.544.544 0 0 1-.53-.24l-.011-.016v-.01l-.014-.025a.23.23 0 0 1-.014-.03l-.007-.014v-.031a.886.886 0 0 1-.033-.12c-.036-.18-.056-.392.01-.495.064-.103.322-.224.57-.264.057-.01.11-.016.16-.02h.164a.754.754 0 0 1 .08.011h.052l.022.008.042.032h.007c.031.013.06.03.085.053.08.067.039.393.005.558v-.001Zm-.097-3.28a.09.09 0 0 0-.07-.055.12.12 0 0 0-.067.029c-.134.11-.276.21-.427.296.04-.193.042-.392.007-.587-.021-.12-.055-.394-.201-.424-.09-.017-.165.056-.23.12-.591.552-1.362.296-2.073.319-.6.019-1.313.26-1.582.84-.12.264-.144.542.1.72.215.145.462.237.72.27 1.185.206 2.88.693 3.76-.41a.878.878 0 0 0 .183-.583 1.199 1.199 0 0 0-.12-.529V8.97Z" fill="#263238"/><path d="M33.6 14.932s-1.08-.214-1.456-.413a1.239 1.239 0 0 1-.523-.514c.058.22.16.427.298.608.277.351 1.68.607 1.68.607l.001-.288Z" fill="#F28F8F"/><path d="M33.35 12.177a.216.216 0 1 1-.132-.207.222.222 0 0 1 .132.207Zm-.082-.807-.48.216a.277.277 0 0 1 .136-.36.257.257 0 0 1 .344.144Z" fill="#263238"/><path d="m33.43 13.618.69.256a.36.36 0 0 1-.467.23.384.384 0 0 1-.222-.486Z" fill="#B16668"/><path d="M33.653 14.104a.349.349 0 0 0 .19.014.335.335 0 0 0-.333-.32.307.307 0 0 0-.094.015.373.373 0 0 0 .237.29Z" fill="#F28F8F"/><path d="m35.322 11.508-.5-.183a.254.254 0 0 1 .338-.165.28.28 0 0 1 .162.348Zm-.187.597a.217.217 0 0 1-.264.202.216.216 0 0 1 .049-.427.222.222 0 0 1 .2.14.22.22 0 0 1 .015.085Z" fill="#263238"/><path d="m34.066 12.052.07 1.232.678-.24-.675-1.013a.165.165 0 0 0-.073.02Z" fill="#F28F8F"/><path d="m32.208 11.586-1.58.36c.142.04.268.124.36.24l1.218-.23.002-.37Z" fill="#263238"/><path d="M31.454 14.946c-.136.01-.198.031-.31.254l-.24.48c.03.374.194.724.464.984.458.465 1.475.78 1.475.78s.084-.47.149-.663c.142-.423.36-.087.36-.087a.494.494 0 0 0-.12-.25c-.092-.08-.674-.131-1.137-.423a1.69 1.69 0 0 1-.637-.807l-.004-.268Z" fill="#455A64"/><path d="M33.35 16.7a.48.48 0 0 1 .12-.373.907.907 0 0 0 .131-.565v-.635c.159.02.275.048.373.293.099.245.279.745.197 1.235-.081.49-.291.651-.291.651s-.12-.414-.197-.6c-.077-.186-.219-.246-.333-.006Z" fill="#455A64"/><path d="M29.42 15.84a2.072 2.072 0 0 0-1.874 1.463 354.6 354.6 0 0 0-1.35 4.07c-.712-.344-2.436-1.178-2.78-1.482a6.365 6.365 0 0 1-.878-.942 4.316 4.316 0 0 1-.42-.633 4.09 4.09 0 0 1-.338-.867c-.091-.265-.432.015-.427.489.01.259.06.515.151.758-.172-.017-.67-.067-.746-.073-.268-.022-1.091-.007-1.01.428.02.098.086.188.076.287a.624.624 0 0 1-.04.136.5.5 0 0 0 .12.495.4.4 0 0 1 .12.203c.01.085.036.166.078.24.047.05.099.096.155.136a.795.795 0 0 1 .153.218.96.96 0 0 0 .146.225c.146.152.383.112.574.11.255 0 .578-.064.854-.036.505.12 2.348 1.745 3.926 2.603.54.294.982.44 1.32.259.29-.114.431-.43.616-.883a660.23 660.23 0 0 0 1.502-3.89c.412-1.17.38-2.74.071-3.314Z" fill="#FFA8A7"/><path d="M21.224 18.846c.255 0 .37.127.474.461.062.198.24.542.503.616a.528.528 0 0 1-.318-.028c-.135-.07-.167-.072-.203.006a.4.4 0 0 1-.12.134.268.268 0 0 1 .126.296c-.046.205-.505.36-.946.292 0 0 .675-.013.752-.255.077-.243-.329-.378-.593-.36 0 0 .639-.057.664-.281.025-.224-.268-.29-.646-.262 0 0 .519-.075.547-.268.034-.237-.153-.306-.24-.35Z" fill="#F28F8F"/><path d="M29.654 15.816c-.517-.01-.987.073-1.399.372-.411.299-.6.472-1.141 2.12-.541 1.65-.984 2.978-.984 2.978l-1.973-.92a3.961 3.961 0 0 1-.806 1.586s1.3 1.027 1.969 1.448c.668.421 1.426.8 1.778.683.353-.118.48-.2.953-1.4s1.447-3.68 1.447-3.68.568-1.742.156-3.187Z" fill="#455A64"/><path d="m24.698 20.619-1.004-.532s-.28.96-.848 1.497l1.054.794s.82-.69.798-1.76Zm1.432.667c.76.425 1.048.968 1.048.968s-.11-.767-.938-1.298l-.11.33Z" fill="#37474F"/></svg>