<svg xmlns="http://www.w3.org/2000/svg" fill="none" viewBox="0 0 73 73"><path d="m19.189 21.598-1.443-2.344a6.413 6.413 0 1 0-1.474 1.77l2.917.574Z" fill="#F5F5F5"/><path d="M15.295 18.513a.682.682 0 0 1-.113 0l-.32.007-1.183.012-3.897.017h-.318v-.036c0-1.46 0-2.764.01-3.715 0-.467.009-.845.012-1.117v-.302a.457.457 0 0 1 0-.105.853.853 0 0 1 0 .105v.303c0 .271 0 .65.011 1.116 0 .95 0 2.258.012 3.715l-.037-.037h.31l3.9.01 1.182.012h.321c.037 0 .074.006.11.015Z" fill="#263238"/><path d="M9.782 18.586h-.318a.038.038 0 0 1-.037-.037l.012-3.75.019-1.42c0-.122 0-.146.044-.146.043 0 .039.02.043.146l.01.615.008.806.012 3.641h.207l3.9.01 1.505.02c.13 0 .146 0 .146.043 0 .044-.018.04-.146.044l-.321.007-1.183.012-3.901.009Z" fill="#E0E0E0"/><path d="M14.651 14.546a1.815 1.815 0 0 1-.172.165l-.49.43c-.415.358-.992.853-1.632 1.395l-.096.082-.025.02-.025-.022-.73-.674h.053l-1.066.876-.31.246a.62.62 0 0 1-.115.084.761.761 0 0 1 .103-.1l.291-.262 1.049-.9.023-.019.022.02.73.67h-.048l.096-.081c.641-.542 1.222-1.03 1.647-1.378l.498-.409c.061-.053.127-.101.197-.143Z" fill="#263238"/><path d="M10.037 17.192c-.008 0-.016 0-.024-.017-.01-.016-.012-.045.105-.146l.292-.262 1.071-.919a.038.038 0 0 1 .05 0l.708.65.047-.04c.62-.525 1.204-1.023 1.647-1.38l.503-.412c.21-.168.215-.17.243-.146.027.032.023.035-.177.214l-.489.438c-.438.374-1.012.876-1.632 1.396l-.121.102a.036.036 0 0 1-.049 0l-.705-.654-1.327 1.088c-.085.06-.12.088-.142.088Zm2.255-.65.04-.035.316-.269-.315.267-.041.037Z" fill="#E0E0E0"/><path d="M14.651 15.76a1.75 1.75 0 0 1-.025-.363 28.525 28.525 0 0 1-.011-.876l.036.037h-.063c-.36 0-.686 0-.922-.01a2.021 2.021 0 0 1-.38-.031c.126-.021.254-.03.382-.027.237 0 .563-.01.923-.01h.1v.037c0 .346 0 .657-.012.876.003.122-.006.245-.028.366Z" fill="#263238"/><path d="M14.651 15.796c-.04 0-.05 0-.061-.398-.008-.216-.01-.5-.012-.808-.345 0-.669 0-.914-.01-.417-.012-.417-.021-.417-.063 0-.043 0-.051.417-.063.248 0 .584-.01.924-.01h.1c.01 0 .018.003.026.01a.037.037 0 0 1 .008.012c.002.004.002.01.002.014v.037c0 .335 0 .648-.012.876-.01.403-.019.403-.06.403Z" fill="#E0E0E0"/><path d="m37.037 11.778 7.998-1.222a8.093 8.093 0 1 1-7.11-6.821l-.888 8.043Z" fill="#EBEBEB"/><path d="m39.632 3.761-.971 6.2 6.087-1.143s-.895-3.474-5.116-5.057Z" fill="#E0E0E0"/><path d="M55.458 15.298a5.618 5.618 0 1 1 5.707 5.548 5.637 5.637 0 0 1-5.707-5.548Zm8.303-.134a2.686 2.686 0 1 0-2.643 2.741 2.697 2.697 0 0 0 2.643-2.742Z" fill="#F5F5F5"/><path d="M55.458 15.298a5.637 5.637 0 0 1 5.526-5.735l.044 2.945a2.702 2.702 0 0 0 .086 5.402l.047 2.945a5.635 5.635 0 0 1-5.703-5.557Z" fill="#E0E0E0"/><path d="M60.48 9.11c3.624-.058 6.515 2.754 6.57 6.395l-3.43.055c-.027-1.741-1.351-2.836-3.084-2.809l-.056-3.64ZM9.52 45.435H5.64v8.938h3.88v-8.938Z" fill="#EBEBEB"/><path d="M15.107 37.3h-3.878v17.073h3.878V37.3Z" fill="#F5F5F5"/><path d="M34.764 37.79h-3.878v16.584h3.878V37.788Z" fill="#EBEBEB"/><path d="M40.573 31.738h-3.877v22.459h3.877v-22.46Zm20.862-.179h-3.877v22.813h3.877V31.559Z" fill="#F5F5F5"/><path d="M68.734 35.055h-3.878v19.317h3.878V35.055Z" fill="#EBEBEB"/><path d="M69.273 36.78s-.035-.058-.1-.176c-.064-.118-.154-.292-.283-.526a23.353 23.353 0 0 0-1.218-1.942 18.393 18.393 0 0 0-1.014-1.314 13.836 13.836 0 0 0-1.373-1.41 10.934 10.934 0 0 0-2.357-1.626c-.186-.094-.377-.176-.57-.259a7.149 7.149 0 0 0-2.59-.544 6.58 6.58 0 0 0-1.41.146 6.307 6.307 0 0 0-1.399.476c-.453.216-.895.484-1.362.73a15.32 15.32 0 0 1-2.995 1.252c-1.113.3-2.265.43-3.417.387-.147 0-.293-.012-.439-.017a4.172 4.172 0 0 1-.446-.034c-.075-.01-.146-.015-.224-.03l-.222-.044c-.146-.027-.292-.076-.438-.117a11.69 11.69 0 0 1-1.693-.7l-1.67-.838a10.11 10.11 0 0 0-1.765-.702c-1.236-.31-2.542-.524-3.855-.385a5.952 5.952 0 0 0-1.908.531 6.356 6.356 0 0 0-1.631 1.153c-.978.94-1.714 2.078-2.445 3.176-.732 1.098-1.434 2.205-2.19 3.241a19.606 19.606 0 0 1-2.472 2.855c-.448.416-.927.798-1.432 1.143a11.02 11.02 0 0 1-1.564.876 8.748 8.748 0 0 1-1.651.57c-.28.075-.564.114-.844.161-.28.032-.562.05-.844.053a6.772 6.772 0 0 1-3.142-.75c-.945-.46-1.796-1.011-2.667-1.439a8.044 8.044 0 0 0-10.075 2.241 8.196 8.196 0 0 0-1.138 1.979l-.123.324c-.034.093-.057.173-.077.236l-.065.194s.018-.067.057-.195c.02-.065.041-.146.073-.24.032-.093.075-.203.12-.325a8.221 8.221 0 0 1 3.892-4.303 8.224 8.224 0 0 1 7.356.037c.876.427 1.727.98 2.669 1.435.963.493 2.03.747 3.113.738.28-.003.558-.02.836-.052.279-.047.56-.086.837-.16a8.719 8.719 0 0 0 1.638-.569c.54-.25 1.059-.542 1.552-.876.502-.343.978-.723 1.423-1.137.91-.868 1.734-1.82 2.462-2.845.753-1.036 1.46-2.133 2.19-3.239.73-1.105 1.466-2.238 2.453-3.184a6.408 6.408 0 0 1 1.657-1.168 5.996 5.996 0 0 1 1.931-.526c1.329-.146 2.641.076 3.882.389.613.18 1.207.416 1.774.708l1.67.838a11.71 11.71 0 0 0 1.682.698c.146.04.292.089.438.114l.22.045c.072.015.145.019.218.03.147.02.292.025.438.033.146.007.292.019.438.017a11.437 11.437 0 0 0 3.4-.378 15.292 15.292 0 0 0 2.984-1.244c.465-.24.906-.505 1.365-.73a6.507 6.507 0 0 1 2.837-.622 7.142 7.142 0 0 1 2.607.552c.194.086.39.165.572.261.183.097.364.19.54.292.653.384 1.265.834 1.826 1.344.49.44.948.914 1.37 1.419.393.463.73.905 1.01 1.314.437.628.84 1.28 1.208 1.95.126.231.215.41.278.529l.092.18Z" fill="#263238"/><path d="M38.484 30.045a.997.997 0 1 0 0-1.994.997.997 0 0 0 0 1.994Z" fill="#407BFF"/><path d="M38.484 30.897a1.811 1.811 0 1 1 0-3.623 1.811 1.811 0 0 1 0 3.623Zm0-3.477a1.666 1.666 0 1 0 0 3.331 1.666 1.666 0 0 0 0-3.33Z" fill="#407BFF"/><path d="m38.963 25.608-.053-2.042.51.009-.952-1.164-.952 1.174.527.003.053 2.015.867.005Z" fill="#EBEBEB"/><path d="M37.037 26.702v.375h-.335v-.359a1.592 1.592 0 0 1-.833-.267l.184-.409c.192.135.415.217.649.238v-.56c-.371-.09-.786-.214-.786-.691 0-.355.257-.66.786-.72v-.372h.335v.365c.24.014.472.084.68.204l-.169.412a1.39 1.39 0 0 0-.51-.174v.568c.37.088.779.212.779.683-.003.342-.256.644-.78.707Zm-.335-1.479v-.474c-.177.039-.247.137-.247.246 0 .11.1.181.247.228Zm.584.806c0-.117-.098-.18-.241-.23v.462c.159-.038.233-.127.233-.232h.008Z" fill="#E0E0E0"/><path d="M41.408 20.303c0 .258-.19.482-.605.482a1.008 1.008 0 0 1-.555-.155l.133-.258c.12.086.266.132.414.13.168 0 .272-.07.272-.189 0-.118-.075-.188-.339-.188h-.372l.076-.82h.886v.27h-.607l-.024.277h.119c.432.004.602.194.602.45Zm.138-.27c0-.48.266-.752.623-.752.358 0 .624.271.624.752 0 .48-.265.752-.624.752s-.623-.272-.623-.752Zm.908 0c0-.33-.117-.468-.285-.468-.168 0-.282.138-.282.468s.116.467.282.467c.167 0 .285-.137.285-.467Zm.479-.344a.363.363 0 0 1 .507-.363.362.362 0 0 1 .214.363.36.36 0 0 1-.507.371.362.362 0 0 1-.214-.37Zm.514 0c0-.156-.062-.23-.146-.23-.085 0-.146.077-.146.23 0 .154.063.231.146.231.083 0 .146-.074.146-.23Zm.714-.384h.248l-.994 1.46h-.247l.993-1.46Zm-.238 1.07a.361.361 0 1 1 .718.08.361.361 0 0 1-.718-.08Zm.51 0c0-.153-.06-.23-.145-.23-.086 0-.146.075-.146.23 0 .157.063.231.146.231.083 0 .146-.077.146-.23ZM7.688 42.35a.997.997 0 1 0 0-1.995.997.997 0 0 0 0 1.995Z" fill="#407BFF"/><path d="M7.687 43.2a1.812 1.812 0 1 1 0-3.624 1.812 1.812 0 0 1 0 3.624Zm0-3.476a1.666 1.666 0 1 0 0 3.332 1.666 1.666 0 0 0 0-3.332Z" fill="#407BFF"/><path d="m7.19 35.551.055 2.041-.51-.009.952 1.164.952-1.174-.529-.003-.052-2.015-.867-.004Z" fill="#EBEBEB"/><path d="M6.015 39.262v.376h-.334v-.364a1.58 1.58 0 0 1-.832-.267l.184-.409c.191.135.415.217.648.238v-.56c-.371-.088-.786-.212-.786-.691 0-.355.257-.66.786-.72V36.5h.334v.365c.24.012.473.082.68.203l-.167.412a1.387 1.387 0 0 0-.513-.174v.57c.372.086.78.21.78.681 0 .342-.254.642-.78.705Zm-.334-1.479v-.474c-.177.04-.247.137-.247.248 0 .111.1.18.247.226Zm.575.808c0-.117-.096-.181-.24-.231v.461c.167-.036.24-.124.24-.23ZM64.7 28.436v.376h-.334v-.365a1.583 1.583 0 0 1-.834-.27l.184-.406c.192.134.416.216.65.238v-.561c-.371-.09-.787-.215-.787-.694 0-.353.258-.658.787-.718v-.372h.334v.365c.24.014.472.084.679.204l-.167.412a1.335 1.335 0 0 0-.512-.174v.568c.37.088.78.212.78.683 0 .35-.254.65-.78.714Zm-.334-1.479v-.474c-.178.04-.249.136-.249.247 0 .11.101.18.249.227Zm.575.806c0-.117-.097-.18-.241-.23v.461c.168-.037.24-.123.24-.23Z" fill="#E0E0E0"/><path d="M66.776 28.74a.849.849 0 0 0 .508-.787.801.801 0 1 0-1.597-.009.849.849 0 0 0 .508.796c-1.23.186-1.168 1.521-1.168 1.521l2.908.015s.06-1.352-1.159-1.536Z" fill="#EBEBEB"/><path d="M43.115 16.098a.185.185 0 0 1-.178-.146l-.41-1.729h-1.143l-.396 1.649a.185.185 0 0 1-.336.053.183.183 0 0 1-.022-.14l.396-1.623a.309.309 0 0 1 .292-.292h1.27a.31.31 0 0 1 .292.292l.408 1.714a.182.182 0 0 1-.071.192.185.185 0 0 1-.065.03.222.222 0 0 1-.037 0Z" fill="#407BFF"/><path d="M42.508 13.882h-1.114v2.032h1.114v-2.032Z" fill="#407BFF"/><path d="M41.617 18.33a.221.221 0 0 1-.22-.222v-2.401a.223.223 0 0 1 .054-.172.222.222 0 0 1 .255-.055.22.22 0 0 1 .129.227v2.397a.219.219 0 0 1-.133.208.22.22 0 0 1-.085.018Zm.668 0a.222.222 0 0 1-.22-.221v-2.402a.222.222 0 0 1 .437 0v2.397a.222.222 0 0 1-.218.226Zm.201-5.123a.539.539 0 1 1-1.077 0 .539.539 0 0 1 1.077 0Z" fill="#407BFF"/><path d="m40.99 16.521.423-1.623h1.077l.414 1.623h-1.915Z" fill="#407BFF"/><path d="M32.23 22.357c0 .218-.161.409-.513.409a.85.85 0 0 1-.473-.136l.114-.217a.595.595 0 0 0 .35.11c.146 0 .23-.06.23-.16s-.063-.16-.293-.16h-.315l.064-.694h.75v.229h-.513l-.02.234h.102c.372.002.517.166.517.385Zm.116-.23c0-.405.225-.636.527-.636.303 0 .529.23.529.637 0 .406-.224.638-.529.638-.305 0-.527-.23-.527-.638Zm.768 0c0-.278-.097-.395-.24-.395-.144 0-.24.117-.24.396s.1.395.24.395c.14 0 .24-.115.24-.395Zm.406-.29a.307.307 0 0 1 .533-.17.307.307 0 1 1-.533.17Zm.438 0c0-.131-.05-.194-.128-.194s-.129.064-.129.194.054.196.129.196c.074 0 .124-.063.124-.196h.004Zm.606-.325h.21l-.842 1.232h-.206l.838-1.232Zm-.203.906a.308.308 0 1 1 .305.34.31.31 0 0 1-.296-.211.306.306 0 0 1-.013-.129h.004Zm.438 0c0-.13-.05-.195-.128-.195s-.129.064-.129.195c0 .132.053.196.129.196.076 0 .12-.066.12-.196h.008Zm-1.356-3.568a.18.18 0 0 1-.18-.18v-1.646h-1.327v1.647a.18.18 0 1 1-.36 0v-1.692a.31.31 0 0 1 .309-.314h1.43a.312.312 0 0 1 .307.314v1.692a.18.18 0 0 1-.18.18Z" fill="#455A64"/><path d="M33.145 16.685h-1.09v1.985h1.09v-1.985Z" fill="#455A64"/><path d="M32.275 20.64a.201.201 0 0 1-.216-.184v-2.019a.218.218 0 0 1 .43 0v2.02a.202.202 0 0 1-.214.183Zm.65 0a.201.201 0 0 1-.214-.184v-2.019a.218.218 0 0 1 .431 0v2.02a.202.202 0 0 1-.216.183Zm.2-4.615a.525.525 0 1 1-1.05 0 .525.525 0 0 1 1.05 0Z" fill="#455A64"/><path d="M67.472 32.55a.998.998 0 1 1-1.995-.001.998.998 0 0 1 1.995 0Z" fill="#407BFF"/><path d="M66.475 34.398a1.812 1.812 0 1 1 0-3.625 1.812 1.812 0 0 1 0 3.625Zm0-3.477a1.666 1.666 0 1 0 0 3.333 1.666 1.666 0 0 0 0-3.333Z" fill="#407BFF"/><path d="M43.7 59.079s-.091 5.085-.091 6.971H59.65v-5.364l-.508-1.41-.182-1.145-15.26.948Z" fill="#263238"/><path d="M47.93 65.846a12.047 12.047 0 0 1-.089-1.349c-.029-.45-.033-.902-.013-1.353.055.448.085.899.09 1.35.028.45.033.901.012 1.352Zm.55-4.987s.029-.022.093-.031a.473.473 0 0 1 .43.176.424.424 0 0 1 .042.443.438.438 0 0 1-.172.187.407.407 0 0 1-.481-.095.314.314 0 0 1-.082-.212c0-.066.02-.131.057-.186a.34.34 0 0 1 .223-.157c.066-.009.101.008.1.01-.002.003-.037 0-.092.02a.334.334 0 0 0-.186.154.27.27 0 0 0 .032.324.34.34 0 0 0 .393.075.376.376 0 0 0-.022-.653.63.63 0 0 0-.336-.055Zm8.832.344a1.467 1.467 0 0 1-.31-.18 8.574 8.574 0 0 1-.694-.509c-.257-.21-.49-.416-.647-.57a1.442 1.442 0 0 1-.242-.262c.1.065.193.14.279.223.166.146.397.34.657.55.26.208.503.392.678.525.1.066.194.14.28.223Zm1.646 1.67a.295.295 0 0 1-.07.04l-.21.1-.147.072c-.055.025-.12.047-.187.072-.134.048-.292.112-.46.157l-.275.078c-.095.026-.198.042-.301.065-.208.05-.438.075-.672.107a7.266 7.266 0 0 1-3.083-.346 6.639 6.639 0 0 1-.633-.251c-.096-.044-.192-.083-.28-.129l-.25-.135a4.45 4.45 0 0 1-.416-.256c-.06-.04-.116-.074-.167-.11-.052-.034-.092-.07-.133-.103l-.183-.146a.297.297 0 0 1-.06-.054.44.44 0 0 1 .069.042l.191.133.136.096c.051.034.11.068.17.106.123.073.258.165.42.242l.25.131c.087.044.182.08.278.124.192.091.406.161.63.241.98.325 2.019.44 3.047.338.236-.03.461-.052.667-.098.103-.022.204-.037.3-.062l.272-.072c.175-.041.326-.101.462-.147.067-.023.131-.043.188-.065l.155-.064.214-.088a.326.326 0 0 1 .078-.018Z" fill="#455A64"/><path d="M46.593 24.884a1.022 1.022 0 0 1-.33-2.004 1.061 1.061 0 0 1 1.015-1.742 1.272 1.272 0 0 1 1.968-.943 1.428 1.428 0 0 1 1.76.054 1.022 1.022 0 0 1 .808 1.768" fill="#263238"/><path d="M46.438 25.018a4.332 4.332 0 0 1 4.516-3.763l.225.011c2.409.26 3.533 2.453 3.205 4.853l-.75 8.03-.04.39-5.63.841.11-2.044s-2.312-.486-2.23-2.809c.047-1.123.321-3.427.594-5.509Z" fill="#F2F2F2"/><path d="M48.049 33.323a5.634 5.634 0 0 0 3.086-.739s-.798 1.635-3.105 1.314l.019-.575Z" fill="#5E483F"/><path d="M46.824 26.844a.333.333 0 0 0 .302.35.32.32 0 0 0 .358-.282.335.335 0 0 0-.304-.352.32.32 0 0 0-.356.284Zm.057-.663c.039.045.292-.129.657-.11.365.02.608.21.65.168.02-.019-.018-.1-.13-.187a.903.903 0 0 0-1.042-.042c-.113.073-.15.15-.135.17Zm3.312.984a.33.33 0 0 0 .303.35.32.32 0 0 0 .357-.282.331.331 0 0 0-.303-.35.318.318 0 0 0-.357.282Zm.192-.739c.039.045.3-.127.657-.108.356.019.608.209.65.168.02-.02-.018-.1-.128-.187a.908.908 0 0 0-.518-.188.884.884 0 0 0-.526.146c-.112.067-.15.144-.135.169Zm-1.427 2.577c0-.02-.217-.07-.574-.133-.09-.015-.176-.037-.188-.1a.457.457 0 0 1 .075-.266c.096-.216.197-.438.303-.68.424-.97.73-1.769.695-1.786-.035-.018-.413.756-.836 1.724l-.292.686a.521.521 0 0 0-.065.355.22.22 0 0 0 .146.146c.05.017.101.027.154.03.356.031.58.044.582.024Zm1.038.3c-.057 0-.077.38-.423.639-.346.258-.755.195-.76.25 0 .023.088.078.262.091.226.015.45-.05.634-.185a.843.843 0 0 0 .33-.537c.023-.162-.017-.26-.043-.259Zm.374-4.285c.03.098.388.07.805.146.416.076.748.202.808.117.028-.04-.026-.134-.159-.235a1.415 1.415 0 0 0-1.23-.197c-.163.05-.244.117-.224.17Zm-3.307.136c.058.084.31.012.604.022.295.01.544.082.606 0 .027-.04-.008-.122-.114-.204a.876.876 0 0 0-.975-.019c-.108.079-.146.16-.12.201Z" fill="#263238"/><path d="M46.72 23.966s.685-1.425 1.403-1.729c.869-.369 1.189.584 2.009.396.82-.188 1.65-.54 2.446.126.875.73.423 1.188.427 2.222.02 4.188.723 5.402 1.038 3.451.035-.214.641-.356.776-1.263.173-1.175.292-2.607.068-3.459-.187-.716-.566-1.225-1.261-1.798-1.098-.907-2.663-1.003-3.732-.948-1.069.056-3.186 1.176-3.174 3.002Z" fill="#263238"/><path d="M53.893 28.36a.63.63 0 0 1 .71-.573c.432.062.902.332.829 1.226-.13 1.586-1.695 1.129-1.694 1.083.002-.045.095-1.073.155-1.736Z" fill="#F2F2F2"/><path d="M54.13 29.527c.008 0 .027.022.072.047a.28.28 0 0 0 .206.022c.173-.049.336-.303.367-.584a.9.9 0 0 0-.045-.402.318.318 0 0 0-.19-.23.146.146 0 0 0-.17.064c-.024.042-.017.074-.026.076-.009.001-.032-.03-.013-.094a.172.172 0 0 1 .07-.093.208.208 0 0 1 .156-.028.388.388 0 0 1 .269.269.926.926 0 0 1 .058.45c-.035.317-.223.604-.458.65a.293.293 0 0 1-.248-.062c-.047-.046-.053-.082-.047-.085Z" fill="#5E483F"/><path d="M54.02 25.284c-.203.148-.44.243-.688.276-.25.013-.527-.146-.556-.393-.013-.11.02-.238-.048-.327-.069-.089-.244-.081-.377-.074a1.022 1.022 0 0 1-1.022-.78c-.127.171-.4.146-.574.026a2.265 2.265 0 0 1-.408-.484c-.132-.167-.32-.319-.532-.3a1.53 1.53 0 0 1-.349.06c-.207-.029-.292-.279-.318-.487-.026-.209-.034-.451-.204-.573-.171-.12-.374-.062-.568-.043-.195.019-.438-.038-.478-.23a.373.373 0 0 1 .085-.283 1.03 1.03 0 0 1 1.234-.33 1.394 1.394 0 0 1 2.572-.146 1.418 1.418 0 0 1 2.231.632 1.022 1.022 0 0 1 1.082 1.548c.277.178.508.473.498.803-.01.33-.348.64-.66.537a.57.57 0 0 1-1.01.519" fill="#263238"/><path d="M49.075 21.804a.095.095 0 0 0 0 .029v.086c.016.108.05.213.1.311.08.155.194.29.334.393.184.14.409.217.64.217l-.024-.036a.584.584 0 0 0 .01.438c.064.146.15.281.253.403.048.07.105.134.168.191.074.056.16.093.252.108a.584.584 0 0 0 .52-.158l-.059-.02a1.19 1.19 0 0 0 .465.848.87.87 0 0 0 .514.197c.176 0 .351-.029.518-.087l-.041-.02c.073.196.194.37.352.509a.666.666 0 0 0 .544.178.875.875 0 0 0 .709-.651l-.037.014a.81.81 0 0 0 .54.107.878.878 0 0 0 .39-.146.74.74 0 0 0 .187-.186.338.338 0 0 0 .044-.08.934.934 0 0 1-.245.244.877.877 0 0 1-.38.134.788.788 0 0 1-.511-.11l-.028-.018-.009.034a.825.825 0 0 1-.668.602.609.609 0 0 1-.495-.167 1.195 1.195 0 0 1-.33-.482l-.01-.03-.031.008a1.51 1.51 0 0 1-.496.083.797.797 0 0 1-.475-.182 1.13 1.13 0 0 1-.438-.8l-.007-.076-.053.055a.53.53 0 0 1-.677.048 1.185 1.185 0 0 1-.16-.18 1.605 1.605 0 0 1-.246-.386.513.513 0 0 1-.015-.399l.015-.036h-.041a1.022 1.022 0 0 1-.615-.199 1.13 1.13 0 0 1-.464-.788Z" fill="#455A64"/><path d="m56.806 45.708 2.108 2.034-.682-3.885 4.278-1.352s1.136 5.33 1.334 6.592c.354 2.263-.081 5.48-2.19 5.706-2.28.243-4.003-2.007-5.1-3.483-.842-1.134-2.201-3.118-2.201-3.118l2.453-2.491m-16.297-3.457c-.686 2.16-1.645 2.482-2.025 8.68-.074 1.207.832 2.755 1.911 3.3 1.08.547 2.961-.123 3.571-1.167l.606-4.58-4.063-6.233Z" fill="#E0E0E0"/><path d="M43.344 51.297a9.334 9.334 0 0 0-.42-.91 9.414 9.414 0 0 0-.584-.817.96.96 0 0 1 .22.2c.326.355.572.777.719 1.236a.91.91 0 0 1 .065.291Z" fill="#263238"/><path d="M39.475 44.745c.037-.127 2.148-5.874 2.821-7.133.806-1.505 2.5-2.17 3.55-2.235 1.052-.066 12.306.831 12.306.831s3.152.791 3.788 3.65c.8 3.576 1.444 7.103 1.444 7.103l-5.64 1.219-.658-1.678-10.598 2.366-2.587-3.829-4.426-.294Z" fill="#E0E0E0"/><path d="m58.96 58.124-.268-9.579.209-12.008-4.4-1.935-.494-1.898-5.13 2.425-1.075-1.187-.45 1.337-1.124.368-2.212 4.357-.096 7.65s-.536 9.017-.22 11.42c0 0 .83 1.375 3.38 1.436 5.168.124 11.88-2.392 11.88-2.392" fill="#E0E0E0"/><path d="M54.496 45.018c0 .02-.26 0-.675-.03l-1.616-.135-1.617-.12c-.415-.032-.67-.057-.67-.077a3.05 3.05 0 0 1 .674-.027c.416 0 .991.028 1.625.08.633.05 1.204.116 1.616.176.412.06.664.112.663.133Zm-.072.786c0 .02-.26 0-.674-.029l-1.616-.134-1.618-.121c-.415-.032-.67-.056-.67-.078a3.05 3.05 0 0 1 .674-.026c.416 0 .992.03 1.625.079.634.05 1.205.117 1.616.177.226.02.448.064.663.133Zm-.071.787c0 .02-.26 0-.675-.029l-1.616-.134-1.618-.121c-.414-.03-.67-.056-.67-.076 0-.02.259-.032.675-.028.416.004.991.03 1.625.079.633.05 1.204.117 1.616.178.225.018.448.063.663.131Zm-.072.787c0 .02-.26 0-.674-.029l-1.616-.134-1.621-.121c-.415-.031-.67-.056-.67-.076 0-.02.258-.032.674-.026a26.07 26.07 0 0 1 3.242.255c.226.018.45.062.665.131Z" fill="#fff"/><path d="M47.075 60.76a.227.227 0 0 1-.01-.06c0-.05-.008-.11-.014-.183a84.194 84.194 0 0 0-.04-.704l-.113-2.585c-.082-2.19-.185-5.205-.146-8.544.02-1.67.076-3.263.237-4.706.16-1.442.413-2.72.636-3.796.224-1.076.438-1.928.584-2.523.072-.292.13-.514.17-.681l.05-.177a.202.202 0 0 1 .021-.06.386.386 0 0 1 0 .063l-.035.18c-.036.169-.086.398-.146.688-.128.598-.321 1.46-.536 2.53a42.866 42.866 0 0 0-.606 3.786c-.157 1.434-.204 3.026-.225 4.691-.035 3.335.054 6.354.111 8.54l.07 2.587c.008.292.012.532.015.705v.183a.177.177 0 0 1-.023.067Zm3.307-18.785c.097-.004.195 0 .292.009l.867.052 3.164.216h.06v.06l-.382 5.06v.033l-.026.019a9.147 9.147 0 0 1-.473.322c-.287.188-.583.36-.889.516a2.61 2.61 0 0 1-.965.31 1.927 1.927 0 0 1-.956-.221 4.2 4.2 0 0 1-.774-.517 9.601 9.601 0 0 1-.334-.292.615.615 0 0 1-.147-.181.94.94 0 0 1-.084-.213 3.3 3.3 0 0 1-.078-.834c.015-.495.06-.988.133-1.477.132-.897.292-1.607.399-2.104.055-.247.104-.438.137-.565a1.06 1.06 0 0 1 .062-.195 1.241 1.241 0 0 1-.033.2c-.027.146-.065.335-.11.571-.095.495-.234 1.214-.351 2.107-.068.484-.106.972-.115 1.46-.008.269.02.537.08.799.029.129.1.245.2.331.105.098.216.193.331.292a4 4 0 0 0 .75.497c.272.143.578.214.886.204.318-.038.627-.137.908-.292a11.118 11.118 0 0 0 1.343-.826l-.03.054c.145-1.874.291-3.608.407-5.056l.055.064-3.124-.275-.876-.083-.234-.026a.373.373 0 0 1-.093-.02Z" fill="#263238"/><path d="M54.007 32.704s-.574.166-2.044.952c-1.443.77-3.084 1.473-3.084 1.473l.126 2.317 5.453-2.74m-6.656-.764 1.074 1.187-.573 2.484-.958-2.244" fill="#E0E0E0"/><path d="M54.673 43.623c0 .041-1.03-.007-2.293-.105-1.263-.098-2.285-.211-2.282-.25.003-.04 1.03 0 2.293.104 1.263.105 2.285.212 2.282.251Z" fill="#263238"/><path d="M49.88 47.35c.246.407.477.964.814 1.3a2 2 0 0 0 1.25.623c.422.008.836-.116 1.185-.353.574-.36.928-.924 1.183-1.55.037-.047-.82.525-1.286.773a2.093 2.093 0 0 1-1.314.282c-.69-.055-1.307-.623-1.83-1.076m-1.025-11.963c-.048.035-.346 2.866-.346 2.866l5.472-3.307-4.981 2.501-.145-2.06Z" fill="#000" opacity=".3"/><path d="M47.922 38.147a80.602 80.602 0 0 0-1.831 11.947c-.21 2.792-.368 6.491-.368 6.491l1.245 1.542 1.908-1.69s-.081-7.857.018-10.488c.082-2.165-.26-7.688-.26-7.688l-.712-.114Z" fill="#407BFF"/><path d="M57.596 41.64c.023.074.04.148.05.224.028.16.066.367.112.615l.349 2.03c.135.785.255 1.512.333 2.033.039.26.068.471.087.617.014.076.02.153.022.23a1.236 1.236 0 0 1-.051-.225c-.03-.158-.066-.365-.111-.613l-.356-2.03a74.697 74.697 0 0 1-.413-2.651 1.259 1.259 0 0 1-.022-.23Zm1.626-4.768c.009.01-.146.133-.37.36a4.504 4.504 0 0 0-1.167 2.159c-.068.31-.084.508-.097.508a.464.464 0 0 1 0-.146c.007-.127.022-.253.045-.378a4.062 4.062 0 0 1 1.176-2.186c.091-.089.189-.171.292-.247a.487.487 0 0 1 .12-.07Z" fill="#263238"/><path d="m48.894 36.237-.49-.191-.462.796-.083 1.305.652.105.49-.806-.107-1.209Z" fill="#407BFF"/><path d="M43.609 40.12c.02 0 .038 3.213.038 7.184s-.018 7.185-.038 7.185-.038-3.212-.038-7.185c0-3.973.016-7.183.038-7.183Zm5.32-5.011c.009.007-.107.182-.279.473-.227.378-.434.768-.622 1.168l-.05.11-.036.075-.035-.073a8.983 8.983 0 0 1-.558-1.515.4.4 0 0 1-.024-.135c.01 0 .068.181.175.476.106.295.265.701.476 1.14h-.069l.053-.112a9.81 9.81 0 0 1 .643-1.168 5.46 5.46 0 0 1 .23-.33.538.538 0 0 1 .096-.11Zm5.571-.507a.416.416 0 0 1-.076.045l-.22.116-.816.423c-.688.358-1.631.867-2.675 1.425a78.39 78.39 0 0 1-1.762.915l-.048.025v-.054c0-.68-.012-1.252-.016-1.667v-.469a.952.952 0 0 1 .007-.168c.009.055.013.111.013.167 0 .118.01.276.018.47l.043 1.666-.048-.03c.521-.267 1.121-.583 1.752-.922 1.044-.558 1.992-1.06 2.687-1.406.347-.174.63-.31.827-.402l.228-.102a.443.443 0 0 1 .086-.032Zm-10.23 1.783c.01 0-.075.146-.186.4-.143.322-.249.66-.314 1.007-.061.347-.083.7-.065 1.053.016.27.043.438.032.438a.368.368 0 0 1-.035-.116 2.766 2.766 0 0 1-.05-.32 3.825 3.825 0 0 1 .384-2.092c.047-.098.1-.193.16-.283a.375.375 0 0 1 .074-.087Zm4.123 1.95c-.012.02-.136-.04-.278-.13-.141-.09-.248-.176-.236-.194.011-.017.136.041.277.13.142.09.248.177.237.194Z" fill="#263238"/><path d="M48.627 38.017a3.55 3.55 0 0 1-.333-.661 3.6 3.6 0 0 1-.261-.691c.132.209.243.43.33.661.111.221.2.453.264.691Zm13.695 13.17a.117.117 0 0 1-.02-.033l-.052-.1c-.022-.04-.05-.098-.082-.161s-.086-.132-.138-.209a7.545 7.545 0 0 0-1.095-1.19c-.511-.469-1.158-.997-1.887-1.606-.362-.305-.747-.623-1.133-.98-.409-.364-.79-.76-1.139-1.182h.056l-2.197 2.308c-.101.105-.202.209-.292.307v-.049c.83 1.215 1.587 2.39 2.38 3.376.374.468.773.913 1.197 1.336a9.78 9.78 0 0 0 1.168 1.035c.759.574 1.521.82 2.051.806h.188l.162-.017.146-.015.114-.026.155-.034.053-.009a.27.27 0 0 1-.051.016l-.154.041-.114.03-.146.018-.163.02h-.19c-.536.024-1.314-.22-2.083-.792a9.832 9.832 0 0 1-1.168-1.034 15.928 15.928 0 0 1-1.205-1.335c-.8-.987-1.56-2.164-2.39-3.377l-.017-.025.021-.022.292-.307 2.19-2.293.03-.031.026.033c.345.421.722.816 1.127 1.18.384.355.768.676 1.129.981.73.606 1.37 1.14 1.876 1.615.406.361.77.767 1.084 1.21.052.08.095.146.135.212l.077.168.045.102.014.034Z" fill="#263238"/><path d="M51.718 49.576a.5.5 0 0 0-.17-.32c-.18-.118-.409.038-.594.146-.49.292-1.093.282-1.663.257a41.785 41.785 0 0 1-5.122-.486c-.827-.139-1.664-.32-2.404-.717-.74-.397-1.387-1.035-1.625-1.841l-.397-.215c.308.656.276 2.51.385 3.224.11.714.428 1.225 1.116 1.447.282.072.574.093.864.061 2.822-.146 5.67-.013 8.491-.146.405-.02.876-.076 1.088-.416.182-.29.11-.664.03-.994Z" fill="#000" opacity=".3"/><path d="M53.499 43.17s-1.338-1.53-1.577-1.361c-.24.169-.584.26-.253.876.332.614.89.967.996 1.494.105.528-.013 1.798.575 2.228.589.431 1.408 1.55 1.408 1.55l2.044-2.132-.81-.609s.49-1.22.486-1.858c-.005-.639-.438-1.436-.438-1.436a1.496 1.496 0 0 0-.438-.832 6.598 6.598 0 0 0-.162-.813c-.11-.404-1.576-1.818-1.576-1.818a.627.627 0 0 0-.165.854c.201.326.425.638.67.932l-1.338-.16a.703.703 0 0 0 .565.86c.737.189.91.459.91.459l-.912.302s.042.539.438.552l.399.012-.822.9Z" fill="#F2F2F2"/><path d="m53.846 42.254.885-.03h.019l.009.01c.175.202.296.445.35.706a1.41 1.41 0 0 1-.18.926c-.195.281-.43.53-.7.74a2.19 2.19 0 0 0-.524.617 1.023 1.023 0 0 0-.117.526c.009.13.04.197.033.2-.007.003-.01-.016-.024-.048a.595.595 0 0 1-.038-.146.992.992 0 0 1 .097-.552c.132-.247.31-.467.526-.645a3.43 3.43 0 0 0 .68-.73c.156-.264.218-.573.177-.876a1.52 1.52 0 0 0-.324-.68l.023.01c-.552.004-.893-.008-.892-.028Zm1.866-.352c-.012 0-.05-.072-.136-.175a.876.876 0 0 0-.438-.272 1.753 1.753 0 0 0-.522-.05.838.838 0 0 1-.225 0 .584.584 0 0 1 .22-.053c.183-.026.37-.016.548.03a.93.93 0 0 1 .279.133c.068.05.127.11.175.18.051.058.086.13.1.207Zm-.365-1.003c-.016.016-.215-.184-.51-.356-.294-.172-.566-.251-.56-.273a1.606 1.606 0 0 1 1.07.629Z" fill="#5E483F"/><path d="m39.001 42.924 1.76 6.646a.826.826 0 0 0 .814.614l9.109-.18a.827.827 0 0 0 .793-.995l-1.342-6.365a.826.826 0 0 0-.809-.656h-9.604a.747.747 0 0 0-.721.936Z" fill="#263238"/><path d="M38.236 44.423a.666.666 0 0 1 0-.825 1.022 1.022 0 0 1 .781-.369c.301.001.6.063.876.181.344.132.674.297.986.492.22.139.448.318.49.574.042.255-.235.549-.461.42a1.089 1.089 0 0 1 .636.758c.049.326-.125.5-.438.593a.49.49 0 0 1 .27.619c-.115.244-.45.31-.702.215a1.636 1.636 0 0 1-.613-.514c.18.31.242.676.175 1.029a2.013 2.013 0 0 1-1.314-1.618.932.932 0 0 1-.254-1.145c-.279-.086-.596-.513-.574-.805" fill="#F2F2F2"/><path d="M41.089 46.25a2.45 2.45 0 0 1-.301-.23 2.01 2.01 0 0 0-.79-.404 1.115 1.115 0 0 0-.482 0 .889.889 0 0 0-.35.177c-.092.084-.17.182-.23.292a.24.24 0 0 1 .029-.1.683.683 0 0 1 .166-.229.888.888 0 0 1 .368-.203c.169-.043.345-.046.515-.007.302.076.58.226.808.438.1.077.19.166.267.266Zm-.078-1.321a1.69 1.69 0 0 1-.363-.146 3.789 3.789 0 0 0-.389-.17c-.162-.056-.33-.1-.499-.13a1.402 1.402 0 0 0-.505 0 .916.916 0 0 0-.375.162.95.95 0 0 0-.245.292s0-.04.029-.103a.652.652 0 0 1 .182-.232.913.913 0 0 1 .394-.189c.176-.034.357-.034.533 0 .174.03.346.077.511.139.133.053.263.116.387.187.118.054.232.118.34.19Z" fill="#5E483F"/><path d="M58.813 54.12c-.073-.264.022-.265-.187-.439a16.49 16.49 0 0 1-2.11-2.22c-.648-.812-1.66-2.459-1.66-2.459l-.239-.073c.207 1.187.805 2.263 1.393 3.316.299.584.66 1.135 1.076 1.642.438.492 1.002.897 1.647 1.022a1.03 1.03 0 0 0 .08-.79Z" fill="#000" opacity=".3"/><path d="M13.667 38.662a.83.83 0 0 1 .01.146c0 .107.003.248.009.42v.304c0 .11.018.231.026.361.022.257.034.552.084.876l.067.508c.023.177.061.358.093.546.061.38.155.778.245 1.2.196.84.438 1.752.703 2.72.264.968.498 1.884.68 2.73.083.425.17.827.222 1.21.028.19.06.373.08.55.02.177.035.349.051.512.04.324.04.622.05.876 0 .13.01.251.009.362-.002.111-.009.212-.013.306l-.022.42a1.036 1.036 0 0 1-.015.146.727.727 0 0 1 0-.146v-.724c0-.111-.012-.23-.017-.36-.017-.26-.02-.554-.066-.877a63.766 63.766 0 0 0-.057-.508c-.022-.177-.057-.358-.086-.547-.054-.38-.146-.78-.23-1.203a63.76 63.76 0 0 0-.687-2.723 79.377 79.377 0 0 1-.692-2.723c-.088-.424-.18-.825-.237-1.206-.03-.19-.065-.372-.089-.55-.023-.176-.04-.347-.06-.51-.046-.324-.052-.62-.068-.876 0-.13-.016-.251-.018-.362v-.305c0-.175.008-.314.01-.42a.73.73 0 0 1 .018-.153Z" fill="#263238"/><path d="m33.743 45.658 2.066-7.348 2.542.463s-.608.694-.608 1.332c0 .638-.424 6.651-.424 6.651s-2.527.742-3.55-.969" fill="#FFBE9D"/><path d="M35.81 38.31s-.284-.766-.06-1.429c.223-.663.986-1.177.938-1.575-.048-.399.358-1.352.73-1.278.373.075.634.438.326 1.049-.198.4-.36.818-.488 1.246 0 0 3.796-1.978 4.107-2.02.311-.043.62-.086.701.162.08.248-.677.563-.677.563l-1.022 1.328c-.17.506-.408.986-.709 1.427-.438.593-1.3.99-1.3.99l-1.107 1.332s-1.683-.572-1.44-1.794Z" fill="#FFBE9D"/><path d="M41.318 35.08s-.034-.021-.093-.05a.455.455 0 0 0-.27-.032 1.51 1.51 0 0 0-.764.518c-.203.248-.375.52-.513.809a1.663 1.663 0 0 1-.198.352c.026-.134.07-.263.131-.384.122-.306.291-.591.501-.846.254-.292.566-.493.834-.522a.446.446 0 0 1 .299.07c.058.045.073.083.073.086Zm-1.394.499c.014.024-.231.19-.546.372-.316.181-.584.308-.599.283-.015-.025.23-.193.546-.374.317-.18.584-.308.599-.281Zm-2.012.852c-.013-.024.292-.125.638 0 .346.126.53.379.505.39-.025.012-.218-.187-.539-.292-.321-.105-.6-.067-.604-.098Z" fill="#EB996E"/><path d="M29.98 46.083c-.02.11 2.876 4.017 3.815 4.75 2.303 1.797 3.997-.634 3.828-2.691-.17-2.057-6.154-11.725-6.154-11.725l-1.938 4.565.449 5.101Z" fill="#407BFF"/><path d="m14.828 35.382 5.265-1.237.496-.84 5.28.085 1.227 1.313 3.519 1.728-2.954 12.4-9.91.51-2.923-13.96Z" fill="#263238"/><path d="m20.852 33.142-1.97 1.222-4.136.9 1.314 16.619s-3.88 7.552-4.473 14.11H22.03s.989-8.342.885-11.68c-.104-3.34-.04-9.199-.04-9.199L20.183 35.04l.67-1.898Z" fill="#407BFF"/><path d="m26.238 34.373-.368-1.135 1.375 1.384s.815.284.99.348c1.368.51 3.234 1.447 3.234 1.447l-2.336 14.77s3.133 8.34 2.878 14.805c0 0-7.155.118-9.98 0l.764-21.207s2.482-2.93 2.895-5.879c.413-2.95.548-4.533.548-4.533Z" fill="#407BFF"/><path d="M22.668 47.121a.735.735 0 0 1-.092-.09l-.25-.27-.921-1.022-3.111-3.504-.02-.022.008-.028.495-1.782.219-.789.05.069-2.065-.079h-.07l.025-.066 1.383-3.724c.17-.45.308-.809.407-1.068.045-.116.083-.21.11-.283a.479.479 0 0 1 .046-.096.593.593 0 0 1-.03.102l-.095.292-.379 1.078c-.335.93-.803 2.226-1.347 3.739l-.045-.069 2.064.073h.069l-.02.066c-.07.258-.145.522-.218.788l-.497 1.781-.011-.048 3.089 3.529c.375.438.679.79.896 1.041l.237.283c.028.03.052.064.073.1Z" fill="#263238"/><path d="M22.046 65.992c-.03 0 .108-4.787.308-10.689.2-5.9.385-10.687.415-10.685.029.001-.108 4.786-.307 10.688-.199 5.903-.385 10.686-.416 10.686Z" fill="#263238"/><path d="M27.232 34.567a.743.743 0 0 1 .023.118l.05.345c.04.31.098.744.17 1.282l.54 4.38.008.07-.07-.012-1.145-.197.06-.076.218.488.43.96.012.031-.022.026-3.172 3.68-.95 1.083c-.107.12-.194.216-.26.292-.068.076-.453.36-.456.359-.003-.002.385-.302.438-.372l.254-.304.925-1.105 3.145-3.703-.008.057-.43-.96-.217-.488-.042-.092.1.017 1.145.199-.063.058-.504-4.38c-.056-.54-.103-.975-.137-1.287a37.33 37.33 0 0 0-.032-.345.512.512 0 0 1-.01-.124Zm-5.843 24.672c-.21-.278-.635-.45-.853-.178h.008a.668.668 0 0 0-.227.73.646.646 0 0 0 .859.35.621.621 0 0 0 .213-.901Zm.326-5.616c-.21-.277-.637-.45-.855-.177h.01a.665.665 0 0 0-.227.73.645.645 0 0 0 .857.35.624.624 0 0 0 .215-.903Z" fill="#263238"/><path d="M16.983 39.554c.035.113.776.227.906.539.13.312.066.67-.026.997-.092.327-.212.654-.188.993.04.606.518 1.079.966 1.49 1.25 1.15 2.774 2.398 4.027 3.548-1.108-1.413-2.552-2.876-3.777-4.188a1.744 1.744 0 0 1-.438-.651c-.096-.32 0-.662.093-.98l.377-1.269c.032-.11.102-.292.118-.352a2.698 2.698 0 0 0-.464-.057s-1.102-.117-1.587-.07" fill="#000" opacity=".3"/><path d="M31.273 38.918a.482.482 0 0 1-.011.125c-.015.094-.034.212-.056.36l-.22 1.313c-.189 1.125-.438 2.653-.73 4.344-.292 1.69-.554 3.23-.76 4.338a79.814 79.814 0 0 1-.328 1.668.497.497 0 0 1-.034.123c0-.043.005-.085.013-.127l.056-.358.22-1.314.73-4.342c.285-1.696.554-3.23.76-4.337.103-.555.19-1.003.252-1.314.03-.146.056-.263.076-.355a.58.58 0 0 1 .032-.124Z" fill="#263238"/><path d="M14.819 35.249a3.69 3.69 0 0 0-1.898 1.46c-.876 1.293-2.389 13.842-2.336 14.712.052.87.818 3.078 2.847 2.787 2.03-.29 7.428-4.061 7.428-4.061l-1.857-3.598-3.942 1.857.536-6.212-.778-6.945Z" fill="#407BFF"/><path d="M26.785 52.998c-.128-.565-.828-.746-1.401-.82l-9.36-1.193-.81 2.628c.082.603.167 1.217.424 1.77.257.551.714 1.043 1.305 1.188.523.127 1.069-.027 1.584-.18l6.883-2.044c.349-.08.68-.225.975-.428.28-.203.479-.568.4-.921ZM15.263 42.145c-.113-.439-.283-.95-.711-1.117-.456-.178-.984.153-1.187.598-.203.446-.16.96-.088 1.444.248 1.682.841 3.548 1.39 5.157l1.92-.705c-.254-1.782-.882-3.633-1.324-5.377Z" fill="#000" opacity=".3"/><path d="m35.094 40.613-1.89 5.694 2.453 1.781 1.977.794c0-.01.37-2.844.276-1.854l.438-5.847-3.254-.568Z" fill="#407BFF"/><path d="M35.094 40.613a1.53 1.53 0 0 1-.045.252c-.032.162-.088.395-.162.68a25.562 25.562 0 0 1-.701 2.19 33.55 33.55 0 0 0-.721 2.19c-.08.283-.146.512-.186.672a1.44 1.44 0 0 1-.074.246c.009-.086.024-.17.045-.253.034-.162.089-.394.163-.68.147-.571.398-1.348.701-2.19.304-.843.56-1.618.722-2.19.08-.284.145-.514.185-.673.018-.083.043-.165.073-.244Zm-.616 8.576a1.635 1.635 0 0 1-.235-.302 8.203 8.203 0 0 1-.864-1.627 1.78 1.78 0 0 1-.119-.363c.066.108.122.223.168.341a14.824 14.824 0 0 0 .86 1.62c.072.105.136.216.19.33Zm-19.659-1.155a3.61 3.61 0 0 1-.597-.196 3.508 3.508 0 0 1-.584-.224c.21.02.418.071.613.153.202.06.393.15.568.267Zm.594-8.074a.439.439 0 0 1-.058-.125 4.972 4.972 0 0 1-.126-.358 8.246 8.246 0 0 1-.377-2.463c0-.16 0-.292.012-.378 0-.047.006-.093.02-.138.01 0 .01.198.023.516.03.828.156 1.65.375 2.448.082.307.143.495.131.498Z" fill="#263238"/><path d="m27.473 41.12.69.046a1.304 1.304 0 0 0-1.3-.488c.017.416.45.74.424 1.157-.039.22-.144.424-.302.584l-1.29 1.587.091.794c.527-.752 1.059-1.46 1.586-2.205.176-.218.305-.471.378-.743.058-.276-.032-.598-.277-.733Zm6.853 2.11.209-.615c-.352 1.055-1.546 1.865-1.94 2.906a2.743 2.743 0 0 0 .439 2.644c.136.167.37.328.547.206a.363.363 0 0 0 .17-.397 25.137 25.137 0 0 0-.539-1.131c-.054-.103.069-.396.232-.945.282-.97.593-1.7.882-2.669Z" fill="#000" opacity=".3"/><path d="M19.126 26.535a6.632 6.632 0 0 0 2.118 5.013l.948-2.744" fill="#263238"/><path d="M26.26 21.08c-.814-.438-1.795-.509-2.703-.328-.908.181-1.752.595-2.556 1.058-.452.26-.9.547-1.223.953-.59.743-1.168 1.962-1.23 2.91-.047.765.247 2.682.57 3.377.293.638 1.687 1.124 2.373 1.281l6.296-7.32a3.188 3.188 0 0 0-1.527-1.931Z" fill="#263238"/><path d="m27.344 22.067-1.502-.27c.825 1.965 1.048 6.457 1.52 8.534.556-.807 1.848-3.265 1.78-4.242-.07-.977-.005-4.189-1.798-4.022Z" fill="#263238"/><path d="M28.207 25.27c-.098-1.508-1.1-3.358-2.603-3.193l-3.475.886a2.58 2.58 0 0 0-1.939 2.374c0 .057-.01-.013-.009.03l.776 8.998 2.609 5.178 2.302-5.43v-1.314s1.926-.324 2.319-2.838c.197-1.25.137-3.017.02-4.691Z" fill="#FFBE9D"/><path d="M27.601 27.168a.321.321 0 0 1-.31.325.31.31 0 0 1-.334-.292.321.321 0 0 1 .31-.325.308.308 0 0 1 .334.292Zm.23-.914c-.04.042-.293-.138-.631-.136-.339.002-.602.175-.64.133-.017-.02.022-.095.133-.175a.892.892 0 0 1 .511-.16.847.847 0 0 1 .502.161c.107.082.143.158.125.177Zm-3.239.914a.321.321 0 0 1-.31.325.31.31 0 0 1-.334-.292.32.32 0 0 1 .31-.325.308.308 0 0 1 .334.292Zm-.055-.914c-.04.042-.285-.138-.631-.136-.346.001-.601.175-.64.133-.017-.02.023-.095.133-.175a.892.892 0 0 1 .511-.16c.18 0 .356.056.503.161.106.082.143.158.124.177Zm1.085 2.724c0-.02.213-.058.562-.104.089-.008.172-.026.186-.087a.437.437 0 0 0-.058-.261 118.56 118.56 0 0 1-.264-.675c-.365-.96-.63-1.752-.584-1.762.047-.01.366.752.73 1.71l.252.678a.51.51 0 0 1 .047.348.223.223 0 0 1-.146.13.6.6 0 0 1-.146.02 2.285 2.285 0 0 1-.58.003Z" fill="#263238"/><path d="M22.537 31.905s.817 1.726 3.331 1.485v-.584a6.327 6.327 0 0 1-3.331-.9Z" fill="#EB996E"/><path d="M24.427 25.001c-.033.093-.38.05-.787.1-.407.052-.73.161-.79.077-.023-.04.034-.129.167-.22a1.384 1.384 0 0 1 1.201-.136c.15.06.224.134.21.179Zm3.29.193c-.06.079-.3 0-.584 0-.285 0-.53.054-.584-.03-.024-.039.014-.118.12-.192a.854.854 0 0 1 .945.026c.097.076.126.156.103.196Z" fill="#263238"/><path d="M27.525 22.974a1.108 1.108 0 0 0-.976-.626c-.411 0-.814.117-1.16.339-1.496.864-2.265 2.953-3.744 3.848-.364.22-.837.02-1.147.311-.31.292-.51.757-.338 1.146a3.528 3.528 0 0 1-.513-.867 1.182 1.182 0 0 1 .041-.98c.129-.221.353-.39.416-.639.054-.219-.032-.447-.022-.672.025-.228.103-.448.23-.64.583-1.022 1.376-1.953 2.403-2.528a4.247 4.247 0 0 1 2.204-.57 3.25 3.25 0 0 1 2.098.832c.332.31.68.627.508 1.046Z" fill="#263238"/><path d="M20.535 27.156c-.026-.072-1.337-.545-1.355.848-.017 1.354 1.349 1.086 1.352 1.048.003-.037.003-1.896.003-1.896Z" fill="#FFBE9D"/><path d="M20.119 28.537s-.024.016-.064.034a.236.236 0 0 1-.176 0c-.146-.054-.261-.282-.265-.527a.775.775 0 0 1 .068-.336.273.273 0 0 1 .18-.18.12.12 0 0 1 .146.066c.017.038.009.064.016.067.007.003.03-.022.019-.079a.145.145 0 0 0-.053-.084.177.177 0 0 0-.13-.035.328.328 0 0 0-.248.207.806.806 0 0 0-.086.377c.007.271.146.528.339.584a.248.248 0 0 0 .216-.034c.035-.028.042-.057.038-.06Z" fill="#EB996E"/><path d="M20.002 26.461a.37.37 0 0 0 .082-.045c.05-.032.131-.076.226-.146a4.56 4.56 0 0 0 .73-.665c.32-.37.618-.757.893-1.16.334-.494.707-.96 1.117-1.392.22-.215.461-.406.722-.569.243-.15.505-.268.778-.353a3.863 3.863 0 0 1 2.394.011c.111.034.194.072.251.094a.466.466 0 0 0 .088.03 2.186 2.186 0 0 0-.33-.146 3.53 3.53 0 0 0-.966-.21 3.831 3.831 0 0 0-2.253.521 4.305 4.305 0 0 0-.73.584c-.414.434-.788.903-1.12 1.402-.271.405-.564.795-.876 1.168a5.013 5.013 0 0 1-.713.675c-.093.07-.17.116-.22.153a.602.602 0 0 0-.073.048Z" fill="#455A64"/><path d="M19.965 28.777a.269.269 0 1 0 .063.02" fill="#fff"/><path d="M20.028 28.797c.058.046.1.11.121.181a.231.231 0 0 1-.052.213.237.237 0 0 1-.416-.133.229.229 0 0 1 .08-.204.355.355 0 0 1 .204-.077s-.021-.015-.064-.015a.282.282 0 0 0-.215.461.292.292 0 0 0 .514-.118.269.269 0 0 0-.008-.139.281.281 0 0 0-.104-.146c-.035-.023-.058-.027-.06-.023Zm.308-1.952c-.02.37-.038.76.133 1.088.17.328.602.553.923.369.263-.146.341-.486.385-.785.129-.862.187-1.733.323-2.595l-1.764 1.923Z" fill="#263238"/><path d="M24.769 29.638a.668.668 0 0 0 .334 1.047c.082.027.17.027.253 0a.564.564 0 0 0 .268-.35l.146-.35a.119.119 0 0 0 .01-.127.118.118 0 0 0-.11-.062l-.869-.21" fill="#EB996E"/><path d="M25.337 30.645a.775.775 0 0 1-.394-.05.618.618 0 0 1-.346-.281.466.466 0 0 1-.054-.269.801.801 0 0 1 .07-.277.71.71 0 0 1 .162-.226l.023-.02.03.01c.575.202 1.021.305 1.021.33 0 .024-.467-.038-1.054-.234l.051-.012a.656.656 0 0 0-.138.196.559.559 0 0 0-.025.458.57.57 0 0 0 .292.257c.21.088.366.1.362.118Z" fill="#263238"/><path d="M27.191 22.338c0 .007-.118-.023-.336-.03a2.305 2.305 0 0 0-.896.164 2.894 2.894 0 0 0-.56.292c-.204.134-.4.28-.585.438a7.058 7.058 0 0 0-1.133 1.222c-.172.243-.324.49-.489.72a3.38 3.38 0 0 1-.543.61c-.35.298-.734.555-1.143.765-.346.184-.637.311-.835.4l-.231.091a.39.39 0 0 1-.083.03.43.43 0 0 1 .077-.045l.225-.11c.196-.098.482-.233.822-.421a6.204 6.204 0 0 0 1.124-.77c.2-.18.377-.382.529-.602.162-.227.314-.476.487-.72a6.827 6.827 0 0 1 1.733-1.669c.184-.119.38-.217.584-.292.292-.112.604-.162.916-.146.084.005.167.017.25.035.03.008.06.02.087.038Zm-6.897 3.67a.65.65 0 0 1-.12.08l-.343.202-.115.067a.366.366 0 0 1-.146.049.146.146 0 0 1-.092-.022.113.113 0 0 1-.05-.09.301.301 0 0 1 .064-.17l.398-.637.054.05a1.433 1.433 0 0 1-.923.274.42.42 0 0 1-.123-.022.163.163 0 0 1-.105-.092.145.145 0 0 1 .024-.135.549.549 0 0 1 .075-.085c.18-.174.334-.37.462-.584.111-.2.209-.41.292-.623a.727.727 0 0 1-.043.18 2.728 2.728 0 0 1-.663 1.073c-.05.049-.1.104-.08.147.02.042.092.063.164.064.313.016.622-.076.876-.26l.16-.118-.108.168-.405.632a.264.264 0 0 0-.058.131c0 .04.034.062.078.059a.687.687 0 0 0 .244-.101l.353-.181a.597.597 0 0 1 .13-.056Z" fill="#455A64"/><path d="M13.55 41.756 16.012 54.7a.953.953 0 0 0 1.117.758l9.453-1.82a.954.954 0 0 0 .756-1.12l-2.604-13.17a.956.956 0 0 0-1.14-.747l-9.31 2.044a.955.955 0 0 0-.734 1.112Z" fill="#E0E0E0"/><path d="m19.856 46.533.787-.39s.255-1.349.67-1.825c.415-.476 1.022-1.022 1.022-1.152 0-.13.193-1.022.193-1.022s.366-.32.438.32a4.68 4.68 0 0 1 0 1.119l2.461-.614c.256-.064.576-.04.543.216-.032.256-.169.389-.365.548a.825.825 0 0 1-.235.137s.41.378.41.75c0 .37.421 1.231.039 1.646-.383.415-2.14 1.661-3.066 1.82-.926.16-1.154.439-1.583.985l-1.314-2.538Z" fill="#FFBE9D"/><path d="M23.169 43.539c.01.02-.282.19-.612.445-.33.254-.572.487-.584.473.318-.4.731-.717 1.201-.918h-.005Zm2.345.261a2.11 2.11 0 0 1-.592.242c-.199.074-.404.13-.613.168.184-.11.383-.19.591-.24.2-.073.405-.13.614-.17Z" fill="#EB996E"/><path d="m14.368 48.38 5.42-2.298 2.035 4.054-7.455 3.802V48.38Z" fill="#407BFF"/><path d="M19.685 46.208c.009.02-1.46.623-3.272 1.349-1.812.725-3.292 1.296-3.3 1.277-.007-.019 1.46-.623 3.273-1.349 1.811-.726 3.292-1.297 3.3-1.277Z" fill="#263238"/><path d="M14.726 48.13a10.41 10.41 0 0 0-1.926.584 2.55 2.55 0 0 0-.714.398 1.038 1.038 0 0 0-.384.7c.178-.076.345-.174.5-.292.615-.617 1.677-.977 2.576-1.314l-.052-.076Z" fill="#000" opacity=".3"/></svg>