<svg xmlns="http://www.w3.org/2000/svg" width="53" height="53" fill="none"><path fill="#EBEBEB" d="M53 40.534H0v.027h53v-.027ZM47.69 42.24h-3.511v.026h3.51v-.026ZM42.844 42.24h-7.506v.026h7.506v-.026ZM31.199 41.256h-2.034v.027h2.034v-.027ZM9.195 41.434H5.561v.027h3.634v-.027ZM16.748 41.434h-6.61v.027h6.61v-.027ZM23.865 41.882h-3.902v.026h3.902v-.026ZM25.122 35.807H4.654a.605.605 0 0 1-.604-.605V6.43a.605.605 0 0 1 .604-.6h20.468a.606.606 0 0 1 .605.605v28.767a.605.605 0 0 1-.605.605ZM4.654 5.85a.579.579 0 0 0-.577.579v28.772a.579.579 0 0 0 .577.578h20.468a.58.58 0 0 0 .579-.578V6.43a.58.58 0 0 0-.579-.579H4.654ZM48.05 35.807H27.583a.606.606 0 0 1-.605-.605V6.43a.606.606 0 0 1 .605-.6h20.469a.605.605 0 0 1 .603.6v28.772a.606.606 0 0 1-.603.605ZM27.583 5.85a.58.58 0 0 0-.579.579v28.772a.58.58 0 0 0 .58.578H48.05a.58.58 0 0 0 .579-.578V6.43a.58.58 0 0 0-.58-.579H27.583Z"/><path fill="#F0F0F0" d="M35.72 39.939h1.963V25.674h-1.962V39.94Z"/><path fill="#F0F0F0" d="M15.693 40.533h21.614v-.594H15.693v.594Z"/><path fill="#F5F5F5" d="M35.72 25.675H15.317V39.94H35.72V25.675Z"/><path fill="#E6E6E6" d="M35.72 25.675h1.963v-.52h-1.962v.52Z"/><path fill="#F0F0F0" d="M35.72 25.156H15.317v.52H35.72v-.52Z"/><path fill="#E0E0E0" d="M35.016 29.977H16.022v-3.212h18.994v3.212Zm-18.863-.133h18.732v-2.946H16.153v2.946ZM35.016 38.849H16.022v-8.085h18.994v8.085Zm-18.863-.131h18.732v-7.822H16.153v7.822Z"/><path fill="#E0E0E0" d="M18.58 27.254h13.877v-.422H18.581v.422ZM18.58 31.252h13.877v-.422H18.581v.422Z"/><path fill="#F5F5F5" d="M44.615 40.156a.158.158 0 0 1-.157-.158V15.504a.157.157 0 0 1 .314 0v24.494a.158.158 0 0 1-.157.158Z"/><path fill="#F0F0F0" d="M44.3 39.777h.636a.43.43 0 0 1 .43.43v.326h-1.497v-.326a.43.43 0 0 1 .43-.43Z"/><path fill="#E0E0E0" d="M41.567 18.762s.077-2.998 3.048-2.998c2.972 0 3.05 2.998 3.05 2.998h-6.098Z"/><path fill="#F5F5F5" d="M8.385 40.156a.158.158 0 0 1-.158-.158V15.504a.158.158 0 0 1 .269-.111c.029.03.045.069.045.11v24.495a.158.158 0 0 1-.156.158Z"/><path fill="#F0F0F0" d="M8.069 39.777h.636a.43.43 0 0 1 .43.43v.326H7.638v-.326a.43.43 0 0 1 .43-.43Z"/><path fill="#E0E0E0" d="M5.335 18.762s.077-2.998 3.05-2.998c2.972 0 3.048 2.998 3.048 2.998H5.335ZM30.321 24.931h-7.54v.225h7.54v-.225ZM30.321 24.931h-7.54l.725-4.317h7.54l-.725 4.317Z"/><path fill="#EBEBEB" d="M30.181 24.931h-7.54l.725-4.317h7.54l-.725 4.317Z"/><path fill="#FAFAFA" d="m22.927 24.592.617-3.67a.095.095 0 0 1 .095-.081h6.89a.096.096 0 0 1 .096.112l-.617 3.671a.097.097 0 0 1-.096.082h-6.89a.096.096 0 0 1-.095-.114Z"/><path fill="#F0F0F0" d="M28.615 24.931h-7.541v.225h7.54v-.225Z"/><path fill="#EBEBEB" d="M36.346 9.303H16.367v6.457h19.98V9.303Z"/><path fill="#E0E0E0" d="M36.346 15.759h.287V9.302h-.287v6.457Z"/><path fill="#fff" d="M35.47 10.177H17.243v4.708H35.47v-4.708Z"/><path fill="#F5F5F5" d="m27.454 12.53-1.097-1.096-1.098 1.097 1.098 1.097 1.097-1.097ZM24.508 12.53l-1.097-1.096-1.097 1.097 1.097 1.097 1.097-1.097ZM21.562 12.53l-1.097-1.096-1.097 1.097 1.097 1.097 1.097-1.097ZM30.4 12.531l-1.098-1.097-1.097 1.097 1.098 1.098L30.4 12.53ZM33.346 12.531l-1.098-1.097-1.097 1.097 1.097 1.098 1.098-1.098Z"/><path fill="#407BFF" d="M38.472 13.043a.885.885 0 0 0-.893-.954H22.906a1.036 1.036 0 0 0-1.02.954l-.336 5.083-2.113 15.625a.814.814 0 0 0 .826.954h14.675a1.128 1.128 0 0 0 1.084-.954l2.113-15.625.337-5.083Z"/><path fill="#000" d="M38.472 13.043a.885.885 0 0 0-.893-.954H22.906a1.036 1.036 0 0 0-1.02.954l-.336 5.083-2.113 15.625a.814.814 0 0 0 .826.954h14.675a1.128 1.128 0 0 0 1.084-.954l2.113-15.625.337-5.083Z" opacity=".2"/><path fill="#407BFF" d="M34.415 34.706H19.74a.818.818 0 0 1-.825-.954l2.112-15.626h16.585l-2.113 15.625a1.128 1.128 0 0 1-1.084.956ZM25.087 11.716h-2.186v.106h2.186v-.106ZM21.868 11.935l-.045-.096a1.34 1.34 0 0 1 .56-.123v.106a1.23 1.23 0 0 0-.515.114ZM37.058 12.084H22.383a1.037 1.037 0 0 0-1.019.954l-.337 5.088h16.585l.336-5.083a.882.882 0 0 0-.89-.96Z"/><path fill="#fff" d="m21.847 16.881.235-3.554a.546.546 0 0 1 .536-.502h14.106a.463.463 0 0 1 .47.502l-.236 3.554a.547.547 0 0 1-.536.503H22.316a.465.465 0 0 1-.47-.503Z" opacity=".9"/><g fill="#407BFF" opacity=".4"><path d="m35.707 13.407-.16.15a.041.041 0 0 1-.03.01h-.848a.041.041 0 0 1-.032-.014l-.137-.147a.043.043 0 0 1 .032-.073h1.148a.042.042 0 0 1 .027.074ZM35.483 16.162h-1.148a.043.043 0 0 1-.03-.076l.159-.148a.046.046 0 0 1 .03-.012h.848a.04.04 0 0 1 .031.015l.14.149a.044.044 0 0 1 .007.045.043.043 0 0 1-.038.027ZM35.594 14.776l-.082.078a.045.045 0 0 1-.03.011h-.995a.044.044 0 0 1-.031-.014.043.043 0 0 1-.011-.032l.01-.15a.043.043 0 0 1 .044-.04h.998l.018.003.014.01.068.074a.043.043 0 0 1 .011.03.042.042 0 0 1-.014.03ZM35.73 14.858l-.084 1.148a.043.043 0 0 1-.03.037.044.044 0 0 1-.046-.012l-.136-.148a.044.044 0 0 1-.012-.033l.063-.853a.04.04 0 0 1 .013-.029l.16-.148a.044.044 0 0 1 .049-.006.043.043 0 0 1 .022.044ZM35.828 13.496l-.084 1.15a.043.043 0 0 1-.054.04.043.043 0 0 1-.021-.013l-.138-.149a.045.045 0 0 1-.01-.032l.061-.853a.045.045 0 0 1 .014-.029l.159-.15a.043.043 0 0 1 .048-.007.043.043 0 0 1 .025.043Z"/></g><path fill="#407BFF" d="M33.87 16.642a.161.161 0 0 1 .156-.147h1.802a.152.152 0 0 1 .145.101c.007.02.01.04.009.062a.16.16 0 0 1-.158.147h-1.798a.151.151 0 0 1-.157-.163ZM31.616 16.642a.161.161 0 0 1 .157-.147h1.802a.152.152 0 0 1 .153.163.161.161 0 0 1-.158.147h-1.802a.15.15 0 0 1-.152-.163ZM29.362 16.642a.161.161 0 0 1 .157-.147h1.802a.152.152 0 0 1 .152.163.16.16 0 0 1-.157.147h-1.802a.15.15 0 0 1-.152-.163ZM27.108 16.642a.161.161 0 0 1 .157-.147h1.802a.152.152 0 0 1 .153.163.16.16 0 0 1-.158.147H27.26a.15.15 0 0 1-.152-.163Z" opacity=".4"/><path fill="#263238" d="m22.132 25.373.663-4.905a.694.694 0 0 1 .668-.588h4.905a.5.5 0 0 1 .509.588l-.664 4.905a.693.693 0 0 1-.667.588h-4.905a.504.504 0 0 1-.51-.588ZM29.12 25.373l.666-4.905a.695.695 0 0 1 .668-.588h4.904a.503.503 0 0 1 .51.588l-.663 4.905a.695.695 0 0 1-.668.588h-4.91a.5.5 0 0 1-.508-.588ZM21.187 32.36l.664-4.906a.695.695 0 0 1 .668-.588h4.904a.5.5 0 0 1 .51.588l-.665 4.906a.694.694 0 0 1-.666.587h-4.906a.502.502 0 0 1-.509-.586ZM28.175 32.36l.662-4.906a.695.695 0 0 1 .668-.588h4.905a.5.5 0 0 1 .509.588l-.663 4.906a.696.696 0 0 1-.668.587h-4.905a.502.502 0 0 1-.508-.586Z" opacity=".1"/><path fill="#407BFF" d="m21.805 25.373.667-4.905a.694.694 0 0 1 .668-.588h4.904a.5.5 0 0 1 .51.588l-.664 4.905a.693.693 0 0 1-.667.588h-4.909a.504.504 0 0 1-.509-.588Z"/><path fill="#fff" d="m21.805 25.373.667-4.905a.694.694 0 0 1 .668-.588h4.904a.5.5 0 0 1 .51.588l-.664 4.905a.693.693 0 0 1-.667.588h-4.909a.504.504 0 0 1-.509-.588Z" opacity=".2"/><path fill="#407BFF" d="m28.793 25.373.662-4.905a.695.695 0 0 1 .668-.588h4.905a.503.503 0 0 1 .508.588l-.662 4.905a.696.696 0 0 1-.668.588H29.3a.501.501 0 0 1-.507-.588Z"/><path fill="#fff" d="m28.793 25.373.662-4.905a.695.695 0 0 1 .668-.588h4.905a.503.503 0 0 1 .508.588l-.662 4.905a.696.696 0 0 1-.668.588H29.3a.501.501 0 0 1-.507-.588Z" opacity=".2"/><path fill="#407BFF" d="m20.86 32.36.664-4.906a.695.695 0 0 1 .668-.588h4.905a.5.5 0 0 1 .509.588l-.664 4.906a.692.692 0 0 1-.667.587H21.37a.502.502 0 0 1-.51-.586Z"/><path fill="#fff" d="m20.86 32.36.664-4.906a.695.695 0 0 1 .668-.588h4.905a.5.5 0 0 1 .509.588l-.664 4.906a.692.692 0 0 1-.667.587H21.37a.502.502 0 0 1-.51-.586Z" opacity=".2"/><path fill="#407BFF" d="m27.848 32.36.666-4.906a.696.696 0 0 1 .668-.588h4.904a.5.5 0 0 1 .51.588l-.663 4.906a.696.696 0 0 1-.668.587h-4.909a.502.502 0 0 1-.508-.586Z"/><path fill="#fff" d="m27.848 32.36.666-4.906a.696.696 0 0 1 .668-.588h4.904a.5.5 0 0 1 .51.588l-.663 4.906a.696.696 0 0 1-.668.587h-4.909a.502.502 0 0 1-.508-.586Z" opacity=".2"/><path fill="#fff" d="M24.902 24.962a.506.506 0 0 1-.51-.588l.394-2.905a.698.698 0 0 1 .668-.59.504.504 0 0 1 .509.59l-.393 2.905a.697.697 0 0 1-.668.588Z"/><path fill="#fff" d="M23.137 22.921a.699.699 0 0 1 .668-.59h2.907a.504.504 0 0 1 .509.59.698.698 0 0 1-.668.589h-2.904a.506.506 0 0 1-.512-.589ZM22.595 31.35c-.198-.229-.147-.603.112-.832l2.332-2.054c.26-.229.636-.229.832 0 .199.229.148.604-.112.833l-2.332 2.053c-.26.23-.637.23-.832 0Z"/><path fill="#fff" d="M22.985 28.464c.26-.229.636-.229.833 0l1.776 2.054c.198.23.147.603-.113.832-.26.23-.636.23-.832 0l-1.776-2.053c-.199-.229-.148-.604.112-.833ZM30.123 22.921a.699.699 0 0 1 .669-.59h2.904a.504.504 0 0 1 .51.59.698.698 0 0 1-.669.589h-2.903a.504.504 0 0 1-.51-.589ZM29.303 28.992a.697.697 0 0 1 .668-.588h2.905a.505.505 0 0 1 .509.588.697.697 0 0 1-.668.59h-2.905a.506.506 0 0 1-.51-.59ZM29.056 30.823a.697.697 0 0 1 .668-.589h2.904a.505.505 0 0 1 .51.589.698.698 0 0 1-.67.589h-2.904a.502.502 0 0 1-.508-.59Z"/><path fill="#FF8B7B" d="M14.136 19.048c-.19.354-.387.736-.566 1.109-.179.373-.352.754-.5 1.134-.04.096-.071.191-.106.286a.496.496 0 0 0-.032.153c-.004.15.024.3.082.439.151.357.353.69.599.99l-.362.424a3.122 3.122 0 0 1-.29-.212 3.08 3.08 0 0 1-.266-.234 2.955 2.955 0 0 1-.466-.575 1.879 1.879 0 0 1-.277-.797 1.417 1.417 0 0 1 .039-.486c.03-.107.057-.223.09-.332a11.684 11.684 0 0 1 .757-1.878c.104-.2.202-.393.325-.596l.973.575Z"/><path fill="#FF8B7B" d="m13.462 23.037.53.14-.394.766s-.395-.15-.492-.497l.356-.41ZM14.723 23.418l-.475.602-.65-.077.395-.766.73.241Z"/><path fill="#263238" d="M16.636 15.005c.011.06.053.1.09.093.039-.007.061-.062.049-.12-.013-.059-.053-.106-.092-.094-.038.013-.06.062-.047.121Z"/><path fill="#FF5652" d="M16.683 15.107c.107.166.236.317.384.448a.349.349 0 0 1-.271.106l-.113-.554Z"/><path fill="#263238" d="M16.763 15.508c-.173 0-.345-.189-.397-.448a.676.676 0 0 1 .025-.379.273.273 0 0 1 .482-.099.728.728 0 0 1 .146.72.301.301 0 0 1-.212.202.23.23 0 0 1-.044.004Zm-.115-1.006a.2.2 0 0 0-.042 0 .274.274 0 0 0-.19.184.654.654 0 0 0-.024.365c.054.268.238.458.412.424a.271.271 0 0 0 .191-.184.701.701 0 0 0-.14-.692.296.296 0 0 0-.207-.097Z"/><path fill="#FF8B7B" d="m22.222 21.115.68-.144.087.922s-.587.113-.868-.352l.1-.426Z"/><path fill="#FF8B7B" d="m23.544 21.178-.044.673-.51.042-.089-.922.643.207Z"/><path fill="#263238" d="M16.353 14.722a.034.034 0 0 1-.032-.02.034.034 0 0 1 .008-.039.351.351 0 0 1 .3-.117.034.034 0 0 1 .024.014.034.034 0 0 1 .006.027.038.038 0 0 1-.041.03.276.276 0 0 0-.237.094.04.04 0 0 1-.013.009.04.04 0 0 1-.015.002Z"/><path fill="#FF8B7B" d="M14.999 16.078c.106.546.172 1.302-.212 1.665 0 0 .148.554 1.166.554 1.115 0 .536-.486.536-.486-.463-.144-.459-.67-.353-1.095L15 16.078Z"/><path fill="#263238" d="M16.144 17.61c.25-.18.62-.39.697-.17.047.133.066.78-.192.732-.38-.072-.505-.561-.505-.561Z"/><path fill="#407BFF" d="M14.58 18.108c-.1-.14-.095-.584.01-.663.172-.126.903-.155 1.889.072-.106.43.122.656.122.656l-2.02-.065ZM11.267 43.273a.24.24 0 0 0 .185-.01.07.07 0 0 0 .017-.082.078.078 0 0 0-.044-.052c-.106-.049-.333.046-.343.05a.017.017 0 0 0-.01.016c0 .003 0 .007.002.01a.018.018 0 0 0 .007.007c.06.026.122.047.186.061Zm.122-.12.02.008a.047.047 0 0 1 .027.03c.01.031 0 .042-.006.045-.04.034-.19 0-.294-.039a.581.581 0 0 1 .253-.043Z"/><path fill="#407BFF" d="M11.085 43.213h.009c.085-.025.265-.154.267-.237a.059.059 0 0 0-.046-.058.094.094 0 0 0-.078.007c-.1.05-.162.256-.164.266v.007c0 .002 0 .005.002.007a.016.016 0 0 0 .004.005.018.018 0 0 0 .006.003Zm.212-.264h.008c.022.008.022.018.022.023 0 .05-.12.151-.212.191a.425.425 0 0 1 .136-.212.06.06 0 0 1 .045-.002h.002ZM16.771 43.398c.097 0 .189-.013.22-.056a.07.07 0 0 0 0-.077.088.088 0 0 0-.056-.041c-.124-.034-.385.114-.396.12a.019.019 0 0 0-.01.018c.001.004.003.007.006.01a.018.018 0 0 0 .01.005c.074.014.15.021.226.021Zm.12-.145a.16.16 0 0 1 .033 0 .058.058 0 0 1 .035.025c.013.022.007.032 0 .039-.035.049-.224.05-.361.03.09-.05.19-.082.292-.094Z"/><path fill="#407BFF" d="M16.547 43.377h.007c.09-.04.268-.201.254-.286 0-.02-.017-.044-.065-.049a.13.13 0 0 0-.099.03.511.511 0 0 0-.114.294c0 .003.002.005.003.007a.018.018 0 0 0 .014.005Zm.18-.302h.011c.032 0 .034.015.035.02.009.05-.113.177-.204.233a.41.41 0 0 1 .099-.23.088.088 0 0 1 .06-.023Z"/><path fill="#FF8B7B" d="M15.726 43.36h.746l.075-1.727H15.8l-.074 1.727ZM10.255 43.015l.728.158.732-1.608-.73-.158-.73 1.608Z"/><path fill="#263238" d="m11.053 43.1-.819-.177a.066.066 0 0 0-.073.036l-.284.617a.106.106 0 0 0 .079.152c.287.056.43.07.79.148.22.048.721.17 1.026.236.306.066.412-.228.293-.282-.53-.245-.759-.46-.903-.66a.181.181 0 0 0-.11-.07ZM16.467 43.273h-.814a.065.065 0 0 0-.064.051l-.147.666a.107.107 0 0 0 .02.093.106.106 0 0 0 .086.04c.294-.005.719-.022 1.088-.022.431 0 .804.024 1.31.024.306 0 .392-.31.264-.339-.584-.127-1.06-.14-1.564-.451a.347.347 0 0 0-.179-.062Z"/><path fill="#407BFF" d="M13.454 17.914c-.699.16-1.273 1.944-1.273 1.944l1.404 1.07a3.06 3.06 0 0 0 .742-1.378c.24-.938-.159-1.801-.873-1.636Z"/><path fill="#fff" d="M13.454 17.914c-.699.16-1.273 1.944-1.273 1.944l1.404 1.07a3.06 3.06 0 0 0 .742-1.378c.24-.938-.159-1.801-.873-1.636Z" opacity=".4"/><path fill="#FF8B7B" d="m17.644 18.762 1.177 1.083c.196.18.392.36.59.536.197.175.394.352.584.504l-.165-.088c.092.034.187.067.288.093a5.176 5.176 0 0 0 .977.156c.228.02.461.032.695.038.235.007.477.012.707.013l.106.55a6.272 6.272 0 0 1-1.507.329c-.264.023-.53.027-.794.01a3.727 3.727 0 0 1-.83-.143l-.08-.023-.083-.065c-.233-.179-.44-.354-.648-.53-.208-.176-.409-.358-.61-.54a53.2 53.2 0 0 1-1.188-1.103l.78-.82Z"/><path fill="#000" d="M14.052 19.224c-.38.375-.503 1.06-.53 1.654l.063.047a3.065 3.065 0 0 0 .778-1.544l-.31-.157Z" opacity=".2"/><path fill="#407BFF" d="M17.87 18.656c.152.806.248 2.46-.196 5.736h-3.987c-.028-.612.357-3.6-.233-6.483.44-.085.887-.141 1.335-.169a14.809 14.809 0 0 1 1.696 0c.187.017.37.045.53.073a1.06 1.06 0 0 1 .854.843Z"/><path fill="#fff" d="M17.87 18.656c.152.806.248 2.46-.196 5.736h-3.987c-.028-.612.357-3.6-.233-6.483.44-.085.887-.141 1.335-.169a14.809 14.809 0 0 1 1.696 0c.187.017.37.045.53.073a1.06 1.06 0 0 1 .854.843Z" opacity=".4"/><path fill="#000" d="m17.259 19.85.72-.172c.023.436.025.977-.008 1.646-.331-.377-.755-.967-.712-1.474ZM16.547 41.633l-.039.89h-.746l.038-.89h.747ZM10.986 41.407l.73.158-.38.829-.728-.158.378-.83Z" opacity=".2"/><path fill="#FF8B7B" d="M14.644 15.28c.192.715.268 1.144.71 1.44.663.448 1.483-.065 1.514-.823.023-.682-.294-1.736-1.06-1.88a1.01 1.01 0 0 0-1.164 1.264Z"/><path fill="#263238" d="M16.266 15.335c.335-.048.238-.435.113-.624 0 0 .742-.896-.113-1.258-.856-.361-.649.203-.649.203s-.671-.504-1.254-.097c-.583.408-.08.584-.08.584s-1.06.311-.635.848c.424.536.861.482.861.482s-.878.346-.212.735c.667.39.917.406.917.406a.76.76 0 0 0 .823-.535l.229-.744Z"/><path fill="#FF8B7B" d="M15.977 15.337a.838.838 0 0 0 .212.495c.163.18.332.067.362-.15.025-.197-.028-.53-.227-.626-.2-.095-.36.06-.347.281Z"/><path fill="#263238" d="M16.26 24.395s-.848 5.697-1.31 7.832c-.51 2.337-3.237 10.07-3.237 10.07l-1.334-.29s1.908-6.302 2.332-9.57c.328-2.51.974-8.044.974-8.044l2.575.002Z"/><path fill="#407BFF" d="m12.033 41.853-.249.483-1.502-.325.127-.452 1.624.294Z"/><path fill="#000" d="M15.725 26.425c-.978.192-.874 3.84-.757 5.717.282-1.327.696-3.88.978-5.69a.334.334 0 0 0-.22-.027Z" opacity=".3"/><path fill="#263238" d="M17.674 24.395s.106 5.574.023 7.844c-.085 2.365-.91 10.108-.91 10.108h-1.264s-.046-7.606-.106-9.928c-.058-2.527-.365-8.024-.365-8.024h2.622Z"/><path fill="#407BFF" d="M17.029 41.849c.006 0-.071.523-.071.523H15.42l-.041-.467 1.649-.056ZM16.307 18.904c-.358.964 1.743 2.099 1.743 2.099l.91-1.166s-.608-1.207-1.352-1.752c-.92-.676-1.03.085-1.301.819Z"/><path fill="#fff" d="M16.307 18.904c-.358.964 1.743 2.099 1.743 2.099l.91-1.166s-.608-1.207-1.352-1.752c-.92-.676-1.03.085-1.301.819Z" opacity=".4"/><path fill="#263238" d="M22.34 21.407c.145 0 .261-.088.261-.197 0-.108-.116-.196-.26-.196-.144 0-.261.088-.261.197 0 .108.117.196.26.196Z"/><path fill="#263238" d="M22.24 21.836a.053.053 0 0 1-.041-.02.053.053 0 0 1 .006-.073c.006-.006.142-.13.084-.418a.052.052 0 0 1 .007-.04.053.053 0 0 1 .055-.022.053.053 0 0 1 .041.042c.073.353-.11.512-.118.518a.054.054 0 0 1-.034.013Z"/><path fill="#fff" d="M22.552 21.2c0 .08-.094.145-.212.145-.117 0-.212-.064-.212-.145 0-.08.095-.144.212-.144.118 0 .212.06.212.144Z" opacity=".4"/><path fill="#407BFF" d="M16.636 17.752c-.488.349-1.333 1.696-1.484 2.492a.027.027 0 0 1-.022.02c-.005.002-.01.001-.015-.001a.027.027 0 0 1-.012-.01 5.433 5.433 0 0 1-.799-2.476.024.024 0 0 0-.006-.008.025.025 0 0 0-.01-.005 3.24 3.24 0 0 0-.364.042.027.027 0 0 0-.014.01.027.027 0 0 0-.006.016 5.383 5.383 0 0 0 1.115 3.008.02.02 0 0 1 0 .017c-.065 1.192.021 3.324.032 3.577 0 .007.003.013.008.018a.026.026 0 0 0 .019.007h.318a.027.027 0 0 0 .019-.008.027.027 0 0 0 .007-.02c-.015-.243-.115-2.095 0-3.614.18-1.13 1.25-2.657 1.627-2.96a.025.025 0 0 0 .009-.011.025.025 0 0 0-.007-.028.025.025 0 0 0-.014-.006 3.939 3.939 0 0 0-.384-.061.026.026 0 0 0-.017 0Z"/></svg>