<svg xmlns="http://www.w3.org/2000/svg" fill="none" viewBox="0 0 70 70"><path d="M62.986 55.789h-4.637v.035h4.637v-.035Zm-16.615.38h-1.217v.035h1.216v-.035Zm11.838-1.68h-2.687v.035h2.687v-.035Zm-44.818.236H7.344v.035h6.047v-.035Zm2.134 0h-.887v.035h.887v-.035Zm15.996.59H18.406v.035h13.115v-.035Zm1.659-8.023H6.147a.8.8 0 0 1-.798-.8v-38a.8.8 0 0 1 .798-.792H33.18a.8.8 0 0 1 .8.8v37.992a.8.8 0 0 1-.8.8ZM6.147 7.728a.764.764 0 0 0-.763.764v38a.765.765 0 0 0 .763.765H33.18a.766.766 0 0 0 .764-.764v-38a.766.766 0 0 0-.764-.765H6.147Zm57.316 39.564H36.43a.8.8 0 0 1-.8-.8v-38a.801.801 0 0 1 .8-.792h27.034a.8.8 0 0 1 .797.792v38a.8.8 0 0 1-.797.8ZM36.43 7.728a.766.766 0 0 0-.764.764v38a.766.766 0 0 0 .764.765h27.034a.766.766 0 0 0 .765-.764v-38a.765.765 0 0 0-.765-.765H36.43ZM70 53.536H0v.035h70v-.035Z" fill="#EBEBEB"/><path d="M53.97 22.77h-1.596v1.596h1.596V22.77Z" fill="#FAFAFA"/><path d="M53.97 25.67h-1.596v1.598h1.596V25.67Zm0 2.901h-1.596v1.596h1.596v-1.596Z" fill="#F0F0F0"/><path d="M53.97 31.472h-1.596v1.596h1.596v-1.596Z" fill="#FAFAFA"/><path d="M57.063 31.472h-1.596v1.596h1.596v-1.596Zm-3.093 2.902h-1.596v1.598h1.596v-1.598Z" fill="#F0F0F0"/><path d="M57.063 34.374h-1.596v1.598h1.596v-1.598Zm3.092 0H58.56v1.598h1.596v-1.598Z" fill="#FAFAFA"/><path d="M53.97 37.275h-1.596v1.596h1.596v-1.596Z" fill="#F0F0F0"/><path d="M57.063 37.275h-1.596v1.596h1.596v-1.596Z" fill="#FAFAFA"/><path d="M60.155 37.275H58.56v1.596h1.596v-1.596Z" fill="#F0F0F0"/><path d="M53.97 40.176h-1.596v1.597h1.596v-1.597Zm3.093 0h-1.596v1.597h1.596v-1.597Z" fill="#FAFAFA"/><path d="M60.155 40.176H58.56v1.597h1.596v-1.597Zm3.094 0h-1.597v1.597h1.597v-1.597Z" fill="#F0F0F0"/><path d="M63.877 9.563H53.733v.858h10.144v-.858Z" fill="#E0E0E0"/><path d="M63.877 43.536H53.733v.858h10.144v-.858Z" fill="#EBEBEB"/><path d="M64.27 45.126H53.274v-36.4H64.27v36.4Zm-10.157-.84h9.32V9.566h-9.32v34.72Z" fill="#EBEBEB"/><path d="M52.912 9.992h-9.975v33.84h9.975V9.991Z" fill="#FAFAFA"/><path d="M52.157 33.185h-8.53v10.468h8.53V33.185Z" fill="#E6E6E6"/><path d="M51.415 34.346h-3.077v1.092h3.077v-1.092Z" fill="#E6E6E6"/><path d="M51.415 36.461h-3.077v1.092h3.077v-1.092Z" fill="#FAFAFA"/><path d="M51.415 38.577h-3.077v1.092h3.077v-1.092Z" fill="#E6E6E6"/><path d="M51.415 40.692h-3.078v1.092h3.079v-1.092Zm-3.969-6.346H44.37v1.092h3.076v-1.092Zm0 2.115H44.37v1.092h3.076v-1.092Z" fill="#FAFAFA"/><path d="M47.446 38.577H44.37v1.092h3.076v-1.092Z" fill="#E6E6E6"/><path d="M47.446 40.692H44.37v1.092h3.076v-1.092Z" fill="#FAFAFA"/><path d="M52.88 9.992h-9.975v33.84h9.975V9.991Z" fill="#fff" opacity=".1"/><path d="M51.916 9.992h-3.18l-3.48 33.84h3.181l3.48-33.84Z" fill="#fff" opacity=".3"/><path d="M52.996 9.563H42.853v.858h10.143v-.858Z" fill="#E0E0E0"/><path d="M52.996 43.536H42.853v.858h10.143v-.858Z" fill="#EBEBEB"/><path d="M53.39 45.126H42.396v-36.4H53.39v36.4Zm-10.158-.84h9.32V9.566h-9.32v34.72Z" fill="#EBEBEB"/><path d="M26.775 9.992H16.8v33.84h9.975V9.991Z" fill="#FAFAFA"/><path d="M26.756 9.992H16.78v33.84h9.976V9.991Z" fill="#fff" opacity=".1"/><path d="M25.781 9.992h-3.18l-3.48 33.84h3.18l3.48-33.84Z" fill="#fff" opacity=".3"/><path d="M26.86 9.563H16.717v.858H26.86v-.858Z" fill="#E0E0E0"/><path d="M26.86 43.536H16.717v.858H26.86v-.858Z" fill="#EBEBEB"/><path d="M27.254 45.126H16.258v-36.4h10.996v36.4Zm-10.157-.84h9.318V9.566h-9.318v34.72Z" fill="#EBEBEB"/><path d="M15.91 9.992H5.935v33.84h9.975V9.991Z" fill="#FAFAFA"/><path d="M8.167 25.13H7.18v.988h.988v-.988Zm1.916 0h-.989v.988h.989v-.988Zm1.915 0h-.988v.988h.988v-.988Zm1.914 0h-.989v.988h.989v-.988Zm-5.745 1.796H7.18v.989h.988v-.989Zm1.916 0h-.989v.989h.989v-.989Zm1.915 0h-.988v.989h.988v-.989Zm0 1.795h-.988v.988h.988v-.988Zm-3.83 2.806h-.989v.988h.988v-.988Zm1.915 0h-.989v.988h.989v-.988Zm1.915 0h-.988v.988h.988v-.988Zm1.914 0h-.989v.988h.989v-.988Zm-5.745 1.796H7.18v.988h.988v-.988Zm1.916 0h-.989v.988h.989v-.988Zm1.915 0h-.988v.988h.988v-.988Z" fill="#FAFAFA"/><path d="M13.912 33.323h-.989v.988h.989v-.988Zm-3.83 1.796h-.988v.988h.989v-.988Z" fill="#E6E6E6"/><path d="M11.998 35.119h-.988v.988h.988v-.988Z" fill="#FAFAFA"/><path d="M13.912 35.119h-.989v.988h.989v-.988Z" fill="#E6E6E6"/><path d="M8.167 37.925H7.18v.988h.988v-.988Zm1.916 0h-.989v.988h.989v-.988Zm1.915 0h-.988v.988h.988v-.988Zm1.914 0h-.989v.988h.989v-.988ZM8.167 39.72H7.18v.988h.988v-.988Zm1.916 0h-.989v.988h.989v-.988Zm1.915 0h-.988v.988h.988v-.988Z" fill="#FAFAFA"/><path d="M13.912 39.72h-.989v.99h.989v-.99Zm-5.745 1.797H7.18v.988h.988v-.988Zm1.916 0h-.989v.988h.989v-.988Z" fill="#E6E6E6"/><path d="M11.998 41.517h-.988v.988h.988v-.988Z" fill="#FAFAFA"/><path d="M13.912 41.517h-.989v.988h.989v-.988Z" fill="#E6E6E6"/><path d="M14.914 9.992h-3.18l-3.478 33.84h3.18l3.478-33.84Z" fill="#fff" opacity=".3"/><path d="M15.995 9.563H5.852v.858h10.143v-.858Z" fill="#E0E0E0"/><path d="M15.995 43.536H5.852v.858h10.143v-.858Z" fill="#EBEBEB"/><path d="M16.388 45.126H5.393v-36.4h10.995v36.4Zm-10.157-.84h9.319V9.566H6.23v34.72Z" fill="#EBEBEB"/><path d="m34.093 49.645-.112.014c-.007-.057-.688-5.752.716-10.406 1.4-4.62.434-7.574.42-7.602l.108-.036c.01.03.98 3.011-.42 7.67-1.397 4.632-.72 10.304-.712 10.36Z" fill="#E0E0E0"/><path d="M35.322 32.285a1.77 1.77 0 0 0-.946-.583l.026-.11a1.88 1.88 0 0 1 1.007.62l-.087.073Zm.48.471-.323.183.056.099.323-.183-.056-.099Zm-.602 2.626a2.687 2.687 0 0 0-1.453-1.411l.042-.104a2.8 2.8 0 0 1 1.515 1.469l-.104.046Zm-.302 3.558h-.114a1.552 1.552 0 0 0-.585-1.189l.07-.088a1.668 1.668 0 0 1 .629 1.277Zm-.252.91-.107-.041a1.138 1.138 0 0 1 .644-.636l.04.107a1.014 1.014 0 0 0-.577.57Zm-.734 5.772-.087-.072c.14-.166.242-.798.298-1.136.013-.082.024-.15.034-.2l.11.02-.033.198c-.083.508-.176 1.015-.322 1.19Zm-.064 1.813a1.12 1.12 0 0 0-1.08-.745v-.113a1.234 1.234 0 0 1 1.193.823l-.113.035Zm.864 1.184-.797.892.084.075.797-.891-.084-.076Z" fill="#E0E0E0"/><path d="M35.28 42.805c.18.584-1.078 1.697-1.078 1.697s-1.667-.209-1.848-.794c-.18-.585.242-1.54 1.05-1.79.808-.248 1.69.303 1.876.887Z" fill="#F0F0F0"/><path d="M36.671 35.715c-.16.62-1.352 1.061-1.352 1.061s-.832-.961-.672-1.582c.16-.62.819-1.304 1.378-1.16.558.144.806 1.061.646 1.681Z" fill="#EBEBEB"/><path d="M31.888 44.986c.747.293 1.207 1.616 1.207 1.616s-1.234.665-1.983.374c-.749-.291-1.54-1.12-1.327-1.662.213-.542 1.354-.619 2.103-.328Z" fill="#F5F5F5"/><path d="M33.529 37.702a1.6 1.6 0 0 0 .51.29.544.544 0 0 0 .547-.129c.16-.185.117-.47.017-.693-.2-.441-.939-1.189-1.506-.98-.817.315.066 1.242.432 1.512Z" fill="#E6E6E6"/><path d="M35.203 38.826c-.108.133-.221.3-.162.46a.342.342 0 0 0 .376.185 1.01 1.01 0 0 0 .405-.197c.288-.202.88-.622.502-1.015-.377-.393-.895.286-1.12.567Z" fill="#EBEBEB"/><path d="M32.787 33.226a.297.297 0 0 0-.27.218c-.024.14.095.27.21.357.287.222 1.148.818 1.34.243.183-.543-.9-.864-1.28-.818Z" fill="#E0E0E0"/><path d="M34.376 31.333c-.178.017-.356-.047-.534-.036-.178.011-.376.154-.336.329.04.175.237.214.4.225.282.017.564-.003.84-.058a.258.258 0 0 0 .17-.086c.073-.106-.042-.249-.165-.28a1.832 1.832 0 0 1-.373-.088l-.002-.006Z" fill="#E6E6E6"/><path d="M36.12 32.557c.18 0 .351-.071.53-.071.18 0 .386.128.358.305-.028.176-.223.23-.387.252a3.191 3.191 0 0 1-.84 0 .26.26 0 0 1-.176-.074c-.079-.103.026-.251.14-.297a1.77 1.77 0 0 0 .367-.114l.008-.001Zm-.183 13.154a.253.253 0 0 1 .152-.075.173.173 0 0 1 .152.148.497.497 0 0 1-.028.226c-.122.404-1.48 3.337-1.794 2.81-.185-.312.27-1.342.405-1.635a4.253 4.253 0 0 1 1.113-1.474Z" fill="#F0F0F0"/><path d="M35.125 31.444a1.54 1.54 0 0 1 .435-.644c.214-.155.56-.167.714.048.175.239 0 .603-.267.73-.268.128-.58.089-.874.048 0-.043 0-.087-.007-.13l-.001-.052Z" fill="#E6E6E6"/><path d="M36.074 53.557a13.085 13.085 0 0 1-4.396 0l-1.71-5.04h7.816l-1.71 5.04Z" fill="#F0F0F0"/><path d="M35.083 15.817a2.902 2.902 0 1 0 0-5.804 2.902 2.902 0 0 0 0 5.804Z" fill="#E0E0E0"/><path d="M37.754 13.26a2.902 2.902 0 1 0-5.73-.93 2.902 2.902 0 0 0 5.73.93Z" fill="#EBEBEB"/><path d="M37.216 12.813a2.33 2.33 0 1 1-4.659 0 2.33 2.33 0 0 1 4.659 0Z" fill="#fff" opacity=".8"/><path d="M34.76 13.033a.236.236 0 1 1 .336-.333.236.236 0 0 1-.335.333Z" fill="#E0E0E0"/><path d="m34.887 12.785 1.374-.042.005.143-1.246.037-.135 2.168-.141-.009.143-2.297Z" fill="#E0E0E0"/><path d="M35 59.781c14.991 0 27.145-.71 27.145-1.584 0-.876-12.154-1.585-27.145-1.585-14.992 0-27.145.71-27.145 1.585S20.008 59.78 35 59.78Z" fill="#F5F5F5"/><path d="m60.249 50.807.711-11.32a7.301 7.301 0 1 0-14.578-.87L45.64 51.84h13.51a1.102 1.102 0 0 0 1.099-1.032Z" fill="#407BFF"/><path d="m60.274 50.4.686-10.91a7.301 7.301 0 1 0-14.578-.87l-.742 13.22h13.102a1.54 1.54 0 0 0 1.532-1.44Z" fill="#000" opacity=".1"/><path d="m58.056 51.84.776-12.353a7.304 7.304 0 0 0-12.304-5.765 7.3 7.3 0 0 0-2.274 4.896l-.746 13.221h14.548Zm.233 2.126h.186a.211.211 0 0 0 .199-.19l.28-1.935H57.82l.28 1.936a.212.212 0 0 0 .189.189Z" fill="#407BFF"/><path d="M58.289 53.966h.186a.211.211 0 0 0 .199-.19l.28-1.935H57.82l.28 1.936a.212.212 0 0 0 .189.189Z" fill="#fff" opacity=".7"/><path d="M39.998 53.966h.168a.202.202 0 0 0 .18-.19l.254-1.935h-1.03l.25 1.936a.202.202 0 0 0 .178.189Z" fill="#407BFF"/><path d="M39.998 53.966h.168a.202.202 0 0 0 .18-.19l.254-1.935h-1.03l.25 1.936a.202.202 0 0 0 .178.189Z" fill="#fff" opacity=".5"/><path d="M45.263 53.966h.17a.202.202 0 0 0 .18-.19l.25-1.935h-1.03l.247 1.936a.201.201 0 0 0 .183.189Z" fill="#407BFF"/><path d="M45.263 53.966h.17a.202.202 0 0 0 .18-.19l.25-1.935h-1.03l.247 1.936a.201.201 0 0 0 .183.189Z" fill="#fff" opacity=".7"/><path d="M52.619 53.966h.186a.215.215 0 0 0 .2-.19l.28-1.935H52.15l.28 1.936a.211.211 0 0 0 .189.189Z" fill="#407BFF"/><path d="M52.619 53.966h.186a.215.215 0 0 0 .2-.19l.28-1.935H52.15l.28 1.936a.211.211 0 0 0 .189.189Z" fill="#fff" opacity=".5"/><path d="M46.455 47.18h-4.979l-.329-4.8-.071-1.03-.032-.474a3.131 3.131 0 0 0-.05-.371c0-.027-.01-.056-.016-.083a2.87 2.87 0 0 0-.773-1.348 2.444 2.444 0 0 0-1.555-.7h4.837a2.43 2.43 0 0 1 1.695.7 2.873 2.873 0 0 1 .774 1.348c.033.15.055.301.066.454l.032.474.4 5.83Z" fill="#407BFF"/><path d="M46.455 47.18h-4.979l-.329-4.8-.071-1.03-.032-.474a3.131 3.131 0 0 0-.05-.371c0-.027-.01-.056-.016-.083a2.87 2.87 0 0 0-.773-1.348 2.444 2.444 0 0 0-1.555-.7h4.837a2.43 2.43 0 0 1 1.695.7 2.873 2.873 0 0 1 .774 1.348c.033.15.055.301.066.454l.032.474.4 5.83Zm3.945-2.562h1.999c.487 0 .88.308.88.687v1.182c0 .38-.393.687-.88.687h-2v-2.556Z" fill="#000" opacity=".1"/><path d="M42.236 47.174h8.806c.42 0 .76-.34.76-.758v-1.04a.76.76 0 0 0-.76-.76h-8.806a.759.759 0 0 0-.758.76v1.04c0 .419.34.758.758.758ZM63 41.198a2.836 2.836 0 0 1-2.353 2.8l-.511 6.822c-.045.58-.467 1.023-.97 1.023h-5.491c.504 0 .924-.443.968-1.023l.28-3.64.237-3.186a2.826 2.826 0 0 0 2.108-1.645 2.8 2.8 0 0 0 .244-1.151 2.917 2.917 0 0 0-.115-.804 2.844 2.844 0 0 0-2.72-2.034h5.49a2.78 2.78 0 0 1 1.268.3A2.83 2.83 0 0 1 63 41.198Z" fill="#407BFF"/><path d="M63 41.198a2.836 2.836 0 0 1-2.353 2.8l-.511 6.822c-.045.58-.467 1.023-.97 1.023h-5.491c.504 0 .924-.443.968-1.023l.28-3.64.237-3.186a2.826 2.826 0 0 0 2.108-1.645 2.8 2.8 0 0 0 .244-1.151 2.917 2.917 0 0 0-.115-.804 2.844 2.844 0 0 0-2.72-2.034h5.49a2.78 2.78 0 0 1 1.268.3A2.83 2.83 0 0 1 63 41.198Z" fill="#000" opacity=".1"/><path d="M57.514 41.2c0 1.4-.923 2.566-2.134 2.8l-.468 6.82c-.04.58-.42 1.025-.879 1.025H39.37c-.457 0-.84-.445-.88-1.025l-.469-6.833c-1.187-.25-2.084-1.4-2.084-2.784a3.02 3.02 0 0 1 .474-1.639 2.66 2.66 0 0 1 .948-.897 2.34 2.34 0 0 1 1.15-.301 2.442 2.442 0 0 1 1.696.7 2.868 2.868 0 0 1 .773 1.35c.033.148.055.3.066.452l.034.474.398 5.838h10.45l.433-6.3c.061-.89.495-1.632 1.097-1.984a2.38 2.38 0 0 1 1.486-.523 2.328 2.328 0 0 1 1.15.297c.355.197.66.473.89.807.348.507.533 1.108.532 1.722Z" fill="#407BFF"/><path d="M51.684 51.84h-12.32c-.456 0-.84-.445-.88-1.024l-.468-6.834c-1.188-.249-2.085-1.4-2.085-2.783a3.02 3.02 0 0 1 .475-1.64 2.66 2.66 0 0 1 .947-.897 2.35 2.35 0 0 1 1.15-.3 2.442 2.442 0 0 1 1.697.7 2.868 2.868 0 0 1 .772 1.349c.034.149.056.3.066.452l.034.475.404 5.842h10.45l-.242 4.66Z" fill="#fff" opacity=".1"/><path d="M50.086 32.44a17.277 17.277 0 0 1-1.4.713c-.47.215-.946.42-1.436.598-.494.184-.997.343-1.507.476-.53.143-1.071.24-1.618.29l-.116.011h-.055c-.494-.057-.932-.14-1.372-.238-.44-.098-.875-.194-1.306-.305-.431-.11-.86-.224-1.288-.347a27.95 27.95 0 0 1-1.277-.395l.195-.971c.88.056 1.76.14 2.63.23l1.301.13c.428.043.867.08 1.25.093h-.17a9.33 9.33 0 0 0 1.297-.328c.439-.14.877-.3 1.315-.487a33.688 33.688 0 0 0 1.949-.899c.21-.104.434-.216.625-.316l.983 1.746Z" fill="#263238"/><path d="M50.086 32.44a17.277 17.277 0 0 1-1.4.713c-.47.215-.946.42-1.436.598-.494.184-.997.343-1.507.476-.53.143-1.071.24-1.618.29l-.116.011h-.055c-.494-.057-.932-.14-1.372-.238-.44-.098-.875-.194-1.306-.305-.431-.11-.86-.224-1.288-.347a27.95 27.95 0 0 1-1.277-.395l.195-.971c.88.056 1.76.14 2.63.23l1.301.13c.428.043.867.08 1.25.093h-.17a9.33 9.33 0 0 0 1.297-.328c.439-.14.877-.3 1.315-.487a33.688 33.688 0 0 0 1.949-.899c.21-.104.434-.216.625-.316l.983 1.746Z" fill="#000" opacity=".1"/><path d="M38.728 31.738a2.39 2.39 0 0 0-.677-.33l-.363 1.415 1.086.456.124-.15a.963.963 0 0 0-.17-1.39Z" fill="#FFC3BD"/><path d="m37.688 32.823.363-1.415-1.014-.553-.305.997.956.971Z" fill="#FFC3BD"/><path d="M46.677 33.88h.056c.535-.057 2.107-.322 3.244-1.443-.17-.328-.402-.581-.686-.639-.784-.148-1.744.413-2.614 2.082Z" fill="#000" opacity=".2"/><path d="M47.6 41.198c1.341-3.622.46-6.953.627-8.796a2.1 2.1 0 0 1 1.7-1.874 58.426 58.426 0 0 1 3.128-.52 2.112 2.112 0 0 1 2.4 2.125c-.095 5.46-1.845 9.065-1.845 9.065l-2.828-.013-3.182.013Z" fill="#407BFF"/><path d="M47.6 41.198c1.341-3.622.46-6.953.627-8.796a2.1 2.1 0 0 1 1.7-1.874 58.426 58.426 0 0 1 3.128-.52 2.112 2.112 0 0 1 2.4 2.125c-.095 5.46-1.845 9.065-1.845 9.065l-2.828-.013-3.182.013Z" fill="#fff" opacity=".8"/><path d="m36.87 53.556-.358 2.356h1.138l.748-2.356H36.87Z" fill="#FFC3BD"/><path d="m36.366 55.387 1.522-.037a.084.084 0 0 1 .067.021.086.086 0 0 1 .028.063v1.12a.256.256 0 0 1-.25.229c-.53 0-.781-.02-1.45 0a17.096 17.096 0 0 1-2.131-.14c-.542-.093-.395-.601-.15-.61 1.106-.04 1.725-.271 2.122-.56a.409.409 0 0 1 .242-.086Z" fill="#263238"/><path d="m36.726 54.5.145-.944h1.527l-.367 1.178-1.305-.233Z" fill="#000" opacity=".2"/><path d="M46.9 40.35s-9.26.092-9.405 3.025c-.204 4.217-.917 10.64-.917 10.64l1.746.48s2.492-6.374 2.588-9.668c2.606-.518 9.302 0 10.089-1.711a4.58 4.58 0 0 0 .297-2.772l-4.398.005Z" fill="#407BFF"/><path d="M46.9 40.35s-9.26.092-9.405 3.025c-.204 4.217-.917 10.64-.917 10.64l1.746.48s2.492-6.374 2.588-9.668c2.606-.518 9.302 0 10.089-1.711a4.58 4.58 0 0 0 .297-2.772l-4.398.005Z" fill="#000" opacity=".6"/><path d="m45.019 54.467.617 1.599h1.249l-.43-1.682-1.436.083Z" fill="#FFC3BD"/><path d="m46.571 54.838-.242-1.23-1.578.195.405 1.07 1.415-.035Z" fill="#000" opacity=".2"/><path d="M45.297 55.537h1.594a.097.097 0 0 1 .105.09l.077 1.193a.247.247 0 0 1-.247.241c-.56-.01-.82-.04-1.522-.04-.43 0-1.3.042-1.896.042-.595 0-.578-.56-.327-.604 1.134-.227 1.572-.539 1.97-.84a.419.419 0 0 1 .246-.082Z" fill="#263238"/><path d="M49.39 40.35s-8.4.57-8.192 3.5c.225 3.208 3.59 10.65 3.59 10.65h1.692s-1.12-6.752-1.635-10.022c2.368 0 7.858.357 8.647-1.358a4.59 4.59 0 0 0 .294-2.772l-4.396.001Z" fill="#407BFF"/><path d="M49.39 40.35s-8.4.57-8.192 3.5c.225 3.208 3.59 10.65 3.59 10.65h1.692s-1.12-6.752-1.635-10.022c2.368 0 7.858.357 8.647-1.358a4.59 4.59 0 0 0 .294-2.772l-4.396.001Z" fill="#000" opacity=".5"/><path d="M50.663 28.479c.193.748.254 1.68-.79 2.065-.29.462-.432.95.684.776a3.435 3.435 0 0 0 2.252-1.274c-.667-.586-.546-2.38-.376-3.393l-1.77 1.826Z" fill="#FFC3BD"/><path d="M50.54 29.84c-.96.163-1.747.905-2.17 1.78-.423.875-.525 1.872-.517 2.845.009.973.12 1.942.093 2.914-.03 1.12-.3 1.913-.686 2.969 0 .25.379.392.7.458.669-1.46 1.108-2.858 1.062-4.462-.035-1.165-.05-2.492.14-3.64.19-1.148 1.564-2.647 1.498-2.855l-.12-.01Z" fill="#263238"/><path d="M51.478 29.027a.93.93 0 0 1-.708.171 3.219 3.219 0 0 0-.04-.543l1.16-.952c.025.124.041.25.049.375a1.063 1.063 0 0 1-.461.95Z" fill="#000" opacity=".3"/><path d="M49.745 24.058c-1.225.693-1.238 2.651-.86 3.78a1.696 1.696 0 0 0 2.973.498c.599-.757.512-1.522.482-2.838-.029-1.316-1.369-2.132-2.595-1.44Z" fill="#FFC3BD"/><path d="M50.14 27.58c-.395.17-.828.39-1.227.342a1.694 1.694 0 0 0 2.94.42c.494-.622.647-1.042.507-2.173-.767.899-1.376 1.047-2.22 1.411Z" fill="#000" opacity=".2"/><path d="M51.324 24.5a1.12 1.12 0 0 0 .125 1.34c.11.116.246.206.352.325.166.186.253.43.241.68a.7.7 0 0 1 .665-.592l-.498 1.54a2.131 2.131 0 0 0 1.215-1.68c.106-.994-1.12-3.124-2.1-1.613Z" fill="#263238"/><path d="M48.465 24.569a.859.859 0 0 0-.195.365.339.339 0 0 0 .14.361.51.51 0 0 0 .334.017l1.12-.195c.64-.112 1.282-.222 1.915-.375.28-.067.603-.175.715-.444.363-.875-1.186-.988-1.704-.964-.882.046-1.773.553-2.325 1.235Z" fill="#263238"/><path d="M52.54 26.029c-.368.082-.524.61-.515.949 0 .385.28.636.605.403.241-.18.405-.443.46-.739.065-.363-.183-.696-.55-.613Z" fill="#FFC3BD"/><path d="M49.948 27.366a.454.454 0 0 1-.382.057c.14-.316.123-.245.166-.782l.216.725Z" fill="#ED847E"/><path d="M50.593 25.62c-.105-.117-.392-.162-.547-.14a.062.062 0 0 1-.069-.05.067.067 0 0 1 .054-.075c.196-.029.522.03.655.177a.063.063 0 0 1 0 .088.075.075 0 0 1-.028.018.062.062 0 0 1-.065-.018Zm-1.812.262a.062.062 0 0 1-.017-.084.652.652 0 0 1 .48-.33.057.057 0 0 1 .06.058.066.066 0 0 1-.06.069.527.527 0 0 0-.379.264.062.062 0 0 1-.05.033.05.05 0 0 1-.033-.01Z" fill="#263238"/><path d="M49.84 27.936c.135.17.259.35.371.537l.087-.036c.395-.171.507-.41.512-.62a.9.9 0 0 0-.15-.472c-.14.242-.494.435-.687.529-.083.04-.133.062-.133.062Z" fill="#2E353A"/><path d="m49.97 27.874.058.078a.118.118 0 0 0 .14.038c.29-.14.484-.28.56-.438a.113.113 0 0 0 0-.095.882.882 0 0 0-.065-.112c-.147.242-.5.435-.693.529Z" fill="#fff"/><path d="M50.295 28.437c.395-.171.507-.409.513-.62-.15.069-.284.17-.391.295a.56.56 0 0 0-.122.325Z" fill="#DE5753"/><path d="M49.231 26.32c-.069.013-.106.11-.087.216.02.105.094.18.163.166.068-.014.106-.109.087-.214-.02-.105-.094-.168-.163-.168Zm1.201-.193c-.069.013-.106.11-.087.216.02.106.094.18.163.166.068-.014.106-.11.086-.215-.02-.105-.093-.18-.162-.167Z" fill="#263238"/><path d="m48.702 26.889.883-.2.015.376-.821.196-.077-.372Z" fill="#fff" opacity=".9"/><g opacity=".8"><path d="m49.854 26.63.105.345 1.134-.243-.067-.398-1.172.297Z" fill="#fff" opacity=".9"/></g><path d="m49.59 26.828-.005-.138.269-.06.04.131-.303.067Zm-.321 14.209s1.595.617 1.96.738c.42.164.862.266 1.312.3a1.609 1.609 0 0 0 1.242-.463c.38-.406.5-1.022.599-1.6.29-1.698.583-3.395.876-5.093.14-.84.508-2.1.477-2.575-.057-.882-.618-1.923-2.048-2.496-.56-.223-1.104-.14-1.572.42-.28.333-1.095 1.137-1.295 2.552-.16 1.134-.409 2.603-.393 3.755.018 1.515-.587 3.424-1.158 4.462Z" fill="#263238"/><path d="M55.657 31.878c.163 1.476-.654 5.196-.81 5.42-.67 2.157-2.508.993-2.774.894-.463-.17-.935-.505-1.376-.728-.855-.42-1.666-.767-2.461-1.295l.448-.885c.872.297 3.34.935 3.748 1.035.176.046.863.406.856-.069.097-.158.231-3.24.527-4.328a.919.919 0 0 1 .172-.335l.026-.034a.944.944 0 0 1 1.644.325Z" fill="#263238"/><path d="M55.657 31.878c.163 1.476-.654 5.196-.81 5.42-.67 2.157-2.508.993-2.774.894-.463-.17-.935-.505-1.376-.728-.855-.42-1.666-.767-2.461-1.295l.448-.885c.872.297 3.34.935 3.748 1.035.176.046.863.406.856-.069.097-.158.231-3.24.527-4.328a.919.919 0 0 1 .172-.335l.026-.034a.944.944 0 0 1 1.644.325Z" fill="#fff" opacity=".1"/><path d="M48.333 37.45H44.19l-.473-5.407h4.144l.473 5.407Z" fill="#263238"/><path d="M48.333 37.45H44.19l-.473-5.407h4.144l.473 5.407Z" fill="#fff" opacity=".5"/><path d="M48.187 37.423h-4.144l-.473-5.406h4.144l.473 5.406Z" fill="#407BFF"/><path d="M48.187 37.423h-4.144l-.473-5.406h4.144l.473 5.406Z" fill="#fff" opacity=".8"/><path d="M46.543 32.354H44.8l-.059-.676h1.742l.06.676Z" fill="#407BFF"/><path d="m44.741 31.678.171-.059h1.805l.025.287-.135.156-.008.235-.056.057-.06-.676H44.74Z" fill="#407BFF"/><path d="m44.741 31.678.171-.059h1.805l.025.287-.135.156-.008.235-.056.057-.06-.676H44.74Z" fill="#000" opacity=".5"/><path d="m49.014 35.577.094.505c-.224.584-1.508.43-1.508.43v-1.494l1.133.264a.378.378 0 0 1 .281.295Z" fill="#FFC3BD"/><path d="m47.597 35.018.006 1.497-1.137.028-.26-1.316 1.391-.209Z" fill="#FFC3BD"/><path d="m51.926 47.18.432-6.3c.062-.89.496-1.632 1.098-1.984a2.38 2.38 0 0 1 1.485-.523 2.327 2.327 0 0 1 1.151.296c.355.198.66.474.89.808.35.509.535 1.111.532 1.728 0 1.4-.922 2.566-2.133 2.8l-.47 6.815c-.04.58-.42 1.025-.878 1.025h-2.35l.243-4.665Z" fill="#407BFF"/><path d="m51.926 47.18.432-6.3c.062-.89.496-1.632 1.098-1.984a2.38 2.38 0 0 1 1.485-.523 2.327 2.327 0 0 1 1.151.296c.355.198.66.474.89.808.35.509.535 1.111.532 1.728 0 1.4-.922 2.566-2.133 2.8l-.47 6.815c-.04.58-.42 1.025-.878 1.025h-2.35l.243-4.665Z" fill="#fff" opacity=".1"/><path d="M30.562 17.864v5.853a.56.56 0 0 1-.56.56h-5.995l-2.142 1.657a.409.409 0 0 1-.655-.328v-1.329h-.335a.56.56 0 0 1-.56-.56v-5.854a.553.553 0 0 1 .56-.55h9.137a.55.55 0 0 1 .55.551Z" stroke="#407BFF" stroke-miterlimit="10" stroke-width=".158"/><path d="M24.948 16.49h-1.144v.14h1.144v-.14ZM19.6 18.137h-.14v-.69a.962.962 0 0 1 .962-.96h2.552v.14h-2.555a.823.823 0 0 0-.822.82l.003.69Zm8.088 3.464a.442.442 0 0 1-.442-.473c.15-1.707 1.502-1.864 1.671-3.804.05-.56-.155-.77-.546-.77-.39 0-.631.211-.68.77l-.028.32a.578.578 0 0 1-1.152-.102l.012-.14c.11-1.248.785-1.96 1.98-1.96 1.194 0 1.744.714 1.635 1.96-.178 2.023-1.655 2.337-1.78 3.764v.02a.445.445 0 0 1-.443.42l-.227-.005Zm.606 1.187a.587.587 0 0 1-1.02.347.588.588 0 0 1 .671-.936.589.589 0 0 1 .35.59ZM26.11 20.23h-3.22a.28.28 0 0 1 0-.56h3.22a.28.28 0 1 1 0 .56Zm-.445 1.11h-2.77a.28.28 0 1 1 0-.56h2.77a.28.28 0 0 1 0 .56Zm-.445 1.107h-2.324a.28.28 0 1 1 0-.56h2.324a.28.28 0 0 1 0 .56ZM18.63 45.29h-2.045c-.499 0-.902.315-.902.7v1.21c0 .39.403.7.902.7h2.045v-2.61Z" fill="#407BFF"/><path d="m9.125 50.988-.711-11.32a7.301 7.301 0 1 1 14.578-.868l.745 13.221H10.22a1.102 1.102 0 0 1-1.095-1.033Z" fill="#407BFF"/><path d="m9.1 50.578-.686-10.91a7.301 7.301 0 1 1 14.578-.868l.745 13.221H10.64a1.54 1.54 0 0 1-1.54-1.443Z" fill="#000" opacity=".1"/><path d="m11.318 52.021-.776-12.354A7.302 7.302 0 1 1 25.12 38.8l.747 13.221h-14.55Zm-.233 2.127H10.9a.215.215 0 0 1-.2-.19l-.28-1.937h1.135l-.28 1.936a.213.213 0 0 1-.189.19Z" fill="#407BFF"/><path d="M11.085 54.148H10.9a.215.215 0 0 1-.2-.19l-.28-1.937h1.135l-.28 1.936a.213.213 0 0 1-.189.19Z" fill="#fff" opacity=".7"/><path d="M29.376 54.148h-.169a.202.202 0 0 1-.18-.19l-.25-1.937h1.03l-.25 1.936a.203.203 0 0 1-.18.19Z" fill="#407BFF"/><path d="M29.376 54.148h-.169a.202.202 0 0 1-.18-.19l-.25-1.937h1.03l-.25 1.936a.203.203 0 0 1-.18.19Z" fill="#fff" opacity=".5"/><path d="M24.11 54.148h-.17a.203.203 0 0 1-.18-.19l-.251-1.937h1.03l-.25 1.936a.204.204 0 0 1-.178.19Z" fill="#407BFF"/><path d="M24.11 54.148h-.17a.203.203 0 0 1-.18-.19l-.251-1.937h1.03l-.25 1.936a.204.204 0 0 1-.178.19Z" fill="#fff" opacity=".7"/><path d="M16.755 54.148h-.186a.214.214 0 0 1-.2-.19l-.28-1.937h1.135l-.28 1.936a.213.213 0 0 1-.189.19Z" fill="#407BFF"/><path d="M16.755 54.148h-.186a.214.214 0 0 1-.2-.19l-.28-1.937h1.135l-.28 1.936a.213.213 0 0 1-.189.19Z" fill="#fff" opacity=".5"/><path d="M22.92 47.355h4.978l.329-4.795.07-1.03.033-.475c.009-.125.025-.248.048-.371 0-.027.013-.055.018-.081a2.868 2.868 0 0 1 .773-1.348 2.439 2.439 0 0 1 1.554-.7h-4.837a2.436 2.436 0 0 0-1.697.7 2.868 2.868 0 0 0-.773 1.348 3.28 3.28 0 0 0-.065.452l-.033.474-.399 5.826Z" fill="#407BFF"/><path d="M22.92 47.355h4.978l.329-4.795.07-1.03.033-.475c.009-.125.025-.248.048-.371 0-.027.013-.055.018-.081a2.868 2.868 0 0 1 .773-1.348 2.439 2.439 0 0 1 1.554-.7h-4.837a2.436 2.436 0 0 0-1.697.7 2.868 2.868 0 0 0-.773 1.348 3.28 3.28 0 0 0-.065.452l-.033.474-.399 5.826ZM18.974 44.8h-2c-.486 0-.88.308-.88.687v1.183c0 .38.394.688.88.688h2V44.8Z" fill="#000" opacity=".1"/><path d="M27.137 44.799h-8.806a.758.758 0 0 0-.758.758v1.04c0 .42.34.76.758.76h8.806c.42 0 .76-.34.76-.76v-1.04a.759.759 0 0 0-.76-.758ZM6.37 41.379a2.836 2.836 0 0 0 2.353 2.8l.517 6.817c.045.58.465 1.025.969 1.025H15.7c-.504 0-.924-.445-.969-1.025l-.28-3.64-.24-3.18a2.836 2.836 0 0 1-2.35-2.796 2.822 2.822 0 0 1 .115-.804 2.846 2.846 0 0 1 2.712-2.031H9.206A2.83 2.83 0 0 0 6.37 41.38Z" fill="#407BFF"/><path d="M6.37 41.38a2.836 2.836 0 0 0 2.353 2.8l.517 6.816c.045.58.465 1.025.969 1.025H15.7c-.504 0-.924-.445-.969-1.025l-.28-3.64-.24-3.18a2.836 2.836 0 0 1-2.35-2.796 2.822 2.822 0 0 1 .115-.804 2.846 2.846 0 0 1 2.712-2.031H9.206A2.83 2.83 0 0 0 6.37 41.38Z" fill="#000" opacity=".1"/><path d="M11.86 41.38c0 1.4.924 2.567 2.135 2.8l.467 6.822c.04.58.42 1.025.88 1.025h14.663c.456 0 .84-.444.88-1.025l.468-6.832c1.186-.25 2.083-1.4 2.083-2.785a3.019 3.019 0 0 0-.473-1.64 2.67 2.67 0 0 0-.95-.897 2.36 2.36 0 0 0-1.147-.3 2.433 2.433 0 0 0-1.697.7 2.875 2.875 0 0 0-.773 1.349c-.033.149-.055.3-.066.452l-.033.475-.4 5.83H17.449l-.432-6.3c-.063-.891-.496-1.633-1.098-1.984a2.4 2.4 0 0 0-1.331-.517h-.154a2.329 2.329 0 0 0-1.152.295 2.678 2.678 0 0 0-.89.808 3.018 3.018 0 0 0-.53 1.724Z" fill="#407BFF"/><path d="M17.689 52.021h12.32c.456 0 .84-.444.88-1.025l.468-6.832c1.186-.249 2.083-1.4 2.083-2.784a3.019 3.019 0 0 0-.473-1.64 2.666 2.666 0 0 0-.95-.897c-.35-.196-.745-.3-1.147-.3a2.433 2.433 0 0 0-1.697.7 2.874 2.874 0 0 0-.773 1.349c-.033.148-.055.3-.066.452l-.033.475-.4 5.83H17.449l.24 4.672Z" fill="#fff" opacity=".1"/><path d="m21.438 54.43 1.194.33 1.073-2.806-1.195-.33-1.072 2.806Z" fill="#FFC3BD"/><path d="M23.167 54.389a.623.623 0 0 0-.382-.233l-1.225-.24a.113.113 0 0 0-.14.076l-.38 1.12a.246.246 0 0 0 .15.314h.009c.453.18.76.118 1.468.255.438.084 1.355.375 1.969.35.613-.025.611-.632.354-.676-.91-.14-1.61-.69-1.823-.966Z" fill="#263238"/><path d="m23.705 51.955-.553 1.448-1.194-.333.551-1.447 1.196.332Z" fill="#000" opacity=".2"/><path d="M19.719 41.3s7.19-.04 6.966 2.369c-.15 1.627-.932 3.336-1.54 4.987-.883 2.392-1.649 4.48-1.649 4.48l-1.638-.567s1.472-6.92 2.463-7.628h-6.08c-2.012 0-2.882-2.209-.923-4.785 1.197.004 2.401 1.144 2.401 1.144Z" fill="#407BFF"/><path d="M19.719 41.3s7.19-.04 6.966 2.369c.111 1.496-3.19 9.464-3.19 9.464l-1.638-.567s1.471-6.92 2.462-7.628h-6.078c-2.012 0-2.882-2.209-.923-4.785 1.197.007 2.401 1.147 2.401 1.147Z" fill="#000" opacity=".6"/><path d="M24.79 36.928c-.885.808-2.622-1.105-2.902-1.332-.6-.49-2.36-2.133-2.268-2.704.28-1.68 3.035.7 3.831 2.34l1.339 1.696Z" fill="#263238"/><path d="M17.046 31.872c-.443.094-.924-.065-1.236.264-.312.329-.442.79-.487 1.241-.04.63-.007 1.262.098 1.885.093.759.19 1.517.293 2.275a6.752 6.752 0 0 1-.072 1.872.301.301 0 0 0 .171.326s3.443.117 4.444.08c.532-.02.166-1.42.33-2.24.036-.182.392-.93.445-1.12.247-.903.083-1.525-.14-2.432-.166-.66-.235-1.61-.571-1.68-.605-.125-2.04-.734-3.275-.47Z" fill="#407BFF"/><path d="M17.046 31.872c-.443.094-.924-.065-1.236.264-.312.329-.442.79-.487 1.241-.04.63-.007 1.262.098 1.885.093.759.19 1.517.293 2.275a6.752 6.752 0 0 1-.072 1.872.301.301 0 0 0 .171.326s3.443.117 4.444.08c.532-.02.166-1.42.33-2.24.036-.182.392-.93.445-1.12.247-.903.083-1.525-.14-2.432-.166-.66-.235-1.61-.571-1.68-.605-.125-2.04-.734-3.275-.47Z" fill="#fff" opacity=".8"/><path d="M16.555 32.52c-.046-.07-1.26-1.09-1.477.087-.306 1.64.328 3.252.328 3.252s.14 1.774.66 1.952c.521.178 1.006.221 1.18-.083.112-.236.17-.495.173-.757 0 0-.059-3.231-.864-4.452Z" fill="#263238"/><path d="M17.394 29.623c.124.754.23 2.133-.31 2.619 0 0 1.318.69 2.183 1.894a1.142 1.142 0 0 0 .4-1.274 1.11 1.11 0 0 0-.56-.669c-.51-.28-.462-.81-.322-1.305l-1.391-1.265Z" fill="#E8BFBF"/><path d="m17.566 30.904.491.189c.21.08.436.117.661.106a1.051 1.051 0 0 0 0 .468.944.944 0 0 1-.98-.314 1.622 1.622 0 0 1-.172-.45Z" fill="#000" opacity=".2"/><path d="M29.764 52.017h1.338l-1.401-3.356-.907 1.54.97 1.816Z" fill="#FFC3BD"/><path d="m30.992 51.7-1.57-.358a.11.11 0 0 0-.131.072l-.438 1.206a.241.241 0 0 0 .165.299c.55.114.82.14 1.51.298.42.096 1.501.38 2.088.512.587.133.74-.44.507-.55-1.047-.484-1.614-.948-1.918-1.343a.378.378 0 0 0-.213-.137Z" fill="#263238"/><path d="m29.7 48.661.597 1.43-1.204.672-.3-.56.908-1.542Z" fill="#000" opacity=".2"/><path d="m15.616 39.75-.14.457c-.019.035.022.071.08.074l5.18.157c.049 0 .086-.02.09-.05l.06-.459c0-.03-.036-.058-.085-.061l-5.096-.154a.094.094 0 0 0-.09.036Z" fill="#263238"/><path d="M22.095 43.495c-1.704.727-3.552 1.452-4.557 1.452-2.013 0-3.801-1.453-1.896-4.76 1.199 0 3.28.034 3.28.034s3.92-1.12 6.774-.79A3.22 3.22 0 0 1 28.48 42c.723 3.64 1.836 7.577 1.836 7.577l-1.432.98s-2.233-4.695-3.519-8.417c-.68.214-1.93.784-3.27 1.355Z" fill="#407BFF"/><path d="M28.48 42a3.22 3.22 0 0 0-2.785-2.572c-2.847-.325-6.773.79-6.773.79s-2.082-.038-3.28-.034c-1.936 3.293-.117 4.76 1.896 4.76 1.005 0 2.853-.725 4.557-1.452 1.34-.57 2.59-1.14 3.27-1.359 1.285 3.727 3.518 8.422 3.518 8.422l1.433-.98S29.203 45.64 28.48 42Z" fill="#000" opacity=".5"/><path d="M26.685 43.68c-.045.468-.115.933-.21 1.393a.601.601 0 0 1-.018-.045c-.005-.015 0-.007 0-.011a60.795 60.795 0 0 1-1.086-2.876h.01c.814.346 1.37.839 1.304 1.539Z" fill="#407BFF"/><path d="M26.685 43.68c-.045.468-.115.933-.21 1.393a.601.601 0 0 1-.018-.045c-.005-.015 0-.007 0-.011a60.795 60.795 0 0 1-1.086-2.876h.01c.814.346 1.37.839 1.304 1.539Z" fill="#000" opacity=".6"/><path d="M16.475 28.897c.42 1.183.574 1.693 1.36 2.137 1.187.669 2.545-.11 2.486-1.4-.053-1.155-.732-2.897-2.048-3.037a1.712 1.712 0 0 0-1.798 2.295v.005Z" fill="#E8BFBF"/><path d="M18.602 28.743c.03.103.103.163.168.14.064-.022.09-.112.064-.211-.025-.1-.102-.163-.168-.14-.066.022-.092.113-.064.211Zm1.099-.347c.03.104.104.164.168.14.064-.024.09-.112.064-.211-.025-.1-.103-.163-.166-.14-.063.022-.094.114-.066.211Z" fill="#263238"/><path d="m19.74 28.2.216-.14s-.07.22-.216.14Z" fill="#263238"/><path d="M19.308 28.62c.151.199.33.376.529.526a.433.433 0 0 1-.332.162l-.197-.688Z" fill="#ED847E"/><path d="M15.702 29.68c.086.213.152.434.195.66a.915.915 0 0 1-.777.951.877.877 0 0 0 1.012-.457 1.194 1.194 0 0 1-.592.652 1.27 1.27 0 0 0 1.015-.489c-.066.171-.14.34-.199.511.333-.201.606-.487.791-.828.074-.14.13-.322.032-.446-.098-.123-.253-.114-.396-.117-.143-.003-.315-.037-.367-.17-.051-.133.044-.266.147-.357.104-.09.229-.175.266-.308a.58.58 0 0 0-.02-.288l-.19-.774a.804.804 0 0 0-.096-.26c-.28-.42-.592.197-.7.405a1.835 1.835 0 0 0-.12 1.315Z" fill="#263238"/><path d="M16.392 30.056a.989.989 0 0 0 .65.377c.343.042.463-.28.326-.573-.124-.268-.452-.611-.775-.52-.324.09-.394.459-.2.716Z" fill="#E8BFBF"/><path d="M18.62 27.898a.065.065 0 0 1-.052.053c-.28.053-.442.39-.442.393a.064.064 0 0 1-.084.033.063.063 0 0 1-.03-.083c.012-.013.185-.4.533-.468a.065.065 0 0 1 .073.05.036.036 0 0 1 .002.022Zm.748-.28a.068.068 0 0 0-.053.014c-.016.017-.068.046-.038.061.17.087.407.23.59.2.03 0 .103-.032.087-.054a.09.09 0 0 0-.084-.027c-.14.02-.337-.116-.472-.186a.127.127 0 0 0-.03-.008Zm-.728.928.217-.14s-.069.223-.217.14Zm-.02-2.467c-.478-.087-.54-.119-1.024-.088a2.413 2.413 0 0 0-1.356.469 2.21 2.21 0 0 0-.74 1.184c-.11.463-.123.944-.037 1.412a.919.919 0 0 0 .272.59c.016-.251.059-.5.127-.743a1.21 1.21 0 0 1 .42-.617.656.656 0 0 0 .224-.2.816.816 0 0 0 .05-.254.787.787 0 0 1 .328-.48c.165-.11.342-.201.528-.272.59-.253 1.232-.399 1.775-.74a2.571 2.571 0 0 0-.567-.26Z" fill="#263238"/><path d="M16.177 27.952a.926.926 0 0 0 .5.313c.233.053.814.039.849-.021.035-.06-.173-.713-.408-.752.162.156.356.277.569.352.24.049.487.049.727 0 .124-.027-.152-.537-.352-.683.603.126 1.241.27 1.68.7.438.43.627 1.11.604 1.745a.87.87 0 0 0 .324-.69 2.571 2.571 0 0 1-.178 1.999c.641-.527.88-1.447.713-2.258-.168-.813-.7-1.52-1.346-2.039-.56-.444-1.226-.775-1.936-.792-.93-.028-2.656 1.03-1.746 2.126Z" fill="#263238"/><path d="M16.932 31.696c0-.046.01-.108.017-.172a.599.599 0 0 0-.488-.639.247.247 0 0 1-.19-.162c-.108-.314-.15-.409-.254-.717-.28-.068-.617.037-.91.067a2.552 2.552 0 0 0-.016 1.07c.011.08.042.154.09.218.265.218.559.399.873.538.252.077.606-.18.878-.203Z" fill="#E8BFBF"/><path d="M16.083 31.906s-.771 4.977.024 5.74c.466.445.87.199 1.12-.08a.992.992 0 0 0 .244-.767l-.542-5.099s-.532-.315-.846.206Zm8.289 4.494a2.12 2.12 0 0 0 .652-1.047 2.04 2.04 0 0 0 .028-.434c-.007-.902-.262-2.555-.262-2.555l-.732-.242s-.228 1.26-.28 1.948c-.01.14-.025.296-.042.465-.032.308-.072.647-.107.928l.742.937Z" fill="#E8BFBF"/><path d="M24.79 36.928c.225-.206.263-.455.38-.98.11-.502-.015-1.12-.118-1.026a.1.1 0 0 0-.028.043c-.178.42-.87.052-1.066-.158a1.43 1.43 0 0 1-.22-.27.225.225 0 0 1 0-.254c-.214-.088-.384.75-.28.955l.052.155c.085.252.215.487.384.692l.385.463.511.38Z" fill="#263238"/><path d="m24.038 32.227-.087-1.28c.227.108.46.199.7.273.356.122.84-.092.728.14-.178.346-.377.68-.596 1.002l-.745-.135Z" fill="#E8BFBF"/><path d="m23.951 30.947.55-1.281.716.438c.197.429.174 1.26.174 1.26s-.997.04-1.44-.417Z" fill="#E8BFBF"/><path d="M19.224 29.96c.018.09.084.155.14.14.056-.016.09-.097.071-.188-.02-.09-.084-.155-.14-.14-.056.016-.091.103-.071.188Z" fill="#263238"/><path d="m17.448 47.355-.433-6.3c-.063-.89-.495-1.633-1.097-1.984a2.4 2.4 0 0 0-1.332-.517h-.154a2.328 2.328 0 0 0-1.152.296 2.679 2.679 0 0 0-.89.808 3.019 3.019 0 0 0-.532 1.727c0 1.4.922 2.568 2.133 2.8l.468 6.822c.04.582.42 1.025.88 1.025h2.347l-.238-4.677Z" fill="#407BFF"/><path d="m17.448 47.355-.433-6.3c-.063-.89-.495-1.633-1.097-1.984a2.4 2.4 0 0 0-1.332-.517h-.154a2.328 2.328 0 0 0-1.152.296 2.679 2.679 0 0 0-.89.808 3.019 3.019 0 0 0-.532 1.727c0 1.4.922 2.568 2.133 2.8l.468 6.822c.04.582.42 1.025.88 1.025h2.347l-.238-4.677Z" fill="#fff" opacity=".1"/><path d="M34.182 58.866c2.594 0 4.696-.538 4.696-1.201 0-.664-2.102-1.202-4.696-1.202-2.593 0-4.695.538-4.695 1.202 0 .663 2.102 1.2 4.695 1.2Z" fill="#263238"/><path d="M34.182 58.465c2.594 0 4.696-.448 4.696-1 0-.554-2.102-1.002-4.696-1.002-2.593 0-4.695.448-4.695 1.001 0 .553 2.102 1.001 4.695 1.001Z" fill="#fff" opacity=".3"/><path d="M34.57 57.463h-.775l-.896-9.663h2.567l-.896 9.663Z" fill="#263238"/><path d="M35.466 47.8c0 .28-.574.51-1.284.51-.71 0-1.283-.229-1.283-.51s.575-.51 1.283-.51c.709 0 1.284.229 1.284.51Z" fill="#263238"/><path d="M35.466 47.8c0 .28-.574.51-1.284.51-.71 0-1.283-.229-1.283-.51s.575-.51 1.283-.51c.709 0 1.284.229 1.284.51Z" fill="#fff" opacity=".7"/><path d="M18.48 47.951a.434.434 0 0 1 .15-.302c1.085 1.092 7.969 1.933 16.299 1.933 8.33 0 15.213-.84 16.3-1.933a.435.435 0 0 1 .15.302c0 1.234-7.366 2.24-16.45 2.24-9.085 0-16.449-1.006-16.449-2.24Z" fill="#fff" opacity=".7"/><path d="M18.635 48.23c1.085-1.092 7.97-1.932 16.3-1.932 8.33 0 15.213.84 16.3 1.932-1.087 1.092-7.97 1.933-16.3 1.933-8.33 0-15.215-.841-16.3-1.933Z" fill="#fff" opacity=".7"/><path d="M18.48 47.908c0-1.235 7.364-2.24 16.449-2.24 9.084 0 16.45 1 16.45 2.24a.428.428 0 0 1-.15.301c-1.087-1.092-7.97-1.932-16.3-1.932-8.33 0-15.214.84-16.3 1.932a.43.43 0 0 1-.149-.301Z" fill="#fff" opacity=".7"/><path d="m41.28 46.82-6.883-.13a.14.14 0 0 1-.125-.157.141.141 0 0 1 .078-.137.141.141 0 0 1 .054-.014l6.882.13a.141.141 0 0 1 .122.101.14.14 0 0 1 .004.056.139.139 0 0 1-.034.104.141.141 0 0 1-.099.047Z" fill="#263238"/><path d="m41.28 46.82-6.883-.13a.14.14 0 0 1-.125-.157.141.141 0 0 1 .078-.137.141.141 0 0 1 .054-.014l6.882.13a.141.141 0 0 1 .122.101.14.14 0 0 1 .004.056.139.139 0 0 1-.034.104.141.141 0 0 1-.099.047Z" fill="#fff" opacity=".2"/><path d="m44.62 46.317-3.29.497a.14.14 0 0 1-.14-.133.154.154 0 0 1 .114-.172l3.29-.497a.14.14 0 0 1 .14.133.154.154 0 0 1-.113.172Zm-.028-.305h-6.956l-3.232.37 6.695.126 3.493-.496Z" fill="#263238"/><path d="M44.592 46.012h-6.956l-3.232.37 6.695.126 3.493-.496Z" fill="#fff" opacity=".6"/><path d="m44.62 46.317-3.29.497a.14.14 0 0 1-.14-.133.154.154 0 0 1 .114-.172l3.29-.497a.14.14 0 0 1 .14.133.154.154 0 0 1-.113.172Z" fill="#fff" opacity=".5"/><path d="m41.099 46.508-6.418-.12a.498.498 0 0 1-.435-.499l-.194-3.875c-.014-.27.161-.487.387-.483l6.417.122a.495.495 0 0 1 .436.498l.194 3.874c.013.27-.16.487-.387.483Z" fill="#407BFF"/><path d="m41.099 46.508-6.418-.12a.498.498 0 0 1-.435-.499l-.194-3.875c-.014-.27.161-.487.387-.483l6.417.122a.495.495 0 0 1 .436.498l.194 3.874c.013.27-.16.487-.387.483Z" fill="#fff" opacity=".2"/><path d="m40.91 46.488-6.417-.121a.498.498 0 0 1-.437-.499L33.864 42c-.014-.27.161-.487.388-.483l6.416.12a.499.499 0 0 1 .437.499l.196 3.87c.011.27-.164.486-.39.482Z" fill="#407BFF"/><path d="m40.91 46.488-6.417-.121a.498.498 0 0 1-.437-.499L33.864 42c-.014-.27.161-.487.388-.483l6.416.12a.499.499 0 0 1 .437.499l.196 3.87c.011.27-.164.486-.39.482Z" fill="#fff" opacity=".6"/><path d="M36.73 43.936a.758.758 0 0 0 .74.68.614.614 0 0 0 .623-.68.76.76 0 0 0-.741-.676.616.616 0 0 0-.622.676Z" fill="#fff"/></svg>