<svg xmlns="http://www.w3.org/2000/svg" width="67" height="56" fill="none"><path fill="#EBEBEB" d="M60.287 48.398h-4.438v.033h4.438v-.033ZM44.383 48.762H43.22v.033h1.164v-.033ZM55.715 47.154h-2.572v.034h2.572v-.034ZM12.817 47.38H7.03v.033h5.787v-.034ZM14.86 47.38h-.849v.033h.848v-.034ZM30.17 47.945H17.617v.033H30.17v-.033ZM31.946 40.265H6.07a.765.765 0 0 1-.765-.765V3.128a.765.765 0 0 1 .765-.758h25.876a.765.765 0 0 1 .765.765V39.5a.766.766 0 0 1-.765.765ZM6.07 2.397a.733.733 0 0 0-.731.731V39.5a.733.733 0 0 0 .731.732h25.876a.733.733 0 0 0 .731-.732V3.128a.732.732 0 0 0-.731-.731H6.07ZM60.93 40.265H35.054a.765.765 0 0 1-.765-.765V3.128a.765.765 0 0 1 .765-.758H60.93a.765.765 0 0 1 .765.765V39.5a.765.765 0 0 1-.765.765ZM35.054 2.397a.733.733 0 0 0-.731.731V39.5a.733.733 0 0 0 .731.732H60.93a.733.733 0 0 0 .731-.732V3.128a.732.732 0 0 0-.731-.731H35.054ZM67 46.242H0v.033h67v-.033Z"/><path fill="#F0F0F0" d="M25.117 46.227h-.731V34.775h1.148l-.417 11.452Z"/><path fill="#E0E0E0" d="M24.388 37.643c.046 0 .09-.008.134-.008.316.01.624.098.9.253l.113-3.113h-1.147v2.868Z"/><path fill="#F0F0F0" d="M22.207 46.227h-.733V34.775h1.148l-.415 11.452Z"/><path fill="#E0E0E0" d="M21.474 38.884c.343.053.67-.07 1.007-.258l.134-3.85h-1.148l.007 4.108Z"/><path fill="#F0F0F0" d="M42.444 46.227h.733V34.775H42.03l.415 11.452Z"/><path fill="#E0E0E0" d="M43.177 37.643c-.045 0-.09-.008-.134-.008a1.968 1.968 0 0 0-.899.253l-.114-3.113h1.149l-.002 2.868Z"/><path fill="#F0F0F0" d="M45.357 46.227h.732V34.775h-1.148l.416 11.452Z"/><path fill="#E0E0E0" d="M46.096 38.884c-.343.053-.67-.07-1.008-.258l-.14-3.85h1.148v4.108Z"/><path fill="#F0F0F0" d="M45.855 32.537c2.13.792 2.712 4.193 0 4.626-1.017.164-1.951-1.247-3.049-1.247-1.097 0-1.95 1.247-3.047 1.247-1.097 0-1.95-1.247-3.047-1.247-1.096 0-1.951 1.247-3.049 1.247-1.097 0-1.95-1.247-3.047-1.247-1.097 0-1.95 1.247-3.047 1.247-1.096 0-1.95-1.247-3.048-1.247s-2.03 1.41-3.047 1.247c-2.713-.433-2.31-3.917 0-4.626h24.38Z"/><path fill="#E0E0E0" d="M39.592 27.641v-1.523a.215.215 0 0 0-.214-.215h-.207a.214.214 0 0 0-.213.215v1.523l-.268.456c-.146.242-.223.52-.223.804v3.409a.279.279 0 0 0 .279.278h1.072a.278.278 0 0 0 .279-.278v-3.408c0-.283-.078-.561-.224-.804l-.281-.457Z"/><path fill="#F5F5F5" d="M38.977 30.233c0 1.206.022 2.192-.06 2.192-.084 0-.152-.982-.152-2.192 0-1.21.158-2.193.241-2.193.083 0-.03.981-.03 2.193ZM39.193 26.892c0 .426-.043.772-.097.772-.053 0-.013-.346-.013-.772 0-.426.043-.772.096-.772.054 0 .014.35.014.772Z"/><path fill="#E0E0E0" d="M30.523 28.204v-1.351a.19.19 0 0 0-.189-.189h-.184a.19.19 0 0 0-.188.189v1.35l-.243.403a1.395 1.395 0 0 0-.197.714v3.022a.247.247 0 0 0 .247.246h.947a.247.247 0 0 0 .248-.246v-3.02c0-.252-.069-.5-.198-.715l-.243-.403Z"/><path fill="#F5F5F5" d="M29.975 30.5c0 1.073.02 1.944-.053 1.944-.074 0-.134-.87-.134-1.943 0-1.074.134-1.943.213-1.943.079 0-.026.87-.026 1.943ZM30.167 27.544c0 .378-.037.684-.086.684-.048 0-.012-.306-.012-.684 0-.378.04-.684.086-.684.047 0 .012.306.012.684Z"/><path fill="#E0E0E0" d="M28.497 27.066v-1.702a.239.239 0 0 0-.239-.237h-.232a.238.238 0 0 0-.238.237v1.702l-.305.508c-.163.271-.249.582-.249.9v3.805a.31.31 0 0 0 .311.31h1.194a.31.31 0 0 0 .31-.31v-3.806c.001-.317-.085-.627-.248-.899l-.304-.508Z"/><path fill="#F5F5F5" d="M27.808 29.959c0 1.35.026 2.445-.067 2.445-.094 0-.168-1.094-.168-2.445 0-1.35.176-2.447.268-2.447.093 0-.033 1.095-.033 2.447ZM28.05 26.234c0 .477-.048.863-.108.863s-.015-.386-.015-.863.049-.862.108-.862c.058 0 .015.386.015.862ZM41.517 31.959V30.66a.278.278 0 0 1 .188-.268 1.084 1.084 0 0 0 .725-1.038 1.116 1.116 0 0 0-.268-.733H40.64c-.175.204-.27.464-.268.733a1.084 1.084 0 0 0 .725 1.038.277.277 0 0 1 .188.268v1.299a.282.282 0 0 1-.236.278c-.235.04-.394.115-.394.203 0 .126.335.15.746.15s.748-.024.748-.15c0-.087-.16-.164-.394-.203a.283.283 0 0 1-.239-.279Z"/><path fill="#E0E0E0" d="M40.587 29.262a.87.87 0 0 0 .573.931c.1.034.186.098.246.183a.478.478 0 0 1 .239-.175.87.87 0 0 0 .573-.932l-1.63-.006Z"/><path fill="#EBEBEB" d="M25.768 31.959V30.66a.278.278 0 0 1 .187-.268 1.084 1.084 0 0 0 .725-1.038 1.117 1.117 0 0 0-.268-.733h-1.52c-.175.204-.27.464-.268.733a1.084 1.084 0 0 0 .724 1.038.277.277 0 0 1 .188.268v1.299a.282.282 0 0 1-.236.278c-.234.04-.394.115-.394.203 0 .126.335.15.747.15.411 0 .747-.024.747-.15 0-.087-.16-.164-.394-.203a.283.283 0 0 1-.238-.279Z"/><path fill="#E0E0E0" d="M13.066 30.294c.409 2.404.684 4.829.824 7.263l.384-.032a66.61 66.61 0 0 0-.831-7.311c-.23-1.561-1.785-2.786-3.287-2.679a2.318 2.318 0 0 0-1.714.965 2.503 2.503 0 0 0-.402 1.987 59.7 59.7 0 0 1 .843 6.597l.383-.027a60.57 60.57 0 0 0-.85-6.645 2.113 2.113 0 0 1 .327-1.678c.046-.063.096-.124.15-.18a59.361 59.361 0 0 1 1.241 8.648l.382-.028a58.172 58.172 0 0 0-1.295-8.9c.242-.163.516-.27.803-.316.704 3.08 1.16 6.21 1.366 9.362l.383-.028a59.812 59.812 0 0 0-1.352-9.364c.32.006.636.075.93.2.67 3.066 1.1 6.178 1.29 9.31l.384-.03a61.476 61.476 0 0 0-1.225-9.042 2.992 2.992 0 0 1 1.266 1.928Z"/><path fill="#F0F0F0" d="M9.76 36.343h7.054a.883.883 0 0 1 .883.883v.055h-8.82v-.055a.883.883 0 0 1 .884-.883Z"/><path fill="#E0E0E0" d="M9.177 46.227h-.47l.384-8.946h.596l-.51 8.946ZM12.308 46.227h-.469l.256-8.946h.596l-.383 8.946ZM14.736 46.227h-.469l-.383-8.946h.596l.256 8.946ZM17.868 46.227h-.47l-.511-8.946h.596l.385 8.946Z"/><path fill="#EBEBEB" d="M18.08 36.94h-5.24v.681h5.24v-.682Z"/><path fill="#F5F5F5" d="M12.84 36.94H8.493v.681h4.347v-.682Z"/><path fill="#E0E0E0" d="M53.934 30.294a66.028 66.028 0 0 0-.824 7.263l-.384-.032c.142-2.45.42-4.891.831-7.311.23-1.561 1.79-2.78 3.287-2.68a2.317 2.317 0 0 1 1.714.966 2.502 2.502 0 0 1 .394 1.983 59.688 59.688 0 0 0-.843 6.597l-.383-.027c.16-2.229.444-4.447.85-6.645a2.112 2.112 0 0 0-.328-1.678 1.633 1.633 0 0 0-.15-.18 59.37 59.37 0 0 0-1.24 8.648l-.382-.028a58.172 58.172 0 0 1 1.295-8.9 2.01 2.01 0 0 0-.804-.315 59.309 59.309 0 0 0-1.357 9.365l-.383-.028a59.788 59.788 0 0 1 1.352-9.364c-.32.006-.636.075-.93.2a60.896 60.896 0 0 0-1.29 9.31l-.384-.03c.184-3.04.593-6.062 1.225-9.042a2.99 2.99 0 0 0-1.266 1.928Z"/><path fill="#F0F0F0" d="M58.122 37.281h-8.818v-.055a.883.883 0 0 1 .883-.883h7.052a.883.883 0 0 1 .883.883v.055Z"/><path fill="#E0E0E0" d="M57.824 46.227h.469l-.383-8.946h-.597l.51 8.946ZM54.692 46.227h.47l-.257-8.946h-.596l.383 8.946ZM52.264 46.227h.469l.383-8.946h-.596l-.256 8.946ZM49.132 46.227h.47l.511-8.946h-.597l-.384 8.946Z"/><path fill="#EBEBEB" d="M48.92 37.621h5.24v-.682h-5.24v.682Z"/><path fill="#F5F5F5" d="M54.16 37.621h4.347v-.682H54.16v.682ZM19.797 13.752s1.68-2.278 3.955-2.278c2.275 0 3.741 2.278 3.741 2.278v12.175h-7.695V13.752Z"/><path fill="#E0E0E0" d="M27.3 13.839c-.982-1.324-2.271-2.052-3.642-2.052s-2.66.728-3.641 2.052v11.858H27.3V13.839Zm-.232 11.54h-6.834V13.974c.93-1.206 2.144-1.876 3.414-1.876s2.486.67 3.415 1.876l.005 11.405Z"/><path fill="#EBEBEB" d="M27.698 26.25h-8.08V13.608l.059-.081c1.064-1.474 2.477-2.294 3.98-2.294 1.504 0 2.92.814 3.983 2.294l.058.082V26.25Zm-7.681-.553H27.3V13.839c-.982-1.324-2.271-2.052-3.642-2.052s-2.66.728-3.641 2.052v11.858Z"/><path fill="#E6E6E6" d="M25.137 25.552v-5.478h2.077v-.552h-2.077v-5.454h2.077v-.174a5.422 5.422 0 0 0-.308-.377h-1.769v-1.312a4.193 4.193 0 0 0-.402-.14v1.448h-2.159v-1.448c-.134.04-.268.087-.402.14v1.308h-1.768c-.106.12-.21.244-.309.377v.178h2.077v5.454H20.1v.555h2.077v5.475h.402v-5.478h2.163v5.478h.395Zm-.402-6.03h-2.159v-5.454h2.163l-.004 5.454Z"/><path fill="#F5F5F5" d="M39.84 13.752s1.68-2.278 3.955-2.278c2.275 0 3.741 2.278 3.741 2.278v12.175h-7.695V13.752Z"/><path fill="#E0E0E0" d="M47.343 13.839c-.98-1.324-2.271-2.052-3.642-2.052-1.37 0-2.66.728-3.64 2.052v11.858h7.282V13.839Zm-.228 11.54h-6.827V13.974c.929-1.206 2.137-1.876 3.413-1.876 1.276 0 2.486.67 3.414 1.876V25.38Z"/><path fill="#EBEBEB" d="M47.742 26.25h-8.078V13.608l.058-.081c1.064-1.474 2.477-2.294 3.98-2.294 1.504 0 2.92.814 3.983 2.294l.058.082-.002 12.641Zm-7.676-.553h7.283V13.839c-.981-1.324-2.271-2.052-3.642-2.052s-2.66.728-3.641 2.052v11.858Z"/><path fill="#E6E6E6" d="M45.18 25.552v-5.478h2.078v-.552H45.18v-5.454h2.077v-.174a5.845 5.845 0 0 0-.307-.377h-1.77v-1.312a4.783 4.783 0 0 0-.402-.14v1.448H42.62v-1.448c-.134.04-.268.087-.402.14v1.308h-1.768c-.105.12-.208.244-.309.377v.178h2.077v5.454h-2.077v.555h2.077v5.475h.402v-5.478h2.162v5.478h.398Zm-.401-6.03H42.62v-5.454h2.162l-.004 5.454Z"/><path fill="#F0F0F0" d="M28.246 34.956s1.226.67 2.777-.626v-1.622l-2.933-.033.152 2.193.004.088Z"/><path fill="#FFB573" d="m52.574 45.011.435 3.76 1.001.003.087-3.94-1.523.177Z"/><path fill="#263238" d="M54.395 48.525c.718.409.804.418 1.589.58.174.036.108.449-.295.453-.67.01-.61-.013-1.18 0-.484 0-1.188.032-1.574.043h-.005a.169.169 0 0 1-.154-.174l.072-.889a.075.075 0 0 1 .075-.07l1.23-.009a.47.47 0 0 1 .242.066Z"/><path fill="#407BFF" d="M54.33 48.541c.16.03.445.067.55-.032a.133.133 0 0 0 .042-.117.077.077 0 0 0-.041-.063c-.122-.064-.515.142-.559.166a.023.023 0 0 0-.01.009.023.023 0 0 0 .01.034l.008.003Zm.53-.17a.03.03 0 0 1 .016.024.083.083 0 0 1-.027.078c-.06.055-.223.067-.443.032.156-.078.37-.164.445-.134h.008Z"/><path fill="#407BFF" d="M54.344 48.541c.118-.056.35-.268.328-.39 0-.028-.025-.06-.09-.067a.174.174 0 0 0-.134.043c-.123.107-.142.378-.142.389 0 .004 0 .008.003.012a.027.027 0 0 0 .035.013Zm.26-.402c.02 0 .021.017.021.021.014.07-.143.242-.268.318a.552.552 0 0 1 .123-.312.117.117 0 0 1 .096-.031h.024l.004.004Z"/><path fill="#FFB573" d="m50.901 46.111 1.451 3.1h1.122l-1.187-3.76-1.386.66Z"/><path fill="#263238" d="M53.6 48.984c.718.41.804.419 1.589.582.174.035.108.448-.295.452-.67.01-.61-.012-1.18-.007-.484 0-1.186.033-1.572.043h-.016a.168.168 0 0 1-.153-.173l.071-.89a.077.077 0 0 1 .076-.07l1.23-.009a.493.493 0 0 1 .25.072Z"/><path fill="#407BFF" d="M53.529 49.002c.16.03.444.067.55-.032a.136.136 0 0 0 .042-.115.08.08 0 0 0-.04-.065c-.124-.064-.516.142-.56.166a.023.023 0 0 0-.01.01.024.024 0 0 0-.001.014c0 .005.001.01.004.013a.018.018 0 0 0 .012.006l.003.003Zm.536-.169a.025.025 0 0 1 .01.01c.003.004.005.01.004.014a.081.081 0 0 1-.026.077c-.06.056-.223.068-.443.032.156-.077.37-.162.445-.134l.01.001Z"/><path fill="#407BFF" d="M53.544 49.002c.116-.056.35-.268.327-.39 0-.027-.024-.06-.09-.066a.167.167 0 0 0-.134.043c-.123.106-.143.378-.142.389l.001.012a.021.021 0 0 0 .008.01h.007a.02.02 0 0 0 .023.003Zm.258-.402a.027.027 0 0 1 .023.023c.012.068-.143.24-.268.316a.564.564 0 0 1 .122-.312.124.124 0 0 1 .095-.031h.024l.004.004ZM49.54 23.916a.329.329 0 0 0 .344-.346l-.078-3.693a8.643 8.643 0 0 0-.057-.585c.536.087 1.474.35 1.734 1.38.268 1.072.206 3.173.095 4.183-.054.487-.44 1.112-1.29.938l-.748-1.877Z"/><path fill="#407BFF" d="M50.778 20.417c-.297 2.618-.903 4.134-.841 6.235l-4.94-.083c.032-3.869-.517-3.154-.575-5.258-.008-.804.014-1.819.477-1.887l2.801-.556 2.278.456a1 1 0 0 1 .8 1.093Z"/><path fill="#000" d="M50.778 20.417c-.297 2.618-.903 4.134-.841 6.235l-4.94-.083c.032-3.869-.517-3.154-.575-5.258-.008-.804.014-1.819.477-1.887l2.801-.556 2.278.456a1 1 0 0 1 .8 1.093Z" opacity=".1"/><path fill="#FFB573" d="M48.36 20.536c-.917-.08-1.914-.877-2.01-1.333.32-.046.402-.268.47-.651.034-.241.045-.485.034-.728-.008-.366-.045-.72-.057-.957l1.568.938-.03.141c-.049.243-.05.493-.007.737a.79.79 0 0 0 .66.67c.218.287.114.839-.627 1.183Z"/><path fill="#407BFF" d="M48.362 20.594a5.389 5.389 0 0 0-1.942-.268c.075-.152.151-.334.225-.485-.233 0-.457-.022-.691-.022.032-.3.117-.592.25-.863.148-.268.345-.48.64-.477-.04.104-.141.485-.038.69.117.197.273.368.457.504l1.099.92Z"/><path fill="#fff" d="M48.362 20.594a5.389 5.389 0 0 0-1.942-.268c.075-.152.151-.334.225-.485-.233 0-.457-.022-.691-.022.032-.3.117-.592.25-.863.148-.268.345-.48.64-.477-.04.104-.141.485-.038.69.117.197.273.368.457.504l1.099.92Z" opacity=".5"/><path fill="#407BFF" d="M48.33 18.625c.004.138.054.27.143.376.082.11.18.206.252.323a.873.873 0 0 1-.351 1.243c-.014 0-.014.024-.008.039.276-.184.566-.348.865-.49.089-.043.165-.09.25-.134a.75.75 0 0 0-.346-.44c.218-.023.431-.078.649-.1-.298-.204-.58-.436-.88-.637-.159-.108-.396-.23-.574-.18Z"/><path fill="#fff" d="M48.33 18.625c.004.138.054.27.143.376.082.11.18.206.252.323a.873.873 0 0 1-.351 1.243c-.014 0-.014.024-.008.039.276-.184.566-.348.865-.49.089-.043.165-.09.25-.134a.75.75 0 0 0-.346-.44c.218-.023.431-.078.649-.1-.298-.204-.58-.436-.88-.637-.159-.108-.396-.23-.574-.18Z" opacity=".5"/><path fill="#000" d="M48.327 18.68c-.67-.154-1.116-.67-1.376-.953l1.383.216c-.049.243-.05.493-.007.737Z" opacity=".2"/><path fill="#FFB573" d="M49.202 17.327c-.268.924-1.438 1.31-2.116.564-.391-.43-.414-.9-.422-1.63v-.35a1.316 1.316 0 0 1 .23-.77 1.288 1.288 0 0 1 1.58-.443c.902.402.972 1.798.728 2.629Z"/><path fill="#263238" d="M48.31 16.073c.05 0 .087.065.084.14-.003.075-.04.134-.095.134s-.094-.065-.091-.143c.002-.078.053-.133.103-.131ZM48.827 17.05l-.358.012c-.03.07-.066.134-.097.206.211.092.446.115.67.067-.01-.1-.032-.2-.064-.296-.044.004-.107.01-.151.012ZM49.164 16.134c.05 0 .087.065.085.134-.003.07-.046.134-.097.134-.05 0-.087-.064-.084-.14.002-.077.047-.129.096-.128Z"/><path fill="#ED893E" d="M48.815 17.043a.435.435 0 0 0 .36-.095 2.713 2.713 0 0 1-.402-.625l.042.72Z"/><path fill="#263238" d="M48.65 17.437h-.013l-.038-.018a.574.574 0 0 0-.454-.009.034.034 0 0 1-.044-.019.034.034 0 0 1 .019-.044.647.647 0 0 1 .508.01l.037.018a.033.033 0 0 1 .016.044.032.032 0 0 1-.03.017ZM48.126 15.913a.363.363 0 0 1 .308-.134.046.046 0 0 0 .044-.045.046.046 0 0 0-.045-.044.448.448 0 0 0-.381.181.043.043 0 0 0 0 .034c.002.006.005.01.01.015a.041.041 0 0 0 .02.01c.008 0 .016 0 .024-.002a.047.047 0 0 0 .02-.015ZM49.352 16.012a.046.046 0 0 0 .015-.061.435.435 0 0 0-.338-.225.042.042 0 0 0-.032.01.042.042 0 0 0 0 .061.043.043 0 0 0 .03.013.356.356 0 0 1 .267.182.04.04 0 0 0 .044.023.042.042 0 0 0 .017-.007l-.003.004Z"/><path fill="#263238" d="M48.726 14.152a.62.62 0 0 1 .524.238c.019.024-.12.702-.268.717a2.203 2.203 0 0 1-1.009-.134.678.678 0 0 0-.183-.045c-.063 0-.378.291-.439.424a1.613 1.613 0 0 0-.11.42.386.386 0 0 1-.038.133c-.022.04-.034.075-.078.073a.702.702 0 0 0-.046.41c.028.137.068.272.121.402l.107.281c-.047 0-.605-.233-.804-.299a2.02 2.02 0 0 1-.372-1.26c0-.127.012-.525.073-.636a.392.392 0 0 1 .297-.212c-.08-.322.191-.402.5-.522.31-.12.659-.082.986-.02.244.039.492.05.74.03Z"/><path fill="#FFB573" d="M46.597 16.199c.303.036.451.438.458.703.01.295-.21.516-.48.36a.873.873 0 0 1-.402-.537.402.402 0 0 1 .424-.526Z"/><path fill="#407BFF" d="M45.627 20.337c.008-1.154-1.555-1.157-1.742-.088v.031c-.173 1.094.193 3.735.402 4.73a.89.89 0 0 0 1.044.696l3.116-.603-.165-1.489-2.052.275a.334.334 0 0 1-.376-.314l-.227-3.238Z"/><path fill="#FFB573" d="m47.99 24.812.794-.203a.466.466 0 0 1 .22 0l.726.164a.464.464 0 0 0 .437-.134l.367-.375a.467.467 0 0 0-.018-.67l-.118-.108a.467.467 0 0 0-.577-.044.46.46 0 0 1-.297.076h-.044a.465.465 0 0 0-.468.28l-.047.106-1.123.134.148.774ZM47.694 23.8l-.812-.108a.47.47 0 0 1-.204-.08l-.613-.425a.47.47 0 0 0-.454-.044l-.481.209a.47.47 0 0 0-.236.635l.07.145a.467.467 0 0 0 .517.255.46.46 0 0 1 .304.042l.039.019a.47.47 0 0 0 .536-.085l.083-.08 1.093.293.158-.775Z"/><path fill="#263238" d="m47.822 23.783-.819-.174-.222 1.058.79.208.25-1.092Z"/><path fill="#fff" d="m47.822 23.783-.819-.174-.222 1.058.79.208.25-1.092Z" opacity=".7"/><path fill="#407BFF" d="M51.475 25.202a.892.892 0 0 1-1.09.618L47.316 25l.268-1.474 2.03.417c2 .268 1.86 1.258 1.86 1.258Z"/><path fill="#263238" d="m54.728 38.751-.536 8.884-2.01-.076s0-1.409-.056-3.382c-.049-1.608-.67-3.818-.3-5.516-1.949-3.484-4.472-6.311-4.88-7.32-.841-2.088-.123-4.75-.123-4.75l3.137-.057c.233 1.487.692 2.93 1.362 4.277l3.028 6.105c.28.57.41 1.201.378 1.835Z"/><path fill="#000" d="M50.492 36.478 47.78 30.49h1.637l1.077 5.988Z" opacity=".2"/><path fill="#263238" d="M44.998 26.569s-.932 2.329-.386 4.512c.267 1.085 4.123 9.413 4.123 9.413s.227 2.278 1.543 4.927l1.312 2.455 1.576-.06-1.933-8.514-1.92-6.112c-.584-2.182-1.046-4.395-1.126-6.652l-3.19.03ZM36.361 20.488c-.781-.605-1.258-.048-2.054-.494-.386-.216-.629-.126-.343-.441v-.008c.215-.272.392-.572.524-.893.159-.397.217-.828.167-1.254-.02-.233.04-.466.17-.662.435.077.992 0 1.188.402.15.456.231.93.242 1.41l-.24-.177c.121.306.239.516.334.708.158.301.035.893.012 1.41Z"/><path fill="#EEC8C0" d="M33.58 21.233c.357-.354.269-1.995.269-1.995l.995.718s.032 1.015.268 1.217c.056.048.14.012.21.017l-.07.256-.199.315-.268.178-.384-.012-.342-.108-.387-.287-.315-.268c.075-.01.171.02.224-.03Z"/><path fill="#000" d="M34.902 20.239c-.67-.095-.962-.45-1.093-.728l.036-.268.996.719.061.277Z" opacity=".1"/><path fill="#EEC8C0" d="M36.046 18.823v.017c0 .056 0 .114-.007.168a1.073 1.073 0 0 1-1.19.996h-.009a1.25 1.25 0 0 1-.627-.245 1.631 1.631 0 0 1-.244-.213 1.288 1.288 0 0 1-.12-.152l-.022-.033a1.449 1.449 0 0 1-.066-.116l-.029-.063v-.008l-.019-.046a4.163 4.163 0 0 1-.174-.604c0-.019-.01-.039-.015-.06v-.022l-.059-.268a1.182 1.182 0 0 1 1.372-1.439l.054.01c.409.093.697.403.885.791.02.038.037.077.052.117a2.957 2.957 0 0 1 .151.494v.031c.023.104.039.208.047.314.014.11.02.22.02.33Z"/><path fill="#263238" d="M35.599 18.095c.01.07-.018.134-.062.134s-.093-.043-.105-.114a.134.134 0 0 1 .044-.134h.007l.153-.072s-.03.07-.082.088a.159.159 0 0 1 .044.098Z"/><path fill="#ED893E" d="M35.376 18.256c.115.13.247.244.393.337a.31.31 0 0 1-.221.134l-.172-.471Z"/><path fill="#263238" d="M34.519 18.074a.042.042 0 0 0 .039-.03.497.497 0 0 1 .296-.264.043.043 0 0 0 .028-.052.041.041 0 0 0-.05-.028.561.561 0 0 0-.352.313.039.039 0 0 0-.002.016c0 .006.002.01.005.015a.039.039 0 0 0 .024.02l.012.01ZM35.828 17.654a.04.04 0 0 0 .036-.021.04.04 0 0 0 .005-.032.042.042 0 0 0-.02-.026.403.403 0 0 0-.382-.027.04.04 0 0 0-.02.053.04.04 0 0 0 .024.02c.01.004.021.003.031-.002a.327.327 0 0 1 .299.026.05.05 0 0 0 .027.01ZM34.81 18.238c.011.07-.018.134-.062.141-.044.007-.091-.044-.105-.115-.013-.071.02-.134.065-.141h.009l.134-.06a.19.19 0 0 1-.08.085.15.15 0 0 1 .038.09Z"/><path fill="#EEC8C0" d="m32.45 23.751-.558 1.33c-.162.39.014.971.188 1.377.395.915 1.007 2.36 1.007 2.36-.11.332-.683.253-.683.253s-1.035-1.593-1.466-3.154c-.287-1.035.438-3.361 1.072-4.22.193-.261.815-.691.815-.691l-.122 2.891-.253-.146Z"/><path fill="#EEC8C0" d="m32.809 28.634.423.275a.11.11 0 0 1 .036.035l.355.508c.02.027.027.06.023.092l-.03.223a.11.11 0 0 1-.056.085l-.596.32a.12.12 0 0 1-.132-.02.12.12 0 0 1-.027-.038l-.349-.701a.185.185 0 0 1-.013-.044l-.059-.498a.118.118 0 0 1 .06-.119l.252-.118a.114.114 0 0 1 .113 0ZM36.212 28.425l-3.736-.753s.567-.938-.22-4.449c-.361-1.608.287-2.46 1.544-2.567a2.57 2.57 0 0 1 .177-.012c.51-.018 1.157.39 1.556.696h.006c.125.134.244.278.386.432 1.169 1.269.134 2.333.236 5.447v.083c-.015.375.002.75.051 1.123Z"/><path fill="#263238" d="M34.4 16.117a.877.877 0 0 0-.73.089 1.606 1.606 0 0 0-.528.536 2.813 2.813 0 0 0-.368 1.768c.091.55.502 1.389 1.135 1.449-.346-1.218.268-2.747.587-3.836-.031.01-.058-.013-.095-.006Z"/><path fill="#EEC8C0" d="M33.332 18.872c.078.145.21.254.368.302.21.06.318-.134.261-.33-.052-.18-.223-.429-.436-.402a.281.281 0 0 0-.238.32.29.29 0 0 0 .045.11Z"/><path fill="#263238" d="M34.644 16.1c.725.173 1.323.47 1.508 1.514-.181-.034-.331.04-.527.173a1.595 1.595 0 0 0-.707-.709c-.083.222-.166.444-.248.67-.046.12-.107.393-.107.393a4.612 4.612 0 0 0-.587.047s-.168-.878.048-1.474c.092-.254.205-.52.435-.657l.185.043ZM36.161 27.223v.08c-1.032.459-2.956-.105-3.618-.3v-.379c.282-.134.658-.23.84-.32a3.85 3.85 0 0 0 1.625-1.487c.528-.897.821-2.12.523-3.119-.133-.446-.624-.729-1.031-.88-.145-.056-.645-.102-.701-.165 0-.037 0-.174.05-.162.982.212 1.354.493 1.69.852.125.134.584.743.725.897 1.169 1.271-.2 1.869-.103 4.983Z"/><path fill="#fff" d="M36.161 27.223v.08c-1.032.459-2.956-.105-3.618-.3v-.379c.282-.134.658-.23.84-.32a3.85 3.85 0 0 0 1.625-1.487c.528-.897.821-2.12.523-3.119-.133-.446-.624-.729-1.031-.88-.145-.056-.645-.102-.701-.165 0-.037 0-.174.05-.162.982.212 1.354.493 1.69.852.125.134.584.743.725.897 1.169 1.271-.2 1.869-.103 4.983Z" opacity=".3"/><path fill="#EEC8C0" d="M33.785 33.561s-.152.477-.387 1.206v.015c-.17.516-.377 1.158-.604 1.841-.436 1.32-.67 2.359-1.062 3.41-.453 1.223-3.095 5.84-3.79 6.967-.148.241-.286.488-.416.741l-.134.268-.684-.46.156-.365c.07-.185 2.412-6.321 2.869-8.01.608-2.279.928-6.059 1.696-8.52.071-.23.149-.45.23-.67 0 0 2.354 1.972 2.488 2.137.134.165-.362 1.44-.362 1.44Z"/><path fill="#000" d="M30.647 34.326s.614.818 2.623.835l.167-.517.126-.813.067-.303s-1.751-1.745-2.983.798Z" opacity=".1"/><path fill="#263238" d="m27.563 47.866-.835-.495c-.239.315-.662.79-.662.79a.16.16 0 0 0 .01.209.101.101 0 0 0 .024.017c.322.188.616.34 1.014.58.469.283.319.268.865.614.33.206.6-.172.47-.276-.601-.478-.881-1.24-.887-1.44Z"/><path fill="#EEC8C0" d="M36.195 31.939c-.089 1.82-.134 5.416-.327 7.236-.224 2.098-1.296 9.452-1.296 9.452l-.877-.087s-.38-5.812.04-8.79c.133-.93-.218-3.448-.362-4.948a174.855 174.855 0 0 0-.24-2.314s-.903-.343-1.44-1.11a2.042 2.042 0 0 1-.393-1.06c-.096-1.457 1.11-2.68 1.11-2.68l3.715.764s.114 2.633.07 3.537Z"/><path fill="#000" d="m33.262 33.98.134 1.126c-.102.23 2.026.241 2.725-.522v-.071l-.073-1.233-2.786.7Z" opacity=".1"/><path fill="#263238" d="M36.272 34.522s-2.52-.191-3.767-.08c-2.365.212-2.758-.763-2.758-.763s1.024-.169 1.356-3.71c.08-.851.744-1.713 1.104-2.124.169-.259.28-.55.326-.856l3.618.217.024.912s.134 1.369.146 1.716c.046 1.262-.05 4.688-.05 4.688Z"/><path fill="#fff" d="M36.272 34.522s-2.52-.191-3.767-.08c-2.365.212-2.758-.763-2.758-.763s1.024-.169 1.356-3.71c.08-.851.744-1.713 1.104-2.124.169-.259.28-.55.326-.856l3.618.217.024.912s.134 1.369.146 1.716c.046 1.262-.05 4.688-.05 4.688Z" opacity=".3"/><path fill="#263238" d="M34.66 48.429h-1.035c-.027 0-.047-.054-.058.09a4.25 4.25 0 0 1-.186 1.011l-.008.023a.184.184 0 0 0 .116.208.08.08 0 0 0 .031 0c.394 0 .744-.022 1.236-.014.58.01.435.089 1.116.111.411.013.47-.536.296-.565-.8-.122-1.422-.867-1.509-.864Z"/><path fill="#000" d="M34.737 21.515c-.376-.445-.393 2.712 1.028 3.847.87.697.887-1.587-1.028-3.847Z" opacity=".1"/><path fill="#EEC8C0" d="M34.29 21.499c.029.2.068.4.117.597 1.064 3.226 2.68 2.493 3.005 2.134.242-.554.202-2.966-.051-3.904l-.428.247c-.142.313-.15 3.036-.402 2.507 0 0-.774-1.01-.845-1.31a1.13 1.13 0 0 0-1.01-.87.544.544 0 0 0-.387.599Z"/><path fill="#EEC8C0" d="M37.082 20.614c-.42-.102-.67-.547-.67-.547l.845-.59.097.852-.272.285Z"/><path fill="#EEC8C0" d="m37.265 19.48-.844.589-.352-.94.727-.202.47.552Z"/><path fill="#263238" d="M35.363 19.12c.013.071.063.12.108.113.046-.008.073-.075.06-.145-.014-.07-.063-.12-.109-.113-.046.008-.074.074-.059.145ZM38.353 50.037a.333.333 0 0 1-.338-.248l-1.714-6.584h2.157l.415 6.298a.536.536 0 0 1-.52.534ZM46.026 50.037a.332.332 0 0 1-.338-.248l-1.714-6.584h2.155l.417 6.298a.536.536 0 0 1-.52.534Z"/><path fill="#fff" d="M46.026 50.037a.332.332 0 0 1-.338-.248l-1.714-6.584h2.155l.417 6.298a.536.536 0 0 1-.52.534Z" opacity=".2"/><path fill="#263238" d="M32.213 50.037a.332.332 0 0 0 .338-.248l1.714-6.584H32.11l-.417 6.298a.536.536 0 0 0 .52.534Z"/><path fill="#fff" d="M32.213 50.037a.332.332 0 0 0 .338-.248l1.714-6.584H32.11l-.417 6.298a.536.536 0 0 0 .52.534Z" opacity=".2"/><path fill="#263238" d="M24.542 50.037a.333.333 0 0 0 .338-.248l1.714-6.584h-2.157l-.415 6.298a.536.536 0 0 0 .52.534Z"/><path fill="#407BFF" d="m46.992 33.245-1.049 9.447c-.07.663-.727 1.175-1.523 1.2h-13.3c-.938 0-1.663-.663-1.582-1.43l1.049-9.447c.072-.68.76-1.206 1.582-1.206h13.24a.51.51 0 0 1 .064 0c.902.041 1.598.684 1.52 1.436Z"/><path fill="#fff" d="m46.992 33.245-1.049 9.447c-.07.663-.727 1.175-1.523 1.2h-13.3c-.938 0-1.663-.663-1.582-1.43l1.049-9.447c.072-.68.76-1.206 1.582-1.206h13.24a.51.51 0 0 1 .064 0c.902.041 1.598.684 1.52 1.436Z" opacity=".5"/><path fill="#407BFF" d="m47.72 33.245-1.05 9.447c-.07.663-.727 1.175-1.523 1.2-.902-.029-1.6-.677-1.52-1.429l1.05-9.447c.07-.663.726-1.177 1.523-1.2.902.034 1.599.677 1.52 1.43Z"/><path fill="#fff" d="m47.72 33.245-1.05 9.447c-.07.663-.727 1.175-1.523 1.2-.902-.029-1.6-.677-1.52-1.429l1.05-9.447c.07-.663.726-1.177 1.523-1.2.902.034 1.599.677 1.52 1.43Z" opacity=".3"/><path fill="#407BFF" d="M45.066 41.325h-9.219c-.925 0-1.676.75-1.676 1.676v1.077c0 .925.75 1.676 1.676 1.676h9.22c.925 0 1.676-.75 1.676-1.676V43c0-.925-.75-1.676-1.677-1.676Z"/><path fill="#fff" d="M45.066 41.325h-9.219c-.925 0-1.676.75-1.676 1.676v1.077c0 .925.75 1.676 1.676 1.676h9.22c.925 0 1.676-.75 1.676-1.676V43c0-.925-.75-1.676-1.677-1.676Z" opacity=".3"/><path fill="#407BFF" d="M39.132 41.325H24.78c-.906 0-1.641.735-1.641 1.642v1.145c0 .907.735 1.642 1.641 1.642h14.352c.906 0 1.641-.735 1.641-1.642v-1.145c0-.907-.735-1.642-1.641-1.642Z"/><path fill="#fff" d="M39.132 41.325H24.78c-.906 0-1.641.735-1.641 1.642v1.145c0 .907.735 1.642 1.641 1.642h14.352c.906 0 1.641-.735 1.641-1.642v-1.145c0-.907-.735-1.642-1.641-1.642Z" opacity=".6"/><path fill="#7F3E3B" d="m28.64 45.934-1.184 2.25-.727-.5.726-2.24 1.185.49Z"/><path fill="#407BFF" d="M38.23 36.347a8.038 8.038 0 0 1-2.252-.335 2.136 2.136 0 0 1-.656 1.426l-.155.15s-4.617-1.123-5.249.328c-.536 1.239-3.058 8.425-3.058 8.425l1.54.67s2.252-3.157 3.287-5.698c.056-.134.246-.848.246-.848a13.558 13.558 0 0 0 6 1.09c.455-.02.912-.31.803-1.797a31.63 31.63 0 0 0-.506-3.41Z"/><path fill="#000" d="M35.523 40.694c-1.29-.6-3.068-2.212-3.892-2.814a1.839 1.839 0 0 0-.645-.312c.728-.143 1.655-.118 2.452-.046l1.877.871 3.017 1.41.357 1.08c-.142.578-.507.655-.834.67-1.27.05-2.541-.071-3.779-.362.153.022 2.695.089 1.447-.497Z" opacity=".2"/><path fill="#7F3E3B" d="m26.402 41.782-1.659 1.616-.621-.51 1.287-1.864.993.758Z"/><path fill="#407BFF" d="m24.242 42.665.723.575a.086.086 0 0 1 .023.105l-.386.794a.141.141 0 0 1-.189.067l-.026-.015c-.295-.243-.549-.471-.922-.767-.441-.349-.372-.208-.894-.611-.315-.244-.091-.644.055-.556.67.402.982.356 1.387.325a.34.34 0 0 1 .229.083Z"/><path fill="#407BFF" d="M23.948 42.63a.018.018 0 0 0 .01.003.018.018 0 0 0 .01-.003.02.02 0 0 0 0-.021c-.015-.035-.156-.352-.262-.373a.063.063 0 0 0-.056.019.107.107 0 0 0-.031.091c.016.113.209.23.322.287l.008-.003Zm-.238-.36c.059.021.147.178.205.3-.151-.084-.245-.171-.255-.234a.062.062 0 0 1 .022-.06.018.018 0 0 1 .009-.007.018.018 0 0 1 .01 0l.009.001Z"/><path fill="#407BFF" d="M23.948 42.63a.02.02 0 0 0 .01-.002.52.52 0 0 0 .11-.314.134.134 0 0 0-.06-.088c-.042-.028-.07-.018-.086 0-.07.062-.034.307.012.402a.02.02 0 0 0 .014.002Zm.026-.381.015.012a.088.088 0 0 1 .043.064.429.429 0 0 1-.077.25c-.036-.104-.048-.285-.007-.321a.019.019 0 0 1 .024 0l.002-.005ZM26.478 47.575a.02.02 0 0 0 .007-.019.019.019 0 0 0-.015-.016c-.04-.008-.395-.067-.473.014a.063.063 0 0 0-.014.058.107.107 0 0 0 .06.08c.107.05.317-.05.433-.116l.002-.001Zm-.447 0a.771.771 0 0 1 .376-.007c-.16.083-.288.116-.348.087a.07.07 0 0 1-.04-.052.03.03 0 0 1-.003-.011l.003-.012.012-.005Z"/><path fill="#407BFF" d="M26.478 47.575a.018.018 0 0 0 .003-.01c0-.003 0-.006-.003-.009 0-.008-.085-.213-.207-.268a.147.147 0 0 0-.111 0c-.049.022-.055.051-.053.074.014.095.247.204.351.217h.01a.024.024 0 0 0 .01-.004Zm-.316-.241.019-.007a.109.109 0 0 1 .082 0c.077.05.138.124.173.21-.113-.029-.275-.121-.283-.178 0 0 0-.013.01-.022v-.003ZM37.083 36.232c1.272.218 2.57.244 3.85.076 0 0 1.326 5.103-2.463 5.092-1.4 0-1.973-.595-2.873-1.145-2.05-1.253-3.728-3.083-4.53-2.983-1.156.146-.527 1.526-5.293 5.264l-.959-.873s3.602-7.917 5.97-7.917c2.054 0 5.287 3.162 5.72 3.173.433.01.578-.687.578-.687Z"/><path fill="#000" d="M30.418 37.563a1.102 1.102 0 0 0-.615.535c-.082.22-.14.449-.175.681-.134.19-.296.402-.486.633.151-1.532 1.276-1.85 1.276-1.85Z" opacity=".2"/><path fill="#407BFF" d="m26.792 47.562.875.392a.089.089 0 0 1 .051.098l-.185.9a.144.144 0 0 1-.062.094.146.146 0 0 1-.11.022l-.03-.01c-.36-.169-.67-.332-1.124-.536-.536-.237-.427-.114-1.056-.384-.38-.165-.258-.625-.087-.574.773.236 1.078.108 1.474-.028a.352.352 0 0 1 .254.026Z"/><path fill="#7F3E3B" d="M33.043 30.218s-.29-.596-.114-.722c.175-.126.143.033.143.033l.366.737-.395-.048Z"/><path fill="#7F3E3B" d="M32.58 30.861c-.164-.024-.182-.149-.269-.29 0 0-.25-.57-.05-.655.206-.021.413-.029.62-.021a.67.67 0 0 1 .61.516c.184.626-.912.45-.912.45Z"/><path fill="#7F3E3B" d="m32.82 30.806.8 1.288.8-.145-.959-1.262-.642.12Z"/><path fill="#407BFF" d="M36.954 29.974s-.951-.047-1.318 1.81c-.268 1.357-.313 1.207-.313 1.207l-1.518-2.093-.873.35s1.766 3.53 2.68 3.24c0 0 .47-.022.826-.803.357-.782.516-3.71.516-3.71Z"/><path fill="#263238" d="M36.954 29.974s-.951-.047-1.318 1.81c-.268 1.357-.313 1.207-.313 1.207l-1.518-2.093-.873.35s1.766 3.53 2.68 3.24c0 0 .47-.022.826-.803.357-.782.516-3.71.516-3.71Z"/><path fill="#263238" d="M36.055 31.345c-.01.438-.77 1.4.042 2.044-.185.344-.482 2.75-.185 3.197 0 0 3.003.445 5.13.31.148-.865-.22-2.665.56-5.439a1.124 1.124 0 0 0-.894-1.412c-.176-.03-.364-.057-.555-.08a13.962 13.962 0 0 0-2.01-.134c-.22 0-.447.017-.663.032a1.527 1.527 0 0 0-1.425 1.482Z"/><path fill="#000" d="M39.902 32.9c.158-.806.398-1.592.715-2.348l.056.511.169.215c-.28.847 1.159 2.256-.465 4.22a.283.283 0 0 1-.326.08c-.682-.284-1.44-1.167-1.44-1.167l.357-.912c.481.227.804.093.934-.6Z" opacity=".2"/><path fill="#263238" d="m36.54 33.147.597.011a.174.174 0 0 0 .18-.138.174.174 0 0 0-.002-.082l-.303-1.566a.29.29 0 0 0-.268-.227l-.596-.01a.175.175 0 0 0-.18.218l.306 1.57a.29.29 0 0 0 .265.224Z"/><path fill="#fff" d="m36.54 33.147.597.011a.174.174 0 0 0 .18-.138.174.174 0 0 0-.002-.082l-.303-1.566a.29.29 0 0 0-.268-.227l-.596-.01a.175.175 0 0 0-.18.218l.306 1.57a.29.29 0 0 0 .265.224Z" opacity=".3"/><path fill="#263238" d="m36.448 33.146.598.01a.177.177 0 0 0 .146-.064.176.176 0 0 0 .033-.155l-.304-1.567a.292.292 0 0 0-.268-.227l-.597-.011a.174.174 0 0 0-.182.138.175.175 0 0 0 .002.082l.304 1.57a.292.292 0 0 0 .268.224Z"/><path fill="#fff" d="m36.448 33.146.598.01a.177.177 0 0 0 .146-.064.176.176 0 0 0 .033-.155l-.304-1.567a.292.292 0 0 0-.268-.227l-.597-.011a.174.174 0 0 0-.182.138.175.175 0 0 0 .002.082l.304 1.57a.292.292 0 0 0 .268.224Z" opacity=".7"/><path fill="#263238" d="M36.715 31.606h-.057a.193.193 0 0 1-.178-.153l-.012-.057a.118.118 0 0 1 .12-.148h.058a.193.193 0 0 1 .178.152l.012.059a.117.117 0 0 1-.066.137.117.117 0 0 1-.055.01Z"/><path fill="#263238" d="M36.582 31.335a.077.077 0 0 0 .074.063.048.048 0 0 0 .04-.017.048.048 0 0 0 .01-.043.079.079 0 0 0-.074-.063.048.048 0 0 0-.04.018.049.049 0 0 0-.01.043ZM36.611 31.515a.083.083 0 0 0 .075.063.049.049 0 0 0 .022-.005.049.049 0 0 0 .028-.034.05.05 0 0 0 0-.023.082.082 0 0 0-.074-.063.049.049 0 0 0-.041.018.05.05 0 0 0-.01.044Z"/><path fill="#7F3E3B" d="m37.276 33.055.917.907.403-.64-.962-.724-.358.457Z"/><path fill="#263238" d="M41.649 32.085c.097-.53.11-1.608-.448-1.81-.653-.235-.828.751-.968 1.642-.139.891-.417 2-.63 1.892-.446-.226-1.224-.74-1.224-.74l-.47.728s1.64 1.749 2.386 1.34c.843-.46 1.229-2.381 1.354-3.052Z"/><path fill="#7F3E3B" d="M39.65 28.5c-.094.468-.089.95.016 1.417 0 0-1.8 1.15-1.8-.034 0 0 .559.067.607-.65.027-.406.452-.819 1.178-.733Z"/><path fill="#000" d="M38.472 29.234c.048-.375.396-.758 1.025-.743l.042.038.044.082s-.402 1.033-1.18.909a1.15 1.15 0 0 0 .07-.286Z" opacity=".2"/><path fill="#7F3E3B" d="M40.066 27.095c-.134.976-.177 1.393-.713 1.857-.804.7-1.978.315-2.134-.685-.14-.9.112-2.346 1.103-2.66a1.34 1.34 0 0 1 1.742 1.488h.002Z"/><path fill="#630F0F" d="M37.886 27.632a2.176 2.176 0 0 1-.326.489.34.34 0 0 0 .28.076l.046-.565Z"/><path fill="#263238" d="M38.758 27.137a.04.04 0 0 0 .027-.063.457.457 0 0 0-.378-.187.042.042 0 0 0-.036.043.04.04 0 0 0 .041.035.39.39 0 0 1 .313.158.04.04 0 0 0 .033.014ZM37.308 26.955a.032.032 0 0 0 .02-.007.382.382 0 0 1 .34-.063c.006.002.01.003.016.003a.039.039 0 0 0 .035-.054.039.039 0 0 0-.022-.021.46.46 0 0 0-.417.071.04.04 0 0 0-.01.055.039.039 0 0 0 .038.016ZM38.458 27.546c0 .08-.054.14-.106.134-.052-.007-.09-.072-.083-.153.007-.08.055-.134.106-.134.05 0 .092.073.083.153ZM37.558 27.472c0 .08-.055.142-.106.134-.051-.008-.09-.072-.083-.152.006-.08.053-.141.106-.134.052.006.09.072.083.152Z"/><path fill="#263238" d="m37.496 27.326-.186-.07s.086.157.186.07ZM38.4 27.4l-.187-.071s.087.158.187.07ZM38.348 28.346a.64.64 0 0 0 .06-.076.02.02 0 0 0 0-.027.02.02 0 0 0-.028 0 .52.52 0 0 1-.402.242.019.019 0 0 0-.019.02.019.019 0 0 0 .02.018.536.536 0 0 0 .37-.177Z"/><path fill="#263238" d="M39.178 25.39s1.538-.299 1.894 2.203c.178 1.246-1.52 1.944-1.52 1.944v-.26c0-.374.077-.744.224-1.088l.113-.268-.74-1.029s-.44-.134-.502-.55c0 0-.105.147.062.414 0 0-1.129.044-1.073-.537a.357.357 0 0 0-.006.315s-.351-.006-.308-.313c.042-.307.319-1.59 1.855-.831Z"/><path fill="#7F3E3B" d="M40.232 27.89a.718.718 0 0 1-.38.401c-.233.1-.383-.099-.346-.336.032-.213.193-.521.44-.521a.324.324 0 0 1 .286.46v-.005ZM36.492 32.73l.134.219a.298.298 0 0 0 .235.142l.451.032a.551.551 0 0 0 .476-.2l.072-.087c-.198-.38-.693-.644-.693-.644l-.134-.091a.252.252 0 0 0-.35.056l-.184.26a.287.287 0 0 0-.007.312Z"/><path fill="#FFB573" d="m16.398 18.522-1.963.295-1.138-2.905c-.048-.169-.252.075-.425.047l-.297-.048c-.028-.055.548 2.49.93 3.988.155.612 3.29-.05 3.29-.05 1.22-.55-.397-1.327-.397-1.327Z"/><path fill="#407BFF" d="M15.229 18.45c.077.636.254 1.255.525 1.835a.183.183 0 0 0 .174.102c.999-.062 1.437-.3 1.437-.3-.09-.3.31-1.95.103-2.166a3.958 3.958 0 0 0-.82.236c-.228.114-1.42.293-1.42.293Z"/><path fill="#407BFF" d="M17.078 20.242c.012 2.765-.232 5.14-.232 5.14s4.791.02 4.959.024c.385-3.204.663-4.02.763-5.974.05-.804-.402-1.52-.87-1.608l-.087-.01c-1.34-.178-2.79-.035-4.137.107-.522.07-.346 1.021-.396 2.32Z"/><path fill="#FFB573" d="M19.13 39.22c-.402 3.677-.075 10.262-.075 10.262l.841.023s.642-6.1.67-10.489l-1.436.204Z"/><path fill="#FFB573" d="M19.13 39.22c-.402 3.677-.075 10.262-.075 10.262l.841.023s.642-6.1.67-10.489l-1.436.204Z"/><path fill="#263238" d="M20.22 49.08c.622.355.692.363 1.378.504.15.03.094.388-.256.392-.577.01-.536-.01-1.024 0-.42 0-1.03.028-1.365.037h-.01a.145.145 0 0 1-.135-.15l.062-.772a.069.069 0 0 1 .066-.06l1.072-.009c.074 0 .147.02.211.058Z"/><path fill="#407BFF" d="M20.163 49.093c.134.027.386.06.479-.027a.118.118 0 0 0 .036-.102.077.077 0 0 0-.012-.031.077.077 0 0 0-.024-.023c-.106-.057-.448.123-.486.144a.024.024 0 0 0-.01.022.022.022 0 0 0 .014.016l.003.001Zm.46-.146a.024.024 0 0 1 .013.02.073.073 0 0 1-.023.067c-.052.048-.193.06-.383.028.134-.067.32-.142.385-.12l.008.005Z"/><path fill="#407BFF" d="M20.175 49.093c.102-.048.304-.237.284-.337 0-.025-.021-.053-.077-.058a.147.147 0 0 0-.113.038.588.588 0 0 0-.121.347.024.024 0 0 0 .007.009.019.019 0 0 0 .02.001Zm.225-.348c.018 0 .02.015.02.019.01.06-.124.209-.23.276a.491.491 0 0 1 .107-.268.1.1 0 0 1 .083-.027h.02Z"/><path fill="#FFB573" d="M16.087 39.436c-.523 3.66-2.463 9.963-2.463 9.963l-.922-.019s.886-6.068 1.94-10.329l1.445.385Z"/><path fill="#263238" d="M12.462 49.041c-.65.37-.722.378-1.437.525-.156.032-.099.402.268.409.604.01.553-.012 1.073-.007.438 0 1.072.03 1.421.04h.012a.15.15 0 0 0 .134-.158l-.064-.804a.07.07 0 0 0-.068-.062l-1.111-.009a.44.44 0 0 0-.228.066Z"/><path fill="#407BFF" d="M12.52 49.053a.02.02 0 0 0 .01-.006.02.02 0 0 0 .005-.01c0-.005 0-.01-.002-.013a.021.021 0 0 0-.01-.01c-.038-.021-.393-.208-.504-.15a.076.076 0 0 0-.038.058.12.12 0 0 0 .038.104c.096.09.354.058.498.03l.003-.003Zm-.473-.155c.067-.022.261.056.402.125-.198.031-.346.02-.402-.029a.077.077 0 0 1-.024-.07l.003-.012a.024.024 0 0 1 .01-.01l.01-.005Z"/><path fill="#407BFF" d="M12.52 49.053a.02.02 0 0 0 .008-.009.606.606 0 0 0-.132-.363.155.155 0 0 0-.117-.038c-.06.007-.077.036-.08.06-.02.106.188.302.295.353a.018.018 0 0 0 .014.003c.004 0 .009-.002.012-.006Zm-.25-.364h.022a.111.111 0 0 1 .086.028.514.514 0 0 1 .111.285c-.11-.07-.25-.225-.239-.287 0 0 0-.015.02-.02v-.007Z"/><path fill="#263238" d="M18.793 31.646c-.417.754-2.56 8.258-2.56 8.258l-.939 4.356c-.137.63-.237 1.269-.299 1.91l-.187 1.393-2.164.027c.044-.19.447-2.112 1.392-8.16.973-6.221 2.77-14.027 2.77-14.027s2.759-.107 3.946.075c.332 1.682-1.053 4.55-1.96 6.168Z"/><path fill="#000" d="M18.186 29.458s-.708 4.268-.497 5.513l1.524-4.907-1.027-.606Z" opacity=".2"/><path fill="#263238" d="M20.489 47.59c.05-.075.337-6.195.447-7.929l.831-9.623s.469-3.2.032-4.632l-4.03-.028s1.084 11.781.838 17.721a259.69 259.69 0 0 0-.142 4.492l2.024-.001Z"/><path fill="#FFB573" d="M20.296 17.792c.301.215.173.552-.072.828-.283.33-.64.59-1.043.753-.008 0-1.33-.958-.395-1.555.154-.1.214-.334.231-.58a2.914 2.914 0 0 0-.042-.693 1.127 1.127 0 0 0-.027-.134l1.4-.58c-.154.233-.268.975-.238 1.215.036.273.047.647.186.746Z"/><path fill="#000" d="M19.028 17.233c.01-.187.003-.374-.023-.56a1.35 1.35 0 0 0-.018-.134l1.082-.208c-.237.224-.552.685-1.04.902Z" opacity=".2"/><path fill="#FFB573" d="M17.83 15.868c.174.947 1.31 1.447 2.058.768.433-.392.501-.858.58-1.586.014-.11.026-.226.04-.35a1.287 1.287 0 0 0-.156-.79 1.292 1.292 0 0 0-1.54-.595c-.94.318-1.14 1.7-.982 2.553Z"/><path fill="#263238" d="M19.003 14.727c-.05 0-.094.058-.098.134-.004.077.026.141.083.144.056.003.099-.056.103-.134.004-.078-.039-.14-.088-.144ZM18.152 14.72c-.05 0-.094.056-.098.135-.004.079.032.134.083.143.051.01.094-.056.098-.134.004-.077-.034-.14-.083-.143Z"/><path fill="#ED893E" d="M18.51 15.613a.714.714 0 0 1-.457-.156c.191-.174.358-.372.497-.59l-.04.746Z"/><path fill="#263238" d="M19.296 14.652a.364.364 0 0 0-.289-.15h-.015a.047.047 0 0 1-.043-.046c0-.006.002-.012.005-.018a.045.045 0 0 1 .044-.025.448.448 0 0 1 .365.182.046.046 0 0 1-.008.063.033.033 0 0 1-.021.008.045.045 0 0 1-.038-.014ZM17.841 14.338a.045.045 0 0 1 .014-.033.045.045 0 0 1 .032-.013.443.443 0 0 1 .366.181.042.042 0 0 1 .006.033.042.042 0 0 1-.067.025.355.355 0 0 0-.302-.147.04.04 0 0 1-.038-.019.045.045 0 0 1-.01-.027Z"/><path fill="#263238" d="M19.883 14.079c.053.19.073.39.056.587a1.272 1.272 0 0 1 .253 1.043c.141-.233.361-.406.62-.488.08-.352.116-.712.107-1.072a.925.925 0 0 0-.078-.402.368.368 0 0 0-.328-.216c.016-.143-.118-.268-.242-.338a2.251 2.251 0 0 0-2.405.066h-.336a.907.907 0 0 0 .38.611.693.693 0 0 1 .118.123c.246.073.506.082.756.027.25-.058.5-.102.755-.134a.34.34 0 0 1 .344.193Z"/><path fill="#FFB573" d="M20.542 14.994c-.307 0-.495.393-.527.657-.037.295.16.536.444.402a.876.876 0 0 0 .458-.503.401.401 0 0 0-.375-.556Z"/><path fill="#263238" d="M18.269 15.875s.268-.107 1.036-.2c-.045.281-.214.402-.611.442-.398.04-.425-.242-.425-.242Z"/><path fill="#fff" d="M18.303 15.864a.187.187 0 0 0 .145.12c.228-.028.452-.078.67-.15a.203.203 0 0 0 .151-.152c-.326.031-.65.092-.966.182Z"/><path fill="#fff" d="M18.464 15.96c.195-.079.401-.127.611-.143a.33.33 0 0 1 .162.066c-.085.134-.257.207-.536.24a.45.45 0 0 1-.308-.057.427.427 0 0 1 .071-.106Z"/><path fill="#FFB573" d="M12.819 15.577s-.26-.646-.066-.765c.193-.12.147.046.147.046l.329.804-.41-.085Z"/><path fill="#FFB573" d="M12.284 16.216c-.17-.037-.178-.169-.256-.324 0 0-.218-.615 0-.689.218-.007.437 0 .654.023a.706.706 0 0 1 .6.588c.138.669-.998.402-.998.402Z"/><path fill="#000" d="m21.463 18.857.75 3.474.606-3.336-1.356-.138Z" opacity=".2"/><path fill="#FFB573" d="M23.036 19.012c.113.301.219.604.32.91.102.305.2.61.295.917.096.307.187.617.278.926.083.231.123.476.119.721a1.565 1.565 0 0 1-.07.402c-.03.1-.067.199-.11.295l-.026.062c-.303.52-.611 1.038-.924 1.553-.156.257-.31.517-.471.773-.162.256-.318.512-.483.765a.39.39 0 0 1-.692-.351c.105-.283.22-.562.33-.843.112-.281.23-.557.343-.836.23-.558.464-1.112.705-1.664l-.03.065a1.06 1.06 0 0 0 .041-.165.143.143 0 0 0 0-.076l-.023-.06-.064-.157a52.48 52.48 0 0 1-.683-1.82c-.108-.305-.21-.613-.309-.922a.77.77 0 1 1 1.458-.5l-.004.005Z"/><path fill="#FFB573" d="m21.38 25.878-.536.67s.45.7.75.599c.298-.1.401-.9.401-.9l-.615-.37Z"/><path fill="#407BFF" d="M21.85 17.871s-.982.161-.231 2.11c.584 1.519.628 1.3.628 1.3l1.474-.862s-.539-2.623-1.87-2.548ZM53.6 10.213h-6.614a.33.33 0 0 0-.33.33v1.834a.33.33 0 0 0 .33.33h.997l.04.68a.268.268 0 0 0 .453.02l.425-.7h4.69a.331.331 0 0 0 .33-.33v-1.833a.33.33 0 0 0-.32-.33Z"/><path fill="#fff" d="M53.6 10.213h-6.614a.33.33 0 0 0-.33.33v1.834a.33.33 0 0 0 .33.33h.997l.04.68a.268.268 0 0 0 .453.02l.425-.7h4.69a.331.331 0 0 0 .33-.33v-1.833a.33.33 0 0 0-.32-.33Z" opacity=".7"/><path fill="#407BFF" d="m47.99 12.03.157-.317.352-.053-.255-.248.06-.35-.314.167-.314-.166.06.35-.254.247.351.053.157.317ZM49.172 12.03l.157-.317.35-.053-.253-.248.06-.35-.314.167-.315-.166.06.35-.255.247.353.053.157.317Z"/><path fill="#263238" d="m50.353 12.03.157-.317.351-.053-.255-.248.06-.35-.313.167-.315-.166.06.35-.254.247.351.053.158.317ZM51.534 12.03l.158-.317.35-.053-.254-.248.06-.35-.314.167-.314-.166.06.35-.254.247.35.053.158.317ZM52.716 12.03l.157-.317.352-.053-.255-.248.06-.35-.314.167-.314-.166.06.35-.254.247.351.053.157.317Z"/><path fill="#407BFF" d="M30.03 11.971h6.607a.332.332 0 0 1 .33.331v1.835a.331.331 0 0 1-.33.33h-.993l-.039.68a.269.269 0 0 1-.453.017l-.426-.698h-4.69a.33.33 0 0 1-.33-.33v-1.834a.332.332 0 0 1 .325-.33Z"/><path fill="#fff" d="M30.03 11.971h6.607a.332.332 0 0 1 .33.331v1.835a.331.331 0 0 1-.33.33h-.993l-.039.68a.269.269 0 0 1-.453.017l-.426-.698h-4.69a.33.33 0 0 1-.33-.33v-1.834a.332.332 0 0 1 .325-.33Z" opacity=".7"/><path fill="#407BFF" d="m30.997 12.714.157.317.352.051-.255.248.06.35-.314-.165-.315.165.06-.35-.255-.248.353-.05.157-.318ZM32.179 12.714l.157.317.35.051-.254.248.06.35-.313-.165-.315.165.06-.35-.254-.248.35-.05.159-.318ZM33.36 12.714l.158.317.35.051-.254.248.06.35-.315-.165-.313.165.06-.35-.254-.248.35-.05.157-.318Z"/><path fill="#263238" d="m34.541 12.714.157.317.352.051-.254.248.06.35-.315-.165-.313.165.059-.35-.254-.248.352-.05.156-.318ZM35.723 12.714l.157.317.35.051-.252.248.06.35-.315-.165-.315.165.06-.35-.254-.248.352-.05.157-.318Z"/><path fill="#407BFF" d="M32.21 37.436h6.608a.331.331 0 0 0 .33-.33v-1.834a.33.33 0 0 0-.33-.33h-.996l-.034-.68a.269.269 0 0 0-.453-.017l-.425.699h-4.69a.33.33 0 0 0-.33.33v1.834a.331.331 0 0 0 .32.328Z"/><path fill="#fff" d="M32.21 37.436h6.608a.331.331 0 0 0 .33-.33v-1.834a.33.33 0 0 0-.33-.33h-.996l-.034-.68a.269.269 0 0 0-.453-.017l-.425.699h-4.69a.33.33 0 0 0-.33.33v1.834a.331.331 0 0 0 .32.328Z" opacity=".7"/><path fill="#407BFF" d="m33.213 35.618.158.319.351.05-.254.249.06.35-.315-.165-.313.164.06-.35-.255-.247.351-.051.157-.32ZM34.395 35.618l.157.319.352.05-.255.249.06.35-.314-.165-.314.164.06-.35-.255-.247.352-.051.157-.32ZM35.577 35.618l.157.319.35.05-.253.249.06.35-.314-.165-.315.164.06-.35-.254-.247.35-.051.159-.32ZM36.76 35.618l.156.319.35.05-.254.249.06.35-.313-.165-.315.164.06-.35-.254-.247.351-.051.158-.32Z"/><path fill="#263238" d="m37.94 35.618.158.319.35.05-.254.249.06.35-.314-.165-.314.164.06-.35-.254-.247.35-.051.158-.32Z"/><path fill="#407BFF" d="M13.91 9.158h6.79a.33.33 0 0 1 .33.33v1.835a.33.33 0 0 1-.33.33h-2.378l-.413.68a.268.268 0 0 1-.453.019l-.426-.7h-3.12a.331.331 0 0 1-.33-.33V9.489a.331.331 0 0 1 .33-.33Z"/><path fill="#fff" d="M13.91 9.158h6.79a.33.33 0 0 1 .33.33v1.835a.33.33 0 0 1-.33.33h-2.378l-.413.68a.268.268 0 0 1-.453.019l-.426-.7h-3.12a.331.331 0 0 1-.33-.33V9.489a.331.331 0 0 1 .33-.33Z" opacity=".7"/><path fill="#407BFF" d="m15.038 9.856.159.318.35.052-.254.247.06.35-.315-.165-.313.166.06-.351-.254-.247.35-.052.157-.318ZM16.22 9.856l.157.318.353.052-.255.247.06.35-.315-.165-.313.166.059-.351-.254-.247.352-.052.156-.318ZM17.402 9.856l.157.318.351.052-.253.247.06.35-.314-.165-.315.166.06-.351-.255-.247.353-.052.157-.318ZM18.584 9.856l.157.318.35.052-.253.247.06.35-.314-.165-.315.166.06-.351-.254-.247.35-.052.159-.318ZM19.765 9.856l.158.318.351.052-.255.247.06.35-.314-.165-.314.166.06-.351-.254-.247.351-.052.157-.318Z"/></svg>