<svg width="20" height="20" viewBox="0 0 20 20" fill="none" xmlns="http://www.w3.org/2000/svg">
<g clip-path="url(#clip0_1170_6382)">
<path d="M0.298339 6.67521L0.29834 13.9148C0.29834 17.2463 2.99993 19.9479 6.33137 19.9479L13.571 19.9479C16.9024 19.9479 19.604 17.2463 19.604 13.9148L19.604 6.67521C19.604 3.34377 16.9024 0.642177 13.571 0.642177L6.33137 0.642177C2.99993 0.642177 0.298339 3.34377 0.298339 6.67521ZM13.571 2.45209C15.8998 2.45209 17.7941 4.34646 17.7941 6.67521L17.7941 13.9148C17.7941 16.2436 15.8998 18.138 13.571 18.138L6.33137 18.138C4.00262 18.138 2.10825 16.2436 2.10825 13.9148L2.10825 6.67521C2.10825 4.34646 4.00262 2.45209 6.33137 2.45209L13.571 2.45209Z" fill="white"/>
<path d="M5.12512 10.2949C5.12512 12.9603 7.28615 15.1213 9.95155 15.1213C12.6169 15.1213 14.778 12.9603 14.778 10.2949C14.778 7.62952 12.6169 5.46849 9.95155 5.46849C7.28615 5.46849 5.12512 7.62952 5.12512 10.2949ZM12.9681 10.2949C12.9681 11.9576 11.6143 13.3114 9.95155 13.3114C8.28764 13.3114 6.93503 11.9576 6.93503 10.2949C6.93503 8.63221 8.28764 7.2784 9.95155 7.2784C11.6143 7.2784 12.9681 8.63221 12.9681 10.2949Z" fill="white"/>
<path d="M5.40587 5.10651C5.40587 4.75133 5.11794 4.46339 4.76275 4.46339C4.40756 4.46339 4.11963 4.75133 4.11963 5.10651C4.11963 5.4617 4.40756 5.74963 4.76275 5.74963C5.11794 5.74963 5.40587 5.4617 5.40587 5.10651Z" fill="white"/>
</g>
<defs>
<clipPath id="clip0_1170_6382">
<rect width="19.3057" height="19.3057" fill="white" transform="translate(0.29834 19.9479) rotate(-90)"/>
</clipPath>
</defs>
</svg>
