<svg xmlns="http://www.w3.org/2000/svg" width="53" height="53" fill="none"><g clip-path="url(#a)"><path fill="#EBEBEB" d="M47.69 42.24h-3.511v.026h3.51v-.026ZM35.11 42.528h-.922v.027h.921v-.027ZM44.073 41.256h-2.034v.027h2.034v-.027ZM10.139 41.434H5.56v.027h4.578v-.027ZM11.755 41.434h-.671v.027h.67v-.027ZM23.866 41.882h-9.93v.026h9.93v-.026ZM25.122 35.807H4.654a.605.605 0 0 1-.604-.605V6.43a.605.605 0 0 1 .604-.6h20.468a.605.605 0 0 1 .605.605v28.767a.605.605 0 0 1-.605.605ZM4.654 5.85a.579.579 0 0 0-.577.579v28.772a.579.579 0 0 0 .577.578h20.468a.58.58 0 0 0 .579-.578V6.43a.58.58 0 0 0-.579-.579H4.654ZM48.05 35.807H27.583a.607.607 0 0 1-.605-.605V6.43a.606.606 0 0 1 .605-.6h20.469a.605.605 0 0 1 .603.6v28.772a.605.605 0 0 1-.603.605ZM27.583 5.85a.58.58 0 0 0-.578.579v28.772a.58.58 0 0 0 .578.578h20.469a.58.58 0 0 0 .579-.578V6.43a.58.58 0 0 0-.58-.579H27.583ZM53 40.534H0v.027h53v-.027Z"/><path fill="#E6E6E6" d="M15.813 25.718H13.44v10.065h2.374V25.718Z"/><path fill="#E0E0E0" d="M19.771 22.285h-2.374v13.498h2.374V22.285Z"/><path fill="#EBEBEB" d="M23.73 25.718h-2.375v10.065h2.374V25.718Z"/><path fill="#F0F0F0" d="M7.897 29.149H5.523v6.633h2.374V29.15Z"/><path fill="#EBEBEB" d="M11.855 27.492H9.481v8.29h2.374v-8.29Z"/><path fill="#F5F5F5" d="M27.687 29.149h-2.374v6.633h2.374V29.15Z"/><path fill="#E0E0E0" d="M47.477 18.853h-2.375v16.93h2.375v-16.93Z"/><path fill="#F0F0F0" d="M31.645 25.718h-2.374v10.065h2.374V25.718Z"/><path fill="#E6E6E6" d="M43.518 22.285h-2.374v13.498h2.374V22.285Z"/><path fill="#EBEBEB" d="M39.561 24.06h-2.374v11.723h2.374V24.06Z"/><path fill="#F0F0F0" d="M35.603 27.492H33.23v8.29h2.374v-8.29Z"/><path fill="#E0E0E0" d="M8.811 22.895a1.657 1.657 0 1 0-3.225-.761 1.657 1.657 0 0 0 3.225.76Z"/><path fill="#E6E6E6" d="M8.569 23.686a1.657 1.657 0 1 0-2.343-2.343 1.657 1.657 0 0 0 2.343 2.343Z"/><path fill="#F0F0F0" d="M7.398 23.755a1.24 1.24 0 1 0 0-2.48 1.24 1.24 0 0 0 0 2.48Z"/><path fill="#fff" d="M7.943 22.778c.047.275-.141.458-.48.487l-.006.227H7.25l.007-.227a1.153 1.153 0 0 1-.503-.16l.094-.255a.937.937 0 0 0 .415.152l.01-.348c-.203-.058-.424-.134-.47-.383-.048-.275.144-.46.49-.485v-.227h.212v.23c.14.011.276.051.4.117l-.086.248a.793.793 0 0 0-.326-.106l-.008.363c.199.061.415.13.458.367Zm-.665-.424.008-.296c-.113.022-.168.085-.156.164.011.078.068.1.148.132Zm.34.478c-.01-.06-.064-.097-.142-.124l-.006.282c.108-.022.162-.08.147-.158Z"/><path fill="#F0F0F0" d="M46.645 8.531h-8.627a.794.794 0 0 0-.794.794v3.26c0 .439.356.794.794.794h8.627a.794.794 0 0 0 .794-.793V9.325a.794.794 0 0 0-.794-.794Z"/><path fill="#fff" d="M39.876 9.191h-.719a.076.076 0 0 0-.076.077v3.443c0 .042.034.076.076.076h.72a.076.076 0 0 0 .075-.076V9.268a.076.076 0 0 0-.076-.077ZM45.76 9.191h-.72a.076.076 0 0 0-.076.077v3.443c0 .042.034.076.076.076h.72a.076.076 0 0 0 .075-.076V9.268a.076.076 0 0 0-.076-.077ZM42.92 10.377h-.72a.076.076 0 0 0-.076.077v2.258c0 .042.035.076.077.076h.718a.076.076 0 0 0 .077-.076v-2.258a.076.076 0 0 0-.077-.077ZM41.411 10.955h-.719a.076.076 0 0 0-.076.076v1.68c0 .042.034.076.076.076h.72a.076.076 0 0 0 .075-.077v-1.679a.076.076 0 0 0-.076-.076ZM44.34 12.363h-.719a.076.076 0 0 0-.076.076v.271c0 .043.034.077.076.077h.719a.076.076 0 0 0 .076-.077v-.27a.076.076 0 0 0-.076-.077Z"/><path fill="#E0E0E0" d="M45.413 9.17a.077.077 0 0 0-.089.014.077.077 0 0 0-.017.027l-1.273 2.755a.076.076 0 0 1-.065.048.077.077 0 0 1-.072-.037l-1.179-1.793a.077.077 0 0 0-.106-.025l-1.484.594a.076.076 0 0 1-.08 0l-1.616-1.628a.076.076 0 0 0-.106.036v.008a.078.078 0 0 0 .033.099l1.703 1.678a.074.074 0 0 0 .08 0l1.418-.558a.076.076 0 0 1 .106.025l1.254 1.915a.078.078 0 0 0 .138-.01l1.388-3.047a.078.078 0 0 0-.033-.1ZM23.447 13.26a1.729 1.729 0 1 0 0-3.458 1.729 1.729 0 0 0 0 3.458Z"/><path fill="#fff" d="M23.427 12.918a1.387 1.387 0 1 0 0-2.775 1.387 1.387 0 0 0 0 2.775Z" opacity=".8"/><path fill="#E0E0E0" d="M23.423 11.787a.14.14 0 1 0 0-.282.14.14 0 0 0 0 .282Z"/><path fill="#E0E0E0" d="m23.407 11.698-.597-.562.058-.061.541.509.969-.857.056.064-1.027.907Z"/><path fill="#F5F5F5" d="M26.5 45.263c11.35 0 20.552-.537 20.552-1.2 0-.663-9.201-1.2-20.552-1.2-11.35 0-20.552.538-20.552 1.2 0 .663 9.201 1.2 20.552 1.2Z"/><path fill="#407BFF" d="M30.021 25.726h-6.998v18.416h6.998V25.726Z"/><path fill="#000" d="M30.043 25.726h-5.218v18.416h5.218V25.726Z" opacity=".5"/><path fill="#407BFF" d="M39.164 32.005h-6.998V44.14h6.998V32.005Z"/><path fill="#000" d="M39.163 31.976h-5.218v12.166h5.218V31.976Z" opacity=".3"/><path fill="#407BFF" d="M20.834 29.01h-6.998v15.13h6.998V29.01Z"/><path fill="#000" d="M20.834 28.973h-5.218v15.168h5.218V28.973Z" opacity=".4"/><path fill="#407BFF" d="M16.56 44.16c-.01.226.704.44 1.59.478.886.038 1.619-.115 1.628-.34.01-.227-.703-.439-1.59-.477-.886-.038-1.618.115-1.628.34Z"/><path fill="#407BFF" d="m16.578 43.751-.018.408 3.222.137.017-.408-3.221-.137Z"/><path fill="#407BFF" d="M16.577 43.752c-.01.226.704.44 1.59.477.886.039 1.619-.114 1.628-.34.01-.226-.703-.438-1.59-.476-.886-.038-1.618.115-1.628.34Z"/><path fill="#fff" d="M16.577 43.752c-.01.226.704.44 1.59.477.886.039 1.619-.114 1.628-.34.01-.226-.703-.438-1.59-.476-.886-.038-1.618.115-1.628.34Z" opacity=".4"/><path fill="#407BFF" d="M16.783 43.746c0 .015.005.029.014.04.106-.132.696-.212 1.4-.18.704.03 1.286.157 1.378.298a.057.057 0 0 0 .017-.04c.006-.152-.617-.304-1.394-.337-.777-.033-1.409.067-1.415.22Z"/><path fill="#407BFF" d="M16.783 43.746c0 .015.005.029.014.04.106-.132.696-.212 1.4-.18.704.03 1.286.157 1.378.298a.057.057 0 0 0 .017-.04c.006-.152-.617-.304-1.394-.337-.777-.033-1.409.067-1.415.22Z" opacity=".4"/><path fill="#407BFF" d="M16.797 43.786c.096.142.676.269 1.378.298.701.03 1.294-.047 1.4-.18-.095-.14-.674-.268-1.378-.299-.704-.03-1.292.049-1.4.181Z" opacity=".4"/><path fill="#407BFF" d="M16.218 43.543c-.01.225.704.438 1.59.477.886.038 1.619-.115 1.628-.34.01-.224-.704-.438-1.59-.477-.886-.038-1.614.115-1.628.34Z"/><path fill="#407BFF" d="m16.24 43.136-.018.407 3.222.137.017-.408-3.222-.136Z"/><path fill="#407BFF" d="M16.24 43.135c-.01.225.703.438 1.59.476.885.039 1.618-.114 1.627-.339.01-.225-.704-.439-1.59-.477-.886-.038-1.618.115-1.628.34Z"/><path fill="#fff" d="M16.24 43.135c-.01.225.703.438 1.59.476.885.039 1.618-.114 1.627-.339.01-.225-.704-.439-1.59-.477-.886-.038-1.618.115-1.628.34Z" opacity=".4"/><path fill="#407BFF" d="M16.445 43.128a.06.06 0 0 0 .014.04c.105-.132.696-.212 1.4-.18s1.285.157 1.378.298a.066.066 0 0 0 .017-.038c.006-.153-.617-.306-1.394-.34-.777-.032-1.409.067-1.415.22Z"/><path fill="#407BFF" d="M16.445 43.128a.06.06 0 0 0 .014.04c.105-.132.696-.212 1.4-.18s1.285.157 1.378.298a.066.066 0 0 0 .017-.038c.006-.153-.617-.306-1.394-.34-.777-.032-1.409.067-1.415.22Z" opacity=".4"/><path fill="#407BFF" d="M16.458 43.169c.096.14.677.268 1.378.297.702.03 1.295-.047 1.4-.18-.094-.14-.674-.268-1.377-.298-.704-.03-1.294.048-1.4.18Z" opacity=".4"/><path fill="#407BFF" d="M16.266 42.798c-.01.226.703.44 1.59.477.886.039 1.618-.114 1.628-.34.01-.226-.704-.438-1.59-.476-.886-.038-1.619.115-1.628.34Z"/><path fill="#407BFF" d="m16.283 42.39-.017.409 3.222.136.017-.407-3.222-.137Z"/><path fill="#407BFF" d="M16.283 42.39c-.01.226.703.44 1.59.477.886.039 1.617-.114 1.627-.339.01-.224-.704-.439-1.59-.477-.887-.038-1.618.115-1.627.34Z"/><path fill="#fff" d="M16.283 42.39c-.01.226.703.44 1.59.477.886.039 1.617-.114 1.627-.339.01-.224-.704-.439-1.59-.477-.887-.038-1.618.115-1.627.34Z" opacity=".4"/><path fill="#407BFF" d="M16.488 42.384c0 .014.005.029.014.04.106-.132.696-.212 1.4-.18s1.286.157 1.378.298a.055.055 0 0 0 .017-.038c.006-.153-.617-.307-1.394-.34-.777-.032-1.409.067-1.415.22Z"/><path fill="#407BFF" d="M16.488 42.384c0 .014.005.029.014.04.106-.132.696-.212 1.4-.18s1.286.157 1.378.298a.055.055 0 0 0 .017-.038c.006-.153-.617-.307-1.394-.34-.777-.032-1.409.067-1.415.22Z" opacity=".4"/><path fill="#407BFF" d="M16.502 42.424c.096.141.676.268 1.378.298.702.03 1.294-.048 1.4-.18-.094-.141-.674-.268-1.378-.298-.704-.03-1.292.05-1.4.18Z" opacity=".4"/><path fill="#407BFF" d="M15.928 42.182c-.01.224.703.437 1.59.475.886.039 1.618-.114 1.628-.339.01-.224-.704-.438-1.59-.477-.887-.038-1.619.115-1.629.34Z"/><path fill="#407BFF" d="m15.944 41.77-.017.408 3.221.137.018-.408-3.222-.136Z"/><path fill="#407BFF" d="M15.944 41.773c-.01.225.704.438 1.59.476.887.039 1.619-.114 1.629-.339.009-.224-.704-.439-1.59-.477-.887-.038-1.62.119-1.629.34Z"/><path fill="#fff" d="M15.944 41.773c-.01.225.704.438 1.59.476.887.039 1.619-.114 1.629-.339.009-.224-.704-.439-1.59-.477-.887-.038-1.62.119-1.629.34Z" opacity=".4"/><path fill="#407BFF" d="M16.15 41.764c0 .015.004.029.014.04.106-.132.696-.212 1.4-.18s1.286.157 1.378.298a.066.066 0 0 0 .017-.038c.006-.153-.617-.307-1.394-.34-.777-.032-1.409.07-1.415.22Z"/><path fill="#407BFF" d="M16.15 41.764c0 .015.004.029.014.04.106-.132.696-.212 1.4-.18s1.286.157 1.378.298a.066.066 0 0 0 .017-.038c.006-.153-.617-.307-1.394-.34-.777-.032-1.409.07-1.415.22Z" opacity=".4"/><path fill="#407BFF" d="M16.164 41.806c.095.141.676.269 1.378.298.701.03 1.294-.047 1.4-.18-.094-.14-.674-.268-1.378-.298-.704-.03-1.293.048-1.4.18Z" opacity=".4"/><path fill="#407BFF" d="M16.444 41.658c-.01.225.704.438 1.59.476.886.038 1.618-.115 1.628-.34.01-.224-.704-.438-1.59-.476-.886-.038-1.619.114-1.628.34Z"/><path fill="#407BFF" d="m16.461 41.25-.017.407 3.222.137.017-.407-3.222-.137Z"/><path fill="#407BFF" d="M16.462 41.25c-.01.224.704.438 1.59.476.886.038 1.618-.115 1.628-.34.01-.224-.704-.438-1.59-.477-.886-.038-1.619.113-1.628.34Z"/><path fill="#fff" d="M16.462 41.25c-.01.224.704.438 1.59.476.886.038 1.618-.115 1.628-.34.01-.224-.704-.438-1.59-.477-.886-.038-1.619.113-1.628.34Z" opacity=".4"/><path fill="#407BFF" d="M16.666 41.242a.07.07 0 0 0 .014.04c.106-.132.698-.211 1.4-.18.703.032 1.287.157 1.378.298a.061.061 0 0 0 .018-.038c.007-.153-.617-.306-1.394-.34-.777-.032-1.408.068-1.416.22Z"/><path fill="#407BFF" d="M16.666 41.242a.07.07 0 0 0 .014.04c.106-.132.698-.211 1.4-.18.703.032 1.287.157 1.378.298a.061.061 0 0 0 .018-.038c.007-.153-.617-.306-1.394-.34-.777-.032-1.408.068-1.416.22Z" opacity=".4"/><path fill="#407BFF" d="M16.68 41.283c.096.14.676.268 1.378.298.702.03 1.295-.048 1.4-.18-.093-.142-.674-.269-1.378-.299-.704-.03-1.292.048-1.4.18Z" opacity=".4"/><path fill="#407BFF" d="M16.105 41.04c-.01.225.704.439 1.59.476.887.037 1.62-.115 1.629-.34.01-.224-.704-.438-1.59-.476-.887-.039-1.622.11-1.629.34Z"/><path fill="#407BFF" d="m16.122 40.63-.017.408 3.221.137.018-.408-3.222-.136Z"/><path fill="#407BFF" d="M16.122 40.632c-.01.224.704.439 1.59.476.886.037 1.619-.114 1.628-.34.01-.225-.703-.438-1.59-.477-.886-.038-1.618.115-1.628.34Z"/><path fill="#fff" d="M16.122 40.632c-.01.224.704.439 1.59.476.886.037 1.619-.114 1.628-.34.01-.225-.703-.438-1.59-.477-.886-.038-1.618.115-1.628.34Z" opacity=".4"/><path fill="#407BFF" d="M16.324 40.624a.06.06 0 0 0 .014.04c.106-.132.696-.211 1.4-.18.704.032 1.286.157 1.378.3a.06.06 0 0 0 .017-.04c.006-.152-.617-.305-1.394-.339-.777-.034-1.405.067-1.415.22Z"/><path fill="#407BFF" d="M16.324 40.624a.06.06 0 0 0 .014.04c.106-.132.696-.211 1.4-.18.704.032 1.286.157 1.378.3a.06.06 0 0 0 .017-.04c.006-.152-.617-.305-1.394-.339-.777-.034-1.405.067-1.415.22Z" opacity=".4"/><path fill="#407BFF" d="M16.342 40.665c.096.14.676.268 1.378.299.702.03 1.294-.048 1.4-.18-.094-.142-.674-.27-1.378-.3-.704-.03-1.292.048-1.4.18Z" opacity=".4"/><path fill="#407BFF" d="M11.756 43.964c-.01.225.703.438 1.59.475.887.038 1.618-.113 1.627-.339.01-.226-.703-.439-1.59-.476-.887-.037-1.617.114-1.627.34Z"/><path fill="#407BFF" d="m11.773 43.553-.018.408 3.222.137.017-.408-3.221-.137Z"/><path fill="#407BFF" d="M11.773 43.555c-.01.226.704.44 1.59.477.886.038 1.619-.114 1.628-.34.01-.226-.703-.439-1.59-.476-.886-.037-1.618.114-1.628.34Z"/><path fill="#fff" d="M11.773 43.555c-.01.226.704.44 1.59.477.886.038 1.619-.114 1.628-.34.01-.226-.703-.439-1.59-.476-.886-.037-1.618.114-1.628.34Z" opacity=".4"/><path fill="#407BFF" d="M11.978 43.548c-.001.015.004.03.014.04.105-.132.696-.212 1.4-.18s1.286.158 1.378.299a.069.069 0 0 0 .017-.04c.006-.152-.617-.305-1.394-.337-.777-.033-1.408.065-1.415.218Z"/><path fill="#407BFF" d="M11.978 43.548c-.001.015.004.03.014.04.105-.132.696-.212 1.4-.18s1.286.158 1.378.299a.069.069 0 0 0 .017-.04c.006-.152-.617-.305-1.394-.337-.777-.033-1.408.065-1.415.218Z" opacity=".4"/><path fill="#407BFF" d="M11.993 43.588c.095.141.676.27 1.378.3.701.029 1.294-.049 1.4-.181-.094-.141-.674-.27-1.378-.299-.704-.03-1.293.052-1.4.18Z" opacity=".4"/><path fill="#407BFF" d="M13.158 43.566c-.053.22.607.564 1.473.77.866.205 1.611.195 1.663-.025.052-.22-.608-.564-1.474-.77-.866-.205-1.61-.194-1.662.025Z"/><path fill="#407BFF" d="m13.252 43.17-.095.398 3.137.746.095-.397-3.137-.746Z"/><path fill="#407BFF" d="M13.25 43.168c-.053.22.607.564 1.473.771.866.207 1.611.195 1.664-.024.051-.22-.606-.561-1.473-.773-.867-.212-1.61-.193-1.664.026Z"/><path fill="#fff" d="M13.25 43.168c-.053.22.607.564 1.473.771.866.207 1.611.195 1.664-.024.051-.22-.606-.561-1.473-.773-.867-.212-1.61-.193-1.664.026Z" opacity=".4"/><path fill="#407BFF" d="M13.454 43.2a.06.06 0 0 0 .007.043c.13-.106.724-.075 1.409.089.684.163 1.232.398 1.298.554a.063.063 0 0 0 .024-.035c.035-.148-.548-.417-1.305-.597-.756-.18-1.397-.202-1.433-.054Z"/><path fill="#407BFF" d="M13.454 43.2a.06.06 0 0 0 .007.043c.13-.106.724-.075 1.409.089.684.163 1.232.398 1.298.554a.063.063 0 0 0 .024-.035c.035-.148-.548-.417-1.305-.597-.756-.18-1.397-.202-1.433-.054Z" opacity=".4"/><path fill="#407BFF" d="M13.462 43.248c.068.157.613.392 1.298.554.686.162 1.28.2 1.409.09-.066-.157-.612-.392-1.299-.555-.686-.163-1.279-.205-1.408-.09Z" opacity=".4"/><path fill="#407BFF" d="M17.246 40.905a1.452 1.452 0 1 0 0-2.904 1.452 1.452 0 0 0 0 2.904Z"/><path fill="#407BFF" d="M17.42 40.905a1.452 1.452 0 1 0 0-2.904 1.452 1.452 0 0 0 0 2.904Z"/><path fill="#fff" d="M17.42 40.905a1.452 1.452 0 1 0 0-2.904 1.452 1.452 0 0 0 0 2.904Z" opacity=".5"/><path fill="#407BFF" d="M18.189 40.222a1.088 1.088 0 1 0-1.538-1.538 1.088 1.088 0 0 0 1.538 1.538Z"/><path fill="#fff" d="M17.86 39.812a.453.453 0 0 1-.34.138.473.473 0 0 1-.454-.296h.585v-.125h-.617a.496.496 0 0 1 0-.057.498.498 0 0 1 0-.057h.616v-.125h-.584a.473.473 0 0 1 .455-.296.452.452 0 0 1 .34.137l.017.017.117-.116-.015-.017a.615.615 0 0 0-.466-.184.636.636 0 0 0-.636.459h-.206v.125h.182v.114h-.185v.125h.207a.636.636 0 0 0 .636.46.618.618 0 0 0 .465-.187l.016-.017-.117-.116-.016.018Z" opacity=".3"/><path fill="#407BFF" d="M37.764 44.36c-.008.225-.735.382-1.626.35-.89-.032-1.603-.24-1.596-.466.008-.224.737-.382 1.626-.35.89.031 1.605.24 1.596.466Z"/><path fill="#407BFF" d="m34.555 43.833-.014.407 3.222.116.015-.408-3.223-.115Z"/><path fill="#407BFF" d="M37.78 43.952c-.01.224-.736.381-1.627.35-.89-.032-1.603-.241-1.596-.466.007-.225.736-.383 1.626-.35.89.031 1.605.24 1.596.466Z"/><path fill="#fff" d="M37.78 43.952c-.01.224-.736.381-1.627.35-.89-.032-1.603-.241-1.596-.466.007-.225.736-.383 1.626-.35.89.031 1.605.24 1.596.466Z" opacity=".4"/><path fill="#407BFF" d="M37.575 43.928a.06.06 0 0 1-.017.04c-.097-.141-.678-.265-1.378-.29-.7-.024-1.294.056-1.4.189a.063.063 0 0 1-.014-.04c.006-.152.636-.256 1.416-.228.78.027 1.398.179 1.393.33Z"/><path fill="#407BFF" d="M37.575 43.928a.06.06 0 0 1-.017.04c-.097-.141-.678-.265-1.378-.29-.7-.024-1.294.056-1.4.189a.063.063 0 0 1-.014-.04c.006-.152.636-.256 1.416-.228.78.027 1.398.179 1.393.33Z" opacity=".4"/><path fill="#407BFF" d="M37.558 43.968c-.106.132-.696.212-1.4.188-.703-.023-1.286-.148-1.377-.289.105-.133.693-.212 1.399-.189.706.024 1.281.149 1.378.29Z" opacity=".4"/><path fill="#407BFF" d="M38.15 43.77c-.008.225-.735.382-1.626.35-.89-.031-1.604-.24-1.596-.466.007-.226.737-.382 1.626-.35.89.032 1.606.24 1.596.467Z"/><path fill="#407BFF" d="m34.945 43.25-.015.407 3.222.116.015-.408-3.222-.116Z"/><path fill="#407BFF" d="M38.165 43.362c-.008.225-.736.382-1.626.35-.89-.032-1.605-.24-1.596-.466.008-.226.735-.382 1.626-.35.89.032 1.603.246 1.596.466Z"/><path fill="#fff" d="M38.165 43.362c-.008.225-.736.382-1.626.35-.89-.032-1.605-.24-1.596-.466.008-.226.735-.382 1.626-.35.89.032 1.603.246 1.596.466Z" opacity=".4"/><path fill="#407BFF" d="M37.96 43.339a.055.055 0 0 1-.017.038c-.096-.14-.677-.264-1.377-.288-.701-.025-1.296.056-1.4.189a.063.063 0 0 1-.014-.04c.006-.152.636-.256 1.416-.229.78.028 1.398.177 1.393.33Z"/><path fill="#407BFF" d="M37.96 43.339a.055.055 0 0 1-.017.038c-.096-.14-.677-.264-1.377-.288-.701-.025-1.296.056-1.4.189a.063.063 0 0 1-.014-.04c.006-.152.636-.256 1.416-.229.78.028 1.398.177 1.393.33Z" opacity=".4"/><path fill="#407BFF" d="M37.948 43.377c-.106.134-.696.212-1.4.19-.703-.022-1.286-.148-1.377-.29.106-.132.693-.211 1.399-.188.706.023 1.277.148 1.378.288Z" opacity=".4"/><path fill="#407BFF" d="M38.165 43.024c-.008.226-.737.383-1.626.351-.89-.032-1.605-.24-1.596-.466.008-.226.735-.382 1.626-.35.89.032 1.603.24 1.596.465Z"/><path fill="#407BFF" d="m34.958 42.504-.014.407 3.222.116.015-.408-3.223-.115Z"/><path fill="#407BFF" d="M38.18 42.612c-.008.226-.737.383-1.626.35-.89-.031-1.605-.24-1.596-.466.008-.226.735-.381 1.625-.35.889.032 1.605.245 1.597.466Z"/><path fill="#fff" d="M38.18 42.612c-.008.226-.737.383-1.626.35-.89-.031-1.605-.24-1.596-.466.008-.226.735-.381 1.625-.35.889.032 1.605.245 1.597.466Z" opacity=".4"/><path fill="#407BFF" d="M37.975 42.594a.066.066 0 0 1-.017.038c-.097-.14-.678-.264-1.377-.29-.7-.025-1.295.057-1.4.19a.06.06 0 0 1-.014-.04c0-.152.636-.255 1.417-.228.78.028 1.397.177 1.391.33Z"/><path fill="#407BFF" d="M37.975 42.594a.066.066 0 0 1-.017.038c-.097-.14-.678-.264-1.377-.29-.7-.025-1.295.057-1.4.19a.06.06 0 0 1-.014-.04c0-.152.636-.255 1.417-.228.78.028 1.397.177 1.391.33Z" opacity=".4"/><path fill="#407BFF" d="M37.959 42.632c-.107.134-.696.212-1.4.19-.704-.023-1.287-.149-1.378-.29.106-.133.694-.212 1.4-.19.705.023 1.28.15 1.377.29Z" opacity=".4"/><path fill="#407BFF" d="M38.551 42.435c-.009.226-.737.383-1.626.35-.89-.031-1.605-.24-1.596-.466.008-.226.735-.381 1.626-.35.89.032 1.603.241 1.596.466Z"/><path fill="#407BFF" d="m35.34 41.91-.014.407 3.222.115.015-.407-3.223-.116Z"/><path fill="#407BFF" d="M38.565 42.027c-.008.226-.736.383-1.625.35-.89-.031-1.605-.24-1.597-.466.009-.226.736-.381 1.625-.35.89.032 1.605.241 1.597.466Z"/><path fill="#fff" d="M38.565 42.027c-.008.226-.736.383-1.625.35-.89-.031-1.605-.24-1.597-.466.009-.226.736-.381 1.625-.35.89.032 1.605.241 1.597.466Z" opacity=".4"/><path fill="#407BFF" d="M38.361 42.005a.066.066 0 0 1-.017.038c-.097-.14-.678-.264-1.378-.29-.7-.025-1.294.056-1.399.19a.062.062 0 0 1-.014-.04c.006-.153.636-.256 1.416-.228.78.027 1.403.177 1.392.33Z"/><path fill="#407BFF" d="M38.361 42.005a.066.066 0 0 1-.017.038c-.097-.14-.678-.264-1.378-.29-.7-.025-1.294.056-1.399.19a.062.062 0 0 1-.014-.04c.006-.153.636-.256 1.416-.228.78.027 1.403.177 1.392.33Z" opacity=".4"/><path fill="#407BFF" d="M38.344 42.043c-.106.133-.695.212-1.399.19-.704-.023-1.287-.149-1.378-.29.106-.134.693-.212 1.4-.19.705.023 1.28.15 1.377.29Z" opacity=".4"/><path fill="#407BFF" d="M25.758 43.906c-.01.226.703.439 1.59.477.887.038 1.617-.114 1.627-.34.01-.226-.703-.439-1.59-.476-.887-.037-1.62.114-1.627.34Z"/><path fill="#407BFF" d="m25.77 43.497-.017.407 3.221.137.017-.408-3.221-.136Z"/><path fill="#407BFF" d="M25.772 43.498c-.01.226.703.439 1.59.477.886.038 1.618-.114 1.628-.34.01-.226-.704-.439-1.59-.476-.886-.037-1.619.114-1.628.34Z"/><path fill="#fff" d="M25.772 43.498c-.01.226.703.439 1.59.477.886.038 1.618-.114 1.628-.34.01-.226-.704-.439-1.59-.476-.886-.037-1.619.114-1.628.34Z" opacity=".4"/><path fill="#407BFF" d="M25.977 43.492c0 .014.005.028.014.039.106-.133.696-.212 1.4-.18s1.286.158 1.378.299a.069.069 0 0 0 .017-.04c.007-.152-.617-.305-1.394-.338-.777-.032-1.408.067-1.415.22Z"/><path fill="#407BFF" d="M25.977 43.492c0 .014.005.028.014.039.106-.133.696-.212 1.4-.18s1.286.158 1.378.299a.069.069 0 0 0 .017-.04c.007-.152-.617-.305-1.394-.338-.777-.032-1.408.067-1.415.22Z" opacity=".4"/><path fill="#407BFF" d="M25.991 43.53c.096.143.676.27 1.378.3.702.03 1.294-.048 1.4-.18-.094-.141-.674-.269-1.378-.3-.703-.03-1.293.048-1.4.18Z" opacity=".4"/><path fill="#407BFF" d="M25.416 43.288c-.01.226.703.439 1.59.477.886.038 1.618-.114 1.628-.34.01-.226-.704-.439-1.59-.476-.887-.037-1.619.114-1.628.34Z"/><path fill="#407BFF" d="m25.433 42.882-.018.408 3.222.136.017-.407-3.221-.137Z"/><path fill="#407BFF" d="M25.433 42.88c-.01.226.704.439 1.59.477.887.038 1.62-.114 1.629-.34.01-.226-.704-.438-1.59-.476-.887-.038-1.622.114-1.629.339Z"/><path fill="#fff" d="M25.433 42.88c-.01.226.704.439 1.59.477.887.038 1.62-.114 1.629-.34.01-.226-.704-.438-1.59-.476-.887-.038-1.622.114-1.629.339Z" opacity=".4"/><path fill="#407BFF" d="M25.638 42.874c0 .014.005.028.014.04.106-.132.697-.212 1.4-.181.703.03 1.287.158 1.378.299a.063.063 0 0 0 .018-.04c.007-.152-.617-.305-1.394-.338-.777-.033-1.408.064-1.416.22Z"/><path fill="#407BFF" d="M25.638 42.874c0 .014.005.028.014.04.106-.132.697-.212 1.4-.181.703.03 1.287.158 1.378.299a.063.063 0 0 0 .018-.04c.007-.152-.617-.305-1.394-.338-.777-.033-1.408.064-1.416.22Z" opacity=".4"/><path fill="#407BFF" d="M25.652 42.914c.096.14.676.268 1.378.298.702.03 1.295-.048 1.4-.18-.093-.141-.674-.269-1.378-.3-.704-.03-1.294.05-1.4.182Z" opacity=".4"/><path fill="#407BFF" d="M25.46 42.544c-.01.226.704.439 1.59.477.886.038 1.619-.114 1.628-.34.01-.226-.704-.44-1.59-.476-.886-.037-1.619.114-1.628.339Z"/><path fill="#407BFF" d="m25.477 42.136-.018.408 3.222.136.017-.407-3.221-.137Z"/><path fill="#407BFF" d="M25.477 42.136c-.01.226.704.439 1.59.477.886.038 1.619-.114 1.628-.34.01-.226-.704-.44-1.59-.476-.886-.037-1.619.114-1.628.339Z"/><path fill="#fff" d="M25.477 42.136c-.01.226.704.439 1.59.477.886.038 1.619-.114 1.628-.34.01-.226-.704-.44-1.59-.476-.886-.037-1.619.114-1.628.339Z" opacity=".4"/><path fill="#407BFF" d="M25.683 42.13c-.001.014.004.028.013.039.106-.132.697-.212 1.4-.18.704.031 1.286.158 1.379.299a.068.068 0 0 0 .016-.04c.007-.152-.616-.305-1.393-.338-.777-.033-1.41.066-1.415.22Z"/><path fill="#407BFF" d="M25.683 42.13c-.001.014.004.028.013.039.106-.132.697-.212 1.4-.18.704.031 1.286.158 1.379.299a.068.068 0 0 0 .016-.04c.007-.152-.616-.305-1.393-.338-.777-.033-1.41.066-1.415.22Z" opacity=".4"/><path fill="#407BFF" d="M25.696 42.169c.096.142.677.269 1.378.299.702.03 1.294-.048 1.4-.18-.094-.141-.674-.269-1.378-.3-.703-.03-1.293.05-1.4.18Z" opacity=".4"/><path fill="#407BFF" d="M25.122 41.926c-.01.226.704.439 1.59.477.886.038 1.618-.114 1.628-.34.01-.226-.704-.438-1.59-.476-.886-.038-1.62.114-1.628.34Z"/><path fill="#407BFF" d="m25.137 41.517-.017.408 3.222.136.017-.407-3.222-.137Z"/><path fill="#407BFF" d="M25.139 41.518c-.01.226.704.439 1.59.477.886.038 1.618-.115 1.628-.34.01-.226-.704-.438-1.59-.476-.886-.038-1.619.114-1.628.339Z"/><path fill="#fff" d="M25.139 41.518c-.01.226.704.439 1.59.477.886.038 1.618-.115 1.628-.34.01-.226-.704-.438-1.59-.476-.886-.038-1.619.114-1.628.339Z" opacity=".4"/><path fill="#407BFF" d="M25.344 41.512c0 .014.005.028.013.04.106-.133.698-.212 1.401-.18.704.032 1.286.157 1.378.297a.065.065 0 0 0 .017-.039c.007-.151-.616-.305-1.393-.338-.777-.033-1.41.067-1.416.22Z"/><path fill="#407BFF" d="M25.344 41.512c0 .014.005.028.013.04.106-.133.698-.212 1.401-.18.704.032 1.286.157 1.378.297a.065.065 0 0 0 .017-.039c.007-.151-.616-.305-1.393-.338-.777-.033-1.41.067-1.416.22Z" opacity=".4"/><path fill="#407BFF" d="M25.357 41.552c.097.141.677.268 1.378.298.702.03 1.296-.048 1.402-.18-.095-.141-.676-.269-1.378-.298-.703-.03-1.294.047-1.402.18Z" opacity=".4"/><path fill="#407BFF" d="M25.638 41.402c-.01.226.704.44 1.59.477.886.039 1.619-.114 1.628-.34.01-.226-.704-.438-1.59-.476-.886-.038-1.614.115-1.628.34Z"/><path fill="#407BFF" d="m25.656 40.995-.017.408 3.221.136.018-.407-3.222-.137Z"/><path fill="#407BFF" d="M25.652 40.994c-.01.226.704.44 1.59.477.886.038 1.619-.114 1.628-.34.01-.226-.704-.438-1.59-.476-.886-.038-1.615.114-1.628.34Z"/><path fill="#fff" d="M25.652 40.994c-.01.226.704.44 1.59.477.886.038 1.619-.114 1.628-.34.01-.226-.704-.438-1.59-.476-.886-.038-1.615.114-1.628.34Z" opacity=".4"/><path fill="#407BFF" d="M25.864 40.988c0 .014.005.029.014.04.106-.132.696-.212 1.4-.18s1.286.157 1.378.298a.054.054 0 0 0 .017-.04c.006-.151-.617-.305-1.394-.337-.777-.033-1.415.066-1.415.219Z"/><path fill="#407BFF" d="M25.864 40.988c0 .014.005.029.014.04.106-.132.696-.212 1.4-.18s1.286.157 1.378.298a.054.054 0 0 0 .017-.04c.006-.151-.617-.305-1.394-.337-.777-.033-1.415.066-1.415.219Z" opacity=".4"/><path fill="#407BFF" d="M25.875 41.028c.096.141.676.269 1.378.298.701.03 1.294-.047 1.4-.18-.095-.141-.674-.268-1.378-.298-.704-.03-1.292.048-1.4.18Z" opacity=".4"/><path fill="#407BFF" d="M25.3 40.786c-.01.224.704.437 1.59.475.886.039 1.617-.114 1.628-.339.01-.224-.704-.438-1.59-.477-.886-.038-1.619.115-1.628.34Z"/><path fill="#407BFF" d="m25.316 40.376-.018.407 3.222.137.017-.408-3.221-.136Z"/><path fill="#407BFF" d="M25.317 40.377c-.01.225.704.438 1.59.476.886.038 1.619-.114 1.628-.339.01-.225-.704-.439-1.59-.477-.886-.038-1.619.115-1.628.34Z"/><path fill="#fff" d="M25.317 40.377c-.01.225.704.438 1.59.476.886.038 1.619-.114 1.628-.339.01-.225-.704-.439-1.59-.477-.886-.038-1.619.115-1.628.34Z" opacity=".4"/><path fill="#407BFF" d="M25.523 40.37c-.001.015.004.03.013.04.106-.132.697-.212 1.4-.18.704.032 1.286.157 1.379.298a.065.065 0 0 0 .016-.038c.007-.153-.616-.307-1.393-.34-.777-.032-1.41.067-1.415.22Z"/><path fill="#407BFF" d="M25.523 40.37c-.001.015.004.03.013.04.106-.132.697-.212 1.4-.18.704.032 1.286.157 1.379.298a.065.065 0 0 0 .016-.038c.007-.153-.616-.307-1.393-.34-.777-.032-1.41.067-1.415.22Z" opacity=".4"/><path fill="#407BFF" d="M25.536 40.41c.096.141.676.269 1.378.298.702.03 1.294-.048 1.4-.18-.094-.141-.674-.268-1.378-.298-.703-.03-1.293.05-1.4.18Z" opacity=".4"/><path fill="#407BFF" d="M28.858 40.347c.01.224-.704.438-1.59.475-.886.038-1.616-.118-1.631-.339-.015-.22.703-.438 1.59-.477.887-.038 1.62.115 1.631.34Z"/><path fill="#407BFF" d="m28.769 40.045-3.225.129.017.408 3.224-.13-.016-.407Z"/><path fill="#407BFF" d="M28.84 39.939c.01.224-.703.438-1.59.476-.886.037-1.618-.114-1.628-.34-.01-.225.704-.439 1.59-.477.886-.038 1.62.115 1.628.34Z"/><path fill="#fff" d="M28.84 39.939c.01.224-.703.438-1.59.476-.886.037-1.618-.114-1.628-.34-.01-.225.704-.439 1.59-.477.886-.038 1.62.115 1.628.34Z" opacity=".4"/><path fill="#407BFF" d="M28.635 39.931c0 .015-.005.03-.014.04-.106-.132-.697-.211-1.4-.18-.704.032-1.286.157-1.378.3a.072.072 0 0 1-.017-.04c-.007-.153.616-.305 1.393-.338.777-.033 1.41.066 1.416.218Z"/><path fill="#407BFF" d="M28.635 39.931c0 .015-.005.03-.014.04-.106-.132-.697-.211-1.4-.18-.704.032-1.286.157-1.378.3a.072.072 0 0 1-.017-.04c-.007-.153.616-.305 1.393-.338.777-.033 1.41.066 1.416.218Z" opacity=".4"/><path fill="#407BFF" d="M28.62 39.971c-.096.141-.677.269-1.378.3-.702.03-1.294-.048-1.4-.18.094-.143.674-.27 1.378-.3.703-.03 1.294.048 1.4.18Z" opacity=".4"/><path fill="#407BFF" d="M29.196 39.729c.01.225-.703.438-1.59.476-.886.037-1.618-.114-1.628-.34-.01-.225.704-.439 1.59-.476.886-.037 1.619.114 1.628.34Z"/><path fill="#407BFF" d="m29.18 39.32-3.222.136.017.408 3.222-.137-.018-.407Z"/><path fill="#407BFF" d="M29.178 39.326c.01.226-.702.439-1.59.477-.887.038-1.617-.115-1.627-.34-.01-.226.703-.44 1.59-.476.888-.037 1.618.108 1.628.339Z"/><path fill="#fff" d="M29.178 39.326c.01.226-.702.439-1.59.477-.887.038-1.617-.115-1.627-.34-.01-.226.703-.44 1.59-.476.888-.037 1.618.108 1.628.339Z" opacity=".4"/><path fill="#407BFF" d="M28.974 39.313a.07.07 0 0 1-.014.04c-.106-.132-.697-.212-1.4-.18s-1.287.158-1.378.3a.057.057 0 0 1-.017-.04c-.008-.153.617-.305 1.393-.338.776-.033 1.408.065 1.416.218Z"/><path fill="#407BFF" d="M28.974 39.313a.07.07 0 0 1-.014.04c-.106-.132-.697-.212-1.4-.18s-1.287.158-1.378.3a.057.057 0 0 1-.017-.04c-.008-.153.617-.305 1.393-.338.776-.033 1.408.065 1.416.218Z" opacity=".4"/><path fill="#407BFF" d="M28.96 39.354c-.096.14-.676.269-1.378.299-.702.03-1.295-.048-1.4-.18.093-.142.674-.27 1.378-.3.704-.03 1.292.047 1.4.18Z" opacity=".4"/><path fill="#407BFF" d="M29.15 38.984c.01.225-.703.44-1.59.477-.887.037-1.618-.114-1.627-.34-.01-.226.703-.439 1.59-.477.887-.038 1.62.115 1.627.34Z"/><path fill="#407BFF" d="m29.135 38.577-3.222.137.018.407 3.221-.136-.017-.408Z"/><path fill="#407BFF" d="M29.135 38.577c.01.225-.704.438-1.59.475-.886.038-1.619-.113-1.628-.339-.01-.226.704-.439 1.59-.476.886-.037 1.618.114 1.628.34Z"/><path fill="#fff" d="M29.135 38.577c.01.225-.704.438-1.59.475-.886.038-1.619-.113-1.628-.339-.01-.226.704-.439 1.59-.476.886-.037 1.618.114 1.628.34Z" opacity=".4"/><path fill="#407BFF" d="M28.93 38.57c0 .014-.005.028-.014.04-.106-.133-.697-.213-1.4-.18-.704.031-1.286.157-1.379.298a.073.073 0 0 1-.017-.04c-.006-.152.617-.304 1.394-.337.777-.033 1.41.066 1.415.218Z"/><path fill="#407BFF" d="M28.93 38.57c0 .014-.005.028-.014.04-.106-.133-.697-.213-1.4-.18-.704.031-1.286.157-1.379.298a.073.073 0 0 1-.017-.04c-.006-.152.617-.304 1.394-.337.777-.033 1.41.066 1.415.218Z" opacity=".4"/><path fill="#407BFF" d="M28.916 38.61c-.096.14-.677.269-1.378.298-.702.03-1.294-.047-1.4-.18.094-.14.674-.27 1.377-.299.704-.03 1.294.049 1.4.18Z" opacity=".4"/><path fill="#407BFF" d="M29.491 38.372c.01.226-.704.439-1.59.477-.886.038-1.618-.115-1.628-.34-.01-.226.704-.44 1.59-.476.886-.038 1.619.108 1.628.339Z"/><path fill="#407BFF" d="m29.471 37.96-3.222.137.018.407 3.221-.136-.017-.408Z"/><path fill="#407BFF" d="M29.473 37.959c.01.225-.704.438-1.59.476-.886.039-1.618-.114-1.628-.34-.01-.225.704-.439 1.59-.476.886-.037 1.623.117 1.628.34Z"/><path fill="#fff" d="M29.473 37.959c.01.225-.704.438-1.59.476-.886.039-1.618-.114-1.628-.34-.01-.225.704-.439 1.59-.476.886-.037 1.623.117 1.628.34Z" opacity=".4"/><path fill="#407BFF" d="M29.268 37.948a.068.068 0 0 1-.013.04c-.106-.133-.698-.213-1.4-.181-.703.032-1.287.158-1.379.299a.064.064 0 0 1-.018-.04c-.006-.152.617-.305 1.394-.338.777-.032 1.41.072 1.416.22Z"/><path fill="#407BFF" d="M29.268 37.948a.068.068 0 0 1-.013.04c-.106-.133-.698-.213-1.4-.181-.703.032-1.287.158-1.379.299a.064.064 0 0 1-.018-.04c-.006-.152.617-.305 1.394-.338.777-.032 1.41.072 1.416.22Z" opacity=".4"/><path fill="#407BFF" d="M29.256 37.991c-.097.142-.677.27-1.378.3-.702.03-1.296-.048-1.4-.18.093-.142.674-.27 1.377-.3.704-.03 1.295.048 1.4.18Z" opacity=".4"/><path fill="#407BFF" d="M28.974 37.842c.01.226-.704.439-1.59.477-.886.038-1.626-.113-1.626-.34 0-.225.704-.438 1.59-.475.886-.037 1.616.114 1.626.338Z"/><path fill="#407BFF" d="m28.958 37.434-3.222.137.017.408 3.222-.137-.017-.408Z"/><path fill="#407BFF" d="M28.957 37.435c.01.225-.704.439-1.59.477-.886.038-1.619-.115-1.628-.34-.01-.226.703-.44 1.59-.477.886-.037 1.618.11 1.628.34Z"/><path fill="#fff" d="M28.957 37.435c.01.225-.704.439-1.59.477-.886.038-1.619-.115-1.628-.34-.01-.226.703-.44 1.59-.477.886-.037 1.618.11 1.628.34Z" opacity=".4"/><path fill="#407BFF" d="M28.751 37.429a.056.056 0 0 1-.014.039c-.105-.133-.696-.212-1.4-.18-.704.031-1.285.158-1.378.299a.063.063 0 0 1-.017-.04c-.006-.152.617-.305 1.394-.338.777-.033 1.409.067 1.415.22Z"/><path fill="#407BFF" d="M28.751 37.429a.056.056 0 0 1-.014.039c-.105-.133-.696-.212-1.4-.18-.704.031-1.285.158-1.378.299a.063.063 0 0 1-.017-.04c-.006-.152.617-.305 1.394-.338.777-.033 1.409.067 1.415.22Z" opacity=".4"/><path fill="#407BFF" d="M28.738 37.468c-.097.142-.677.269-1.378.298-.702.03-1.295-.047-1.4-.18.094-.14.674-.268 1.377-.299.704-.03 1.293.048 1.4.18Z" opacity=".4"/><path fill="#407BFF" d="M29.313 37.225c.01.226-.704.439-1.59.477-.886.038-1.617-.115-1.627-.34-.01-.226.703-.44 1.59-.476.887-.037 1.616.114 1.627.339Z"/><path fill="#407BFF" d="m29.295 36.818-3.222.137.017.408 3.222-.137-.017-.408Z"/><path fill="#407BFF" d="M29.295 36.817c.01.226-.704.439-1.59.477-.886.038-1.619-.114-1.628-.34-.01-.226.704-.438 1.59-.476.886-.038 1.618.114 1.628.339Z"/><path fill="#fff" d="M29.295 36.817c.01.226-.704.439-1.59.477-.886.038-1.619-.114-1.628-.34-.01-.226.704-.438 1.59-.476.886-.038 1.618.114 1.628.339Z" opacity=".4"/><path fill="#407BFF" d="M29.09 36.81a.06.06 0 0 1-.014.04c-.106-.132-.697-.211-1.4-.18-.704.03-1.286.157-1.379.298a.069.069 0 0 1-.017-.039c-.006-.153.617-.305 1.394-.338.777-.033 1.41.067 1.415.22Z"/><path fill="#407BFF" d="M29.09 36.81a.06.06 0 0 1-.014.04c-.106-.132-.697-.211-1.4-.18-.704.03-1.286.157-1.379.298a.069.069 0 0 1-.017-.039c-.006-.153.617-.305 1.394-.338.777-.033 1.41.067 1.415.22Z" opacity=".4"/><path fill="#407BFF" d="M29.076 36.85c-.096.142-.677.269-1.378.299-.702.03-1.295-.048-1.4-.18.094-.142.674-.269 1.377-.3.704-.03 1.294.05 1.4.182Z" opacity=".4"/><path fill="#407BFF" d="M27.97 36.763a1.452 1.452 0 1 0-1.019-2.72 1.452 1.452 0 0 0 1.02 2.72Z"/><path fill="#407BFF" d="M28.727 36.416a1.452 1.452 0 1 0-2.212-1.882 1.452 1.452 0 0 0 2.212 1.882Z"/><path fill="#fff" d="M28.727 36.416a1.452 1.452 0 1 0-2.212-1.882 1.452 1.452 0 0 0 2.212 1.882Z" opacity=".4"/><path fill="#407BFF" d="M28.61 35.922a1.086 1.086 0 1 1-1.976-.9 1.086 1.086 0 0 1 1.976.9Z"/><path fill="#fff" d="M28.125 35.795a.327.327 0 0 0-.106-.17.293.293 0 0 0 .155-.051.307.307 0 0 0 .133-.26.275.275 0 0 0-.04-.13.496.496 0 0 0-.183-.171l.037-.082-.125-.056-.034.075-.125-.057.033-.075-.125-.057-.034.076-.27-.124-.51 1.12.27.124-.035.08.125.056.036-.08.125.058-.036.08.125.055.038-.082a.567.567 0 0 0 .301.045.283.283 0 0 0 .212-.173.307.307 0 0 0 .033-.2Zm-.513-.77.257.118c.052.02.098.054.13.099a.12.12 0 0 1 0 .12.118.118 0 0 1-.094.077.28.28 0 0 1-.16-.032l-.258-.117.125-.264Zm.14.905a.313.313 0 0 1-.17-.037l-.302-.137.125-.278.303.138c.137.063.185.141.143.233a.128.128 0 0 1-.1.085v-.004Z" opacity=".3"/><path fill="#407BFF" d="M41.308 43.695c-.033.133-.482.134-1.004 0-.521-.133-.918-.344-.885-.476.033-.131.484-.133 1.005 0 .522.134.916.347.884.476Z"/><path fill="#407BFF" d="m39.48 42.984-.06.24 1.89.472.06-.24-1.89-.472Z"/><path fill="#407BFF" d="M41.368 43.46c-.033.133-.483.133-1.004 0-.522-.134-.917-.343-.884-.476.032-.132.482-.134 1.003 0 .522.134.918.34.886.476Z"/><path fill="#fff" d="M41.368 43.46c-.033.133-.483.133-1.004 0-.522-.134-.917-.343-.884-.476.032-.132.482-.134 1.003 0 .522.134.918.34.886.476Z" opacity=".4"/><path fill="#407BFF" d="M41.25 43.416a.034.034 0 0 1-.005.013.035.035 0 0 1-.01.009c-.04-.096-.367-.242-.78-.345-.411-.103-.77-.13-.847-.063a.052.052 0 0 1 0-.026c.023-.09.41-.07.866.043s.8.28.776.37Z"/><path fill="#407BFF" d="M41.25 43.416a.034.034 0 0 1-.005.013.035.035 0 0 1-.01.009c-.04-.096-.367-.242-.78-.345-.411-.103-.77-.13-.847-.063a.052.052 0 0 1 0-.026c.023-.09.41-.07.866.043s.8.28.776.37Z" opacity=".4"/><path fill="#407BFF" d="M41.234 43.438c-.08.064-.437.039-.848-.064-.412-.103-.742-.25-.78-.344.08-.066.436-.04.848.063.41.104.742.25.78.345Z" opacity=".4"/><path fill="#407BFF" d="M42.215 44.13c.007.135-.424.265-.962.287-.538.022-.977-.069-.983-.205-.005-.135.424-.265.963-.288.538-.023.977.066.983.206Z"/><path fill="#407BFF" d="m42.203 43.885-1.946.083.01.246 1.946-.082-.01-.247Z"/><path fill="#407BFF" d="M42.205 43.884c.006.137-.424.265-.962.288-.537.024-.977-.069-.983-.205-.006-.137.424-.265.962-.288.539-.022.978.068.983.205Z"/><path fill="#fff" d="M42.205 43.884c.006.137-.424.265-.962.288-.537.024-.977-.069-.983-.205-.006-.137.424-.265.962-.288.539-.022.978.068.983.205Z" opacity=".4"/><path fill="#407BFF" d="M42.082 43.884a.03.03 0 0 1-.008.024c-.065-.08-.424-.127-.849-.106-.424.021-.776.096-.834.18a.036.036 0 0 1-.01-.023c0-.092.373-.184.842-.205.47-.02.859.032.859.13Z"/><path fill="#407BFF" d="M42.082 43.884a.03.03 0 0 1-.008.024c-.065-.08-.424-.127-.849-.106-.424.021-.776.096-.834.18a.036.036 0 0 1-.01-.023c0-.092.373-.184.842-.205.47-.02.859.032.859.13Z" opacity=".4"/><path fill="#407BFF" d="M42.072 43.903c-.057.085-.408.162-.833.18-.425.018-.781-.029-.848-.106.058-.085.408-.162.834-.18.427-.018.783.026.847.106Z" opacity=".4"/><path fill="#407BFF" d="M41.192 43.644a1.452 1.452 0 1 0-2.428-1.594 1.452 1.452 0 0 0 2.428 1.594Z"/><path fill="#407BFF" d="M41.194 43.935a1.452 1.452 0 1 1-2.168-1.932 1.452 1.452 0 0 1 2.168 1.932Z"/><path fill="#fff" d="M41.194 43.935a1.452 1.452 0 1 1-2.168-1.932 1.452 1.452 0 0 1 2.168 1.932Z" opacity=".4"/><path fill="#407BFF" d="M40.916 43.692a1.089 1.089 0 1 1-1.625-1.448 1.089 1.089 0 0 1 1.625 1.448Z"/><path fill="#fff" d="M40.312 43.46c-.13.212-.36.217-.598.038l-.136.145-.136-.12.137-.145a.996.996 0 0 1-.236-.396l.212-.114a.83.83 0 0 0 .186.338l.212-.222c-.098-.155-.2-.336-.083-.525.128-.207.362-.212.603-.03l.136-.146.135.121-.137.146a.91.91 0 0 1 .193.31l-.202.12a.707.707 0 0 0-.15-.261l-.218.233c.093.153.192.328.082.508Zm-.187-.665.178-.19c-.088-.051-.161-.042-.2.016a.175.175 0 0 0 .022.173v.001Zm-.057.511a.163.163 0 0 0-.02-.163l-.17.18c.084.047.153.04.19-.018v.001Z" opacity=".3"/><path fill="#407BFF" d="M22.13 44.264c-.005.136.425.265.963.288.538.022.977-.07.983-.205.005-.136-.424-.265-.962-.288-.537-.023-.977.069-.983.205Z"/><path fill="#407BFF" d="m22.142 44.019-.01.246 1.945.083.01-.247-1.945-.082Z"/><path fill="#407BFF" d="M22.141 44.017c-.006.137.424.265.963.289.538.023.977-.07.982-.206.006-.137-.424-.265-.962-.287-.539-.022-.977.07-.983.204Z"/><path fill="#fff" d="M22.141 44.017c-.006.137.424.265.963.289.538.023.977-.07.982-.206.006-.137-.424-.265-.962-.287-.539-.022-.977.07-.983.204Z" opacity=".4"/><path fill="#407BFF" d="M22.265 44.013a.04.04 0 0 0 .008.025c.065-.08.425-.128.849-.106.424.02.775.095.833.18a.044.044 0 0 0 .01-.024c0-.092-.373-.184-.841-.203-.469-.02-.855.036-.859.128Z"/><path fill="#407BFF" d="M22.265 44.013a.04.04 0 0 0 .008.025c.065-.08.425-.128.849-.106.424.02.775.095.833.18a.044.044 0 0 0 .01-.024c0-.092-.373-.184-.841-.203-.469-.02-.855.036-.859.128Z" opacity=".4"/><path fill="#407BFF" d="M22.274 44.038c.058.086.408.162.833.18.425.018.782-.029.848-.106-.057-.086-.407-.162-.833-.181-.427-.02-.784.027-.848.107Z" opacity=".4"/><path fill="#407BFF" d="M21.926 43.891c0 .136.424.265.962.288.539.022.978-.07.983-.205.005-.136-.424-.265-.961-.288-.538-.024-.978.07-.984.205Z"/><path fill="#407BFF" d="m21.935 43.642-.01.247 1.945.082.01-.246-1.945-.083Z"/><path fill="#407BFF" d="M21.942 43.644c0 .137.424.265.962.289.539.023.978-.07.983-.206.005-.137-.424-.265-.961-.287-.538-.022-.984.069-.984.204Z"/><path fill="#fff" d="M21.942 43.644c0 .137.424.265.962.289.539.023.978-.07.983-.206.005-.137-.424-.265-.961-.287-.538-.022-.984.069-.984.204Z" opacity=".4"/><path fill="#407BFF" d="M22.06 43.64a.04.04 0 0 0 .009.024c.065-.079.424-.126.848-.105.424.02.776.094.833.18a.043.043 0 0 0 .01-.025c0-.09-.372-.184-.84-.203-.47-.02-.855.037-.86.13Z"/><path fill="#407BFF" d="M22.06 43.64a.04.04 0 0 0 .009.024c.065-.079.424-.126.848-.105.424.02.776.094.833.18a.043.043 0 0 0 .01-.025c0-.09-.372-.184-.84-.203-.47-.02-.855.037-.86.13Z" opacity=".4"/><path fill="#407BFF" d="M22.07 43.664c.057.086.407.163.832.18.425.019.782-.028.848-.105-.057-.086-.407-.163-.833-.18-.426-.019-.783.026-.848.105Z" opacity=".4"/><path fill="#407BFF" d="M21.952 43.442c0 .136.424.265.963.287.538.022.977-.069.983-.204.005-.136-.424-.265-.962-.289-.537-.023-.977.07-.984.206Z"/><path fill="#407BFF" d="m21.961 43.193-.01.247 1.945.082.01-.247-1.945-.082Z"/><path fill="#407BFF" d="M21.963 43.195c0 .137.424.265.962.288.539.024.978-.069.983-.205.005-.137-.424-.265-.961-.288-.538-.022-.978.07-.984.205Z"/><path fill="#fff" d="M21.963 43.195c0 .137.424.265.962.288.539.024.978-.069.983-.205.005-.137-.424-.265-.961-.288-.538-.022-.978.07-.984.205Z" opacity=".4"/><path fill="#407BFF" d="M22.087 43.19a.04.04 0 0 0 .009.025c.064-.08.424-.126.848-.106.424.02.775.094.833.18a.043.043 0 0 0 .01-.024c0-.091-.373-.185-.841-.204-.469-.019-.855.038-.859.13Z"/><path fill="#407BFF" d="M22.087 43.19a.04.04 0 0 0 .009.025c.064-.08.424-.126.848-.106.424.02.775.094.833.18a.043.043 0 0 0 .01-.024c0-.091-.373-.185-.841-.204-.469-.019-.855.038-.859.13Z" opacity=".4"/><path fill="#407BFF" d="M22.096 43.215c.058.086.408.162.833.18.425.018.782-.029.848-.106-.058-.086-.407-.162-.833-.18-.427-.018-.784.026-.848.106Z" opacity=".4"/><path fill="#407BFF" d="M21.748 43.069c0 .135.424.265.962.287.539.022.978-.069.984-.205.006-.135-.424-.265-.962-.288-.539-.023-.978.067-.984.206Z"/><path fill="#407BFF" d="m21.758 42.82-.01.247 1.945.083.01-.247-1.945-.082Z"/><path fill="#407BFF" d="M21.759 42.824c-.006.137.424.265.962.288.538.024.977-.069.983-.205.005-.137-.424-.264-.962-.288-.537-.023-.977.067-.983.205Z"/><path fill="#fff" d="M21.759 42.824c-.006.137.424.265.962.288.538.024.977-.069.983-.205.005-.137-.424-.264-.962-.288-.537-.023-.977.067-.983.205Z" opacity=".4"/><path fill="#407BFF" d="M21.882 42.818a.04.04 0 0 0 .009.024c.066-.08.424-.126.848-.106.424.02.777.094.833.18a.036.036 0 0 0 .01-.023c0-.092-.372-.186-.841-.205-.468-.019-.854.038-.859.13Z"/><path fill="#407BFF" d="M21.882 42.818a.04.04 0 0 0 .009.024c.066-.08.424-.126.848-.106.424.02.777.094.833.18a.036.036 0 0 0 .01-.023c0-.092-.372-.186-.841-.205-.468-.019-.854.038-.859.13Z" opacity=".4"/><path fill="#407BFF" d="M21.89 42.842c.06.086.409.162.834.18.425.018.782-.029.848-.106-.056-.086-.407-.162-.833-.18-.426-.018-.782.026-.848.106Z" opacity=".4"/><path fill="#407BFF" d="M22.06 42.753c-.006.136.425.265.963.287.538.022.977-.069.983-.204.005-.136-.424-.265-.963-.289-.538-.023-.977.065-.982.206Z"/><path fill="#407BFF" d="m22.07 42.503-.011.247 1.945.083.01-.247-1.945-.083Z"/><path fill="#407BFF" d="M22.071 42.506c-.006.136.424.265.961.288.538.023.978-.069.984-.205.007-.137-.424-.265-.962-.288-.539-.022-.978.07-.983.205Z"/><path fill="#fff" d="M22.071 42.506c-.006.136.424.265.961.288.538.023.978-.069.984-.205.007-.137-.424-.265-.962-.288-.539-.022-.978.07-.983.205Z" opacity=".4"/><path fill="#407BFF" d="M22.195 42.506a.03.03 0 0 0 .009.024c.064-.08.424-.127.848-.106.424.022.777.096.834.18a.036.036 0 0 0 .01-.023c0-.092-.373-.184-.842-.204-.47-.02-.856.032-.859.129Z"/><path fill="#407BFF" d="M22.195 42.506a.03.03 0 0 0 .009.024c.064-.08.424-.127.848-.106.424.022.777.096.834.18a.036.036 0 0 0 .01-.023c0-.092-.373-.184-.842-.204-.47-.02-.856.032-.859.129Z" opacity=".4"/><path fill="#407BFF" d="M22.204 42.526c.057.085.408.162.833.18.425.018.781-.028.848-.106-.058-.085-.408-.162-.834-.18-.427-.018-.783.026-.847.106Z" opacity=".4"/><path fill="#407BFF" d="M20.689 44.242c.033.133.483.134 1.005 0 .521-.133.917-.343.884-.476-.033-.132-.482-.133-1.004 0-.522.134-.918.345-.885.476Z"/><path fill="#407BFF" d="m22.518 43.53-1.889.473.06.24 1.89-.474-.06-.24Z"/><path fill="#407BFF" d="M20.63 44.004c.032.131.482.133 1.003 0 .522-.134.918-.344.884-.475-.034-.132-.482-.134-1.003 0-.522.133-.918.342-.884.475Z"/><path fill="#fff" d="M20.63 44.004c.032.131.482.133 1.003 0 .522-.134.918-.344.884-.475-.034-.132-.482-.134-1.003 0-.522.133-.918.342-.884.475Z" opacity=".4"/><path fill="#407BFF" d="M20.747 43.964a.035.035 0 0 0 .015.02c.04-.094.367-.24.78-.344.414-.104.77-.13.848-.064a.035.035 0 0 0 0-.025c-.022-.09-.41-.071-.865.043-.454.115-.8.28-.778.37Z"/><path fill="#407BFF" d="M20.747 43.964a.035.035 0 0 0 .015.02c.04-.094.367-.24.78-.344.414-.104.77-.13.848-.064a.035.035 0 0 0 0-.025c-.022-.09-.41-.071-.865.043-.454.115-.8.28-.778.37Z" opacity=".4"/><path fill="#407BFF" d="M20.762 43.99c.08.066.438.04.848-.064.41-.104.742-.249.78-.344-.08-.066-.437-.04-.848.063-.411.103-.74.245-.78.345Z" opacity=".4"/><path fill="#407BFF" d="M19.787 44.264c0 .136.424.265.962.288.539.022.978-.07.983-.205.005-.136-.424-.265-.962-.288-.537-.023-.977.069-.983.205Z"/><path fill="#407BFF" d="m19.796 44.015-.01.247 1.945.083.01-.247-1.945-.083Z"/><path fill="#407BFF" d="M19.797 44.017c-.005.137.424.265.963.289.538.023.977-.07.982-.206.006-.137-.424-.265-.96-.287-.538-.022-.978.07-.985.204Z"/><path fill="#fff" d="M19.797 44.017c-.005.137.424.265.963.289.538.023.977-.07.982-.206.006-.137-.424-.265-.96-.287-.538-.022-.978.07-.985.204Z" opacity=".4"/><path fill="#407BFF" d="M19.921 44.013a.04.04 0 0 0 .009.025c.064-.08.424-.128.848-.106.424.02.776.095.833.18a.042.042 0 0 0 .01-.024c0-.092-.372-.184-.841-.203-.469-.02-.852.036-.859.128Z"/><path fill="#407BFF" d="M19.921 44.013a.04.04 0 0 0 .009.025c.064-.08.424-.128.848-.106.424.02.776.095.833.18a.042.042 0 0 0 .01-.024c0-.092-.372-.184-.841-.203-.469-.02-.852.036-.859.128Z" opacity=".4"/><path fill="#407BFF" d="M19.928 44.038c.058.086.408.162.833.18.425.018.782-.029.848-.106-.057-.086-.407-.162-.833-.181-.426-.02-.781.027-.848.107Z" opacity=".4"/><path fill="#407BFF" d="M29.835 44.253c-.007.14.436.272.989.296.552.023 1.004-.071 1.01-.212.007-.141-.437-.272-.99-.296-.551-.024-1.004.072-1.01.212Z"/><path fill="#407BFF" d="m29.843 43.996-.01.253 2 .085.01-.253-2-.085Z"/><path fill="#407BFF" d="M29.845 44c-.006.14.437.272.99.295.552.023 1.004-.07 1.01-.212.007-.14-.436-.271-.99-.295-.553-.025-1.004.072-1.01.212Z"/><path fill="#fff" d="M29.845 44c-.006.14.437.272.99.295.552.023 1.004-.07 1.01-.212.007-.14-.436-.271-.99-.295-.553-.025-1.004.072-1.01.212Z" opacity=".4"/><path fill="#407BFF" d="M29.973 43.995c0 .01.003.018.008.026.067-.083.432-.13.87-.113.438.018.799.098.857.186a.036.036 0 0 0 .01-.025c0-.094-.382-.19-.865-.212-.482-.022-.876.044-.88.138Z"/><path fill="#407BFF" d="M29.973 43.995c0 .01.003.018.008.026.067-.083.432-.13.87-.113.438.018.799.098.857.186a.036.036 0 0 0 .01-.025c0-.094-.382-.19-.865-.212-.482-.022-.876.044-.88.138Z" opacity=".4"/><path fill="#407BFF" d="M29.981 44.02c.06.087.424.167.857.186.434.02.804-.03.87-.112-.059-.088-.419-.167-.857-.186-.438-.019-.803.03-.87.112Z" opacity=".4"/><path fill="#407BFF" d="M29.624 43.87c-.006.139.438.272.99.296.552.024 1.005-.071 1.01-.212.005-.141-.437-.273-.99-.297-.551-.024-1.004.072-1.01.212Z"/><path fill="#407BFF" d="m29.634 43.615-.01.253 2 .085.01-.253-2-.085Z"/><path fill="#407BFF" d="M29.635 43.616c-.006.14.437.272.99.297.552.024 1.004-.071 1.01-.212.007-.142-.437-.273-.99-.297-.552-.025-1.004.072-1.01.212Z"/><path fill="#fff" d="M29.635 43.616c-.006.14.437.272.99.297.552.024 1.004-.071 1.01-.212.007-.142-.437-.273-.99-.297-.552-.025-1.004.072-1.01.212Z" opacity=".4"/><path fill="#407BFF" d="M29.763 43.611c0 .01.003.018.008.026.067-.083.432-.13.87-.112.436.017.799.097.857.185a.043.043 0 0 0 .01-.024c0-.095-.383-.19-.866-.212-.482-.023-.875.043-.88.137Z"/><path fill="#407BFF" d="M29.763 43.611c0 .01.003.018.008.026.067-.083.432-.13.87-.112.436.017.799.097.857.185a.043.043 0 0 0 .01-.024c0-.095-.383-.19-.866-.212-.482-.023-.875.043-.88.137Z" opacity=".4"/><path fill="#407BFF" d="M29.77 43.637c.06.087.425.166.857.185.433.02.805-.03.87-.112-.058-.088-.418-.166-.857-.185-.439-.02-.802.03-.87.112Z" opacity=".4"/><path fill="#407BFF" d="M30.075 43.586c-.006.139.437.272.99.296.551.024 1.004-.071 1.01-.212.007-.141-.437-.273-.99-.296-.552-.023-1.004.072-1.01.212Z"/><path fill="#407BFF" d="m30.084 43.33-.01.253 2 .085.01-.253-2-.085Z"/><path fill="#407BFF" d="M30.086 43.332c-.006.14.437.272.989.296.552.025 1.005-.07 1.011-.212.007-.14-.438-.272-.99-.295-.552-.024-1.005.072-1.01.21Z"/><path fill="#fff" d="M30.086 43.332c-.006.14.437.272.989.296.552.025 1.005-.07 1.011-.212.007-.14-.438-.272-.99-.295-.552-.024-1.005.072-1.01.21Z" opacity=".4"/><path fill="#407BFF" d="M30.21 43.328c0 .009.003.017.008.025.067-.083.433-.13.87-.113.436.019.799.098.857.186a.043.043 0 0 0 .01-.024c0-.095-.383-.19-.865-.212-.483-.023-.873.043-.88.138Z"/><path fill="#407BFF" d="M30.21 43.328c0 .009.003.017.008.025.067-.083.433-.13.87-.113.436.019.799.098.857.186a.043.043 0 0 0 .01-.024c0-.095-.383-.19-.865-.212-.483-.023-.873.043-.88.138Z" opacity=".4"/><path fill="#407BFF" d="M30.222 43.354c.059.088.424.166.856.185.433.02.805-.03.87-.112-.058-.088-.418-.166-.857-.185-.44-.02-.803.028-.87.112Z" opacity=".4"/><path fill="#407BFF" d="M30.08 43.202c-.006.14.437.273.99.296.552.023 1.004-.071 1.01-.212.007-.14-.437-.272-.99-.296-.552-.023-1.004.072-1.01.212Z"/><path fill="#407BFF" d="m30.053 42.818-.01.253 2.002.08.01-.253-2.002-.08Z"/><path fill="#407BFF" d="M30.091 42.949c-.006.14.437.272.989.296.552.023 1.005-.071 1.011-.212.007-.141-.438-.273-.99-.296-.552-.023-1.005.072-1.01.212Z"/><path fill="#fff" d="M30.091 42.949c-.006.14.437.272.989.296.552.023 1.005-.071 1.011-.212.007-.141-.438-.273-.99-.296-.552-.023-1.005.072-1.01.212Z" opacity=".4"/><path fill="#407BFF" d="M30.218 42.945c0 .008.004.017.009.024.067-.083.432-.13.87-.112.436.018.798.098.857.185a.036.036 0 0 0 .01-.024c0-.095-.383-.19-.866-.212-.483-.022-.875.043-.88.139Z"/><path fill="#407BFF" d="M30.218 42.945c0 .008.004.017.009.024.067-.083.432-.13.87-.112.436.018.798.098.857.185a.036.036 0 0 0 .01-.024c0-.095-.383-.19-.866-.212-.483-.022-.875.043-.88.139Z" opacity=".4"/><path fill="#407BFF" d="M30.227 42.969c.06.088.424.166.857.185.434.02.804-.03.87-.112-.059-.087-.42-.166-.858-.185-.439-.02-.802.03-.87.112Z" opacity=".4"/><path fill="#407BFF" d="M29.67 42.889c-.007.14.436.272.988.295.552.024 1.005-.07 1.011-.212.007-.14-.436-.272-.989-.295-.552-.024-1 .072-1.01.212Z"/><path fill="#407BFF" d="m29.681 42.638-.01.253 2 .085.01-.253-2-.085Z"/><path fill="#407BFF" d="M29.68 42.635c-.007.14.436.273.989.296.552.023 1.005-.071 1.011-.212.006-.141-.437-.273-.989-.296-.552-.023-1.005.072-1.011.212Z"/><path fill="#fff" d="M29.68 42.635c-.007.14.436.273.989.296.552.023 1.005-.071 1.011-.212.006-.141-.437-.273-.989-.296-.552-.023-1.005.072-1.011.212Z" opacity=".4"/><path fill="#407BFF" d="M29.807 42.631c0 .009.003.017.009.024.067-.081.433-.13.87-.111.436.02.798.098.856.184a.034.034 0 0 0 .01-.023c0-.095-.382-.19-.864-.212-.482-.022-.877.043-.881.138Z"/><path fill="#407BFF" d="M29.807 42.631c0 .009.003.017.009.024.067-.081.433-.13.87-.111.436.02.798.098.856.184a.034.034 0 0 0 .01-.023c0-.095-.382-.19-.864-.212-.482-.022-.877.043-.881.138Z" opacity=".4"/><path fill="#407BFF" d="M29.816 42.655c.06.088.424.168.857.186.434.018.804-.03.87-.113-.059-.086-.42-.166-.857-.184-.438-.018-.803.03-.87.111Z" opacity=".4"/><path fill="#407BFF" d="M32.252 43.652c-.059.124.289.409.775.636.487.227.929.318.986.19.058-.127-.29-.407-.776-.635-.486-.228-.928-.314-.986-.191Z"/><path fill="#407BFF" d="m32.356 43.432-.105.224 1.763.828.105-.224-1.763-.828Z"/><path fill="#407BFF" d="M32.356 43.43c-.058.122.29.407.776.635.487.228.929.318.986.191.057-.127-.29-.41-.776-.636-.486-.227-.928-.315-.986-.19Z"/><path fill="#fff" d="M32.356 43.43c-.058.122.29.407.776.635.487.228.929.318.986.191.057-.127-.29-.41-.776-.636-.486-.227-.928-.315-.986-.19Z" opacity=".4"/><path fill="#407BFF" d="M32.472 43.473a.035.035 0 0 0 0 .025c.09-.047.437.046.821.227.385.181.68.388.7.489a.037.037 0 0 0 .018-.018c.04-.084-.272-.318-.698-.514-.425-.197-.802-.292-.841-.21Z"/><path fill="#407BFF" d="M32.472 43.473a.035.035 0 0 0 0 .025c.09-.047.437.046.821.227.385.181.68.388.7.489a.037.037 0 0 0 .018-.018c.04-.084-.272-.318-.698-.514-.425-.197-.802-.292-.841-.21Z" opacity=".4"/><path fill="#407BFF" d="M32.47 43.498c.021.106.319.307.7.489.38.18.732.275.822.227-.02-.101-.318-.308-.7-.49-.381-.18-.731-.274-.821-.226Z" opacity=".4"/><path fill="#407BFF" d="M31.228 44.09c-.005.135.424.264.963.287.538.023.977-.069.984-.205.006-.135-.424-.265-.963-.288-.538-.023-.977.069-.984.206Z"/><path fill="#407BFF" d="m31.238 43.84-.01.246 1.945.083.01-.247-1.945-.083Z"/><path fill="#407BFF" d="M31.239 43.842c0 .136.424.265.963.289.538.023.977-.07.982-.206.005-.136-.424-.265-.961-.287-.538-.022-.978.069-.984.204Z"/><path fill="#fff" d="M31.239 43.842c0 .136.424.265.963.289.538.023.977-.07.982-.206.005-.136-.424-.265-.961-.287-.538-.022-.978.069-.984.204Z" opacity=".4"/><path fill="#407BFF" d="M31.363 43.838a.04.04 0 0 0 .009.025c.065-.08.424-.127.848-.106.424.021.777.095.833.18a.034.034 0 0 0 .01-.023c0-.093-.373-.185-.841-.205-.469-.02-.855.037-.859.13Z"/><path fill="#407BFF" d="M31.363 43.838a.04.04 0 0 0 .009.025c.065-.08.424-.127.848-.106.424.021.777.095.833.18a.034.034 0 0 0 .01-.023c0-.093-.373-.185-.841-.205-.469-.02-.855.037-.859.13Z" opacity=".4"/><path fill="#407BFF" d="M31.376 43.863c.058.084.408.162.833.18.425.018.782-.029.848-.106-.056-.085-.407-.162-.833-.18-.426-.018-.787.02-.848.106Z" opacity=".4"/><path fill="#407BFF" d="M14.09 16.854v.636c.401.032.781.19 1.087.45l.453-.452a2.544 2.544 0 0 0-1.54-.634ZM13.78 21.316a1.913 1.913 0 0 1-1.754-1.755h-.636a2.552 2.552 0 0 0 2.39 2.395v-.64ZM12.028 19.252a1.916 1.916 0 0 1 1.752-1.754v-.636a2.553 2.553 0 0 0-2.394 2.394l.642-.004Z"/><path fill="#000" d="M12.028 19.252a1.916 1.916 0 0 1 1.752-1.754v-.636a2.553 2.553 0 0 0-2.394 2.394l.642-.004Z" opacity=".2"/><path fill="#407BFF" d="m15.848 17.713-.452.453a1.915 1.915 0 0 1-1.305 3.15v.635a2.553 2.553 0 0 0 1.757-4.24v.003Z"/><path fill="#fff" d="M14.09 16.854v.636c.401.032.781.19 1.087.45l.453-.452a2.544 2.544 0 0 0-1.54-.634Z" opacity=".8"/><path fill="#fff" d="M13.78 21.316a1.913 1.913 0 0 1-1.754-1.755h-.636a2.552 2.552 0 0 0 2.39 2.395v-.64Z" opacity=".6"/><path fill="#fff" d="M12.028 19.252a1.916 1.916 0 0 1 1.752-1.754v-.636a2.553 2.553 0 0 0-2.394 2.394l.642-.004Z" opacity=".7"/><path fill="#fff" d="m15.848 17.713-.452.453a1.915 1.915 0 0 1-1.305 3.15v.635a2.553 2.553 0 0 0 1.757-4.24v.003Z" opacity=".5"/><path fill="#407BFF" d="m18.582 16.182.81 1.1 4.673-1.94 4.555 1.62 4.127-2.668.295.392.98-1.605-2.197-.171.338.444-4.13 2.643-4.487-1.592-4.964 1.777Z"/><path fill="#fff" d="m18.582 16.182.81 1.1 4.673-1.94 4.555 1.62 4.127-2.668.295.392.98-1.605-2.197-.171.338.444-4.13 2.643-4.487-1.592-4.964 1.777Z" opacity=".5"/><path fill="#407BFF" d="M37.736 16.867a1.028 1.028 0 1 0 0 2.056 1.028 1.028 0 0 0 0-2.056Zm0 1.542a.514.514 0 1 1-.002-1.028.514.514 0 0 1 .002 1.028ZM40.328 19.884a1.029 1.029 0 1 0-.002 2.057 1.029 1.029 0 0 0 .002-2.057Zm0 1.54a.514.514 0 1 1-.002-1.028.514.514 0 0 1 .002 1.029ZM38.121 21.94h-.684l2.376-5.073h.683l-2.375 5.073Z"/><g fill="#fff" opacity=".5"><path d="M37.736 16.867a1.028 1.028 0 1 0 0 2.056 1.028 1.028 0 0 0 0-2.056Zm0 1.542a.514.514 0 1 1-.002-1.028.514.514 0 0 1 .002 1.028ZM40.328 19.884a1.029 1.029 0 1 0-.002 2.057 1.029 1.029 0 0 0 .002-2.057Zm0 1.54a.514.514 0 1 1-.002-1.028.514.514 0 0 1 .002 1.029ZM38.121 21.94h-.684l2.376-5.073h.683l-2.375 5.073Z"/></g></g><defs><clipPath id="a"><path fill="#fff" d="M0 0h53v53H0z"/></clipPath></defs></svg>