<svg xmlns="http://www.w3.org/2000/svg" width="29" height="28" fill="none"><path fill="#3F4ACF" fill-opacity=".47" d="M10.387 14.034c-.008 2.09 1.701 3.792 3.818 3.8 2.117.008 3.84-1.68 3.848-3.77.008-2.09-1.702-3.794-3.819-3.802-2.116-.008-3.84 1.68-3.847 3.772Z"/><path fill="#3F4ACF" d="M24.613 14.028C24.636 8.35 19.976 3.712 14.226 3.69 8.476 3.667 3.782 8.268 3.759 13.947c-.022 5.679 4.638 10.315 10.386 10.337 1.74.007 3.38-.41 4.824-1.15a5.273 5.273 0 0 0-4.807-3.119C10.8 20.002 8.084 17.3 8.097 13.98c.013-3.32 2.75-6.001 6.112-5.988 3.363.013 6.237 2.882 6.055 6.33l.03.01-.03 8.017c2.62-1.864 4.335-4.895 4.348-8.32h.001Z"/></svg>