<svg xmlns="http://www.w3.org/2000/svg" width="116" height="50" fill="none"><path fill="#3F4ACF" d="M19.24 21.562c-2.76 0-5-2.24-5-5v-4l4-.98v4.98c0 .56.44 1 1 1h9.98c.54 0 .98-.44.98-1v-4l4.02-.98v4.98c0 2.76-2.26 5-5 5h-9.98Zm2.02 4.98v-2.98h5.96v3.98l-2.98 1v-2h-2.98Zm14.718-4.98V7.582l4-1v14.98h-4Zm7.91 0V7.582l4-1v14.98h-4Zm8.402 5.68-2.2-3.32 3.56-2.36h-.04c-1.7 0-4.42-1.92-4.42-4.96 0-2.74 2.24-5 5-5h5v11.06l-6.9 4.58Zm.9-10.68c0 .56.44 1 1 1h1v-2h-1c-.56 0-1 .46-1 1Zm12.788 5c-2.76 0-5-2.24-5-5v-8.98l3.98-1v9.98c0 .56.46 1 1.02 1l.7 2-.7 2Zm-.01 0h-.06l-.66-2 .68-2h.04c.54 0 .98-.44.98-1v-4h4.02v4c0 .56.44 1 .98 1 .56 0 1-.44 1-1v-4h4v4c0 .56.44 1 1 1 .54 0 1-.44 1-1v-4l3.98-.98v4.98c0 2.76-2.24 5-4.98 5-1.14 0-2.16-.38-2.98-.98-.84.6-1.9.98-3.02.98-1.1 0-2.16-.38-3-.98-.84.6-1.86.98-2.98.98Z"/><rect width="112" height="18" y="32" fill="#E6ECF1" rx="9"/><path fill="#8697A6" d="M8.72 46.58c-1.13 0-2.04-.9-2.04-2.03v-2.23l1.08-.27v2.5c0 .52.43.96.96.96h.99c.54 0 .96-.44.96-.96v-4.23l1.09-.27v2.87h.65l.19.54-.19.54h-.65v.55c0 1.13-.92 2.03-2.05 2.03h-.99Zm-.37-5.71v-.91h1v.91h-1ZM12.406 44l-.19-.54.19-.54h.77c.52 0 .96-.43.96-.96v-1.64l1.07-.27v1.91c0 1.13-.91 2.04-2.03 2.04h-.77Zm0 1.89V45h2.26v.89h-2.26ZM16.201 44v-1.08h.5V37.8l1.08-.31v5.43h.96c.52 0 .96-.43.96-.96v-4.22l1.07-.28v4.5c0 .53.43.96.95.96l.19.54-.19.54c-.59 0-1.12-.28-1.47-.68-.37.42-.91.68-1.51.68h-2.54Zm5.522 0h-.03l-.16-.54.18-.54h.01c.52 0 .95-.43.95-.96v-1.64l1.09-.27v1.91c0 1.13-.92 2.04-2.04 2.04Zm1-4.97v-.92h1v.92h-1ZM24.756 44v-6.23l1.08-.27V44h-1.08Zm-1.2-7.1v-.88h2.29v-.45l1.19.45v.88h-3.48Zm6.355 9.68c-1.13 0-2.04-.9-2.04-2.03v-2.23l1.08-.27v2.5c0 .53.43.95.96.95h.99c.54 0 .96-.42.96-.95v-6.78l1.09-.27v4.46c0 .53.43.96.95.96l.19.54-.19.54c-.35 0-.67-.09-.95-.25v.8c0 1.13-.92 2.03-2.05 2.03h-.99Zm3.99-2.58-.19-.54.19-.54h.73c.53 0 .95-.43.95-.96v-1.64l1.08-.27v1.91c0 .53.43.96.96.96l.19.54-.19.54c-.61 0-1.14-.28-1.5-.71-.35.43-.89.71-1.49.71h-.73Zm.36 1.89V45h2.26v.89h-2.26ZM37.62 44l-.19-.54.19-.54h6.22c.52 0 .95-.43.95-.96a.95.95 0 0 0-.95-.95h-5.72v-1.09l3.89-2.35.57.85-2.49 1.51h3.75a2.036 2.036 0 1 1 0 4.07h-6.22Zm10.224 2.28-.6-.9 2.08-1.38h-.78c-.91 0-1.92-.9-1.92-2.03 0-1.12.91-2.05 2.04-2.05h2.04v4.46l-2.86 1.9Zm-.14-4.32c0 .53.43.96.96.96h.96V41h-.96a.96.96 0 0 0-.96.96ZM54.706 44c-1.13 0-2.04-.91-2.04-2.04v-1.64l1.08-.27v1.91c0 .53.43.96.96.96h4.57c.53 0 .96-.43.96-.96v-1.64l1.09-.27v1.91c0 1.13-.92 2.04-2.05 2.04h-4.57Zm1.77 1.91v-.92h1v.92h-1ZM64.345 44a2.04 2.04 0 0 1-2.03-2.04v-4.19l1.07-.27v4.46c0 .53.44.96.96.96l.19.54-.19.54Zm.005 0-.19-.54.19-.54h3.64v-.96a.95.95 0 0 0-.95-.95h-1.91l.26-1.08h1.65c1.12 0 2.04.91 2.04 2.03v.96h.59l.18.54-.18.54h-5.32Zm1.43-5.09V38h1.01v.91h-1.01ZM69.662 44h-.01l-.18-.54.18-.54h.01c.52 0 .96-.43.96-.96v-1.64l1.07-.27v1.91c0 .53.43.96.96.96l.2.54-.2.54c-.61 0-1.15-.28-1.5-.71-.35.43-.88.71-1.49.71Zm-.1-4.97v-.89h2.26v.89h-2.26ZM72.65 44l-.19-.54.19-.54h.77c.52 0 .96-.43.96-.96v-1.64l1.07-.27v1.91c0 1.13-.91 2.04-2.03 2.04h-.77Zm1.7-4.97v-.92h1v.92h-1ZM76.446 44v-6.23l1.08-.27V44h-1.08Zm5.145 0c-1.12 0-2.03-.91-2.03-2.04 0-1.12.91-2.03 2.03-2.03h2.04v2.03c0 .53.43.96.96.96l.19.54-.19.54c-.6 0-1.13-.28-1.48-.68-.37.42-.91.68-1.52.68Zm-.95-2.04c0 .53.43.96.95.96.53 0 .96-.43.96-.96v-.95h-.96a.95.95 0 0 0-.95.95ZM84.594 44h-.03l-.16-.54.18-.54h.01c.52 0 .95-.43.95-.96v-1.64l1.09-.27v1.91c0 1.13-.92 2.04-2.04 2.04Zm1-4.97v-.92h1v.92h-1ZM89.657 44a2.04 2.04 0 0 1-2.03-2.04v-4.19l1.07-.27v4.46c0 .53.44.96.96.96l.19.54-.19.54Zm.005 0h-.02l-.17-.54.18-.54h.01c.52 0 .96-.43.96-.96v-2.04h2.03c1.13 0 2.05.91 2.05 2.04s-.92 2.04-2.05 2.04c-.6 0-1.14-.29-1.49-.71-.35.42-.89.71-1.5.71Zm2.04-2.04a.954.954 0 1 0 1.91 0c0-.53-.42-.95-.96-.95h-.95v.95ZM97.724 44a2.04 2.04 0 0 1-2.03-2.04v-4.19l1.07-.27v4.46c0 .53.44.96.96.96l.19.54-.19.54Zm.004 0h-.02l-.17-.54.18-.54h.01c.52 0 .96-.43.96-.96v-1.54h1.08v1.73c0 .42.341.77.761.77.43 0 .77-.35.77-.77v-1.73h1.08v1.73c0 .42.35.77.77.77.42 0 .77-.35.77-.77v-1.8l1.07-.27v2.07c0 1.02-.82 1.85-1.84 1.85-.5 0-1-.28-1.31-.58-.32.35-.79.58-1.31.58-.51 0-1.06-.33-1.35-.64-.36.39-.88.64-1.45.64Z"/><path fill="#040506" d="M97.804 14.034c-.008 2.09 1.701 3.792 3.818 3.8 2.117.008 3.84-1.68 3.848-3.77.008-2.09-1.702-3.794-3.819-3.802-2.116-.008-3.84 1.68-3.847 3.772Z"/><path fill="#3F4ACF" d="M112.03 14.028c.023-5.679-4.637-10.316-10.387-10.339-5.75-.022-10.444 4.579-10.466 10.258-.023 5.679 4.637 10.315 10.386 10.337 1.738.007 3.379-.41 4.823-1.15a5.273 5.273 0 0 0-4.807-3.119c-3.363-.013-6.078-2.716-6.065-6.036.013-3.32 2.75-6.001 6.112-5.988 3.363.013 6.237 2.882 6.055 6.33l.031.01-.032 8.017c2.621-1.864 4.336-4.895 4.349-8.32h.001Z"/></svg>