<svg xmlns="http://www.w3.org/2000/svg" width="198" height="28" fill="none"><path fill="#3F4ACF" d="M120.68 19c-2.07 0-3.75-1.68-3.75-3.75v-3l3-.735v3.735c0 .42.33.75.75.75h7.485a.74.74 0 0 0 .735-.75v-3l3.015-.735v3.735c0 2.07-1.695 3.75-3.75 3.75h-7.485Zm1.515 3.735V20.5h4.47v2.985l-2.235.75v-1.5h-2.235ZM133.234 19V8.515l3-.75V19h-3Zm5.932 0V8.515l3-.75V19h-3Zm6.301 4.26-1.65-2.49 2.67-1.77h-.03c-1.275 0-3.315-1.44-3.315-3.72 0-2.055 1.68-3.75 3.75-3.75h3.75v8.295l-5.175 3.435Zm.675-8.01c0 .42.33.75.75.75h.75v-1.5h-.75c-.42 0-.75.345-.75.75Zm9.592 3.75c-2.07 0-3.75-1.68-3.75-3.75V8.515l2.985-.75v7.485c0 .42.345.75.765.75l.525 1.5-.525 1.5Zm-.007 0h-.045l-.495-1.5.51-1.5h.03a.74.74 0 0 0 .735-.75v-3h3.015v3a.743.743 0 1 0 1.485 0v-3h3v3c0 .42.33.75.75.75.405 0 .75-.33.75-.75v-3l2.985-.735v3.735c0 2.07-1.68 3.75-3.735 3.75-.855 0-1.62-.285-2.235-.735-.63.45-1.425.735-2.265.735-.825 0-1.62-.285-2.25-.735-.63.45-1.395.735-2.235.735Z"/><rect width="112" height="18" y="5" fill="#E6ECF1" rx="9"/><path fill="#8697A6" d="M8.72 19.58c-1.13 0-2.04-.9-2.04-2.03v-2.23l1.08-.27v2.5c0 .52.43.96.96.96h.99c.54 0 .96-.44.96-.96v-4.23l1.09-.27v2.87h.65l.19.54-.19.54h-.65v.55c0 1.13-.92 2.03-2.05 2.03h-.99Zm-.37-5.71v-.91h1v.91h-1ZM12.406 17l-.19-.54.19-.54h.77c.52 0 .96-.43.96-.96v-1.64l1.07-.27v1.91c0 1.13-.91 2.04-2.03 2.04h-.77Zm0 1.89V18h2.26v.89h-2.26ZM16.201 17v-1.08h.5V10.8l1.08-.31v5.43h.96c.52 0 .96-.43.96-.96v-4.22l1.07-.28v4.5c0 .53.43.96.95.96l.19.54-.19.54c-.59 0-1.12-.28-1.47-.68-.37.42-.91.68-1.51.68h-2.54Zm5.522 0h-.03l-.16-.54.18-.54h.01c.52 0 .95-.43.95-.96v-1.64l1.09-.27v1.91c0 1.13-.92 2.04-2.04 2.04Zm1-4.97v-.92h1v.92h-1ZM24.756 17v-6.23l1.08-.27V17h-1.08Zm-1.2-7.1v-.88h2.29v-.45l1.19.45v.88h-3.48Zm6.355 9.68c-1.13 0-2.04-.9-2.04-2.03v-2.23l1.08-.27v2.5c0 .53.43.95.96.95h.99c.54 0 .96-.42.96-.95v-6.78l1.09-.27v4.46c0 .53.43.96.95.96l.19.54-.19.54c-.35 0-.67-.09-.95-.25v.8c0 1.13-.92 2.03-2.05 2.03h-.99Zm3.99-2.58-.19-.54.19-.54h.73c.53 0 .95-.43.95-.96v-1.64l1.08-.27v1.91c0 .53.43.96.96.96l.19.54-.19.54c-.61 0-1.14-.28-1.5-.71-.35.43-.89.71-1.49.71h-.73Zm.36 1.89V18h2.26v.89h-2.26ZM37.62 17l-.19-.54.19-.54h6.22c.52 0 .95-.43.95-.96a.95.95 0 0 0-.95-.95h-5.72v-1.09l3.89-2.35.57.85-2.49 1.51h3.75a2.036 2.036 0 1 1 0 4.07h-6.22Zm10.224 2.28-.6-.9 2.08-1.38h-.78c-.91 0-1.92-.9-1.92-2.03 0-1.12.91-2.05 2.04-2.05h2.04v4.46l-2.86 1.9Zm-.14-4.32c0 .53.43.96.96.96h.96V14h-.96a.96.96 0 0 0-.96.96ZM54.706 17c-1.13 0-2.04-.91-2.04-2.04v-1.64l1.08-.27v1.91c0 .53.43.96.96.96h4.57c.53 0 .96-.43.96-.96v-1.64l1.09-.27v1.91c0 1.13-.92 2.04-2.05 2.04h-4.57Zm1.77 1.91v-.92h1v.92h-1ZM64.345 17a2.04 2.04 0 0 1-2.03-2.04v-4.19l1.07-.27v4.46c0 .53.44.96.96.96l.19.54-.19.54Zm.005 0-.19-.54.19-.54h3.64v-.96a.95.95 0 0 0-.95-.95h-1.91l.26-1.08h1.65c1.12 0 2.04.91 2.04 2.03v.96h.59l.18.54-.18.54h-5.32Zm1.43-5.09V11h1.01v.91h-1.01ZM69.662 17h-.01l-.18-.54.18-.54h.01c.52 0 .96-.43.96-.96v-1.64l1.07-.27v1.91c0 .53.43.96.96.96l.2.54-.2.54c-.61 0-1.15-.28-1.5-.71-.35.43-.88.71-1.49.71Zm-.1-4.97v-.89h2.26v.89h-2.26ZM72.65 17l-.19-.54.19-.54h.77c.52 0 .96-.43.96-.96v-1.64l1.07-.27v1.91c0 1.13-.91 2.04-2.03 2.04h-.77Zm1.7-4.97v-.92h1v.92h-1ZM76.446 17v-6.23l1.08-.27V17h-1.08Zm5.145 0c-1.12 0-2.03-.91-2.03-2.04 0-1.12.91-2.03 2.03-2.03h2.04v2.03c0 .53.43.96.96.96l.19.54-.19.54c-.6 0-1.13-.28-1.48-.68-.37.42-.91.68-1.52.68Zm-.95-2.04c0 .53.43.96.95.96.53 0 .96-.43.96-.96v-.95h-.96a.95.95 0 0 0-.95.95ZM84.594 17h-.03l-.16-.54.18-.54h.01c.52 0 .95-.43.95-.96v-1.64l1.09-.27v1.91c0 1.13-.92 2.04-2.04 2.04Zm1-4.97v-.92h1v.92h-1ZM89.657 17a2.04 2.04 0 0 1-2.03-2.04v-4.19l1.07-.27v4.46c0 .53.44.96.96.96l.19.54-.19.54Zm.005 0h-.02l-.17-.54.18-.54h.01c.52 0 .96-.43.96-.96v-2.04h2.03c1.13 0 2.05.91 2.05 2.04s-.92 2.04-2.05 2.04c-.6 0-1.14-.29-1.49-.71-.35.42-.89.71-1.5.71Zm2.04-2.04a.954.954 0 1 0 1.91 0c0-.53-.42-.95-.96-.95h-.95v.95ZM97.724 17a2.04 2.04 0 0 1-2.03-2.04v-4.19l1.07-.27v4.46c0 .53.44.96.96.96l.19.54-.19.54Zm.004 0h-.02l-.17-.54.18-.54h.01c.52 0 .96-.43.96-.96v-1.54h1.08v1.73c0 .42.341.77.761.77.43 0 .77-.35.77-.77v-1.73h1.08v1.73c0 .42.35.77.77.77.42 0 .77-.35.77-.77v-1.8l1.07-.27v2.07c0 1.02-.82 1.85-1.84 1.85-.5 0-1-.28-1.31-.58-.32.35-.79.58-1.31.58-.51 0-1.06-.33-1.35-.64-.36.39-.88.64-1.45.64Z"/><path fill="#040506" d="M179.803 14.471c-.008 2.09 1.702 3.792 3.818 3.8 2.117.009 3.84-1.68 3.848-3.77.008-2.09-1.701-3.793-3.818-3.802-2.117-.008-3.84 1.68-3.848 3.772Z"/><path fill="#3F4ACF" d="M194.03 14.466c.022-5.68-4.637-10.317-10.387-10.34-5.751-.022-10.445 4.58-10.467 10.258-.022 5.68 4.637 10.316 10.386 10.338 1.739.007 3.379-.41 4.824-1.151a5.273 5.273 0 0 0-4.807-3.118c-3.363-.013-6.079-2.716-6.066-6.036.013-3.32 2.75-6.002 6.113-5.989 3.363.013 6.236 2.883 6.055 6.33l.03.011-.031 8.016c2.62-1.864 4.335-4.894 4.349-8.32h.001Z"/></svg>