<svg xmlns="http://www.w3.org/2000/svg" width="20" height="20" fill="none"><path fill="#fff" d="M2.5 4.375h15a.63.63 0 0 0 .625-.625.63.63 0 0 0-.625-.625h-15a.63.63 0 0 0-.625.625.63.63 0 0 0 .625.625ZM9.608 8.542H17.5a.63.63 0 0 0 .625-.625.63.63 0 0 0-.625-.625H9.608a.624.624 0 1 0 0 1.25ZM2.5 12.708h15a.63.63 0 0 0 .625-.625.63.63 0 0 0-.625-.625h-15a.63.63 0 0 0-.625.625.63.63 0 0 0 .625.625ZM9.608 16.875H17.5a.63.63 0 0 0 .625-.625.63.63 0 0 0-.625-.625H9.608a.624.624 0 1 0 0 1.25Z"/></svg>