<svg xmlns="http://www.w3.org/2000/svg" width="16" height="16" fill="none"><path fill="#fff" d="M10.54 13.453a7.22 7.22 0 0 1-1.693-.22l-1.12-.266c-3.074-.727-4.08-2.354-3.36-5.42l.653-2.794c.147-.633.32-1.146.533-1.573 1.147-2.367 3.34-2.153 4.9-1.787l1.114.26c1.56.367 2.546.947 3.1 1.834.546.886.633 2.026.266 3.586L14.28 9.86c-.573 2.44-1.767 3.593-3.74 3.593ZM8.747 2.167c-1.114 0-1.82.46-2.294 1.446-.173.36-.326.807-.46 1.367L5.34 7.773c-.593 2.52.093 3.62 2.613 4.22l1.12.267c.36.087.7.14 1.007.167 1.813.18 2.713-.614 3.22-2.794l.653-2.786c.3-1.287.26-2.187-.14-2.834-.4-.646-1.186-1.086-2.48-1.386l-1.113-.26a6.39 6.39 0 0 0-1.473-.2Z"/><path fill="#fff" d="M5.553 14.833c-1.713 0-2.806-1.026-3.506-3.193l-.854-2.633c-.946-2.934-.1-4.587 2.82-5.534l1.054-.34c.346-.106.606-.18.84-.22.193-.04.38.034.493.187a.517.517 0 0 1 .053.527c-.173.353-.326.8-.453 1.36L5.347 7.78C4.753 10.3 5.44 11.4 7.96 12l1.12.267c.36.086.7.14 1.007.166a.501.501 0 0 1 .247.913c-.44.3-.994.554-1.694.78l-1.053.347c-.767.24-1.434.36-2.034.36ZM5.187 4.147l-.86.28c-2.38.766-2.947 1.886-2.18 4.273L3 11.333c.773 2.38 1.893 2.954 4.273 2.187l1.054-.347c.04-.013.073-.026.113-.04l-.707-.166c-3.073-.727-4.08-2.354-3.36-5.42l.654-2.794c.046-.213.1-.42.16-.606ZM11.66 7.007c-.04 0-.08-.007-.127-.014L8.3 6.173a.5.5 0 0 1 .247-.966l3.233.82a.498.498 0 0 1-.12.98Z"/><path fill="#fff" d="M9.707 9.26c-.04 0-.08-.007-.127-.013l-1.94-.494a.5.5 0 0 1 .247-.966l1.94.493a.5.5 0 0 1 .36.607.486.486 0 0 1-.48.373Z"/></svg>