<svg xmlns="http://www.w3.org/2000/svg" fill="none" viewBox="0 0 65 65"><path d="M51.877 36.242s-.327.897-1.02 1.02c-.693.124-1.916-1.224-1.141-1.917.775-.693 1.834.405 2.16.897Z" fill="#407BFF"/><path d="M50.765 37.335c-.452 0-1.008-.472-1.236-.945-.208-.428-.156-.826.143-1.094a.888.888 0 0 1 .732-.231c.614.078 1.25.725 1.527 1.14a.062.062 0 0 1 0 .059c-.013.038-.347.934-1.069 1.062a.677.677 0 0 1-.097.009Zm-.486-2.148a.765.765 0 0 0-.52.206c-.346.309-.22.722-.115.94.249.509.831.929 1.202.864.578-.102.894-.793.958-.948-.273-.39-.858-.984-1.417-1.055a.778.778 0 0 0-.108-.007Z" fill="#263238"/><path d="M52.937 31.837s-1.019 2.488-.61 3.712c.407 1.223 2.935 2.12 3.67.53.734-1.59-.898-3.834-1.51-4.324-.612-.49-1.346-.326-1.55.082Z" fill="#407BFF"/><path d="M54.584 36.998h-.13c-.964-.053-1.95-.693-2.191-1.43-.411-1.232.57-3.654.613-3.757a.791.791 0 0 1 .557-.39 1.313 1.313 0 0 1 1.093.29c.625.502 2.276 2.778 1.527 4.402-.265.572-.785.885-1.469.885Zm-1.587-5.134c-.036.087-1 2.492-.61 3.664.225.675 1.17 1.287 2.08 1.336.402.024 1.125-.053 1.476-.812.719-1.56-.884-3.76-1.491-4.246a1.186 1.186 0 0 0-.984-.26.665.665 0 0 0-.47.318Z" fill="#263238"/><path d="M58.89 32.898s-1.751 1.59-1.95 3.18c-.199 1.592.979 2.163 2.202 1.959 1.223-.204 1.836-3.305 1.468-4.732-.368-1.428-1.72-.407-1.72-.407Z" fill="#407BFF"/><path d="M58.665 38.142a1.908 1.908 0 0 1-1.345-.48c-.381-.366-.536-.917-.45-1.592.205-1.595 1.906-3.155 1.978-3.22.029-.021.688-.514 1.234-.323.28.098.477.355.582.766.26 1.032.03 3.07-.675 4.152-.251.39-.536.607-.845.66a2.96 2.96 0 0 1-.479.037Zm.268-5.2c-.07.066-1.738 1.617-1.934 3.14-.081.633.06 1.145.41 1.481.39.374 1.014.52 1.718.404.271-.045.526-.247.756-.602.687-1.055.918-3.042.66-4.049-.094-.365-.26-.592-.5-.676-.465-.157-1.067.277-1.11.307v-.005Z" fill="#263238"/><path d="M59.219 41.707s-1.958.082-2.04 1.02c-.082.939.857 1.142 1.794.327.938-.816 1.061-1.306.246-1.347Z" fill="#407BFF"/><path d="M57.858 43.63a.798.798 0 0 1-.37-.085c-.275-.14-.408-.432-.374-.824.086-.983 2.02-1.075 2.102-1.08.333.017.53.11.588.276.088.26-.17.644-.793 1.184-.389.344-.803.528-1.153.528Zm1.36-1.858c-.084 0-1.9.105-1.974.96-.03.336.078.584.302.697.343.176.886.008 1.386-.425.746-.65.793-.933.755-1.04-.048-.142-.277-.182-.468-.192Z" fill="#263238"/><path d="M57.212 43.016a.066.066 0 0 1-.028-.13c.064-.029 1.56-.711 2.253-.834a.064.064 0 0 1 .076.054.061.061 0 0 1-.028.066.064.064 0 0 1-.024.008c-.679.12-2.21.818-2.222.824a.07.07 0 0 1-.027.012Z" fill="#263238"/><path d="M54.365 43.665s-.204.979-.938 1.346c-.733.368-2.04-.408-1.346-1.59.692-1.184 1.917-.245 2.284.244Z" fill="#407BFF"/><path d="M53.018 45.166a1.289 1.289 0 0 1-.918-.39c-.346-.37-.374-.875-.075-1.384.223-.381.52-.584.875-.604.616-.036 1.26.498 1.517.842a.061.061 0 0 1 .011.051c-.007.042-.218 1.015-.972 1.392a.975.975 0 0 1-.438.093Zm-.061-2.254h-.047c-.312.018-.57.2-.77.54-.267.456-.247.91.058 1.23.304.319.84.45 1.202.27.628-.315.857-1.113.897-1.273-.262-.332-.827-.767-1.34-.767Z" fill="#263238"/><path d="M52.65 40.606s-.368-.816-1.795-.285c-1.428.53-1.998 1.345-1.101 1.631.897.286 2.896-1.346 2.896-1.346Z" fill="#407BFF"/><path d="M49.99 42.05a.833.833 0 0 1-.26-.037c-.39-.123-.472-.326-.476-.474-.01-.419.608-.92 1.575-1.28 1.466-.545 1.872.311 1.876.32a.065.065 0 0 1-.018.077c-.07.061-1.714 1.394-2.697 1.394Zm1.74-1.845c-.291.008-.58.068-.85.176-1.033.39-1.496.867-1.49 1.154 0 .194.213.299.39.355.78.25 2.502-1.07 2.793-1.3-.074-.11-.303-.385-.842-.385Z" fill="#263238"/><path d="M50.05 41.492a.065.065 0 0 1-.042-.114c.823-.7 2.303-.867 2.365-.874a.064.064 0 0 1 .048.014.065.065 0 0 1-.034.115c-.015 0-1.502.17-2.294.844a.068.068 0 0 1-.043.015Z" fill="#263238"/><path d="M56.73 30.818s.245.57.735.448c.49-.122.611-.856 1.386-.65.775.207 1.43 1.102 1.43.693 0-.408-.979-1.467-2.08-1.467s-1.43.448-1.47.976Z" fill="#407BFF"/><path d="M60.217 31.477c-.092 0-.214-.094-.41-.243-.254-.194-.602-.46-.972-.558-.443-.117-.65.094-.868.315a1.066 1.066 0 0 1-.486.338c-.43.108-.718-.27-.81-.486a.058.058 0 0 1 0-.03c.053-.69.57-1.04 1.533-1.04 1.108 0 2.145 1.054 2.145 1.532a.17.17 0 0 1-.072.159.13.13 0 0 1-.06.013Zm-1.62-.965c.092.001.183.014.27.038.39.104.756.38 1.019.581.099.086.208.159.326.216v-.04c0-.343-.91-1.403-2.015-1.403-.888 0-1.347.295-1.401.902.04.083.26.495.65.397a.967.967 0 0 0 .425-.303c.184-.183.385-.388.726-.388ZM55.75 47.22a.063.063 0 0 1-.057-.042.064.064 0 0 1-.004-.025c0-.036.18-3.434 0-5.537-.18-2.104-1.024-4.592-1.033-4.618l-1.029-4.589a.066.066 0 1 1 .13-.028l1.027 4.582c.007.018.856 2.525 1.04 4.641.185 2.117 0 5.521 0 5.555a.065.065 0 0 1-.074.061Zm.427 0a.065.065 0 0 1-.046-.02.065.065 0 0 1-.018-.046c0-.028.064-2.828.305-4.639.242-1.81 1.212-4.68 1.222-4.704l1.835-3.931a.065.065 0 0 1 .115.008.065.065 0 0 1 .002.046l-1.832 3.925c-.007.022-.972 2.873-1.213 4.673-.24 1.8-.304 4.597-.304 4.624a.064.064 0 0 1-.02.046.065.065 0 0 1-.046.018Z" fill="#263238"/><path d="M56.54 47.281a.067.067 0 0 1-.06-.069c.235-3.988.64-4.301.717-4.324a.065.065 0 0 1 .045.12c-.028.025-.407.391-.632 4.212a.063.063 0 0 1-.022.045.064.064 0 0 1-.047.016Zm-1.4-.122a.065.065 0 0 1-.062-.068c0-.022.119-2.191-.12-2.964-.081-.266-.192-.427-.319-.465a.275.275 0 0 0-.229.052.055.055 0 0 1-.034.016c-.01 0-1.102.136-1.49.756a.065.065 0 1 1-.109-.069c.397-.634 1.413-.794 1.567-.815a.391.391 0 0 1 .33-.065c.174.05.312.237.41.553.244.794.13 2.918.13 3.008a.065.065 0 0 1-.048.06.063.063 0 0 1-.026.001Zm.305-.061h-.01a.067.067 0 0 1-.055-.074c0-.02.289-1.986-.025-3.74a.064.064 0 0 1 .03-.067.066.066 0 0 1 .1.043c.316 1.777.026 3.77.024 3.783a.064.064 0 0 1-.064.055Zm-.122-4.217a.066.066 0 0 1-.064-.05 4.966 4.966 0 0 0-.18-.589c-.704-1.877-2.398-1.575-2.415-1.573a.066.066 0 1 1-.024-.13c.018 0 1.82-.325 2.56 1.654.074.198.136.4.185.605a.064.064 0 0 1-.024.068.065.065 0 0 1-.023.01l-.015.005Z" fill="#263238"/><path d="M59.982 38.717s.367-.817 1.794-.286c1.427.53 1.998 1.346 1.101 1.631-.897.285-2.895-1.345-2.895-1.345Z" fill="#407BFF"/><path d="M62.643 40.161c-.983 0-2.627-1.333-2.703-1.394a.066.066 0 0 1-.018-.078c0-.007.41-.864 1.876-.32.967.36 1.585.862 1.574 1.28 0 .15-.088.352-.475.476a.834.834 0 0 1-.254.036ZM60.06 38.7c.291.231 2.008 1.55 2.792 1.3.173-.056.381-.163.39-.355 0-.287-.456-.771-1.488-1.155-1.174-.434-1.59.055-1.694.21Z" fill="#263238"/><path d="M62.474 39.612a.065.065 0 0 1-.05-.024c-.667-.823-2.099-.753-2.113-.753a.062.062 0 0 1-.047-.016.062.062 0 0 1-.02-.045.065.065 0 0 1 .036-.063.065.065 0 0 1 .024-.006c.061 0 1.512-.073 2.22.8a.064.064 0 0 1-.01.092.061.061 0 0 1-.04.015Zm-5.628 7.547a.064.064 0 0 1-.065-.064c0-.048-.075-4.849.65-6.788.176-.518.508-.968.95-1.288a.068.068 0 0 1 .092.017.067.067 0 0 1-.017.091 2.493 2.493 0 0 0-.902 1.225c-.72 1.916-.65 6.694-.65 6.74a.065.065 0 0 1-.064.067h.006Zm1.914-8.212a.064.064 0 0 1-.058-.04.066.066 0 0 1 .032-.085 2.3 2.3 0 0 1 1.255-.169.065.065 0 0 1 .052.075.066.066 0 0 1-.077.052c-.4-.054-.807.002-1.178.162a.058.058 0 0 1-.026.005Zm-2.768 8.212h-.008a.065.065 0 0 1-.055-.073c.179-1.317-.173-4.887-1.156-7.71a5.735 5.735 0 0 0-1.022-1.847.066.066 0 0 1 .03-.105.063.063 0 0 1 .05.004c.007.004.013.01.019.016.46.56.813 1.2 1.04 1.889.988 2.842 1.341 6.44 1.16 7.77a.067.067 0 0 1-.058.056Zm-2.403-9.841a.067.067 0 0 1-.047-.02c-.834-.85-1.667-.99-1.675-.991-.007-.002-1.235-.32-1.69.1a.064.064 0 0 1-.07.014.064.064 0 0 1-.04-.06c0-.017.006-.033.018-.045.511-.47 1.755-.147 1.807-.13.029 0 .875.144 1.74 1.028a.064.064 0 0 1 .015.071.066.066 0 0 1-.014.021.064.064 0 0 1-.044.012Z" fill="#263238"/><path d="M56.176 47.22a.065.065 0 0 1-.064-.065c0-.035.043-3.55.101-7.046a.067.067 0 0 1 .067-.065.068.068 0 0 1 .063.066 1711.04 1711.04 0 0 0-.101 7.046.064.064 0 0 1-.02.046.065.065 0 0 1-.046.018Zm.114-7.485a.066.066 0 0 1-.046-.02.065.065 0 0 1-.018-.047c.048-2.816.094-4.789.13-5.861.106-2.753.26-3.003.328-3.044.065-.15.39-.715 1.544-.64a.065.065 0 0 1 .058.043.064.064 0 0 1 .003.025.066.066 0 0 1-.069.061c-1.195-.078-1.418.558-1.43.585a.066.066 0 0 1-.041.042c-.04.072-.172.494-.26 2.931a291.324 291.324 0 0 0-.13 5.86.067.067 0 0 1-.069.065Z" fill="#263238"/><path d="M58.128 53.372h-3.966a.528.528 0 0 1-.52-.477l-.57-5.86h6.156l-.57 5.86a.528.528 0 0 1-.53.477Z" fill="#263238"/><path d="M58.128 53.437h-3.966a.59.59 0 0 1-.59-.536l-.57-5.862a.068.068 0 0 1 .039-.065.065.065 0 0 1 .026-.006h6.156a.065.065 0 0 1 .061.045.068.068 0 0 1 .004.026l-.57 5.862a.59.59 0 0 1-.59.536Zm-4.99-6.34.564 5.791a.46.46 0 0 0 .46.419h3.966a.46.46 0 0 0 .46-.419l.562-5.79h-6.011Z" fill="#263238"/><path d="m53.25 48.923.066.67h5.658l.066-.67h-5.79Z" fill="#fff"/><path d="M58.974 49.66h-5.658a.066.066 0 0 1-.065-.058l-.065-.67a.073.073 0 0 1 .017-.05.068.068 0 0 1 .048-.021h5.788a.069.069 0 0 1 .049.02.073.073 0 0 1 .017.051l-.066.67a.065.065 0 0 1-.065.058Zm-5.599-.13h5.54l.053-.54h-5.646l.053.54Z" fill="#263238"/><path d="m58.833 51.056.035-.366h-5.446l.037.366h5.374Z" fill="#fff"/><path d="M58.831 51.121H53.46a.065.065 0 0 1-.065-.058l-.037-.367a.067.067 0 0 1 .065-.071h5.446a.065.065 0 0 1 .061.045.067.067 0 0 1 .004.026l-.036.367a.065.065 0 0 1-.066.058Zm-5.314-.13h5.256l.023-.236h-5.302l.023.236ZM7.371 25.481a.065.065 0 0 1-.065-.066v-1.153a.065.065 0 0 1 .065-.065.065.065 0 0 1 .065.065v1.153a.065.065 0 0 1-.065.065Z" fill="#263238"/><path d="M7.947 24.908H6.794a.065.065 0 0 1-.065-.065.066.066 0 0 1 .065-.065h1.153a.065.065 0 1 1 0 .13Zm48.459 3.548a.065.065 0 0 1-.065-.065v-1.153a.065.065 0 1 1 .13 0v1.153a.066.066 0 0 1-.065.065Z" fill="#263238"/><path d="M56.982 27.878h-1.154a.065.065 0 1 1 0-.13h1.154a.065.065 0 0 1 .065.066.065.065 0 0 1-.065.064ZM50.203 15.15a.065.065 0 0 1-.065-.065v-1.153a.065.065 0 0 1 .13 0v1.148c.001.01 0 .018-.003.027a.065.065 0 0 1-.062.043Z" fill="#263238"/><path d="M50.78 14.574h-1.154a.065.065 0 0 1-.065-.065.065.065 0 0 1 .065-.065h1.153a.065.065 0 0 1 0 .13ZM26.893 8.45a.065.065 0 0 1-.065-.065V7.229a.065.065 0 0 1 .065-.065.066.066 0 0 1 .065.065v1.153a.064.064 0 0 1-.018.048.065.065 0 0 1-.047.02Z" fill="#263238"/><path d="M27.47 7.871h-1.153a.066.066 0 0 1-.065-.065.065.065 0 0 1 .065-.065h1.153a.065.065 0 0 1 .046.111.065.065 0 0 1-.046.02Zm-7.779 42.24a.066.066 0 0 1-.065-.065v-1.153a.065.065 0 1 1 .13 0v1.157a.065.065 0 0 1-.065.061Z" fill="#263238"/><path d="M20.268 49.53H19.11a.065.065 0 1 1 0-.13h1.153a.066.066 0 0 1 .065.065.065.065 0 0 1-.06.065ZM5.386 41.76a.065.065 0 0 1-.065-.065v-1.153a.066.066 0 0 1 .065-.065.065.065 0 0 1 .065.065v1.153a.065.065 0 0 1-.065.065Z" fill="#263238"/><path d="M5.963 41.184H4.81a.065.065 0 0 1 0-.13h1.153a.065.065 0 0 1 .065.065.067.067 0 0 1-.065.065Zm39.285-29.935a1.018 1.018 0 1 1 .002-2.035 1.018 1.018 0 0 1-.002 2.035Zm0-1.906a.888.888 0 1 0 .002 1.775.888.888 0 0 0-.002-1.775Zm-2.495 40.521a1.02 1.02 0 1 1-.002-2.039 1.02 1.02 0 0 1 .002 2.04Zm0-1.907a.889.889 0 1 0-.003 1.778.889.889 0 0 0 .003-1.778ZM5.035 33.263a1.019 1.019 0 1 1-.003-2.037 1.019 1.019 0 0 1 .003 2.037Zm0-1.907a.89.89 0 1 0-.002 1.779.89.89 0 0 0 .002-1.78Zm45.283-11.093a.282.282 0 1 1 0-.564.282.282 0 0 1 0 .564Zm0-.434a.152.152 0 1 0 0 .304.152.152 0 0 0 0-.304ZM16.19 10.53a.282.282 0 1 1 0-.565.282.282 0 0 1 0 .565Zm0-.433a.151.151 0 0 0-.14.094.151.151 0 0 0 .11.207.151.151 0 0 0 .157-.064.151.151 0 0 0 .014-.143.154.154 0 0 0-.14-.095v.001Zm17.69 38.53a.282.282 0 1 1-.002-.565.282.282 0 0 1 .003.565Zm0-.433a.152.152 0 1 0 .151.15.15.15 0 0 0-.15-.15Z" fill="#263238"/><path d="m32.266 48.93-.433-3.48H24.83l-.432 3.48a3.828 3.828 0 0 1-2.038 3.025l-1.877 1.005h15.7l-1.879-1.004a3.825 3.825 0 0 1-2.015-2.816 3.123 3.123 0 0 1-.023-.21Z" fill="#fff"/><path d="M36.183 53.024H20.478a.065.065 0 0 1-.06-.09.065.065 0 0 1 .028-.032l1.879-1.003a3.76 3.76 0 0 0 2.008-2.974l.433-3.483a.065.065 0 0 1 .064-.057h7.007a.066.066 0 0 1 .065.056l.432 3.482c0 .067.013.13.022.201a3.77 3.77 0 0 0 1.982 2.772l1.877 1.004a.065.065 0 0 1 .033.072.066.066 0 0 1-.065.052Zm-15.447-.13h15.187l-1.648-.881a3.9 3.9 0 0 1-2.074-3.08l-.425-3.423h-6.89l-.425 3.425c0 .067-.013.136-.024.205a3.9 3.9 0 0 1-2.051 2.873l-1.65.881Z" fill="#263238"/><path d="m32.03 47.66-.197-2.21h-7.006l-.196 2.21h7.398Z" fill="#263238"/><path d="M32.03 47.724h-7.4a.068.068 0 0 1-.048-.02.068.068 0 0 1-.017-.051l.195-2.21a.066.066 0 0 1 .065-.06h7.007a.064.064 0 0 1 .065.06l.196 2.21a.073.073 0 0 1-.017.05.067.067 0 0 1-.048.021Zm-7.329-.13h7.257l-.185-2.08h-6.89l-.182 2.08Z" fill="#263238"/><path d="M36.16 52.96H20.479v.412H36.16v-.413Z" fill="#fff"/><path d="M36.16 53.437H20.479a.065.065 0 0 1-.065-.065v-.413a.065.065 0 0 1 .065-.065H36.16a.065.065 0 0 1 .065.066v.412a.065.065 0 0 1-.065.065Zm-15.617-.13h15.553v-.282H20.54l.003.282Zm10.164-2.662h-5.72a.065.065 0 0 1-.046-.11.065.065 0 0 1 .046-.02h5.72a.065.065 0 1 1 0 .13Zm1.473 0h-.707a.067.067 0 0 1-.065-.065.065.065 0 0 1 .065-.065h.707a.065.065 0 1 1 0 .13Z" fill="#263238"/><path d="M10.468 15.66h35.724a1.034 1.034 0 0 1 1.033 1.033V44.83a1.326 1.326 0 0 1-1.326 1.326H10.76a1.326 1.326 0 0 1-1.326-1.326V16.693a1.033 1.033 0 0 1 1.034-1.033Z" fill="#fff"/><path d="M45.9 46.22H10.76a1.392 1.392 0 0 1-1.39-1.39V16.692a1.1 1.1 0 0 1 1.098-1.093h35.724A1.1 1.1 0 0 1 47.29 16.7v28.13a1.393 1.393 0 0 1-1.39 1.391ZM10.467 15.73a.97.97 0 0 0-.969.969v28.13a1.262 1.262 0 0 0 1.261 1.261H45.9a1.262 1.262 0 0 0 1.26-1.26V16.692a.97.97 0 0 0-.968-.968l-35.724.005Z" fill="#263238"/><path d="M47.225 41.1V16.77a1.11 1.11 0 0 0-1.111-1.113H10.547a1.113 1.113 0 0 0-1.113 1.113V41.1h37.791Z" fill="#263238"/><path d="M47.225 41.166H9.435a.065.065 0 0 1-.066-.065V16.77a1.178 1.178 0 0 1 1.178-1.17h35.567a1.178 1.178 0 0 1 1.17 1.177V41.1a.065.065 0 0 1-.059.065ZM9.5 41.036h37.66V16.77a1.05 1.05 0 0 0-1.04-1.048H10.547a1.049 1.049 0 0 0-1.048 1.048v24.266Z" fill="#263238"/><path d="M45.523 16.858H11.134v24.243h34.39V16.858Z" fill="#407BFF"/><path d="M45.525 41.166h-34.39a.065.065 0 0 1-.066-.065V16.859c0-.018.008-.034.02-.046a.066.066 0 0 1 .045-.02h34.39a.065.065 0 0 1 .066.066V41.1a.065.065 0 0 1-.065.065Zm-34.32-.13H45.46V16.923H11.2l.005 24.113Z" fill="#263238"/><path d="M15.52 18.481h21.995a.833.833 0 0 1 .834.833v1.394H14.69v-1.395a.834.834 0 0 1 .83-.832Z" fill="#263238"/><path d="M38.35 20.773H14.69a.065.065 0 0 1-.065-.065v-1.395a.898.898 0 0 1 .898-.897H37.52a.898.898 0 0 1 .899.897v1.395a.067.067 0 0 1-.068.065Zm-23.598-.13h23.53v-1.33a.77.77 0 0 0-.768-.767H15.52a.768.768 0 0 0-.768.767l.001 1.33Z" fill="#263238"/><path d="M33.975 19.595a.344.344 0 1 1-.687 0 .344.344 0 0 1 .688 0Z" fill="#fff"/><path d="M33.632 20.003a.408.408 0 1 1 0-.817.408.408 0 0 1 0 .817Zm0-.686a.278.278 0 1 0 0 .556.278.278 0 0 0 0-.556Z" fill="#263238"/><path d="M35.347 19.595a.344.344 0 1 1-.687 0 .344.344 0 0 1 .687 0Z" fill="#fff"/><path d="M35.005 20.003a.409.409 0 1 1-.002-.817.409.409 0 0 1 .002.817Zm0-.686a.278.278 0 1 0-.003.555.278.278 0 0 0 .003-.555Z" fill="#263238"/><path d="M36.72 19.595a.343.343 0 1 1-.686 0 .343.343 0 0 1 .686 0Z" fill="#fff"/><path d="M36.377 20.003a.409.409 0 1 1 0-.817.409.409 0 0 1 0 .817Zm0-.686a.278.278 0 1 0 0 .556.278.278 0 0 0 0-.556Z" fill="#263238"/><path d="M37.523 38.61H15.51a.892.892 0 0 1-.889-.89V19.313a.898.898 0 0 1 .898-.897h21.996a.898.898 0 0 1 .899.897v18.404a.893.893 0 0 1-.89.893ZM15.52 18.546a.768.768 0 0 0-.768.767v18.404a.761.761 0 0 0 .76.76h22.012a.762.762 0 0 0 .76-.76V19.313a.77.77 0 0 0-.768-.767H15.52Z" fill="#263238"/><path d="M15.815 38.628a.015.015 0 0 1-.011-.004.015.015 0 0 1-.005-.011v-18.41a.015.015 0 0 1 .01-.016.017.017 0 0 1 .018.004.017.017 0 0 1 .004.011V38.61a.015.015 0 0 1-.01.017.017.017 0 0 1-.006.001Zm1.432 0a.015.015 0 0 1-.012-.004.014.014 0 0 1-.003-.005.015.015 0 0 1-.002-.006v-18.41c0-.005.002-.01.005-.013a.017.017 0 0 1 .012-.005.015.015 0 0 1 .015.01v18.423a.015.015 0 0 1-.009.01.015.015 0 0 1-.006.001Zm1.433 0a.015.015 0 0 1-.012-.004.014.014 0 0 1-.004-.005.015.015 0 0 1-.001-.006v-18.41a.017.017 0 0 1 .023-.016.016.016 0 0 1 .009.009V38.61a.016.016 0 0 1-.003.013.014.014 0 0 1-.006.004.015.015 0 0 1-.006.001Zm1.432 0a.015.015 0 0 1-.015-.009.015.015 0 0 1-.002-.006v-18.41a.017.017 0 0 1 .017-.018.017.017 0 0 1 .016.017v18.415a.017.017 0 0 1-.004.006.016.016 0 0 1-.005.004.015.015 0 0 1-.007.001Zm1.432 0a.016.016 0 0 1-.016-.016v-18.41c0-.004.002-.008.004-.011a.017.017 0 0 1 .012-.006c.004 0 .008.002.011.005a.017.017 0 0 1 .006.012V38.61l-.001.007a.014.014 0 0 1-.003.007.015.015 0 0 1-.013.004Zm1.432 0a.016.016 0 0 1-.015-.015V20.196l.004-.006a.016.016 0 0 1 .011-.005c.005 0 .009.002.012.005a.017.017 0 0 1 .005.012v18.415a.016.016 0 0 1-.004.007.015.015 0 0 1-.013.004Zm1.433 0a.016.016 0 0 1-.016-.015v-18.41a.015.015 0 0 1 .01-.016.017.017 0 0 1 .018.004.017.017 0 0 1 .005.011V38.61a.015.015 0 0 1-.01.017.017.017 0 0 1-.007.001Zm1.432 0a.015.015 0 0 1-.012-.004.014.014 0 0 1-.003-.005.015.015 0 0 1-.002-.006v-18.41c0-.005.002-.01.005-.013a.017.017 0 0 1 .012-.005c.002 0 .005 0 .007.002.002 0 .003.002.005.003a.017.017 0 0 1 .003.006l.001.006v18.415a.015.015 0 0 1-.009.01.015.015 0 0 1-.007.001Zm1.433 0a.015.015 0 0 1-.012-.004.014.014 0 0 1-.004-.005.015.015 0 0 1 0-.006v-18.41a.017.017 0 0 1 .022-.016c.002 0 .004.002.005.003a.016.016 0 0 1 .005.012V38.61a.016.016 0 0 1-.004.013.014.014 0 0 1-.005.004.015.015 0 0 1-.007.001Zm1.433 0a.015.015 0 0 1-.016-.009.015.015 0 0 1-.001-.006v-18.41a.017.017 0 0 1 .023-.016.016.016 0 0 1 .008.009l.001.006v18.415a.017.017 0 0 1-.003.006.016.016 0 0 1-.006.004.015.015 0 0 1-.006.001Zm1.43 0a.016.016 0 0 1-.016-.016v-18.41a.024.024 0 0 1 .006-.011.017.017 0 0 1 .01-.006c.005 0 .01.002.013.005a.017.017 0 0 1 .005.012v18.415a.014.014 0 0 1-.004.007.015.015 0 0 1-.013.004Zm1.433 0a.016.016 0 0 1-.015-.015V20.196l.004-.006a.016.016 0 0 1 .011-.005c.005 0 .01.002.012.005a.017.017 0 0 1 .005.012v18.415a.016.016 0 0 1-.004.007.015.015 0 0 1-.012.004Zm1.433 0a.016.016 0 0 1-.016-.015v-18.41a.015.015 0 0 1 .01-.016.017.017 0 0 1 .018.004.017.017 0 0 1 .005.011V38.61a.015.015 0 0 1-.01.017.017.017 0 0 1-.007.001Zm1.433 0a.015.015 0 0 1-.012-.004.014.014 0 0 1-.004-.005.015.015 0 0 1-.001-.006v-18.41c0-.005.002-.01.005-.013a.017.017 0 0 1 .012-.005c.002 0 .004 0 .006.002.002 0 .004.002.005.003a.017.017 0 0 1 .003.006l.001.006v18.415a.015.015 0 0 1-.009.01.015.015 0 0 1-.006.001Zm1.432 0a.015.015 0 0 1-.012-.004.014.014 0 0 1-.003-.005.015.015 0 0 1-.002-.006v-18.41a.017.017 0 0 1 .024-.016c.002 0 .003.002.005.003a.016.016 0 0 1 .004.012V38.61a.016.016 0 0 1-.004.013.014.014 0 0 1-.005.004.015.015 0 0 1-.007.001Zm1.433 0a.015.015 0 0 1-.016-.009.015.015 0 0 1-.001-.006v-18.41a.017.017 0 0 1 .023-.016.016.016 0 0 1 .009.009v18.421a.016.016 0 0 1-.003.006.016.016 0 0 1-.006.004.015.015 0 0 1-.006.001Z" fill="#263238"/><path d="M38.395 22.076H14.72a.018.018 0 0 1-.011-.006.017.017 0 0 1-.005-.011c0-.005.002-.008.005-.011a.017.017 0 0 1 .01-.005h23.677c.005 0 .009.002.012.005a.016.016 0 0 1 .005.01.017.017 0 0 1-.017.018Zm0 1.736H14.72a.017.017 0 0 1-.016-.017.015.015 0 0 1 .005-.01.016.016 0 0 1 .011-.005h23.676a.015.015 0 0 1 .016.009l.001.006a.017.017 0 0 1-.017.017Zm0 1.736H14.72a.017.017 0 0 1-.016-.016.02.02 0 0 1 .005-.012.018.018 0 0 1 .01-.005h23.677a.017.017 0 0 1 .017.017.017.017 0 0 1-.005.011.017.017 0 0 1-.011.005Zm0 1.737H14.72a.017.017 0 0 1-.011-.006.017.017 0 0 1-.004-.017l.004-.005a.016.016 0 0 1 .011-.005h23.676a.015.015 0 0 1 .016.01l.001.006a.017.017 0 0 1-.005.012.017.017 0 0 1-.011.005Zm0 1.735H14.72l-.006-.001a.016.016 0 0 1-.01-.015c0-.004.002-.008.005-.011a.018.018 0 0 1 .01-.005h23.677a.017.017 0 0 1 .017.016v.007a.016.016 0 0 1-.005.005.017.017 0 0 1-.005.003l-.007.001Zm0 1.737H14.72a.018.018 0 0 1-.011-.006.017.017 0 0 1-.005-.011c0-.004.002-.008.005-.01a.017.017 0 0 1 .01-.006h23.677c.005 0 .009.002.012.005a.017.017 0 0 1 .005.011.017.017 0 0 1-.017.017Zm0 1.743H14.72a.017.017 0 0 1-.016-.017.015.015 0 0 1 .005-.01.016.016 0 0 1 .011-.005h23.676a.015.015 0 0 1 .016.009l.001.006a.017.017 0 0 1-.017.017Zm0 1.729H14.72a.016.016 0 0 1-.016-.016c0-.004.002-.008.005-.011a.018.018 0 0 1 .01-.005h23.677a.017.017 0 0 1 .017.016v.007a.016.016 0 0 1-.005.005.017.017 0 0 1-.005.003.015.015 0 0 1-.007.001Zm0 1.737H14.72a.017.017 0 0 1-.011-.005.017.017 0 0 1-.004-.018l.004-.005a.016.016 0 0 1 .011-.005h23.676a.015.015 0 0 1 .016.01l.001.006a.017.017 0 0 1-.005.012.017.017 0 0 1-.011.005Zm0 1.734H14.72a.016.016 0 0 1-.016-.016c0-.004.002-.008.005-.011a.017.017 0 0 1 .01-.006h23.677c.005 0 .01.002.012.005a.017.017 0 0 1 .005.012.015.015 0 0 1-.01.015.015.015 0 0 1-.007.001Z" fill="#263238"/><path d="M48.474 27.235s-.601.52-.601.623c0 .102-.172 1.226-.172 1.226l.816.343.345-.58s.171-.237.3-.451a2.15 2.15 0 0 1 .43-.453l-.322-.063-.39.408-.043-.58-.363-.473Z" fill="#fff"/><path d="M48.517 29.492a.054.054 0 0 1-.024 0l-.817-.344a.065.065 0 0 1-.039-.07c.07-.447.17-1.14.17-1.215 0-.113.341-.428.626-.672a.066.066 0 0 1 .048-.016.07.07 0 0 1 .045.025l.366.473a.07.07 0 0 1 .013.035l.032.433.286-.302a.062.062 0 0 1 .06-.018l.322.064a.066.066 0 0 1 .052.049.065.065 0 0 1-.024.066c-.159.124-.298.27-.415.433a7.24 7.24 0 0 1-.304.457l-.34.576a.065.065 0 0 1-.026.02.064.064 0 0 1-.03.006Zm-.745-.449.718.302.316-.532s.175-.242.3-.451c.096-.142.21-.27.34-.381l-.154-.031-.361.382a.063.063 0 0 1-.07.017.066.066 0 0 1-.043-.056l-.04-.562-.313-.403c-.25.219-.51.472-.528.536 0 .094-.128.942-.165 1.18Z" fill="#263238"/><path d="M47.7 29.084s-1.18 1.375-1.546 1.847c-.365.472-1.398 1.526-1.763 2.193s-.28 1.483.043 1.74c.322.258 1.59-.3 2.128-1.397s1.95-4.04 1.95-4.04l-.811-.343Z" fill="#fff"/><path d="M44.659 34.992a.418.418 0 0 1-.26-.077c-.347-.278-.447-1.116-.06-1.82.251-.457.806-1.088 1.252-1.596.215-.243.4-.454.52-.604.363-.47 1.538-1.837 1.55-1.852a.063.063 0 0 1 .074-.017l.817.344a.066.066 0 0 1 .035.037.063.063 0 0 1 0 .051c-.014.03-1.43 2.958-1.95 4.04-.39.796-1.17 1.342-1.743 1.47a1.001 1.001 0 0 1-.235.024Zm3.06-5.83c-.188.22-1.187 1.385-1.514 1.81-.12.154-.306.366-.52.61-.442.503-.992 1.129-1.235 1.573-.346.63-.27 1.43.026 1.659a.484.484 0 0 0 .374.026c.528-.118 1.287-.65 1.655-1.4.487-.996 1.718-3.55 1.925-3.978l-.71-.3Z" fill="#263238"/><path d="M49.12 24.72a8.389 8.389 0 0 1-.301.903c-.13.28-.753.52-.688.602.124.128.254.25.39.365 0 0 .022 1.418.216 1.461.194.043.86-.108.86-.108l-.13.99 1.654-.237.147-1.396s.732-.558.732-1.096-.86-1.612-1.677-1.826c-.816-.215-.967-.068-1.204.343Z" fill="#fff"/><path d="M49.464 28.998a.065.065 0 0 1-.046-.018.062.062 0 0 1-.02-.055l.118-.898c-.195.041-.633.13-.797.088-.2-.044-.26-.83-.26-1.495a4.45 4.45 0 0 1-.375-.356.089.089 0 0 1-.017-.07c.012-.064.086-.113.253-.219.166-.105.38-.242.444-.38a8.13 8.13 0 0 0 .304-.908c.254-.437.44-.594 1.277-.373.816.214 1.725 1.309 1.725 1.889 0 .52-.607 1.028-.734 1.13l-.148 1.37a.066.066 0 0 1-.055.058l-1.655.235-.014.002Zm.13-1.12a.07.07 0 0 1 .044.017.067.067 0 0 1 .02.058l-.118.903 1.52-.217.146-1.347a.062.062 0 0 1 .024-.044c.007 0 .706-.546.706-1.04 0-.478-.821-1.551-1.629-1.764-.786-.207-.91-.065-1.125.307a8.155 8.155 0 0 1-.303.91c-.08.172-.31.318-.494.434-.063.04-.123.083-.181.13.075.083.278.26.358.331a.062.062 0 0 1 .022.048c.01.624.076 1.337.169 1.402.143.03.65-.07.826-.11l.015-.018Z" fill="#263238"/><path d="M49.132 25.709c-.018.106-.069.187-.114.18-.046-.006-.068-.1-.05-.207.019-.108.068-.189.113-.181.046.008.068.1.051.208Zm.167-.27a.065.065 0 0 1-.064-.053c-.013-.063-.034-.079-.04-.08a.026.026 0 0 0-.02.012.062.062 0 0 1-.064.062.068.068 0 0 1-.065-.07.145.145 0 0 1 .13-.13c.034 0 .146 0 .182.184a.064.064 0 0 1-.01.05.065.065 0 0 1-.04.027l-.01-.003Zm-.654 1.453h-.042a.066.066 0 0 1-.053-.076.068.068 0 0 1 .074-.053.474.474 0 0 0 .27-.076.065.065 0 0 1 .095.022.065.065 0 0 1-.032.092.65.65 0 0 1-.312.09Z" fill="#263238"/><path d="M50.023 23.258s.322-.58-.28-.45c-.602.128-1.42 1.31-1.118 1.848.302.537.71.322.71.322.104.152.219.295.343.43.11.106.225.207.345.3 0 0 .15 1.29.408 1.635.259.344.559.451.794.322.236-.128.65-.43.65-.43s1.032-.773 1.097-1.461c.065-.688.021-1.118-.366-1.591a2.539 2.539 0 0 0-.966-.688s.172-.58-.345-.623c-.516-.043-1.272.386-1.272.386Z" fill="#263238"/><path d="M51.022 27.782c-.217 0-.448-.14-.65-.4-.248-.33-.39-1.446-.418-1.64a4.116 4.116 0 0 1-.328-.288 3.703 3.703 0 0 1-.322-.397c-.13.042-.48.098-.742-.37-.115-.206-.093-.507.063-.853.21-.465.679-1 1.097-1.09.198-.042.332-.017.4.075a.344.344 0 0 1 .022.299c.26-.13.755-.343 1.145-.31a.445.445 0 0 1 .35.18c.08.142.103.31.065.468.362.154.684.389.94.686.405.494.447.939.38 1.637-.066.698-1.079 1.475-1.121 1.508a7.416 7.416 0 0 1-.65.434c-.07.04-.15.06-.23.061Zm-1.69-2.869a.072.072 0 0 1 .054.027c.101.149.213.29.335.422.147.145.337.293.338.296a.059.059 0 0 1 .025.043c0 .013.152 1.276.396 1.603.23.307.497.421.711.304a8.47 8.47 0 0 0 .639-.425c.004-.003 1.009-.764 1.07-1.416.06-.651.024-1.084-.351-1.543a2.505 2.505 0 0 0-.939-.668.065.065 0 0 1-.039-.08s.073-.26-.035-.414a.313.313 0 0 0-.252-.13c-.49-.042-1.224.373-1.231.378a.065.065 0 0 1-.096-.048.065.065 0 0 1 .007-.04c.042-.077.112-.26.059-.332-.034-.045-.13-.054-.268-.024-.333.071-.78.527-1.006 1.018-.138.305-.163.566-.068.735.26.476.607.305.622.297a.07.07 0 0 1 .032-.003h-.003Z" fill="#263238"/><path d="M49.721 25.923s.43-.557.624-.365c.194.192.02.91-.13 1.14-.15.23-.52.043-.537-.065" fill="#fff"/><path d="M50.003 26.875a.425.425 0 0 1-.078-.008c-.13-.025-.29-.12-.31-.221a.066.066 0 0 1 .009-.049.065.065 0 0 1 .041-.028.063.063 0 0 1 .05.01.065.065 0 0 1 .027.041.332.332 0 0 0 .22.122.183.183 0 0 0 .198-.08c.144-.223.298-.899.138-1.057a.07.07 0 0 0-.06-.022c-.13.009-.356.238-.465.38a.065.065 0 0 1-.116-.03.066.066 0 0 1 .012-.049c.034-.043.326-.416.562-.431a.208.208 0 0 1 .16.06c.227.227.03.982-.12 1.219a.305.305 0 0 1-.268.143Z" fill="#263238"/><path d="m48.56 29.578.667-.774 2.336-.248.178.742-3.18.28Z" fill="#fff"/><path d="M48.56 29.64a.064.064 0 0 1-.057-.035.065.065 0 0 1 .008-.073l.667-.773a.061.061 0 0 1 .043-.023l2.34-.248a.066.066 0 0 1 .07.05l.178.742a.068.068 0 0 1-.01.053.065.065 0 0 1-.047.027l-3.185.28h-.007Zm.7-.78-.546.633 2.947-.26-.147-.614-2.254.24Z" fill="#263238"/><path d="m52.81 38.099-.29-.417-.016 2.013s.609-.578.637-.897c.029-.318-.331-.7-.331-.7Z" fill="#fff"/><path d="M52.498 39.76a.054.054 0 0 1-.025 0 .065.065 0 0 1-.04-.06l.016-2.013a.07.07 0 0 1 .045-.063.068.068 0 0 1 .073.025l.294.415c.039.041.369.414.339.746-.03.331-.593.877-.657.939a.066.066 0 0 1-.045.011Zm.08-1.877-.014 1.655c.197-.204.489-.547.507-.745.026-.286-.305-.65-.308-.65v-.006l-.186-.254Z" fill="#263238"/><path d="M53.633 29.9s2.45 4.985 2.622 5.33c.171.344-.194.473-.194.473l-2.926 3.095-.325-.699 1.253-3.063-1.14-1.82s.624-3.122.71-3.316Z" fill="#fff"/><path d="M53.135 38.87h-.01a.068.068 0 0 1-.049-.038l-.325-.7a.064.064 0 0 1 0-.051l1.24-3.032-1.121-1.8a.064.064 0 0 1-.01-.046c.066-.32.629-3.129.714-3.323a.065.065 0 0 1 .059-.039.07.07 0 0 1 .06.037c.024.05 2.451 4.99 2.622 5.33a.39.39 0 0 1 .028.327.462.462 0 0 1-.243.23l-2.917 3.079a.067.067 0 0 1-.048.026Zm-.26-.766.273.586 2.86-3.026a.06.06 0 0 1 .025-.016.342.342 0 0 0 .182-.162.261.261 0 0 0-.025-.221c-.152-.306-2.136-4.342-2.548-5.18-.122.499-.44 2.043-.657 3.12l1.126 1.806a.062.062 0 0 1 0 .059l-1.236 3.034Z" fill="#263238"/><path d="m53.663 31.5.4 3.536-.637-1.083.237-2.453Z" fill="#263238"/><path d="M54.063 35.1a.064.064 0 0 1-.056-.031l-.637-1.085a.058.058 0 0 1-.009-.039l.237-2.453a.065.065 0 0 1 .064-.058.066.066 0 0 1 .063.058l.4 3.536a.065.065 0 0 1-.042.07l-.02.002Zm-.57-1.162.471.8-.296-2.615-.176 1.815Zm-6.495 3.987v.155c-.015 1.049-.085 7.15.095 9.332.197 2.388.566 5.948.566 5.948s-.245.074-.245.199c-.016.167-.04.333-.075.498a7.296 7.296 0 0 1-.91.422c-.369.13-.665.373-.492.498.173.125.985.224 1.799.324s1.43.13 1.529.024c.099-.105.074-.65.05-.846-.026-.196.024-.597 0-.92-.026-.324-.149-.597-.149-.797 0-.2.123-6.171.123-6.171l.371-2.24.345-1.419s.197 3.659.271 3.833c.074.174 1.334 6.717 1.334 6.717l-.148.248.024.324c-.183.177-.39.328-.616.447-.345.174-.665.274-.42.473.246.2 1.258.25 1.48.275.368.031.739.04 1.109.024.099-.024.247 0 .271-.348a2.782 2.782 0 0 0-.098-.822 5.416 5.416 0 0 1-.124-.77 5.056 5.056 0 0 0-.099-.65l-.377-6.533.13-6.42a9.372 9.372 0 0 0-.074-1.121c-.074-.52-.148-.92-.148-.92l-5.422-.224" fill="#263238"/><path d="M48.854 55.454a9.642 9.642 0 0 1-1.13-.09c-.845-.102-1.643-.2-1.829-.334a.17.17 0 0 1-.075-.168c.027-.179.322-.356.585-.444.3-.114.593-.25.875-.404.031-.15.054-.303.067-.455 0-.13.154-.21.24-.243-.045-.446-.379-3.691-.56-5.899-.179-2.168-.111-8.16-.096-9.339v-.155a.066.066 0 0 1 .065-.063.065.065 0 0 1 .064.066v.155c-.016 1.178-.083 7.163.095 9.326.195 2.36.563 5.91.567 5.946a.067.067 0 0 1-.046.07c-.082.024-.2.086-.2.136a4.54 4.54 0 0 1-.075.51.064.064 0 0 1-.033.043 7.064 7.064 0 0 1-.923.43c-.282.094-.485.252-.498.34 0 .01 0 .025.022.043.16.114 1.016.218 1.77.31 1.068.13 1.43.09 1.474.045.044-.046.067-.497.031-.793a2.763 2.763 0 0 1 0-.407 4.51 4.51 0 0 0 0-.52 2.707 2.707 0 0 0-.084-.447 1.468 1.468 0 0 1-.064-.355c0-.198.118-5.928.123-6.173l.37-2.249.347-1.423a.065.065 0 0 1 .095-.052.065.065 0 0 1 .035.064c.079 1.454.214 3.67.266 3.811.074.174 1.208 6.058 1.338 6.729a.07.07 0 0 1-.008.045l-.138.232.024.303a.069.069 0 0 1-.02.05 2.69 2.69 0 0 1-.633.46l-.148.074c-.147.07-.315.15-.321.208 0 .019.02.049.062.083.191.154.956.218 1.283.245l.163.015c.36.03.723.039 1.085.026l.046-.01c.082-.014.158-.027.177-.28a2.65 2.65 0 0 0-.094-.78v-.016a5.687 5.687 0 0 1-.13-.78 5.223 5.223 0 0 0-.096-.638l-.375-6.552.13-6.425a9.56 9.56 0 0 0-.072-1.11 26.398 26.398 0 0 0-.14-.867l-5.37-.221a.065.065 0 0 1 0-.13l5.425.22a.066.066 0 0 1 .062.053s.075.406.149.923c.046.375.071.752.074 1.13l-.13 6.422.372 6.536c.047.214.08.431.098.65.023.256.064.51.122.76v.016c.074.269.106.547.098.826-.023.327-.153.377-.285.4l-.035.007c-.377.017-.756.01-1.132-.024l-.16-.014c-.588-.048-1.157-.114-1.353-.273a.23.23 0 0 1-.11-.2c.015-.13.182-.21.39-.311l.145-.07a2.66 2.66 0 0 0 .578-.416l-.022-.293a.07.07 0 0 1 .01-.039l.13-.227c-.352-1.82-1.262-6.512-1.325-6.68-.064-.167-.194-2.363-.253-3.413l-.24.99-.37 2.235c0 .05-.121 5.964-.121 6.16.007.11.027.219.06.324.042.153.071.31.086.468.01.177.01.355 0 .532-.008.13-.008.26 0 .39 0 .008.082.749-.067.9-.01.018-.066.075-.437.075Z" fill="#263238"/><path d="m44.691 33.64 1.549-1.79s1.096-1.87 1.181-2.041c.086-.172 1.14-.237 1.14-.237l3.179-.274s1.849.451 1.892.602c.042.15-.084 3.24-.149 3.669-.065.429-.84 4.455-.91 4.691-.07.237-.967.366-2.47.451-1.503.086-2.795-.45-2.901-.536-.107-.086-.216-.172-.194-.323.022-.15.344-3.804.344-3.804s-1.634 1.14-2.021 1.225c-.387.086-1.053-.3-1.139-.839a.91.91 0 0 1 .237-.816" fill="#fff"/><path d="M49.776 38.787c-1.376 0-2.495-.47-2.61-.562-.114-.092-.244-.195-.218-.382.02-.13.273-2.99.332-3.664-.381.26-1.59 1.082-1.93 1.157a1.007 1.007 0 0 1-.733-.195 1.083 1.083 0 0 1-.483-.696.964.964 0 0 1 .26-.877.065.065 0 1 1 .086.1.836.836 0 0 0-.215.756.95.95 0 0 0 .428.61c.18.136.407.2.633.175.295-.065 1.43-.823 1.997-1.214a.068.068 0 0 1 .07 0 .066.066 0 0 1 .031.062c-.013.15-.322 3.657-.344 3.808-.015.108.054.17.17.26.065.052 1.322.61 2.86.52 1.538-.09 2.363-.224 2.413-.403.062-.231.84-4.259.903-4.68.064-.421.187-3.475.15-3.64-.073-.08-.99-.347-1.835-.553l-3.174.27c-.548.035-1.04.13-1.087.201-.086.172-1.14 1.97-1.184 2.046l-1.56 1.793a.066.066 0 0 1-.046.028.064.064 0 0 1-.051-.015.066.066 0 0 1-.022-.049.065.065 0 0 1 .021-.049l1.547-1.783c0-.01 1.09-1.86 1.17-2.03.08-.168.866-.252 1.194-.271l3.191-.277h.02c.861.21 1.895.493 1.94.65.051.183-.09 3.314-.147 3.697-.064.427-.843 4.467-.91 4.698-.066.232-.512.39-2.53.5a7.787 7.787 0 0 1-.337.009Z" fill="#263238"/><path d="M49.967 35.068a.066.066 0 0 1-.065-.058.065.065 0 0 1 .014-.048c.586-.747 1.881-3.278 1.894-3.304a.066.066 0 0 1 .108-.012.065.065 0 0 1 .015.047.063.063 0 0 1-.007.024c-.053.104-1.313 2.568-1.909 3.326a.064.064 0 0 1-.05.025Zm.652-.436a.07.07 0 0 1-.032-.008.065.065 0 0 1-.025-.088l.706-1.25a.066.066 0 1 1 .114.064l-.707 1.25a.065.065 0 0 1-.056.032Zm-3.261-.519a.065.065 0 0 1-.055-.028.065.065 0 0 1 .01-.084l1.46-1.418a.066.066 0 0 1 .072-.014.064.064 0 0 1 .04.06.065.065 0 0 1-.02.045l-1.206 1.17.964-.417a.065.065 0 0 1 .05.12l-1.29.559a.084.084 0 0 1-.025.007Z" fill="#263238"/><path d="M26.816 41.092h3.39l.117-6.37-1.372-8.404-3.926.052 1.86 9.142-.069 5.58Z" fill="#fff"/><path d="M30.207 41.157h-3.39a.062.062 0 0 1-.047-.02.06.06 0 0 1-.019-.047l.07-5.571-1.861-9.129a.063.063 0 0 1 .062-.078l3.925-.052a.062.062 0 0 1 .065.055l1.374 8.395-.114 6.382a.064.064 0 0 1-.065.065Zm-3.326-.13h3.262l.114-6.306-1.36-8.33-3.791.049 1.843 9.064v.015l-.068 5.508Z" fill="#263238"/><path d="m29.307 35.1.89 5.992h4.717c-.17-.685-1.607-6.478-1.607-6.833 0-.376-1.014-6.666-1.275-7.044-.261-.377-3.77-1.82-3.77-1.82l.348 2.03.697 7.675Z" fill="#263238"/><path d="M34.914 41.157h-4.718a.066.066 0 0 1-.065-.056l-.881-5.992-.703-7.679-.347-2.024a.066.066 0 0 1 .055-.074.065.065 0 0 1 .033.004c.361.15 3.533 1.467 3.797 1.848.264.381 1.287 6.7 1.287 7.081 0 .282 1.01 4.42 1.606 6.818a.07.07 0 0 1-.012.056.067.067 0 0 1-.052.018Zm-4.662-.13h4.579c-.308-1.246-1.589-6.421-1.589-6.768 0-.347-1.014-6.647-1.263-7.007-.178-.26-2.229-1.17-3.631-1.758l.327 1.913.697 7.685.88 5.935Z" fill="#263238"/><path d="M32.182 40.362a.065.065 0 0 1-.065-.06 14.214 14.214 0 0 1-.029-1.734c.023-.413.061-.842.096-1.257.093-1.071.187-2.179.076-3.225-.13-1.205-.397-2.42-.65-3.593l-.1-.453a.066.066 0 1 1 .13-.027l.1.451c.26 1.178.529 2.396.657 3.608.114 1.06.019 2.173-.074 3.25-.036.414-.072.842-.096 1.253a13.98 13.98 0 0 0 .029 1.718.066.066 0 0 1-.061.07h-.013Z" fill="#8C8C8C"/><path d="M23.768 23.838c.985 0 1.784-.777 1.784-1.737 0-.959-.799-1.736-1.784-1.736s-1.784.777-1.784 1.736c0 .96.799 1.737 1.784 1.737Z" fill="#828282"/><path d="M23.768 23.902A1.802 1.802 0 1 1 25.61 22.1a1.826 1.826 0 0 1-1.842 1.802Zm0-3.473a1.672 1.672 0 1 0 1.712 1.67 1.698 1.698 0 0 0-1.712-1.67Zm-3.601 20.663h6.659c.072-.78.466-4.955.598-5.85.144-.987-1.45-7.363-1.45-7.363l-1.218-2.784-4.928 1.971 1.882 10.122-1.543 3.904Z" fill="#263238"/><path d="M26.826 41.157h-6.66a.064.064 0 0 1-.063-.058.066.066 0 0 1 .004-.03l1.538-3.889-1.885-10.098a.066.066 0 0 1 .04-.072l4.929-1.97a.064.064 0 0 1 .048-.002.064.064 0 0 1 .035.035l1.218 2.783c.067.27 1.599 6.412 1.453 7.399-.13.892-.52 5.023-.596 5.843a.065.065 0 0 1-.061.059Zm-6.563-.13h6.5c.088-.941.463-4.916.592-5.792.141-.96-1.43-7.28-1.449-7.337l-1.188-2.716-4.82 1.93 1.878 10.068a.058.058 0 0 1 0 .036l-1.513 3.81Z" fill="#263238"/><path d="M24.96 24.3a.596.596 0 0 0-.416.26c-.13.155-.378 1.274-.417 1.506-.07.418-.163 3.474-.163 3.474s2.27-1.157 2.362-1.157c.093 0 1.113.44 1.113.44.144-.018.284-.057.416-.117.092-.068.65-.833.65-.833l1.97 1.247s-1.481-3.452-1.828-4.007c-.347-.555-.602-.719-.833-.787-.232-.07-2.854-.025-2.854-.025Z" fill="#fff"/><path d="M23.968 29.6a.07.07 0 0 1-.035-.01.069.069 0 0 1-.03-.057c0-.13.094-3.066.164-3.482.034-.207.287-1.361.43-1.537a.66.66 0 0 1 .466-.278c.27 0 2.635-.044 2.869.026.234.07.494.214.87.815.346.554 1.774 3.874 1.834 4.016a.063.063 0 0 1-.017.075.065.065 0 0 1-.077 0l-1.917-1.218a9.399 9.399 0 0 1-.627.798c-.14.068-.291.112-.446.13a.065.065 0 0 1-.035 0c-.476-.205-1.02-.427-1.088-.434-.1.023-1.45.7-2.331 1.15a.059.059 0 0 1-.03.006Zm.992-5.234a.542.542 0 0 0-.368.231c-.107.13-.354 1.182-.403 1.474-.06.364-.14 2.806-.157 3.356.86-.438 2.203-1.114 2.293-1.114.09 0 .802.3 1.12.438.128-.015.253-.049.37-.102.056-.041.368-.453.636-.82a.065.065 0 0 1 .087-.017l1.79 1.138c-.317-.735-1.448-3.335-1.741-3.804-.354-.564-.602-.7-.798-.76-.163-.049-1.781-.038-2.829-.02Z" fill="#263238"/><path d="M24.895 21.243s.26 1.97.161 2.618c-.099.65-.3.324-.092 1.065.208.741 1.784 3.173 2.107 3.59.324.418.65.278.765-.162.114-.44.209-3.126.209-3.126l.324-1.182-3.474-2.803Z" fill="#fff"/><path d="M27.459 28.831c-.115 0-.268-.057-.439-.275-.327-.421-1.908-2.86-2.119-3.611-.13-.46-.104-.536-.032-.678.067-.13.109-.27.123-.416.09-.632-.16-2.579-.162-2.6a.07.07 0 0 1 .105-.065l3.475 2.803a.063.063 0 0 1 .021.068l-.322 1.17c-.007.188-.095 2.698-.21 3.134-.067.253-.203.418-.372.454a.379.379 0 0 1-.068.016Zm-2.48-7.436c.059.487.22 1.927.142 2.47a1.254 1.254 0 0 1-.136.456c-.055.109-.078.154.041.583.208.736 1.772 3.149 2.097 3.567.13.166.26.245.378.221.119-.023.219-.156.272-.36.113-.427.206-3.085.207-3.112a.034.034 0 0 1 0-.015l.312-1.14-3.313-2.67Z" fill="#263238"/><path d="m26.18 23.557 1.738 2.09.127-.42.324-1.18-2.19-.49Z" fill="#263238"/><path d="M27.918 25.713a.07.07 0 0 1-.05-.024L26.13 23.6a.063.063 0 0 1 0-.076.064.064 0 0 1 .069-.03l2.19.49a.07.07 0 0 1 .04.03.063.063 0 0 1 0 .05l-.323 1.182-.13.42a.064.064 0 0 1-.05.046l-.008.002Zm-1.56-2.05 1.537 1.85.093-.305.305-1.114-1.935-.431Z" fill="#263238"/><path d="M30.346 19.2s-.044 1.876-.023 2.275a3.756 3.756 0 0 1-.315 1.725c-.295.61-1.199 1.198-1.69 1.198-.492 0-1.45-.357-2.145-.84-.602-.42-1.199-1.2-1.366-1.43-.168-.232-.422-1.2-.422-1.2l-.147-.799-.146-.65s1.324.043 2.04-.694c.714-.737 2.229-2.187 2.229-2.187l1.767 1.788.218.814Z" fill="#fff"/><path d="M28.324 24.463c-.527 0-1.506-.382-2.181-.853-.64-.445-1.264-1.281-1.383-1.445-.173-.238-.42-1.18-.43-1.22l-.15-.804-.147-.65a.063.063 0 0 1 .013-.056.075.075 0 0 1 .052-.023c.013 0 1.3.032 1.992-.674.707-.73 2.216-2.175 2.23-2.19a.064.064 0 0 1 .091 0l1.767 1.788a.054.054 0 0 1 .017.029l.213.816a.043.043 0 0 1 0 .019c0 .02-.044 1.878-.023 2.27a3.852 3.852 0 0 1-.321 1.757c-.306.637-1.24 1.236-1.74 1.236Zm-4.144-4.92.13.572.147.802c.069.26.278.99.41 1.17.13.18.729.981 1.351 1.416.713.496 1.666.829 2.108.829.442 0 1.341-.575 1.625-1.162a3.73 3.73 0 0 0 .308-1.69c-.02-.39.02-2.114.023-2.271l-.205-.79-1.711-1.732c-.26.25-1.546 1.486-2.181 2.14-.636.656-1.698.712-2.005.716Z" fill="#263238"/><path d="M28.587 21.79a.427.427 0 0 1-.192-.03.067.067 0 0 1-.028-.067.065.065 0 0 1 .076-.05.063.063 0 0 1 .023.01c.083.031.611-.007.688-.13.043-.069-.107-.244-.226-.39a2.216 2.216 0 0 1-.218-.284c-.154-.26-.13-.872-.13-.896a.065.065 0 0 1 .13 0c0 .006-.018.594.117.826.062.092.13.18.205.26.17.2.331.39.236.538a.46.46 0 0 1-.307.16c-.122.03-.248.047-.374.052Zm-.217.98a1.301 1.301 0 0 1-1.132-.613.064.064 0 0 1 .026-.087.066.066 0 0 1 .088.026c.014.026.35.632 1.197.534a.063.063 0 0 1 .072.058.065.065 0 0 1-.057.071 1.695 1.695 0 0 1-.194.012Zm-.403-3.123a.066.066 0 0 1-.036-.012 1.319 1.319 0 0 0-1.24-.08.063.063 0 0 1-.071-.008.062.062 0 0 1-.015-.021.064.064 0 0 1 .01-.072.066.066 0 0 1 .02-.015 1.422 1.422 0 0 1 1.37.09.066.066 0 0 1 .024.073.066.066 0 0 1-.062.045Zm.948-.126a.064.064 0 0 1-.049-.021.064.064 0 0 1-.019-.046.065.065 0 0 1 .02-.046c.006 0 .62-.562 1.14-.063a.065.065 0 0 1-.089.095c-.433-.415-.941.044-.963.064a.06.06 0 0 1-.04.017Zm-1.453.966c0 .197-.09.357-.2.357-.11 0-.199-.16-.199-.357 0-.198.09-.358.2-.358.108 0 .2.16.2.358Zm2.21-.064c0 .198-.09.357-.201.357-.11 0-.2-.16-.2-.357 0-.198.09-.358.2-.358.11 0 .2.16.2.358Z" fill="#263238"/><path d="M28.302 17.138a4.55 4.55 0 0 1-1.132 1.724c-.828.78-2.08 1.014-2.08 1.014s.068.32-.017.44a1.184 1.184 0 0 1-.27.236s-.49.084-.947-.406c-.456-.49-.405-2.738.457-3.853.861-1.115 3.51-1.283 4.275-.962.766.321.473.472.473.472s1.182.52 1.909 1.369c.727.849-.625 2.028-.625 2.028l-2.043-2.062Z" fill="#828282"/><path d="M24.714 20.622a1.237 1.237 0 0 1-.91-.432c-.492-.529-.426-2.8.453-3.936.897-1.161 3.61-1.3 4.35-.984.38.161.561.3.566.44a.153.153 0 0 1-.013.07c.28.13 1.226.62 1.854 1.35.76.883-.575 2.068-.632 2.12a.065.065 0 0 1-.088 0l-1.972-1.989a4.628 4.628 0 0 1-1.114 1.651c-.736.692-1.78.959-2.048 1.018.018.11.037.32-.039.427-.082.099-.18.184-.288.253a.089.089 0 0 1-.024.01.626.626 0 0 1-.095.002Zm2.853-5.368c-1.085 0-2.607.31-3.201 1.08-.878 1.135-.871 3.327-.46 3.77.39.418.798.39.875.39.09-.06.172-.13.241-.213a.703.703 0 0 0 0-.39.067.067 0 0 1 .052-.076c.012 0 1.242-.244 2.047-.998a4.526 4.526 0 0 0 1.114-1.69.063.063 0 0 1 .047-.042.064.064 0 0 1 .06.017l2.007 2.008c.222-.212 1.176-1.193.573-1.894-.707-.824-1.875-1.347-1.887-1.352a.067.067 0 0 1-.025-.093.066.066 0 0 1 .025-.024.034.034 0 0 0 .018-.03c0-.02-.03-.13-.486-.325a2.825 2.825 0 0 0-1-.138Z" fill="#263238"/><path d="M24.034 20.065s-.231-3.091 1.576-4.585l.8-.209s-1.83 1.724-1.977 4.858l-.399-.064Z" fill="#263238"/><path d="M24.44 20.194h-.01l-.4-.062a.066.066 0 0 1-.055-.06c0-.031-.212-3.142 1.601-4.64a.058.058 0 0 1 .025-.013l.789-.209a.064.064 0 0 1 .073.031.067.067 0 0 1-.012.08c-.018.016-1.813 1.744-1.958 4.81a.062.062 0 0 1-.023.048.065.065 0 0 1-.03.015Zm-.338-.184.276.044a7.8 7.8 0 0 1 1.835-4.663l-.565.15c-1.63 1.359-1.57 4.063-1.551 4.469h.005Z" fill="#263238"/><path d="M25.155 20.729c.277.536.146 1.155-.294 1.381-.44.227-1.019-.026-1.3-.563-.28-.536-.145-1.155.294-1.38.44-.225 1.023.025 1.3.561Z" fill="#263238"/><path d="M24.514 22.259a.972.972 0 0 1-.39-.084 1.289 1.289 0 0 1-.619-.598c-.292-.568-.148-1.227.323-1.469.47-.242 1.09.024 1.383.592.292.567.148 1.226-.322 1.469a.821.821 0 0 1-.375.09Zm-.307-2.11a.683.683 0 0 0-.318.076c-.406.21-.52.79-.26 1.3.117.238.313.428.555.539a.751.751 0 0 0 .65 0c.407-.21.52-.79.266-1.3a1.058 1.058 0 0 0-.893-.614Z" fill="#263238"/><path d="M27.462 23.79a.059.059 0 0 1-.022 0c-1.514-.568-2.771-2.192-2.784-2.21a.065.065 0 0 1 .012-.091.067.067 0 0 1 .092.012c.011.016 1.246 1.612 2.73 2.165a.066.066 0 0 1 .026.12.066.066 0 0 1-.05.01l-.004-.006Z" fill="#263238"/><path d="M27.834 23.832c-.06.144-.26.197-.44.12a.29.29 0 1 1 .44-.12Z" fill="#263238"/><path d="M27.56 24.05a.485.485 0 0 1-.194-.04.478.478 0 0 1-.235-.203.318.318 0 0 1-.023-.28.39.39 0 0 1 .526-.157c.099.04.181.11.234.203a.307.307 0 0 1-.194.463.474.474 0 0 1-.114.014Zm-.12-.59a.216.216 0 0 0-.212.116.187.187 0 0 0 .017.169.345.345 0 0 0 .17.145.35.35 0 0 0 .226.02.187.187 0 0 0 .13-.106.19.19 0 0 0-.017-.167.356.356 0 0 0-.312-.175l-.003-.002Z" fill="#263238"/><path d="M26.536 34.497s.78-.554.838-.615c.059-.061.573-.757.716-.962.143-.206.41-.39.595-.553.243-.232.456-.494.634-.78.143-.245.328-.471.39-.205s-.101.573-.164.758c-.072.177-.16.348-.26.51 0 0 .757-.47 1.208-.552.45-.082 1.023-.082 1.04.063.017.144-.124.183-.328.26-.204.076-.758.287-.962.369a6.12 6.12 0 0 0-.758.491s1.04-.245 1.27-.308c.297-.053.598-.08.9-.082a.192.192 0 0 1 .061.349 4.35 4.35 0 0 1-.49.286c-.09.145-.194.282-.308.41a7.093 7.093 0 0 0-.593.78c-.215.3-.504.54-.84.695-.327.163-1.718.306-1.718.306l-.943.471-.288-1.691Z" fill="#fff"/><path d="M26.822 36.26a.065.065 0 0 1-.064-.053l-.287-1.7a.065.065 0 0 1 .027-.064c.299-.213.79-.565.83-.607.042-.041.55-.724.71-.954a2.38 2.38 0 0 1 .437-.424c.059-.048.116-.095.167-.139a3.99 3.99 0 0 0 .621-.763c.198-.34.308-.365.373-.355.065.01.112.066.13.17.054.23-.045.483-.118.667-.018.046-.035.088-.047.13-.04.107-.089.21-.145.309.26-.149.703-.377 1.014-.435.31-.057.884-.101 1.059.025a.14.14 0 0 1 .06.091c.026.182-.13.243-.313.315l-.055.022-.482.184-.48.184a3.409 3.409 0 0 0-.475.29c.327-.076.804-.19.946-.23a5.35 5.35 0 0 1 .917-.084.222.222 0 0 1 .198.164.26.26 0 0 1-.098.302 4.24 4.24 0 0 1-.483.284 3.304 3.304 0 0 1-.304.403c-.215.243-.412.5-.59.77-.22.31-.517.558-.863.719-.322.16-1.584.296-1.73.312l-.93.465a.059.059 0 0 1-.025.002Zm-.216-1.735.26 1.572.863-.43a.049.049 0 0 1 .022-.007c.014 0 1.385-.144 1.698-.301.325-.15.606-.382.814-.674.181-.273.381-.534.6-.78.11-.124.21-.258.3-.399a.067.067 0 0 1 .025-.025c.167-.082.328-.176.481-.28a.13.13 0 0 0 .052-.156c-.014-.042-.046-.076-.074-.076a5.132 5.132 0 0 0-.882.08c-.225.062-1.23.297-1.272.308a.064.064 0 0 1-.074-.035.067.067 0 0 1 .02-.081c.244-.185.502-.352.772-.5l.48-.184c.19-.071.38-.143.482-.183l.056-.022c.193-.077.242-.106.231-.174-.038-.064-.487-.095-.967-.008-.433.079-1.178.54-1.186.544a.065.065 0 0 1-.1-.047.065.065 0 0 1 .01-.042 3.275 3.275 0 0 0 .31-.628c.07-.178.157-.4.113-.592a.145.145 0 0 0-.03-.07s-.073.008-.24.294c-.183.29-.401.557-.65.793-.052.047-.11.094-.17.143-.155.115-.294.25-.414.399-.136.195-.65.91-.723.971-.073.061-.645.475-.807.59Z" fill="#263238"/><path d="M29.667 34.11a.063.063 0 0 1-.053-.027.065.065 0 0 1 .016-.09c.293-.21 1.526-.509 1.578-.52a.065.065 0 0 1 .053.115.063.063 0 0 1-.023.01c-.012 0-1.26.307-1.533.502a.068.068 0 0 1-.038.01Zm.082.696a.065.065 0 0 1-.063-.048.066.066 0 0 1 .048-.08c.048-.011.44-.196.78-.363a.067.067 0 0 1 .05-.003.067.067 0 0 1 .037.033.064.064 0 0 1 .003.05.064.064 0 0 1-.033.037c-.121.058-.727.352-.811.373l-.01.001Zm-8.095-8.373s-2.116.52-2.174.84c-.057.32-1.56 10.088-1.652 10.53-.092.442-.203 1.16.087 1.217.29.057 8.957-2.638 8.957-2.638l-.418-2.08-4.539.52.667-4.087" fill="#263238"/><path d="M17.917 39.078h-.015c-.342-.068-.243-.771-.137-1.294.052-.26.62-3.907 1.075-6.839.297-1.907.553-3.554.577-3.681.06-.336 1.716-.769 2.221-.894a.065.065 0 1 1 .032.127c-.997.247-2.095.618-2.126.789-.023.13-.28 1.773-.576 3.679-.456 2.932-1.024 6.582-1.076 6.845-.19.948-.059 1.122.036 1.14.26.021 5.427-1.548 8.869-2.618l-.39-1.968-4.479.512a.064.064 0 0 1-.07-.046.067.067 0 0 1-.001-.03l.666-4.086a.063.063 0 0 1 .026-.043.065.065 0 0 1 .049-.01.066.066 0 0 1 .024.008.066.066 0 0 1 .029.04.063.063 0 0 1 0 .026l-.65 4.002 4.453-.51a.066.066 0 0 1 .071.053l.419 2.08a.066.066 0 0 1-.044.075c-1.44.447-8.522 2.643-8.983 2.643Z" fill="#263238"/><path d="M19.595 35.017a.066.066 0 0 1-.061-.088.066.066 0 0 1 .058-.042l2.05-.107a.064.064 0 0 1 .063.036.063.063 0 0 1 .002.05.067.067 0 0 1-.033.037.064.064 0 0 1-.025.006l-2.05.108h-.004Z" fill="#8C8C8C"/><path d="M21.646 34.909a.063.063 0 0 1-.05-.022.065.065 0 0 1-.013-.059l.865-3.336a.068.068 0 0 1 .031-.04.067.067 0 0 1 .1.047.066.066 0 0 1 0 .026l-.843 3.25 3.9-.337a.066.066 0 0 1 .067.085.064.064 0 0 1-.057.045l-3.99.343-.01-.002Z" fill="#8C8C8C"/><path d="M41.278 7.835h-9.334a.845.845 0 0 0-.844.844v4.785a.845.845 0 0 0 .844.844h1.647l-1.18 2.799 3.027-2.8h5.84a.846.846 0 0 0 .843-.843V8.679a.845.845 0 0 0-.843-.844Z" fill="#263238"/><path d="M32.412 17.172a.061.061 0 0 1-.042-.012.064.064 0 0 1-.023-.078l1.141-2.71h-1.544a.91.91 0 0 1-.91-.91V8.68a.91.91 0 0 1 .91-.91h9.334a.91.91 0 0 1 .91.91v4.785a.91.91 0 0 1-.91.91h-5.814l-3.008 2.786a.06.06 0 0 1-.044.012ZM31.944 7.9a.78.78 0 0 0-.78.78v4.785a.78.78 0 0 0 .78.78h1.647a.067.067 0 0 1 .054.03.064.064 0 0 1 0 .061l-1.062 2.522 2.806-2.6a.066.066 0 0 1 .044-.016h5.84a.78.78 0 0 0 .78-.78V8.678a.78.78 0 0 0-.78-.78l-9.33.001Z" fill="#263238"/><path d="M40.886 7.556h-9.334a.845.845 0 0 0-.843.843v4.786a.845.845 0 0 0 .843.843H33.2l-1.179 2.8 3.027-2.8h5.84a.846.846 0 0 0 .843-.843V8.399a.845.845 0 0 0-.844-.843Z" fill="#fff"/><path d="M32.02 16.892a.068.068 0 0 1-.037-.011.065.065 0 0 1-.023-.079l1.14-2.709h-1.548a.91.91 0 0 1-.91-.91V8.4a.91.91 0 0 1 .91-.91h9.334a.91.91 0 0 1 .91.91v4.786a.91.91 0 0 1-.91.91h-5.815l-3.006 2.782a.063.063 0 0 1-.045.015Zm-.468-9.271a.78.78 0 0 0-.78.78v4.785a.78.78 0 0 0 .78.78H33.2a.065.065 0 0 1 .06.09l-1.062 2.522 2.805-2.6a.066.066 0 0 1 .045-.017h5.84a.78.78 0 0 0 .78-.78V8.399a.78.78 0 0 0-.78-.78l-9.335.002Z" fill="#263238"/><path d="M34.11 11.228a.437.437 0 1 0 0-.874.437.437 0 0 0 0 .874Zm2.11 0a.437.437 0 1 0 0-.874.437.437 0 0 0 0 .874Zm2.108 0a.437.437 0 1 0 0-.874.437.437 0 0 0 0 .874Z" fill="#263238"/></svg>