<svg xmlns="http://www.w3.org/2000/svg" width="44" height="44" fill="none"><path fill="#E0E0E0" d="M38.891 29.867c.44-.522.704-1.14.933-1.774.3-.833.584-1.676.823-2.532.023-.082.044-.167.066-.25.133-.015.506-.23.553-.264.124-.087.233-.192.322-.314.284-.391.283-1.08.693-1.35.025-.019.036-.08-.01-.066-.47.145-1.019.514-1.312.978.088-.41.16-.823.21-1.24.027-.23.06-.465.087-.704.332-.252.727-.405 1-.74.215-.265.27-.606.305-.933 0-.028-.027-.049-.05-.027-.186.187-.394.35-.62.487a1.886 1.886 0 0 0-.39.273 1.123 1.123 0 0 0-.182.247c.007-.155.009-.307.005-.463.077-.315.233-.56.283-.889a3.2 3.2 0 0 0 .03-.29c.005-.096-.006-.18-.01-.272a2.849 2.849 0 0 0-.131-.64 4.06 4.06 0 0 0-.431-1.01c-.032-.051-.079.023-.07.057.007.033.012.067.017.1a2.45 2.45 0 0 1 0 .73c-.007.1-.026.198-.057.294a.458.458 0 0 0-.04.11c-.008.049-.011.1-.024.148a.96.96 0 0 0-.025.176c0 .045-.008.088-.014.137 0 .018 0 .056-.011.071a.331.331 0 0 1-.06-.074c-.024-.032-.05-.063-.07-.098-.073-.113-.166-.209-.239-.323-.082-.127-.163-.257-.256-.377-.036-.045-.119-.113-.123-.011.002.092.013.183.033.273l.029.171c.015.088.025.176.041.264.073.39.216.764.424 1.102.159.24.33.473.464.728.042.082.08.167.113.254l-.06.559-.014.019a17.506 17.506 0 0 1-.552 2.816c-.016-.071-.037-.142-.05-.21a2.678 2.678 0 0 1-.06-.625c.282-1.025.062-1.962-.52-2.848-.026-.04-.073.008-.075.041-.014.587-.071 1.179-.006 1.76-.131-.358-.285-.714-.43-1.056a3.432 3.432 0 0 0-.222-.48v-.003a.395.395 0 0 0-.02-.102 2.17 2.17 0 0 1-.015-.108c-.015-.156-.023-.316-.036-.473a7.928 7.928 0 0 0-.025-.286 2.27 2.27 0 0 0-.033-.204 1.298 1.298 0 0 0-.12-.357c-.065-.125-.142-.243-.219-.362-.115-.176-.247-.342-.373-.513a2.134 2.134 0 0 0-.214-.272c-.04-.04-.072-.088-.11-.125a.966.966 0 0 0-.114-.094c-.018-.016-.037-.004-.05.014-.046.025-.011.087 0 .132.012.074.017.148.015.222v.239c.003.207.03.414.082.616.05.178.118.351.205.515.09.178.198.346.323.501.125.151.26.294.405.427.516.6.629 1.45 1.001 2.14.063.32.188.655.481.779-.01.156.001.313.032.466.02.158.051.313.093.467a35.03 35.03 0 0 1-.962 2.903 5.631 5.631 0 0 0-.076-.482c.184-.322.268-.691.241-1.06a4.211 4.211 0 0 0-.088-.529c-.065-.29-.238-.584-.254-.88 0-.056-.065-.035-.08 0-.383 1.037.089 2.05.205 3.08a4.71 4.71 0 0 1-.726 1.265c-.056.084.049.229.115.15Zm2.22-10.937a2.21 2.21 0 0 0 0-.55c.085.177.159.358.223.544.072.194.134.391.186.592.02.079.035.159.043.24.004.054.006.108.012.162.004.07.001.139-.007.208-.01.077-.026.153-.047.229a2.504 2.504 0 0 1-.07.244 3.94 3.94 0 0 0-.15.48.44.44 0 0 0-.02-.17 1.401 1.401 0 0 0-.055-.159 1.798 1.798 0 0 1-.05-.146 1.047 1.047 0 0 0-.057-.125 2.262 2.262 0 0 1-.098-.244 1.412 1.412 0 0 1-.078-.33 1.673 1.673 0 0 1 .07-.527c.043-.147.076-.297.098-.448Zm-.638 1.354-.018-.042a1.5 1.5 0 0 1-.06-.15c-.033-.104-.072-.206-.096-.31-.01-.05-.017-.099-.025-.148-.022-.122-.06-.242-.075-.366 0-.02-.02-.108.015-.098.034.01.062.08.074.1.088.14.187.272.277.412.047.074.094.149.137.225.13.203.247.413.352.63.035.078.064.159.088.242a2.694 2.694 0 0 1 .06.892.48.48 0 0 0-.068-.176 1.883 1.883 0 0 0-.093-.176c-.062-.104-.131-.206-.191-.31a6.142 6.142 0 0 1-.352-.659c-.006-.022-.018-.046-.025-.066Zm.839 1.544c.114-.29.38-.478.65-.637.109-.059.214-.126.314-.2.124-.1.167-.29.176-.05.018.424-.432.792-.744 1.003a3.83 3.83 0 0 0-.44.283c.02-.132.033-.266.044-.399Zm-2.337-.293a9.569 9.569 0 0 0-.135-.133 2.717 2.717 0 0 1-.384-.478 2.297 2.297 0 0 1-.27-.552 3.297 3.297 0 0 1-.167-.812c0-.041-.05-.39.02-.38.048.006.129.118.155.151.324.4.671.821.783 1.335a2.8 2.8 0 0 1 .072.446c0 .088.007.176.013.27 0 .043.006.087.01.132l.008.067c0 .02.003.041.009.06a.78.78 0 0 0-.114-.106Zm1.03 2.246v-.006c-.01-.032-.021-.063-.03-.095-.155-.616-.059-1.383-.03-1.952.249.382.426.805.523 1.25.104.51-.009.937-.082 1.427a1.32 1.32 0 0 1-.381-.624Zm.74 1.408c.052-.193.099-.39.144-.584.168-.344.42-.639.734-.857.061-.044.417-.234.52-.326a8.655 8.655 0 0 1-.168.22c-.1.195-.148.416-.235.616a1.51 1.51 0 0 1-.551.715c-.144.08-.293.15-.445.213l.001.003Zm-1.42.378c.031.12.082.235.122.352.081.25.14.507.176.768.056.387-.037.704-.163 1.056-.145-.727-.34-1.453-.134-2.179v.003ZM4.427 27.272a3.863 3.863 0 0 1-.564-1.056c.12-.843.528-1.661.241-2.518-.01-.032-.06-.052-.064-.005-.021.241-.169.479-.23.714-.037.14-.067.283-.088.427-.028.303.033.607.176.875-.029.13-.055.264-.073.392a28.912 28.912 0 0 1-.716-2.4c.037-.124.067-.251.087-.38.029-.124.04-.252.036-.38.244-.095.352-.365.414-.627.321-.556.434-1.204.871-1.683.133-.12.259-.248.376-.383.1-.113.186-.236.258-.369.07-.144.125-.295.165-.45a2.24 2.24 0 0 0 .082-.5c0-.065 0-.129.008-.194 0-.06.005-.121.018-.181.008-.034.038-.088 0-.11-.011-.014-.026-.025-.041-.011a.765.765 0 0 0-.096.073c-.032.032-.059.069-.088.1a1.725 1.725 0 0 0-.183.22c-.108.137-.22.265-.319.412-.066.095-.131.19-.188.29a1.11 1.11 0 0 0-.109.289 1.8 1.8 0 0 0-.03.167c-.012.078-.02.156-.029.234a3.42 3.42 0 0 1-.052.433c-.043.143-.1.28-.17.412l-.046.102c-.126.279-.264.567-.377.857.068-.478.035-.964.038-1.444 0-.027-.039-.068-.06-.035-.498.712-.705 1.473-.495 2.318a2.228 2.228 0 0 1-.064.51c-.013.056-.031.114-.047.17a14.43 14.43 0 0 1-.346-1.814c-.018-.16-.032-.32-.045-.479a.02.02 0 0 0 .01-.02.02.02 0 0 0-.003-.008.07.07 0 0 1-.01-.015 81.096 81.096 0 0 1-.036-.459c.03-.07.062-.139.099-.205.116-.206.264-.393.398-.585a2.32 2.32 0 0 0 .153-.264 2.4 2.4 0 0 0 .22-.625c.015-.071.025-.145.04-.216.009-.046.019-.093.027-.14.02-.073.03-.148.035-.223 0-.083-.071-.03-.101.006-.08.097-.148.2-.22.304-.07.103-.14.167-.202.258-.018.028-.04.052-.06.078a.24.24 0 0 1-.052.059.141.141 0 0 1-.007-.058c0-.038-.006-.075-.008-.112a.777.777 0 0 0-.015-.143 1.12 1.12 0 0 1-.017-.122.381.381 0 0 0-.031-.088 1.127 1.127 0 0 1-.039-.243 1.992 1.992 0 0 1 .035-.678c.006-.028-.03-.088-.056-.049-.162.254-.29.529-.377.817a2.261 2.261 0 0 0-.124.52c-.005.076-.014.147-.014.223.001.075.008.159.018.238.033.27.154.474.21.734-.008.128-.01.253-.008.38a.88.88 0 0 0-.144-.207 1.464 1.464 0 0 0-.31-.233 2.598 2.598 0 0 1-.497-.413.024.024 0 0 0-.041.02c.02.265.057.55.227.77.215.281.535.416.8.632.02.193.041.387.057.575.032.343.08.683.142 1.021a2.077 2.077 0 0 0-1.051-.839c-.038-.012-.03.04-.01.055.328.231.31.792.533 1.122.07.101.157.19.257.264.038.028.337.215.446.23.016.07.03.139.048.206a28.3 28.3 0 0 0 .616 2.092c.176.528.376 1.038.72 1.475.05.067.14-.05.092-.11Zm-1.58-8.528c.039.143.054.292.046.44a1.15 1.15 0 0 1-.073.264 1.817 1.817 0 0 1-.088.198.812.812 0 0 0-.049.1c-.013.04-.028.08-.044.12a1.307 1.307 0 0 0-.05.128.364.364 0 0 0-.02.139 3.444 3.444 0 0 0-.105-.399 1.694 1.694 0 0 1-.051-.202 1.005 1.005 0 0 1-.033-.36c.006-.043.008-.087.013-.13.009-.067.023-.133.041-.197.047-.162.103-.322.166-.48.057-.15.122-.297.196-.44-.023.15-.027.301-.013.451.014.124.035.247.064.368Zm.398.808c-.09.182-.19.358-.302.528-.051.083-.11.165-.163.25-.03.046-.057.094-.081.143a.398.398 0 0 0-.06.145 2.255 2.255 0 0 1 .071-.73c.022-.066.047-.132.078-.195a5.01 5.01 0 0 1 .302-.509 3.78 3.78 0 0 1 .118-.182c.076-.112.16-.218.236-.33.01-.015.042-.076.064-.08.022-.005.011.064.01.08-.016.101-.05.199-.071.298-.008.04-.014.08-.024.12-.022.088-.056.167-.088.252-.015.04-.035.081-.053.12l-.016.035-.021.055Zm-.678 1.521a3.41 3.41 0 0 0-.352-.242c-.25-.176-.61-.492-.585-.838.015-.197.046-.04.145.045.08.064.164.123.253.176.215.136.429.296.515.536.01.106.015.212.024.32v.003Zm1.801-.426c.007-.007.007-.038.01-.049 0-.01.005-.036.007-.054.005-.037.009-.073.012-.11l.018-.219c.013-.123.036-.244.069-.364.104-.417.398-.754.673-1.074.023-.026.088-.116.132-.12.056 0 .009.278.006.312-.021.237-.07.471-.147.696a1.62 1.62 0 0 1-.216.42 2.293 2.293 0 0 1-.352.371l-.113.107a.69.69 0 0 0-.099.082v.002ZM3.24 22.88c-.047-.403-.13-.756-.032-1.17a3.08 3.08 0 0 1 .458-1.01c.01.466.07 1.096-.071 1.597l-.027.076v.005a1.09 1.09 0 0 1-.328.502Zm-.67.44a1.232 1.232 0 0 1-.433-.598c-.066-.167-.1-.347-.176-.51l-.131-.184c.082.078.368.241.417.28.251.186.451.433.58.718.032.161.067.322.104.481a3.636 3.636 0 0 1-.36-.187Zm1.346 2.31c-.095-.29-.163-.553-.108-.869.037-.212.092-.42.165-.623.036-.096.08-.189.109-.287.151.598-.027 1.187-.166 1.777v.002ZM16.06 2.865c-.719.015-1.395.232-2.06.491-.871.34-1.739.704-2.585 1.105-.081.038-.162.08-.245.121-.104-.095-.534-.241-.594-.256a1.426 1.426 0 0 0-.473-.038c-.508.046-1.056.528-1.555.387-.032-.007-.088.028-.045.055.44.272 1.116.452 1.69.362-.387.216-.766.446-1.133.696-.2.138-.411.274-.616.415-.432-.088-.828-.296-1.284-.28-.36.012-.67.205-.953.405a.03.03 0 0 0 .013.058 3.4 3.4 0 0 1 .818.155c.156.06.32.1.487.12a1.17 1.17 0 0 0 .323-.026 6.62 6.62 0 0 0-.371.318c-.307.157-.613.203-.907.392-.088.056-.17.115-.25.176-.08.062-.14.135-.21.198a2.955 2.955 0 0 0-.418.553 4.26 4.26 0 0 0-.5 1.042c-.018.06.073.046.094.016.021-.03.045-.057.067-.088a2.58 2.58 0 0 1 .581-.507c.085-.064.176-.117.273-.16a.472.472 0 0 0 .115-.044c.045-.028.088-.06.136-.084a.938.938 0 0 0 .154-.101c.04-.03.079-.056.118-.088.017-.012.045-.04.065-.04a.328.328 0 0 1-.019.109c-.01.04-.017.081-.029.122-.04.137-.052.277-.088.414a7.531 7.531 0 0 0-.122.466c-.01.06-.007.176.076.106.072-.066.137-.138.195-.217.04-.046.077-.094.116-.14.059-.075.123-.144.182-.218.18-.223.328-.47.44-.732a2.99 2.99 0 0 0 .14-.37c.081-.294.148-.592.257-.88.036-.091.077-.18.123-.265.161-.113.324-.228.487-.34h.024a.026.026 0 0 0 .022-.03c.169-.118.338-.235.513-.352a18.43 18.43 0 0 1 2.09-1.144c-.044.063-.088.128-.13.185a2.79 2.79 0 0 1-.457.483c-1.013.492-1.605 1.319-1.903 2.398-.014.048.057.052.088.03.03-.022.08-.066.12-.098.311-.254.641-.474.938-.743a3.45 3.45 0 0 0 .74-.87c.07-.115.123-.239.158-.368a.732.732 0 0 0 .019-.19c0-.017-.03-.168-.03-.168.13-.102.25-.22.351-.352.111-.126.213-.26.305-.4.737-.352 1.486-.67 2.243-.968.243-.096.486-.192.735-.28-.117.126-.226.264-.33.395a1.99 1.99 0 0 0-1.025.545 4.95 4.95 0 0 0-.352.44c-.185.254-.3.595-.523.814-.043.042.016.076.057.061 1.09-.414 1.568-1.496 2.31-2.305a5 5 0 0 1 1.51-.302c.103-.006.142-.191.033-.189ZM5.82 8.7c-.163.108-.31.236-.44.382.082-.19.175-.376.279-.556a6.16 6.16 0 0 1 .34-.56c.049-.07.102-.137.161-.2.04-.041.081-.08.12-.122a1.33 1.33 0 0 1 .385-.26c.079-.044.16-.082.242-.115.167-.062.33-.134.487-.215a.459.459 0 0 0-.122.135c-.032.049-.062.1-.088.154a2.491 2.491 0 0 1-.082.141.919.919 0 0 0-.06.131 2.63 2.63 0 0 1-.126.249 1.51 1.51 0 0 1-.208.29c-.14.13-.299.236-.472.314a3.818 3.818 0 0 0-.416.232Zm1.52-.434-.02.044c-.026.05-.048.104-.078.152-.06.099-.114.2-.18.291-.032.043-.068.082-.1.123-.083.102-.152.217-.24.314-.014.015-.07.088-.088.056-.016-.032.022-.105.029-.128.048-.168.088-.338.134-.506.027-.088.054-.176.088-.264.072-.243.158-.482.257-.716a1.9 1.9 0 0 1 .128-.24 2.917 2.917 0 0 1 .665-.669.528.528 0 0 0-.094.176 2.724 2.724 0 0 0-.077.2c-.04.12-.073.246-.114.366a6.13 6.13 0 0 1-.282.736l-.028.065Zm.645-1.74c-.31.11-.646.03-.958-.074a2.816 2.816 0 0 0-.378-.11c-.166-.03-.352.067-.163-.108.324-.308.933-.21 1.314-.106.19.052.352.129.528.152-.114.08-.232.162-.343.246Zm2.464-.318h-.005c-.019.03-.036.061-.054.088-.383.551-1.056 1.008-1.532 1.38.131-.462.344-.897.63-1.284.334-.44.753-.644 1.193-.926a1.393 1.393 0 0 1-.235.742h.003Zm.604-1.565c-.19.093-.379.193-.565.291-.39.105-.8.11-1.192.012-.077-.017-.475-.168-.616-.186.094-.008.288-.021.29-.02.228-.055.435-.17.655-.241.304-.116.635-.136.951-.059.161.06.32.127.473.203h.004Zm1.286.867c.075-.11.13-.23.197-.343.14-.24.302-.467.482-.679.264-.314.587-.461.953-.604-.474.626-.914 1.285-1.635 1.626h.003Zm14.365 27.089v-.006a.088.088 0 0 0-.048-.036h-.015c-.02 0-.033.014-.028.031l-.016.008h-.008l-.011.004-.031.01a2.594 2.594 0 0 1-.224.048c-.148.029-.33.059-.493.088l-.038.008-.043.007-.046.008-.033.007-.068.013h-.005a2.044 2.044 0 0 0-.15.035l-.03.008-.056.02a.915.915 0 0 0-.352.246.966.966 0 0 1-.069.061l-.04.032a3 3 0 0 1-.337.211.338.338 0 0 0-.256-.042l-.218.064a.218.218 0 0 0-.055.023l-4.048 2.335a.323.323 0 0 0-.252.023l-.37.212a.288.288 0 0 0-.07.058l-.01.015-4.776 2.757a.778.778 0 0 0-.373.824l-.127.074a.241.241 0 0 0-.085.082l-.008.014a.224.224 0 0 0-.02.047v.005a.246.246 0 0 0 .088.266.25.25 0 0 0 .276.018l.128-.074a.777.777 0 0 0 .9.088l4.777-2.757a.276.276 0 0 0 .098-.031l.37-.213a.328.328 0 0 0 .145-.208l4.047-2.336a.24.24 0 0 0 .048-.037l.165-.155a.308.308 0 0 0 .088-.176c.106-.063.193-.113.264-.154l.05-.028a3.53 3.53 0 0 1 .353-.164l.029-.012.134-.052a.604.604 0 0 0 .1-.053.354.354 0 0 0 .073-.068l.01-.014a.255.255 0 0 0 .026-.04v-.006a.584.584 0 0 0 .043-.095c.013-.032.024-.061.033-.088a1.93 1.93 0 0 1 .243-.49l.04-.062.008-.011.03-.043.005-.008.029-.04.028-.037c.1-.124.138-.126.138-.126.045.025.077-.033.043-.088Zm-.04-9.621c-2.294 1.324-2.294 3.47 0 4.795 2.294 1.324 6.012 1.32 8.305 0 2.294-1.32 2.294-3.47 0-4.795-2.293-1.325-6.017-1.325-8.305 0ZM4.077 35.935l5.117 2.954a.468.468 0 0 0 .422 0l15.596-8.996c.117-.067.117-.176 0-.244l-5.095-2.966a.46.46 0 0 0-.42 0l-15.62 9.008c-.117.067-.117.176 0 .244Zm-1.806 1.249c1.03-.594 2.699-.594 3.727 0 1.029.595 1.03 1.558 0 2.152-1.03.594-2.698.594-3.727 0-1.028-.594-1.03-1.558 0-2.152Zm30.851 1.502c3.085 0 5.586-1.444 5.586-3.225 0-1.782-2.501-3.226-5.586-3.226-3.086 0-5.587 1.444-5.587 3.226 0 1.78 2.501 3.225 5.587 3.225Z"/><path fill="#407BFF" d="M20.554 22.378c-.025 1.8 1.507 2.748 3.365 2.748 1.857 0 3.361-.949 3.361-2.748h-6.726Z"/><path fill="#407BFF" d="M21.54 23.752c-1.314-.758-1.314-1.989 0-2.747 1.314-.759 3.443-.759 4.757 0 1.314.758 1.314 1.989 0 2.747-1.314.759-3.443.759-4.757 0Z"/><path fill="#fff" d="M21.54 23.752c-1.314-.758-1.314-1.989 0-2.747 1.314-.759 3.443-.759 4.757 0 1.314.758 1.314 1.989 0 2.747-1.314.759-3.443.759-4.757 0Z" opacity=".4"/><path fill="#407BFF" d="M21.71 23.841c1.264.637 3.153.637 4.416 0 .45-.528.294-1.187-.469-1.627-.96-.554-2.517-.554-3.477 0-.763.44-.918 1.097-.47 1.627Z" opacity=".5"/><path fill="#37474F" d="M23.051 24.314h-.005a.06.06 0 0 1-.04-.021.057.057 0 0 1-.013-.043l.868-9.437a.06.06 0 0 1 .063-.053.057.057 0 0 1 .022.007.057.057 0 0 1 .03.057l-.867 9.437a.058.058 0 0 1-.058.053Z"/><path fill="#37474F" d="M27.167 21.932a.057.057 0 0 1-.053-.034l-3.248-7.055a.058.058 0 1 1 .106-.05l3.247 7.056a.058.058 0 0 1-.052.083Z"/><path fill="#37474F" d="M21.54 21.064a.062.062 0 0 1-.021-.005.058.058 0 0 1-.034-.076l2.376-6.186a.058.058 0 0 1 .075-.033.059.059 0 0 1 .034.075l-2.376 6.187a.059.059 0 0 1-.054.038Z"/><path fill="#407BFF" d="M34.064 14.562c-.025 1.799 1.507 2.748 3.364 2.748 1.858 0 3.365-.949 3.365-2.748h-6.729Z"/><path fill="#407BFF" d="M35.05 15.936c-1.314-.759-1.314-1.989 0-2.748 1.314-.758 3.444-.758 4.758 0 1.314.76 1.314 1.99 0 2.748-1.314.759-3.444.759-4.758 0Z"/><path fill="#fff" d="M35.05 15.936c-1.314-.759-1.314-1.989 0-2.748 1.314-.758 3.444-.758 4.758 0 1.314.76 1.314 1.99 0 2.748-1.314.759-3.444.759-4.758 0Z" opacity=".4"/><path fill="#407BFF" d="M35.22 16.025c1.264.637 3.153.637 4.416 0 .449-.528.294-1.187-.469-1.627-.96-.555-2.517-.555-3.478 0-.763.44-.917 1.097-.469 1.627Z" opacity=".5"/><path fill="#37474F" d="M36.56 16.497h-.005a.059.059 0 0 1-.053-.063l.868-9.437a.06.06 0 0 1 .064-.053.057.057 0 0 1 .04.02.058.058 0 0 1 .013.043l-.868 9.438a.057.057 0 0 1-.058.052Z"/><path fill="#37474F" d="M40.677 14.116a.06.06 0 0 1-.053-.034l-3.248-7.055a.059.059 0 0 1 .106-.05l3.248 7.056a.059.059 0 0 1-.028.077.06.06 0 0 1-.025.006Z"/><path fill="#37474F" d="M35.05 13.248a.062.062 0 0 1-.021 0 .059.059 0 0 1-.034-.076l2.376-6.187a.06.06 0 0 1 .053-.037.058.058 0 0 1 .056.08l-2.376 6.186a.058.058 0 0 1-.054.034Z"/><path fill="#455A64" d="M37.827 6.046c-.006.293-.186.637-.4.76a.188.188 0 0 1-.182.024c-.062-.036-.1-.137-.1-.27.006-.182.06-.359.156-.514h-.264a1.23 1.23 0 0 0-.122.514c0 .221.079.393.217.473a.36.36 0 0 0 .176.047.482.482 0 0 0 .241-.072c.286-.164.51-.584.517-.962h-.239Z"/><path fill="#263238" d="M33.068 23.086c-1.27-.733-3.33-.733-4.598 0-.636.367-.95.847-.95 1.328v.497c0 .48.314.961.95 1.327 1.27.733 3.328.733 4.598 0 .635-.366.95-.846.95-1.327v-.497c0-.478-.314-.961-.95-1.328Z"/><path fill="#455A64" d="M28.47 23.086c-1.27.734-1.27 1.922 0 2.655 1.27.733 3.328.733 4.598 0s1.27-1.921 0-2.655c-1.27-.734-3.324-.734-4.598 0Z"/><path fill="#37474F" d="M32.67 22.469c-1.05-.606-2.752-.606-3.801 0-.528.304-.786.704-.785 1.097v.732c0 .397.26.792.785 1.097 1.049.606 2.75.606 3.8 0 .528-.303.786-.7.785-1.097v-.732c.001-.396-.26-.793-.785-1.097Z"/><path fill="#455A64" d="M28.869 22.47c-1.05.605-1.05 1.583 0 2.194 1.05.61 2.75.606 3.8 0 1.05-.607 1.05-1.584 0-2.195-1.05-.61-2.749-.606-3.8 0Zm-4.379-8.654h-.235a.517.517 0 0 1 .005.076c0 .295-.183.65-.4.776a.193.193 0 0 1-.183.024c-.062-.037-.1-.137-.1-.27a.93.93 0 0 1 .063-.32h-.248a1.155 1.155 0 0 0-.049.32c0 .22.078.393.217.473.053.03.114.047.176.046a.483.483 0 0 0 .24-.07c.29-.168.517-.598.517-.979 0-.025 0-.05-.002-.076Z"/><path fill="#37474F" d="M32.9 23.091c0-.315-.209-.63-.624-.87-.832-.48-2.182-.48-3.014 0-.416.24-.624.555-.624.87v.252c0 .315.208.63.624.87.832.48 2.182.48 3.014 0 .415-.24.624-.555.624-.87v-.252Z"/><path fill="#455A64" d="M32.276 22.22c-.146-.087-.371-.46-.474-.958-.24-1.158-.237-3.017-.043-3.721h-1.981c.195.704.198 2.563-.042 3.72-.103.499-.328.867-.474.96-.416.24-.624.555-.624.87 0 .315.208.63.624.87.832.481 2.182.481 3.014 0 .415-.24.624-.555.624-.87 0-.315-.209-.63-.624-.87Z"/><path fill="#fff" d="M30.192 17.962c0 .45-.025 3.682-.317 4.092-.29.41-.622.44-.844.792-.223.352.128.84.657 1.001a.65.65 0 0 1-.163-.338s.352.414 1.137.338c-.693-.118-.968-.642-.82-.898.156-.27.41-.359.553-.834.11-.367.109-4.095.109-4.095-.106-.01-.21-.03-.312-.058Z" opacity=".15"/><path fill="#000" d="M31.108 18.012c.026.768.042 3.83.264 4.198.176.288.284.452.32.772.036.32-.251.597-.463.667.19-.016.373-.084.528-.196 0 0-.176.36-.874.528.47.03 1.22-.102 1.637-.627.352-.444-.015-.654-.313-.827-.297-.172-.453-.326-.596-.734-.314-.891-.176-3.856-.176-3.856-.107.034-.216.06-.327.075Z" opacity=".15"/><path fill="#000" d="M31.674 17.97a3.04 3.04 0 0 1 .088-.429h-1.985c.041.14.07.284.088.429.51.274 1.298.274 1.809 0Z" opacity=".25"/><path fill="#37474F" d="M29.825 17.812c-.264-.15-.39-.347-.39-.545 0-.197.13-.394.39-.544.521-.301 1.366-.301 1.887 0 .264.15.39.347.39.544 0 .198-.13.395-.39.545-.521.301-1.366.301-1.887 0Z"/><path fill="#000" d="M32.013 16.99a.89.89 0 0 0-.301-.265c-.521-.3-1.366-.3-1.887 0a.893.893 0 0 0-.3.264c.034.154.152.303.357.42.49.284 1.284.284 1.774 0 .205-.117.323-.266.357-.42Z" opacity=".25"/><path fill="#37474F" d="M29.881 17.232c-.245-.14-.367-.326-.367-.512s.122-.371.367-.512c.49-.283 1.285-.283 1.775 0 .245.14.368.326.368.512s-.123.371-.368.512c-.49.28-1.284.28-1.775 0Z"/><path fill="#000" d="M31.935 16.456a.85.85 0 0 0-.279-.245c-.49-.283-1.284-.283-1.775 0a.841.841 0 0 0-.279.245.638.638 0 0 0 .335.398c.46.264 1.204.264 1.663 0a.637.637 0 0 0 .335-.398Z" opacity=".25"/><path fill="#37474F" d="M29.937 16.653c-.23-.133-.344-.306-.344-.48s.114-.348.344-.48c.46-.264 1.204-.264 1.663 0 .23.132.345.306.345.48 0 .173-.115.347-.345.48-.46.265-1.204.265-1.663 0Z"/><path fill="#000" d="M31.85 15.906a.793.793 0 0 0-.25-.213c-.46-.264-1.204-.264-1.663 0a.797.797 0 0 0-.25.213c.055.15.164.272.306.343.429.248 1.123.248 1.552 0a.616.616 0 0 0 .305-.343Z" opacity=".25"/><path fill="#000" d="M31.744 17.177c.175-.14.058-.467-.082-.562.153-.176.07-.421-.117-.542a1.356 1.356 0 0 1-.368.141c.186.12.278.389.125.564.14.096.26.434.08.575.126.106.264.404.053.581.128-.04.249-.1.36-.176.206-.176.075-.475-.052-.581Z" opacity=".15"/><path fill="#fff" d="M29.794 17.177c-.176-.14-.059-.467.081-.562-.152-.176-.07-.421.118-.542.115.065.24.113.368.141-.187.12-.278.389-.125.564-.14.096-.264.434-.08.575-.127.106-.264.404-.054.581a1.39 1.39 0 0 1-.359-.176c-.207-.176-.075-.475.05-.581Z" opacity=".15"/><path fill="#455A64" d="M31.68 15.274c-.05-.045-.193-.393-.236-.932-.146-1.83-.145-4.188-.145-5.978h-1.062c0 1.79 0 4.136-.144 5.973-.044.541-.187.892-.238.938a.468.468 0 0 0-.184.352c0 .163.108.325.322.448.428.248 1.123.248 1.552 0 .213-.123.32-.285.32-.448a.471.471 0 0 0-.185-.353Z"/><path fill="#000" d="M31.545 15.354c-.153-.247-.264-.411-.315-1.018-.044-.56-.006-5.798 0-5.972h-.078l-.096.03c0 .843-.055 6.15.07 6.613.127.462.414.924.047 1.207.13-.028.253-.076.368-.14.21-.249.157-.472.004-.72Z" opacity=".15"/><path fill="#fff" d="M29.993 15.354c.153-.247.264-.411.314-1.018.044-.56.007-5.798 0-5.972h.074l.096.03c0 .843.056 6.15-.071 6.613-.127.462-.414.924-.046 1.207a1.331 1.331 0 0 1-.368-.14c-.205-.249-.152-.472.001-.72Z" opacity=".15"/><path fill="#000" d="M30.236 8.658a.92.92 0 0 0 1.066 0v-.293h-1.065v.293Z" opacity=".25"/><path fill="#37474F" d="M31.696 7.673a.928.928 0 1 1-1.855 0 .928.928 0 0 1 1.855 0Z"/><path fill="#000" d="M30.555 8.153a.708.708 0 0 1-.412-.457 1.039 1.039 0 0 1 .08-.733.282.282 0 0 1 .04-.067.927.927 0 1 0 1.433.777c-.104.294-.6.718-1.141.48Z" opacity=".15"/><path fill="#fff" d="M31.517 7.65c-.088.248-.12-.112-.534-.376-.338-.215-.738-.17-.52-.32.175-.122.458-.123.724.022.267.145.398.487.33.674Z" opacity=".15"/><path fill="#455A64" d="M30.703 6.469a8.278 8.278 0 0 0-.359.207c-1.278.724-2.646 1.464-3.116 2.288a3.082 3.082 0 0 0-.366.998c-.343.44-.674.88-1 1.32-.249.337-.493.673-.746 1l-.017.013c-.017.01-.026.017-.023.023.002.007 0 .018-.018.01a.291.291 0 0 1-.095-.175.993.993 0 0 1-.033-.27.828.828 0 0 1 .043-.282.034.034 0 0 0-.007-.033.032.032 0 0 0-.046 0 .788.788 0 0 0-.188.274 1.183 1.183 0 0 0-.087.33.693.693 0 0 0 .066.402.444.444 0 0 0 .088.11 9.692 9.692 0 0 1-.535.599 4.065 4.065 0 0 1-.616.528c-.216.162-.376.183-.476.106a.386.386 0 0 1-.112-.226 1.142 1.142 0 0 1-.01-.357 1.72 1.72 0 0 1 .256-.716.905.905 0 0 1 .242-.255.418.418 0 0 1 .13-.057.163.163 0 0 1 .097.01.15.15 0 0 1 .07.079c.021.05.033.104.035.16a.994.994 0 0 1-.053.371.917.917 0 0 1-.182.334.42.42 0 0 1-.135.101.132.132 0 0 1-.12 0l-.007-.005a.092.092 0 0 0-.139.09.087.087 0 0 0 .037.06.295.295 0 0 0 .145.062c.05.006.1.002.15-.012a.62.62 0 0 0 .226-.133c.119-.112.213-.248.276-.399.067-.15.104-.311.109-.475a.78.78 0 0 0-.039-.264.516.516 0 0 0-.07-.14.432.432 0 0 0-.123-.116.496.496 0 0 0-.32-.076.722.722 0 0 0-.278.088 1.27 1.27 0 0 0-.383.34 2.147 2.147 0 0 0-.387.883 1.6 1.6 0 0 0-.02.51c.012.094.038.187.075.274.042.1.106.19.185.264a.767.767 0 0 0 .616.184.994.994 0 0 0 .283-.079.997.997 0 0 0 .123-.06l.103-.06c.544-.331.968-.771 1.361-1.211.142-.161.28-.323.416-.486a1.038 1.038 0 0 0 .238-.295c.528-.648 1.025-1.307 1.553-1.936.734-.873 1.508-1.706 2.393-2.381.255-.194.519-.375.792-.541v-.978h-.002Zm-3.55 3.123c.019-.124.093-.352.352-.685.4-.51 1.005-.92 1.386-1.144a15.438 15.438 0 0 0-1.738 1.83Z"/><path fill="#455A64" d="M38.726 3.863a.704.704 0 0 0-.213-.24.545.545 0 0 0-.352-.098.715.715 0 0 0-.297.095c-.08.046-.153.1-.22.164a1.574 1.574 0 0 0-.291.406c-.078.148-.13.309-.154.474a.922.922 0 0 0 .066.528.432.432 0 0 0 .258.232.386.386 0 0 0 .33-.058.61.61 0 0 0 .188-.19.738.738 0 0 0 .097-.226.079.079 0 0 0-.04-.088.079.079 0 0 0-.095.015.889.889 0 0 1-.294.227.168.168 0 0 1-.058.013.06.06 0 0 1-.028-.006.197.197 0 0 1-.045-.063.6.6 0 0 1-.009-.321c.026-.121.072-.237.136-.343a1.17 1.17 0 0 1 .231-.284.415.415 0 0 1 .247-.121c.02 0 .04.007.056.02a.259.259 0 0 1 .063.089.727.727 0 0 1 .05.311 1.607 1.607 0 0 1-.207.704c-.117.22-.278.413-.473.568a1.689 1.689 0 0 1-.318.17 2.118 2.118 0 0 1-.708.156 1.323 1.323 0 0 0 .097-.514 1.097 1.097 0 0 0-.055-.328.604.604 0 0 0-.075-.153.216.216 0 0 0-.154-.104.029.029 0 0 0-.028.013.03.03 0 0 0 .007.044l.008.006a.134.134 0 0 1 .043.096.472.472 0 0 1 0 .127.93.93 0 0 1-.063.253 1.054 1.054 0 0 1-.115.224.882.882 0 0 1-.15.18.544.544 0 0 1-.19.105.32.32 0 0 0-.032.013c-.433-.057-.888-.159-1.366-.22-.024-.278-.115-.627-.4-.797-.512-.303-2.086.718-3.45 1.508l-.026.013v.986a6.301 6.301 0 0 1 2.134-.866 5.74 5.74 0 0 1 1.614-.055c.553.05 1.123.166 1.752.185.326.011.652-.027.967-.113a2.842 2.842 0 0 0 .675-.293 1.59 1.59 0 0 0 .218-.155c.249-.22.45-.49.587-.792a2.13 2.13 0 0 0 .214-.96c0-.187-.046-.37-.132-.537Zm-4.471 1.738c-.453-.067-1.476 0-2.053.26l-.022.006c.146-.094 1.144-.722 1.72-.651.412.05.355.385.355.385Z"/><path fill="#455A64" d="M30.703 3.642c-.545.315-.988 1.161-.988 1.891s.44 1.32.988 1.006c.549-.314.991-1.42.991-2.148 0-.728-.442-1.065-.99-.749Zm0 .37c.395-.229.714.012.714.538 0 .121-.014.242-.039.36-.046-.416-.331-.587-.675-.39-.343.199-.625.698-.673 1.166a1.335 1.335 0 0 1-.039-.312c0-.526.32-1.136.712-1.363Z"/><path fill="#407BFF" d="m30.706 4.978.312.307-.315.705-.311-.348.314-.664Z"/><path fill="#fff" d="m30.833 5.544-.1.207-.013-.568.115.12a.231.231 0 0 1-.002.241Z" opacity=".6"/><path fill="#E0E0E0" d="M5.646 15.287c.044.41-.077.71-.29.832a.528.528 0 0 1-.484 0c-.599-.26-1.137-1.144-1.202-1.983-.049-.646.139-1.115.465-1.303.202-.117.459-.126.745 0 .468.203.937.658 1.289 1.222l-.842.485s.258.18.319.747Z"/><path fill="#000" d="M5.646 15.287c.044.41-.077.71-.29.832a.528.528 0 0 1-.484 0c-.599-.26-1.137-1.144-1.202-1.983-.049-.646.139-1.115.465-1.303.202-.117.459-.126.745 0 .468.203.937.658 1.289 1.222l-.842.485s.258.18.319.747Z" opacity=".1"/><path fill="#E0E0E0" d="M21.322 6.248c-.06-.568-.318-.747-.318-.747l-15.676 9.04s.257.176.318.746c.043.41-.078.71-.29.832l15.676-9.043c.214-.124.334-.421.29-.828Z"/><path fill="#000" d="M21.322 6.248c-.06-.568-.318-.747-.318-.747l-15.676 9.04s.257.176.318.746c.043.41-.078.71-.29.832l15.676-9.043c.214-.124.334-.421.29-.828Z" opacity=".3"/><path fill="#455A64" d="M6.757 33.608V15.934c0-1.277-.941-2.693-1.877-3.1-.748-.325-1.29.259-1.21 1.304.065.835.602 1.724 1.202 1.984.48.207.845-.168.774-.835-.06-.567-.319-.746-.319-.746l-.154.225-.01-.007c.008.006.168.141.212.557.033.311-.05.49-.137.556a.25.25 0 0 1-.257 0c-.507-.22-.982-1.024-1.039-1.755-.037-.483.073-.865.295-1.023.14-.1.32-.102.535-.01.808.353 1.71 1.645 1.71 2.85v17.674a5.502 5.502 0 0 0 2.742 4.752l.137.078v-.316a5.21 5.21 0 0 1-2.604-4.514Z"/><path fill="#263238" d="m9.361 38.437 15.678-9.041v-.317L9.36 38.12v.317Z"/><path fill="#F5F5F5" d="M22.434 24.567V6.893c0-1.277-.94-2.694-1.877-3.1-.287-.124-.543-.115-.746 0L4.136 12.836c.202-.117.458-.126.745 0 .936.406 1.877 1.823 1.877 3.1v17.672A5.21 5.21 0 0 0 9.36 38.12l15.678-9.041a5.21 5.21 0 0 1-2.605-4.512Z"/><path fill="#FAFAFA" d="M20.557 3.793c-.287-.124-.543-.115-.746 0L4.136 12.836c.202-.117.458-.126.745 0 .373.162.745.483 1.056.892l15.68-9.043c-.315-.409-.688-.73-1.06-.892Z"/><path fill="#E0E0E0" d="M20.16 3.791a.925.925 0 0 1 .362.083c.861.373 1.824 1.744 1.824 3.02v17.673a5.312 5.312 0 0 0 2.52 4.51L9.36 38.017a5.137 5.137 0 0 1-2.515-4.41V15.911c-.011-1.244-.909-2.715-1.93-3.157a1.162 1.162 0 0 0-.308-.088l15.247-8.795a.603.603 0 0 1 .305-.079m0-.088a.69.69 0 0 0-.352.088L4.136 12.836a.684.684 0 0 1 .352-.088c.137.002.272.032.397.088.935.406 1.876 1.823 1.876 3.1v17.672a5.21 5.21 0 0 0 2.604 4.512l15.674-9.041a5.21 5.21 0 0 1-2.605-4.512V6.893c0-1.277-.94-2.693-1.877-3.1a1.002 1.002 0 0 0-.397-.088Z"/><path fill="#455A64" d="M8.69 14.905v-.066l.323-.187v.067l-.149.106-.025.015-.148.065Zm.387.56c.108-.063.168-.185.168-.419v-.528l.06-.035v.546c0 .299-.106.48-.263.572-.158.092-.264.043-.264-.227v-.58l.144-.083v.544c-.01.228.054.27.155.21Zm.176-.87-.114.05v-.068l.254-.146v.066l-.114.083-.026.015Zm.251.717v-.543l-.075.031v-.053l.176-.192.018.005.011.154v.521l-.13.077Zm.195-.17v.058l-.264.15v-.056l.108-.088.051-.03.105-.034Zm.254-.534v.444l-.135.078v-.434c0-.11-.022-.136-.075-.105a.463.463 0 0 0-.143.184l-.03.017v-.078l.063-.036-.043.057a.591.591 0 0 1 .211-.296c.099-.057.152-.007.152.17Zm-.04.382.106-.032v.058l-.264.152v-.058l.106-.088.052-.032Zm.235-.054v-.542l-.077.032v-.053l.193-.2.017.004v.683l-.133.075Zm.195-.17v.058l-.264.152v-.058l.108-.088.05-.03.106-.034Zm-.21-.752a.175.175 0 0 1 .08-.148c.045-.025.08-.005.08.055a.175.175 0 0 1-.08.148c-.045.025-.08.004-.08-.055Zm.324.154-.1.033v-.059l.279-.16v.058l-.114.088-.065.04Zm.076-.128.152.453-.058.147.169-.752.066-.038-.196.792-.062.036-.215-.56.144-.078Zm.264-.07-.097.034v-.06l.2-.116v.06l-.08.069-.023.013Zm.592-.163a.44.44 0 0 1-.006.081l-.405.234v-.067l.226-.13a.116.116 0 0 0 .063-.118c0-.088-.042-.122-.094-.092s-.115.137-.115.34c0 .177.066.226.158.172a.37.37 0 0 0 .14-.168l.03.019a.493.493 0 0 1-.214.287c-.148.088-.25.01-.25-.21a.615.615 0 0 1 .26-.513c.124-.072.207-.002.207.165Zm.148.03v-.243l-.075.03v-.052l.176-.193.018.005.011.17v.505l-.134.078c.003-.066.004-.212.004-.3Zm-.07.28.11-.088.067-.039.11-.034v.057l-.287.166v-.062Zm.137-.508.07-.04-.02.036c.026-.168.096-.291.159-.327.039-.023.073-.016.084.028a.163.163 0 0 1-.069.149.055.055 0 0 1-.073-.008l-.03-.027.048-.024a.669.669 0 0 0-.11.274l-.059.03v-.09Zm.33.257v-.164l.07-.04.026.162h-.055v-.053a.149.149 0 0 0 .132-.019.186.186 0 0 0 .107-.158c0-.052-.026-.067-.094-.058l-.053.007c-.08.012-.129-.024-.129-.126a.401.401 0 0 1 .202-.331.225.225 0 0 1 .159-.034l-.005.153-.07.04-.026-.145h.049v.044a.116.116 0 0 0-.11.013.164.164 0 0 0-.087.14c0 .051.02.065.093.055l.042-.007c.104-.013.145.034.145.13a.418.418 0 0 1-.224.353.255.255 0 0 1-.172.038Zm.656-.722c.043-.044.114-.112.166-.156v.056a1.52 1.52 0 0 0-.14.138.292.292 0 0 0-.093.196c0 .073.033.088.075.06.028-.016.047-.042.098-.118l.031-.051.014.017-.038.075a.458.458 0 0 1-.163.215c-.08.046-.141.02-.141-.098 0-.09.036-.18.19-.334Zm.1.202v-.34c0-.131-.023-.152-.093-.113a.443.443 0 0 0-.098.08l.058-.084-.017.12a.16.16 0 0 1-.066.137c-.034.019-.055.008-.06-.03a.432.432 0 0 1 .225-.315c.123-.072.176-.031.176.154v.309c0 .045.013.056.032.044a.097.097 0 0 0 .037-.051l.025.014a.241.241 0 0 1-.11.152c-.066.041-.104.007-.109-.077Zm.438-1.168h.017l-.005.202v.824l-.135.077v-.907l-.07.034v-.054l.193-.176Zm.088.93v.059l-.28.159v-.058l.11-.093.052-.029.118-.038Zm.304-.991v-.066l.16-.092v.088l-.015.008-.146.062Zm.16.693v.088l-.16.093v-.067l.145-.106.014-.008Zm-.07-.373v-.44l.144-.088v.947l-.144.084v-.502Zm.07.388.13-.076c.145-.088.227-.276.227-.528 0-.253-.082-.352-.22-.27l-.138.08v-.073l.154-.088c.215-.123.352-.032.352.264a.785.785 0 0 1-.373.685l-.133.079v-.073Zm1.055-.95a.44.44 0 0 1-.007.082l-.404.233v-.067l.226-.13a.118.118 0 0 0 .063-.117c0-.088-.041-.123-.094-.088-.053.034-.116.136-.116.34 0 .176.067.225.159.172.062-.04.11-.1.139-.168l.03.017a.492.492 0 0 1-.212.288c-.149.088-.251.012-.251-.21a.617.617 0 0 1 .259-.512c.125-.077.208-.01.208.16Zm.213-.066c0 .17.065.226.159.171a.345.345 0 0 0 .135-.171l.03.012a.46.46 0 0 1-.207.297c-.146.088-.251.015-.251-.212a.616.616 0 0 1 .264-.515c.104-.06.182-.02.193.084a.124.124 0 0 1-.06.097c-.039.023-.063.006-.07-.059l-.017-.103.063.02a.166.166 0 0 0-.099.023c-.074.044-.14.17-.14.356Zm.559-1.005h.016l-.004.202v.824l-.135.078V11l-.077.031v-.055l.2-.172Zm.088.931v.057l-.276.16v-.059l.11-.088.052-.029.114-.041Zm.245-.471c.045-.045.116-.111.167-.155v.054c-.05.043-.096.09-.14.138a.292.292 0 0 0-.093.196c0 .073.033.088.075.062.029-.017.047-.042.097-.12l.033-.05.013.017-.038.075a.45.45 0 0 1-.163.214c-.08.047-.141.02-.141-.097-.001-.087.036-.175.19-.334Zm.101.202v-.34c0-.131-.024-.153-.088-.114a.474.474 0 0 0-.098.08l.058-.083-.017.12a.169.169 0 0 1-.066.137c-.034.018-.055.009-.06-.03a.433.433 0 0 1 .225-.316c.123-.071.175-.03.175.154v.309c0 .046.012.057.032.046a.103.103 0 0 0 .037-.053l.025.014a.246.246 0 0 1-.11.153c-.07.042-.108.01-.114-.074l.001-.003Zm.324-.359v-.244l-.075.032v-.053l.176-.192h.017l.011.169v.506l-.134.077a7.2 7.2 0 0 0 .005-.294Zm-.07.28.109-.088.068-.038.109-.035v.058l-.29.161.004-.058Zm.137-.508.07-.04-.02.036c.025-.168.095-.291.158-.327.04-.022.073-.015.088.028a.169.169 0 0 1-.068.15.057.057 0 0 1-.074-.008l-.03-.027.047-.024a.67.67 0 0 0-.109.274l-.059.03-.003-.091Zm.509-.189c.044-.045.116-.113.168-.157v.055a1.64 1.64 0 0 0-.141.138.291.291 0 0 0-.093.197c0 .073.033.088.075.06.042-.027.048-.042.098-.118l.032-.052.013.018-.038.075a.452.452 0 0 1-.163.215c-.08.045-.14.019-.14-.098 0-.09.036-.18.19-.334Zm.101.201v-.34c0-.132-.023-.153-.092-.113a.426.426 0 0 0-.098.079l.059-.088-.018.12a.165.165 0 0 1-.067.137c-.033.02-.054.009-.06-.03a.433.433 0 0 1 .226-.315c.123-.071.175-.03.175.154v.309c0 .046.012.056.032.045a.096.096 0 0 0 .036-.052l.026.014a.24.24 0 0 1-.11.152c-.067.042-.104.012-.108-.072Zm.495-.237a.21.21 0 0 0 .065-.073l.025.022a.322.322 0 0 1-.14.176c-.087.05-.136.025-.136-.1v-.434l-.078.045v-.072l.129-.097-.052.082.05-.264.088-.05-.006.255v.448c-.001.065.022.082.055.062Zm.072-.646v.088l-.192.112v-.088l.192-.112Zm.119.61v-.542l-.077.031v-.052l.192-.2h.018v.683l-.133.08Zm.195-.17v.058l-.264.152V10.6l.109-.088.05-.03.105-.034Zm-.21-.752a.177.177 0 0 1 .08-.148c.044-.025.08-.005.08.055a.183.183 0 0 1-.08.148c-.045.025-.08.004-.08-.055Zm.278.431a.6.6 0 0 1 .256-.507c.137-.079.257-.017.257.21a.593.593 0 0 1-.257.508c-.144.083-.256.015-.256-.21Zm.374-.215c0-.195-.042-.264-.118-.223-.075.04-.118.164-.118.36 0 .196.042.264.118.22.077-.044.118-.16.118-.357Zm.282.176v-.544l-.075.03v-.051l.176-.193.017.005.011.154v.521l-.13.078Zm.195-.171v.058l-.264.151v-.058l.107-.088.052-.03.105-.033ZM19 9.38v.444l-.134.078v-.434c0-.11-.022-.136-.074-.105a.45.45 0 0 0-.145.184l-.029.017v-.078l.063-.036-.043.058a.59.59 0 0 1 .212-.297c.098-.053.15-.005.15.17Zm-.039.382.105-.033v.058l-.264.152v-.058l.107-.088.052-.031Zm.409-.489a.6.6 0 0 1 .254-.507c.136-.079.256-.017.256.21a.589.589 0 0 1-.256.508c-.142.083-.254.02-.254-.211Zm.374-.214c0-.196-.042-.264-.118-.224-.075.04-.117.164-.117.36 0 .195.04.263.117.22.078-.043.118-.16.118-.356Zm.287-.422-.078.046V8.61l.123-.088-.045.057a.826.826 0 0 1 .088-.352.43.43 0 0 1 .163-.185c.055-.031.102-.035.114.023a.147.147 0 0 1-.07.12c-.03.018-.058.01-.088-.022l-.039-.028.097-.088.018.031a.044.044 0 0 0-.039 0 .24.24 0 0 0-.084.124.867.867 0 0 0-.03.34v.613l-.133.077v-.299l.003-.296Zm.22.409v.058l-.294.17v-.059l.113-.093.065-.038.115-.038Zm.037-.642v.088l-.192.11v-.087l.192-.11Z"/><path fill="#407BFF" d="M12.496 15.343v-.253c0-.286-.081-.366-.24-.273-.108.061-.208.176-.304.39-.032-.128-.105-.154-.22-.088a.854.854 0 0 0-.293.376l-.013-.176-.028-.008-.295.319v.088l.124-.05c0 .088.005.151.005.28v.493l-.113.096v.095l.44-.25v-.097l-.105.031v-.719c.044-.09.11-.17.192-.229.092-.052.125-.006.125.185v.582l-.112.094v.096l.212-.133.103-.059.101-.059v-.096l-.107.038V15.3a.596.596 0 0 1 .194-.231c.088-.051.125-.018.125.18v.586l-.114.094v.096l.171-.1.155-.087.103-.06v-.096l-.106.033v-.371Zm.958-.176c-.032.02-.053 0-.053-.075v-.513c0-.306-.088-.374-.293-.256a.72.72 0 0 0-.373.528c.01.063.044.081.1.048a.27.27 0 0 0 .11-.227l.02-.14a.474.474 0 0 1 .075-.051c.114-.066.154-.03.154.189v.067a4.528 4.528 0 0 0-.168.16c-.255.258-.316.405-.316.554 0 .195.1.24.234.163.112-.064.169-.161.256-.33.02.1.08.13.176.077a.404.404 0 0 0 .181-.255l-.041-.023a.176.176 0 0 1-.064.085l.002-.001Zm-.264.03c-.076.118-.108.16-.154.186-.07.04-.123.02-.123-.102a.486.486 0 0 1 .153-.325 2.27 2.27 0 0 1 .124-.128v.37Zm-3.593.75-.142.082v.11l.144-.061v.565l-.477.275v-.57l.143-.102v-.111l-.24.139-.14.081-.145.084v.11l.146-.063v1.296l-.146.106v.11l.285-.165.099-.057.141-.08v-.112l-.143.063v-.606l.477-.275v.609l-.144.104v.11l.217-.125.164-.094.144-.084v-.11l-.146.063v-1.295l.146-.105v-.11l-.308.175-.075.044Zm6.878-3.789a.3.3 0 0 0 .133-.244c0-.1-.059-.134-.133-.088a.297.297 0 0 0-.134.245c.001.095.06.131.135.088Zm-5.578 3.81.005-.334-.023-.011-.301.228v.088l.11-.032-.005.677a.66.66 0 0 1-.2.25c-.079.045-.12.009-.12-.168v-.386l.01-.335-.023-.011-.308.226v.088l.113-.031-.005.583c0 .312.092.37.238.285a.816.816 0 0 0 .3-.39l.014.198.301-.195v-.096l-.106.031v-.664Zm8.927-5.049-.07.012c-.12.016-.156-.007-.156-.088a.27.27 0 0 1 .15-.233.214.214 0 0 1 .11-.034l.03.176.116-.067.01-.253a.38.38 0 0 0-.264.056.668.668 0 0 0-.336.55c0 .169.08.229.213.21l.088-.013c.114-.016.156.01.156.097a.306.306 0 0 1-.176.264.264.264 0 0 1-.137.042l-.032-.197-.119.068v.272c.1.013.2-.01.285-.065a.694.694 0 0 0 .37-.578c.002-.162-.066-.24-.238-.218Zm-.64.933c-.056.032-.094 0-.094-.113v-.694l.214-.123v-.143l-.212.123.007-.33-.142.082-.067.361-.146.107v.121l.13-.076v.721c0 .207.088.248.226.166a.528.528 0 0 0 .232-.287l-.042-.036a.361.361 0 0 1-.106.121Zm-2.6 1.13v-.31l.006-.332-.029-.008-.318.332v.088l.126-.052c0 .093.005.165.005.294v.48l-.115.098v.096l.44-.253v-.096l-.107.033a6.07 6.07 0 0 1-.008-.37Zm1.999-1.155v-.245c0-.29-.088-.369-.241-.28a.847.847 0 0 0-.302.383v-.42l.007-.336-.027-.006-.314.287v.088l.127-.05v1.38l-.115.095v.096l.113-.064.222-.129.1-.058v-.096l-.102.031v-.702a.643.643 0 0 1 .204-.253c.088-.05.121-.008.121.176v.592l-.112.094v.097l.44-.252v-.097l-.106.034a3.033 3.033 0 0 1-.016-.365Zm-2.59 1.55c-.035-.185-.096-.252-.249-.194a.747.747 0 0 0 .31-.564c0-.252-.157-.311-.43-.153l-.15.088-.236.138-.146.088v.11l.148-.064v1.297l-.148.106v.11l.528-.306v-.11l-.15.065v-.585l.075-.044c.126-.073.176-.051.206.108l.053.296c.02.136.088.144.217.069a.782.782 0 0 0 .16-.121v-.11l-.134.057-.055-.282Zm-.417-.157-.104.06v-.602l.114-.065c.163-.094.24-.04.24.153a.508.508 0 0 1-.25.454Zm1.848-1.286c-.058-.03-.143-.017-.25.045a.674.674 0 0 0-.343.581c0 .148.05.232.139.242a.782.782 0 0 0-.128.357c0 .088.035.128.11.12a.557.557 0 0 0-.16.347c0 .157.098.225.37.067.314-.176.476-.474.476-.696 0-.197-.088-.27-.322-.136l-.219.125c-.079.046-.102.021-.102-.038.001-.05.012-.1.033-.147a.672.672 0 0 0 .488-.636.342.342 0 0 0-.038-.177l.176-.099v-.165l-.027-.008-.203.218Zm-.427 1.348a.551.551 0 0 0 .115-.053l.197-.113c.111-.065.154-.016.154.071 0 .117-.098.264-.283.373-.15.088-.231.073-.231-.074 0-.07.013-.14.042-.204h.006Zm.176-.64c-.095.055-.144-.026-.144-.195s.054-.312.15-.366c.094-.055.146.023.146.189s-.063.314-.16.372h.008Zm-2.69 1.557v-.245c0-.29-.088-.37-.24-.281a.842.842 0 0 0-.3.379l-.012-.176-.029-.008-.294.32v.088l.124-.05c0 .087.006.15.006.28V15l-.114.096v.096l.435-.252v-.096l-.104.032v-.72a.617.617 0 0 1 .198-.232c.088-.051.123-.01.123.176v.591l-.128.094v.097l.435-.252v-.096l-.106.033a25.781 25.781 0 0 1-.003-.367h.009Z"/><path fill="#000" d="M12.496 15.343v-.253c0-.286-.081-.366-.24-.273-.108.061-.208.176-.304.39-.032-.128-.105-.154-.22-.088a.854.854 0 0 0-.293.376l-.013-.176-.028-.008-.295.319v.088l.124-.05c0 .088.005.151.005.28v.493l-.113.096v.095l.44-.25v-.097l-.105.031v-.719c.044-.09.11-.17.192-.229.092-.052.125-.006.125.185v.582l-.112.094v.096l.212-.133.103-.059.101-.059v-.096l-.107.038V15.3a.596.596 0 0 1 .194-.231c.088-.051.125-.018.125.18v.586l-.114.094v.096l.171-.1.155-.087.103-.06v-.096l-.106.033v-.371Zm.958-.176c-.032.02-.053 0-.053-.075v-.513c0-.306-.088-.374-.293-.256a.72.72 0 0 0-.373.528c.01.063.044.081.1.048a.27.27 0 0 0 .11-.227l.02-.14a.474.474 0 0 1 .075-.051c.114-.066.154-.03.154.189v.067a4.528 4.528 0 0 0-.168.16c-.255.258-.316.405-.316.554 0 .195.1.24.234.163.112-.064.169-.161.256-.33.02.1.08.13.176.077a.404.404 0 0 0 .181-.255l-.041-.023a.176.176 0 0 1-.064.085l.002-.001Zm-.264.03c-.076.118-.108.16-.154.186-.07.04-.123.02-.123-.102a.486.486 0 0 1 .153-.325 2.27 2.27 0 0 1 .124-.128v.37Zm-3.593.75-.142.082v.11l.144-.061v.565l-.477.275v-.57l.143-.102v-.111l-.24.139-.14.081-.145.084v.11l.146-.063v1.296l-.146.106v.11l.285-.165.099-.057.141-.08v-.112l-.143.063v-.606l.477-.275v.609l-.144.104v.11l.217-.125.164-.094.144-.084v-.11l-.146.063v-1.295l.146-.105v-.11l-.308.175-.075.044Zm6.878-3.789a.3.3 0 0 0 .133-.244c0-.1-.059-.134-.133-.088a.297.297 0 0 0-.134.245c.001.095.06.131.135.088Zm-5.578 3.81.005-.334-.023-.011-.301.228v.088l.11-.032-.005.677a.66.66 0 0 1-.2.25c-.079.045-.12.009-.12-.168v-.386l.01-.335-.023-.011-.308.226v.088l.113-.031-.005.583c0 .312.092.37.238.285a.816.816 0 0 0 .3-.39l.014.198.301-.195v-.096l-.106.031v-.664Zm8.927-5.049-.07.012c-.12.016-.156-.007-.156-.088a.27.27 0 0 1 .15-.233.214.214 0 0 1 .11-.034l.03.176.116-.067.01-.253a.38.38 0 0 0-.264.056.668.668 0 0 0-.336.55c0 .169.08.229.213.21l.088-.013c.114-.016.156.01.156.097a.306.306 0 0 1-.176.264.264.264 0 0 1-.137.042l-.032-.197-.119.068v.272c.1.013.2-.01.285-.065a.694.694 0 0 0 .37-.578c.002-.162-.066-.24-.238-.218Zm-.64.933c-.056.032-.094 0-.094-.113v-.694l.214-.123v-.143l-.212.123.007-.33-.142.082-.067.361-.146.107v.121l.13-.076v.721c0 .207.088.248.226.166a.528.528 0 0 0 .232-.287l-.042-.036a.361.361 0 0 1-.106.121Zm-2.6 1.13v-.31l.006-.332-.029-.008-.318.332v.088l.126-.052c0 .093.005.165.005.294v.48l-.115.098v.096l.44-.253v-.096l-.107.033a6.07 6.07 0 0 1-.008-.37Zm1.999-1.155v-.245c0-.29-.088-.369-.241-.28a.847.847 0 0 0-.302.383v-.42l.007-.336-.027-.006-.314.287v.088l.127-.05v1.38l-.115.095v.096l.113-.064.222-.129.1-.058v-.096l-.102.031v-.702a.643.643 0 0 1 .204-.253c.088-.05.121-.008.121.176v.592l-.112.094v.097l.44-.252v-.097l-.106.034a3.033 3.033 0 0 1-.016-.365Zm-2.59 1.55c-.035-.185-.096-.252-.249-.194a.747.747 0 0 0 .31-.564c0-.252-.157-.311-.43-.153l-.15.088-.236.138-.146.088v.11l.148-.064v1.297l-.148.106v.11l.528-.306v-.11l-.15.065v-.585l.075-.044c.126-.073.176-.051.206.108l.053.296c.02.136.088.144.217.069a.782.782 0 0 0 .16-.121v-.11l-.134.057-.055-.282Zm-.417-.157-.104.06v-.602l.114-.065c.163-.094.24-.04.24.153a.508.508 0 0 1-.25.454Zm1.848-1.286c-.058-.03-.143-.017-.25.045a.674.674 0 0 0-.343.581c0 .148.05.232.139.242a.782.782 0 0 0-.128.357c0 .088.035.128.11.12a.557.557 0 0 0-.16.347c0 .157.098.225.37.067.314-.176.476-.474.476-.696 0-.197-.088-.27-.322-.136l-.219.125c-.079.046-.102.021-.102-.038.001-.05.012-.1.033-.147a.672.672 0 0 0 .488-.636.342.342 0 0 0-.038-.177l.176-.099v-.165l-.027-.008-.203.218Zm-.427 1.348a.551.551 0 0 0 .115-.053l.197-.113c.111-.065.154-.016.154.071 0 .117-.098.264-.283.373-.15.088-.231.073-.231-.074 0-.07.013-.14.042-.204h.006Zm.176-.64c-.095.055-.144-.026-.144-.195s.054-.312.15-.366c.094-.055.146.023.146.189s-.063.314-.16.372h.008Zm-2.69 1.557v-.245c0-.29-.088-.37-.24-.281a.842.842 0 0 0-.3.379l-.012-.176-.029-.008-.294.32v.088l.124-.05c0 .087.006.15.006.28V15l-.114.096v.096l.435-.252v-.096l-.104.032v-.72a.617.617 0 0 1 .198-.232c.088-.051.123-.01.123.176v.591l-.128.094v.097l.435-.252v-.096l-.106.033a25.781 25.781 0 0 1-.003-.367h.009Z" opacity=".2"/><path fill="#E0E0E0" d="m21.04 22.546-13.024 7.51a.132.132 0 0 0-.015.219.132.132 0 0 0 .146.01l13.024-7.51a.131.131 0 0 0-.03-.24.133.133 0 0 0-.101.01Zm0 .89-13.024 7.51a.132.132 0 0 0 .066.246.124.124 0 0 0 .065-.018l13.024-7.51a.132.132 0 0 0-.132-.229Zm0-1.78-13.024 7.51a.132.132 0 0 0 .13.229l13.025-7.51a.13.13 0 0 0 .048-.176.134.134 0 0 0-.18-.053ZM8.085 20.46a.124.124 0 0 0 .065-.018l13.024-7.51a.131.131 0 0 0 .065-.131.132.132 0 0 0-.197-.097l-13.024 7.51a.132.132 0 0 0 .066.246h.001Zm12.955 3.866L8.016 31.835a.132.132 0 0 0 .13.229l13.025-7.51a.132.132 0 0 0-.132-.228Zm0-4.413-13.024 7.51a.132.132 0 0 0 .13.23l13.025-7.51a.132.132 0 0 0-.132-.23Zm0 5.302-13.024 7.51a.132.132 0 0 0 .13.228l13.025-7.509a.132.132 0 0 0-.132-.229Zm0-10.736L8.016 21.99a.132.132 0 0 0 .13.23l13.025-7.51a.132.132 0 0 0-.132-.23Zm0 1.872-13.024 7.51a.13.13 0 0 0-.065.13.132.132 0 0 0 .196.098L21.17 16.58a.132.132 0 0 0-.132-.229Zm0 2.67L8.016 26.53a.132.132 0 0 0 .066.246.126.126 0 0 0 .065-.019L21.17 19.25a.132.132 0 0 0-.132-.229Zm0-5.431L8.016 21.1a.132.132 0 0 0 .13.229l13.025-7.51a.132.132 0 0 0-.132-.23Zm0 3.651L8.016 24.75a.132.132 0 0 0-.049.176.129.129 0 0 0 .115.066.124.124 0 0 0 .065-.018l13.024-7.509a.132.132 0 0 0-.132-.228v.004Zm0 .89L8.016 25.64a.132.132 0 0 0 .13.229l13.025-7.51a.133.133 0 0 0-.032-.242.133.133 0 0 0-.1.014Z"/><path fill="#407BFF" d="M19.968 27.622a.535.535 0 0 0-.131.337c-.005.096.012.191.008.287a2.75 2.75 0 0 1-.065.352 1.008 1.008 0 0 0 .22.848c.09.088.186.17.287.247.132.113.243.253.399.335.15.08.32.114.488.099.273-.025.517-.176.774-.272.113-.036.224-.08.332-.13a.837.837 0 0 0 .419-.497c.041-.176-.022-.352-.03-.528a5.046 5.046 0 0 0-.039-.38c-.034-.252-.088-.548-.304-.705-.08-.058-.177-.088-.26-.141-.195-.12-.323-.336-.527-.436a.765.765 0 0 0-.59 0c-.201.074-.352.234-.54.317a1.222 1.222 0 0 0-.441.267Z"/><path fill="#407BFF" d="M20.139 28.29a1.22 1.22 0 0 0 .466 1.187c.528.394 1.352.269 1.658-.34.242-.48.044-1.127-.327-1.49-.287-.282-.926-.346-1.263-.116-.27.175-.46.447-.534.76Z"/><path fill="#fff" d="M20.103 28.6a1.218 1.218 0 0 0 .747 1.033c.612.25 1.376-.076 1.521-.74.115-.529-.237-1.104-.687-1.364-.352-.2-.984-.103-1.252.202a1.245 1.245 0 0 0-.329.869Z" opacity=".1"/><path fill="#000" d="M22.215 29.595c-.11.044-.23.059-.344.096a1.575 1.575 0 0 0-.304.15 1.02 1.02 0 0 1-.239.091.753.753 0 0 1-.553-.063c-.232-.126-.383-.339-.588-.5-.271-.212-.457-.51-.385-.88a1.59 1.59 0 0 0-.022.108 1.009 1.009 0 0 0 .22.848c.09.088.186.17.287.247.132.113.243.254.399.335.15.08.32.114.488.1.273-.026.517-.177.774-.273.113-.036.224-.08.332-.13a.837.837 0 0 0 .419-.497.588.588 0 0 0 .012-.167c-.073.323-.264.444-.495.535Z" opacity=".25"/><path fill="#000" d="M22.515 28.776a1.037 1.037 0 0 1-.088.302.645.645 0 0 1-.322.303.998.998 0 0 0 .264-.49c.115-.529-.238-1.103-.688-1.363-.352-.2-.984-.103-1.252.204-.014.016-.03.033-.043.051a.699.699 0 0 1 .165-.235.799.799 0 0 1 .148-.095 1.6 1.6 0 0 1 .378-.163.93.93 0 0 1 .544.046c.175.07.333.173.467.305a1.344 1.344 0 0 1 .427 1.135Z" opacity=".1"/><path fill="#407BFF" d="M21.954 28.527a17.612 17.612 0 0 1-.273-.154.236.236 0 0 1-.024-.018.52.52 0 0 1 .088.024.32.32 0 0 0 .153.02.38.38 0 0 0 .06-.017v-.01a1.187 1.187 0 0 1-.333-.103.051.051 0 0 1 .022-.004h.12a.245.245 0 0 0 .2-.088.104.104 0 0 0 .026-.067.572.572 0 0 1-.34.025c.047-.015.087-.024.131-.04a.21.21 0 0 0 .108-.074c-.093.025-.189.04-.285.043a.278.278 0 0 1 .048-.02.352.352 0 0 0 .147-.072.18.18 0 0 0 .054-.143.592.592 0 0 1-.27.104c.04-.038.078-.071.113-.106a.184.184 0 0 0 .059-.132.458.458 0 0 1-.176.155.487.487 0 0 1 .036-.047.292.292 0 0 0 .075-.197v-.036l-.012-.018a.123.123 0 0 0-.023.026.38.38 0 0 1-.157.152 6.783 6.783 0 0 0-.187.127.073.073 0 0 0-.032.076.06.06 0 0 0 .063.05.046.046 0 0 1 .042.026.16.16 0 0 1-.042.2.075.075 0 0 1-.094.01.38.38 0 0 1-.138-.187c0-.005.004-.018.01-.023.025-.022.051-.042.077-.063a.192.192 0 0 0 .02-.025c-.046.006-.077.05-.132.047a.12.12 0 0 1 .02-.023c.036-.023.074-.043.11-.067a.211.211 0 0 0 .043-.045s0-.014-.005-.021a.126.126 0 0 0-.018.01.493.493 0 0 1-.046.04c-.022.015-.047.025-.07.039a.155.155 0 0 0-.015.01l-.014.01v-.005l.098-.088a.04.04 0 0 0-.06-.03c-.015.006-.026.016-.04.022-.014.007-.031.02-.046.018-.035 0-.055.018-.075.041l-.082.088-.013.016a.127.127 0 0 1 .083.153c.032-.006.038 0 .035.031-.002.03 0 .04.026.044.008 0 .016.016.019.027l.015.072c0 .004 0 .01-.005.016-.066-.026-.088-.057-.088-.1-.062-.025-.062-.025-.044-.06a.13.13 0 0 1-.11-.13l-.135.057a.137.137 0 0 0-.044.03c-.026.027-.048.06-.072.087a.06.06 0 0 0 0 .079c.036-.022.064-.06.115-.064-.033.03-.064.052-.088.08-.024.027-.028.03-.05.028 0 0-.014.008-.014.01 0 .003 0 .016.008.017a.05.05 0 0 0 .03 0 .14.14 0 0 0 .032-.023l.108-.093c0-.005.014 0 .02-.005.008-.004 0 .016-.005.02-.021.023-.043.043-.066.064a.182.182 0 0 0-.015.021h.028l.088-.053a.027.027 0 0 1 .02-.008.026.026 0 0 1 .02.008c.051.053.088.12.105.193a.088.088 0 0 1-.017.061.132.132 0 0 1-.195.022c-.023-.02-.047-.04-.025-.08a.048.048 0 0 0-.014-.064.07.07 0 0 0-.088-.006 1.22 1.22 0 0 0-.113.088.708.708 0 0 1-.23.148c-.021.007-.043.011-.07.018a.144.144 0 0 0 .13.055c.06-.01.119-.026.177-.039-.032.023-.063.049-.096.069-.034.02-.069.033-.103.05.1.023.176-.04.259-.088a.528.528 0 0 1-.186.224.153.153 0 0 0 .153 0 .456.456 0 0 0 .125-.125l.027-.038a1.034 1.034 0 0 1-.141.264l.01.008a.885.885 0 0 0 .096-.088.988.988 0 0 0 .078-.112c0 .13-.073.223-.14.325a.182.182 0 0 0 .155-.061.433.433 0 0 0 .088-.17l.022-.073h.007c.004.122-.006.244-.03.363.01-.008.02-.011.023-.018a.266.266 0 0 0 .043-.08c.011-.06.015-.119.022-.176v-.036a.16.16 0 0 1 .014.05c.012.077.029.154.034.232a.986.986 0 0 1-.01.168.26.26 0 0 1-.022.058.193.193 0 0 0 .145-.164.659.659 0 0 0 0-.253l-.03-.176a.135.135 0 0 0-.005-.016h.014a.57.57 0 0 1 .102.352.122.122 0 0 0 .037-.1c-.01-.067-.022-.133-.032-.204a.23.23 0 0 1 .088.132.276.276 0 0 1-.023.165h.006l.047-.044c0 .037-.005.066-.008.096a.026.026 0 0 1-.022.028.295.295 0 0 0-.072.037.054.054 0 0 0 0 .088c.044-.046.044-.046.058-.045-.02.046-.036.088.008.128a.055.055 0 0 0 .071 0 .558.558 0 0 1-.03-.047v-.027c.008 0 .016.002.023.006.016.008.029.02.046.029a.062.062 0 0 0 .088-.058h-.001a.077.077 0 0 1-.08-.03.077.077 0 0 1-.013-.029.02.02 0 0 1 0-.012.083.083 0 0 1 .114-.024.13.13 0 0 0 0-.035.062.062 0 0 0-.035-.039.063.063 0 0 0-.053 0l-.035.012c.006-.039.01-.073.017-.112l.064.035c.009-.054-.03-.102-.014-.157.105.165.156.36.147.555a.241.241 0 0 0 .045-.042.33.33 0 0 0 .017-.296.183.183 0 0 1 .076.176l.115.006.04-.12c-.077-.01-.112-.064-.14-.134l.015.01c.06.05.134.08.212.088a.15.15 0 0 0 .102-.039.866.866 0 0 1-.452-.334c.06.007.088.061.141.07 0-.026-.007-.048-.01-.064l.108.009a.264.264 0 0 0-.035.054.1.1 0 0 0 0 .058c.006.015.025.023.04.035l.006-.011v-.008a.057.057 0 0 1 .025-.065c.045-.037.045-.037.073.012a.055.055 0 0 1 0 .073.026.026 0 0 0-.004.014.027.027 0 0 0 .014.007.075.075 0 0 0 .067-.077.437.437 0 0 0-.016-.058c0-.006-.006-.018 0-.02a.026.026 0 0 1 .02-.005.12.12 0 0 1 .028.021c.007.008.011.018.019.028a.073.073 0 0 0 .023-.073c-.022-.05-.07-.042-.12-.044a.167.167 0 0 1 .032-.03.122.122 0 0 1 .037-.006c-.014-.043-.042-.057-.078-.035a.44.44 0 0 0-.056.051c-.006.006-.012.016-.018.017a.196.196 0 0 1-.102-.02.756.756 0 0 0 .048-.033v-.006a.284.284 0 0 1-.153-.034.293.293 0 0 1-.082-.134c.024.01.046.023.066.039.04.034.088.059.14.072a.054.054 0 0 0 .064-.017.527.527 0 0 1-.29-.233.237.237 0 0 1 .05.023c.077.045.153.096.234.136a.32.32 0 0 0 .242.018.088.088 0 0 0 .064-.076.198.198 0 0 1-.149 0Z" opacity=".4"/><path fill="#000" d="M21.954 28.527a17.612 17.612 0 0 1-.273-.154.236.236 0 0 1-.024-.018.52.52 0 0 1 .088.024.32.32 0 0 0 .153.02.38.38 0 0 0 .06-.017v-.01a1.187 1.187 0 0 1-.333-.103.051.051 0 0 1 .022-.004h.12a.245.245 0 0 0 .2-.088.104.104 0 0 0 .026-.067.572.572 0 0 1-.34.025c.047-.015.087-.024.131-.04a.21.21 0 0 0 .108-.074c-.093.025-.189.04-.285.043a.278.278 0 0 1 .048-.02.352.352 0 0 0 .147-.072.18.18 0 0 0 .054-.143.592.592 0 0 1-.27.104c.04-.038.078-.071.113-.106a.184.184 0 0 0 .059-.132.458.458 0 0 1-.176.155.487.487 0 0 1 .036-.047.292.292 0 0 0 .075-.197v-.036l-.012-.018a.123.123 0 0 0-.023.026.38.38 0 0 1-.157.152 6.783 6.783 0 0 0-.187.127.073.073 0 0 0-.032.076.06.06 0 0 0 .063.05.046.046 0 0 1 .042.026.16.16 0 0 1-.042.2.075.075 0 0 1-.094.01.38.38 0 0 1-.138-.187c0-.005.004-.018.01-.023.025-.022.051-.042.077-.063a.192.192 0 0 0 .02-.025c-.046.006-.077.05-.132.047a.12.12 0 0 1 .02-.023c.036-.023.074-.043.11-.067a.211.211 0 0 0 .043-.045s0-.014-.005-.021a.126.126 0 0 0-.018.01.493.493 0 0 1-.046.04c-.022.015-.047.025-.07.039a.155.155 0 0 0-.015.01l-.014.01v-.005l.098-.088a.04.04 0 0 0-.06-.03c-.015.006-.026.016-.04.022-.014.007-.031.02-.046.018-.035 0-.055.018-.075.041l-.082.088-.013.016a.127.127 0 0 1 .083.153c.032-.006.038 0 .035.031-.002.03 0 .04.026.044.008 0 .016.016.019.027l.015.072c0 .004 0 .01-.005.016-.066-.026-.088-.057-.088-.1-.062-.025-.062-.025-.044-.06a.13.13 0 0 1-.11-.13l-.135.057a.137.137 0 0 0-.044.03c-.026.027-.048.06-.072.087a.06.06 0 0 0 0 .079c.036-.022.064-.06.115-.064-.033.03-.064.052-.088.08-.024.027-.028.03-.05.028 0 0-.014.008-.014.01 0 .003 0 .016.008.017a.05.05 0 0 0 .03 0 .14.14 0 0 0 .032-.023l.108-.093c0-.005.014 0 .02-.005.008-.004 0 .016-.005.02-.021.023-.043.043-.066.064a.182.182 0 0 0-.015.021h.028l.088-.053a.027.027 0 0 1 .02-.008.026.026 0 0 1 .02.008c.051.053.088.12.105.193a.088.088 0 0 1-.017.061.132.132 0 0 1-.195.022c-.023-.02-.047-.04-.025-.08a.048.048 0 0 0-.014-.064.07.07 0 0 0-.088-.006 1.22 1.22 0 0 0-.113.088.708.708 0 0 1-.23.148c-.021.007-.043.011-.07.018a.144.144 0 0 0 .13.055c.06-.01.119-.026.177-.039-.032.023-.063.049-.096.069-.034.02-.069.033-.103.05.1.023.176-.04.259-.088a.528.528 0 0 1-.186.224.153.153 0 0 0 .153 0 .456.456 0 0 0 .125-.125l.027-.038a1.034 1.034 0 0 1-.141.264l.01.008a.885.885 0 0 0 .096-.088.988.988 0 0 0 .078-.112c0 .13-.073.223-.14.325a.182.182 0 0 0 .155-.061.433.433 0 0 0 .088-.17l.022-.073h.007c.004.122-.006.244-.03.363.01-.008.02-.011.023-.018a.266.266 0 0 0 .043-.08c.011-.06.015-.119.022-.176v-.036a.16.16 0 0 1 .014.05c.012.077.029.154.034.232a.986.986 0 0 1-.01.168.26.26 0 0 1-.022.058.193.193 0 0 0 .145-.164.659.659 0 0 0 0-.253l-.03-.176a.135.135 0 0 0-.005-.016h.014a.57.57 0 0 1 .102.352.122.122 0 0 0 .037-.1c-.01-.067-.022-.133-.032-.204a.23.23 0 0 1 .088.132.276.276 0 0 1-.023.165h.006l.047-.044c0 .037-.005.066-.008.096a.026.026 0 0 1-.022.028.295.295 0 0 0-.072.037.054.054 0 0 0 0 .088c.044-.046.044-.046.058-.045-.02.046-.036.088.008.128a.055.055 0 0 0 .071 0 .558.558 0 0 1-.03-.047v-.027c.008 0 .016.002.023.006.016.008.029.02.046.029a.062.062 0 0 0 .088-.058h-.001a.077.077 0 0 1-.08-.03.077.077 0 0 1-.013-.029.02.02 0 0 1 0-.012.083.083 0 0 1 .114-.024.13.13 0 0 0 0-.035.062.062 0 0 0-.035-.039.063.063 0 0 0-.053 0l-.035.012c.006-.039.01-.073.017-.112l.064.035c.009-.054-.03-.102-.014-.157.105.165.156.36.147.555a.241.241 0 0 0 .045-.042.33.33 0 0 0 .017-.296.183.183 0 0 1 .076.176l.115.006.04-.12c-.077-.01-.112-.064-.14-.134l.015.01c.06.05.134.08.212.088a.15.15 0 0 0 .102-.039.866.866 0 0 1-.452-.334c.06.007.088.061.141.07 0-.026-.007-.048-.01-.064l.108.009a.264.264 0 0 0-.035.054.1.1 0 0 0 0 .058c.006.015.025.023.04.035l.006-.011v-.008a.057.057 0 0 1 .025-.065c.045-.037.045-.037.073.012a.055.055 0 0 1 0 .073.026.026 0 0 0-.004.014.027.027 0 0 0 .014.007.075.075 0 0 0 .067-.077.437.437 0 0 0-.016-.058c0-.006-.006-.018 0-.02a.026.026 0 0 1 .02-.005.12.12 0 0 1 .028.021c.007.008.011.018.019.028a.073.073 0 0 0 .023-.073c-.022-.05-.07-.042-.12-.044a.167.167 0 0 1 .032-.03.122.122 0 0 1 .037-.006c-.014-.043-.042-.057-.078-.035a.44.44 0 0 0-.056.051c-.006.006-.012.016-.018.017a.196.196 0 0 1-.102-.02.756.756 0 0 0 .048-.033v-.006a.284.284 0 0 1-.153-.034.293.293 0 0 1-.082-.134c.024.01.046.023.066.039.04.034.088.059.14.072a.054.054 0 0 0 .064-.017.527.527 0 0 1-.29-.233.237.237 0 0 1 .05.023c.077.045.153.096.234.136a.32.32 0 0 0 .242.018.088.088 0 0 0 .064-.076.198.198 0 0 1-.149 0Z" opacity=".2"/><path fill="#407BFF" d="M21.966 28.468c-.092-.048-.182-.102-.272-.154a.26.26 0 0 1-.025-.018.517.517 0 0 1 .093.024.32.32 0 0 0 .152.02.38.38 0 0 0 .06-.017v-.01a1.193 1.193 0 0 1-.332-.103.051.051 0 0 1 .023-.004h.118a.247.247 0 0 0 .201-.088.104.104 0 0 0 .026-.067.572.572 0 0 1-.34.026c.046-.015.088-.025.13-.042a.211.211 0 0 0 .11-.073c-.093.025-.19.039-.286.043a.257.257 0 0 1 .049-.02.34.34 0 0 0 .146-.072.181.181 0 0 0 .055-.143.597.597 0 0 1-.27.104l.113-.106a.186.186 0 0 0 .058-.132.458.458 0 0 1-.176.155c.011-.017.024-.031.036-.047a.287.287 0 0 0 .074-.197v-.036l-.011-.018a.12.12 0 0 0-.023.026.377.377 0 0 1-.158.152 8.87 8.87 0 0 0-.187.127.074.074 0 0 0-.031.076.06.06 0 0 0 .062.05.046.046 0 0 1 .041.026.158.158 0 0 1-.04.2.075.075 0 0 1-.094.01.387.387 0 0 1-.14-.187c0-.005.006-.018.011-.023l.078-.063a.142.142 0 0 0 .019-.025c-.046.006-.077.05-.131.047a.117.117 0 0 1 .02-.023c.036-.023.074-.043.11-.066a.21.21 0 0 0 .042-.046s0-.014-.005-.021l-.018.01a.375.375 0 0 1-.045.04c-.023.015-.047.025-.07.039a.176.176 0 0 0-.016.01l-.014.01v-.004l.099-.088a.04.04 0 0 0-.06-.03c-.014.005-.026.015-.04.022-.013.006-.031.019-.045.017-.036 0-.055.018-.075.041-.02.024-.056.059-.083.088a.125.125 0 0 0-.012.016.124.124 0 0 1 .082.154c.032-.007.038 0 .036.03-.003.031 0 .039.025.044.008 0 .016.016.02.027.003.01.01.047.014.072a.069.069 0 0 1-.005.016c-.066-.026-.088-.057-.088-.1-.061-.025-.061-.025-.044-.06a.13.13 0 0 1-.109-.13l-.135.057a.15.15 0 0 0-.045.03c-.026.028-.048.06-.072.087a.062.062 0 0 0 0 .079c.036-.022.064-.061.115-.064-.035.03-.064.052-.093.08-.015.015-.027.03-.05.029-.004 0-.013.007-.013.01 0 .002 0 .015.008.016.01.004.02.004.03 0a.125.125 0 0 0 .033-.022c.036-.03.07-.063.108-.093.004-.005.013 0 .02-.005.007-.004 0 .016-.006.02-.021.023-.044.043-.065.064a.178.178 0 0 0-.016.021h.028a1.18 1.18 0 0 0 .093-.059.027.027 0 0 1 .02 0 .393.393 0 0 1 .114.199.088.088 0 0 1-.016.062.132.132 0 0 1-.095.06.13.13 0 0 1-.107-.036c-.023-.02-.047-.04-.026-.08a.047.047 0 0 0-.014-.064.069.069 0 0 0-.088-.006 1.07 1.07 0 0 0-.113.088.711.711 0 0 1-.23.148c-.021.007-.043.011-.07.017a.144.144 0 0 0 .13.056c.06-.01.119-.026.177-.04-.033.024-.064.05-.097.07a1.124 1.124 0 0 1-.103.05c.101.023.176-.04.26-.088a.528.528 0 0 1-.186.223.15.15 0 0 0 .152 0 .446.446 0 0 0 .126-.125.577.577 0 0 1 .027-.038 1.058 1.058 0 0 1-.141.269l.01.008a.885.885 0 0 0 .096-.088c.028-.036.054-.073.078-.112.004.13-.074.223-.14.325a.182.182 0 0 0 .155-.061.431.431 0 0 0 .088-.17l.023-.073h.007c.004.122-.007.244-.03.363.01-.007.019-.01.023-.018a.307.307 0 0 0 .043-.08c.01-.059.014-.119.02-.176l.006-.036a.175.175 0 0 1 .014.05c.011.078.028.154.034.232a.909.909 0 0 1-.011.168.25.25 0 0 1-.02.058.213.213 0 0 0 .152-.165.643.643 0 0 0 0-.253l-.028-.176-.006-.017h.014a.57.57 0 0 1 .102.352.121.121 0 0 0 .037-.1l-.033-.204a.23.23 0 0 1 .09.133.284.284 0 0 1-.023.166h.006l.047-.045c0 .037-.005.067-.008.097a.026.026 0 0 1-.022.027.282.282 0 0 0-.072.037.055.055 0 0 0-.023.044.054.054 0 0 0 .023.044c.044-.046.044-.046.059-.045-.02.046-.037.088.008.128a.055.055 0 0 0 .07 0 .39.39 0 0 1-.03-.047v-.027a.06.06 0 0 1 .024.006c.015.009.029.02.045.028a.06.06 0 0 0 .06-.003.06.06 0 0 0 .028-.053h-.007a.076.076 0 0 1-.088-.06.02.02 0 0 1 0-.012.083.083 0 0 1 .113-.023.188.188 0 0 0 0-.036.065.065 0 0 0-.035-.038.066.066 0 0 0-.053 0l-.034.011.016-.112.064.035c.01-.054-.028-.102-.013-.157.105.165.156.36.146.555a.226.226 0 0 0 .046-.042.33.33 0 0 0 .017-.296.182.182 0 0 1 .075.176l.116.007.039-.12c-.076-.012-.111-.064-.14-.136l.017.01c.06.05.133.081.21.089a.15.15 0 0 0 .103-.039.866.866 0 0 1-.451-.334c.06.007.087.061.14.07 0-.026-.007-.047-.01-.064l.107.009a.306.306 0 0 0-.034.054.095.095 0 0 0 0 .058c.006.015.025.023.04.036l.006-.012v-.008a.057.057 0 0 1 .025-.065c.046-.037.045-.037.074.012a.055.055 0 0 1 0 .073s-.006.013-.005.015c.005.003.01.006.015.006a.075.075 0 0 0 .067-.077.453.453 0 0 0-.016-.058c0-.006-.006-.018 0-.02.005-.001.015-.007.02-.005a.12.12 0 0 1 .028.021.147.147 0 0 1 .018.028.074.074 0 0 0 .024-.073c-.022-.05-.07-.042-.12-.043.015-.014.022-.026.032-.031a.13.13 0 0 1 .038-.005c-.015-.044-.042-.058-.078-.036a.439.439 0 0 0-.056.051c-.007.007-.012.016-.018.017a.194.194 0 0 1-.102-.02l.048-.033v.001a.283.283 0 0 1-.153-.033.294.294 0 0 1-.082-.135.25.25 0 0 1 .065.039.34.34 0 0 0 .141.072.053.053 0 0 0 .063-.017.528.528 0 0 1-.289-.233.206.206 0 0 1 .048.023c.079.046.154.097.235.136a.321.321 0 0 0 .243.018.088.088 0 0 0 .064-.076.2.2 0 0 1-.153-.014Z"/><path fill="#fff" d="M21.966 28.468c-.092-.048-.182-.102-.272-.154a.26.26 0 0 1-.025-.018.517.517 0 0 1 .093.024.32.32 0 0 0 .152.02.38.38 0 0 0 .06-.017v-.01a1.193 1.193 0 0 1-.332-.103.051.051 0 0 1 .023-.004h.118a.247.247 0 0 0 .201-.088.104.104 0 0 0 .026-.067.572.572 0 0 1-.34.026c.046-.015.088-.025.13-.042a.211.211 0 0 0 .11-.073c-.093.025-.19.039-.286.043a.257.257 0 0 1 .049-.02.34.34 0 0 0 .146-.072.181.181 0 0 0 .055-.143.597.597 0 0 1-.27.104l.113-.106a.186.186 0 0 0 .058-.132.458.458 0 0 1-.176.155c.011-.017.024-.031.036-.047a.287.287 0 0 0 .074-.197v-.036l-.011-.018a.12.12 0 0 0-.023.026.377.377 0 0 1-.158.152 8.87 8.87 0 0 0-.187.127.074.074 0 0 0-.031.076.06.06 0 0 0 .062.05.046.046 0 0 1 .041.026.158.158 0 0 1-.04.2.075.075 0 0 1-.094.01.387.387 0 0 1-.14-.187c0-.005.006-.018.011-.023l.078-.063a.142.142 0 0 0 .019-.025c-.046.006-.077.05-.131.047a.117.117 0 0 1 .02-.023c.036-.023.074-.043.11-.066a.21.21 0 0 0 .042-.046s0-.014-.005-.021l-.018.01a.375.375 0 0 1-.045.04c-.023.015-.047.025-.07.039a.176.176 0 0 0-.016.01l-.014.01v-.004l.099-.088a.04.04 0 0 0-.06-.03c-.014.005-.026.015-.04.022-.013.006-.031.019-.045.017-.036 0-.055.018-.075.041-.02.024-.056.059-.083.088a.125.125 0 0 0-.012.016.124.124 0 0 1 .082.154c.032-.007.038 0 .036.03-.003.031 0 .039.025.044.008 0 .016.016.02.027.003.01.01.047.014.072a.069.069 0 0 1-.005.016c-.066-.026-.088-.057-.088-.1-.061-.025-.061-.025-.044-.06a.13.13 0 0 1-.109-.13l-.135.057a.15.15 0 0 0-.045.03c-.026.028-.048.06-.072.087a.062.062 0 0 0 0 .079c.036-.022.064-.061.115-.064-.035.03-.064.052-.093.08-.015.015-.027.03-.05.029-.004 0-.013.007-.013.01 0 .002 0 .015.008.016.01.004.02.004.03 0a.125.125 0 0 0 .033-.022c.036-.03.07-.063.108-.093.004-.005.013 0 .02-.005.007-.004 0 .016-.006.02-.021.023-.044.043-.065.064a.178.178 0 0 0-.016.021h.028a1.18 1.18 0 0 0 .093-.059.027.027 0 0 1 .02 0 .393.393 0 0 1 .114.199.088.088 0 0 1-.016.062.132.132 0 0 1-.095.06.13.13 0 0 1-.107-.036c-.023-.02-.047-.04-.026-.08a.047.047 0 0 0-.014-.064.069.069 0 0 0-.088-.006 1.07 1.07 0 0 0-.113.088.711.711 0 0 1-.23.148c-.021.007-.043.011-.07.017a.144.144 0 0 0 .13.056c.06-.01.119-.026.177-.04-.033.024-.064.05-.097.07a1.124 1.124 0 0 1-.103.05c.101.023.176-.04.26-.088a.528.528 0 0 1-.186.223.15.15 0 0 0 .152 0 .446.446 0 0 0 .126-.125.577.577 0 0 1 .027-.038 1.058 1.058 0 0 1-.141.269l.01.008a.885.885 0 0 0 .096-.088c.028-.036.054-.073.078-.112.004.13-.074.223-.14.325a.182.182 0 0 0 .155-.061.431.431 0 0 0 .088-.17l.023-.073h.007c.004.122-.007.244-.03.363.01-.007.019-.01.023-.018a.307.307 0 0 0 .043-.08c.01-.059.014-.119.02-.176l.006-.036a.175.175 0 0 1 .014.05c.011.078.028.154.034.232a.909.909 0 0 1-.011.168.25.25 0 0 1-.02.058.213.213 0 0 0 .152-.165.643.643 0 0 0 0-.253l-.028-.176-.006-.017h.014a.57.57 0 0 1 .102.352.121.121 0 0 0 .037-.1l-.033-.204a.23.23 0 0 1 .09.133.284.284 0 0 1-.023.166h.006l.047-.045c0 .037-.005.067-.008.097a.026.026 0 0 1-.022.027.282.282 0 0 0-.072.037.055.055 0 0 0-.023.044.054.054 0 0 0 .023.044c.044-.046.044-.046.059-.045-.02.046-.037.088.008.128a.055.055 0 0 0 .07 0 .39.39 0 0 1-.03-.047v-.027a.06.06 0 0 1 .024.006c.015.009.029.02.045.028a.06.06 0 0 0 .06-.003.06.06 0 0 0 .028-.053h-.007a.076.076 0 0 1-.088-.06.02.02 0 0 1 0-.012.083.083 0 0 1 .113-.023.188.188 0 0 0 0-.036.065.065 0 0 0-.035-.038.066.066 0 0 0-.053 0l-.034.011.016-.112.064.035c.01-.054-.028-.102-.013-.157.105.165.156.36.146.555a.226.226 0 0 0 .046-.042.33.33 0 0 0 .017-.296.182.182 0 0 1 .075.176l.116.007.039-.12c-.076-.012-.111-.064-.14-.136l.017.01c.06.05.133.081.21.089a.15.15 0 0 0 .103-.039.866.866 0 0 1-.451-.334c.06.007.087.061.14.07 0-.026-.007-.047-.01-.064l.107.009a.306.306 0 0 0-.034.054.095.095 0 0 0 0 .058c.006.015.025.023.04.036l.006-.012v-.008a.057.057 0 0 1 .025-.065c.046-.037.045-.037.074.012a.055.055 0 0 1 0 .073s-.006.013-.005.015c.005.003.01.006.015.006a.075.075 0 0 0 .067-.077.453.453 0 0 0-.016-.058c0-.006-.006-.018 0-.02.005-.001.015-.007.02-.005a.12.12 0 0 1 .028.021.147.147 0 0 1 .018.028.074.074 0 0 0 .024-.073c-.022-.05-.07-.042-.12-.043.015-.014.022-.026.032-.031a.13.13 0 0 1 .038-.005c-.015-.044-.042-.058-.078-.036a.439.439 0 0 0-.056.051c-.007.007-.012.016-.018.017a.194.194 0 0 1-.102-.02l.048-.033v.001a.283.283 0 0 1-.153-.033.294.294 0 0 1-.082-.135.25.25 0 0 1 .065.039.34.34 0 0 0 .141.072.053.053 0 0 0 .063-.017.528.528 0 0 1-.289-.233.206.206 0 0 1 .048.023c.079.046.154.097.235.136a.321.321 0 0 0 .243.018.088.088 0 0 0 .064-.076.2.2 0 0 1-.153-.014Z" opacity=".4"/><path fill="#455A64" d="M19.383 29.897c-.163.071-.312.17-.44.293a.06.06 0 0 1-.014-.047c0-.049-.088-.064-.088-.012a.814.814 0 0 1-.088.279.593.593 0 0 1-.182.219.168.168 0 0 1-.117.034.061.061 0 0 1-.038-.037c.157-.19.324-.426.302-.68-.009-.087-.053-.263-.176-.245-.053.009-.076.055-.097.1a1.547 1.547 0 0 0-.137.67c0 .045.005.09.015.136a.685.685 0 0 1-.112.108.154.154 0 0 1-.144.034.098.098 0 0 1-.06-.071c0-.018.005-.035.008-.054 0-.043-.07-.062-.088-.024a.124.124 0 0 0-.011.066.44.44 0 0 1-.025.081.635.635 0 0 1-.039-.254c0-.048-.088-.064-.088-.011a1.718 1.718 0 0 1-.258.717c-.022.025-.034.02-.048-.007a.352.352 0 0 1-.024-.15 1.557 1.557 0 0 1 .005-.215c.01-.058.018-.117.023-.176v-.011c.005-.045-.087-.063-.095-.015-.008.048-.019.12-.025.183a2.593 2.593 0 0 1-.282.816.406.406 0 0 1-.05-.176 1.554 1.554 0 0 0 .088-.452c0-.05-.082-.056-.098-.013a1.28 1.28 0 0 0-.087.44 1.5 1.5 0 0 1-.58.738.77.77 0 0 1-.361.145.272.272 0 0 1-.283-.161.575.575 0 0 1-.016-.202c0-.077.006-.155.013-.231v-.03c.38-.157.721-.397.997-.703.18-.2.391-.458.405-.74.013-.24-.175-.482-.44-.44a.803.803 0 0 0-.366.207 1.525 1.525 0 0 0-.253.299c-.16.255-.279.533-.352.825-.04.15-.07.303-.088.457l-.005.044a3.021 3.021 0 0 1-.298.107c-.04.013 0 .069.03.061.087-.021.173-.047.258-.078a1.899 1.899 0 0 0-.01.338.336.336 0 0 0 .206.294.509.509 0 0 0 .378 0c.273-.109.506-.298.668-.544.046-.068.087-.14.123-.213a.41.41 0 0 0 .08.125c.021.023.067.036.089 0 .102-.175.184-.362.244-.556.026.079.092.159.183.113a.335.335 0 0 0 .111-.149 1.69 1.69 0 0 0 .154-.385c.013.039.03.076.05.113.013.021.062.04.079.01a.764.764 0 0 0 .047-.098.227.227 0 0 0 .099.05c.116.024.213-.057.285-.138a.146.146 0 0 0 .094.051c.132.02.244-.088.316-.185a.88.88 0 0 0 .141-.297.187.187 0 0 0 .035.018.048.048 0 0 0 .052-.01c.128-.127.277-.23.44-.305.046-.014-.016-.073-.055-.056Zm-3.64 1.401c.057-.27.15-.53.277-.775.108-.224.272-.415.477-.554.108-.067.244-.124.357-.037a.364.364 0 0 1 .13.292.758.758 0 0 1-.14.382c-.066.102-.14.2-.22.293a2.755 2.755 0 0 1-.932.693 3.28 3.28 0 0 1 .05-.294Zm2.667-1.075c.017-.108.047-.214.088-.316.01-.028.035-.12.068-.119.033.001.056.105.06.137.027.204-.096.403-.212.558l-.014.018a1.548 1.548 0 0 1 .01-.278Zm-3.413 2.027c-.17.254-.459.388-.72.524l-.482.248-.128.066c-.033.018-.059.025-.074.06-.032.071-.061.143-.092.216a.831.831 0 0 1-.191-.198c-.016-.022-.07-.024-.071.01-.007.084-.077.684-.239.582a.322.322 0 0 1-.088-.124.998.998 0 0 1-.116-.416v-.097c0-.033-.08-.064-.081-.016-.002.047 0 .073 0 .11a5.129 5.129 0 0 1-.131 1.244 2.431 2.431 0 0 1-.12.416c-.022.048-.054.105-.11.116-.057.01-.119-.052-.15-.1a1.872 1.872 0 0 1-.165-.357 3.619 3.619 0 0 1-.15-.5.374.374 0 0 0 .393-.013.64.64 0 0 0 .206-.32 3.175 3.175 0 0 0 .087-1.471.704.704 0 0 0-.157-.375.346.346 0 0 0-.322-.101c-.141.035-.176.183-.219.306a3.756 3.756 0 0 0-.09 1.879.403.403 0 0 1-.011.152.138.138 0 0 1-.176.101.203.203 0 0 1-.128-.116 2.31 2.31 0 0 0 0-.38c0-.037-.076-.066-.088-.021a.732.732 0 0 0-.01.387v.01a2.213 2.213 0 0 1-.17.665.503.503 0 0 1-.122.192c-.057.051-.138.084-.176-.007a.97.97 0 0 1-.044-.264 2.23 2.23 0 0 1-.008-.136c-.002-.047 0-.111 0-.167 0-.055-.088-.06-.088-.009v.168c-.017.502-.19.986-.497 1.385a3.978 3.978 0 0 1-.176-.722 2.65 2.65 0 0 0 .41-1.232c.018-.234 0-.47-.052-.7a.048.048 0 0 0-.042-.032c-.16-.009-.25.136-.294.27-.06.191-.1.387-.121.586a4.04 4.04 0 0 0 .008 1.086 2.483 2.483 0 0 1-.808.775c-.03.02.012.067.04.052.315-.17.586-.41.792-.704l.005.031c.042.232.104.459.186.68a.049.049 0 0 0 .036.03.049.049 0 0 0 .045-.014c.265-.318.446-.698.526-1.104a.18.18 0 0 0 .245.14c.13-.051.194-.187.244-.308a2.22 2.22 0 0 0 .145-.547.307.307 0 0 0 .141.08.209.209 0 0 0 .24-.1 3.906 3.906 0 0 0 .22.61c.05.109.115.249.243.282.129.034.213-.073.252-.182a5.08 5.08 0 0 0 .238-1.323c.04.105.103.243.213.28.109.036.191-.078.225-.176.041-.122.07-.248.083-.375a.84.84 0 0 0 .19.163c.017.012.05.018.061-.008l.054-.127a.614.614 0 0 1 .054-.128.326.326 0 0 1 .114-.067l.117-.06.49-.254c.254-.132.516-.27.68-.515.019-.034-.052-.07-.076-.036Zm-4.84 1.446c.017-.09.044-.18.08-.264a.241.241 0 0 1 .143-.143 2.49 2.49 0 0 1-.299 1.745c-.05-.447-.023-.9.078-1.338h-.002Zm1.79-1.594c.035-.112.068-.272.21-.285a.284.284 0 0 1 .27.192c.05.127.079.26.088.395a3.118 3.118 0 0 1-.032.951c-.023.15-.065.296-.126.434a.358.358 0 0 1-.28.227.198.198 0 0 1-.224-.16.03.03 0 0 0-.01-.017 3.725 3.725 0 0 1 .105-1.736h-.001Z"/><path fill="#37474F" d="M5.426 37.01c-.712-.41-1.867-.41-2.579 0-.352.205-.532.475-.528.744v.307c0 .27.176.54.528.745.712.411 1.867.411 2.579 0 .356-.206.533-.475.528-.745v-.309c.004-.264-.172-.537-.528-.742Z"/><path fill="#000" d="M5.426 37.01c-.712-.41-1.867-.41-2.579 0-.352.205-.532.475-.528.744v.307c0 .27.176.54.528.745.712.411 1.867.411 2.579 0 .356-.206.533-.475.528-.745v-.309c.004-.264-.172-.537-.528-.742Z" opacity=".2"/><path fill="#000" d="M3.294 36.82a2.1 2.1 0 0 0-.447.19c-.352.205-.532.474-.528.744v.307c0 .27.176.54.528.745.141.08.291.144.447.19V36.82Z" opacity=".2"/><path fill="#37474F" d="M2.847 37.01c.712-.41 1.867-.41 2.578 0 .712.411.712 1.078 0 1.488-.711.411-1.866.411-2.578 0-.712-.41-.712-1.077 0-1.488Z"/><path fill="#000" d="M2.847 37.01c.712-.41 1.867-.41 2.578 0 .712.411.712 1.078 0 1.488-.711.411-1.866.411-2.578 0-.712-.41-.712-1.077 0-1.488Z" opacity=".4"/><path fill="#37474F" d="M4.136 36.3c-1.743 0-1.968.75-1.968 1.135 0 .387.235.709.72.99a2.54 2.54 0 0 0 1.248.295 2.54 2.54 0 0 0 1.246-.296c.486-.281.721-.602.721-.99 0-.387-.225-1.135-1.967-1.135Z"/><path fill="#455A64" d="m4.786 37.87-.033.004c-.13.018-.368 0-.473.104-.176.17.067.319.22.366.257.07.53.045.77-.07.205-.092.38-.24.504-.429.046-.08.136-.317.017-.372a.163.163 0 0 0-.188.047c-.058.048-.12.091-.185.13a1.421 1.421 0 0 1-.176.103c-.146.06-.3.1-.456.117Z"/><path fill="#000" d="M3.923 37.645c1.028.092 1.75-.318 2.003-.758-.226-.307-.724-.588-1.79-.588-1.744 0-1.97.75-1.97 1.136 0 .387.236.709.721.99a2.54 2.54 0 0 0 1.25.295 2.54 2.54 0 0 0 1.245-.296c.104-.06.203-.127.297-.203-.366.255-.973.445-1.76.331-.788-.113-1.069-1.004.004-.907Z" opacity=".1"/><path fill="#000" d="m3.296 37.324-.095-.93c-.896.214-1.034.742-1.034 1.041 0 .387.235.709.72.99l.048.024c-.536-.345-.207-1.29.36-1.125Z" opacity=".1"/><path fill="#37474F" d="M5.146 35.77c-.558-.32-1.462-.32-2.02 0-.278.161-.416.373-.416.584v.316c0 .211.137.422.417.583.557.322 1.46.322 2.019 0 .278-.16.417-.372.416-.583v-.316c0-.211-.138-.422-.417-.584Z"/><path fill="#000" d="M5.146 35.77c-.558-.32-1.462-.32-2.02 0-.278.161-.416.373-.416.584v.316c0 .211.137.422.417.583.557.322 1.46.322 2.019 0 .278-.16.417-.372.416-.583v-.316c0-.211-.138-.422-.417-.584Z" opacity=".2"/><path fill="#000" d="M3.127 37.253c.097.056.2.1.305.135V35.64c-.107.034-.21.08-.309.135-.279.16-.417.372-.417.583v.316c.003.207.141.418.42.58Z" opacity=".2"/><path fill="#455A64" d="M3.127 35.77c.557-.32 1.461-.32 2.019 0 .557.322.557.844 0 1.166-.558.322-1.462.322-2.02 0-.556-.322-.557-.843 0-1.166Z"/><path fill="#37474F" d="M5.016 34.496c.153-1.561.59-3.276.461-4.423 0-.017 0-.035-.005-.053-.005-.017 0-.024 0-.036a1.345 1.345 0 0 0-2.661 0v.036c0 .012-.004.036-.006.053-.129 1.144.31 2.862.461 4.423.076.774-.176 1.463-.176 1.786 0 .155.103.311.308.43.41.237 1.077.237 1.488 0 .206-.119.308-.275.308-.43-.002-.32-.253-1.008-.178-1.786Z"/><path fill="#000" d="M3.08 36.284c0 .156.103.312.308.43.323.186.803.226 1.193.12-.663.096-.933-.394-.708-1.124.44-1.415.082-2.277-.29-3.882-.214-.93-.351-1.723-.14-2.276.152-.402.542-.709.937-.687a1.347 1.347 0 0 0-1.578 1.122v.036c0 .012-.004.035-.006.053-.129 1.144.31 2.862.461 4.423.074.774-.177 1.463-.177 1.785Z" opacity=".1"/><path fill="#000" d="M2.806 29.987v.036c0 .012-.005.035-.007.053-.128 1.144.31 2.862.462 4.423.075.774-.176 1.463-.176 1.785 0 .156.102.312.308.43l.064.033c-.248-.318-.103-.677.164-1.577.268-.9-.182-2.566-.499-3.696-.316-1.13-.14-1.97.27-2.404a1.346 1.346 0 0 0-.586.917Z" opacity=".1"/><path fill="#455A64" d="M4.266 29.137a.44.44 0 0 0-.208.12.484.484 0 0 0-.068.49c.06.163.21.272.34.38l.24.2a.984.984 0 0 0 .209.147c.137.067.312.056.391-.092a.47.47 0 0 0 .045-.217 1.139 1.139 0 0 0-.27-.742c-.153-.181-.433-.352-.679-.286Zm.719 1.515a.196.196 0 0 0-.083.142.236.236 0 0 0 .033.207.164.164 0 0 0 .176.035.222.222 0 0 0 .123-.142.229.229 0 0 0-.02-.187.17.17 0 0 0-.229-.055Z"/><path fill="#E0E0E0" d="M23.86 33.176c.688-.352.975-.504 1.143-.669.168-.164.254-.243.588-.309.334-.066.952-.153 1.017-.203-.01-.036.055-.05.095.013.04.065 0 .114-.04.088 0 0-.071 0-.28.33-.209.329-.186.364-.29.61-.081.195-.168.213-.375.295-.267.108-.523.24-.766.396-.376.224-.552.336-.552.336l-.54-.887Z"/><path fill="#000" d="m26.268 32.208.138-.061c.1-.044.198-.088.293-.141a.081.081 0 0 0-.063-.039.179.179 0 0 1-.029.023v.008a.224.224 0 0 1-.066.025l-.029.01c-.297.114-.596.228-.88.366a.388.388 0 0 1-.102.038c-.038.007-.077 0-.115.008a.094.094 0 0 0-.082.07c-.017.138.226.008.264-.008.152-.066.301-.139.453-.206.069-.037.145-.065.218-.093Z" opacity=".15"/><path fill="#EBEBEB" d="M25.591 32.197c-.334.066-.419.145-.588.309-.169.163-.455.32-1.144.668l.036.059s.704-.372.8-.425c.157-.076.3-.18.42-.306a.704.704 0 0 1 .342-.242c.145-.056.73-.168.862-.193-.224.043-.527.09-.728.13Z"/><path fill="#000" d="m24.35 33.327.938-.54-.597.468-.34.072Zm2.176-1.11a4.818 4.818 0 0 1-.393.406c-.162.14-.356.153-.528.158-.172.005-.454.227-.898.467l.07.58.175-.106c.242-.156.499-.289.766-.396.207-.082.294-.1.375-.295.104-.247.081-.284.29-.61a1.96 1.96 0 0 1 .143-.204Z" opacity=".15"/><path fill="#E0E0E0" d="M26.107 33a.53.53 0 0 1-.082.155c-.146.072-.334.088-.5.147-.246.119-.487.25-.72.394l-.027-.243c.377-.194.616-.367.804-.4.07-.012.157-.021.243-.039-.124.055-.277.07-.368.17a.642.642 0 0 1 .145-.047c.177-.037.304-.034.44-.1a.379.379 0 0 0 .065-.037Z" opacity=".3"/><path fill="#455A64" d="M26.703 32.007a.109.109 0 0 0-.017-.018c-.141.059-.841.352-1.172.522-.007 0-.023-.01-.03-.012a.12.12 0 0 0-.055-.008.15.15 0 0 0-.055.025.047.047 0 0 0-.015.046c.003.011.01.021.02.029.026.026.06.046.095.058a.245.245 0 0 0 .05.016c.02 0 .04-.004.058-.014.018-.008.04-.025.04-.045a.064.064 0 0 0-.031-.049c-.006-.004-.029-.029-.038-.024.315-.16.974-.44 1.154-.515-.002-.004-.001-.007-.004-.011Z"/><path fill="#407BFF" d="m24.084 32.831.06.106a.488.488 0 0 0-.02.142.997.997 0 0 0 .45.781.508.508 0 0 0 .133.054l.061.104.165-.155a.351.351 0 0 0 .093-.264.996.996 0 0 0-.451-.782.343.343 0 0 0-.274-.05l-.217.064Z"/><path fill="#000" d="m24.084 32.831.06.106a.488.488 0 0 0-.02.142.997.997 0 0 0 .45.781.508.508 0 0 0 .133.054l.061.104.165-.155a.351.351 0 0 0 .093-.264.996.996 0 0 0-.451-.782.343.343 0 0 0-.274-.05l-.217.064Z" opacity=".15"/><path fill="#407BFF" d="M19.549 35.674a1.083 1.083 0 0 0 .49.849.346.346 0 0 0 .347.034l4.335-2.501c.088-.051.143-.161.143-.318a1.086 1.086 0 0 0-.49-.848.347.347 0 0 0-.346-.034l-4.336 2.503a.345.345 0 0 0-.143.315Z"/><path fill="#fff" d="M19.549 35.674a1.083 1.083 0 0 0 .49.849.346.346 0 0 0 .347.034l4.335-2.501c.088-.051.143-.161.143-.318a1.086 1.086 0 0 0-.49-.848.347.347 0 0 0-.346-.034l-4.336 2.503a.345.345 0 0 0-.143.315Z" opacity=".5"/><path fill="#407BFF" d="M20.53 36.24a1.083 1.083 0 0 0-.49-.848.298.298 0 0 0-.49.282 1.083 1.083 0 0 0 .49.849.299.299 0 0 0 .49-.283Z"/><path fill="#407BFF" d="M19.195 35.791a1.25 1.25 0 0 0 .566.98c.156.088.297.099.4.04l.37-.213c.101-.06.165-.187.165-.367a1.249 1.249 0 0 0-.565-.979c-.157-.088-.298-.099-.4-.04l-.37.213c-.102.06-.166.186-.166.367Z"/><path fill="#fff" d="M19.195 35.791a1.25 1.25 0 0 0 .566.98c.156.088.297.099.4.04l.37-.213c.101-.06.165-.187.165-.367a1.249 1.249 0 0 0-.565-.979c-.157-.088-.298-.099-.4-.04l-.37.213c-.102.06-.166.186-.166.367Z" opacity=".35"/><path fill="#407BFF" d="M20.328 36.444a1.248 1.248 0 0 0-.567-.98c-.157-.088-.297-.098-.4-.04-.102.06-.166.186-.166.367a1.25 1.25 0 0 0 .566.98c.156.087.297.098.4.039.102-.06.167-.185.167-.366Z"/><path fill="#407BFF" d="M14.344 38.611a1.213 1.213 0 0 0 .55.952c.151.088.288.096.389.039l4.806-2.776c.1-.057.161-.18.161-.352a1.215 1.215 0 0 0-.55-.953c-.152-.088-.29-.096-.389-.038l-4.806 2.775c-.1.055-.161.178-.161.353Z"/><path fill="#fff" d="M14.344 38.611a1.213 1.213 0 0 0 .55.952c.151.088.288.096.389.039l4.806-2.776c.1-.057.161-.18.161-.352a1.215 1.215 0 0 0-.55-.953c-.152-.088-.29-.096-.389-.038l-4.806 2.775c-.1.055-.161.178-.161.353Z" opacity=".35"/><path fill="#407BFF" d="M14.505 38.255a.779.779 0 1 0 .778 1.345c.1-.057.16-.176.16-.352a1.215 1.215 0 0 0-.55-.953c-.152-.088-.289-.096-.388-.038v-.002Z"/><path fill="#263238" d="M15.111 37.508v.17l.479.277 3.138-1.811a.183.183 0 0 0 .11-.153v-.169a.163.163 0 0 0-.095-.134.545.545 0 0 0-.495.01l-3.137 1.81Z"/><path fill="#37474F" d="M18.728 35.974c.142-.081.149-.21.016-.286a.545.545 0 0 0-.495.01l-3.138 1.81.48.277 3.137-1.811Z"/><path fill="#455A64" d="M15.59 38.338v-.553l-.479-.277v.554l.48.276Z"/><path fill="#263238" d="m15.59 38.338.12-.068v-.554l-.12.07v.552Z"/><path fill="#455A64" d="M14.004 39.153a.25.25 0 0 0 .25.434l.22-.127a.125.125 0 0 0 .051-.114.394.394 0 0 0-.176-.307.124.124 0 0 0-.125-.013l-.218.127h-.002Z"/><path fill="#37474F" d="M14.344 39.039a.124.124 0 0 0-.125-.013l-.218.127a.247.247 0 0 0-.125.209c.012-.07.116-.13.237-.2.122-.069.227-.077.338.098.081.127.028.19-.006.214l.025-.014a.125.125 0 0 0 .052-.114.394.394 0 0 0-.178-.307Zm22.363-6.859c-1.98-1.144-5.192-1.144-7.17 0-.99.571-1.482 1.32-1.48 2.07v.775c0 .749.49 1.496 1.48 2.07 1.98 1.144 5.192 1.144 7.17 0 .99-.572 1.482-1.32 1.48-2.07v-.775c.005-.75-.49-1.499-1.48-2.07Z"/><path fill="#455A64" d="M33.122 37.178c2.8 0 5.07-1.311 5.07-2.928s-2.27-2.928-5.07-2.928c-2.8 0-5.07 1.31-5.07 2.928 0 1.617 2.27 2.928 5.07 2.928Z"/><path fill="#37474F" d="M35.854 31.706c-1.51-.872-3.956-.872-5.464 0-.755.435-1.13 1.006-1.128 1.577v.514c0 .57.373 1.144 1.128 1.577 1.508.872 3.955.872 5.464 0 .754-.44 1.13-1.006 1.128-1.578v-.513c.001-.57-.374-1.142-1.128-1.577Z"/><path fill="#455A64" d="M33.122 35.513c2.134 0 3.864-.998 3.864-2.23 0-1.233-1.73-2.231-3.864-2.231s-3.864.998-3.864 2.23c0 1.233 1.73 2.231 3.864 2.231Z"/><path fill="#37474F" d="M35.477 27.715c-.853-.493-1.584-.297-1.869.405-.055.135-.264.647-.317.773-.073.19-.108.394-.104.598 0 1.027.721 2.275 1.61 2.788.175.106.37.177.571.21l.822.11c.754.105 1.29-.429 1.29-1.416 0-1.277-.897-2.83-2.003-3.468Z"/><path fill="#263238" d="M34.797 28.56c-.889-.513-1.61-.096-1.61.93 0 1.028.721 2.276 1.61 2.79.889.512 1.61.096 1.61-.93s-.72-2.276-1.61-2.79Z"/><path fill="#407BFF" d="M32.771 28.696c.314-.176.744-.153 1.22.121.958.553 1.737 1.895 1.737 3.001 0 .553-.194.94-.508 1.12l-3.012 1.754c-.313.182-.745.157-1.224-.12-.957-.551-1.732-1.895-1.732-3 0-.552.195-.94.508-1.12.107-.06 2.906-1.695 3.011-1.756Z"/><path fill="#fff" d="M32.771 28.696c.314-.176.744-.153 1.22.121.958.553 1.737 1.895 1.737 3.001 0 .553-.194.94-.508 1.12l-3.012 1.754c-.313.182-.745.157-1.224-.12-.957-.551-1.732-1.895-1.732-3 0-.552.195-.94.508-1.12.107-.06 2.906-1.695 3.011-1.756Z" opacity=".3"/><path fill="#407BFF" d="m30.134 33.82 5.368-3.117c.142.355.219.733.226 1.115 0 .553-.194.939-.508 1.12l-3.012 1.754c-.313.182-.745.157-1.224-.12a3.15 3.15 0 0 1-.85-.753Z" opacity=".45"/><path fill="#263238" d="M30.987 30.571c-.957-.552-1.732-.105-1.732 1 0 1.104.775 2.449 1.732 3 .956.553 1.732.105 1.732-.999s-.775-2.449-1.732-3Z"/><path fill="#37474F" d="M32.083 33.846c0-1.026-.72-2.275-1.61-2.79a1.555 1.555 0 0 0-.61-.213c-.006 0-.684-.077-.83-.095-.742-.088-1.267.44-1.267 1.42 0 1.276.897 2.829 2.003 3.468.842.486 1.563.3 1.858-.38l.34-.78c.081-.2.121-.414.116-.63Z"/><path fill="#455A64" d="M29.769 31.011c-1.106-.639-2.003-.12-2.003 1.156 0 1.277.897 2.83 2.003 3.468 1.106.64 2 .121 2-1.156s-.895-2.83-2-3.468Z"/><path fill="#37474F" d="M27.766 32.167c.005.6.149 1.191.42 1.726a4.548 4.548 0 0 0 1.079 1.426c.227.198.483.36.76.481.069.031.14.056.214.076l.11.03c.037.008.075.012.112.018a1.063 1.063 0 0 0 .862-.216c.029-.024.055-.052.083-.079l.04-.04.034-.046.067-.088.053-.1a1.81 1.81 0 0 0 .17-.872l-.015.222-.035.22c-.021.07-.037.143-.062.213l-.042.102a.532.532 0 0 1-.022.05l-.027.047-.054.096-.068.088-.033.043-.04.038c-.026.025-.052.051-.08.074a.994.994 0 0 1-.39.176 1.456 1.456 0 0 1-.85-.116 2.88 2.88 0 0 1-.737-.475 4.62 4.62 0 0 1-1.075-1.393 4.492 4.492 0 0 1-.327-.824 3.514 3.514 0 0 1-.147-.877Zm5.938.99a.868.868 0 0 1 .541-.57.277.277 0 0 1 .276.037l1.58 1.496a.275.275 0 0 1 .051.273.869.869 0 0 1-.54.571.276.276 0 0 1-.277-.039l-1.579-1.496a.274.274 0 0 1-.052-.272Z"/><path fill="#263238" d="M33.76 33.433a.274.274 0 0 1-.054-.275.754.754 0 0 1 .135-.27l2.035 1.93a.745.745 0 0 1-.264.148.276.276 0 0 1-.276-.039l-1.579-1.496.003.002Z"/><path fill="#407BFF" d="M40.527 37.855 36.37 34.19h-.004a.362.362 0 0 0-.352-.045 1.132 1.132 0 0 0-.704.742c-.038.159-.009.284.07.358l3.852 3.994a.946.946 0 1 0 1.296-1.38l-.002-.005Z"/><path fill="#000" d="M40.543 37.869a.46.46 0 0 1-.645.655L35.6 34.4c-.14.132-.241.3-.293.484-.038.158-.01.283.07.357l3.852 3.995a.948.948 0 1 0 1.316-1.366l-.002-.002Z" opacity=".2"/></svg>