<svg xmlns="http://www.w3.org/2000/svg" width="53" height="53" fill="none"><path fill="#E0E0E0" d="m17.56 46.735.392.233a.507.507 0 0 0 .459 0l25.547-14.744a.14.14 0 0 0 0-.265l-.393-.231a.508.508 0 0 0-.459 0L17.56 46.47a.14.14 0 0 0 0 .265ZM12.392 43.76l.392.231a.507.507 0 0 0 .459 0L38.789 29.25a.14.14 0 0 0 0-.265l-.392-.232a.508.508 0 0 0-.46 0L12.392 43.494a.14.14 0 0 0-.07.214.14.14 0 0 0 .07.051ZM7.223 40.782l.392.234a.507.507 0 0 0 .46 0L33.62 26.272a.14.14 0 0 0 0-.265l-.392-.232a.508.508 0 0 0-.459 0L7.223 40.517a.14.14 0 0 0 0 .265ZM7.601 36.291c.031-.013.127-2.093-.767-3.319-.895-1.225-1.98-1.368-2.694-1.066-.713.302-.566 1.028.312 1.467.878.439 1.97 1.206 2.226 2.604l.923.314Z"/><path fill="#fff" d="M7.272 35.682a.066.066 0 0 1-.066-.056c-.336-2.114-1.59-3.149-2.642-3.414a.067.067 0 0 1-.049-.08.068.068 0 0 1 .082-.049c1.098.275 2.394 1.344 2.74 3.521a.067.067 0 0 1-.054.077h-.01Z"/><path fill="#E6E6E6" d="M7.44 40.155c-.136-.55-.689-.91-1.34-.97-.678-.062-1.466-.127-1.675-.7-.209-.572 0-1.346-.096-1.726-.116-.46-.292-.735-1.182-1.014-.797-.25-1.238-1.012-.434-1.334a2.566 2.566 0 0 1 1.58-.075c.336.085.658.224.997.298.157.033.316.055.477.066.185.013.37-.05.558-.038.483.03.915.363 1.143.789.16.3.124.636.112.964-.011.329-.025.66-.037.991l-.081 2.152-.023.597Z"/><path fill="#fff" d="M7.44 38.295a.066.066 0 0 1-.063-.045c-.636-1.763-3.22-3.358-4.08-3.46a.068.068 0 0 1-.048-.023.066.066 0 0 1 .011-.097.067.067 0 0 1 .052-.012c.884.106 3.542 1.74 4.19 3.547a.068.068 0 0 1-.063.09Z"/><path fill="#fff" d="M6.523 36.849a.034.034 0 0 1-.014 0 .067.067 0 0 1-.043-.085c.303-.893.155-1.502.154-1.508a.065.065 0 0 1 .048-.08.065.065 0 0 1 .05.006.066.066 0 0 1 .031.04c.006.027.16.653-.156 1.585a.068.068 0 0 1-.07.042ZM7.272 37.912a.066.066 0 0 1-.032-.007c-.519-.282-1.646-.081-1.657-.079a.068.068 0 0 1-.068-.104.066.066 0 0 1 .043-.028c.049-.009 1.185-.212 1.746.093a.067.067 0 0 1-.032.125Z"/><path fill="#407BFF" d="M7.601 36.291c.031-.013.127-2.093-.767-3.319-.895-1.225-1.98-1.368-2.694-1.066-.713.302-.566 1.028.312 1.467.878.439 1.97 1.206 2.226 2.604l.923.314Z"/><path fill="#000" d="M7.601 36.291c.031-.013.127-2.093-.767-3.319-.895-1.225-1.98-1.368-2.694-1.066-.713.302-.566 1.028.312 1.467.878.439 1.97 1.206 2.226 2.604l.923.314Z" opacity=".1"/><path fill="#fff" d="M7.272 35.682a.066.066 0 0 1-.066-.056c-.336-2.114-1.59-3.149-2.642-3.414a.067.067 0 0 1-.049-.08.068.068 0 0 1 .082-.049c1.098.275 2.394 1.344 2.74 3.521a.067.067 0 0 1-.054.077h-.01Z"/><path fill="#407BFF" d="M7.44 40.155c-.136-.55-.689-.91-1.34-.97-.678-.062-1.466-.127-1.675-.7-.209-.572 0-1.346-.096-1.726-.116-.46-.292-.735-1.182-1.014-.797-.25-1.238-1.012-.434-1.334a2.566 2.566 0 0 1 1.58-.075c.336.085.658.224.997.298.157.033.316.055.477.066.185.013.37-.05.558-.038.483.03.915.363 1.143.789.16.3.124.636.112.964-.011.329-.025.66-.037.991l-.081 2.152-.023.597Z"/><path fill="#fff" d="M7.44 38.295a.066.066 0 0 1-.063-.045c-.636-1.763-3.22-3.358-4.08-3.46a.068.068 0 0 1-.048-.023.066.066 0 0 1 .011-.097.067.067 0 0 1 .052-.012c.884.106 3.542 1.74 4.19 3.547a.068.068 0 0 1-.063.09Z"/><path fill="#fff" d="M6.523 36.849a.034.034 0 0 1-.014 0 .067.067 0 0 1-.043-.085c.303-.893.155-1.502.154-1.508a.065.065 0 0 1 .048-.08.065.065 0 0 1 .05.006.066.066 0 0 1 .031.04c.006.027.16.653-.156 1.585a.068.068 0 0 1-.07.042ZM7.272 37.912a.066.066 0 0 1-.032-.007c-.519-.282-1.646-.081-1.657-.079a.068.068 0 0 1-.068-.104.066.066 0 0 1 .043-.028c.049-.009 1.185-.212 1.746.093a.067.067 0 0 1-.032.125Z"/><path fill="#407BFF" d="M7.669 40.74a.493.493 0 0 1-.212-.388V18.516a.507.507 0 0 1 .23-.398l24.94-14.403a.431.431 0 0 1 .657.38v21.837a.506.506 0 0 1-.23.397L8.114 40.732a.49.49 0 0 1-.445.009Z"/><path fill="#fff" d="M33.284 4.059c-.016-.119-.112-.163-.227-.096l-24.943 14.4a.488.488 0 0 0-.164.172l-.424-.249a.475.475 0 0 1 .162-.17l24.94-14.4a.424.424 0 0 1 .657.343h-.001Z" opacity=".4"/><path fill="#F0F0F0" d="M8.07 40.753h-.01a.094.094 0 0 1-.021.008l-.017.005a.139.139 0 0 1-.032.008.069.069 0 0 1-.021 0h-.035a.443.443 0 0 1-.264-.046.49.49 0 0 1-.212-.389V21.231l.431.249v19.118c0 .106.052.164.127.164.01.002.02.002.031 0h.005a.088.088 0 0 0 .018-.01Z"/><path fill="#000" d="M7.95 18.535a.466.466 0 0 0-.067.226v2.719l-.431-.25v-2.717a.238.238 0 0 1 .01-.085.562.562 0 0 1 .057-.142l.431.249Z" opacity=".1"/><path fill="#407BFF" d="M33.284 4.096v1.226L15.003 15.878c-.126.073-.229.014-.229-.133v-.464c0-.146-.106-.206-.23-.132l-5.568 3.214a.507.507 0 0 0-.23.4v.463a.509.509 0 0 1-.23.398l-.635.364v-1.226a.508.508 0 0 1 .229-.397L33.058 3.963c.126-.073.226-.013.226.133Z"/><path fill="#FAFAFA" d="M33.284 25.934a.506.506 0 0 1-.23.397L8.114 40.733c-.126.073-.228.013-.228-.133V19.987l.636-.364c.126-.073.331-1.186.459-1.26l5.474-3.16c.128-.074.424.748.553.675L33.284 5.322v20.612Z"/><path fill="#E6E6E6" d="M33.284 5.322v1.493L7.886 21.48v-1.493l.471-.271c.126-.073.169-.184.23-.398l.16-.556c.05-.193.105-.324.23-.398l5.474-3.16c.127-.074.227-.082.318.078l.196.356c.072.125.106.198.235.125l18.084-10.44Z"/><path fill="#fff" d="M32.211 4.864c.16-.09.29-.017.29.168a.635.635 0 0 1-.29.5c-.159.091-.288.017-.288-.167a.634.634 0 0 1 .288-.5ZM31.375 5.915c.113-.195.113-.406 0-.471-.112-.065-.295.04-.407.236-.113.195-.113.406 0 .47.112.066.294-.04.407-.235ZM30.131 6.063c.16-.091.29-.017.29.168a.636.636 0 0 1-.29.5c-.159.091-.288.017-.288-.168a.636.636 0 0 1 .288-.5Z"/><path fill="#455A64" d="m8.938 20.095-.36.212.137-.264a.067.067 0 0 0 0-.064c-.01-.013-.028 0-.04.019l-.195.372a.073.073 0 0 0-.005.014v.041a.023.023 0 0 0 .005.008l.196.151a.016.016 0 0 0 .02 0 .06.06 0 0 0 .02-.027c.011-.025.01-.052 0-.062l-.137-.106.36-.212a.077.077 0 0 0 .029-.061c-.001-.017-.014-.03-.03-.02ZM9.239 19.922l.36-.212-.138-.106c-.011-.01-.012-.037 0-.062.013-.024.029-.037.04-.027l.197.15v.064l-.196.376a.051.051 0 0 1-.02.022.016.016 0 0 1-.01.004.016.016 0 0 1-.01-.004.067.067 0 0 1 0-.064l.137-.264-.36.212c-.016.01-.029 0-.029-.028a.078.078 0 0 1 .029-.061ZM10.421 18.884c0-.021-.021-.02-.03 0l-.05.12c-.084-.009-.186.073-.255.219-.089.189-.089.412 0 .498a.128.128 0 0 0 .161.01.436.436 0 0 0 .162-.196.06.06 0 0 0 0-.064c-.011-.01-.03 0-.041.023-.066.141-.175.205-.242.14-.066-.064-.065-.23 0-.372.048-.106.117-.16.176-.163l-.037.091c-.01.023 0 .046.014.035l.147-.095a.049.049 0 0 0 .016-.04l-.021-.206ZM14.293 15.884l.131-.279a.087.087 0 0 0 0-.085c-.016-.015-.041 0-.056.031l-.131.279-.132-.127c-.016-.015-.04 0-.056.033a.083.083 0 0 0 0 .087l.131.126-.131.278a.083.083 0 0 0 0 .086.023.023 0 0 0 .029 0 .08.08 0 0 0 .027-.035l.132-.277.131.126a.022.022 0 0 0 .028 0 .077.077 0 0 0 .028-.034.09.09 0 0 0 0-.087l-.131-.122Z" opacity=".5"/><path fill="#FAFAFA" d="M10.9 19.226v-.464a.51.51 0 0 1 .228-.397l20.64-11.91c.125-.074.228-.014.228.132v.464a.509.509 0 0 1-.229.398L11.13 19.359c-.128.073-.23.014-.23-.133Z"/><path fill="#E0E0E0" d="M31.454 7.485a.056.056 0 0 1-.02 0 .062.062 0 0 1-.035-.07l.023-.188-.088-.064a.06.06 0 0 1-.025-.052.106.106 0 0 1 .038-.08l.135-.105a.024.024 0 0 0 .005-.01l.06-.199a.085.085 0 0 1 .069-.063.053.053 0 0 1 .053.031l.05.106.114-.043a.054.054 0 0 1 .061.014.086.086 0 0 1 0 .093l-.094.181v.012l.022.165a.106.106 0 0 1-.028.083.063.063 0 0 1-.053.021l-.106-.014-.12.152a.068.068 0 0 1-.06.03Zm-.064-.383.088.063a.067.067 0 0 1 .023.064l-.019.125.08-.106a.07.07 0 0 1 .06-.03l.106.014v-.011l-.023-.167a.106.106 0 0 1 .011-.06l.086-.16-.088.035a.054.054 0 0 1-.07-.029l-.039-.084-.054.176a.106.106 0 0 1-.033.05l-.135.106a.018.018 0 0 0 .007.014Z"/><g fill="#455A64" opacity=".5"><path d="M32.266 6.398a.08.08 0 0 1-.042-.144l.645-.373a.08.08 0 0 1 .08.138l-.646.373a.08.08 0 0 1-.037.006ZM32.266 6.771a.08.08 0 0 1-.039-.148l.646-.37a.08.08 0 0 1 .088.007.08.08 0 0 1-.009.132l-.645.373a.091.091 0 0 1-.04.006ZM32.266 7.144a.08.08 0 0 1-.076-.11.08.08 0 0 1 .034-.038l.646-.373a.08.08 0 0 1 .105.028.08.08 0 0 1-.03.106l-.645.373a.09.09 0 0 1-.034.014Z"/></g><path fill="#E0E0E0" d="M7.885 19.987v1.493l-.431-.25v-1.49l.431.247Z"/><path fill="#F0F0F0" d="m8.976 25.325 4.707-2.718c.127-.074.23-.014.23.132v13.392a.51.51 0 0 1-.23.398l-4.708 2.717c-.126.073-.23.014-.23-.132V25.723a.507.507 0 0 1 .23-.398Z"/><path fill="#E0E0E0" d="m9.837 25.823 2.989-1.725c.127-.073.23-.021.23.117a.492.492 0 0 1-.23.377l-2.99 1.728c-.126.073-.23.021-.23-.117a.492.492 0 0 1 .23-.38Z"/><path fill="#FAFAFA" d="M9.607 27.108v.18c0 .088.061.123.138.08l.155-.091a.306.306 0 0 0 .138-.239v-.179c0-.088-.062-.123-.138-.08l-.155.091a.302.302 0 0 0-.138.238Z"/><path fill="#E0E0E0" d="M10.468 26.7c0 .138.106.19.23.117l2.12-1.227a.493.493 0 0 0 .23-.381c0-.137-.107-.189-.23-.116l-2.12 1.227a.493.493 0 0 0-.23.38Z"/><path fill="#FAFAFA" d="M9.607 28.104v.179c0 .088.061.123.138.08l.155-.09a.305.305 0 0 0 .138-.24v-.178c0-.088-.062-.123-.138-.08l-.155.09a.302.302 0 0 0-.138.239Z"/><path fill="#E0E0E0" d="M10.468 27.695c0 .138.106.19.23.117l2.12-1.226a.492.492 0 0 0 .23-.382c0-.137-.107-.189-.23-.115l-2.12 1.226a.493.493 0 0 0-.23.38Z"/><path fill="#FAFAFA" d="M9.607 29.097v.179c0 .088.061.124.138.08l.155-.09a.308.308 0 0 0 .138-.238v-.18c0-.087-.062-.123-.138-.079l-.155.09a.304.304 0 0 0-.138.238Z"/><path fill="#E0E0E0" d="M10.468 28.69c0 .137.106.189.23.115l2.12-1.226a.493.493 0 0 0 .23-.38c0-.138-.107-.19-.23-.117l-2.12 1.226a.493.493 0 0 0-.23.382Z"/><path fill="#FAFAFA" d="M9.607 30.09v.18c0 .087.061.123.138.079l.155-.09a.308.308 0 0 0 .138-.238v-.179c0-.088-.062-.124-.138-.08l-.155.09a.304.304 0 0 0-.138.238Z"/><path fill="#E0E0E0" d="M10.468 29.68c0 .137.106.189.23.116l2.12-1.227a.493.493 0 0 0 .23-.38c0-.138-.107-.19-.23-.117l-2.12 1.226a.493.493 0 0 0-.23.382ZM9.818 31.3l2.985-1.726c.127-.073.23-.021.23.116a.493.493 0 0 1-.23.381L9.818 31.8c-.127.073-.23.021-.23-.117a.492.492 0 0 1 .23-.382Z"/><path fill="#FAFAFA" d="M9.588 32.587v.18c0 .086.062.123.138.08l.155-.091a.302.302 0 0 0 .138-.239v-.179c0-.088-.062-.123-.138-.08l-.155.091a.302.302 0 0 0-.138.239Z"/><path fill="#E0E0E0" d="M10.45 32.18c0 .137.105.19.23.116l2.12-1.227a.491.491 0 0 0 .23-.38c0-.139-.107-.19-.23-.117l-2.12 1.227a.492.492 0 0 0-.23.38Z"/><path fill="#FAFAFA" d="M9.588 33.583v.179c0 .088.062.123.138.08l.155-.09a.304.304 0 0 0 .138-.24v-.178c0-.088-.062-.123-.138-.08l-.155.09a.304.304 0 0 0-.138.239Z"/><path fill="#E0E0E0" d="M10.45 33.178c0 .138.105.19.23.117l2.12-1.228a.491.491 0 0 0 .238-.384c0-.137-.106-.19-.23-.116l-2.12 1.227a.49.49 0 0 0-.239.384Z"/><path fill="#FAFAFA" d="M9.588 34.576v.18c0 .087.062.123.138.079l.155-.09a.307.307 0 0 0 .138-.238v-.18c0-.087-.062-.123-.138-.078l-.155.089a.302.302 0 0 0-.138.238Z"/><path fill="#E0E0E0" d="M10.45 34.169c0 .137.105.189.23.116l2.12-1.227a.493.493 0 0 0 .23-.382c0-.136-.107-.188-.23-.115l-2.12 1.226a.491.491 0 0 0-.23.382Z"/><path fill="#FAFAFA" d="M9.588 35.57v.178c0 .088.062.125.138.08l.155-.09a.306.306 0 0 0 .138-.238v-.179c0-.088-.062-.124-.138-.08l-.155.09a.304.304 0 0 0-.138.238Z"/><path fill="#E0E0E0" d="M10.45 35.162c0 .137.105.189.23.116l2.12-1.227a.493.493 0 0 0 .23-.381c0-.137-.107-.189-.23-.116l-2.12 1.227a.49.49 0 0 0-.23.381ZM25.108 20.75v.246c0 .147.106.206.23.132l6-3.492a.512.512 0 0 0 .229-.398v-.212c0-.147-.106-.206-.23-.133l-6.003 3.459a.509.509 0 0 0-.226.398Z"/><path fill="#EBEBEB" d="m25.334 21.844 6.861-3.96c.127-.074.23-.022.23.116a.492.492 0 0 1-.23.38l-6.861 3.962c-.126.073-.229.02-.229-.116a.493.493 0 0 1 .229-.382ZM25.334 22.839l6.861-3.962c.127-.073.23-.02.23.116a.492.492 0 0 1-.23.382l-6.861 3.96c-.126.074-.229.022-.229-.116a.495.495 0 0 1 .229-.38ZM25.334 23.832l6.861-3.961c.127-.073.23-.021.23.116a.492.492 0 0 1-.23.38l-6.861 3.962c-.126.073-.229.021-.229-.115a.493.493 0 0 1 .229-.382ZM25.334 24.826l6.861-3.961c.127-.073.23-.021.23.116a.492.492 0 0 1-.23.381l-6.861 3.961c-.126.073-.229.021-.229-.116a.495.495 0 0 1 .229-.38ZM25.334 25.82l6.861-3.962c.127-.073.23-.021.23.117a.492.492 0 0 1-.23.38l-6.861 3.961c-.126.074-.229.022-.229-.115a.493.493 0 0 1 .229-.382ZM25.334 26.818l6.861-3.961c.127-.073.23-.022.23.115a.492.492 0 0 1-.23.382l-6.861 3.957c-.126.073-.229.021-.229-.117a.494.494 0 0 1 .229-.376ZM25.334 27.807l6.865-3.957c.126-.073.229-.021.229.117a.494.494 0 0 1-.23.381l-6.864 3.954c-.126.073-.229.021-.229-.116a.492.492 0 0 1 .229-.379ZM25.334 28.801l6.861-3.961c.127-.073.23-.021.23.117a.492.492 0 0 1-.23.38l-6.861 3.961c-.126.074-.229.022-.229-.116a.495.495 0 0 1 .229-.38Z"/><path fill="#F0F0F0" d="m15.003 26.32 9.01-5.205c.126-.073.229-.014.229.133v8.916a.508.508 0 0 1-.229.398l-9.01 5.204c-.126.074-.229.014-.229-.132v-8.917a.51.51 0 0 1 .23-.397Z"/><path fill="#E0E0E0" d="m21.73 26.174-1.505 2.664 1.06 1.373-3.498-3.013-3.014 6.525v1.908c0 .146.106.206.229.132l9.01-5.204a.509.509 0 0 0 .229-.398v-1.696l-2.511-2.291ZM22.093 23.426c.376-.212.679-.04.679.392a1.499 1.499 0 0 1-.679 1.176c-.375.212-.678.04-.678-.392a1.501 1.501 0 0 1 .678-1.176ZM8.975 21.845 32.198 8.437c.127-.074.23-.014.23.132v2.455a.508.508 0 0 1-.23.398L8.974 24.826c-.126.075-.23.015-.23-.132v-2.453a.51.51 0 0 1 .23-.398Z"/><path fill="#FAFAFA" d="M23.816 14.554v.424c0 .087.063.123.138.08l6.751-3.899v-.742l-6.749 3.898a.306.306 0 0 0-.14.239Z"/><path fill="#EBEBEB" d="M31.429 10c.076-.043.138-.008.138.08v.424a.306.306 0 0 1-.138.238l-.724.418v-.742l.724-.418Z"/><path fill="#FAFAFA" d="m31.376 10.586-.08-.024a.446.446 0 0 0 .012-.106.19.19 0 0 0-.073-.173.116.116 0 0 0-.118 0 .415.415 0 0 0-.161.336.192.192 0 0 0 .073.173.106.106 0 0 0 .052.013.132.132 0 0 0 .066-.02.337.337 0 0 0 .13-.174l.08.025h.01a.03.03 0 0 0 .029-.021.032.032 0 0 0-.02-.029Zm-.259.155a.056.056 0 0 1-.057.006.14.14 0 0 1-.045-.12.36.36 0 0 1 .132-.285.079.079 0 0 1 .036-.011c.008 0 .015.002.022.006a.14.14 0 0 1 .044.12.36.36 0 0 1-.133.284h.001Z"/><path fill="#EBEBEB" d="M14.774 22.242v2.951c0 .146.106.206.23.133l17.194-9.928a.509.509 0 0 0 .23-.398v-2.95c0-.146-.107-.206-.23-.133l-17.195 9.927a.508.508 0 0 0-.229.398Z"/><path fill="#407BFF" d="M12.837 43.723a.49.49 0 0 1-.212-.39V21.499a.51.51 0 0 1 .229-.398l24.94-14.403a.431.431 0 0 1 .66.382v21.836a.51.51 0 0 1-.228.397L13.28 43.715a.49.49 0 0 1-.444.008Z"/><path fill="#455A64" d="M38.453 7.04c-.016-.118-.113-.162-.227-.095L13.281 21.346a.488.488 0 0 0-.162.172l-.43-.25a.475.475 0 0 1 .162-.17L37.796 6.697a.424.424 0 0 1 .657.343Z"/><path fill="#F0F0F0" d="M13.237 43.735h-.01a.098.098 0 0 1-.021.008l-.018.005a.14.14 0 0 1-.031.008.069.069 0 0 1-.021 0l-.035.005a.443.443 0 0 1-.264-.046.488.488 0 0 1-.212-.389V24.215l.431.249v19.119c0 .106.052.164.127.164.01.002.02.002.03 0a.09.09 0 0 0 .024-.011Z"/><path fill="#263238" d="M13.118 21.518a.466.466 0 0 0-.066.226v2.719l-.432-.25v-2.717a.252.252 0 0 1 .01-.085.565.565 0 0 1 .057-.142l.431.249Z"/><path fill="#37474F" d="M38.455 7.078v1.226L20.17 18.861c-.126.073-.23.013-.23-.133v-.464c0-.146-.105-.206-.23-.133l-5.567 3.215a.506.506 0 0 0-.23.398v.464a.51.51 0 0 1-.23.398l-.635.364v-1.226a.51.51 0 0 1 .229-.398l24.949-14.4c.126-.074.229-.015.229.132Z"/><path fill="#FAFAFA" d="M38.456 28.917a.506.506 0 0 1-.23.397l-24.945 14.4c-.126.074-.23.014-.23-.132V22.97l.637-.364c.126-.074.332-1.187.459-1.26l5.475-3.16c.127-.074.424.748.552.674L38.459 8.304v20.613h-.003Z"/><path fill="#E6E6E6" d="M38.455 8.304v1.492L13.052 24.463V22.97l.472-.273c.126-.073.168-.185.229-.398l.16-.555c.05-.193.105-.325.23-.398l5.474-3.16c.128-.074.227-.082.324.078l.197.356c.07.124.106.197.233.124l18.084-10.44Z"/><path fill="#fff" d="M37.583 8.297c.112-.195.112-.406 0-.47-.113-.066-.295.04-.408.235-.113.195-.113.406 0 .471.112.065.295-.04.408-.236ZM36.34 8.446c.158-.091.287-.017.287.167a.636.636 0 0 1-.288.503c-.16.091-.29.017-.29-.168a.637.637 0 0 1 .29-.502ZM35.298 9.046c.16-.092.288-.018.288.166a.635.635 0 0 1-.288.5c-.16.093-.29.019-.29-.166a.636.636 0 0 1 .29-.5Z"/><path fill="#455A64" d="m14.104 23.077-.36.212.138-.265a.064.064 0 0 0 0-.065c-.011-.011-.03 0-.042.02l-.195.376s0 .008-.005.014a.061.061 0 0 0 0 .019.038.038 0 0 0 0 .017l.005.007.195.15a.018.018 0 0 0 .02 0 .064.064 0 0 0 .022-.028c.01-.024.01-.052 0-.061l-.137-.107.36-.212a.075.075 0 0 0 .029-.061c0-.013-.013-.024-.03-.016ZM14.405 22.903l.36-.212-.136-.106c-.013-.01-.014-.037 0-.061s.028-.037.041-.029l.195.15.005.008a.039.039 0 0 1 0 .016.062.062 0 0 1 0 .02s0 .01-.005.014l-.195.375a.07.07 0 0 1-.02.023.017.017 0 0 1-.021 0 .065.065 0 0 1 0-.065l.136-.265-.36.212c-.016.008-.029 0-.029-.029a.077.077 0 0 1 .029-.05ZM15.587 21.867c0-.023-.021-.02-.03 0l-.05.12c-.084-.01-.186.074-.255.219-.089.189-.089.412 0 .498a.126.126 0 0 0 .162.01.45.45 0 0 0 .163-.197.063.063 0 0 0 0-.062c-.012-.012-.03 0-.042.023-.066.141-.175.204-.241.14-.067-.063-.067-.23 0-.373.047-.1.115-.159.175-.163l-.038.09c-.01.024 0 .046.015.037l.146-.096a.048.048 0 0 0 .018-.04l-.023-.206ZM19.46 18.868l.13-.278a.083.083 0 0 0 0-.087c-.014-.015-.04 0-.055.033l-.132.278-.131-.126c-.015-.015-.04 0-.056.033a.087.087 0 0 0 0 .085l.13.127-.13.278a.087.087 0 0 0 0 .086c.003.004.009.005.014.005.005 0 .01-.001.014-.005a.077.077 0 0 0 .028-.034l.131-.278.132.127a.022.022 0 0 0 .028 0 .07.07 0 0 0 .028-.034.083.083 0 0 0 0-.087l-.132-.123Z" opacity=".5"/><path fill="#FAFAFA" d="M16.065 22.208v-.464a.506.506 0 0 1 .23-.398L36.934 9.434c.127-.073.23-.014.23.132v.465a.51.51 0 0 1-.23.397L16.295 22.34c-.127.074-.23.014-.23-.132Z"/><path fill="#E0E0E0" d="M36.622 10.466a.069.069 0 0 1-.022 0 .062.062 0 0 1-.033-.07l.022-.188-.09-.064a.062.062 0 0 1-.023-.05.106.106 0 0 1 .038-.081l.134-.106a.025.025 0 0 0 .007-.01l.06-.198a.085.085 0 0 1 .068-.065.057.057 0 0 1 .053.032l.05.106L37 9.73a.05.05 0 0 1 .06.013.08.08 0 0 1 0 .093l-.097.183a.02.02 0 0 0 0 .01l.023.167a.107.107 0 0 1-.028.083.066.066 0 0 1-.054.02l-.106-.014-.122.154a.067.067 0 0 1-.054.029Zm-.066-.382.088.063a.064.064 0 0 1 .024.064l-.014.125.079-.106a.066.066 0 0 1 .06-.029l.107.014a.021.021 0 0 0 0-.012l-.012-.162a.09.09 0 0 1 .012-.059l.084-.16-.087.033a.054.054 0 0 1-.07-.028l-.04-.085-.053.176a.106.106 0 0 1-.034.05l-.134.106a.02.02 0 0 0-.01.01Z"/><g fill="#455A64" opacity=".5"><path d="M37.433 9.38a.08.08 0 0 1-.04-.149l.647-.372a.08.08 0 0 1 .08.137l-.648.373a.075.075 0 0 1-.039.01ZM37.433 9.752a.08.08 0 0 1-.04-.149l.646-.373a.08.08 0 0 1 .08.138l-.647.373a.075.075 0 0 1-.039.01ZM37.433 10.126a.08.08 0 0 1-.074-.11.08.08 0 0 1 .034-.038l.646-.373a.08.08 0 0 1 .08.137l-.647.374a.076.076 0 0 1-.039.01Z"/></g><path fill="#E0E0E0" d="M13.051 22.97v1.493l-.431-.25v-1.49l.431.247Z"/><path fill="#F0F0F0" d="m14.142 28.307 4.708-2.718c.126-.073.23-.014.23.133v13.392a.508.508 0 0 1-.23.397l-4.708 2.718c-.127.073-.23.014-.23-.132V28.705a.508.508 0 0 1 .23-.398Z"/><path fill="#E0E0E0" d="m15.003 28.804 2.985-1.723c.127-.073.23-.021.23.115a.492.492 0 0 1-.23.382l-2.985 1.724c-.127.073-.23.02-.23-.117a.492.492 0 0 1 .23-.38Z"/><path fill="#FAFAFA" d="M14.773 30.09v.18c0 .087.062.122.138.079l.156-.09a.302.302 0 0 0 .136-.239v-.179c0-.087-.061-.123-.136-.08l-.156.09a.303.303 0 0 0-.138.24Z"/><path fill="#E0E0E0" d="M15.634 29.68c0 .138.107.19.23.117l2.12-1.227a.491.491 0 0 0 .23-.381c0-.137-.107-.19-.23-.116l-2.12 1.226a.492.492 0 0 0-.23.38Z"/><path fill="#FAFAFA" d="M14.773 31.085v.185c0 .088.062.123.138.08l.156-.09a.301.301 0 0 0 .136-.24v-.178c0-.087-.061-.123-.136-.08l-.156.09a.302.302 0 0 0-.138.233Z"/><path fill="#E0E0E0" d="M15.634 30.677c0 .138.107.19.23.117l2.12-1.226a.492.492 0 0 0 .23-.382c0-.137-.107-.189-.23-.116l-2.12 1.227a.492.492 0 0 0-.23.38Z"/><path fill="#FAFAFA" d="M14.773 32.079v.179c0 .088.062.124.138.08l.156-.09a.303.303 0 0 0 .136-.238v-.18c0-.087-.061-.123-.136-.079l-.156.09a.307.307 0 0 0-.138.238Z"/><path fill="#E0E0E0" d="M15.634 31.672c0 .136.107.188.23.115l2.12-1.226a.492.492 0 0 0 .23-.38c0-.139-.107-.19-.23-.117l-2.12 1.226a.493.493 0 0 0-.23.382Z"/><path fill="#FAFAFA" d="M14.773 33.072v.18c0 .087.062.123.138.079l.156-.09a.301.301 0 0 0 .136-.238v-.18c0-.087-.061-.123-.136-.079l-.156.09a.306.306 0 0 0-.138.238Z"/><path fill="#E0E0E0" d="M15.634 32.665c0 .137.107.188.23.115l2.12-1.226a.493.493 0 0 0 .23-.38c0-.138-.107-.19-.23-.117l-2.12 1.226a.493.493 0 0 0-.23.382ZM14.985 34.284l2.985-1.725c.127-.073.23-.021.23.117a.492.492 0 0 1-.23.381l-2.986 1.724c-.126.073-.229.021-.229-.117a.492.492 0 0 1 .23-.38Z"/><path fill="#FAFAFA" d="M14.755 35.57v.178c0 .089.061.123.138.08l.155-.09a.303.303 0 0 0 .137-.239v-.179c0-.088-.061-.123-.137-.08l-.155.09a.304.304 0 0 0-.138.24Z"/><path fill="#E0E0E0" d="M15.616 35.161c0 .138.106.19.23.117l2.12-1.227a.492.492 0 0 0 .23-.381c0-.137-.106-.189-.23-.116l-2.12 1.227a.493.493 0 0 0-.23.38Z"/><path fill="#FAFAFA" d="M14.755 36.57v.179c0 .088.061.123.138.08l.155-.09a.304.304 0 0 0 .137-.24v-.184c0-.088-.061-.122-.137-.08l-.155.091a.303.303 0 0 0-.138.244Z"/><path fill="#E0E0E0" d="M15.616 36.157c0 .137.106.19.23.116l2.12-1.226a.493.493 0 0 0 .23-.382c0-.137-.106-.189-.23-.115l-2.12 1.226a.493.493 0 0 0-.23.38Z"/><path fill="#FAFAFA" d="M14.755 37.558v.178c0 .088.061.124.138.08l.155-.09a.305.305 0 0 0 .137-.238v-.176c0-.088-.061-.124-.137-.08l-.155.09a.304.304 0 0 0-.138.236Z"/><path fill="#E0E0E0" d="M15.616 37.15c0 .138.106.19.23.117l2.12-1.227a.492.492 0 0 0 .23-.38c0-.138-.106-.19-.23-.117l-2.12 1.226a.492.492 0 0 0-.23.382Z"/><path fill="#FAFAFA" d="M14.755 38.551v.18c0 .087.061.123.138.079l.155-.09a.305.305 0 0 0 .137-.238v-.179c0-.088-.061-.124-.137-.08l-.155.09a.305.305 0 0 0-.138.238Z"/><path fill="#E0E0E0" d="M15.616 38.144c0 .137.106.189.23.116l2.12-1.227a.493.493 0 0 0 .23-.38c0-.138-.106-.19-.23-.117l-2.12 1.227a.492.492 0 0 0-.23.381ZM30.274 23.732v.246c0 .146.107.206.23.132l6-3.492a.51.51 0 0 0 .23-.398v-.212c0-.148-.107-.207-.231-.133l-6 3.463a.506.506 0 0 0-.229.394Z"/><path fill="#EBEBEB" d="m30.503 24.827 6.862-3.961c.126-.073.229-.021.229.116a.493.493 0 0 1-.23.381l-6.86 3.96c-.127.074-.23.021-.23-.115a.489.489 0 0 1 .23-.38ZM30.503 25.82l6.862-3.96c.126-.074.229-.022.229.116a.495.495 0 0 1-.23.38l-6.86 3.962c-.127.073-.23.02-.23-.116a.49.49 0 0 1 .23-.382ZM30.503 26.818l6.862-3.965c.126-.073.229-.02.229.116a.493.493 0 0 1-.23.382l-6.86 3.96c-.127.074-.23.022-.23-.116a.49.49 0 0 1 .23-.377ZM30.503 27.808l6.862-3.958c.126-.073.229-.021.229.117a.495.495 0 0 1-.23.38l-6.86 3.955c-.127.073-.23.021-.23-.116a.49.49 0 0 1 .23-.378ZM30.503 28.802l6.862-3.961c.126-.073.229-.021.229.116a.493.493 0 0 1-.23.381l-6.86 3.961c-.127.073-.23.022-.23-.116a.49.49 0 0 1 .23-.38ZM30.503 29.795l6.862-3.96c.126-.074.229-.022.229.116a.495.495 0 0 1-.23.38l-6.86 3.962c-.127.073-.23.02-.23-.116a.49.49 0 0 1 .23-.382ZM30.503 30.79l6.862-3.961c.126-.074.229-.022.229.115a.493.493 0 0 1-.23.382l-6.86 3.96c-.127.074-.23.022-.23-.116a.49.49 0 0 1 .23-.38ZM30.503 31.783l6.862-3.961c.126-.073.229-.021.229.116a.495.495 0 0 1-.23.38l-6.86 3.962c-.127.073-.23.021-.23-.116a.49.49 0 0 1 .23-.381Z"/><path fill="#F0F0F0" d="m20.17 29.302 9.01-5.205c.125-.073.228-.014.228.133v8.916a.508.508 0 0 1-.229.398l-9.01 5.204c-.126.073-.229.014-.229-.132v-8.917a.507.507 0 0 1 .23-.397Z"/><path fill="#E0E0E0" d="m26.898 29.155-1.506 2.666 1.06 1.372-3.498-3.014-3.014 6.526v1.908c0 .146.106.205.23.132l9.01-5.204a.508.508 0 0 0 .228-.398v-1.696l-2.51-2.292ZM27.26 26.413c.375-.217.678-.041.678.391a1.5 1.5 0 0 1-.678 1.177c-.375.212-.678.04-.678-.393a1.5 1.5 0 0 1 .678-1.175ZM14.142 24.827 37.365 11.42c.126-.073.23-.014.23.133v2.453a.506.506 0 0 1-.23.397L14.141 27.81c-.127.073-.23.014-.23-.133v-2.45a.506.506 0 0 1 .23-.4Z"/><path fill="#FAFAFA" d="M28.983 17.537v.424c0 .088.061.123.137.079l6.752-3.898V13.4l-6.752 3.9a.302.302 0 0 0-.137.236Z"/><path fill="#EBEBEB" d="M36.595 12.982c.075-.044.138-.009.138.08v.423a.307.307 0 0 1-.138.239l-.724.417V13.4l.724-.417Z"/><path fill="#FAFAFA" d="m36.54 13.568-.08-.025a.44.44 0 0 0 .013-.106.192.192 0 0 0-.073-.173.114.114 0 0 0-.118.006.412.412 0 0 0-.16.335.191.191 0 0 0 .072.173.106.106 0 0 0 .051.014.125.125 0 0 0 .067-.02.336.336 0 0 0 .13-.174l.08.025h.01a.03.03 0 0 0 .03-.021.03.03 0 0 0-.005-.02.03.03 0 0 0-.016-.014Zm-.258.154a.054.054 0 0 1-.058.006.143.143 0 0 1-.043-.12.36.36 0 0 1 .131-.285.075.075 0 0 1 .036-.01.04.04 0 0 1 .022.005.141.141 0 0 1 .044.12.36.36 0 0 1-.132.285v-.001Z"/><path fill="#EBEBEB" d="M19.94 25.228v2.947c0 .146.106.205.23.132l17.195-9.928a.508.508 0 0 0 .229-.397v-2.95c0-.146-.106-.206-.23-.133l-17.195 9.928a.507.507 0 0 0-.229.4Z"/><path fill="#407BFF" d="M18.014 43.99c-.03-.67-.572-2.04-1.304-2.881-.733-.842-1.854-1.433-2.62-1.134-.714.277-.596 1.224.309 1.816.905.593 2.259 1.329 2.69 2.4l.866 1.302.059-1.503Z"/><path fill="#000" d="M18.014 43.99c-.03-.67-.572-2.04-1.304-2.881-.733-.842-1.854-1.433-2.62-1.134-.714.277-.596 1.224.309 1.816.905.593 2.259 1.329 2.69 2.4l.866 1.302.059-1.503Z" opacity=".1"/><path fill="#fff" d="M18.102 44.906a.048.048 0 0 1-.046-.037c-.546-2.27-2.476-4.055-3.604-4.42a.05.05 0 0 1-.007-.09.048.048 0 0 1 .038-.002c1.147.37 3.113 2.183 3.666 4.488a.05.05 0 0 1-.037.06h-.01Z"/><path fill="#407BFF" d="M17.822 46.387c-.124-.373-.61-.977-1.378-1.459-.848-.53-1.902-.751-2.16-1.184-.312-.52.115-1.04.966-.97.851.07 2.387 1.165 2.698 2.89l-.126.723Z"/><path fill="#fff" d="M17.968 45.984a.05.05 0 0 1-.026-.01.05.05 0 0 1-.017-.02c-.785-1.933-2.31-2.559-3.007-2.62a.048.048 0 0 1-.042-.034.046.046 0 0 1-.002-.02.05.05 0 0 1 .017-.032.048.048 0 0 1 .036-.012c.77.068 2.288.708 3.089 2.68a.05.05 0 0 1-.027.065.073.073 0 0 1-.02.003Z"/><path fill="#407BFF" d="M43.06 28.824s.146-1.292.788-2.293c.642-1.002 1.525-1.629 2.349-1.696.823-.068 1.49.693.607 1.213-.882.52-2.446 1.052-3.167 2.998l-.578-.222Z"/><path fill="#000" d="M43.06 28.824s.146-1.292.788-2.293c.642-1.002 1.525-1.629 2.349-1.696.823-.068 1.49.693.607 1.213-.882.52-2.446 1.052-3.167 2.998l-.578-.222Z" opacity=".1"/><path fill="#fff" d="M43.3 28.488h-.009a.044.044 0 0 1-.023-.057c.87-2.141 2.524-3.035 3.276-3.207a.042.042 0 0 1 .053.032.044.044 0 0 1-.005.033.043.043 0 0 1-.027.02c-.742.17-2.36 1.048-3.215 3.155a.045.045 0 0 1-.049.024Z"/><path fill="#407BFF" d="M47.7 28.514c-.075.168-.258.255-.43.324-.171.07-.355.143-.447.302-.186.318.119.772-.08 1.085a.576.576 0 0 1-.394.228c-.127.024-.256.023-.386.035a1.757 1.757 0 0 1-.183-.015.831.831 0 0 0-.53.057c-.255.143-.333.465-.489.713a1.21 1.21 0 0 1-.86.54c-.114.015-.327.036-.443-.03a.139.139 0 0 1-.025-.015.697.697 0 0 1-.05-.061c-.044-.166.029-.34.032-.512v-.03c-.007-.201-.012-.4-.017-.599-.01-.367-.014-.734-.011-1.102 0-.239-.027-.5.075-.724.111-.247.389-.253.494-.495.042-.096.064-.2.106-.298a.855.855 0 0 1 .727-.509c.486-.024.92.37 1.404.333.126-.017.25-.04.373-.07.393-.074.847.037 1.068.37a.508.508 0 0 1 .066.473Z"/><path fill="#fff" d="M43.34 30.91a.041.041 0 0 1-.024-.018.041.041 0 0 1-.005-.032c.671-2.515 3.32-2.878 3.94-2.834.011.001.021.006.028.015a.042.042 0 0 1 .006.045.04.04 0 0 1-.023.02.04.04 0 0 1-.016.003c-.607-.044-3.2.311-3.854 2.773a.042.042 0 0 1-.051.028Z"/><path fill="#fff" d="M46.285 29.636a.047.047 0 0 1-.021-.011 2.203 2.203 0 0 0-1.802-.508.042.042 0 0 1-.048-.035.042.042 0 0 1 .035-.048 2.284 2.284 0 0 1 1.874.53.041.041 0 0 1 0 .059.043.043 0 0 1-.038.013Z"/><path fill="#407BFF" d="M18.003 46.708a.492.492 0 0 1-.212-.39V24.484a.505.505 0 0 1 .23-.398L42.96 9.682a.431.431 0 0 1 .66.38v21.844a.51.51 0 0 1-.229.397L18.444 46.7a.49.49 0 0 1-.44.008Z"/><path fill="#fff" d="M43.62 10.025c-.017-.118-.113-.162-.228-.095L18.444 24.331a.488.488 0 0 0-.162.172l-.43-.25c.04-.07.098-.128.168-.17L42.962 9.682a.424.424 0 0 1 .657.343Z" opacity=".4"/><path fill="#F0F0F0" d="M18.404 46.72h-.01a.093.093 0 0 1-.022.008l-.017.005a.139.139 0 0 1-.032.008.069.069 0 0 1-.02 0l-.036.005a.443.443 0 0 1-.264-.046.49.49 0 0 1-.212-.389V27.198l.432.25v19.119c0 .106.052.164.127.164.01.002.02.002.03 0l.024-.012Z"/><path fill="#000" d="M18.285 24.503a.467.467 0 0 0-.067.226v2.719l-.431-.25v-2.74a.563.563 0 0 1 .067-.2l.43.245Z" opacity=".1"/><path fill="#407BFF" d="M43.621 10.063v1.226L25.334 21.846c-.126.073-.229.013-.229-.133v-.464c0-.147-.106-.206-.23-.133l-5.568 3.215a.506.506 0 0 0-.23.398v.464a.51.51 0 0 1-.23.397l-.635.365V24.73a.51.51 0 0 1 .229-.398L43.392 9.93c.126-.072.23-.014.23.133Z"/><path fill="#FAFAFA" d="M43.622 31.906a.507.507 0 0 1-.23.397L18.444 46.7c-.126.073-.23.014-.23-.132V25.955l.637-.365c.126-.073.332-1.186.459-1.259l5.475-3.162c.127-.073.424.75.552.676L43.622 11.29v20.617Z"/><path fill="#F0F0F0" d="m19.309 31.291 4.707-2.718c.128-.073.23-.014.23.133v13.39a.506.506 0 0 1-.23.398l-4.707 2.72c-.127.072-.23.013-.23-.133V31.694a.506.506 0 0 1 .23-.403Z"/><path fill="#E0E0E0" d="m20.17 31.788 2.985-1.723c.127-.074.23-.022.23.116a.49.49 0 0 1-.23.38l-2.986 1.725c-.126.073-.229.02-.229-.116a.493.493 0 0 1 .23-.382Z"/><path fill="#407BFF" d="M19.94 33.072v.179c0 .087.062.123.138.08l.155-.09a.304.304 0 0 0 .138-.24v-.178c0-.088-.062-.123-.138-.08l-.155.09a.303.303 0 0 0-.138.239Z"/><path fill="#E0E0E0" d="M20.802 32.667c0 .138.106.19.23.117l2.12-1.228a.492.492 0 0 0 .229-.38c0-.138-.106-.19-.23-.117l-2.12 1.226a.491.491 0 0 0-.23.382Z"/><path fill="#407BFF" d="M19.94 34.07v.18c0 .086.062.123.138.079l.155-.09A.303.303 0 0 0 20.37 34v-.179c0-.088-.062-.123-.138-.08l-.155.09a.303.303 0 0 0-.138.24Z"/><path fill="#E0E0E0" d="M20.802 33.662c0 .138.106.19.23.117l2.12-1.228a.492.492 0 0 0 .229-.38c0-.138-.106-.19-.23-.117l-2.12 1.227a.49.49 0 0 0-.23.381Z"/><path fill="#407BFF" d="M19.94 35.064v.179c0 .088.062.123.138.08l.155-.09a.306.306 0 0 0 .138-.238v-.18c0-.087-.062-.123-.138-.08l-.155.09a.304.304 0 0 0-.138.239Z"/><path fill="#E0E0E0" d="M20.802 34.656c0 .137.106.19.23.116l2.12-1.226a.493.493 0 0 0 .229-.382c0-.137-.106-.189-.23-.116l-2.12 1.227a.49.49 0 0 0-.23.38Z"/><path fill="#407BFF" d="M19.94 36.057v.18c0 .087.062.123.138.079l.155-.09a.306.306 0 0 0 .138-.238v-.18c0-.087-.062-.123-.138-.08l-.155.09a.304.304 0 0 0-.138.239Z"/><path fill="#E0E0E0" d="M20.802 35.649c0 .138.106.19.23.117l2.12-1.227a.493.493 0 0 0 .229-.382c0-.136-.106-.188-.23-.115l-2.12 1.226a.49.49 0 0 0-.23.38ZM20.152 37.267l2.986-1.723c.126-.073.229-.021.229.117a.495.495 0 0 1-.23.38l-2.985 1.724c-.127.073-.23.02-.23-.116a.493.493 0 0 1 .23-.382Z"/><path fill="#407BFF" d="M19.928 38.553v.18c0 .087.061.123.136.079l.156-.09a.304.304 0 0 0 .138-.238v-.179c0-.088-.061-.124-.138-.08l-.156.09a.307.307 0 0 0-.136.238Z"/><path fill="#E0E0E0" d="M20.783 38.146c0 .137.106.189.23.116l2.124-1.227a.493.493 0 0 0 .23-.38c0-.138-.107-.19-.23-.117l-2.125 1.226a.493.493 0 0 0-.229.382Z"/><path fill="#407BFF" d="M19.928 39.548v.18c0 .088.061.124.136.08l.156-.09a.304.304 0 0 0 .138-.238v-.18c0-.087-.061-.123-.138-.079l-.156.089a.308.308 0 0 0-.136.238Z"/><path fill="#E0E0E0" d="M20.783 39.141c0 .137.106.19.23.116l2.124-1.226a.493.493 0 0 0 .23-.381c0-.138-.107-.19-.23-.117l-2.125 1.227a.493.493 0 0 0-.229.381Z"/><path fill="#407BFF" d="M19.928 40.543v.179c0 .088.061.123.136.08l.156-.09a.303.303 0 0 0 .138-.24v-.178c0-.088-.061-.123-.138-.08l-.156.09a.304.304 0 0 0-.136.239Z"/><path fill="#E0E0E0" d="M20.783 40.135c0 .138.106.19.23.116l2.124-1.226a.493.493 0 0 0 .23-.382c0-.136-.107-.188-.23-.115l-2.125 1.222a.493.493 0 0 0-.229.385Z"/><path fill="#407BFF" d="M19.928 41.536v.18c0 .087.061.122.136.079l.156-.09a.303.303 0 0 0 .138-.239v-.18c0-.087-.061-.122-.138-.079l-.156.09a.304.304 0 0 0-.136.239Z"/><path fill="#E0E0E0" d="M20.783 41.128c0 .138.106.19.23.117l2.124-1.227a.493.493 0 0 0 .23-.382c0-.136-.107-.188-.23-.115l-2.125 1.226a.492.492 0 0 0-.229.38Z"/><path fill="#407BFF" d="M35.44 26.717v.246c0 .146.107.206.23.132l6-3.498a.509.509 0 0 0 .23-.398v-.212c0-.146-.107-.206-.23-.132l-6 3.464a.507.507 0 0 0-.23.398Z"/><path fill="#E6E6E6" d="m35.67 27.811 6.861-3.961c.127-.073.23-.021.23.117a.492.492 0 0 1-.23.38l-6.86 3.961c-.127.073-.23.022-.23-.115a.491.491 0 0 1 .23-.382ZM35.67 28.805l6.861-3.96c.127-.074.23-.022.23.115a.491.491 0 0 1-.23.381l-6.86 3.962c-.127.073-.23.02-.23-.117a.493.493 0 0 1 .23-.38ZM35.67 29.799l6.861-3.962c.127-.073.23-.02.23.117a.492.492 0 0 1-.23.38l-6.86 3.962c-.127.073-.23.02-.23-.116a.491.491 0 0 1 .23-.381ZM35.67 30.793l6.861-3.961c.127-.073.23-.021.23.115a.491.491 0 0 1-.23.382l-6.86 3.961c-.127.073-.23.021-.23-.116a.493.493 0 0 1 .23-.381ZM35.67 31.786l6.861-3.961c.127-.073.23-.021.23.117a.492.492 0 0 1-.23.38l-6.86 3.961c-.127.073-.23.021-.23-.115a.491.491 0 0 1 .23-.382ZM35.67 32.78l6.861-3.96c.127-.074.23-.022.23.115a.491.491 0 0 1-.23.381l-6.86 3.962c-.127.073-.23.02-.23-.117a.493.493 0 0 1 .23-.38ZM35.67 33.774l6.861-3.962c.127-.073.23-.02.23.117a.492.492 0 0 1-.23.38l-6.86 3.962c-.127.073-.23.021-.23-.116a.491.491 0 0 1 .23-.381ZM35.67 34.768l6.861-3.961c.127-.073.23-.021.23.115a.491.491 0 0 1-.23.382l-6.86 3.961c-.127.073-.23.021-.23-.116a.493.493 0 0 1 .23-.38Z"/><path fill="#407BFF" d="m25.334 32.285 9.01-5.203c.127-.073.23-.014.23.132v8.917a.507.507 0 0 1-.23.398l-9.01 5.203c-.127.073-.23.014-.23-.132v-8.917a.506.506 0 0 1 .23-.398Z"/><path fill="#fff" d="m25.334 32.285 9.01-5.203c.127-.073.23-.014.23.132v8.917a.507.507 0 0 1-.23.398l-9.01 5.203c-.127.073-.23.014-.23-.132v-8.917a.506.506 0 0 1 .23-.398Z" opacity=".8"/><path fill="#407BFF" d="m32.066 32.14-1.506 2.665 1.06 1.373-3.498-3.014-3.015 6.526v1.907c0 .147.106.206.23.133l9.01-5.204a.506.506 0 0 0 .23-.397v-1.696l-2.51-2.293ZM32.427 29.397c.375-.212.679-.041.679.392a1.5 1.5 0 0 1-.679 1.176c-.375.217-.679.041-.679-.391a1.5 1.5 0 0 1 .68-1.177Z"/><path fill="#455A64" d="m19.309 27.811 23.223-13.408c.127-.073.23-.014.23.133v2.454a.505.505 0 0 1-.23.397L19.31 30.794c-.127.073-.23.014-.23-.133V28.21a.506.506 0 0 1 .23-.398Z"/><path fill="#FAFAFA" d="M34.149 20.52v.425c0 .086.063.122.138.079l6.752-3.899v-.742l-6.752 3.898a.307.307 0 0 0-.138.24Z"/><path fill="#407BFF" d="M41.764 15.967c.076-.045.138-.009.138.08v.423a.304.304 0 0 1-.138.239l-.723.417v-.742l.723-.417Z"/><path fill="#FAFAFA" d="m41.709 16.553-.08-.026a.492.492 0 0 0 .012-.106.19.19 0 0 0-.074-.171.116.116 0 0 0-.118.005.413.413 0 0 0-.161.336.19.19 0 0 0 .074.172c.015.009.033.014.051.013a.137.137 0 0 0 .067-.019.345.345 0 0 0 .13-.175l.08.026h.01a.029.029 0 0 0 .028-.02.03.03 0 0 0-.003-.021.03.03 0 0 0-.016-.014Zm-.263.155a.054.054 0 0 1-.057 0 .14.14 0 0 1-.044-.12.362.362 0 0 1 .132-.284.074.074 0 0 1 .036-.012c.007 0 .015.002.02.006a.138.138 0 0 1 .044.12.357.357 0 0 1-.131.29Z"/><path fill="#407BFF" d="M25.107 28.209v2.955c0 .146.106.206.23.133l17.195-9.927a.506.506 0 0 0 .23-.398V18.02c0-.146-.106-.206-.23-.133l-17.198 9.924a.507.507 0 0 0-.227.398Z"/><path fill="#fff" d="M25.107 28.209v2.955c0 .146.106.206.23.133l17.195-9.927a.506.506 0 0 0 .23-.398V18.02c0-.146-.106-.206-.23-.133l-17.198 9.924a.507.507 0 0 0-.227.398Z" opacity=".7"/><path fill="#E6E6E6" d="M43.621 11.289v1.492L18.218 27.448v-1.493l.472-.273c.126-.074.168-.185.229-.398l.16-.555c.05-.193.106-.325.23-.398l5.475-3.162c.127-.073.227-.08.323.08l.196.356c.072.124.106.197.234.124l18.084-10.44Z"/><path fill="#fff" d="M42.544 10.832c.16-.092.29-.018.29.166a.636.636 0 0 1-.29.5c-.159.093-.288.018-.288-.166a.637.637 0 0 1 .288-.5ZM41.505 11.431c.16-.092.289-.017.289.168a.636.636 0 0 1-.289.499c-.16.092-.289.018-.289-.167a.636.636 0 0 1 .29-.5ZM40.67 12.482c.112-.195.112-.406 0-.471-.113-.065-.296.04-.408.236-.113.195-.113.406 0 .47.112.066.295-.04.407-.235Z"/><path fill="#455A64" d="m19.271 26.062-.36.212.137-.264a.069.069 0 0 0 0-.065c-.01-.012-.03 0-.041.02l-.195.376s0 .008-.005.014a.061.061 0 0 0 0 .019.04.04 0 0 0 0 .017l.005.007.195.15a.016.016 0 0 0 .02 0 .056.056 0 0 0 .021-.028.058.058 0 0 0 0-.061l-.137-.106.36-.212a.075.075 0 0 0 .03-.06c0-.016-.009-.027-.03-.019ZM19.572 25.888l.36-.212-.137-.106c-.012-.008-.013-.036 0-.06.012-.024.028-.037.04-.029l.196.15a.018.018 0 0 1 .005.008V25.675a.049.049 0 0 1-.005.014l-.198.387a.05.05 0 0 1-.02.022.015.015 0 0 1-.02 0 .066.066 0 0 1 0-.063l.137-.265-.36.212c-.016.008-.029 0-.029-.029a.077.077 0 0 1 .03-.065ZM20.753 24.852c0-.023-.02-.02-.03 0l-.049.12c-.085-.009-.186.074-.255.219-.09.189-.09.412 0 .498a.127.127 0 0 0 .162.01.442.442 0 0 0 .16-.197.06.06 0 0 0 0-.063c-.01-.01-.029 0-.04.024-.066.141-.174.204-.241.14-.067-.066-.067-.232 0-.373.047-.1.116-.159.175-.163l-.037.091c-.01.023 0 .046.014.036l.147-.096a.044.044 0 0 0 .016-.04l-.021-.206ZM24.626 21.85l.131-.277a.084.084 0 0 0 0-.087c-.015-.015-.04 0-.056.033l-.131.278-.131-.126c-.015-.015-.04 0-.057.032a.09.09 0 0 0 0 .086l.132.127-.134.278a.086.086 0 0 0 0 .086.023.023 0 0 0 .029 0 .085.085 0 0 0 .027-.034l.132-.278.131.127a.023.023 0 0 0 .029 0 .071.071 0 0 0 .027-.034.084.084 0 0 0 0-.087l-.129-.123Z" opacity=".5"/><path fill="#FAFAFA" d="M21.232 25.193v-.465a.506.506 0 0 1 .23-.397L42.1 12.421c.126-.072.229-.013.229.133v.465a.508.508 0 0 1-.23.397l-20.637 11.91c-.128.072-.23.013-.23-.133Z"/><path fill="#E0E0E0" d="M41.787 13.451a.062.062 0 0 1-.02 0 .063.063 0 0 1-.035-.07l.024-.188-.09-.064a.064.064 0 0 1-.024-.05.105.105 0 0 1 .038-.081l.135-.106a.038.038 0 0 0 .006-.01l.06-.198a.085.085 0 0 1 .069-.065.058.058 0 0 1 .053.032l.05.106.114-.044a.052.052 0 0 1 .06.014.083.083 0 0 1 0 .093l-.097.183v.01l.023.167a.106.106 0 0 1-.03.083.065.065 0 0 1-.052.02l-.106-.014-.12.153a.069.069 0 0 1-.058.03Zm-.064-.382.088.063a.067.067 0 0 1 .024.064l-.016.125.08-.106a.064.064 0 0 1 .061-.028l.106.012a.018.018 0 0 0 0-.011l-.022-.166a.096.096 0 0 1 .012-.06l.084-.16-.088.034a.053.053 0 0 1-.069-.027l-.04-.086-.054.176a.092.092 0 0 1-.033.05l-.134.106v.014Z"/><g fill="#455A64" opacity=".5"><path d="M42.6 12.365a.08.08 0 0 1-.074-.11.08.08 0 0 1 .034-.039l.645-.373a.08.08 0 0 1 .106.03.078.078 0 0 1-.03.106l-.645.373a.079.079 0 0 1-.036.013ZM42.6 12.738a.08.08 0 0 1-.074-.11.079.079 0 0 1 .034-.038l.645-.374a.08.08 0 0 1 .106.03.079.079 0 0 1-.03.106l-.645.373a.078.078 0 0 1-.036.013ZM42.6 13.111a.08.08 0 0 1-.077-.059.08.08 0 0 1 .037-.09l.645-.373a.08.08 0 0 1 .106.03.079.079 0 0 1-.03.106l-.645.373a.08.08 0 0 1-.036.013Z"/></g><path fill="#E0E0E0" d="M18.218 25.955v1.493l-.431-.25v-1.491l.431.248Z"/></svg>