<svg width="57" height="56" viewBox="0 0 57 56" fill="none" xmlns="http://www.w3.org/2000/svg">
<path d="M36.2498 14.7471L18.366 17.2297L21.7747 41.7847L39.6585 39.3021L36.2498 14.7471Z" fill="#407BFF" stroke="#263238" stroke-width="0.112" stroke-miterlimit="10"/>
<path d="M35.9209 15.3624L18.8501 17.7322L22.1039 41.1715L39.1748 38.8018L35.9209 15.3624Z" fill="white" stroke="#263238" stroke-width="0.112" stroke-linecap="round" stroke-linejoin="round"/>
<path d="M30.5438 18.1875L35.0481 17.4656" stroke="#263238" stroke-width="0.112" stroke-linecap="round" stroke-linejoin="round"/>
<path d="M20.6987 19.7641L22.743 19.4373" stroke="#263238" stroke-width="0.112" stroke-linecap="round" stroke-linejoin="round"/>
<path d="M35.1016 22.2496L35.7815 22.1412" stroke="#263238" stroke-width="0.112" stroke-linecap="round" stroke-linejoin="round"/>
<path d="M32.0011 22.7463L34.7244 22.3098" stroke="#263238" stroke-width="0.112" stroke-linecap="round" stroke-linejoin="round"/>
<path d="M30.4202 22.9998L31.5526 22.8184" stroke="#263238" stroke-width="0.112" stroke-linecap="round" stroke-linejoin="round"/>
<path d="M27.2116 23.5135L29.9163 23.08" stroke="#263238" stroke-width="0.112" stroke-linecap="round" stroke-linejoin="round"/>
<path d="M25.1452 23.8454L26.736 23.5903" stroke="#263238" stroke-width="0.112" stroke-linecap="round" stroke-linejoin="round"/>
<path d="M21.4322 24.44L24.6417 23.9254" stroke="#263238" stroke-width="0.112" stroke-linecap="round" stroke-linejoin="round"/>
<path d="M33.9077 23.9407L36.2272 23.5689" stroke="#263238" stroke-width="0.112" stroke-linecap="round" stroke-linejoin="round"/>
<path d="M29.0995 24.7108L33.3775 24.0253" stroke="#263238" stroke-width="0.112" stroke-linecap="round" stroke-linejoin="round"/>
<path d="M25.8189 25.2366L28.3262 24.8353" stroke="#263238" stroke-width="0.112" stroke-linecap="round" stroke-linejoin="round"/>
<path d="M21.876 25.8675L25.3603 25.3102" stroke="#263238" stroke-width="0.112" stroke-linecap="round" stroke-linejoin="round"/>
<path d="M34.8595 25.3343L36.3482 25.0956" stroke="#263238" stroke-width="0.112" stroke-linecap="round" stroke-linejoin="round"/>
<path d="M30.7611 25.9907L34.3916 25.4095" stroke="#263238" stroke-width="0.112" stroke-linecap="round" stroke-linejoin="round"/>
<path d="M29.8353 26.1394L30.4189 26.0457" stroke="#263238" stroke-width="0.112" stroke-linecap="round" stroke-linejoin="round"/>
<path d="M27.0763 26.5809L29.4224 26.2057" stroke="#263238" stroke-width="0.112" stroke-linecap="round" stroke-linejoin="round"/>
<path d="M22.8261 27.2619L26.7085 26.6395" stroke="#263238" stroke-width="0.112" stroke-linecap="round" stroke-linejoin="round"/>
<path d="M21.9977 27.394L22.485 27.3171" stroke="#263238" stroke-width="0.112" stroke-linecap="round" stroke-linejoin="round"/>
<path d="M33.4309 27.0635L36.537 26.5651" stroke="#263238" stroke-width="0.112" stroke-linecap="round" stroke-linejoin="round"/>
<path d="M28.2453 27.8936L32.8737 27.1526" stroke="#263238" stroke-width="0.112" stroke-linecap="round" stroke-linejoin="round"/>
<path d="M26.9513 28.1011L27.7601 27.9707" stroke="#263238" stroke-width="0.112" stroke-linecap="round" stroke-linejoin="round"/>
<path d="M22.1865 28.8635L26.3218 28.2012" stroke="#263238" stroke-width="0.112" stroke-linecap="round" stroke-linejoin="round"/>
<path d="M30.106 29.0956L30.576 29.0195" stroke="#263238" stroke-width="0.112" stroke-linecap="round" stroke-linejoin="round"/>
<path d="M26.2956 29.7059L29.6385 29.1696" stroke="#263238" stroke-width="0.112" stroke-linecap="round" stroke-linejoin="round"/>
<path d="M22.3754 30.3329L25.7564 29.792" stroke="#263238" stroke-width="0.112" stroke-linecap="round" stroke-linejoin="round"/>
<path opacity="0.2" d="M43.9914 14.713C42.4638 14.713 41.0935 15.2956 40.153 16.219L40.6352 14.053L39.583 14.6458C39.1471 14.8124 38.7456 15.0578 38.3985 15.3697C37.8069 15.8952 37.5435 16.8163 37.5435 16.8163L39.4519 15.9613C39.4519 15.9613 37.4774 17.8036 37.4774 18.3303C37.4774 18.8569 37.3463 19.9741 37.3463 19.9741L38.8671 18.9481C38.8671 19.0279 38.8591 19.1089 38.8591 19.1898C38.8597 19.7766 38.9905 20.356 39.2421 20.8861C39.0547 21.2122 38.9461 21.5776 38.9252 21.9532C38.9173 22.3568 38.9842 22.7584 39.1224 23.1376L40.0971 22.1014C40.1655 22.1721 40.2362 22.2393 40.3103 22.3054L40.7013 23.1376L41.2941 23.8615L41.4252 23.1376L41.3443 23.0236C42.1619 23.4479 43.0703 23.6674 43.9914 23.6632C46.8254 23.6632 49.1214 21.6602 49.1214 19.1898C49.1214 16.7194 46.8254 14.713 43.9914 14.713Z" fill="black"/>
<path d="M46.9596 14.9123C46.1634 14.2706 45.1716 13.9207 44.1489 13.9207C43.1263 13.9207 42.1345 14.2706 41.3383 14.9123H39.6648V18.4041C39.6553 18.999 39.7642 19.5898 39.9853 20.1422C40.2064 20.6945 40.5352 21.1974 40.9526 21.6214C41.3699 22.0455 41.8674 22.3822 42.4162 22.6121C42.965 22.842 43.554 22.9604 44.1489 22.9604C44.7439 22.9604 45.3329 22.842 45.8817 22.6121C46.4305 22.3822 46.928 22.0455 47.3453 21.6214C47.7627 21.1974 48.0915 20.6945 48.3125 20.1422C48.5336 19.5898 48.6426 18.999 48.6331 18.4041V14.9123H46.9596Z" fill="#9E9E9E" stroke="#263238" stroke-width="0.112" stroke-linecap="round" stroke-linejoin="round"/>
<path d="M44.1483 19.396C46.6245 19.396 48.6319 17.3886 48.6319 14.9123C48.6319 12.4361 46.6245 10.4287 44.1483 10.4287C41.6721 10.4287 39.6647 12.4361 39.6647 14.9123C39.6647 17.3886 41.6721 19.396 44.1483 19.396Z" fill="#BDBDBD" stroke="#263238" stroke-width="0.112" stroke-linecap="round" stroke-linejoin="round"/>
<path d="M44.1489 18.9969C46.4048 18.9969 48.2336 17.1681 48.2336 14.9123C48.2336 12.6564 46.4048 10.8276 44.1489 10.8276C41.8931 10.8276 40.0643 12.6564 40.0643 14.9123C40.0643 17.1681 41.8931 18.9969 44.1489 18.9969Z" fill="#9E9E9E" stroke="#263238" stroke-width="0.112" stroke-linecap="round" stroke-linejoin="round"/>
<path d="M44.1488 18.996C46.2819 18.996 48.0111 17.3265 48.0111 15.267C48.0111 13.2076 46.2819 11.5381 44.1488 11.5381C42.0157 11.5381 40.2865 13.2076 40.2865 15.267C40.2865 17.3265 42.0157 18.996 44.1488 18.996Z" fill="#5C5C5C" stroke="#263238" stroke-width="0.112" stroke-linecap="round" stroke-linejoin="round"/>
<path d="M43.9425 14.7299V7.36206" stroke="#263238" stroke-width="0.224" stroke-linecap="round" stroke-linejoin="round"/>
<path d="M43.8804 13.4919C43.8804 13.4919 40.661 14.6684 39.6715 17.6393" stroke="#263238" stroke-width="0.224" stroke-linecap="round" stroke-linejoin="round"/>
<path d="M43.8808 9.66837C43.8808 9.66837 42.522 8.05869 39.7335 7.62549" stroke="#263238" stroke-width="0.224" stroke-linecap="round" stroke-linejoin="round"/>
<path d="M40.5906 15.9167C40.5906 15.9167 38.6047 15.4208 37.8021 16.2986C36.9996 17.1764 37.2321 18.476 37.2321 18.476C37.2321 18.476 37.4225 18.2844 38.4542 17.7498C39.4859 17.2151 40.5906 15.9167 40.5906 15.9167Z" fill="#407BFF" stroke="#263238" stroke-width="0.112" stroke-miterlimit="10"/>
<path d="M40.5904 15.9167C39.6865 16.1002 38.8537 16.5376 38.1896 17.1776L40.5904 15.9167Z" fill="#407BFF"/>
<path d="M40.5904 15.9167C39.6865 16.1002 38.8537 16.5376 38.1896 17.1776" stroke="#263238" stroke-width="0.112" stroke-miterlimit="10"/>
<path d="M39.7862 17.4683C39.7862 17.4683 37.9029 18.2663 37.7935 19.4553C37.684 20.6443 38.6462 21.5369 38.6462 21.5369C38.6462 21.5369 38.6827 21.2702 39.182 20.2214C39.6813 19.1726 39.7862 17.4683 39.7862 17.4683Z" fill="#407BFF" stroke="#263238" stroke-width="0.112" stroke-miterlimit="10"/>
<path d="M39.7858 17.4683C39.1733 18.1604 38.7714 19.0132 38.6276 19.9261L39.7858 17.4683Z" fill="#407BFF"/>
<path d="M39.7858 17.4683C39.1733 18.1604 38.7714 19.0132 38.6276 19.9261" stroke="#263238" stroke-width="0.112" stroke-miterlimit="10"/>
<path d="M41.488 14.9478C41.488 14.9478 43.3713 15.7458 43.4808 16.9348C43.5902 18.1238 42.6235 19.0164 42.6235 19.0164C42.6235 19.0164 42.587 18.7497 42.0877 17.7009C41.5884 16.6521 41.488 14.9478 41.488 14.9478Z" fill="#407BFF" stroke="#263238" stroke-width="0.112" stroke-miterlimit="10"/>
<path d="M41.488 14.9478C42.1005 15.6399 42.5024 16.4926 42.6463 17.4056L41.488 14.9478Z" fill="#407BFF"/>
<path d="M41.488 14.9478C42.1005 15.6399 42.5024 16.4926 42.6463 17.4056" stroke="#263238" stroke-width="0.112" stroke-miterlimit="10"/>
<path d="M43.8899 13.4966C43.8899 13.4966 45.7732 14.2946 45.8826 15.4836C45.9921 16.6726 45.0299 17.5652 45.0299 17.5652C45.0299 17.5652 44.9923 17.2973 44.493 16.2497C43.9936 15.202 43.8899 13.4966 43.8899 13.4966Z" fill="#407BFF" stroke="#263238" stroke-width="0.112" stroke-miterlimit="10"/>
<path d="M43.8899 13.4966C44.5021 14.1883 44.9036 15.0407 45.047 15.9533L43.8899 13.4966Z" fill="#407BFF"/>
<path d="M43.8899 13.4966C44.5021 14.1883 44.9036 15.0407 45.047 15.9533" stroke="#263238" stroke-width="0.112" stroke-miterlimit="10"/>
<path d="M41.6096 14.8006C41.6096 14.8006 40.3829 13.1601 39.2064 13.3379C38.03 13.5158 37.3824 14.6626 37.3824 14.6626C37.3824 14.6626 37.6515 14.6353 38.7881 14.8735C39.9246 15.1118 41.6096 14.8006 41.6096 14.8006Z" fill="#407BFF" stroke="#263238" stroke-width="0.112" stroke-miterlimit="10"/>
<path d="M41.6098 14.8007C40.7925 14.3693 39.869 14.1802 38.9479 14.2557L41.6098 14.8007Z" fill="#407BFF"/>
<path d="M41.6098 14.8007C40.7925 14.3693 39.869 14.1802 38.9479 14.2557" stroke="#263238" stroke-width="0.112" stroke-miterlimit="10"/>
<path d="M43.922 12.7681C43.922 12.7681 47.1402 13.9445 48.1309 16.9154" stroke="#263238" stroke-width="0.224" stroke-linecap="round" stroke-linejoin="round"/>
<path d="M47.2119 15.1974C47.2119 15.1974 49.1978 14.7003 49.9992 15.5793C50.8006 16.4582 50.5692 17.7555 50.5692 17.7555C50.5692 17.7555 50.3777 17.5652 49.3471 17.0305C48.3166 16.4958 47.2119 15.1974 47.2119 15.1974Z" fill="#407BFF" stroke="#263238" stroke-width="0.112" stroke-miterlimit="10"/>
<path d="M47.2119 15.1973C48.1175 15.3789 48.9522 15.816 49.6173 16.457L47.2119 15.1973Z" fill="#407BFF"/>
<path d="M47.2119 15.1973C48.1175 15.3789 48.9522 15.816 49.6173 16.457" stroke="#263238" stroke-width="0.112" stroke-miterlimit="10"/>
<path d="M48.0181 16.7488C48.0181 16.7488 49.9013 17.5468 50.0108 18.7358C50.1202 19.9248 49.1535 20.8174 49.1535 20.8174C49.1535 20.8174 49.1159 20.5495 48.6166 19.5007C48.1172 18.4519 48.0181 16.7488 48.0181 16.7488Z" fill="#407BFF" stroke="#263238" stroke-width="0.112" stroke-miterlimit="10"/>
<path d="M48.0181 16.7488C48.6304 17.4406 49.0322 18.2929 49.1763 19.2055L48.0181 16.7488Z" fill="#407BFF"/>
<path d="M48.0181 16.7488C48.6304 17.4406 49.0322 18.2929 49.1763 19.2055" stroke="#263238" stroke-width="0.112" stroke-miterlimit="10"/>
<path d="M46.3146 14.2273C46.3146 14.2273 44.4313 15.0253 44.3219 16.2155C44.2124 17.4056 45.1791 18.296 45.1791 18.296C45.1791 18.296 45.2156 18.0292 45.7149 16.9804C46.2143 15.9316 46.3146 14.2273 46.3146 14.2273Z" fill="#407BFF" stroke="#263238" stroke-width="0.112" stroke-miterlimit="10"/>
<path d="M46.3149 14.2273C45.7024 14.9194 45.3005 15.7722 45.1566 16.6851L46.3149 14.2273Z" fill="#407BFF"/>
<path d="M46.3149 14.2273C45.7024 14.9194 45.3005 15.7722 45.1566 16.6851" stroke="#263238" stroke-width="0.112" stroke-miterlimit="10"/>
<path d="M46.1937 14.0801C46.1937 14.0801 47.4192 12.4396 48.5957 12.6141C49.7722 12.7885 50.4197 13.9376 50.4197 13.9376C50.4197 13.9376 50.1507 13.9114 49.0141 14.1485C47.8775 14.3856 46.1937 14.0801 46.1937 14.0801Z" fill="#407BFF" stroke="#263238" stroke-width="0.112" stroke-miterlimit="10"/>
<path d="M46.1937 14.0802C47.011 13.6488 47.9345 13.4598 48.8556 13.5353L46.1937 14.0802Z" fill="#407BFF"/>
<path d="M46.1937 14.0802C47.011 13.6488 47.9345 13.4598 48.8556 13.5353" stroke="#263238" stroke-width="0.112" stroke-miterlimit="10"/>
<path d="M43.8998 13.4634C43.8998 13.4634 42.6743 11.8229 41.4955 11.9974C40.3167 12.1718 39.6715 13.322 39.6715 13.322C39.6715 13.322 39.9405 13.2947 41.0771 13.5318C42.2137 13.7689 43.8998 13.4634 43.8998 13.4634Z" fill="#407BFF" stroke="#263238" stroke-width="0.112" stroke-miterlimit="10"/>
<path d="M43.8999 13.4634C43.0826 13.032 42.159 12.8433 41.238 12.9196L43.8999 13.4634Z" fill="#407BFF"/>
<path d="M43.8999 13.4634C43.0826 13.032 42.159 12.8433 41.238 12.9196" stroke="#263238" stroke-width="0.112" stroke-miterlimit="10"/>
<path d="M43.834 9.55437C43.834 9.55437 41.782 9.51675 41.2029 10.553C40.6238 11.5893 41.1333 12.8034 41.1333 12.8034C41.1333 12.8034 41.277 12.5754 42.1593 11.8207C43.0417 11.066 43.834 9.55437 43.834 9.55437Z" fill="#407BFF" stroke="#263238" stroke-width="0.112" stroke-miterlimit="10"/>
<path d="M43.8337 9.55444C42.9919 9.93492 42.2767 10.5485 41.7726 11.3226L43.8337 9.55444Z" fill="#407BFF"/>
<path d="M43.8337 9.55444C42.9919 9.93492 42.2767 10.5485 41.7726 11.3226" stroke="#263238" stroke-width="0.112" stroke-miterlimit="10"/>
<path d="M41.0396 7.85689C41.0396 7.85689 39.5474 6.45583 38.4176 6.83089C37.2879 7.20595 36.8558 8.45311 36.8558 8.45311C36.8558 8.45311 37.1158 8.37901 38.2774 8.41435C39.4391 8.44969 41.0396 7.85689 41.0396 7.85689Z" fill="#407BFF" stroke="#263238" stroke-width="0.112" stroke-miterlimit="10"/>
<path d="M41.0396 7.8569C40.1598 7.57439 39.2176 7.54947 38.3241 7.78508L41.0396 7.8569Z" fill="#407BFF"/>
<path d="M41.0396 7.8569C40.1598 7.57439 39.2176 7.54947 38.3241 7.78508" stroke="#263238" stroke-width="0.112" stroke-miterlimit="10"/>
<path d="M42.0385 8.4008C42.0385 8.4008 39.9945 8.2868 39.3732 9.30368C38.7519 10.3206 39.2215 11.5495 39.2215 11.5495C39.2215 11.5495 39.3732 11.3215 40.2852 10.6056C41.1972 9.88964 42.0385 8.4008 42.0385 8.4008Z" fill="#407BFF" stroke="#263238" stroke-width="0.112" stroke-miterlimit="10"/>
<path d="M42.0387 8.40063C41.1834 8.75078 40.4461 9.33817 39.9137 10.0935L42.0387 8.40063Z" fill="#407BFF"/>
<path d="M42.0387 8.40063C41.1834 8.75078 40.4461 9.33817 39.9137 10.0935" stroke="#263238" stroke-width="0.112" stroke-miterlimit="10"/>
<path d="M42.5469 8.52846C42.5469 8.52846 42.9824 6.5289 42.0807 5.7537C41.1789 4.9785 39.8873 5.24412 39.8873 5.24412C39.8873 5.24412 40.0834 5.42994 40.6488 6.44454C41.2143 7.45914 42.5469 8.52846 42.5469 8.52846Z" fill="#407BFF" stroke="#263238" stroke-width="0.112" stroke-miterlimit="10"/>
<path d="M42.547 8.5285C42.3375 7.6287 41.8751 6.80755 41.2144 6.16187L42.547 8.5285Z" fill="#407BFF"/>
<path d="M42.547 8.5285C42.3375 7.6287 41.8751 6.80755 41.2144 6.16187" stroke="#263238" stroke-width="0.112" stroke-miterlimit="10"/>
<path d="M43.9934 11.9597C43.9934 11.9597 45.3557 10.3512 48.1407 9.91797" stroke="#263238" stroke-width="0.224" stroke-linecap="round" stroke-linejoin="round"/>
<path d="M44.0411 11.8459C44.0411 11.8459 46.0874 11.8083 46.6711 12.8445C47.2548 13.8808 46.7407 15.0949 46.7407 15.0949C46.7407 15.0949 46.597 14.8669 45.7147 14.1133C44.8323 13.3598 44.0411 11.8459 44.0411 11.8459Z" fill="#407BFF" stroke="#263238" stroke-width="0.112" stroke-miterlimit="10"/>
<path d="M44.0411 11.8457C44.8829 12.2267 45.5981 12.8406 46.1023 13.615L44.0411 11.8457Z" fill="#407BFF"/>
<path d="M44.0411 11.8457C44.8829 12.2267 45.5981 12.8406 46.1023 13.615" stroke="#263238" stroke-width="0.112" stroke-miterlimit="10"/>
<path d="M46.8412 10.146C46.8412 10.146 48.3334 8.74489 49.4632 9.11995C50.5929 9.49501 51.0238 10.7422 51.0238 10.7422C51.0238 10.7422 50.7639 10.6681 49.6034 10.7034C48.4429 10.7388 46.8412 10.146 46.8412 10.146Z" fill="#407BFF" stroke="#263238" stroke-width="0.112" stroke-miterlimit="10"/>
<path d="M46.8412 10.1461C47.7209 9.86342 48.6632 9.8385 49.5567 10.0742L46.8412 10.1461Z" fill="#407BFF"/>
<path d="M46.8412 10.1461C47.7209 9.86342 48.6632 9.8385 49.5567 10.0742" stroke="#263238" stroke-width="0.112" stroke-miterlimit="10"/>
<path d="M45.8367 10.6933C45.8367 10.6933 47.8807 10.5793 48.502 11.595C49.1233 12.6108 48.6525 13.8408 48.6525 13.8408C48.6525 13.8408 48.5009 13.6128 47.59 12.8969C46.6791 12.181 45.8367 10.6933 45.8367 10.6933Z" fill="#407BFF" stroke="#263238" stroke-width="0.112" stroke-miterlimit="10"/>
<path d="M45.8367 10.6934C46.6916 11.043 47.4285 11.63 47.9605 12.3851L45.8367 10.6934Z" fill="#407BFF"/>
<path d="M45.8367 10.6934C46.6916 11.043 47.4285 11.63 47.9605 12.3851" stroke="#263238" stroke-width="0.112" stroke-miterlimit="10"/>
<path d="M45.3283 10.8197C45.3283 10.8197 44.8917 8.82017 45.7946 8.04497C46.6975 7.26977 47.9936 7.53767 47.9936 7.53767C47.9936 7.53767 47.7964 7.72349 47.231 8.73809C46.6655 9.75269 45.3283 10.8197 45.3283 10.8197Z" fill="#407BFF" stroke="#263238" stroke-width="0.112" stroke-miterlimit="10"/>
<path d="M45.3282 10.8198C45.5377 9.91996 46.0001 9.09881 46.6609 8.45312L45.3282 10.8198Z" fill="#407BFF"/>
<path d="M45.3282 10.8198C45.5377 9.91996 46.0001 9.09881 46.6609 8.45312" stroke="#263238" stroke-width="0.112" stroke-miterlimit="10"/>
<path d="M43.9172 7.95035C43.9172 7.95035 45.2795 6.34067 48.0646 5.90747" stroke="#263238" stroke-width="0.224" stroke-linecap="round" stroke-linejoin="round"/>
<path d="M43.9651 7.83538C43.9651 7.83538 46.0114 7.79776 46.5951 8.83402C47.1787 9.87028 46.6646 11.0844 46.6646 11.0844C46.6646 11.0844 46.521 10.8564 45.6386 10.1028C44.7562 9.3493 43.9651 7.83538 43.9651 7.83538Z" fill="#407BFF" stroke="#263238" stroke-width="0.112" stroke-miterlimit="10"/>
<path d="M43.9651 7.83521C44.8069 8.2162 45.5221 8.83013 46.0262 9.60448L43.9651 7.83521Z" fill="#407BFF"/>
<path d="M43.9651 7.83521C44.8069 8.2162 45.5221 8.83013 46.0262 9.60448" stroke="#263238" stroke-width="0.112" stroke-miterlimit="10"/>
<path d="M44.0096 7.77261C44.0096 7.77261 42.7727 6.14127 43.2664 5.05827C43.76 3.97527 45.0436 3.67773 45.0436 3.67773C45.0436 3.67773 44.9433 3.92853 44.8567 5.08677C44.77 6.24501 44.0096 7.77261 44.0096 7.77261Z" fill="#407BFF" stroke="#263238" stroke-width="0.112" stroke-miterlimit="10"/>
<path d="M44.0094 7.77269C43.8212 6.86821 43.8956 5.92879 44.2237 5.06519L44.0094 7.77269Z" fill="#407BFF"/>
<path d="M44.0094 7.77269C43.8212 6.86821 43.8956 5.92879 44.2237 5.06519" stroke="#263238" stroke-width="0.112" stroke-miterlimit="10"/>
<path d="M46.765 6.1379C46.765 6.1379 48.2573 4.73684 49.387 5.1119C50.5168 5.48696 50.9465 6.73526 50.9465 6.73526C50.9465 6.73526 50.6866 6.66116 49.5261 6.6965C48.3656 6.73184 46.765 6.1379 46.765 6.1379Z" fill="#407BFF" stroke="#263238" stroke-width="0.112" stroke-miterlimit="10"/>
<path d="M46.765 6.1378C47.6435 5.85674 48.5838 5.83183 49.4759 6.06598L46.765 6.1378Z" fill="#407BFF"/>
<path d="M46.765 6.1378C47.6435 5.85674 48.5838 5.83183 49.4759 6.06598" stroke="#263238" stroke-width="0.112" stroke-miterlimit="10"/>
<path d="M45.7605 6.68279C45.7605 6.68279 47.8045 6.56879 48.4258 7.58453C49.0471 8.60027 48.5763 9.83033 48.5763 9.83033C48.5763 9.83033 48.4247 9.60233 47.5138 8.88755C46.603 8.17277 45.7605 6.68279 45.7605 6.68279Z" fill="#407BFF" stroke="#263238" stroke-width="0.112" stroke-miterlimit="10"/>
<path d="M45.7605 6.68286C46.6137 7.03393 47.3489 7.62124 47.8798 8.37576L45.7605 6.68286Z" fill="#407BFF"/>
<path d="M45.7605 6.68286C46.6137 7.03393 47.3489 7.62124 47.8798 8.37576" stroke="#263238" stroke-width="0.112" stroke-miterlimit="10"/>
<path d="M45.2576 6.81045C45.2576 6.81045 44.8153 4.80975 45.7136 4.03455C46.6119 3.25935 47.9115 3.53409 47.9115 3.53409C47.9115 3.53409 47.7143 3.71877 47.1488 4.73337C46.5834 5.74797 45.2576 6.81045 45.2576 6.81045Z" fill="#407BFF" stroke="#263238" stroke-width="0.112" stroke-miterlimit="10"/>
<path d="M45.2579 6.81041C45.4663 5.91208 45.9266 5.09186 46.5849 4.44604L45.2579 6.81041Z" fill="#407BFF"/>
<path d="M45.2579 6.8104C45.4663 5.91208 45.9266 5.09186 46.5849 4.44604" stroke="#263238" stroke-width="0.112" stroke-miterlimit="10"/>
<path d="M43.8719 9.85432C43.8719 9.85432 44.7702 8.01436 44.0783 7.04764C43.3863 6.08092 42.0662 6.03418 42.0662 6.03418C42.0662 6.03418 42.2132 6.26218 42.5222 7.38052C42.8311 8.49886 43.8719 9.85432 43.8719 9.85432Z" fill="#407BFF" stroke="#263238" stroke-width="0.112" stroke-miterlimit="10"/>
<path d="M43.8719 9.85409C43.8822 8.93008 43.6283 8.02235 43.14 7.23779L43.8719 9.85409Z" fill="#407BFF"/>
<path d="M43.8719 9.85409C43.8822 8.93008 43.6283 8.02235 43.14 7.23779" stroke="#263238" stroke-width="0.112" stroke-miterlimit="10"/>
<path opacity="0.2" d="M51.6063 27.2351L46.087 24.9591C45.6406 24.775 45.1294 24.9876 44.9453 25.4341L40.0534 37.2968C39.8693 37.7433 40.082 38.2544 40.5284 38.4385L46.0478 40.7146C46.4942 40.8987 47.0053 40.686 47.1894 40.2396L52.0813 28.3768C52.2654 27.9303 52.0528 27.4192 51.6063 27.2351Z" fill="black"/>
<path d="M51.8616 27.2344L46.3423 24.9583C45.8958 24.7742 45.3847 24.9869 45.2006 25.4333L40.3087 37.2961C40.1246 37.7426 40.3373 38.2537 40.7837 38.4378L46.303 40.7138C46.7494 40.8979 47.2606 40.6853 47.4447 40.2388L52.3366 28.3761C52.5207 27.9296 52.308 27.4185 51.8616 27.2344Z" fill="white" stroke="#263238" stroke-width="0.112" stroke-linecap="round" stroke-linejoin="round"/>
<path d="M51.7419 28.9176L45.2404 26.2366L40.9026 36.7556L47.4041 39.4367L51.7419 28.9176Z" fill="#263238" stroke="#263238" stroke-width="0.112" stroke-linecap="round" stroke-linejoin="round"/>
<path d="M44.1224 34.3926L42.4136 34.9124" stroke="#8A8A8A" stroke-width="0.112" stroke-linecap="round" stroke-linejoin="round"/>
<path d="M50.0483 32.5891L44.6459 34.233" stroke="#8A8A8A" stroke-width="0.112" stroke-linecap="round" stroke-linejoin="round"/>
<path d="M46.8824 32.9687L47.2598 32.8547" stroke="#8A8A8A" stroke-width="0.112" stroke-linecap="round" stroke-linejoin="round"/>
<path d="M43.0773 34.1157L46.4198 33.1079" stroke="#8A8A8A" stroke-width="0.112" stroke-linecap="round" stroke-linejoin="round"/>
<path d="M49.4999 27.1319L48.0863 26.5494C48.0736 26.5442 48.0621 26.5366 48.0524 26.527C48.0426 26.5174 48.0349 26.506 48.0296 26.4934C48.0243 26.4808 48.0215 26.4672 48.0215 26.4536C48.0214 26.4399 48.0241 26.4263 48.0293 26.4137C48.0344 26.401 48.042 26.3895 48.0516 26.3797C48.0612 26.37 48.0727 26.3623 48.0853 26.357C48.0979 26.3517 48.1114 26.3489 48.1251 26.3489C48.1388 26.3488 48.1523 26.3515 48.165 26.3567L49.5786 26.9392C49.6042 26.9498 49.6247 26.9702 49.6354 26.9958C49.646 27.0215 49.6461 27.0503 49.6356 27.076C49.6303 27.0886 49.6227 27.1 49.613 27.1096C49.6033 27.1193 49.5919 27.1269 49.5793 27.1321C49.5667 27.1372 49.5532 27.1399 49.5396 27.1399C49.526 27.1398 49.5125 27.1371 49.4999 27.1319Z" fill="#263238"/>
<path d="M44.2915 38.85C44.3227 38.7737 44.3306 38.6898 44.3141 38.609C44.2977 38.5281 44.2577 38.454 44.1991 38.3959C44.1405 38.3378 44.0661 38.2984 43.9851 38.2826C43.9041 38.2668 43.8203 38.2754 43.7442 38.3072C43.6681 38.3391 43.6032 38.3928 43.5576 38.4615C43.512 38.5302 43.4878 38.6109 43.488 38.6934C43.4883 38.7759 43.513 38.8565 43.559 38.9249C43.605 38.9934 43.6703 39.0466 43.7466 39.078C43.7973 39.0989 43.8517 39.1095 43.9065 39.1094C43.9614 39.1092 44.0157 39.0982 44.0663 39.077C44.1169 39.0559 44.1629 39.0249 44.2015 38.986C44.2402 38.947 44.2707 38.9008 44.2915 38.85Z" fill="white" stroke="#263238" stroke-width="0.0788853" stroke-miterlimit="10"/>
<path d="M44.1846 38.5748L43.7936 38.4136L43.6323 38.8046L44.0233 38.9658L44.1846 38.5748Z" fill="#263238"/>
<path d="M32.9882 18.4068L15.3844 22.4192L20.8936 46.5897L38.4974 42.5773L32.9882 18.4068Z" fill="#407BFF" stroke="#263238" stroke-width="0.112" stroke-miterlimit="10"/>
<path d="M32.7136 19.0484L15.91 22.8784L21.1689 45.9508L37.9725 42.1208L32.7136 19.0484Z" fill="white" stroke="#263238" stroke-width="0.112" stroke-linecap="round" stroke-linejoin="round"/>
<path d="M27.5995 22.3257L32.025 21.2188" stroke="#263238" stroke-width="0.112" stroke-linecap="round" stroke-linejoin="round"/>
<path d="M17.9266 24.7435L19.9353 24.2419" stroke="#263238" stroke-width="0.112" stroke-linecap="round" stroke-linejoin="round"/>
<path d="M32.4901 25.9806L33.1582 25.8142" stroke="#263238" stroke-width="0.112" stroke-linecap="round" stroke-linejoin="round"/>
<path d="M29.4437 26.7419L32.1193 26.0728" stroke="#263238" stroke-width="0.112" stroke-linecap="round" stroke-linejoin="round"/>
<path d="M27.8905 27.1307L29.0031 26.8525" stroke="#263238" stroke-width="0.112" stroke-linecap="round" stroke-linejoin="round"/>
<path d="M24.738 27.9185L27.3954 27.2539" stroke="#263238" stroke-width="0.112" stroke-linecap="round" stroke-linejoin="round"/>
<path d="M22.7079 28.4269L24.2708 28.0359" stroke="#263238" stroke-width="0.112" stroke-linecap="round" stroke-linejoin="round"/>
<path d="M19.0598 29.3389L22.2131 28.55" stroke="#263238" stroke-width="0.112" stroke-linecap="round" stroke-linejoin="round"/>
<path d="M31.4462 27.768L33.725 27.198" stroke="#263238" stroke-width="0.112" stroke-linecap="round" stroke-linejoin="round"/>
<path d="M26.722 28.949L30.9252 27.8979" stroke="#263238" stroke-width="0.112" stroke-linecap="round" stroke-linejoin="round"/>
<path d="M23.4988 29.755L25.9623 29.1394" stroke="#263238" stroke-width="0.112" stroke-linecap="round" stroke-linejoin="round"/>
<path d="M19.6249 30.7229L23.0483 29.8679" stroke="#263238" stroke-width="0.112" stroke-linecap="round" stroke-linejoin="round"/>
<path d="M32.5143 29.0744L33.9769 28.7085" stroke="#263238" stroke-width="0.112" stroke-linecap="round" stroke-linejoin="round"/>
<path d="M28.4875 30.0812L32.0546 29.1897" stroke="#263238" stroke-width="0.112" stroke-linecap="round" stroke-linejoin="round"/>
<path d="M27.578 30.3092L28.1514 30.1655" stroke="#263238" stroke-width="0.112" stroke-linecap="round" stroke-linejoin="round"/>
<path d="M24.8673 30.9863L27.1724 30.4106" stroke="#263238" stroke-width="0.112" stroke-linecap="round" stroke-linejoin="round"/>
<path d="M20.6914 32.0306L24.5058 31.0764" stroke="#263238" stroke-width="0.112" stroke-linecap="round" stroke-linejoin="round"/>
<path d="M19.8774 32.2336L20.3562 32.115" stroke="#263238" stroke-width="0.112" stroke-linecap="round" stroke-linejoin="round"/>
<path d="M31.2397 30.9201L34.2915 30.1562" stroke="#263238" stroke-width="0.112" stroke-linecap="round" stroke-linejoin="round"/>
<path d="M26.1449 32.1935L30.6924 31.0569" stroke="#263238" stroke-width="0.112" stroke-linecap="round" stroke-linejoin="round"/>
<path d="M24.8735 32.5115L25.6681 32.312" stroke="#263238" stroke-width="0.112" stroke-linecap="round" stroke-linejoin="round"/>
<path d="M20.192 33.6813L24.255 32.6655" stroke="#263238" stroke-width="0.112" stroke-linecap="round" stroke-linejoin="round"/>
<path d="M28.1021 33.231L28.5638 33.1147" stroke="#263238" stroke-width="0.112" stroke-linecap="round" stroke-linejoin="round"/>
<path d="M24.3584 34.1669L27.6427 33.345" stroke="#263238" stroke-width="0.112" stroke-linecap="round" stroke-linejoin="round"/>
<path d="M20.5066 35.129L23.8286 34.2991" stroke="#263238" stroke-width="0.112" stroke-linecap="round" stroke-linejoin="round"/>
<path opacity="0.2" d="M39.6445 42.4329C39.5203 40.9452 38.5912 37.5993 37.352 37.165C36.5848 36.8971 34.6468 37.7133 33.2822 38.3757C33.3962 37.8707 33.4748 37.3691 33.4748 37.3691L29.6741 33.4019L29.7277 33.916L31.0854 37.4865C31.0854 37.4865 30.5542 38.0759 30.6716 38.2845C30.789 38.4931 31.5574 38.6379 31.5574 38.6379C31.5574 38.6379 31.3214 38.6972 31.4684 39.0802C31.5885 39.3571 31.7474 39.6154 31.9404 39.8474L31.9814 39.8292C32.059 39.9128 32.1441 39.9891 32.2357 40.0572C32.9789 40.6158 33.1374 40.6397 33.1374 40.6397C33.1374 40.6397 33.4475 40.577 33.5717 42.189C33.696 43.8009 33.199 44.355 34.0049 45.3491C34.8109 46.3431 40.7594 53.1011 40.7594 53.1011C40.7594 53.1011 39.7688 43.9206 39.6445 42.4329Z" fill="black"/>
<path d="M33.0793 34.5521C33.0793 34.5521 32.3486 35.3501 31.7512 35.7469C31.1539 36.1436 30.7378 36.6714 31.2872 36.9404C31.6167 37.1023 32.0852 36.8743 32.0852 36.8743C32.0852 36.8743 31.3556 37.0738 31.2234 37.7373C31.0912 38.4008 32.5504 38.1352 32.5504 38.1352C32.5504 38.1352 31.4879 38.8659 31.8208 39.1315C32.1536 39.3971 32.816 39.1976 33.1477 39.1976C33.4795 39.1976 35.1382 38.1352 35.5417 38.1352C35.9453 38.1352 36.7364 38.9981 36.7364 39.6616C36.7364 40.3251 37.7978 40.259 37.93 38.2024C38.0623 36.1459 37.5322 34.4188 36.6692 33.8875C35.8062 33.3563 33.0793 34.5521 33.0793 34.5521Z" fill="white" stroke="#263238" stroke-width="0.112" stroke-linecap="round" stroke-linejoin="round"/>
<path d="M32.6799 36.8084L35.3293 35.8189C35.3293 35.8189 36.4921 35.5658 37.3266 36.9406" stroke="#263238" stroke-width="0.112" stroke-linecap="round" stroke-linejoin="round"/>
<path d="M33.1451 37.6052L35.5391 37.2062C35.5391 37.2062 36.6005 37.14 37.264 38.4009" stroke="#263238" stroke-width="0.112" stroke-linecap="round" stroke-linejoin="round"/>
<path d="M48.8717 51.9064C47.4113 50.5077 41.2337 45.136 41.1755 44.7723C41.1094 44.3745 40.8438 39.729 40.8438 39.0643C40.8438 38.3997 39.5168 36.8083 39.5168 36.8083C39.5168 36.8083 38.9719 36.0274 38.7063 34.7004C38.4407 33.3735 37.2243 32.8274 36.5585 32.8935C35.8928 32.9596 34.0745 33.158 33.3449 33.6915C32.6153 34.225 31.9507 34.8862 32.6141 35.0846C33.7165 35.4152 35.5211 33.9446 36.391 34.9615C36.7888 35.4266 37.2596 37.4695 37.3269 37.7397C37.3523 37.8787 37.3429 38.022 37.2993 38.1565C37.2557 38.291 37.1794 38.4126 37.0772 38.5103C36.7585 38.7647 36.4199 38.9935 36.0649 39.1943C36.0649 39.1943 34.9865 39.5124 34.5214 39.5511C34.0562 39.5899 34.0562 41.8311 34.5601 42.4935C35.064 43.1558 35.7993 46.211 36.4183 46.9862C37.0088 47.7272 42.2939 55.632 42.2939 55.632" fill="white"/>
<path d="M48.8717 51.9064C47.4113 50.5077 41.2337 45.136 41.1755 44.7723C41.1094 44.3745 40.8438 39.729 40.8438 39.0643C40.8438 38.3997 39.5168 36.8083 39.5168 36.8083C39.5168 36.8083 38.9719 36.0274 38.7063 34.7004C38.4407 33.3735 37.2243 32.8274 36.5585 32.8935C35.8928 32.9596 34.0745 33.158 33.3449 33.6915C32.6153 34.225 31.9507 34.8862 32.6141 35.0846C33.7165 35.4152 35.5211 33.9446 36.391 34.9615C36.7888 35.4266 37.2596 37.4695 37.3269 37.7397C37.3523 37.8787 37.3429 38.022 37.2993 38.1565C37.2557 38.291 37.1794 38.4126 37.0772 38.5103C36.7585 38.7647 36.4199 38.9935 36.0649 39.1943C36.0649 39.1943 34.9865 39.5124 34.5214 39.5511C34.0562 39.5899 34.0562 41.8311 34.5601 42.4935C35.064 43.1558 35.7993 46.211 36.4183 46.9862C37.0088 47.7272 42.2939 55.632 42.2939 55.632" stroke="#263238" stroke-width="0.112" stroke-linecap="round" stroke-linejoin="round"/>
<path d="M29.4119 33.0656C29.4219 33.0547 29.4356 33.0479 29.4503 33.0464C29.465 33.045 29.4797 33.0489 29.4917 33.0576L29.812 33.2012C29.828 33.209 29.842 33.2201 29.8533 33.2338C29.8645 33.2475 29.8727 33.2634 29.8772 33.2806C29.8818 33.2977 29.8825 33.3156 29.8795 33.3331C29.8765 33.3505 29.8697 33.3671 29.8596 33.3817C29.8496 33.3963 29.8365 33.4086 29.8213 33.4177C29.8061 33.4268 29.7891 33.4325 29.7715 33.4344C29.7539 33.4363 29.736 33.4344 29.7192 33.4288C29.7024 33.4232 29.687 33.414 29.6741 33.4019L29.4233 33.1568C29.41 33.1474 29.401 33.1331 29.3982 33.1171C29.3955 33.1011 29.3991 33.0846 29.4085 33.0713L29.4119 33.0656Z" fill="#263238" stroke="#263238" stroke-width="0.112" stroke-linecap="round" stroke-linejoin="round"/>
<path d="M29.6947 33.2482C29.7409 33.1989 29.8033 33.1679 29.8704 33.1607C29.9376 33.1536 30.0051 33.1709 30.0606 33.2094L30.9111 33.6483L39.2593 39.1408C39.3337 39.1889 39.3976 39.2515 39.4473 39.3248C39.497 39.3981 39.5314 39.4807 39.5485 39.5676C39.5656 39.6545 39.5651 39.7439 39.5469 39.8306C39.5287 39.9173 39.4933 39.9994 39.4427 40.0721C39.3921 40.1448 39.3274 40.2066 39.2525 40.2538C39.1775 40.3009 39.0938 40.3325 39.0064 40.3467C38.919 40.3609 38.8296 40.3573 38.7436 40.3362C38.6576 40.3151 38.5767 40.2769 38.5057 40.2238L30.4026 34.2468L29.7391 33.6711C29.7089 33.65 29.683 33.6232 29.6631 33.5921C29.6433 33.5611 29.6297 33.5264 29.6232 33.49C29.6168 33.4537 29.6175 33.4165 29.6255 33.3804C29.6335 33.3444 29.6484 33.3103 29.6696 33.2801C29.6767 33.2685 29.6851 33.2578 29.6947 33.2482Z" fill="#407BFF" stroke="#263238" stroke-width="0.112" stroke-linecap="round" stroke-linejoin="round"/>
<path d="M39.2593 39.1407L36.8504 37.5549C36.6641 37.6087 36.4997 37.7205 36.3812 37.874C36.2627 38.0276 36.1963 38.2149 36.1915 38.4088C36.1923 38.4469 36.1953 38.485 36.2006 38.5228L38.5057 40.2225C38.5767 40.2756 38.6576 40.3138 38.7436 40.3349C38.8296 40.356 38.919 40.3595 39.0064 40.3454C39.0938 40.3312 39.1775 40.2996 39.2525 40.2525C39.3274 40.2053 39.3921 40.1435 39.4427 40.0708C39.4933 39.9981 39.5287 39.916 39.5469 39.8293C39.5651 39.7426 39.5656 39.6532 39.5485 39.5663C39.5314 39.4794 39.497 39.3968 39.4473 39.3235C39.3976 39.2502 39.3336 39.1876 39.2593 39.1395V39.1407Z" fill="#263238" stroke="#263238" stroke-width="0.112" stroke-linecap="round" stroke-linejoin="round"/>
<path d="M36.2256 46.6408C33.6036 43.6768 34.0402 42.0397 33.6412 41.5108C33.2422 40.9818 33.0062 40.4848 32.6083 39.2866C32.2105 38.0885 31.9506 37.1423 31.9506 36.1471C31.9506 35.1518 32.8056 34.9797 33.469 36.041C34.1325 37.1024 34.9374 38.7349 34.9374 38.7349C34.9374 38.7349 35.4675 39.3983 36.5334 39.2" fill="white"/>
<path d="M36.2256 46.6408C33.6036 43.6768 34.0402 42.0397 33.6412 41.5108C33.2422 40.9818 33.0062 40.4848 32.6083 39.2866C32.2105 38.0885 31.9506 37.1423 31.9506 36.1471C31.9506 35.1518 32.8056 34.9797 33.469 36.041C34.1325 37.1024 34.9374 38.7349 34.9374 38.7349C34.9374 38.7349 35.4675 39.3983 36.5334 39.2" stroke="#263238" stroke-width="0.112" stroke-linecap="round" stroke-linejoin="round"/>
<path d="M34.9375 38.7327C34.9375 38.7327 35.6819 39.436 36.0239 40.014" stroke="#263238" stroke-width="0.112" stroke-linecap="round" stroke-linejoin="round"/>
<path d="M32.7832 35.7287L33.0044 36.1722C33.0044 36.1722 32.9542 36.1722 32.6008 36.3751C32.3889 36.4952 32.2109 36.667 32.0832 36.8744C32.0832 36.8744 31.7412 35.9202 32.0445 35.6204C32.1182 35.5436 32.2151 35.4931 32.3204 35.4768C32.4141 35.4657 32.509 35.484 32.5919 35.5291C32.6748 35.5742 32.7416 35.644 32.7832 35.7287Z" fill="white" stroke="#263238" stroke-width="0.112" stroke-linecap="round" stroke-linejoin="round"/>
<path d="M33.7302 38.1444L33.8374 38.1318" stroke="#263238" stroke-width="0.112" stroke-linecap="round" stroke-linejoin="round"/>
<path d="M32.7361 38.6949C32.7361 38.6949 32.7976 38.3324 33.5272 38.1785" stroke="#263238" stroke-width="0.112" stroke-linecap="round" stroke-linejoin="round"/>
<path d="M33.5308 38.4397C33.5308 38.4397 33.4795 38.5925 32.9677 38.7977" stroke="#263238" stroke-width="0.112" stroke-linecap="round" stroke-linejoin="round"/>
<path d="M33.5094 37.9517C33.2536 37.9924 33.0106 38.0915 32.7992 38.2412" stroke="#263238" stroke-width="0.112" stroke-linecap="round" stroke-linejoin="round"/>
<path opacity="0.2" d="M19.4117 28.7473C19.4117 28.7473 18.9466 30.0389 18.7608 30.349C18.575 30.659 17.5832 31.831 17.3928 32.1456C17.2024 32.4602 16.8342 33.4475 16.8342 33.4475L19.8449 32.686C19.8449 32.686 19.0036 33.94 18.5077 34.5624C18.0118 35.1848 16.963 36.4799 16.963 36.6703C16.963 36.8606 16.7156 37.5994 16.7156 37.5994L18.1406 38.6527L21.0533 37.5994L22.2298 37.1639C22.2298 37.1639 19.8746 38.6516 19.1313 39.3949C18.388 40.1381 15.7842 41.6258 15.1025 42.1217C14.4208 42.6176 12.9958 42.8639 12.4395 42.9904C11.8832 43.117 6.98572 47.0819 6.98572 47.0819L14.0537 32.5811L16.0989 29.1725L17.8978 27.8706L17.712 29.9146L19.4117 28.7473Z" fill="black"/>
<path d="M4.16101 50.0915L11.6007 42.4364C12.2307 42.3517 12.8508 42.205 13.452 41.9986C14.592 41.6281 14.934 41.5278 15.4721 41.1242C16.0102 40.7207 18.2332 39.5419 19.1748 38.9354C20.1165 38.329 21.7672 37.6564 22.0704 37.3862C22.3737 37.116 22.1377 36.7808 21.3306 36.6121C20.5234 36.4434 19.714 36.6463 18.6367 37.1171C17.5594 37.588 16.4479 37.9927 16.4821 37.7567C16.5163 37.5207 16.7181 36.3431 16.9199 35.9395C17.1217 35.536 19.1429 33.3597 19.176 33.2582C19.209 33.1568 19.4461 33.0565 19.8497 32.6882C20.2533 32.32 20.8939 31.8811 20.9897 31.2404C21.0855 30.5998 20.5861 30.8369 20.3844 30.9383C20.1826 31.0398 18.7678 31.6451 18.3973 31.8811C18.0268 32.1171 15.8654 34.3948 15.8654 34.3948L17.3873 31.2028C17.5819 31.0275 17.7622 30.8369 17.9265 30.6328C18.1283 30.3638 19.3401 29.0505 19.4085 28.7473C19.422 28.6662 19.4153 28.583 19.3891 28.5052C19.3628 28.4273 19.3178 28.3571 19.2579 28.3007C19.1981 28.2444 19.1253 28.2037 19.046 28.1821C18.9667 28.1606 18.8833 28.1589 18.8032 28.1773C18.4327 28.2787 17.2687 29.307 16.8834 29.5909C16.0854 30.1814 14.7961 32.4192 14.7961 32.4192L16.2108 29.8268C16.2108 29.8268 17.2881 28.851 17.5572 28.5478C17.8262 28.2445 18.1511 27.5742 17.8604 27.2687C17.5515 26.9438 16.8823 27.4898 16.3784 28.0085C15.9156 28.4862 15.2384 29.0858 15.2384 29.0858C15.2384 29.0858 15.6431 28.615 15.5416 28.2115C15.4402 27.8079 14.6661 28.379 14.4313 28.4463C14.1964 28.5136 12.1752 30.2988 11.872 30.5336C11.5687 30.7685 10.936 32.6996 10.936 32.6996L8.48845 37.8046L1.14001 43.0919" fill="white"/>
<path d="M4.16101 50.0915L11.6007 42.4364C12.2307 42.3517 12.8508 42.205 13.452 41.9986C14.592 41.6281 14.934 41.5278 15.4721 41.1242C16.0102 40.7207 18.2332 39.5419 19.1748 38.9354C20.1165 38.329 21.7672 37.6564 22.0704 37.3862C22.3737 37.116 22.1377 36.7808 21.3306 36.6121C20.5234 36.4434 19.714 36.6463 18.6367 37.1171C17.5594 37.588 16.4479 37.9927 16.4821 37.7567C16.5163 37.5207 16.7181 36.3431 16.9199 35.9395C17.1217 35.536 19.1429 33.3597 19.176 33.2582C19.209 33.1568 19.4461 33.0565 19.8497 32.6882C20.2533 32.32 20.8939 31.8811 20.9897 31.2404C21.0855 30.5998 20.5861 30.8369 20.3844 30.9383C20.1826 31.0398 18.7678 31.6451 18.3973 31.8811C18.0268 32.1171 15.8654 34.3948 15.8654 34.3948L17.3873 31.2028C17.5819 31.0275 17.7622 30.8369 17.9265 30.6328C18.1283 30.3638 19.3401 29.0505 19.4085 28.7473C19.422 28.6662 19.4153 28.583 19.3891 28.5052C19.3628 28.4273 19.3178 28.3571 19.2579 28.3007C19.1981 28.2444 19.1253 28.2037 19.046 28.1821C18.9667 28.1606 18.8833 28.1589 18.8032 28.1773C18.4327 28.2787 17.2687 29.307 16.8834 29.5909C16.0854 30.1814 14.7961 32.4192 14.7961 32.4192L16.2108 29.8268C16.2108 29.8268 17.2881 28.851 17.5572 28.5478C17.8262 28.2445 18.1511 27.5742 17.8604 27.2687C17.5515 26.9438 16.8823 27.4898 16.3784 28.0085C15.9156 28.4862 15.2384 29.0858 15.2384 29.0858C15.2384 29.0858 15.6431 28.615 15.5416 28.2115C15.4402 27.8079 14.6661 28.379 14.4313 28.4463C14.1964 28.5136 12.1752 30.2988 11.872 30.5336C11.5687 30.7685 10.936 32.6996 10.936 32.6996L8.48846 37.8046L1.14001 43.0919" stroke="#263238" stroke-width="0.112" stroke-linecap="round" stroke-linejoin="round"/>
<path d="M15.2375 29.0835L14.2503 29.9374C14.1433 30.0301 14.0514 30.139 13.9778 30.26L12.2245 33.1282" stroke="#263238" stroke-width="0.112" stroke-linecap="round" stroke-linejoin="round"/>
<path d="M22.012 36.8525L21.5035 36.8856C21.5035 36.8856 21.8455 37.1911 21.5377 37.6312" stroke="#263238" stroke-width="0.112" stroke-linecap="round" stroke-linejoin="round"/>
<path d="M20.2579 31.0945C20.2579 31.0945 20.4757 31.0649 20.7242 31.4582C20.8395 31.3634 20.9247 31.237 20.9693 31.0945" stroke="#263238" stroke-width="0.112" stroke-linecap="round" stroke-linejoin="round"/>
<path d="M18.3937 28.4509C18.602 28.4979 18.8003 28.5812 18.9796 28.6972C19.0708 28.7678 19.2384 28.6436 19.308 28.5524" stroke="#263238" stroke-width="0.112" stroke-linecap="round" stroke-linejoin="round"/>
<path d="M17.0374 27.5012C17.1316 27.5047 17.224 27.528 17.3087 27.5696C17.4161 27.6284 17.5184 27.6963 17.6142 27.7725C17.6761 27.7492 17.7323 27.713 17.7791 27.6662C17.8259 27.6194 17.8622 27.5631 17.8855 27.5012" stroke="#263238" stroke-width="0.112" stroke-linecap="round" stroke-linejoin="round"/>
<path d="M14.8003 28.3151C14.8003 28.3151 15.0283 28.2912 15.1423 28.3824C15.3053 28.5214 15.2107 28.5864 15.2107 28.5864C15.2107 28.5864 15.4877 28.4884 15.5151 28.3482" stroke="#263238" stroke-width="0.112" stroke-linecap="round" stroke-linejoin="round"/>
<path d="M18.5623 32.2129C18.7606 32.3542 18.9231 32.54 19.0365 32.7555" stroke="#263238" stroke-width="0.112" stroke-linecap="round" stroke-linejoin="round"/>
<path d="M18.3596 32.28C18.4917 32.4307 18.6392 32.5671 18.7997 32.687" stroke="#263238" stroke-width="0.112" stroke-linecap="round" stroke-linejoin="round"/>
<path d="M19.0712 32.3142L19.3083 32.6197" stroke="#263238" stroke-width="0.112" stroke-linecap="round" stroke-linejoin="round"/>
<path d="M19.6399 37.2253L19.877 37.6312" stroke="#263238" stroke-width="0.112" stroke-linecap="round" stroke-linejoin="round"/>
<path d="M19.9454 37.8696L20.0127 38.0041" stroke="#263238" stroke-width="0.112" stroke-linecap="round" stroke-linejoin="round"/>
<path d="M20.1776 37.3269C20.2377 37.605 20.2603 37.8898 20.2449 38.1739" stroke="#263238" stroke-width="0.112" stroke-linecap="round" stroke-linejoin="round"/>
<path d="M16.5631 30.2099C16.5631 30.2099 16.9051 30.1757 17.173 30.5827" stroke="#263238" stroke-width="0.112" stroke-linecap="round" stroke-linejoin="round"/>
<path d="M16.7327 30.6191L17.037 30.789" stroke="#263238" stroke-width="0.112" stroke-linecap="round" stroke-linejoin="round"/>
<path d="M16.8341 30.1118L17.037 30.2463" stroke="#263238" stroke-width="0.112" stroke-linecap="round" stroke-linejoin="round"/>
<path d="M14.7661 29.738C14.8792 29.7119 14.9969 29.7138 15.1092 29.7434C15.2214 29.773 15.3247 29.8294 15.4102 29.9079" stroke="#263238" stroke-width="0.112" stroke-linecap="round" stroke-linejoin="round"/>
<path d="M14.9021 29.9419C15.0544 30.0135 15.2132 30.0704 15.3763 30.1118" stroke="#263238" stroke-width="0.112" stroke-linecap="round" stroke-linejoin="round"/>
<path d="M15.3091 29.5691L15.5462 29.6364" stroke="#263238" stroke-width="0.112" stroke-linecap="round" stroke-linejoin="round"/>
<path d="M12.5295 30.3147C12.742 30.2707 12.9612 30.2707 13.1736 30.3147" stroke="#263238" stroke-width="0.112" stroke-linecap="round" stroke-linejoin="round"/>
<path d="M13.2411 30.1118L13.5808 30.2463" stroke="#263238" stroke-width="0.112" stroke-linecap="round" stroke-linejoin="round"/>
<path d="M14.7992 32.417L14.0719 33.8021" stroke="#263238" stroke-width="0.112" stroke-linecap="round" stroke-linejoin="round"/>
</svg>
