<svg width="91" height="56" viewBox="0 0 91 56" fill="none" xmlns="http://www.w3.org/2000/svg">
<g style="mix-blend-mode:luminosity" opacity="0.1" clip-path="url(#clip0_1170_7759)">
<path d="M90.9076 54.1532L87.5703 55.0474L87.582 55.0908L90.9192 54.1966L90.9076 54.1532Z" fill="#EBEBEB"/>
<path d="M57.4211 53.5435L23.8417 62.5411C23.5785 62.6111 23.2983 62.5738 23.0626 62.4374C22.8269 62.3011 22.6549 62.0767 22.5844 61.8137L9.93635 14.6105C9.86856 14.3484 9.90694 14.07 10.0432 13.836C10.1794 13.602 10.4024 13.4311 10.6639 13.3606L44.2433 4.36304C44.5066 4.29247 44.7872 4.32942 45.0234 4.46574C45.2595 4.60207 45.4318 4.82661 45.5023 5.08997L58.1481 52.2844C58.2186 52.5478 58.1817 52.8284 58.0454 53.0645C57.909 53.3006 57.6845 53.4729 57.4211 53.5435ZM10.6732 13.3954C10.4218 13.4633 10.2076 13.6281 10.0776 13.8537C9.94759 14.0794 9.91243 14.3473 9.97983 14.5989L22.6279 61.802C22.6953 62.0535 22.8597 62.2681 23.0851 62.3985C23.3105 62.5289 23.5784 62.5645 23.8301 62.4976L57.4095 53.5C57.661 53.4321 57.8754 53.2673 58.0057 53.0416C58.136 52.816 58.1716 52.5479 58.1046 52.2961L45.4565 5.09292C45.3886 4.84136 45.2238 4.62695 44.9981 4.49667C44.7725 4.36639 44.5044 4.33084 44.2526 4.39782L10.6732 13.3954Z" fill="#EBEBEB"/>
<path d="M95.0386 43.4639L61.4575 52.462C61.1941 52.5321 60.9138 52.4949 60.6778 52.3586C60.4418 52.2224 60.2694 51.9982 60.1984 51.7351L47.5504 4.53191C47.483 4.26947 47.5218 3.99104 47.6583 3.75699C47.7948 3.52293 48.018 3.35211 48.2796 3.28153L81.8608 -5.7165C82.1223 -5.7856 82.4005 -5.74886 82.635 -5.61424C82.8696 -5.47962 83.0417 -5.25798 83.114 -4.99734L95.7621 42.2058C95.8325 42.4686 95.7959 42.7485 95.6603 42.9843C95.5247 43.2202 95.3011 43.3926 95.0386 43.4639ZM48.2889 3.31632C48.0374 3.38421 47.823 3.54904 47.6927 3.7747C47.5624 4.00036 47.5269 4.26845 47.5938 4.52026L60.2419 51.7234C60.3098 51.975 60.4746 52.1894 60.7003 52.3197C60.9259 52.4499 61.194 52.4855 61.4458 52.4185L95.027 43.4205C95.2785 43.3526 95.4929 43.1877 95.6232 42.9621C95.7535 42.7364 95.789 42.4683 95.7221 42.2165L83.074 -4.98662C83.0061 -5.23819 82.8413 -5.45259 82.6156 -5.58288C82.39 -5.71316 82.1219 -5.7487 81.8701 -5.68172L48.2889 3.31632Z" fill="#EBEBEB"/>
<path d="M105.237 49.0444L18.2838 72.3433L18.2955 72.3867L105.248 49.0878L105.237 49.0444Z" fill="#EBEBEB"/>
<path d="M37.7136 41.0834L33.8181 42.1272L38.243 58.6413L42.1385 57.5975L37.7136 41.0834Z" fill="#E6E6E6"/>
<path d="M42.6985 33.7123L38.803 34.7561L44.7367 56.9012L48.6322 55.8574L42.6985 33.7123Z" fill="#E0E0E0"/>
<path d="M50.7008 37.6034L46.8053 38.6472L51.2302 55.1613L55.1257 54.1175L50.7008 37.6034Z" fill="#EBEBEB"/>
<path d="M26.2346 50.1925L22.3391 51.2363L25.2552 62.1193L29.1507 61.0755L26.2346 50.1925Z" fill="#F0F0F0"/>
<path d="M32 45.7345L28.1045 46.7783L31.7489 60.3795L35.6444 59.3357L32 45.7345Z" fill="#EBEBEB"/>
<path d="M58.7029 41.4928L54.8074 42.5366L57.7235 53.4196L61.6189 52.3758L58.7029 41.4928Z" fill="#F5F5F5"/>
<path d="M86.6434 15.902L82.7479 16.9458L90.1905 44.722L94.086 43.6782L86.6434 15.902Z" fill="#E0E0E0"/>
<path d="M63.6881 34.1234L59.7926 35.1672L64.2175 51.6813L68.113 50.6375L63.6881 34.1234Z" fill="#F0F0F0"/>
<path d="M81.6583 23.2731L77.7628 24.3169L83.6966 46.462L87.5921 45.4182L81.6583 23.2731Z" fill="#E6E6E6"/>
<path d="M75.9465 27.9237L72.051 28.9675L77.2043 48.1997L81.0998 47.1559L75.9465 27.9237Z" fill="#EBEBEB"/>
<path d="M70.9619 35.2948L67.0664 36.3386L70.7108 49.9398L74.6063 48.896L70.9619 35.2948Z" fill="#F0F0F0"/>
<path d="M24.9848 39.5298C24.9381 37.9763 23.641 36.7548 22.0876 36.8015C20.5341 36.8481 19.3126 38.1453 19.3593 39.6987C19.4059 41.2522 20.703 42.4737 22.2565 42.427C23.8099 42.3804 25.0314 41.0832 24.9848 39.5298Z" fill="#E0E0E0"/>
<path d="M24.9357 40.9346C25.7128 39.5887 25.2516 37.8677 23.9057 37.0906C22.5598 36.3135 20.8387 36.7747 20.0617 38.1206C19.2846 39.4665 19.7458 41.1876 21.0917 41.9646C22.4376 42.7417 24.1586 42.2806 24.9357 40.9346Z" fill="#E6E6E6"/>
<path d="M23.0441 41.562C24.1679 41.2609 24.8347 40.1059 24.5336 38.9821C24.2325 37.8584 23.0775 37.1915 21.9538 37.4926C20.83 37.7937 20.1632 38.9488 20.4643 40.0725C20.7654 41.1963 21.9204 41.8631 23.0441 41.562Z" fill="#F0F0F0"/>
<path d="M23.5088 39.721C23.7077 40.1504 23.4788 40.5342 22.9349 40.7303L23.0259 41.1048L22.6868 41.1956L22.5975 40.8207C22.3004 40.8767 21.9943 40.863 21.7033 40.7807L21.744 40.3206C21.9846 40.402 22.2412 40.4246 22.4924 40.3866L22.3552 39.812C21.9974 39.8053 21.6004 39.7775 21.4161 39.3889C21.2172 38.9594 21.4504 38.5708 22.0083 38.3784L21.9086 38.0062L22.2547 37.9135L22.3553 38.2891C22.5905 38.2473 22.8316 38.253 23.0644 38.306L23.0309 38.7512C22.8419 38.6988 22.6438 38.6882 22.4504 38.7203L22.5958 39.3188C22.9498 39.3321 23.3353 39.3518 23.5088 39.721ZM22.232 39.3175L22.1155 38.8268C21.9392 38.9132 21.8767 39.0418 21.9303 39.1654C21.9839 39.2889 22.0876 39.3003 22.232 39.3175ZM22.9987 39.9527C22.9565 39.8578 22.8515 39.8207 22.7129 39.8112L22.8264 40.2766C22.994 40.1925 23.0575 40.0749 22.9987 39.9527Z" fill="white"/>
<path d="M80.742 -0.667491L66.5878 3.1251C65.8684 3.31786 65.4415 4.05729 65.6343 4.77667L67.0676 10.126C67.2604 10.8454 67.9998 11.2723 68.7192 11.0795L82.8734 7.28694C83.5927 7.09418 84.0197 6.35475 83.8269 5.63537L82.3936 0.286041C82.2008 -0.433338 81.4614 -0.860248 80.742 -0.667491Z" fill="#F0F0F0"/>
<path d="M69.9267 3.39173L68.7476 3.70766C68.6785 3.72619 68.6375 3.79727 68.656 3.86642L70.1695 9.51487C70.188 9.58402 70.2591 9.62506 70.3282 9.60653L71.5073 9.2906C71.5765 9.27207 71.6175 9.20099 71.599 9.13184L70.0855 3.48339C70.067 3.41424 69.9959 3.3732 69.9267 3.39173Z" fill="white"/>
<path d="M79.5785 0.805546L78.3994 1.12148C78.3302 1.14001 78.2892 1.21109 78.3077 1.28024L79.8212 6.92869C79.8397 6.99784 79.9108 7.03888 79.98 7.02035L81.1591 6.70442C81.2282 6.68589 81.2692 6.61481 81.2507 6.54566L79.7372 0.897207C79.7187 0.828055 79.6476 0.787016 79.5785 0.805546Z" fill="white"/>
<path d="M75.4411 3.99988L74.2621 4.31581C74.1929 4.33434 74.1519 4.40542 74.1704 4.47458L75.1629 8.17876C75.1815 8.24791 75.2525 8.28895 75.3217 8.27042L76.5008 7.95449C76.5699 7.93596 76.611 7.86488 76.5924 7.79573L75.5999 4.09154C75.5814 4.02239 75.5103 3.98135 75.4411 3.99988Z" fill="white"/>
<path d="M73.2203 5.61072L72.0412 5.92665C71.9721 5.94518 71.931 6.01626 71.9496 6.08542L72.6877 8.84008C72.7062 8.90923 72.7773 8.95027 72.8464 8.93174L74.0255 8.61581C74.0947 8.59728 74.1357 8.5262 74.1172 8.45705L73.3791 5.70238C73.3605 5.63323 73.2895 5.59219 73.2203 5.61072Z" fill="white"/>
<path d="M78.6443 6.63269L77.4652 6.94863C77.396 6.96716 77.355 7.03824 77.3735 7.10739L77.4928 7.55259C77.5113 7.62174 77.5824 7.66278 77.6516 7.64425L78.8306 7.32832C78.8998 7.30979 78.9408 7.23871 78.9223 7.16955L78.803 6.72436C78.7845 6.6552 78.7134 6.61416 78.6443 6.63269Z" fill="white"/>
<path d="M79.0006 0.923044C78.9828 0.919499 78.9646 0.91965 78.9469 0.923485C78.9293 0.927321 78.9126 0.934759 78.8979 0.945334C78.8832 0.95591 78.8709 0.969396 78.8617 0.984949C78.8525 1.0005 78.8466 1.01779 78.8444 1.03573L77.9691 6.11644C77.9659 6.14058 77.9562 6.16338 77.9409 6.1823C77.9256 6.20122 77.9053 6.21553 77.8824 6.22361C77.8594 6.23169 77.8346 6.23324 77.8109 6.22809C77.7871 6.22293 77.7652 6.21127 77.7476 6.19441L75.0254 3.7701C74.9999 3.74669 74.9663 3.73425 74.9317 3.73549C74.8971 3.73672 74.8645 3.75153 74.8407 3.77669L72.667 5.40294C72.6506 5.42018 72.6297 5.43257 72.6067 5.43873C72.5837 5.4449 72.5594 5.4446 72.5366 5.43788L69.1688 3.47731C69.1514 3.47318 69.1334 3.47267 69.1158 3.47583C69.0982 3.47899 69.0815 3.48574 69.0667 3.49567C69.0518 3.50559 69.0392 3.51848 69.0296 3.53351C69.02 3.54855 69.0135 3.56541 69.0107 3.58304L69.0145 3.59695C69.0095 3.62919 69.0167 3.66212 69.0347 3.68935C69.0527 3.71657 69.0801 3.73613 69.1117 3.74424L72.644 5.74833C72.6668 5.75548 72.6912 5.75599 72.7143 5.7498C72.7374 5.74361 72.7583 5.73098 72.7744 5.71339L74.8562 4.17516C74.8678 4.16249 74.8818 4.15225 74.8974 4.14505C74.913 4.13785 74.9299 4.13382 74.9471 4.13321C74.9643 4.13259 74.9814 4.1354 74.9975 4.14147C75.0136 4.14754 75.0283 4.15675 75.0408 4.16856L77.9401 6.75978C77.9576 6.77674 77.9793 6.78854 78.0031 6.79386C78.0268 6.79918 78.0515 6.79781 78.0745 6.78991C78.0975 6.78201 78.1179 6.76789 78.1333 6.74911C78.1488 6.73033 78.1587 6.70764 78.162 6.68355L79.1005 1.07334C79.1057 1.04032 79.0984 1.00654 79.0799 0.978698C79.0613 0.950856 79.033 0.93099 79.0006 0.923044Z" fill="#E0E0E0"/>
<path d="M44.7617 17.2883C46.3282 16.8685 47.2578 15.2584 46.8381 13.6919C46.4183 12.1254 44.8082 11.1957 43.2417 11.6155C41.6752 12.0352 40.7455 13.6454 41.1653 15.2119C41.585 16.7784 43.1952 17.708 44.7617 17.2883Z" fill="#E0E0E0"/>
<path opacity="0.8" d="M44.5784 16.7373C45.8356 16.4004 46.5817 15.1082 46.2448 13.8509C45.908 12.5937 44.6157 11.8476 43.3585 12.1845C42.1012 12.5213 41.3551 13.8136 41.692 15.0709C42.0289 16.3281 43.3212 17.0742 44.5784 16.7373Z" fill="white"/>
<path d="M44.0738 14.8827C44.2013 14.8486 44.2769 14.7175 44.2428 14.59C44.2086 14.4626 44.0776 14.3869 43.9501 14.4211C43.8226 14.4552 43.7469 14.5863 43.7811 14.7137C43.8153 14.8412 43.9463 14.9169 44.0738 14.8827Z" fill="#E0E0E0"/>
<path d="M44.0091 14.7444L42.783 14.0851L42.8516 13.9586L43.9622 14.5557L45.1752 12.7246L45.2953 12.8043L44.0091 14.7444Z" fill="#E0E0E0"/>
<path d="M63.8389 68.4519C82.4611 63.4621 97.3213 58.5357 97.03 57.4485C96.7386 56.3612 81.4062 59.5249 62.7839 64.5147C44.1617 69.5045 29.3016 74.4309 29.5929 75.5182C29.8842 76.6054 45.2167 73.4417 63.8389 68.4519Z" fill="#F5F5F5"/>
<path d="M61.0273 34.8516L49.546 37.928L57.6415 68.1406L69.1227 65.0642L61.0273 34.8516Z" fill="#407BFF"/>
<path opacity="0.5" d="M61.0638 34.8417L52.5024 37.1357L60.5979 67.3483L69.1592 65.0543L61.0638 34.8417Z" fill="black"/>
<path d="M78.7867 41.1328L67.3054 44.2092L72.6404 64.1197L84.1216 61.0433L78.7867 41.1328Z" fill="#407BFF"/>
<path opacity="0.3" d="M78.7739 41.0859L70.2125 43.3799L75.5606 63.339L84.1219 61.045L78.7739 41.0859Z" fill="black"/>
<path d="M47.3985 44.2779L35.9172 47.3542L42.5686 72.1775L54.0498 69.1011L47.3985 44.2779Z" fill="#407BFF"/>
<path opacity="0.4" d="M47.3822 44.217L38.8208 46.511L45.4885 71.3951L54.0498 69.1011L47.3822 44.217Z" fill="black"/>
<path d="M65.2224 56.3236C65.3373 56.6898 64.2606 57.3529 62.823 57.8034C61.3855 58.2538 60.1176 58.3288 60.0027 57.9626C59.8878 57.5964 60.9646 56.9332 62.4021 56.4828C63.8396 56.0324 65.1075 55.9573 65.2224 56.3236Z" fill="#407BFF"/>
<path opacity="0.4" d="M65.2224 56.3236C65.3373 56.6898 64.2606 57.3529 62.823 57.8034C61.3855 58.2538 60.1176 58.3288 60.0027 57.9626C59.8878 57.5964 60.9646 56.9332 62.4021 56.4828C63.8396 56.0324 65.1075 55.9573 65.2224 56.3236Z" fill="white"/>
<path d="M64.8819 56.4018C64.8898 56.4256 64.888 56.4515 64.877 56.474C64.6449 56.3032 63.6412 56.4323 62.5005 56.7939C61.3597 57.1555 60.4605 57.6182 60.3711 57.8901C60.3507 57.8761 60.335 57.8563 60.3261 57.8332C60.2485 57.5855 61.204 57.0611 62.4643 56.6657C63.7246 56.2702 64.8044 56.1542 64.8819 56.4018Z" fill="#407BFF"/>
<path opacity="0.4" d="M64.8819 56.4018C64.8898 56.4256 64.888 56.4515 64.877 56.474C64.6449 56.3032 63.6412 56.4323 62.5005 56.7939C61.3597 57.1555 60.4605 57.6182 60.3711 57.8901C60.3507 57.8761 60.335 57.8563 60.3261 57.8332C60.2485 57.5855 61.204 57.0611 62.4643 56.6657C63.7246 56.2702 64.8044 56.1542 64.8819 56.4018Z" fill="#407BFF"/>
<path d="M65.717 55.8314C65.8319 56.1976 64.7552 56.8608 63.3181 57.3129C61.881 57.7651 60.6122 57.8367 60.4973 57.4704C60.3824 57.1042 61.4591 56.4411 62.8967 55.9906C64.3342 55.5402 65.5997 55.4565 65.717 55.8314Z" fill="#407BFF"/>
<path d="M65.5028 55.1644L60.2775 56.8049L60.4851 57.4663L65.7104 55.8257L65.5028 55.1644Z" fill="#407BFF"/>
<path d="M65.5057 55.1611C65.6206 55.5273 64.5439 56.1904 63.1068 56.6426C61.6697 57.0948 60.4009 57.1663 60.286 56.8001C60.1711 56.4339 61.2478 55.7707 62.6854 55.3203C64.1229 54.8699 65.3991 54.7982 65.5057 55.1611Z" fill="#407BFF"/>
<path opacity="0.4" d="M65.5057 55.1611C65.6206 55.5273 64.5439 56.1904 63.1068 56.6426C61.6697 57.0948 60.4009 57.1663 60.286 56.8001C60.1711 56.4339 61.2478 55.7707 62.6854 55.3203C64.1229 54.8699 65.3991 54.7982 65.5057 55.1611Z" fill="white"/>
<path d="M65.1653 55.2338C65.1709 55.2572 65.169 55.2818 65.1599 55.3042C64.9277 55.1334 63.9224 55.263 62.7834 55.6241C61.6444 55.9852 60.7416 56.4489 60.654 56.7203C60.6323 56.7075 60.6158 56.6875 60.6072 56.6639C60.5297 56.4162 61.4851 55.8918 62.7454 55.4963C64.0057 55.1009 65.0878 54.9936 65.1653 55.2338Z" fill="#407BFF"/>
<path opacity="0.4" d="M65.1653 55.2338C65.1709 55.2572 65.169 55.2818 65.1599 55.3042C64.9277 55.1334 63.9224 55.263 62.7834 55.6241C61.6444 55.9852 60.7416 56.4489 60.654 56.7203C60.6323 56.7075 60.6158 56.6875 60.6072 56.6639C60.5297 56.4162 61.4851 55.8918 62.7454 55.4963C64.0057 55.1009 65.0878 54.9936 65.1653 55.2338Z" fill="#407BFF"/>
<path opacity="0.4" d="M65.1636 55.3105C65.0678 55.5859 64.1725 56.0495 63.0343 56.4067C61.896 56.7639 60.8882 56.8979 60.6577 56.7266C60.7488 56.4543 61.6454 55.9885 62.7871 55.6304C63.9288 55.2723 64.9315 55.1397 65.1636 55.3105Z" fill="#407BFF"/>
<path d="M64.6353 55.1892C64.7502 55.5554 63.6735 56.2186 62.2364 56.6708C60.7993 57.1229 59.5188 57.1995 59.4196 56.8291C59.3203 56.4586 60.3814 55.7997 61.8189 55.3493C63.2565 54.8988 64.5213 54.8265 64.6353 55.1892Z" fill="#407BFF"/>
<path d="M64.4293 54.5279L59.204 56.1685L59.4116 56.8298L64.637 55.1893L64.4293 54.5279Z" fill="#407BFF"/>
<path d="M64.4284 54.529C64.5433 54.8953 63.4666 55.5584 62.0295 56.0106C60.5924 56.4627 59.3236 56.5343 59.2087 56.1681C59.0938 55.8019 60.1705 55.1387 61.6081 54.6883C63.0456 54.2379 64.3121 54.1576 64.4284 54.529Z" fill="#407BFF"/>
<path opacity="0.4" d="M64.4284 54.529C64.5433 54.8953 63.4666 55.5584 62.0295 56.0106C60.5924 56.4627 59.3236 56.5343 59.2087 56.1681C59.0938 55.8019 60.1705 55.1387 61.6081 54.6883C63.0456 54.2379 64.3121 54.1576 64.4284 54.529Z" fill="white"/>
<path d="M64.0884 54.6088C64.0957 54.6321 64.0938 54.6573 64.083 54.6792C63.8509 54.5084 62.8473 54.6375 61.7065 54.9991C60.5658 55.3607 59.6665 55.8235 59.5772 56.0953C59.5559 56.0822 59.54 56.0621 59.5321 56.0384C59.4546 55.7908 60.41 55.2664 61.6703 54.8709C62.9306 54.4754 64.0109 54.3612 64.0884 54.6088Z" fill="#407BFF"/>
<path opacity="0.4" d="M64.0884 54.6088C64.0957 54.6321 64.0938 54.6573 64.083 54.6792C63.8509 54.5084 62.8473 54.6375 61.7065 54.9991C60.5658 55.3607 59.6665 55.8235 59.5772 56.0953C59.5559 56.0822 59.54 56.0621 59.5321 56.0384C59.4546 55.7908 60.41 55.2664 61.6703 54.8709C62.9306 54.4754 64.0109 54.3612 64.0884 54.6088Z" fill="#407BFF"/>
<path opacity="0.4" d="M64.0831 54.6792C63.9873 54.9547 63.0919 55.4182 61.9537 55.7754C60.8155 56.1326 59.8094 56.2661 59.5772 56.0953C59.67 55.8226 60.5653 55.359 61.7066 54.9991C62.8478 54.6393 63.8474 54.5094 64.0831 54.6792Z" fill="#407BFF"/>
<path d="M64.9205 54.0281C65.0354 54.3943 63.9587 55.0575 62.5216 55.5096C61.0845 55.9618 59.8175 56.0329 59.7026 55.6667C59.5877 55.3004 60.6626 54.6378 62.1019 54.1869C63.5412 53.736 64.8043 53.6641 64.9205 54.0281Z" fill="#407BFF"/>
<path d="M64.7117 53.3692L59.4863 55.0098L59.694 55.6711L64.9193 54.0306L64.7117 53.3692Z" fill="#407BFF"/>
<path d="M64.7116 53.3664C64.8265 53.7327 63.7498 54.3958 62.3127 54.848C60.8757 55.3001 59.6069 55.3717 59.492 55.0055C59.3771 54.6393 60.4543 53.9778 61.8913 53.5257C63.3284 53.0735 64.5972 53.0019 64.7116 53.3664Z" fill="#407BFF"/>
<path opacity="0.4" d="M64.7116 53.3664C64.8265 53.7327 63.7498 54.3958 62.3127 54.848C60.8757 55.3001 59.6069 55.3717 59.492 55.0055C59.3771 54.6393 60.4543 53.9778 61.8913 53.5257C63.3284 53.0735 64.5972 53.0019 64.7116 53.3664Z" fill="white"/>
<path d="M64.3714 53.4464C64.3785 53.4703 64.3768 53.4959 64.3665 53.5186C64.1343 53.3478 63.1307 53.4769 61.9895 53.8368C60.8483 54.1966 59.9494 54.6611 59.8601 54.933C59.8395 54.9192 59.8237 54.8993 59.8151 54.8761C59.7375 54.6284 60.693 54.104 61.9533 53.7085C63.2135 53.3131 64.2938 53.1988 64.3714 53.4464Z" fill="#407BFF"/>
<path opacity="0.4" d="M64.3714 53.4464C64.3785 53.4703 64.3768 53.4959 64.3665 53.5186C64.1343 53.3478 63.1307 53.4769 61.9895 53.8368C60.8483 54.1966 59.9494 54.6611 59.8601 54.933C59.8395 54.9192 59.8237 54.8993 59.8151 54.8761C59.7375 54.6284 60.693 54.104 61.9533 53.7085C63.2135 53.3131 64.2938 53.1988 64.3714 53.4464Z" fill="#407BFF"/>
<path opacity="0.4" d="M64.3666 53.5185C64.2721 53.7917 63.375 54.2558 62.2368 54.613C61.0986 54.9701 60.0924 55.1037 59.8603 54.9329C59.9531 54.6601 60.8484 54.1965 61.9896 53.8367C63.1308 53.4768 64.1327 53.3482 64.3666 53.5185Z" fill="#407BFF"/>
<path d="M62.5147 53.8605C63.6231 53.0685 63.8795 51.528 63.0875 50.4196C62.2954 49.3113 60.7549 49.0549 59.6466 49.8469C58.5382 50.6389 58.2818 52.1795 59.0739 53.2878C59.8659 54.3961 61.4064 54.6526 62.5147 53.8605Z" fill="#407BFF"/>
<path d="M63.6032 52.9591C64.1875 51.7286 63.6636 50.2573 62.4331 49.673C61.2025 49.0887 59.7313 49.6126 59.147 50.8432C58.5627 52.0737 59.0866 53.545 60.3171 54.1293C61.5477 54.7136 63.0189 54.1897 63.6032 52.9591Z" fill="#407BFF"/>
<path opacity="0.4" d="M63.6032 52.9591C64.1875 51.7286 63.6636 50.2573 62.4331 49.673C61.2025 49.0887 59.7313 49.6126 59.147 50.8432C58.5627 52.0737 59.0866 53.545 60.3171 54.1293C61.5477 54.7136 63.0189 54.1897 63.6032 52.9591Z" fill="white"/>
<path d="M63.1949 52.1997C63.1348 52.5596 62.9693 52.8936 62.7194 53.1595C62.4695 53.4255 62.1463 53.6113 61.7908 53.6936C61.4353 53.7759 61.0634 53.7509 60.7221 53.6219C60.3807 53.4928 60.0853 53.2655 59.8732 52.9686C59.661 52.6717 59.5416 52.3185 59.5302 51.9538C59.5187 51.5891 59.6156 51.2291 59.8086 50.9195C60.0017 50.6098 60.2822 50.3643 60.6147 50.214C60.9473 50.0638 61.3169 50.0155 61.6769 50.0752C62.1598 50.1559 62.5909 50.4249 62.8756 50.8233C63.1602 51.2216 63.275 51.7167 63.1949 52.1997Z" fill="#407BFF"/>
<path opacity="0.3" d="M62.3425 52.2045C62.2859 52.1033 62.199 52.0223 62.094 51.9728C62.184 51.9446 62.2641 51.8915 62.3251 51.8196C62.3871 51.7469 62.428 51.6586 62.4431 51.5643C62.4577 51.4876 62.4528 51.4085 62.429 51.3341C62.4052 51.2598 62.3631 51.1926 62.3067 51.1386C62.2005 51.0411 62.0711 50.9725 61.9308 50.9392L61.9558 50.789L61.7259 50.7518L61.7033 50.8902L61.4729 50.8513L61.4955 50.7129L61.2651 50.674L61.243 50.8141L60.7433 50.7299L60.4011 52.7918L60.8991 52.8764L60.8749 53.0227L61.1048 53.0599L61.129 52.9136L61.3594 52.9525L61.3352 53.0988L61.5651 53.136L61.5913 52.9836C61.7647 53.0116 61.9424 52.9917 62.1053 52.926C62.1788 52.891 62.2422 52.8379 62.2896 52.7717C62.3371 52.7056 62.367 52.6285 62.3767 52.5476C62.4045 52.4327 62.3924 52.3117 62.3425 52.2045ZM61.1625 51.1675L61.6368 51.2473C61.7308 51.2565 61.8202 51.2928 61.8941 51.3517C61.9197 51.3771 61.9381 51.4088 61.9475 51.4436C61.9568 51.4785 61.9567 51.5152 61.9472 51.5499C61.944 51.5861 61.9311 51.6208 61.9097 51.6501C61.8884 51.6795 61.8594 51.7025 61.826 51.7166C61.7371 51.7505 61.6402 51.757 61.5476 51.7353L61.0733 51.6555L61.1625 51.1675ZM61.7895 52.5894C61.6946 52.6217 61.5925 52.6265 61.495 52.6031L60.9392 52.5115L61.0224 52.0009L61.5803 52.0937C61.8321 52.1362 61.9449 52.2439 61.9176 52.4134C61.9151 52.4525 61.902 52.4901 61.8798 52.5223C61.8576 52.5546 61.827 52.5801 61.7914 52.5963L61.7895 52.5894Z" fill="white"/>
<path d="M87.2306 59.3376C87.6579 58.0441 86.9557 56.6491 85.6622 56.2218C84.3687 55.7946 82.9738 56.4968 82.5465 57.7902C82.1192 59.0837 82.8214 60.4787 84.1149 60.906C85.4084 61.3333 86.8034 60.6311 87.2306 59.3376Z" fill="#407BFF"/>
<path d="M87.3618 59.8136C87.1425 60.2494 86.7989 60.6104 86.3745 60.851C85.95 61.0915 85.4638 61.2008 84.9772 61.1649C84.4907 61.1291 84.0257 60.9498 83.641 60.6497C83.2564 60.3496 82.9694 59.9421 82.8163 59.4789C82.6633 59.0157 82.651 58.5175 82.7811 58.0473C82.9112 57.5771 83.1779 57.156 83.5473 56.8373C83.9167 56.5187 84.3723 56.3167 84.8565 56.257C85.3407 56.1973 85.8318 56.2826 86.2675 56.502C86.8517 56.7961 87.2952 57.3102 87.5004 57.9312C87.7056 58.5522 87.6557 59.2293 87.3618 59.8136Z" fill="#407BFF"/>
<path opacity="0.4" d="M87.3618 59.8136C87.1425 60.2494 86.7989 60.6104 86.3745 60.851C85.95 61.0915 85.4638 61.2008 84.9772 61.1649C84.4907 61.1291 84.0257 60.9498 83.641 60.6497C83.2564 60.3496 82.9694 59.9421 82.8163 59.4789C82.6633 59.0157 82.651 58.5175 82.7811 58.0473C82.9112 57.5771 83.1779 57.156 83.5473 56.8373C83.9167 56.5187 84.3723 56.3167 84.8565 56.257C85.3407 56.1973 85.8318 56.2826 86.2675 56.502C86.8517 56.7961 87.2952 57.3102 87.5004 57.9312C87.7056 58.5522 87.6557 59.2293 87.3618 59.8136Z" fill="white"/>
<path d="M30.9912 27.2988L31.2708 28.3423C31.9421 28.2187 32.6352 28.3102 33.2514 28.6037L33.795 27.6622C32.9276 27.2301 31.9401 27.1021 30.9912 27.2988Z" fill="#407BFF"/>
<path d="M32.443 34.7551C31.6836 34.8947 30.8993 34.7593 30.2306 34.3733C29.5619 33.9872 29.0525 33.3756 28.7937 32.6481L27.7502 32.9277C28.0851 33.932 28.7757 34.7791 29.6921 35.3092C30.6084 35.8393 31.687 36.0158 32.7245 35.8055L32.443 34.7551Z" fill="#407BFF"/>
<path d="M28.6612 32.1394C28.5223 31.3806 28.6576 30.5972 29.0429 29.929C29.4282 29.2607 30.0384 28.7511 30.7646 28.491L30.485 27.4476C29.4799 27.7832 28.6325 28.4752 28.1026 29.3929C27.5728 30.3106 27.3973 31.3905 27.6092 32.4288L28.6612 32.1394Z" fill="#407BFF"/>
<path opacity="0.2" d="M28.6612 32.1394C28.5223 31.3806 28.6576 30.5972 29.0429 29.929C29.4282 29.2607 30.0384 28.7511 30.7646 28.491L30.485 27.4476C29.4799 27.7832 28.6325 28.4752 28.1026 29.3929C27.5728 30.3106 27.3973 31.3905 27.6092 32.4288L28.6612 32.1394Z" fill="black"/>
<path d="M34.2526 27.9367L33.709 28.8782C34.202 29.2182 34.5915 29.6877 34.8346 30.235C35.0777 30.7823 35.165 31.3861 35.0868 31.9798C35.0085 32.5735 34.7679 33.1341 34.3913 33.5997C34.0147 34.0653 33.5168 34.4179 32.9526 34.6186L33.2322 35.662C34.0028 35.4042 34.6855 34.9351 35.2025 34.3082C35.7195 33.6813 36.0499 32.9217 36.1562 32.1161C36.2624 31.3104 36.1402 30.4912 35.8035 29.7516C35.4668 29.0121 34.9291 28.382 34.2516 27.9332L34.2526 27.9367Z" fill="#407BFF"/>
<g opacity="0.8">
<path d="M30.9912 27.2988L31.2708 28.3423C31.9421 28.2187 32.6352 28.3102 33.2514 28.6037L33.795 27.6622C32.9276 27.2301 31.9401 27.1021 30.9912 27.2988Z" fill="white"/>
</g>
<g opacity="0.6">
<path d="M32.443 34.7551C31.6836 34.8947 30.8993 34.7593 30.2306 34.3733C29.5619 33.9872 29.0525 33.3756 28.7937 32.6481L27.7502 32.9277C28.0851 33.932 28.7757 34.7791 29.6921 35.3092C30.6084 35.8393 31.687 36.0158 32.7245 35.8055L32.443 34.7551Z" fill="white"/>
</g>
<g opacity="0.7">
<path d="M28.6612 32.1394C28.5223 31.3806 28.6576 30.5972 29.0429 29.929C29.4282 29.2607 30.0384 28.7511 30.7646 28.491L30.485 27.4476C29.4799 27.7832 28.6325 28.4752 28.1026 29.3929C27.5728 30.3106 27.3973 31.3905 27.6092 32.4288L28.6612 32.1394Z" fill="white"/>
</g>
<path opacity="0.5" d="M34.2526 27.9367L33.709 28.8782C34.202 29.2182 34.5915 29.6877 34.8346 30.235C35.0777 30.7823 35.165 31.3861 35.0868 31.9798C35.0085 32.5735 34.7679 33.1341 34.3913 33.5997C34.0147 34.0653 33.5168 34.4179 32.9526 34.6186L33.2322 35.662C34.0028 35.4042 34.6855 34.9351 35.2025 34.3082C35.7195 33.6813 36.0499 32.9217 36.1562 32.1161C36.2624 31.3104 36.1402 30.4912 35.8035 29.7516C35.4668 29.0121 34.9291 28.382 34.2516 27.9332L34.2526 27.9367Z" fill="white"/>
<path d="M38.064 24.222L39.878 25.6706L46.691 20.4341L54.8758 21.0891L60.473 14.8979L61.1306 15.4113L62.0338 12.3473L58.3532 13.0316L59.1015 13.6121L53.4883 19.7647L45.427 19.1251L38.064 24.222Z" fill="#407BFF"/>
<g opacity="0.5">
<path d="M38.064 24.222L39.878 25.6706L46.691 20.4341L54.8758 21.0891L60.473 14.8979L61.1306 15.4113L62.0338 12.3473L58.3532 13.0316L59.1015 13.6121L53.4883 19.7647L45.427 19.1251L38.064 24.222Z" fill="white"/>
</g>
<path d="M69.7898 16.925C69.4562 17.0144 69.1565 17.2007 68.9288 17.4604C68.701 17.7201 68.5554 18.0414 68.5103 18.3839C68.4653 18.7263 68.5227 19.0745 68.6755 19.3842C68.8283 19.694 69.0695 19.9516 69.3686 20.1243C69.6677 20.297 70.0113 20.3771 70.356 20.3545C70.7007 20.3319 71.0309 20.2076 71.3049 19.9973C71.5789 19.7871 71.7845 19.5003 71.8955 19.1732C72.0065 18.8461 72.0181 18.4935 71.9287 18.1598C71.8088 17.7125 71.5161 17.331 71.115 17.0994C70.7139 16.8678 70.2372 16.8051 69.7898 16.925ZM70.4678 19.4553C70.301 19.5003 70.1246 19.4949 69.9609 19.4397C69.7972 19.3844 69.6535 19.2819 69.5481 19.1449C69.4427 19.008 69.3803 18.8429 69.3688 18.6705C69.3573 18.4981 69.3972 18.3262 69.4834 18.1765C69.5696 18.0268 69.6983 17.906 69.8532 17.8295C70.0081 17.7529 70.1823 17.7241 70.3536 17.7465C70.5249 17.769 70.6857 17.8418 70.8156 17.9557C70.9455 18.0695 71.0388 18.2194 71.0835 18.3863C71.1429 18.6097 71.1114 18.8475 70.9961 19.0478C70.8807 19.248 70.6908 19.3945 70.4678 19.4553Z" fill="#407BFF"/>
<path d="M75.3683 20.7348C75.0345 20.8239 74.7346 21.0099 74.5066 21.2695C74.2786 21.529 74.1327 21.8504 74.0873 22.1929C74.0419 22.5353 74.0992 22.8836 74.2518 23.1935C74.4044 23.5035 74.6455 23.7612 74.9446 23.9341C75.2437 24.107 75.5874 24.1873 75.9321 24.1648C76.2769 24.1424 76.6072 24.0182 76.8813 23.8079C77.1555 23.5977 77.3611 23.3108 77.4722 22.9837C77.5833 22.6566 77.5949 22.3038 77.5055 21.9701C77.3857 21.5231 77.0933 21.1418 76.6925 20.9102C76.2918 20.6785 75.8155 20.6155 75.3683 20.7348ZM76.0458 23.2634C75.879 23.3085 75.7025 23.303 75.5387 23.2477C75.3749 23.1924 75.2313 23.0897 75.1259 22.9527C75.0205 22.8157 74.9582 22.6504 74.9468 22.478C74.9354 22.3055 74.9755 22.1335 75.0619 21.9838C75.1483 21.8341 75.2772 21.7134 75.4323 21.6371C75.5874 21.5607 75.7616 21.5321 75.933 21.5548C76.1043 21.5775 76.2651 21.6506 76.3949 21.7648C76.5246 21.879 76.6176 22.0291 76.662 22.1961C76.7213 22.4194 76.6898 22.657 76.5743 22.857C76.4588 23.057 76.2688 23.2031 76.0458 23.2634Z" fill="#407BFF"/>
<path d="M72.6517 25.0787L71.53 25.3793L73.197 16.0119L74.3187 15.7113L72.6517 25.0787Z" fill="#407BFF"/>
<g opacity="0.5">
<path d="M69.7898 16.925C69.4562 17.0144 69.1565 17.2007 68.9288 17.4604C68.701 17.7201 68.5554 18.0414 68.5103 18.3839C68.4653 18.7263 68.5227 19.0745 68.6755 19.3842C68.8283 19.694 69.0695 19.9516 69.3686 20.1243C69.6677 20.297 70.0113 20.3771 70.356 20.3545C70.7007 20.3319 71.0309 20.2076 71.3049 19.9973C71.5789 19.7871 71.7845 19.5003 71.8955 19.1732C72.0065 18.8461 72.0181 18.4935 71.9287 18.1598C71.8088 17.7125 71.5161 17.331 71.115 17.0994C70.7139 16.8678 70.2372 16.8051 69.7898 16.925ZM70.4678 19.4553C70.301 19.5003 70.1246 19.4949 69.9609 19.4397C69.7972 19.3844 69.6535 19.2819 69.5481 19.1449C69.4427 19.008 69.3803 18.8429 69.3688 18.6705C69.3573 18.4981 69.3972 18.3262 69.4834 18.1765C69.5696 18.0268 69.6983 17.906 69.8532 17.8295C70.0081 17.7529 70.1823 17.7241 70.3536 17.7465C70.5249 17.769 70.6857 17.8418 70.8156 17.9557C70.9455 18.0695 71.0388 18.2194 71.0835 18.3863C71.1429 18.6097 71.1114 18.8475 70.9961 19.0478C70.8807 19.248 70.6908 19.3945 70.4678 19.4553Z" fill="white"/>
<path d="M75.3683 20.7348C75.0345 20.8239 74.7346 21.0099 74.5066 21.2695C74.2786 21.529 74.1327 21.8504 74.0873 22.1929C74.0419 22.5353 74.0992 22.8836 74.2518 23.1935C74.4044 23.5035 74.6455 23.7612 74.9446 23.9341C75.2437 24.107 75.5874 24.1873 75.9321 24.1648C76.2769 24.1424 76.6072 24.0182 76.8813 23.8079C77.1555 23.5977 77.3611 23.3108 77.4722 22.9837C77.5833 22.6566 77.5949 22.3038 77.5055 21.9701C77.3857 21.5231 77.0933 21.1418 76.6925 20.9102C76.2918 20.6785 75.8155 20.6155 75.3683 20.7348ZM76.0458 23.2634C75.879 23.3085 75.7025 23.303 75.5387 23.2477C75.3749 23.1924 75.2313 23.0897 75.1259 22.9527C75.0205 22.8157 74.9582 22.6504 74.9468 22.478C74.9354 22.3055 74.9755 22.1335 75.0619 21.9838C75.1483 21.8341 75.2772 21.7134 75.4323 21.6371C75.5874 21.5607 75.7616 21.5321 75.933 21.5548C76.1043 21.5775 76.2651 21.6506 76.3949 21.7648C76.5246 21.879 76.6176 22.0291 76.662 22.1961C76.7213 22.4194 76.6898 22.657 76.5743 22.857C76.4588 23.057 76.2688 23.2031 76.0458 23.2634Z" fill="white"/>
<path d="M72.6517 25.0787L71.53 25.3793L73.197 16.0119L74.3187 15.7113L72.6517 25.0787Z" fill="white"/>
</g>
</g>
<defs>
<clipPath id="clip0_1170_7759">
<rect width="90.0201" height="90.0201" fill="white" transform="translate(0.464844 5.84204) rotate(-15)"/>
</clipPath>
</defs>
</svg>
