<svg width="84" height="56" viewBox="0 0 84 56" fill="none" xmlns="http://www.w3.org/2000/svg">
<g style="mix-blend-mode:luminosity" opacity="0.1" clip-path="url(#clip0_1170_8837)">
<path d="M24.989 48.9189C24.8885 48.1026 24.9158 47.2756 25.0699 46.4677C26.1458 45.0946 27.7085 44.0609 28.0774 42.2464C28.0912 42.1794 28.0236 42.0946 27.968 42.1728C27.6835 42.579 27.1779 42.8491 26.8295 43.2037C26.6186 43.4149 26.4202 43.6381 26.2353 43.8723C25.8744 44.3797 25.6714 44.9822 25.6516 45.6045C25.4675 45.8042 25.2828 46.0161 25.1193 46.2235C25.1925 45.812 25.279 45.406 25.3671 45.001C25.6418 43.7358 25.949 42.4789 26.3065 41.2323C26.501 41.0506 26.683 40.8559 26.8511 40.6496C27.0293 40.4569 27.182 40.2421 27.3054 40.0105C27.8344 40.0932 28.304 39.7232 28.681 39.3226C29.8205 38.6649 30.6838 37.6312 31.9509 37.2283C32.3096 37.1524 32.6633 37.0541 33.0097 36.9341C33.302 36.8362 33.5821 36.7053 33.8448 36.544C34.1165 36.3593 34.3694 36.1484 34.5998 35.9141C34.8481 35.6726 35.0683 35.4038 35.2561 35.1127C35.3237 34.9956 35.3886 34.8832 35.4693 34.7758C35.5311 34.6675 35.6038 34.5658 35.6862 34.4722C35.737 34.4204 35.8451 34.3558 35.798 34.2786C35.7946 34.2413 35.7789 34.2072 35.7388 34.2153C35.6561 34.2198 35.5739 34.2308 35.4929 34.2482C35.4043 34.272 35.318 34.3096 35.235 34.3345C35.0459 34.3872 34.8617 34.4556 34.684 34.5389C34.3522 34.67 34.0233 34.7819 33.6979 34.9417C33.4834 35.0427 33.269 35.1437 33.0654 35.2655C32.8846 35.3747 32.7202 35.509 32.5771 35.6643C32.496 35.7507 32.4238 35.836 32.3512 35.9294C32.2506 36.0566 32.1573 36.1859 32.0614 36.3158C31.8983 36.5653 31.7194 36.8041 31.5259 37.0308C31.3036 37.24 31.0608 37.4262 30.8011 37.5866C30.7394 37.6321 30.6786 37.6761 30.6154 37.7208C30.1064 38.0868 29.5665 38.4558 29.0692 38.8556C29.6789 38.0773 30.1187 37.1821 30.6155 36.3324C30.6435 36.284 30.6162 36.1725 30.5439 36.2078C28.9326 36.9615 27.786 38.1002 27.2922 39.8135C27.1135 40.1178 26.9 40.4005 26.6561 40.6556C26.5759 40.7405 26.4845 40.823 26.3979 40.9083C26.7361 39.6918 27.152 38.4981 27.6429 37.3348C27.7758 37.0326 27.9139 36.7356 28.0537 36.4395C28.0592 36.4395 28.0647 36.4384 28.0698 36.4362C28.0749 36.434 28.0795 36.4309 28.0834 36.4269C28.0872 36.4229 28.0902 36.4182 28.0922 36.413C28.0942 36.4078 28.0952 36.4023 28.095 36.3968C28.093 36.3842 28.0926 36.3714 28.094 36.3588C28.2281 36.076 28.364 35.7902 28.4996 35.5084C28.6231 35.4139 28.7515 35.3261 28.8845 35.2456C29.3015 34.9992 29.7549 34.8197 30.1896 34.6148C30.3771 34.5232 30.5582 34.4191 30.7317 34.3033C31.1143 34.0579 31.461 33.7607 31.762 33.4201C31.8615 33.309 31.956 33.1887 32.0555 33.0775C32.118 33.0054 32.1829 32.9325 32.2463 32.8588C32.3547 32.7483 32.4518 32.6272 32.5362 32.4974C32.6209 32.3507 32.4394 32.3729 32.3503 32.4047C32.1091 32.4944 31.8825 32.6092 31.6506 32.7189C31.4187 32.8285 31.2311 32.8722 31.0265 32.9705C30.9658 33 30.9031 33.0221 30.841 33.0466C30.7934 33.0721 30.7418 33.0895 30.6885 33.0981C30.6963 33.0584 30.7123 33.0209 30.7355 32.9878C30.7743 32.9207 30.8012 32.8488 30.8359 32.7814C30.8839 32.6951 30.9236 32.6044 30.9548 32.5107C30.9821 32.4315 31.0137 32.3539 31.0495 32.2781C31.069 32.2173 31.0809 32.1542 31.085 32.0905C31.1277 31.9275 31.1881 31.7697 31.2651 31.6199C31.4261 31.2423 31.643 30.8911 31.9083 30.5779C31.9447 30.5364 31.982 30.4934 32.0209 30.4514C32.0598 30.4093 32.0595 30.2655 31.9721 30.3087C31.4238 30.5922 30.917 30.9496 30.4659 31.3708C30.1849 31.6057 29.9327 31.8731 29.7146 32.1673C29.6277 32.2962 29.5375 32.4127 29.4616 32.5479C29.3856 32.6831 29.3125 32.8386 29.2485 32.989C29.0296 33.5017 29.0359 33.9883 28.8684 34.5056C28.7252 34.7248 28.5941 34.9447 28.4674 35.1713C28.477 34.999 28.4618 34.8261 28.4223 34.6581C28.3511 34.4014 28.2461 34.1552 28.11 33.9262C27.9066 33.5328 27.7532 33.1155 27.6531 32.6841C27.6513 32.6731 27.6458 32.6631 27.6376 32.6557C27.6293 32.6482 27.6187 32.6439 27.6076 32.6433C27.5965 32.6427 27.5855 32.646 27.5765 32.6525C27.5675 32.659 27.561 32.6684 27.5581 32.6792C27.3236 33.1683 27.0971 33.712 27.1722 34.2778C27.2656 34.9958 27.696 35.5627 27.9466 36.2174C27.7811 36.5798 27.6219 36.9458 27.4571 37.2962C27.1617 37.9375 26.9012 38.5906 26.6628 39.2523C26.6213 38.3098 26.2678 37.4079 25.6577 36.6882C25.6032 36.6276 25.5634 36.7254 25.5831 36.7742C25.9299 37.5219 25.323 38.4975 25.3815 39.3119C25.4022 39.5639 25.4644 39.8108 25.5654 40.0426C25.6053 40.1322 25.945 40.7696 26.1217 40.9071C26.0802 41.0475 26.0339 41.1853 25.9958 41.3235C25.5869 42.7528 25.2443 44.2078 24.946 45.6655C24.7175 46.7825 24.55 47.8911 24.714 49.0203C24.7313 49.1886 25.0127 49.0762 24.989 48.9189ZM30.9203 32.1702C30.8431 32.4644 30.7183 32.7439 30.5508 32.9977C30.4339 33.1444 30.3002 33.2768 30.1523 33.3922C30.0392 33.4872 29.917 33.5727 29.7934 33.6533C29.7272 33.6914 29.6636 33.734 29.6032 33.7808C29.5383 33.8391 29.4712 33.894 29.4026 33.9481C29.3262 34.002 29.2533 34.0607 29.1845 34.124C29.1104 34.1866 29.0493 34.263 29.0046 34.349C29.0949 34.0822 29.1692 33.8102 29.2271 33.5345C29.2573 33.3957 29.296 33.2588 29.343 33.1247C29.3788 32.999 29.4234 32.8759 29.4765 32.7564C29.5261 32.6506 29.5846 32.5493 29.6514 32.4535C29.7074 32.3817 29.7571 32.3064 29.81 32.2328C29.8939 32.1243 29.9856 32.0221 30.0844 31.927C30.3346 31.6868 30.597 31.4596 30.8707 31.2465C31.1253 31.0382 31.3915 30.8443 31.668 30.666C31.4747 30.9071 31.3119 31.171 31.1831 31.4518C31.0816 31.686 30.9939 31.9259 30.9203 32.1702ZM30.7985 34.0109C30.4536 34.2429 30.094 34.4526 29.7222 34.6384C29.546 34.7345 29.3576 34.8193 29.1774 34.9151C29.0775 34.967 28.9805 35.0243 28.8868 35.0866C28.7896 35.1337 28.7028 35.1996 28.6312 35.2805C28.8179 34.9001 29.0559 34.5472 29.3387 34.2318C29.3906 34.1743 29.4474 34.1155 29.5056 34.0617C29.6119 33.9642 29.725 33.8743 29.844 33.7928C30.1847 33.5753 30.5374 33.3772 30.9005 33.1996C31.0316 33.1275 31.1632 33.0619 31.2963 32.9972C31.5466 32.8774 31.804 32.7741 32.0543 32.6542C32.0883 32.6385 32.2052 32.5623 32.2487 32.5771C32.2922 32.5918 32.2032 32.7028 32.1838 32.7291C32.0536 32.8933 31.8911 33.0305 31.7534 33.1862C31.6988 33.2484 31.6464 33.3139 31.5886 33.3742C31.4595 33.5078 31.3175 33.6131 31.1747 33.7306C31.1058 33.7886 31.0285 33.8397 30.9567 33.8919L30.8918 33.9357L30.7985 34.0109ZM28.0379 36.0162C27.929 35.7452 27.8032 35.4814 27.6613 35.2263C27.3966 34.6571 27.0841 33.7273 27.4821 33.139C27.7096 32.8062 27.6047 33.1141 27.6937 33.3674C27.7693 33.5638 27.8588 33.7546 27.9615 33.9383C28.2043 34.4011 28.4196 34.9043 28.3265 35.4189C28.234 35.6152 28.1358 35.8104 28.0406 36.0115L28.0379 36.0162ZM31.67 37.1056C31.6906 37.0988 31.7221 37.0442 31.7361 37.0272C31.75 37.0103 31.7839 36.9695 31.806 36.9385C31.8523 36.8799 31.8964 36.818 31.9396 36.7576C32.0269 36.6352 32.1095 36.5101 32.1953 36.3869C32.3449 36.1821 32.5103 35.9895 32.6902 35.8108C33.3017 35.1772 34.1699 34.8812 34.9842 34.5957C35.0519 34.5723 35.2593 34.4797 35.3419 34.517C35.4418 34.5747 35.0727 35.0193 35.0329 35.0775C34.7527 35.4766 34.4258 35.8406 34.0591 36.1619C33.8153 36.3753 33.5416 36.5518 33.2467 36.6858C32.9239 36.8225 32.5869 36.9225 32.2418 36.9841L31.9314 37.0567C31.8439 37.0634 31.7573 37.0782 31.6727 37.101L31.67 37.1056ZM27.3801 39.91C27.7087 39.1463 27.9233 38.4355 28.5212 37.8002C29.0521 37.2511 29.6783 36.8029 30.3694 36.4776C29.9088 37.3149 29.3712 38.495 28.6069 39.2382L28.4801 39.3461C28.4801 39.3461 28.4801 39.3461 28.4756 39.3539C28.1698 39.6383 27.7902 39.831 27.3801 39.91ZM25.7413 40.0047C25.5362 39.5311 25.4812 39.006 25.5837 38.5002C25.6379 38.136 25.7633 37.7817 25.7942 37.4144C25.7942 37.4144 25.7652 37.1042 25.75 36.9538C25.8174 37.176 26.1572 37.7593 26.2043 37.876C26.4591 38.4645 26.5603 39.1081 26.4983 39.7464C26.3895 40.0646 26.2855 40.3854 26.1879 40.7059C26.0261 40.4806 25.877 40.2465 25.7413 40.0047ZM25.7624 45.4811C25.8903 44.8701 26.038 44.333 26.46 43.8293C26.7433 43.4906 27.0553 43.1769 27.3926 42.8918C27.5524 42.7593 27.726 42.6389 27.8775 42.4953C27.534 43.7104 26.6157 44.5728 25.7642 45.478L25.7624 45.4811Z" fill="#E0E0E0"/>
<path d="M70.625 17.5328C69.3357 16.8238 67.9134 16.5147 66.4703 16.2956C64.5752 16.005 62.6627 15.7626 60.7522 15.6067C60.5674 15.5916 60.3805 15.5836 60.1923 15.5707C60.1054 15.2957 59.4916 14.5958 59.4007 14.508C59.1668 14.2809 58.8966 14.0946 58.6011 13.9568C57.6519 13.517 56.1868 13.8119 55.4458 13.051C55.3953 13.0052 55.2618 13.0093 55.3088 13.1009C55.8108 14.034 56.8266 15.0472 57.9358 15.4732C57.0287 15.4616 56.1206 15.4806 55.2136 15.5481C54.7161 15.5877 54.2032 15.6143 53.6953 15.654C53.0188 15.0553 52.5299 14.2797 51.7041 13.8425C51.0554 13.495 50.306 13.5203 49.5986 13.5844C49.5847 13.5838 49.571 13.5879 49.5596 13.5959C49.5482 13.6039 49.5398 13.6155 49.5357 13.6288C49.5316 13.6421 49.532 13.6564 49.5368 13.6695C49.5417 13.6825 49.5507 13.6936 49.5626 13.701C50.0371 14.0174 50.4709 14.3909 50.8543 14.8131C51.0701 15.0813 51.3196 15.3205 51.5966 15.5248C51.7822 15.6471 51.9838 15.7432 52.1957 15.8104C51.8657 15.8592 51.5414 15.9197 51.2115 15.9936C50.5053 15.9585 49.9167 15.7269 49.2014 15.7615C48.9885 15.7697 48.7814 15.7896 48.5762 15.8168C48.371 15.8441 48.1901 15.9124 48.0003 15.9527C47.5447 16.0852 47.1063 16.2709 46.6942 16.5059C45.9852 16.8606 45.3278 17.3102 44.7402 17.8424C44.6461 17.9296 44.8229 17.9984 44.891 17.9669C44.9591 17.9355 45.0283 17.913 45.0998 17.8793C45.5983 17.7013 46.1206 17.5987 46.6494 17.575C46.8645 17.5488 47.0819 17.5472 47.2974 17.5702C47.3785 17.5945 47.4624 17.6079 47.547 17.6103C47.6555 17.6063 47.7644 17.5942 47.8731 17.6008C47.9996 17.6063 48.1264 17.5993 48.2515 17.5799C48.3499 17.568 48.4481 17.5602 48.5508 17.5445C48.5922 17.5413 48.671 17.5202 48.7063 17.5385C48.6684 17.6045 48.6195 17.6636 48.5617 17.7132C48.5031 17.7751 48.4482 17.8412 48.3849 17.9004C48.174 18.1034 48.0089 18.339 47.8042 18.5456C47.5684 18.7738 47.3326 19.0019 47.1104 19.2462C47.0304 19.3416 46.9176 19.5513 47.1372 19.5136C47.3321 19.4703 47.5222 19.4078 47.7048 19.3271C47.822 19.2865 47.9387 19.2394 48.0551 19.1963C48.2355 19.1256 48.4206 19.068 48.6009 18.9973C49.148 18.7869 49.6631 18.5014 50.1315 18.149C50.3519 17.9918 50.5616 17.8201 50.7592 17.6351C51.203 17.1981 51.6272 16.7374 52.1165 16.337C52.2732 16.2143 52.4364 16.1001 52.6055 15.9949C53.0074 15.9584 53.4134 15.9222 53.8176 15.8891L53.8598 15.9135C53.8731 15.9186 53.8879 15.9182 53.9009 15.9125C53.914 15.9068 53.9242 15.8962 53.9295 15.8829C54.35 15.8468 54.7712 15.8131 55.2002 15.7839C56.828 15.7159 58.4585 15.7534 60.0815 15.896C59.937 15.9624 59.7937 16.0338 59.6587 16.0911C59.2409 16.2718 58.8031 16.402 58.3544 16.4789C56.0527 16.3157 54.1556 17.175 52.5228 18.7844C52.4483 18.8559 52.5702 18.9367 52.6474 18.9292C52.7246 18.9217 52.8571 18.8941 52.9622 18.8778C53.7729 18.7464 54.5837 18.6941 55.3857 18.5201C56.1592 18.3827 56.9042 18.1171 57.5901 17.7341C57.8311 17.6019 58.0524 17.4369 58.2479 17.2438C58.3374 17.1481 58.4139 17.0411 58.4754 16.9255C58.4926 16.8958 58.5929 16.5958 58.5929 16.5958C58.9312 16.5501 59.2622 16.4614 59.578 16.3318C59.9038 16.2222 60.2216 16.0898 60.529 15.9358C62.1962 16.0658 63.8511 16.2677 65.4985 16.5151C66.0292 16.5947 66.5592 16.6717 67.0896 16.7698C66.7537 16.8756 66.4195 17.0074 66.0995 17.1327C65.3331 16.8701 64.5058 16.8418 63.7233 17.0515C63.3568 17.1697 62.9978 17.31 62.6482 17.4716C62.0607 17.7319 61.5065 18.2196 60.887 18.3803C60.7682 18.4095 60.8376 18.5308 60.9247 18.5457C63.2836 18.9272 65.2392 17.4979 67.3837 16.8229C68.4269 17.0024 69.4357 17.3439 70.3735 17.8351C70.5609 17.9287 70.8213 17.6399 70.625 17.5328ZM46.4825 17.3953C46.0838 17.4209 45.6901 17.4971 45.3107 17.6222C45.6514 17.3687 46.0066 17.1352 46.3744 16.9228C46.7551 16.6874 47.1482 16.4724 47.5518 16.2787C47.7105 16.2027 47.8747 16.1389 48.043 16.0877C48.1557 16.0549 48.2687 16.0286 48.3822 15.9942C48.5275 15.9561 48.6761 15.9318 48.826 15.9215C48.9943 15.9104 49.1632 15.9119 49.3313 15.926C49.5142 15.9305 49.6966 15.9455 49.8778 15.9709C50.2362 16.0317 50.598 16.0709 50.9611 16.0884C50.8369 16.1027 50.7167 16.1416 50.6077 16.2029C50.4991 16.2568 50.3943 16.318 50.2939 16.386C50.1975 16.4448 50.1004 16.5011 50.002 16.5526C49.918 16.6037 49.8381 16.6613 49.7631 16.7248C49.609 16.8367 49.4491 16.9403 49.2841 17.0353C49.0746 17.1627 48.8508 17.2647 48.6173 17.3393C48.2373 17.426 47.8458 17.4502 47.458 17.4111C47.1335 17.3855 46.8077 17.3803 46.4825 17.3953ZM49.6247 18.1832C49.5968 18.2026 49.5706 18.2228 49.5437 18.2406C49.4461 18.305 49.3515 18.3752 49.2488 18.4304C49.0417 18.544 48.8428 18.6685 48.6304 18.7624C48.5309 18.8049 48.4279 18.8391 48.3287 18.8776C48.0774 18.9739 47.8375 19.1081 47.5822 19.1897C47.5419 19.2019 47.3656 19.2729 47.3684 19.1995C47.3712 19.1262 47.5141 19.0338 47.55 19.0004C47.808 18.7518 48.0522 18.4911 48.3071 18.2406C48.4441 18.1116 48.5827 17.9834 48.7337 17.8624C49.1106 17.5049 49.5075 17.169 49.9224 16.8563C50.0726 16.7467 50.2305 16.6479 50.3948 16.5608C50.4872 16.5163 50.5817 16.4751 50.6744 16.4371C51.1831 16.2381 51.7166 16.1098 52.2602 16.0557C52.1317 16.1049 52.0138 16.1782 51.9128 16.2715C51.7953 16.3598 51.6833 16.4492 51.5733 16.5459C51.3771 16.7199 51.1904 16.9098 50.9945 17.0798C50.5986 17.4448 50.18 17.7843 49.7413 18.0965C49.7016 18.1257 49.6635 18.1557 49.6247 18.1832ZM52.5511 15.7574C51.8864 15.6359 51.3754 15.1473 50.9266 14.6446C50.755 14.4374 50.5692 14.2425 50.3704 14.0612C50.1051 13.8394 49.6765 13.8209 50.19 13.7031C51.0816 13.4893 52.0603 14.2854 52.6291 14.8615C52.9147 15.1492 53.1219 15.45 53.4108 15.6709C53.1273 15.6967 52.8343 15.7211 52.5511 15.7574ZM57.2479 17.7176L57.2385 17.7122C57.176 17.7448 57.1123 17.783 57.0531 17.8134C55.8097 18.3986 54.1476 18.5193 52.9217 18.6921C53.6274 18.0054 54.4517 17.4523 55.3546 17.0596C56.397 16.6206 57.3493 16.6875 58.4192 16.637C58.1371 17.1007 57.7286 17.4743 57.2416 17.714L57.2479 17.7176ZM59.9224 15.5586C59.4897 15.5293 59.0537 15.5129 58.6218 15.4966C57.8226 15.2842 57.0908 14.8717 56.4952 14.298C56.3759 14.1875 55.8243 13.5131 55.5935 13.3361C55.7671 13.4176 56.1256 13.5934 56.1294 13.5976C56.5881 13.7334 57.0731 13.7407 57.5364 13.8396C58.1938 13.9457 58.8033 14.2496 59.2836 14.7109C59.5097 14.9805 59.7209 15.2623 59.9162 15.5549L59.9224 15.5586ZM61.3171 18.4142C61.5616 18.2972 61.7825 18.1417 62.0159 18.0079C62.5113 17.7261 63.0304 17.4881 63.5673 17.2965C64.3574 17.0096 65.0809 17.0797 65.8764 17.2017C64.3941 17.8259 62.9383 18.5446 61.3108 18.4106L61.3171 18.4142Z" fill="#E0E0E0"/>
<path d="M15.4943 63.9288L21.5469 74.4113C21.6291 74.5367 21.7396 74.6411 21.8695 74.7161C21.9994 74.7911 22.145 74.8346 22.2947 74.8431L59.1791 74.8577C59.4552 74.8589 59.567 74.6653 59.4288 74.4252L53.4269 63.9449C53.3457 63.819 53.2357 63.7142 53.1059 63.6393C52.9761 63.5643 52.8303 63.5214 52.6806 63.5141L15.744 63.4963C15.4678 63.4951 15.3561 63.6887 15.4943 63.9288Z" fill="#E0E0E0"/>
<path d="M58.9542 60.2021C57.4003 57.5106 58.6604 55.328 61.7683 55.328C64.8762 55.3279 68.6543 57.5093 70.2083 60.2008C71.7622 62.8923 70.5021 65.0749 67.3942 65.0749C64.2863 65.075 60.5081 62.8936 58.9542 60.2021Z" fill="#407BFF"/>
<path opacity="0.4" d="M58.9542 60.2021C57.4003 57.5106 58.6604 55.328 61.7683 55.328C64.8762 55.3279 68.6543 57.5093 70.2083 60.2008C71.7622 62.8923 70.5021 65.0749 67.3942 65.0749C64.2863 65.075 60.5081 62.8936 58.9542 60.2021Z" fill="white"/>
<path d="M61.0599 62.746L61.0506 62.7406C61.0377 62.7316 61.0267 62.7201 61.0183 62.7068C61.0099 62.6936 61.0042 62.6788 61.0015 62.6633C60.9988 62.6478 60.9992 62.632 61.0027 62.6166C61.0062 62.6013 61.0127 62.5869 61.0218 62.5741L72.2275 46.7202C72.2463 46.695 72.274 46.6779 72.305 46.6726C72.336 46.6672 72.3678 46.674 72.394 46.6915C72.4069 46.7005 72.4178 46.7119 72.4262 46.7252C72.4347 46.7384 72.4404 46.7532 72.4431 46.7687C72.4457 46.7842 72.4453 46.8 72.4418 46.8154C72.4384 46.8307 72.4319 46.8451 72.4228 46.8579L61.2171 62.7118C61.1999 62.7361 61.1742 62.7531 61.1451 62.7594C61.1161 62.7658 61.0857 62.761 61.0599 62.746Z" fill="#37474F"/>
<path d="M70.8005 62.7367C70.7805 62.7254 70.7644 62.7084 70.754 62.688C70.7436 62.6676 70.7394 62.6445 70.742 62.6217L72.2058 46.7784C72.2085 46.7469 72.2237 46.7177 72.2479 46.6974C72.2722 46.677 72.3035 46.6671 72.3351 46.6699C72.3666 46.6726 72.3958 46.6878 72.4161 46.712C72.4365 46.7363 72.4464 46.7676 72.4436 46.7992L70.9789 62.644C70.9776 62.6597 70.9732 62.6749 70.966 62.6888C70.9587 62.7027 70.9488 62.7151 70.9368 62.7252C70.9248 62.7353 70.9109 62.7429 70.8959 62.7476C70.881 62.7523 70.8652 62.754 70.8496 62.7526C70.8323 62.7509 70.8155 62.7455 70.8005 62.7367Z" fill="#37474F"/>
<path d="M61.708 55.4326C61.6954 55.4249 61.6842 55.4149 61.6751 55.4032C61.6649 55.391 61.6572 55.377 61.6525 55.3618C61.6478 55.3467 61.6462 55.3308 61.6477 55.315C61.6493 55.2992 61.6539 55.2839 61.6615 55.2699C61.6691 55.256 61.6793 55.2437 61.6917 55.2338L72.2437 46.6921C72.2559 46.6821 72.27 46.6746 72.2851 46.6701C72.3002 46.6656 72.3161 46.6642 72.3317 46.6659C72.3474 46.6676 72.3626 46.6724 72.3764 46.68C72.3902 46.6876 72.4024 46.6979 72.4122 46.7103C72.4319 46.7351 72.441 46.7667 72.4376 46.7982C72.4342 46.8298 72.4185 46.8587 72.394 46.8788L61.842 55.4205C61.8234 55.4356 61.8007 55.4448 61.7769 55.4469C61.753 55.4491 61.7291 55.4441 61.708 55.4326Z" fill="#37474F"/>
<path d="M74.3665 45.5968L73.9481 45.3552C73.9285 45.4039 73.9054 45.4511 73.879 45.4964C73.577 46.0195 72.8891 46.4611 72.3745 46.4618C72.3088 46.4687 72.2425 46.459 72.1815 46.4336C72.1205 46.4082 72.0668 46.3679 72.0255 46.3164C71.9531 46.1893 71.9888 45.9726 72.1249 45.7368C72.2403 45.5441 72.3889 45.3734 72.5638 45.2325L72.1235 44.9784C71.9619 45.1309 71.8225 45.3056 71.7096 45.4971C71.4842 45.8874 71.4465 46.2736 71.6096 46.5572C71.6732 46.6665 71.7644 46.7572 71.8741 46.8202C72.0274 46.904 72.2002 46.9455 72.3749 46.9407C73.0598 46.9406 73.9024 46.4113 74.2927 45.7353C74.3197 45.6905 74.3444 45.6442 74.3665 45.5968Z" fill="#455A64"/>
<path d="M79.7376 58.1505C79.4233 57.6131 79.4004 57.1336 79.6023 56.7838C79.8042 56.4341 80.2372 56.2178 80.8535 56.2177C82.086 56.2173 83.5847 57.0826 84.2007 58.1502C84.515 58.6876 84.5379 59.1671 84.336 59.5168C84.134 59.8665 83.7011 60.0828 83.0848 60.083C81.8523 60.0833 80.3535 59.218 79.7376 58.1505Z" fill="#37474F"/>
<g opacity="0.25">
<path d="M84.4616 58.9314C84.434 58.6559 84.3438 58.3902 84.1981 58.1548C83.5821 57.0872 82.0833 56.2219 80.8508 56.2222C80.5745 56.2146 80.3 56.2696 80.048 56.3832C79.9496 56.6907 80.0065 57.0753 80.2494 57.4945C80.8288 58.4993 82.2386 59.3133 83.3984 59.3126C83.8814 59.3125 84.243 59.1695 84.4616 58.9314Z" fill="black"/>
</g>
<path d="M80.4312 57.179C80.1398 56.6777 80.113 56.223 80.3032 55.8936C80.4934 55.5642 80.9006 55.36 81.4804 55.3617C82.6402 55.3611 84.05 56.175 84.6294 57.1798C84.9192 57.6802 84.9476 58.1358 84.7574 58.4652C84.5672 58.7946 84.1584 58.9978 83.5802 58.9971C82.4239 58.9915 81.0141 58.1775 80.4312 57.179Z" fill="#37474F"/>
<g opacity="0.25">
<path d="M84.8701 57.9059C84.8427 57.6509 84.7592 57.4052 84.6258 57.1862C84.0464 56.1814 82.6367 55.3674 81.4768 55.3681C81.2204 55.3614 80.9657 55.4121 80.7313 55.5164C80.6871 55.6944 80.6808 55.8797 80.7129 56.0602C80.7449 56.2408 80.8145 56.4126 80.9172 56.5646C81.4617 57.5035 82.7825 58.266 83.8679 58.2682C84.051 58.2816 84.2349 58.2563 84.4076 58.1938C84.5803 58.1314 84.7379 58.0333 84.8701 57.9059Z" fill="black"/>
</g>
<path d="M81.1228 56.2085C80.8514 55.7375 80.826 55.3128 81.0045 55.0037C81.183 54.6945 81.5635 54.5042 82.1062 54.5052C83.1915 54.5074 84.5123 55.2699 85.0569 56.2088C85.3292 56.6783 85.3552 57.1055 85.1776 57.413C85.0001 57.7206 84.6171 57.9116 84.0735 57.9121C82.9872 57.9115 81.6664 57.149 81.1228 56.2085Z" fill="#37474F"/>
<g opacity="0.25">
<path d="M85.2822 56.8427C85.2523 56.618 85.1755 56.4021 85.057 56.2089C84.5124 55.27 83.1916 54.5074 82.1063 54.5053C81.8802 54.5001 81.6554 54.5419 81.4463 54.628C81.3885 54.9483 81.4566 55.2785 81.6365 55.5497C82.1435 56.4273 83.3754 57.1385 84.389 57.1388C84.7138 57.159 85.0338 57.0529 85.2822 56.8427Z" fill="black"/>
</g>
<g opacity="0.15">
<path d="M80.3322 56.9907C80.1632 56.5622 80.7068 56.1038 81.0524 56.0785C80.9626 55.6103 81.3608 55.2595 81.8169 55.2376C81.9545 55.4704 82.1258 55.6815 82.3253 55.8641C81.8701 55.8845 81.4335 56.2694 81.5258 56.7369C81.1793 56.7638 80.613 57.2362 80.7951 57.6744C80.4612 57.7335 79.913 58.1205 80.1025 58.6504C79.919 58.4471 79.7657 58.2184 79.6474 57.9713C79.4592 57.4464 79.9998 57.0508 80.3322 56.9907Z" fill="white"/>
</g>
<path d="M85.628 55.5478C85.5843 55.4143 85.6874 54.6516 86.1626 53.652C87.7807 50.2543 90.1962 46.0743 92.0296 42.8987L90.1452 41.8108C88.3127 44.9848 85.9087 49.1485 83.7715 52.259C83.1407 53.175 82.5265 53.651 82.3891 53.6799C82.2496 53.6978 82.1158 53.7461 81.9971 53.8215C81.8784 53.8969 81.7778 53.9974 81.7023 54.116C81.5355 54.4048 81.5601 54.8021 81.8149 55.2406C82.3194 56.1189 83.5528 56.831 84.5673 56.8297C85.0729 56.8301 85.4292 56.6528 85.5959 56.364C85.6606 56.2386 85.6969 56.1005 85.7025 55.9594C85.708 55.8184 85.6826 55.6779 85.628 55.5478Z" fill="#455A64"/>
<g opacity="0.15">
<path d="M85.3056 55.551C85.2872 54.9554 85.2591 54.5499 85.7911 53.4229C86.2872 52.3833 91.7178 43.1287 91.9079 42.8284L91.7689 42.7482L91.5681 42.703C90.7046 44.1986 85.17 53.5576 84.9201 54.5062C84.6701 55.4547 84.7074 56.5691 83.7661 56.6959C84.024 56.7772 84.2925 56.82 84.5629 56.8229C85.1887 56.5972 85.324 56.1465 85.3056 55.551Z" fill="black"/>
</g>
<g opacity="0.15">
<path d="M82.5532 53.962C83.0782 53.6801 83.4435 53.5017 84.1535 52.4774C84.8057 51.528 90.1036 42.1968 90.2702 41.8829L90.4014 41.9587L90.5409 42.11C89.6774 43.6056 84.3395 53.0782 83.6415 53.768C82.9435 54.4579 81.9613 54.9837 82.3236 55.8632C82.1241 55.6807 81.9527 55.4695 81.8153 55.2366C81.7057 54.5863 82.0283 54.2438 82.5532 53.962Z" fill="white"/>
</g>
<path d="M92.9141 38.9255C92.6297 38.9181 92.3468 38.9178 92.0653 38.9246C89.055 38.8998 85.8708 38.8121 84.1934 39.792C83.5596 40.1568 82.9939 40.629 82.5218 41.1875C81.4623 41.6166 80.4245 42.0583 79.3946 42.5045C78.6092 42.8482 77.8308 43.194 77.0483 43.5145L77.0036 43.5199C76.964 43.52 76.9403 43.525 76.9387 43.5387C76.937 43.5523 76.9206 43.5699 76.8966 43.5394C76.852 43.4057 76.8562 43.2606 76.9083 43.1298C76.9568 42.9494 77.03 42.7766 77.1257 42.6162C77.2202 42.4445 77.3436 42.2904 77.4906 42.1608C77.4997 42.1526 77.5065 42.1421 77.5104 42.1304C77.5142 42.1188 77.5149 42.1063 77.5124 42.0943C77.5077 42.0773 77.4966 42.0629 77.4814 42.0542C77.4662 42.0454 77.4482 42.043 77.4312 42.0474C77.2079 42.1009 76.9986 42.2015 76.8174 42.3425C76.6295 42.4828 76.4631 42.6496 76.3233 42.8378C76.1489 43.0627 76.0462 43.3349 76.0284 43.6189C76.0281 43.7152 76.0431 43.811 76.0728 43.9026C75.5538 44.0984 75.0265 44.2727 74.5113 44.4187C73.9783 44.5749 73.431 44.6773 72.8776 44.7245C72.3277 44.79 72.0219 44.6634 71.9239 44.4257C71.8763 44.2548 71.8875 44.0729 71.9557 43.9091C72.0381 43.6778 72.1563 43.4609 72.3061 43.2662C72.4637 43.0562 72.6443 42.8645 72.8444 42.6944C73.0421 42.5231 73.2597 42.3762 73.4926 42.2568C73.7071 42.1448 73.9414 42.0757 74.1824 42.0535C74.2795 42.0474 74.3769 42.0579 74.4705 42.0845C74.5358 42.1057 74.5928 42.1467 74.6339 42.2017C74.673 42.2649 74.688 42.3401 74.6761 42.4135C74.6623 42.525 74.6282 42.633 74.5754 42.7321C74.4565 42.9622 74.2954 43.1679 74.1004 43.3384C73.9096 43.5184 73.6831 43.6564 73.4356 43.7435C73.3255 43.7806 73.2089 43.7947 73.0931 43.7852C73.0506 43.7829 73.0091 43.7706 72.9722 43.7493C72.9354 43.728 72.904 43.6983 72.8808 43.6626L72.8721 43.6451C72.8495 43.6061 72.8138 43.5765 72.7713 43.5615C72.7289 43.5465 72.6824 43.5472 72.6404 43.5633C72.6169 43.5717 72.5955 43.5849 72.5773 43.602C72.5592 43.6191 72.5448 43.6398 72.5351 43.6627C72.5254 43.6857 72.5205 43.7104 72.5208 43.7353C72.5211 43.7602 72.5266 43.7848 72.5369 43.8075C72.577 43.9096 72.6443 43.9988 72.7314 44.0655C72.814 44.1281 72.9087 44.1728 73.0094 44.1969C73.1868 44.2338 73.37 44.2325 73.5468 44.1928C73.8729 44.1166 74.1792 43.972 74.4453 43.7686C74.7182 43.5722 74.9495 43.3237 75.1257 43.0373C75.2215 42.8808 75.2897 42.7089 75.3274 42.5293C75.3493 42.4245 75.3552 42.317 75.3449 42.2105C75.3343 42.0938 75.3008 41.9803 75.2462 41.8767C75.14 41.6712 74.9669 41.5081 74.7554 41.4143C74.5721 41.3328 74.3741 41.2893 74.1735 41.2865C73.82 41.2867 73.4703 41.3589 73.1455 41.4986C72.8391 41.6293 72.5493 41.796 72.2822 41.9952C72.0147 42.1917 71.7702 42.4179 71.5536 42.6695C71.3221 42.9317 71.1341 43.2294 70.9967 43.5511C70.9223 43.7315 70.8723 43.9211 70.8482 44.1148C70.8216 44.3361 70.8417 44.5604 70.9072 44.7734C70.9797 44.9889 71.0981 45.1861 71.2542 45.3514C71.4104 45.5167 71.6006 45.6461 71.8117 45.7306C71.9976 45.808 72.1937 45.8582 72.394 45.8795C72.4868 45.8917 72.5802 45.8984 72.6738 45.8995L72.9187 45.8972C74.2224 45.8673 75.4256 45.5211 76.5742 45.1434C76.9897 45.0031 77.4012 44.8576 77.8086 44.7071C77.949 44.6896 78.0859 44.6506 78.2145 44.5917C78.3253 44.5463 78.4321 44.4916 78.5337 44.4283C80.1347 43.8185 81.6911 43.16 83.2707 42.5837C85.4685 41.7876 87.6944 41.1014 89.9564 40.8107C90.6065 40.7273 91.2605 40.6775 91.9158 40.6618L92.9172 38.9273L92.9141 38.9255ZM83.4172 40.8301C83.577 40.6289 83.9416 40.3003 84.7429 39.976C85.9736 39.4813 87.4671 39.3715 88.3721 39.3652C86.6832 39.7175 85.026 40.2074 83.4172 40.8301Z" fill="#455A64"/>
<path d="M39.4267 28.9047C39.0847 29.6773 38.5628 30.0837 38.0612 30.0835C37.8886 30.0754 37.7204 30.0261 37.5707 29.9397C37.4211 29.8533 37.2943 29.7323 37.201 29.5868C36.4053 28.5133 36.3557 26.3926 37.1016 24.8374C37.6749 23.6426 38.4879 23.0024 39.26 23.0027C39.739 23.0024 40.2023 23.2491 40.5824 23.7662C41.2031 24.6055 41.5693 25.8931 41.616 27.2544L39.6268 27.2529C39.6268 27.2529 39.9003 27.8355 39.4267 28.9047Z" fill="#E0E0E0"/>
<path opacity="0.1" d="M39.4267 28.9047C39.0847 29.6773 38.5628 30.0837 38.0612 30.0835C37.8886 30.0754 37.7204 30.0261 37.5707 29.9397C37.4211 29.8533 37.2943 29.7323 37.201 29.5868C36.4053 28.5133 36.3557 26.3926 37.1016 24.8374C37.6749 23.6426 38.4879 23.0024 39.26 23.0027C39.739 23.0024 40.2023 23.2491 40.5824 23.7662C41.2031 24.6055 41.5693 25.8931 41.616 27.2544L39.6268 27.2529C39.6268 27.2529 39.9003 27.8355 39.4267 28.9047Z" fill="black"/>
<path d="M76.4974 28.9249C76.972 27.8542 76.6975 27.2731 76.6975 27.2731L39.626 27.2545C39.626 27.2545 39.9032 27.8309 39.4268 28.9047C39.0833 29.6764 38.5614 30.0829 38.0614 30.0836L75.134 30.0966C75.6405 30.0955 76.1575 29.6904 76.4974 28.9249Z" fill="#E0E0E0"/>
<path opacity="0.3" d="M76.4974 28.9249C76.972 27.8542 76.6975 27.2731 76.6975 27.2731L39.626 27.2545C39.626 27.2545 39.9032 27.8309 39.4268 28.9047C39.0833 29.6764 38.5614 30.0829 38.0614 30.0836L75.134 30.0966C75.6405 30.0955 76.1575 29.6904 76.4974 28.9249Z" fill="black"/>
<path d="M22.6329 62.5463L40.7361 31.1907C42.044 28.9254 41.8247 25.4473 40.5816 23.7679C39.5856 22.4247 38.0278 22.9054 37.099 24.8422C36.3576 26.3896 36.4011 28.5172 37.1984 29.5916C37.8366 30.4513 38.87 30.1612 39.4268 28.9048C39.9005 27.8356 39.626 27.2545 39.626 27.2545L39.1214 27.494L39.1121 27.4741C39.1192 27.4906 39.2645 27.8951 38.9162 28.6787C38.6558 29.2631 38.3267 29.4978 38.1039 29.5232C38.0112 29.5247 37.9198 29.501 37.8395 29.4546C37.7592 29.4083 37.693 29.341 37.648 29.26C36.9741 28.3505 36.954 26.4383 37.6031 25.0833C38.0324 24.1883 38.6187 23.6234 39.1744 23.5695C39.5245 23.5364 39.8457 23.7156 40.1326 24.1019C41.2053 25.5539 41.4823 28.7697 40.2475 30.9086L22.1443 62.2642C21.1605 63.9736 20.6425 65.9112 20.642 67.8835C20.6416 69.8558 21.1586 71.7936 22.1416 73.5035L22.305 73.7831L22.6294 73.221C21.693 71.598 21.2003 69.757 21.201 67.8832C21.2016 66.0094 21.6954 64.1688 22.6329 62.5463Z" fill="#455A64"/>
<path d="M59.7053 62.5633L77.8085 31.2077C79.1164 28.9423 78.8987 25.4652 77.654 23.7848C77.2721 23.2709 76.8088 23.0242 76.33 23.0205L39.259 23.0084C39.7379 23.008 40.2013 23.2547 40.5813 23.7718C41.8245 25.4513 42.0422 28.9284 40.7343 31.1937L22.6329 62.5463C21.6963 64.1685 21.2031 66.0086 21.2028 67.8818C21.2025 69.755 21.6951 71.5953 22.6313 73.2178L59.7052 73.2358C58.7687 71.6133 58.2756 69.7729 58.2757 67.8995C58.2757 66.0262 58.7687 64.1858 59.7053 62.5633Z" fill="#A2A2A2"/>
<path d="M77.654 23.7848C77.2721 23.2709 76.8088 23.0242 76.33 23.0205L39.259 23.0084C39.7379 23.008 40.2013 23.2547 40.5813 23.7718C41.0759 24.4404 41.4073 25.3915 41.5408 26.4366L78.6197 26.4532C78.4815 25.4054 78.1485 24.4534 77.654 23.7848Z" fill="#8E8E8E"/>
<path d="M76.9517 23.3752C77.1706 23.5079 77.3602 23.6839 77.5086 23.8924C78.6549 25.4369 78.9585 28.8553 77.6524 31.1176L59.5492 62.4732C58.6258 64.0785 58.1274 65.893 58.1012 67.7447C58.075 69.5965 58.5219 71.4243 59.3995 73.0551L22.7376 73.0336C21.8447 71.444 21.3802 69.6497 21.3895 67.8264C21.3988 66.0032 21.8818 64.2137 22.7909 62.6333L40.9157 31.2402C42.1706 29.0234 42.0844 25.4952 40.7267 23.6643C40.5968 23.4863 40.4427 23.3273 40.2689 23.1918L76.327 23.2061C76.5462 23.2072 76.7612 23.2667 76.9499 23.3784M77.04 23.2222C76.8243 23.0915 76.5776 23.021 76.3254 23.0178L39.259 23.0084C39.5113 23.0109 39.7582 23.0816 39.9736 23.2128C40.2145 23.3566 40.4234 23.548 40.5876 23.7755C41.8308 25.4549 42.0485 28.932 40.7406 31.1974L22.6392 62.5499C21.7026 64.1721 21.2093 66.0123 21.209 67.8855C21.2087 69.7587 21.7014 71.599 22.6375 73.2215L59.7052 73.2358C58.7687 71.6133 58.2757 69.7729 58.2757 67.8996C58.2757 66.0262 58.7688 64.1858 59.7053 62.5634L77.8085 31.2077C79.1164 28.9424 78.8987 25.4652 77.654 23.7849C77.4899 23.5573 77.281 23.3658 77.04 23.2222Z" fill="#E0E0E0"/>
<path d="M45.2204 31.3441L45.288 31.227L46.0505 31.2259L45.982 31.3446L45.6091 31.3811L45.5485 31.3816L45.2204 31.3441ZM45.3325 32.7327C45.5886 32.7328 45.82 32.577 46.0589 32.1633L46.5997 31.2266L46.7435 31.2263L46.1846 32.1943C45.8782 32.7251 45.5045 32.9361 45.1304 32.9387C44.7563 32.9412 44.6179 32.7448 44.8937 32.267L45.0478 32C45.1938 31.7471 45.3426 31.4895 45.4886 31.2366L45.8293 31.2377C45.6833 31.4906 45.5346 31.7482 45.385 32.0074L45.2723 32.2025C45.0217 32.597 45.0908 32.7368 45.3325 32.7327ZM46.5354 31.3705L46.2819 31.3408L46.3504 31.2221L46.9512 31.2234L46.8836 31.3405L46.5975 31.371L46.5354 31.3705Z" fill="#455A64"/>
<path d="M46.2457 32.8999C46.3115 32.786 46.4621 32.5252 46.5522 32.3691L46.6279 32.238C46.7082 32.099 46.7451 32.035 46.8019 31.9366L46.6376 31.9147L46.6917 31.821L47.2005 31.6609L47.2272 31.6868L47.0897 31.9717L46.859 32.3714C46.7689 32.5275 46.6201 32.7851 46.5561 32.8959L46.2457 32.8999ZM46.7672 32.7971L46.7077 32.9002L46.0843 32.8983L46.1429 32.7968L46.4251 32.7516L46.5463 32.7508L46.7672 32.7971ZM47.7631 32.1106L47.6116 32.3729C47.5215 32.529 47.3728 32.7867 47.3088 32.8975L46.9897 32.8985C47.0564 32.783 47.2042 32.527 47.2971 32.3662L47.4341 32.1289C47.5476 31.9321 47.5348 31.8643 47.4095 31.8649C47.249 31.8858 47.0965 31.9476 46.9667 32.0443L46.8956 32.0448L46.9758 31.9059L47.1251 31.9068L46.9901 31.9641C47.178 31.7928 47.415 31.6849 47.6676 31.6559C47.9011 31.6553 47.9433 31.7984 47.7631 32.1106ZM47.3016 32.7477L47.5223 32.7981L47.4628 32.9011L46.8385 32.9008L46.898 32.7977L47.1771 32.7507L47.3016 32.7477Z" fill="#455A64"/>
<path d="M47.7733 32.893C47.84 32.7775 47.9896 32.5183 48.0798 32.3622L48.1483 32.2436C48.2285 32.1046 48.2727 32.0281 48.3286 31.9313L48.1603 31.9091L48.2144 31.8154L48.7618 31.6569L48.7869 31.6818L48.5814 32.0378L48.3894 32.3703C48.2993 32.5264 48.1506 32.784 48.0866 32.8949L47.7733 32.893ZM48.2948 32.7902L48.2353 32.8933L47.611 32.893L47.6705 32.7899L47.9511 32.7438L48.0714 32.7445L48.2948 32.7902ZM48.6914 31.2415C48.7214 31.1894 48.764 31.1456 48.8152 31.1141C48.8665 31.0826 48.9248 31.0644 48.9849 31.0613C49.0907 31.062 49.1324 31.1339 49.0711 31.2401C49.0411 31.2922 48.9985 31.3361 48.9473 31.3675C48.896 31.399 48.8377 31.4172 48.7776 31.4204C48.6718 31.4197 48.631 31.3461 48.6914 31.2415Z" fill="#455A64"/>
<path d="M49.1084 31.8465L48.897 31.8015L48.9565 31.6985L49.6164 31.6985L49.5569 31.8015L49.2654 31.8414L49.1084 31.8465ZM49.3733 31.6976L49.1801 32.6561L48.9265 32.8573L49.9961 31.6971L50.1519 31.6975L48.9941 32.9025L48.8463 32.9025L49.0386 31.6897L49.3733 31.6976ZM49.9138 31.8432L49.7078 31.8033L49.7682 31.6987L50.2432 31.6982L50.1828 31.8028L49.9679 31.8432L49.9138 31.8432Z" fill="#455A64"/>
<path d="M51.1313 32.1609C51.1043 32.2095 51.0729 32.2555 51.0374 32.2983L50.0804 32.2973L50.1489 32.1787L50.6835 32.1793C50.7322 32.1819 50.7805 32.1696 50.822 32.1441C50.8635 32.1186 50.8962 32.0811 50.9158 32.0365C51.006 31.8804 50.9662 31.7763 50.8434 31.7762C50.7207 31.7761 50.4983 31.9016 50.2901 32.2623C50.1098 32.5745 50.1764 32.7296 50.3953 32.729C50.5475 32.7206 50.6935 32.6663 50.8142 32.5732L50.8499 32.6375C50.6697 32.8159 50.4291 32.9199 50.1758 32.929C49.8218 32.9328 49.7216 32.6918 49.9487 32.2983C50.0481 32.1193 50.1896 31.9671 50.361 31.855C50.5323 31.7429 50.7284 31.6741 50.9323 31.6547C51.2279 31.6547 51.3025 31.8643 51.1313 32.1609Z" fill="#455A64"/>
<path d="M51.363 32.3656L51.4396 32.2329C51.5199 32.094 51.5559 32.0315 51.6127 31.9332L51.4484 31.9112L51.5025 31.8175L52.0122 31.6559L52.038 31.6833L51.8852 31.9947L51.6698 32.3679C51.5797 32.524 51.4309 32.7816 51.3669 32.8925L51.0503 32.8928C51.1217 32.78 51.2729 32.5217 51.363 32.3656ZM50.953 32.7909L51.2368 32.7465L51.3966 32.7472L51.6254 32.7981L51.5668 32.8996L50.8899 32.9002L50.953 32.7909ZM51.7167 32.0307L51.8815 32.0301L51.8086 32.0733C52.0276 31.8022 52.2772 31.6548 52.4265 31.6557C52.5186 31.6548 52.5723 31.7024 52.546 31.7913C52.5212 31.8447 52.4828 31.8906 52.4347 31.9246C52.3866 31.9586 52.3305 31.9793 52.2719 31.9848C52.2443 31.9874 52.2167 31.9798 52.1943 31.9634C52.1719 31.947 52.1563 31.9231 52.1504 31.896L52.1244 31.8185L52.233 31.825C52.0493 31.9129 51.8874 32.0406 51.7591 32.1988L51.6238 32.1915L51.7167 32.0307Z" fill="#455A64"/>
<path d="M52.0373 32.8235L52.2059 32.5316L52.3722 32.5319L52.2523 32.8477L52.154 32.7909L52.209 32.6957C52.2402 32.7314 52.2794 32.7593 52.3233 32.7771C52.3673 32.7948 52.4148 32.8021 52.4621 32.7981C52.5306 32.8043 52.5994 32.7918 52.6614 32.762C52.7233 32.7321 52.776 32.686 52.8139 32.6286C52.868 32.535 52.8365 32.4814 52.7072 32.4276L52.6039 32.3866C52.4501 32.3249 52.4012 32.2113 52.5057 32.0302C52.5805 31.9131 52.6837 31.8168 52.8058 31.7504C52.9279 31.684 53.0648 31.6497 53.2037 31.6505C53.3181 31.6439 53.4307 31.68 53.5199 31.7519L53.3537 32.0181L53.1898 32.0172L53.2908 31.7341L53.3782 31.7846L53.3332 31.8626C53.3086 31.832 53.2768 31.8078 53.2407 31.7924C53.2046 31.777 53.1652 31.7708 53.126 31.7743C53.0666 31.7717 53.0075 31.785 52.9549 31.8128C52.9023 31.8405 52.858 31.8818 52.8266 31.9324C52.7743 32.0229 52.7974 32.0695 52.9353 32.1263L53.0175 32.1571C53.2152 32.24 53.2392 32.3642 53.1401 32.5359C53.0596 32.6624 52.9472 32.7654 52.8144 32.8349C52.6815 32.9043 52.5328 32.9376 52.383 32.9315C52.2586 32.9378 52.136 32.8995 52.0373 32.8235Z" fill="#455A64"/>
<path d="M53.9404 32.2134C54.0636 32.1804 54.2594 32.1332 54.3966 32.1083L54.3398 32.2067C54.2075 32.2324 54.0768 32.2661 53.9485 32.3076C53.7988 32.3419 53.668 32.4327 53.5836 32.5611C53.5088 32.6907 53.5512 32.7505 53.6541 32.7454C53.7212 32.7446 53.7817 32.7191 53.9491 32.6347L54.0575 32.5766L54.0629 32.6213L53.9192 32.7153C53.7749 32.836 53.5976 32.9106 53.4104 32.9295C53.2215 32.9286 53.1408 32.8196 53.2607 32.612C53.3535 32.4511 53.5086 32.3304 53.9404 32.2134ZM53.9127 32.6761L54.2606 32.0735C54.3958 31.8393 54.3753 31.7775 54.2114 31.7765C54.1251 31.7779 54.0394 31.7916 53.9569 31.817L54.1456 31.7282L53.9909 31.924C53.9657 31.9719 53.9291 32.0129 53.8843 32.0433C53.8395 32.0737 53.7879 32.0927 53.7341 32.0984C53.6549 32.0985 53.6283 32.0582 53.6577 31.9856C53.7441 31.878 53.8545 31.7921 53.9801 31.7348C54.1057 31.6775 54.243 31.6505 54.381 31.6559C54.6725 31.6556 54.7247 31.7815 54.5355 32.1094L54.2191 32.6574C54.1722 32.7386 54.1832 32.7699 54.2293 32.7694C54.2739 32.7653 54.3157 32.7462 54.3481 32.7152L54.3774 32.7654C54.3325 32.8137 54.2785 32.8526 54.2185 32.8798C54.1585 32.9069 54.0937 32.9219 54.0278 32.9237C53.8684 32.9295 53.8348 32.829 53.9127 32.6761Z" fill="#455A64"/>
<path d="M55.8858 31.0507L55.9154 31.0679L55.7003 31.4224L55.1595 32.3592C55.0576 32.5356 54.9567 32.7105 54.8566 32.8838L54.5384 32.8832C54.6412 32.7053 54.743 32.5288 54.8449 32.3524L55.4677 31.2736L55.3093 31.2633L55.3651 31.1665L55.8858 31.0507ZM55.0882 32.7927L55.0287 32.8957L54.3691 32.8916L54.4286 32.7886L54.72 32.7383L54.8403 32.739L55.0882 32.7927Z" fill="#455A64"/>
<path d="M56.6424 31.344L56.71 31.2269L57.0888 31.227L56.9987 31.3832L56.9656 31.3828L56.6424 31.344ZM56.2163 32.7383L56.1261 32.8944L55.7473 32.8943L55.8158 32.7756L56.1832 32.7379L56.2163 32.7383ZM56.4751 32.0051C56.6247 31.746 56.7753 31.4852 56.9258 31.2245L57.272 31.2162C57.1233 31.4738 56.9727 31.7345 56.8213 31.9968L56.7609 32.1014C56.6005 32.3793 56.449 32.6416 56.3021 32.8961L55.9604 32.8966C56.1092 32.639 56.2597 32.3783 56.4228 32.0957L56.4751 32.0051ZM56.2018 32.7633L56.512 32.7633C56.8582 32.755 57.1969 32.5072 57.4556 32.0591C57.7143 31.6111 57.6694 31.3499 57.3396 31.3552L57.0149 31.355L57.0897 31.2255L57.4531 31.2271C57.9602 31.2284 58.11 31.5314 57.8071 32.056C57.6722 32.3019 57.4754 32.5083 57.2361 32.6546C56.9968 32.8009 56.7234 32.882 56.443 32.89L56.1255 32.892L56.2018 32.7633Z" fill="#455A64"/>
<path d="M59.0478 32.1603C59.0201 32.2091 58.9879 32.2553 58.9515 32.2982L57.996 32.2982L58.0646 32.1796L58.5976 32.1793C58.6462 32.1816 58.6944 32.1693 58.7358 32.1438C58.7773 32.1183 58.8101 32.0809 58.8299 32.0365C58.9201 31.8804 58.8818 31.7771 58.753 31.784C58.6242 31.7908 58.4088 31.9079 58.1997 32.2701C58.0194 32.5823 58.0869 32.7358 58.3049 32.7368C58.4571 32.7285 58.6032 32.6742 58.7237 32.581L58.7604 32.6437C58.5808 32.8221 58.3407 32.9264 58.0878 32.9361C57.7338 32.9399 57.6311 32.6995 57.8583 32.3061C57.9577 32.1271 58.0992 31.9749 58.2706 31.8628C58.4419 31.7506 58.638 31.6819 58.8419 31.6625C59.142 31.6547 59.2227 31.8574 59.0478 32.1603Z" fill="#455A64"/>
<path d="M59.4919 32.2606C59.317 32.5635 59.3758 32.7286 59.5987 32.7282C59.7513 32.719 59.8968 32.6606 60.0134 32.5617L60.0554 32.6151C59.9704 32.7101 59.867 32.7869 59.7515 32.8408C59.6359 32.8947 59.5106 32.9245 59.3832 32.9285C59.0354 32.9359 58.9229 32.6981 59.1555 32.2954C59.2561 32.1149 59.3995 31.9618 59.5731 31.8497C59.7467 31.7376 59.9452 31.6699 60.1511 31.6524C60.3966 31.6526 60.4941 31.8047 60.4074 31.9982C60.3843 32.0318 60.3536 32.0595 60.3178 32.079C60.2819 32.0985 60.242 32.1091 60.2012 32.1102C60.1091 32.1111 60.0849 32.0555 60.1382 31.9344L60.2125 31.7337L60.3051 31.8329C60.2464 31.7931 60.1768 31.7725 60.1059 31.7741C59.9281 31.7756 59.683 31.9296 59.4919 32.2606Z" fill="#455A64"/>
<path d="M61.5141 31.0508L61.5422 31.067L61.327 31.4216L60.7862 32.3583C60.6844 32.5348 60.5834 32.7096 60.4834 32.8829L60.1652 32.8824C60.2679 32.7044 60.3698 32.528 60.4716 32.3516L61.0945 31.2728L60.9271 31.249L60.9839 31.1506L61.5141 31.0508ZM60.7165 32.7927L60.6579 32.8942L60.0046 32.8937L60.0641 32.7907L60.3509 32.7482L60.4712 32.7489L60.7165 32.7927Z" fill="#455A64"/>
<path d="M61.6331 32.2083C61.7587 32.1747 61.9537 32.129 62.0893 32.1032L62.0334 32.2C61.9017 32.2266 61.7716 32.2606 61.6437 32.3018C61.4935 32.3356 61.3622 32.4261 61.2772 32.5544C61.2024 32.684 61.2448 32.7439 61.3468 32.7403C61.4154 32.7404 61.4744 32.7141 61.6427 32.6281L61.7527 32.5709L61.7581 32.6156L61.6144 32.7096C61.4701 32.8312 61.292 32.9057 61.104 32.9228C60.9142 32.9236 60.8344 32.813 60.9543 32.6053C61.0411 32.4514 61.1977 32.3316 61.6331 32.2083ZM61.6063 32.6695L61.9533 32.0684C62.0885 31.8342 62.0689 31.7709 61.9144 31.7753C61.8281 31.7774 61.7426 31.791 61.6599 31.8158L61.8477 31.7285L61.6939 31.9228C61.6678 31.9704 61.6309 32.0111 61.5861 32.0417C61.5413 32.0722 61.49 32.0918 61.4362 32.0988C61.3579 32.0973 61.3304 32.0585 61.3607 31.9844C61.4471 31.8771 61.5573 31.7914 61.6826 31.734C61.8078 31.6766 61.9447 31.6492 62.0824 31.6538C62.374 31.6535 62.4253 31.781 62.2369 32.1072L61.9205 32.6552C61.8736 32.7364 61.8822 32.7684 61.9298 32.7689C61.9746 32.7634 62.0165 32.7439 62.0495 32.7131L62.0788 32.7633C62.0339 32.8118 61.9798 32.8509 61.9196 32.8784C61.8594 32.9058 61.7944 32.921 61.7283 32.9232C61.5611 32.9244 61.5239 32.8301 61.6011 32.6748L61.6063 32.6695Z" fill="#455A64"/>
<path d="M62.5476 32.3658L62.6242 32.2331C62.7035 32.0957 62.7405 32.0317 62.7973 31.9333L62.633 31.9113L62.6871 31.8176L63.1959 31.6576L63.2255 31.6747L63.0728 31.9862L62.8573 32.3593C62.7672 32.5154 62.6185 32.773 62.5545 32.8839L62.2363 32.8834C62.3038 32.7808 62.4575 32.5219 62.5476 32.3658ZM62.1361 32.7901L62.4198 32.7458L62.5797 32.7465L62.8084 32.7974L62.7489 32.9004L62.0719 32.8905L62.1361 32.7901ZM62.8997 32.0299L63.0661 32.0302L62.9932 32.0735C63.2106 31.8014 63.4602 31.6541 63.6095 31.6549C63.7008 31.6556 63.7544 31.7032 63.7368 31.795C63.7114 31.8483 63.6728 31.8942 63.6247 31.9283C63.5765 31.9625 63.5205 31.9838 63.4618 31.9901C63.434 31.9923 63.4063 31.9844 63.3837 31.968C63.3612 31.9515 63.3452 31.9275 63.3388 31.9004L63.3143 31.8238L63.4214 31.8294C63.2376 31.9173 63.0757 32.045 62.9475 32.2032L62.8131 32.1943L62.8997 32.0299Z" fill="#455A64"/>
<path d="M63.9982 32.2145C64.1223 32.1799 64.3181 32.1327 64.4553 32.1078L64.3985 32.2062C64.2662 32.2319 64.1355 32.2656 64.0072 32.3071C63.8575 32.3414 63.7268 32.4322 63.6423 32.5606C63.5675 32.6902 63.6099 32.75 63.7128 32.7449C63.8157 32.7398 63.8404 32.7187 64.0078 32.6342L64.1178 32.577L64.1217 32.6208L63.9779 32.7148C63.834 32.8361 63.6565 32.9108 63.4691 32.929C63.2802 32.9281 63.1995 32.8191 63.3194 32.6115C63.4122 32.4507 63.5689 32.3308 63.9982 32.2145ZM63.9714 32.6756L64.3193 32.073C64.4545 31.8388 64.434 31.777 64.2717 31.777C64.1853 31.7778 64.0996 31.7914 64.0172 31.8174L64.2104 31.7208L64.0557 31.9166C64.0299 31.9643 63.9929 32.005 63.9479 32.0352C63.9029 32.0654 63.8512 32.0842 63.7973 32.0901C63.7182 32.0902 63.6915 32.0499 63.7209 31.9773C63.8075 31.8699 63.918 31.7841 64.0435 31.7269C64.1691 31.6697 64.3063 31.6425 64.4442 31.6476C64.7358 31.6473 64.788 31.7732 64.5987 32.1011L64.2823 32.6491C64.2354 32.7302 64.2449 32.7607 64.2925 32.7611C64.3367 32.7564 64.3779 32.737 64.4097 32.706L64.4406 32.7571C64.3957 32.8057 64.3415 32.8446 64.2811 32.8717C64.2208 32.8987 64.1556 32.9133 64.0895 32.9145C63.9276 32.921 63.8935 32.8285 63.9714 32.6756Z" fill="#455A64"/>
<path d="M65.0912 32.7621C65.1587 32.7564 65.2239 32.7349 65.2815 32.6992L65.3027 32.7635C65.1854 32.8695 65.0338 32.9297 64.8758 32.9333C64.6692 32.9306 64.6085 32.8373 64.7365 32.6157C64.7789 32.5423 64.8141 32.4814 64.8708 32.383L65.1809 31.846L64.996 31.8454L65.0699 31.7173L65.397 31.6772L65.2211 31.7692L65.5805 31.3522L65.7871 31.3549L65.5172 31.8007L65.0584 32.5954C64.9886 32.7091 65.012 32.7622 65.0912 32.7621ZM65.8808 31.6901L65.7907 31.8462L65.3343 31.8471L65.4244 31.691L65.8808 31.6901Z" fill="#455A64"/>
<path d="M65.4668 32.8938C65.5335 32.7782 65.6831 32.5191 65.7733 32.3629L65.8418 32.2443C65.922 32.1053 65.9662 32.0288 66.022 31.932L65.8547 31.9083L65.9078 31.8162L66.4537 31.6567L66.4849 31.6747L66.2794 32.0307L66.0874 32.3632C65.9973 32.5193 65.8486 32.7769 65.7846 32.8878L65.4668 32.8938ZM65.9882 32.791L65.9288 32.894L65.3045 32.8937L65.3639 32.7907L65.6461 32.7454L65.7673 32.7446L65.9882 32.791ZM66.3833 31.2414C66.4136 31.1892 66.4564 31.1454 66.508 31.1141C66.5595 31.0827 66.6181 31.0648 66.6784 31.062C66.7826 31.0618 66.8259 31.1347 66.7646 31.2408C66.7337 31.2922 66.691 31.3355 66.6399 31.3668C66.5888 31.3982 66.5309 31.4168 66.4711 31.4211C66.3653 31.4204 66.3229 31.346 66.3833 31.2414Z" fill="#455A64"/>
<path d="M66.4367 32.2922C66.5337 32.1139 66.6735 31.9625 66.8433 31.8513C67.0132 31.7402 67.2079 31.6728 67.4102 31.6553C67.7333 31.6545 67.8841 31.8872 67.6506 32.2916C67.5546 32.4713 67.4148 32.6239 67.2443 32.7353C67.0737 32.8468 66.8778 32.9134 66.6747 32.9292C66.3339 32.9282 66.205 32.6935 66.4367 32.2922ZM67.3201 32.2944C67.5202 31.9478 67.5156 31.7827 67.3399 31.777C67.1641 31.7713 66.963 31.9467 66.762 32.2948C66.561 32.643 66.565 32.8055 66.7459 32.8059C66.9268 32.8063 67.1191 32.6425 67.3201 32.2944Z" fill="#455A64"/>
<path d="M67.6405 32.8936C67.7072 32.778 67.8568 32.5189 67.9469 32.3627L68.0235 32.23C68.1029 32.0927 68.1398 32.0286 68.1966 31.9303L68.0333 31.9068L68.0864 31.8146L68.5961 31.653L68.6203 31.6795L68.4829 31.9644L68.2521 32.3641C68.162 32.5202 68.0133 32.7778 67.9493 32.8887L67.6405 32.8936ZM68.1619 32.7908L68.1024 32.8938L67.479 32.892L67.5385 32.7889L67.8191 32.7428L67.9419 32.7429L68.1619 32.7908ZM69.1667 32.1032L69.0153 32.3655C68.9252 32.5216 68.7764 32.7792 68.7124 32.8901L68.3943 32.8895C68.461 32.774 68.6079 32.5195 68.7007 32.3587L68.8386 32.1199C68.9522 31.9231 68.94 31.8578 68.8148 31.8584C68.6535 31.8776 68.5001 31.9392 68.3703 32.0368L68.3017 32.0367L68.381 31.8994L68.5313 31.8987L68.3953 31.9576C68.5831 31.7853 68.8206 31.6769 69.0737 31.6478C69.3027 31.655 69.3461 31.7925 69.1667 32.1032ZM68.7068 32.7411L68.926 32.7906L68.8665 32.8937L68.2431 32.8918L68.3026 32.7887L68.5816 32.7417L68.7068 32.7411Z" fill="#455A64"/>
<path d="M69.9363 32.2913C70.0326 32.1132 70.1714 31.9615 70.3404 31.8499C70.5095 31.7383 70.7034 31.6702 70.9051 31.6517C71.2273 31.6524 71.3765 31.8843 71.1431 32.2886C71.0477 32.4683 70.9084 32.6209 70.7382 32.7323C70.568 32.8436 70.3724 32.9102 70.1696 32.9256C69.8326 32.9288 69.6992 32.7019 69.9363 32.2913ZM70.8188 32.295C71.0198 31.9469 71.0143 31.7834 70.8386 31.7777C70.6629 31.772 70.4617 31.9473 70.2616 32.2939C70.0615 32.6405 70.063 32.8037 70.2446 32.8065C70.4261 32.8094 70.6187 32.6416 70.8188 32.295Z" fill="#455A64"/>
<path d="M71.7596 31.841L71.5737 31.842L71.6486 31.7124L71.9573 31.6825L71.8191 31.738C71.9496 31.5238 72.126 31.3413 72.3357 31.2036C72.4761 31.1046 72.6422 31.0486 72.8138 31.0425C72.9431 31.0422 73.031 31.0846 72.9934 31.2003C72.9669 31.2419 72.9305 31.2764 72.8875 31.3006C72.8445 31.3248 72.7961 31.338 72.7468 31.3389C72.6732 31.3402 72.632 31.2998 72.6123 31.2113L72.5724 31.1217L72.8343 31.0648L72.8331 31.139C72.8254 31.1276 72.8152 31.1181 72.8033 31.1112C72.7914 31.1043 72.7781 31.1003 72.7644 31.0993C72.6611 31.1134 72.565 31.16 72.4899 31.2323C72.3192 31.3949 72.1825 31.5898 72.088 31.8058L71.7635 32.3679C71.6619 32.5437 71.561 32.7186 71.4606 32.8924L71.144 32.8928C71.2467 32.7148 71.3486 32.5384 71.4505 32.362L71.7596 31.841ZM71.7301 32.7899L71.6706 32.8929L70.9767 32.8941L71.0362 32.791L71.3316 32.7409L71.4859 32.7405L71.7301 32.7899ZM72.4543 31.6905L72.3642 31.8466L71.9087 31.8459L71.9988 31.6898L72.4543 31.6905Z" fill="#455A64"/>
<path d="M51.5225 36.0194L51.7811 35.5713C52.0741 35.0639 52.0125 34.8389 51.6353 34.8397C51.3817 34.839 51.0865 34.9392 50.6973 35.2203C50.7718 34.9615 50.6693 34.8398 50.3972 34.8389C50.0664 34.873 49.7523 35.0007 49.4915 35.2069L49.6483 34.8811L49.6065 34.8382L48.7572 35.1014L48.667 35.2576L48.9386 35.2957C48.8484 35.4518 48.7929 35.5696 48.6604 35.7991L48.5333 36.0192C48.4287 36.2003 48.2755 36.4658 48.1556 36.6734L47.856 36.7273L47.7586 36.8959L48.7961 36.9016L48.8953 36.7299L48.677 36.6789C48.796 36.4728 48.9475 36.2105 49.0529 36.0278L49.4135 35.4033C49.585 35.2875 49.7823 35.2155 49.9882 35.1939C50.2062 35.1949 50.2162 35.311 50.0206 35.6498L49.8033 36.026C49.6961 36.2118 49.5446 36.4741 49.4257 36.6802L49.13 36.7343L49.0318 36.9045L49.5442 36.886L49.7872 36.8868L50.0271 36.8859L50.1254 36.7157L49.8962 36.6729C50.0142 36.4684 50.1666 36.2045 50.2729 36.0203L50.5271 35.58C50.565 35.5144 50.5992 35.4551 50.6308 35.4005C50.8034 35.2812 51.0039 35.2084 51.2129 35.1891C51.4213 35.1887 51.4526 35.2859 51.2489 35.6387L51.029 36.0196C50.9208 36.207 50.7703 36.4677 50.6504 36.6753L50.3501 36.7268L50.2518 36.8969L50.6581 36.8963L51.0215 36.8979L51.267 36.8981L51.3652 36.7279L51.143 36.6766C51.2647 36.4659 51.4143 36.2067 51.5225 36.0194ZM53.4029 36.6887C53.3253 36.6897 53.3092 36.6346 53.3858 36.5019L53.9113 35.5917C54.225 35.0484 54.1383 34.8381 53.6538 34.8373C53.4239 34.8295 53.1954 34.8756 52.9866 34.9719C52.7778 35.0682 52.5943 35.212 52.451 35.3918C52.4017 35.5132 52.4461 35.5805 52.5778 35.5795C52.6673 35.5695 52.753 35.5378 52.8275 35.4873C52.902 35.4367 52.9631 35.3688 53.0055 35.2894L53.1872 35.0612C53.2477 35.0505 53.3092 35.0455 53.3706 35.0464C53.6412 35.0465 53.6745 35.1511 53.4501 35.5398L53.3815 35.6585C53.2146 35.6953 53.0449 35.7368 52.9184 35.772C52.204 35.9674 51.9442 36.165 51.791 36.4304C51.5918 36.7755 51.7253 36.9587 52.0395 36.959C52.3036 36.9595 52.5042 36.8464 52.8309 36.6374C52.7659 36.833 52.8421 36.9498 53.0656 36.952C53.1755 36.9488 53.2836 36.9236 53.3835 36.878C53.4835 36.8324 53.5733 36.7673 53.6478 36.6865L53.5978 36.6035C53.5412 36.6515 53.4712 36.6808 53.3973 36.6876L53.4029 36.6887ZM52.903 36.4729C52.6473 36.6022 52.5487 36.6431 52.4405 36.6431C52.2757 36.6437 52.2012 36.5528 52.3256 36.3373C52.466 36.1248 52.6826 35.9742 52.9307 35.9165C53.019 35.8863 53.1479 35.8504 53.2816 35.8172L52.903 36.4729ZM45.7605 34.1228L45.4253 34.1229L45.3127 34.318L45.6303 34.3557C45.4383 34.6882 45.2445 35.0239 45.0516 35.358L43.9233 35.3581C44.1198 35.0177 44.3135 34.6821 44.5064 34.348L44.8664 34.3122L44.98 34.1155L44.4113 34.1161L44.0786 34.1155L43.7369 34.116L43.6243 34.3112L43.9474 34.35C43.7455 34.6997 43.5418 35.0525 43.3381 35.4053L43.2335 35.5864C43.0271 35.944 42.8234 36.2968 42.6206 36.6481L42.2524 36.6874L42.1397 36.8825L42.8141 36.8826L43.0475 36.8821L43.3818 36.8836L43.4954 36.6869L43.1769 36.6508C43.3734 36.3104 43.5771 35.9576 43.7971 35.5767L44.9254 35.5765C44.7018 35.9637 44.499 36.315 44.3016 36.6569L43.9392 36.6933L43.8266 36.8885L44.3402 36.8894L44.727 36.89L45.0687 36.8895L45.1822 36.6928L44.8582 36.6556C45.0601 36.3059 45.2647 35.9515 45.4675 35.6002L45.5694 35.4238C45.7755 35.0668 45.9801 34.7124 46.1832 34.3606L46.5505 34.3229L46.6641 34.1262L45.9374 34.1229L45.7605 34.1228ZM61.8444 34.4453C61.9435 34.4388 62.0396 34.4083 62.1243 34.3564C62.209 34.3045 62.2799 34.2327 62.3307 34.1474C62.4326 33.971 62.3631 33.8497 62.1851 33.8552C62.0854 33.8611 61.9887 33.8914 61.9034 33.9434C61.8182 33.9955 61.7471 34.0677 61.6963 34.1537C61.6005 34.3232 61.6682 34.4476 61.845 34.4478L61.8444 34.4453ZM48.0448 35.4916L48.3967 34.9037L48.3678 34.86L47.5989 34.9552L47.5088 35.1113L47.7379 35.1687L47.0354 36.3639C46.8541 36.4923 46.6439 36.574 46.4234 36.6017C46.2385 36.6011 46.2037 36.4957 46.3848 36.1819L46.7796 35.498L47.1387 34.9122L47.1098 34.8685L46.3308 34.9558L46.2407 35.1119L46.4745 35.172L45.8675 36.2017C45.5485 36.7544 45.6529 36.952 45.9986 36.9518C46.3418 36.9223 46.6674 36.7875 46.9312 36.566L46.7534 36.9317L47.4865 36.8949L47.5847 36.7247L47.3643 36.6703L48.0448 35.4916ZM69.054 35.6768L68.9189 35.6259C68.6888 35.5305 68.6498 35.4539 68.7327 35.3102C68.7855 35.226 68.8598 35.1574 68.9481 35.1117C69.0364 35.066 69.1353 35.0448 69.2345 35.0504C69.3146 35.0463 69.3943 35.0642 69.4648 35.1022L69.3408 35.4469L69.6138 35.4463L69.8906 35.0066C69.7421 34.8872 69.5548 34.8265 69.3645 34.8361C69.1336 34.8348 68.9061 34.892 68.7033 35.0024C68.5005 35.1129 68.329 35.2729 68.2048 35.4675C68.0317 35.7673 68.114 35.9564 68.3687 36.0597L68.5384 36.1264C68.756 36.2146 68.8048 36.3032 68.7155 36.4577C68.6543 36.5547 68.5675 36.6328 68.4647 36.6837C68.3619 36.7345 68.2471 36.756 68.1329 36.7458C68.033 36.7508 67.9338 36.7281 67.8461 36.6801L67.9918 36.298L67.7116 36.2965L67.4331 36.7789C67.596 36.9044 67.7988 36.9668 68.0041 36.9545C68.25 36.9638 68.4941 36.9093 68.7127 36.7961C68.9312 36.683 69.1167 36.5151 69.2511 36.3089C69.4225 36.0228 69.3816 35.816 69.0546 35.6793L69.054 35.6768ZM66.9635 36.6764C66.8327 36.6758 66.7965 36.58 66.9118 36.3801L67.623 35.1483L68.1286 35.1488L68.2746 34.8959L67.7746 34.8966L68.1242 34.3199L67.7875 34.319L67.2993 34.8906L66.931 34.9299L66.8067 35.1454L67.1152 35.1445L66.6005 36.036C66.5104 36.1921 66.4482 36.2998 66.377 36.4231C66.1652 36.79 66.2789 36.9536 66.6079 36.9499C66.8683 36.9466 67.1187 36.8495 67.3132 36.6764L67.2768 36.57C67.1818 36.6288 67.0747 36.6652 66.9635 36.6764ZM61.1943 36.0184L61.5116 35.4688L61.8617 34.8841L61.8198 34.8412L60.9139 35.105L60.8238 35.2612L61.1002 35.298C61.0056 35.4619 60.941 35.5953 60.8085 35.8248L60.695 36.0215C60.5904 36.2026 60.4372 36.468 60.3173 36.6757L60.0127 36.7309L59.9145 36.9011L60.9538 36.9037L61.052 36.7335L60.8298 36.6822C60.9374 36.4633 61.0882 36.1986 61.1927 36.0175L61.1943 36.0184ZM65.9224 36.0171L66.1739 35.5815C66.4714 35.0663 66.3955 34.8372 66.0328 34.838C65.694 34.8677 65.3714 34.9964 65.1052 35.208L65.536 34.4617L65.892 33.8741L65.8514 33.8362L64.9978 34.024L64.9076 34.1801L65.1854 34.2218L64.1515 36.0125C64.0469 36.1936 63.8937 36.4591 63.7729 36.6683L63.4702 36.7203L63.3719 36.8905L63.6375 36.8919L64.1641 36.892L64.4016 36.8918L64.4999 36.7216L64.2856 36.6708C64.4046 36.4647 64.5561 36.2024 64.6624 36.0182L65.0049 35.4249C65.1881 35.2935 65.4018 35.2112 65.6258 35.186C65.8342 35.1855 65.8503 35.2947 65.661 35.6226L65.433 36.0176C65.3257 36.2034 65.1743 36.4656 65.0553 36.6717L64.7606 36.7243L64.6614 36.896L65.6998 36.9002L65.799 36.7285L65.5758 36.6787C65.6637 36.4651 65.8127 36.2035 65.9209 36.0162L65.9224 36.0171ZM59.7398 36.1112C59.8673 35.7497 59.8281 35.5689 59.4978 35.5135C59.7245 35.4909 59.9432 35.4179 60.1381 35.2999C60.333 35.1819 60.4991 35.0219 60.6242 34.8316C60.8829 34.3836 60.6654 34.1185 60.0192 34.1201L59.6637 34.123L59.1031 34.1241L58.7538 34.1306L58.6402 34.3273L58.9683 34.3647C58.7655 34.716 58.5618 35.0689 58.359 35.4201L58.2544 35.6012C58.0471 35.9603 57.8434 36.3132 57.6406 36.6644L57.2692 36.7019L57.1556 36.8986L58.4069 36.8946L58.5196 36.6994L58.1859 36.6608C58.3797 36.3252 58.5789 35.9801 58.7854 35.6226L58.9647 35.6221C59.2619 35.6229 59.3292 35.7118 59.2192 36.025L59.0091 36.6052C58.9046 36.8655 59.0183 36.9498 59.3244 36.9496C59.4622 36.9501 59.5995 36.9328 59.7329 36.8982L59.8456 36.7031L59.5481 36.6667L59.7398 36.1112ZM59.1609 35.4085L58.9153 35.4083C59.1326 35.032 59.3318 34.687 59.5319 34.3404L59.8 34.3412C60.1868 34.3418 60.2692 34.5163 60.0709 34.8598C59.9824 35.0245 59.8512 35.1623 59.6911 35.2589C59.531 35.3554 59.3478 35.4071 59.1609 35.4085ZM63.7572 35.0189C63.6857 34.9047 63.5214 34.8432 63.2694 34.8434C63.0264 34.8407 62.7869 34.902 62.5751 35.0213C62.3634 35.1406 62.1868 35.3136 62.0632 35.5229C61.9118 35.7852 61.9136 35.984 62.062 36.0947C61.8267 36.2109 61.6236 36.3831 61.4706 36.5963C61.3804 36.7524 61.3998 36.8594 61.5407 36.9219C61.2811 36.9923 61.0547 37.152 60.9014 37.373C60.7409 37.6509 60.8464 37.8721 61.4917 37.8721C62.2278 37.8807 62.8206 37.5173 63.0478 37.1239C63.2497 36.7742 63.1675 36.556 62.6176 36.5529L62.1 36.5517C61.9126 36.5517 61.8972 36.4846 61.9576 36.38C62.0112 36.2904 62.0824 36.2125 62.1668 36.1511C62.2692 36.1841 62.3764 36.1995 62.4839 36.1967C62.7256 36.1995 62.9639 36.1387 63.1747 36.0203C63.3855 35.902 63.5615 35.7303 63.685 35.5226C63.753 35.4174 63.7916 35.2958 63.7966 35.1706L64.2107 35.1745L64.3792 34.8826L64.3405 34.8415L63.7572 35.0189ZM61.6191 36.9735C61.7041 36.9915 61.7909 36.9996 61.8777 36.9979L62.3422 36.9975C62.6071 36.9965 62.6316 37.1272 62.5424 37.2817C62.4225 37.4894 62.0987 37.65 61.659 37.6543C61.3035 37.6572 61.1736 37.5469 61.3242 37.2861C61.3951 37.1608 61.4919 37.0521 61.6082 36.9672L61.6191 36.9735ZM62.5867 36.0188C62.3622 36.0182 62.3577 35.8241 62.5307 35.5243C62.7038 35.2246 62.9466 35.0276 63.1711 35.0281C63.3956 35.0287 63.4084 35.2192 63.2381 35.5143C63.0677 35.8094 62.8039 36.0068 62.5711 36.0098L62.5867 36.0188ZM56.2195 36.0251L56.471 35.5895C56.7684 35.0743 56.6925 34.8452 56.3339 34.8463C55.9978 34.8756 55.6777 35.0026 55.413 35.2118L55.5714 34.8869L55.528 34.8431L54.6793 35.1088L54.5892 35.2649L54.8607 35.303C54.7706 35.4592 54.715 35.577 54.5825 35.8065L54.4564 36.025C54.3509 36.2077 54.1986 36.4716 54.0778 36.6808L53.7781 36.7347L53.6799 36.9048L54.7089 36.9036L54.8072 36.7334L54.5905 36.6833C54.7095 36.4772 54.8609 36.2149 54.9673 36.0307L55.3278 35.4062C55.5036 35.2881 55.7062 35.2161 55.9171 35.1968C56.1255 35.1964 56.1455 35.3059 55.9554 35.6353L55.7273 36.0303C55.62 36.216 55.4686 36.4783 55.3496 36.6844L55.0252 36.7199L54.9261 36.8916L55.9567 36.8913L56.0558 36.7195L55.8327 36.6698C55.9458 36.4666 56.0957 36.2034 56.2039 36.0161L56.2195 36.0251Z" fill="#407BFF"/>
<path opacity="0.2" d="M51.5225 36.0194L51.7811 35.5713C52.0741 35.0639 52.0125 34.8389 51.6353 34.8397C51.3817 34.839 51.0865 34.9392 50.6973 35.2203C50.7718 34.9615 50.6693 34.8398 50.3972 34.8389C50.0664 34.873 49.7523 35.0007 49.4915 35.2069L49.6483 34.8811L49.6065 34.8382L48.7572 35.1014L48.667 35.2576L48.9386 35.2957C48.8484 35.4518 48.7929 35.5696 48.6604 35.7991L48.5333 36.0192C48.4287 36.2003 48.2755 36.4658 48.1556 36.6734L47.856 36.7273L47.7586 36.8959L48.7961 36.9016L48.8953 36.7299L48.677 36.6789C48.796 36.4728 48.9475 36.2105 49.0529 36.0278L49.4135 35.4033C49.585 35.2875 49.7823 35.2155 49.9882 35.1939C50.2062 35.1949 50.2162 35.311 50.0206 35.6498L49.8033 36.026C49.6961 36.2118 49.5446 36.4741 49.4257 36.6802L49.13 36.7343L49.0318 36.9045L49.5442 36.886L49.7872 36.8868L50.0271 36.8859L50.1254 36.7157L49.8962 36.6729C50.0142 36.4684 50.1666 36.2045 50.2729 36.0203L50.5271 35.58C50.565 35.5144 50.5992 35.4551 50.6308 35.4005C50.8034 35.2812 51.0039 35.2084 51.2129 35.1891C51.4213 35.1887 51.4526 35.2859 51.2489 35.6387L51.029 36.0196C50.9208 36.207 50.7703 36.4677 50.6504 36.6753L50.3501 36.7268L50.2518 36.8969L50.6581 36.8963L51.0215 36.8979L51.267 36.8981L51.3652 36.7279L51.143 36.6766C51.2647 36.4659 51.4143 36.2067 51.5225 36.0194ZM53.4029 36.6887C53.3253 36.6897 53.3092 36.6346 53.3858 36.5019L53.9113 35.5917C54.225 35.0484 54.1383 34.8381 53.6538 34.8373C53.4239 34.8295 53.1954 34.8756 52.9866 34.9719C52.7778 35.0682 52.5943 35.212 52.451 35.3918C52.4017 35.5132 52.4461 35.5805 52.5778 35.5795C52.6673 35.5695 52.753 35.5378 52.8275 35.4873C52.902 35.4367 52.9631 35.3688 53.0055 35.2894L53.1872 35.0612C53.2477 35.0505 53.3092 35.0455 53.3706 35.0464C53.6412 35.0465 53.6745 35.1511 53.4501 35.5398L53.3815 35.6585C53.2146 35.6953 53.0449 35.7368 52.9184 35.772C52.204 35.9674 51.9442 36.165 51.791 36.4304C51.5918 36.7755 51.7253 36.9587 52.0395 36.959C52.3036 36.9595 52.5042 36.8464 52.8309 36.6374C52.7659 36.833 52.8421 36.9498 53.0656 36.952C53.1755 36.9488 53.2836 36.9236 53.3835 36.878C53.4835 36.8324 53.5733 36.7673 53.6478 36.6865L53.5978 36.6035C53.5412 36.6515 53.4712 36.6808 53.3973 36.6876L53.4029 36.6887ZM52.903 36.4729C52.6473 36.6022 52.5487 36.6431 52.4405 36.6431C52.2757 36.6437 52.2012 36.5528 52.3256 36.3373C52.466 36.1248 52.6826 35.9742 52.9307 35.9165C53.019 35.8863 53.1479 35.8504 53.2816 35.8172L52.903 36.4729ZM45.7605 34.1228L45.4253 34.1229L45.3127 34.318L45.6303 34.3557C45.4383 34.6882 45.2445 35.0239 45.0516 35.358L43.9233 35.3581C44.1198 35.0177 44.3135 34.6821 44.5064 34.348L44.8664 34.3122L44.98 34.1155L44.4113 34.1161L44.0786 34.1155L43.7369 34.116L43.6243 34.3112L43.9474 34.35C43.7455 34.6997 43.5418 35.0525 43.3381 35.4053L43.2335 35.5864C43.0271 35.944 42.8234 36.2968 42.6206 36.6481L42.2524 36.6874L42.1397 36.8825L42.8141 36.8826L43.0475 36.8821L43.3818 36.8836L43.4954 36.6869L43.1769 36.6508C43.3734 36.3104 43.5771 35.9576 43.7971 35.5767L44.9254 35.5765C44.7018 35.9637 44.499 36.315 44.3016 36.6569L43.9392 36.6933L43.8266 36.8885L44.3402 36.8894L44.727 36.89L45.0687 36.8895L45.1822 36.6928L44.8582 36.6556C45.0601 36.3059 45.2647 35.9515 45.4675 35.6002L45.5694 35.4238C45.7755 35.0668 45.9801 34.7124 46.1832 34.3606L46.5505 34.3229L46.6641 34.1262L45.9374 34.1229L45.7605 34.1228ZM61.8444 34.4453C61.9435 34.4388 62.0396 34.4083 62.1243 34.3564C62.209 34.3045 62.2799 34.2327 62.3307 34.1474C62.4326 33.971 62.3631 33.8497 62.1851 33.8552C62.0854 33.8611 61.9887 33.8914 61.9034 33.9434C61.8182 33.9955 61.7471 34.0677 61.6963 34.1537C61.6005 34.3232 61.6682 34.4476 61.845 34.4478L61.8444 34.4453ZM48.0448 35.4916L48.3967 34.9037L48.3678 34.86L47.5989 34.9552L47.5088 35.1113L47.7379 35.1687L47.0354 36.3639C46.8541 36.4923 46.6439 36.574 46.4234 36.6017C46.2385 36.6011 46.2037 36.4957 46.3848 36.1819L46.7796 35.498L47.1387 34.9122L47.1098 34.8685L46.3308 34.9558L46.2407 35.1119L46.4745 35.172L45.8675 36.2017C45.5485 36.7544 45.6529 36.952 45.9986 36.9518C46.3418 36.9223 46.6674 36.7875 46.9312 36.566L46.7534 36.9317L47.4865 36.8949L47.5847 36.7247L47.3643 36.6703L48.0448 35.4916ZM69.054 35.6768L68.9189 35.6259C68.6888 35.5305 68.6498 35.4539 68.7327 35.3102C68.7855 35.226 68.8598 35.1574 68.9481 35.1117C69.0364 35.066 69.1353 35.0448 69.2345 35.0504C69.3146 35.0463 69.3943 35.0642 69.4648 35.1022L69.3408 35.4469L69.6138 35.4463L69.8906 35.0066C69.7421 34.8872 69.5548 34.8265 69.3645 34.8361C69.1336 34.8348 68.9061 34.892 68.7033 35.0024C68.5005 35.1129 68.329 35.2729 68.2048 35.4675C68.0317 35.7673 68.114 35.9564 68.3687 36.0597L68.5384 36.1264C68.756 36.2146 68.8048 36.3032 68.7155 36.4577C68.6543 36.5547 68.5675 36.6328 68.4647 36.6837C68.3619 36.7345 68.2471 36.756 68.1329 36.7458C68.033 36.7508 67.9338 36.7281 67.8461 36.6801L67.9918 36.298L67.7116 36.2965L67.4331 36.7789C67.596 36.9044 67.7988 36.9668 68.0041 36.9545C68.25 36.9638 68.4941 36.9093 68.7127 36.7961C68.9312 36.683 69.1167 36.5151 69.2511 36.3089C69.4225 36.0228 69.3816 35.816 69.0546 35.6793L69.054 35.6768ZM66.9635 36.6764C66.8327 36.6758 66.7965 36.58 66.9118 36.3801L67.623 35.1483L68.1286 35.1488L68.2746 34.8959L67.7746 34.8966L68.1242 34.3199L67.7875 34.319L67.2993 34.8906L66.931 34.9299L66.8067 35.1454L67.1152 35.1445L66.6005 36.036C66.5104 36.1921 66.4482 36.2998 66.377 36.4231C66.1652 36.79 66.2789 36.9536 66.6079 36.9499C66.8683 36.9466 67.1187 36.8495 67.3132 36.6764L67.2768 36.57C67.1818 36.6288 67.0747 36.6652 66.9635 36.6764ZM61.1943 36.0184L61.5116 35.4688L61.8617 34.8841L61.8198 34.8412L60.9139 35.105L60.8238 35.2612L61.1002 35.298C61.0056 35.4619 60.941 35.5953 60.8085 35.8248L60.695 36.0215C60.5904 36.2026 60.4372 36.468 60.3173 36.6757L60.0127 36.7309L59.9145 36.9011L60.9538 36.9037L61.052 36.7335L60.8298 36.6822C60.9374 36.4633 61.0882 36.1986 61.1927 36.0175L61.1943 36.0184ZM65.9224 36.0171L66.1739 35.5815C66.4714 35.0663 66.3955 34.8372 66.0328 34.838C65.694 34.8677 65.3714 34.9964 65.1052 35.208L65.536 34.4617L65.892 33.8741L65.8514 33.8362L64.9978 34.024L64.9076 34.1801L65.1854 34.2218L64.1515 36.0125C64.0469 36.1936 63.8937 36.4591 63.7729 36.6683L63.4702 36.7203L63.3719 36.8905L63.6375 36.8919L64.1641 36.892L64.4016 36.8918L64.4999 36.7216L64.2856 36.6708C64.4046 36.4647 64.5561 36.2024 64.6624 36.0182L65.0049 35.4249C65.1881 35.2935 65.4018 35.2112 65.6258 35.186C65.8342 35.1855 65.8503 35.2947 65.661 35.6226L65.433 36.0176C65.3257 36.2034 65.1743 36.4656 65.0553 36.6717L64.7606 36.7243L64.6614 36.896L65.6998 36.9002L65.799 36.7285L65.5758 36.6787C65.6637 36.4651 65.8127 36.2035 65.9209 36.0162L65.9224 36.0171ZM59.7398 36.1112C59.8673 35.7497 59.8281 35.5689 59.4978 35.5135C59.7245 35.4909 59.9432 35.4179 60.1381 35.2999C60.333 35.1819 60.4991 35.0219 60.6242 34.8316C60.8829 34.3836 60.6654 34.1185 60.0192 34.1201L59.6637 34.123L59.1031 34.1241L58.7538 34.1306L58.6402 34.3273L58.9683 34.3647C58.7655 34.716 58.5618 35.0689 58.359 35.4201L58.2544 35.6012C58.0471 35.9603 57.8434 36.3132 57.6406 36.6644L57.2692 36.7019L57.1556 36.8986L58.4069 36.8946L58.5196 36.6994L58.1859 36.6608C58.3797 36.3252 58.5789 35.9801 58.7854 35.6226L58.9647 35.6221C59.2619 35.6229 59.3292 35.7118 59.2192 36.025L59.0091 36.6052C58.9046 36.8655 59.0183 36.9498 59.3244 36.9496C59.4622 36.9501 59.5995 36.9328 59.7329 36.8982L59.8456 36.7031L59.5481 36.6667L59.7398 36.1112ZM59.1609 35.4085L58.9153 35.4083C59.1326 35.032 59.3318 34.687 59.5319 34.3404L59.8 34.3412C60.1868 34.3418 60.2692 34.5163 60.0709 34.8598C59.9824 35.0245 59.8512 35.1623 59.6911 35.2589C59.531 35.3554 59.3478 35.4071 59.1609 35.4085ZM63.7572 35.0189C63.6857 34.9047 63.5214 34.8432 63.2694 34.8434C63.0264 34.8407 62.7869 34.902 62.5751 35.0213C62.3634 35.1406 62.1868 35.3136 62.0632 35.5229C61.9118 35.7852 61.9136 35.984 62.062 36.0947C61.8267 36.2109 61.6236 36.3831 61.4706 36.5963C61.3804 36.7524 61.3998 36.8594 61.5407 36.9219C61.2811 36.9923 61.0547 37.152 60.9014 37.373C60.7409 37.6509 60.8464 37.8721 61.4917 37.8721C62.2278 37.8807 62.8206 37.5173 63.0478 37.1239C63.2497 36.7742 63.1675 36.556 62.6176 36.5529L62.1 36.5517C61.9126 36.5517 61.8972 36.4846 61.9576 36.38C62.0112 36.2904 62.0824 36.2125 62.1668 36.1511C62.2692 36.1841 62.3764 36.1995 62.4839 36.1967C62.7256 36.1995 62.9639 36.1387 63.1747 36.0203C63.3855 35.902 63.5615 35.7303 63.685 35.5226C63.753 35.4174 63.7916 35.2958 63.7966 35.1706L64.2107 35.1745L64.3792 34.8826L64.3405 34.8415L63.7572 35.0189ZM61.6191 36.9735C61.7041 36.9915 61.7909 36.9996 61.8777 36.9979L62.3422 36.9975C62.6071 36.9965 62.6316 37.1272 62.5424 37.2817C62.4225 37.4894 62.0987 37.65 61.659 37.6543C61.3035 37.6572 61.1736 37.5469 61.3242 37.2861C61.3951 37.1608 61.4919 37.0521 61.6082 36.9672L61.6191 36.9735ZM62.5867 36.0188C62.3622 36.0182 62.3577 35.8241 62.5307 35.5243C62.7038 35.2246 62.9466 35.0276 63.1711 35.0281C63.3956 35.0287 63.4084 35.2192 63.2381 35.5143C63.0677 35.8094 62.8039 36.0068 62.5711 36.0098L62.5867 36.0188ZM56.2195 36.0251L56.471 35.5895C56.7684 35.0743 56.6925 34.8452 56.3339 34.8463C55.9978 34.8756 55.6777 35.0026 55.413 35.2118L55.5714 34.8869L55.528 34.8431L54.6793 35.1088L54.5892 35.2649L54.8607 35.303C54.7706 35.4592 54.715 35.577 54.5825 35.8065L54.4564 36.025C54.3509 36.2077 54.1986 36.4716 54.0778 36.6808L53.7781 36.7347L53.6799 36.9048L54.7089 36.9036L54.8072 36.7334L54.5905 36.6833C54.7095 36.4772 54.8609 36.2149 54.9673 36.0307L55.3278 35.4062C55.5036 35.2881 55.7062 35.2161 55.9171 35.1968C56.1255 35.1964 56.1455 35.3059 55.9554 35.6353L55.7273 36.0303C55.62 36.216 55.4686 36.4783 55.3496 36.6844L55.0252 36.7199L54.9261 36.8916L55.9567 36.8913L56.0558 36.7195L55.8327 36.6698C55.9458 36.4666 56.0957 36.2034 56.2039 36.0161L56.2195 36.0251Z" fill="black"/>
<path d="M59.3025 57.5494L28.5041 57.5325C28.4445 57.5324 28.3865 57.552 28.3392 57.5883C28.2919 57.6245 28.2579 57.6754 28.2425 57.7329C28.2271 57.7905 28.2311 57.8515 28.2539 57.9065C28.2768 57.9616 28.3171 58.0075 28.3688 58.0373C28.4092 58.0611 28.4554 58.0734 28.5023 58.0727L59.3008 58.0896C59.3706 58.089 59.4374 58.0612 59.4871 58.0122C59.5367 57.9631 59.5654 57.8967 59.5669 57.8269C59.5684 57.7551 59.5414 57.6857 59.4919 57.6337C59.4423 57.5817 59.3743 57.5514 59.3025 57.5494ZM58.3912 59.1278L27.5928 59.1109C27.5332 59.1108 27.4752 59.1305 27.428 59.1667C27.3807 59.2029 27.3467 59.2538 27.3312 59.3113C27.3158 59.3689 27.3198 59.4299 27.3426 59.4849C27.3655 59.54 27.4058 59.5859 27.4575 59.6157C27.4979 59.6395 27.5441 59.6518 27.591 59.6511L58.3895 59.668C58.4613 59.668 58.5301 59.6395 58.5808 59.5888C58.6316 59.5381 58.6601 59.4693 58.6601 59.3975C58.6602 59.3257 58.6317 59.2569 58.581 59.2062C58.5302 59.1554 58.4614 59.1269 58.3897 59.1269L58.3912 59.1278ZM60.2138 55.971L29.4153 55.9541C29.3558 55.954 29.2978 55.9737 29.2505 56.0099C29.2032 56.0461 29.1692 56.097 29.1538 56.1545C29.1384 56.2121 29.1424 56.2731 29.1652 56.3281C29.1881 56.3832 29.2284 56.4291 29.2801 56.4589C29.3205 56.4827 29.3667 56.495 29.4136 56.4943L60.2121 56.5112C60.2819 56.5106 60.3487 56.4828 60.3984 56.4338C60.448 56.3847 60.4767 56.3183 60.4782 56.2485C60.4797 56.1767 60.4527 56.1073 60.4032 56.0553C60.3536 56.0033 60.2856 55.973 60.2138 55.971ZM38.456 40.5801C38.4964 40.604 38.5426 40.6162 38.5895 40.6156L69.388 40.6324C69.4235 40.6325 69.4587 40.6255 69.4915 40.6119C69.5244 40.5983 69.5542 40.5784 69.5793 40.5533C69.6045 40.5281 69.6244 40.4983 69.638 40.4655C69.6516 40.4327 69.6586 40.3975 69.6586 40.362C69.6587 40.3264 69.6517 40.2912 69.6381 40.2584C69.6245 40.2256 69.6046 40.1958 69.5795 40.1706C69.5543 40.1455 69.5245 40.1256 69.4917 40.1119C69.4589 40.0983 69.4237 40.0913 69.3882 40.0913L38.5897 40.0745C38.5301 40.0744 38.4722 40.094 38.4249 40.1302C38.3776 40.1665 38.3436 40.2173 38.3282 40.2749C38.3127 40.3324 38.3168 40.3935 38.3396 40.4485C38.3624 40.5035 38.4028 40.5495 38.4544 40.5792L38.456 40.5801ZM57.479 60.7077L26.6815 60.6893C26.6219 60.6892 26.564 60.7088 26.5167 60.7451C26.4694 60.7813 26.4354 60.8322 26.4199 60.8897C26.4045 60.9473 26.4085 61.0083 26.4314 61.0633C26.4542 61.1184 26.4946 61.1643 26.5462 61.1941C26.5866 61.2179 26.6328 61.2302 26.6797 61.2295L57.4773 61.2479C57.5491 61.248 57.6179 61.2195 57.6686 61.1688C57.7194 61.118 57.7479 61.0492 57.748 60.9775C57.748 60.9057 57.7195 60.8369 57.6688 60.7861C57.618 60.7354 57.5492 60.7068 57.4775 60.7068L57.479 60.7077ZM61.9985 52.8797L31.2001 52.8629C31.1405 52.8628 31.0825 52.8824 31.0353 52.9187C30.988 52.9549 30.954 53.0057 30.9385 53.0633C30.9231 53.1208 30.9271 53.1819 30.9499 53.2369C30.9728 53.292 31.0131 53.3379 31.0648 53.3676C31.1055 53.3907 31.1515 53.4029 31.1983 53.4031L61.9968 53.42C62.0323 53.42 62.0675 53.413 62.1003 53.3994C62.1332 53.3858 62.163 53.3659 62.1881 53.3408C62.2133 53.3157 62.2332 53.2858 62.2468 53.253C62.2604 53.2202 62.2674 53.185 62.2674 53.1495C62.2675 53.1139 62.2605 53.0788 62.2469 53.0459C62.2333 53.0131 62.2134 52.9833 62.1883 52.9581C62.1631 52.933 62.1333 52.9131 62.1005 52.8995C62.0677 52.8859 62.0325 52.8788 61.997 52.8788L61.9985 52.8797ZM56.5678 62.2861L25.7702 62.2677C25.7106 62.2676 25.6527 62.2872 25.6054 62.3235C25.5581 62.3597 25.5241 62.4106 25.5087 62.4681C25.4932 62.5257 25.4972 62.5867 25.5201 62.6417C25.5429 62.6968 25.5833 62.7427 25.6349 62.7725C25.6753 62.7963 25.7215 62.8086 25.7685 62.8079L56.566 62.8263C56.6378 62.8264 56.7066 62.7979 56.7574 62.7472C56.8081 62.6964 56.8366 62.6276 56.8367 62.5559C56.8367 62.4841 56.8082 62.4153 56.7575 62.3645C56.7068 62.3138 56.6379 62.2852 56.5662 62.2852L56.5678 62.2861ZM67.5645 43.2392L36.7661 43.2223C36.7065 43.2223 36.6485 43.2419 36.6012 43.2781C36.5539 43.3143 36.5199 43.3652 36.5045 43.4227C36.4891 43.4803 36.4931 43.5413 36.5159 43.5964C36.5388 43.6514 36.5791 43.6973 36.6308 43.7271C36.6712 43.7509 36.7174 43.7632 36.7643 43.7626L67.5628 43.7794C67.6345 43.7794 67.7034 43.7509 67.7541 43.7002C67.8049 43.6495 67.8334 43.5807 67.8334 43.5089C67.8335 43.4372 67.805 43.3683 67.7542 43.3176C67.7035 43.2668 67.6347 43.2383 67.563 43.2383L67.5645 43.2392ZM65.6473 46.5599L34.8497 46.5415C34.8142 46.5415 34.779 46.5484 34.7462 46.562C34.7133 46.5756 34.6835 46.5955 34.6583 46.6206C34.6332 46.6458 34.6133 46.6756 34.5997 46.7084C34.5861 46.7412 34.5791 46.7764 34.5791 46.812C34.5785 46.8596 34.5908 46.9065 34.6146 46.9477C34.6384 46.9889 34.6729 47.023 34.7144 47.0462C34.7549 47.0701 34.8011 47.0824 34.848 47.0817L65.6456 47.1001C65.7173 47.1001 65.7861 47.0717 65.8369 47.0209C65.8877 46.9702 65.9162 46.9014 65.9162 46.8296C65.9162 46.7579 65.8877 46.6891 65.837 46.6383C65.7863 46.5875 65.7175 46.559 65.6457 46.559L65.6473 46.5599ZM62.9134 51.2951L32.115 51.2783C32.0554 51.2782 31.9974 51.2978 31.9501 51.334C31.9029 51.3703 31.8689 51.4211 31.8534 51.4787C31.838 51.5362 31.842 51.5972 31.8648 51.6523C31.8877 51.7073 31.928 51.7533 31.9797 51.783C32.0206 51.8064 32.0671 51.8181 32.1141 51.8169L62.9117 51.8353C62.9834 51.8353 63.0523 51.8068 63.103 51.7561C63.1538 51.7054 63.1823 51.6366 63.1823 51.5648C63.1824 51.4931 63.1539 51.4242 63.1032 51.3735C63.0524 51.3227 62.9836 51.2942 62.9119 51.2942L62.9134 51.2951ZM68.4758 41.6608L37.6773 41.6439C37.6178 41.6439 37.5598 41.6635 37.5125 41.6997C37.4652 41.7359 37.4312 41.7868 37.4158 41.8443C37.4004 41.9019 37.4044 41.9629 37.4272 42.018C37.45 42.073 37.4904 42.1189 37.542 42.1487C37.5825 42.1725 37.6287 42.1848 37.6756 42.1842L68.4741 42.201C68.5458 42.201 68.6147 42.1725 68.6654 42.1218C68.7162 42.0711 68.7447 42.0023 68.7447 41.9305C68.7447 41.8588 68.7163 41.7899 68.6655 41.7392C68.6148 41.6884 68.546 41.6599 68.4742 41.6599L68.4758 41.6608ZM64.736 48.1383L33.9384 48.1199C33.8688 48.121 33.8022 48.1489 33.7527 48.1978C33.7031 48.2467 33.6743 48.3129 33.6723 48.3826C33.6717 48.4302 33.684 48.477 33.7078 48.5183C33.7316 48.5595 33.7661 48.5935 33.8077 48.6168C33.8481 48.6407 33.8943 48.6529 33.9412 48.6523L64.7388 48.6707C64.8105 48.6707 64.8794 48.6422 64.9301 48.5915C64.9809 48.5408 65.0094 48.472 65.0094 48.4002C65.0094 48.3285 64.981 48.2596 64.9302 48.2089C64.8795 48.1581 64.8107 48.1296 64.7389 48.1296L64.736 48.1383ZM63.8247 49.7167L33.0272 49.6983C32.9916 49.6983 32.9564 49.7052 32.9236 49.7188C32.8907 49.7324 32.8609 49.7523 32.8358 49.7774C32.8106 49.8026 32.7907 49.8324 32.7771 49.8652C32.7635 49.898 32.7565 49.9332 32.7565 49.9688C32.7559 50.0164 32.7682 50.0633 32.792 50.1045C32.8159 50.1457 32.8503 50.1797 32.8919 50.203C32.9323 50.2269 32.9785 50.2392 33.0254 50.2385L63.823 50.2569C63.8585 50.2569 63.8937 50.2499 63.9265 50.2364C63.9594 50.2228 63.9892 50.2028 64.0143 50.1777C64.0395 50.1526 64.0594 50.1228 64.073 50.09C64.0866 50.0571 64.0936 50.022 64.0936 49.9864C64.0936 49.9509 64.0867 49.9157 64.0731 49.8829C64.0595 49.8501 64.0396 49.8202 64.0144 49.7951C63.9893 49.77 63.9595 49.75 63.9267 49.7364C63.8939 49.7228 63.8587 49.7158 63.8232 49.7158L63.8247 49.7167Z" fill="#E0E0E0"/>
<path d="M18.6344 62.3382C20.5035 59.7246 23.0378 57.1306 23.9827 54.9638C24.0008 54.9326 24.0188 54.9014 24.0275 54.8648C24.0361 54.8281 24.0527 54.821 24.0644 54.8007C24.3058 54.1864 24.3187 53.5059 24.1008 52.8829C23.8829 52.2599 23.4487 51.7357 22.8771 51.4057C22.3055 51.0757 21.6345 50.9618 20.986 51.0846C20.3375 51.2074 19.7546 51.5588 19.3433 52.075C19.3316 52.0953 19.318 52.1187 19.3063 52.139C19.2946 52.1593 19.2625 52.1969 19.2413 52.2264C17.8416 54.1244 16.8596 57.6208 15.5291 60.5454C14.8701 61.9968 13.7178 62.9615 13.3879 63.5329C13.2284 63.8092 13.2515 64.191 13.4936 64.6118C13.9802 65.4527 15.1621 66.135 16.1336 66.136C16.6206 66.1362 16.9613 65.9644 17.1208 65.688C17.4449 65.1195 17.7048 63.6417 18.6344 62.3382Z" fill="#37474F"/>
<path opacity="0.1" d="M13.3679 63.5274C13.2084 63.8037 13.2315 64.1855 13.4736 64.6063C13.8564 65.2665 14.6667 65.828 15.4689 66.0393C14.1926 65.5314 14.2154 64.3851 15.3632 63.3201C17.5923 61.2619 17.8402 59.365 18.8255 56.1369C19.3964 54.2683 19.9659 52.7195 20.9067 51.9554C21.5887 51.3979 22.5949 51.2523 23.2733 51.696C22.9923 51.4552 22.6656 51.2734 22.3127 51.1616C21.9599 51.0497 21.5881 51.0101 21.2196 51.045C20.8511 51.08 20.4934 51.1888 20.1679 51.3649C19.8423 51.5411 19.5556 51.781 19.3248 52.0704C19.3131 52.0907 19.2996 52.1142 19.2878 52.1344C19.2761 52.1547 19.244 52.1924 19.2228 52.2218C17.8231 54.1198 16.8411 57.6162 15.5106 60.5408C14.8485 61.9904 13.6978 62.956 13.3679 63.5274Z" fill="black"/>
<path opacity="0.1" d="M19.331 52.0739C19.3192 52.0942 19.3057 52.1177 19.294 52.138C19.2823 52.1583 19.2501 52.1959 19.229 52.2253C17.8293 54.1233 16.8473 57.6197 15.5168 60.5444C14.8578 61.9958 13.7055 62.9604 13.3756 63.5318C13.2161 63.8081 13.2392 64.1899 13.4813 64.6107L13.5619 64.7343C13.4479 63.9149 14.0733 63.4267 15.4691 62.1051C16.8649 60.7836 17.7744 57.366 18.3697 55.0369C18.965 52.7078 20.1381 51.3971 21.3115 51.0484C20.9282 51.072 20.554 51.1754 20.213 51.352C19.8719 51.5286 19.5715 51.7745 19.331 52.0739Z" fill="black"/>
<path d="M22.7935 52.0623C22.6326 52.0161 22.462 52.0157 22.3009 52.061C22.1344 52.1261 21.9885 52.2349 21.8788 52.3761C21.7691 52.5172 21.6996 52.6854 21.6777 52.8628C21.6186 53.2138 21.7716 53.5582 21.8909 53.8851L22.1125 54.4856C22.1661 54.6521 22.2398 54.8114 22.332 54.96C22.507 55.2192 22.8294 55.3783 23.1214 55.1972C23.2478 55.1096 23.3514 54.9932 23.4237 54.8575C23.7044 54.3775 23.8045 53.8129 23.7058 53.2656C23.6182 52.7862 23.2966 52.1967 22.7935 52.0623Z" fill="#455A64"/>
<path d="M22.5167 55.4872C22.4587 55.4919 22.4025 55.5092 22.3518 55.5378C22.3011 55.5664 22.2573 55.6057 22.2233 55.6529C22.1687 55.7035 22.1265 55.766 22.1 55.8356C22.0736 55.9052 22.0636 55.98 22.0708 56.0541C22.0882 56.117 22.1236 56.1735 22.1726 56.2167C22.2217 56.2598 22.2823 56.2876 22.347 56.2968C22.4129 56.3036 22.4795 56.2958 22.5421 56.274C22.6046 56.2522 22.6617 56.217 22.7091 56.1707C22.7589 56.1265 22.7987 56.0723 22.8259 56.0115C22.8531 55.9508 22.867 55.8849 22.8667 55.8183C22.862 55.7288 22.823 55.6445 22.7579 55.5829C22.6927 55.5212 22.6064 55.487 22.5167 55.4872Z" fill="#455A64"/>
</g>
<defs>
<clipPath id="clip0_1170_8837">
<rect width="90.1374" height="90.1374" fill="white" transform="translate(45.0687 -4) rotate(30)"/>
</clipPath>
</defs>
</svg>
