<svg width="91" height="56" viewBox="0 0 91 56" fill="none" xmlns="http://www.w3.org/2000/svg">
<g style="mix-blend-mode:luminosity" opacity="0.1" clip-path="url(#clip0_1170_9637)">
<path d="M66.8928 79.7348L29.8471 89.6612C29.5568 89.7384 29.2477 89.6973 28.9876 89.5469C28.7275 89.3964 28.5378 89.1489 28.46 88.8587L14.5064 36.7829C14.4316 36.4937 14.4739 36.1867 14.6242 35.9285C14.7745 35.6703 15.0206 35.4818 15.309 35.404L52.3547 25.4776C52.6452 25.3998 52.9548 25.4405 53.2153 25.5909C53.4758 25.7413 53.6659 25.9891 53.7437 26.2796L67.6948 78.3458C67.7726 78.6363 67.7319 78.9459 67.5815 79.2064C67.4311 79.4669 67.1834 79.657 66.8928 79.7348ZM15.3193 35.4424C15.0419 35.5172 14.8056 35.6991 14.6622 35.948C14.5188 36.1969 14.48 36.4926 14.5543 36.7701L28.508 88.8458C28.5823 89.1233 28.7638 89.36 29.0124 89.5039C29.2611 89.6477 29.5567 89.687 29.8343 89.6132L66.88 79.6868C67.1575 79.6119 67.394 79.4301 67.5378 79.1811C67.6815 78.9322 67.7207 78.6364 67.6468 78.3586L53.6932 26.2829C53.6183 26.0053 53.4364 25.7688 53.1875 25.6251C52.9385 25.4813 52.6428 25.4421 52.3649 25.516L15.3193 35.4424Z" fill="#EBEBEB"/>
<path d="M104.336 67.6837L67.2888 77.6106C66.9982 77.6879 66.6889 77.6469 66.4286 77.4966C66.1682 77.3463 65.978 77.0989 65.8997 76.8086L51.9461 24.7329C51.8717 24.4433 51.9145 24.1362 52.0651 23.878C52.2157 23.6197 52.462 23.4313 52.7506 23.3534L89.7982 13.4266C90.0867 13.3503 90.3936 13.3909 90.6524 13.5394C90.9112 13.6879 91.1011 13.9324 91.1808 14.22L105.134 66.2957C105.212 66.5856 105.172 66.8944 105.022 67.1546C104.873 67.4148 104.626 67.605 104.336 67.6837ZM52.7609 23.3918C52.4833 23.4667 52.2468 23.6486 52.1031 23.8975C51.9593 24.1465 51.9201 24.4422 51.994 24.72L65.9477 76.7958C66.0226 77.0733 66.2044 77.3099 66.4534 77.4536C66.7023 77.5973 66.9981 77.6365 67.2759 77.5626L104.324 67.6358C104.601 67.5609 104.838 67.379 104.981 67.1301C105.125 66.8811 105.164 66.5853 105.09 66.3075L91.1367 14.2318C91.0618 13.9542 90.88 13.7177 90.631 13.574C90.3821 13.4302 90.0863 13.391 89.8085 13.4649L52.7609 23.3918Z" fill="#EBEBEB"/>
<path d="M84.0234 81.142L87.5747 80.1904L80.6567 54.3722L77.1055 55.3238L84.0234 81.142Z" fill="#F0F0F0"/>
<path d="M77.106 55.3256L40.1735 65.2217L47.0914 91.0399L84.0239 81.1439L77.106 55.3256Z" fill="#F5F5F5"/>
<path d="M77.106 55.3258L80.6572 54.3743L80.4053 53.4342L76.8541 54.3857L77.106 55.3258Z" fill="#E6E6E6"/>
<path d="M76.8541 54.3857L39.9216 64.2817L40.1735 65.2218L77.106 55.3258L76.8541 54.3857Z" fill="#F0F0F0"/>
<path d="M100.228 77.2216C100.152 77.2413 100.072 77.2303 100.004 77.191C99.9365 77.1517 99.8872 77.0873 99.867 77.0118L87.9876 32.6775C87.9675 32.6022 87.978 32.522 88.017 32.4544C88.056 32.3869 88.1202 32.3377 88.1955 32.3175C88.2708 32.2973 88.3511 32.3079 88.4186 32.3468C88.4861 32.3858 88.5354 32.45 88.5555 32.5253L100.435 76.8597C100.455 76.9352 100.445 77.0156 100.406 77.0834C100.367 77.1512 100.303 77.2009 100.228 77.2216Z" fill="#F5F5F5"/>
<path d="M84.3341 39.9777C84.3341 39.9777 83.0203 34.5145 88.3981 33.0735C93.7758 31.6325 95.3716 37.0202 95.3716 37.0202L84.3341 39.9777Z" fill="#E0E0E0"/>
<path d="M38.7082 95.724C38.6323 95.7443 38.5516 95.7337 38.4836 95.6945C38.4156 95.6552 38.366 95.5906 38.3457 95.5148L26.4663 51.1804C26.4466 51.1048 26.4576 51.0245 26.4969 50.9569C26.5362 50.8894 26.6006 50.8401 26.6761 50.8199C26.7514 50.7997 26.8317 50.8103 26.8992 50.8493C26.9667 50.8882 27.016 50.9524 27.0362 51.0278L38.9155 95.3621C38.9357 95.4376 38.9253 95.518 38.8864 95.5858C38.8476 95.6536 38.7835 95.7033 38.7082 95.724Z" fill="#F5F5F5"/>
<path d="M23.7602 58.0056C23.7602 58.0056 22.4675 52.64 27.6625 51.248C32.8575 49.856 34.4189 55.1496 34.4189 55.1496L23.7602 58.0056Z" fill="#E0E0E0"/>
<path d="M66.9719 56.5976L53.3232 60.2548L52.5416 52.0888L66.1903 48.4316L66.9719 56.5976Z" fill="#E0E0E0"/>
<path d="M66.7186 56.6655L53.0699 60.3226L52.2884 52.1567L65.9371 48.4995L66.7186 56.6655Z" fill="#EBEBEB"/>
<path d="M53.4234 59.5699L52.7598 52.6267C52.7552 52.5839 52.7663 52.541 52.7908 52.5057C52.8153 52.4705 52.8517 52.4452 52.8934 52.4346L65.3641 49.0931C65.3895 49.0862 65.4161 49.0849 65.442 49.0894C65.4679 49.0939 65.4925 49.1039 65.5142 49.1189C65.5358 49.1338 65.5539 49.1533 65.5672 49.176C65.5805 49.1987 65.5887 49.224 65.5913 49.2502L66.2549 56.1934C66.2591 56.2362 66.2481 56.2791 66.2237 56.3146C66.1994 56.3501 66.1633 56.3759 66.1218 56.3874L53.6511 59.7289C53.6255 59.7359 53.5988 59.7371 53.5727 59.7326C53.5465 59.7281 53.5218 59.7179 53.5 59.7027C53.4783 59.6875 53.4602 59.6678 53.4469 59.6448C53.4337 59.6219 53.4257 59.5963 53.4234 59.5699Z" fill="#FAFAFA"/>
<path d="M70.2975 25.3883L34.1362 35.0776L37.268 46.7656L73.4292 37.0762L70.2975 25.3883Z" fill="#EBEBEB"/>
<path d="M73.4287 37.0741L73.9467 36.9353L70.8149 25.2474L70.2969 25.3862L73.4287 37.0741Z" fill="#E0E0E0"/>
<path d="M69.1369 27.3957L36.1432 36.2363L38.4262 44.7567L71.4199 35.9161L69.1369 27.3957Z" fill="white"/>
<path d="M55.7682 35.544L53.2499 34.0901L51.796 36.6084L54.3143 38.0623L55.7682 35.544Z" fill="#F5F5F5"/>
<path d="M50.4364 36.9725L47.9182 35.5186L46.4642 38.0368L48.9825 39.4908L50.4364 36.9725Z" fill="#F5F5F5"/>
<path d="M45.1046 38.4012L42.5863 36.9473L41.1324 39.4656L43.6507 40.9195L45.1046 38.4012Z" fill="#F5F5F5"/>
<path d="M61.1001 34.1156L58.5818 32.6616L57.1279 35.1799L59.6461 36.6338L61.1001 34.1156Z" fill="#F5F5F5"/>
<path d="M66.4319 32.6868L63.9136 31.2329L62.4597 33.7512L64.978 35.2051L66.4319 32.6868Z" fill="#F5F5F5"/>
<path d="M75.9584 31.1279C75.9166 30.9013 75.8279 30.686 75.6982 30.4956C75.5685 30.3053 75.4005 30.1441 75.2049 30.0223C75.0093 29.9005 74.7905 29.8209 74.5624 29.7885C74.3343 29.7561 74.102 29.7716 73.8803 29.834L47.3215 36.9504C46.8561 37.0822 46.4567 37.3829 46.2013 37.7936C45.9459 38.2043 45.8528 38.6955 45.9404 39.1712L47.7953 48.5342L51.5496 77.8404C51.57 78.0657 51.6402 78.2837 51.7551 78.4786C51.87 78.6734 52.0268 78.8404 52.214 78.9673C52.4013 79.0942 52.6145 79.1779 52.838 79.2124C53.0616 79.2469 53.2901 79.2312 53.5069 79.1667L80.0676 72.0497C80.5416 71.9091 80.9514 71.6066 81.2255 71.195C81.4995 70.7834 81.6206 70.2888 81.5676 69.7971L77.8133 40.4909L75.9584 31.1279Z" fill="#407BFF"/>
<path opacity="0.2" d="M75.9584 31.1279C75.9166 30.9013 75.8279 30.686 75.6982 30.4956C75.5685 30.3053 75.4005 30.1441 75.2049 30.0223C75.0093 29.9005 74.7905 29.8209 74.5624 29.7885C74.3343 29.7561 74.102 29.7716 73.8803 29.834L47.3215 36.9504C46.8561 37.0822 46.4567 37.3829 46.2013 37.7936C45.9459 38.2043 45.8528 38.6955 45.9404 39.1712L47.7953 48.5342L51.5496 77.8404C51.57 78.0657 51.6402 78.2837 51.7551 78.4786C51.87 78.6734 52.0268 78.8404 52.214 78.9673C52.4013 79.0942 52.6145 79.1779 52.838 79.2124C53.0616 79.2469 53.2901 79.2312 53.5069 79.1667L80.0676 72.0497C80.5416 71.9091 80.9514 71.6066 81.2255 71.195C81.4995 70.7834 81.6206 70.2888 81.5676 69.7971L77.8133 40.4909L75.9584 31.1279Z" fill="black"/>
<path d="M79.1222 72.3051L52.5615 79.422C52.3447 79.4862 52.1164 79.5015 51.893 79.4669C51.6695 79.4322 51.4565 79.3485 51.2693 79.2216C51.0822 79.0948 50.9254 78.928 50.8104 78.7333C50.6954 78.5387 50.625 78.3209 50.6043 78.0957L46.8495 48.7876L76.8674 40.7443L80.6217 70.0505C80.6753 70.5424 80.5545 71.0375 80.2805 71.4495C80.0064 71.8615 79.5966 72.1642 79.1222 72.3051Z" fill="#407BFF"/>
<path d="M51.089 35.2171L47.1329 36.2771L47.1843 36.469L51.1404 35.4089L51.089 35.2171Z" fill="#407BFF"/>
<path d="M45.3686 37.1756L45.2413 37.0226C45.5197 36.7911 45.8449 36.6226 46.1946 36.5286L46.2461 36.7205C45.9241 36.807 45.6248 36.9623 45.3686 37.1756Z" fill="#407BFF"/>
<path d="M72.9338 30.0773L46.3731 37.1942C45.9077 37.326 45.5083 37.6266 45.2529 38.0373C44.9975 38.448 44.9044 38.9393 44.992 39.4149L46.8495 48.7875L76.8674 40.7442L75.0106 31.3817C74.9703 31.1542 74.8829 30.9377 74.7538 30.746C74.6248 30.5544 74.4571 30.3919 74.2614 30.269C74.0658 30.1461 73.8466 30.0656 73.6179 30.0325C73.3892 29.9995 73.1562 30.0148 72.9338 30.0773Z" fill="#407BFF"/>
<path opacity="0.9" d="M47.729 46.1379L46.4312 39.5908C46.3851 39.3403 46.434 39.0816 46.5685 38.8653C46.703 38.649 46.9133 38.4907 47.1583 38.4213L72.6888 31.5804C72.8055 31.5473 72.9279 31.5389 73.0481 31.5559C73.1683 31.5729 73.2836 31.6148 73.3865 31.679C73.4895 31.7432 73.578 31.8283 73.6461 31.9287C73.7143 32.0291 73.7607 32.1427 73.7824 32.2621L75.0801 38.8092C75.1258 39.0596 75.0767 39.3181 74.9423 39.5343C74.8079 39.7504 74.5978 39.9089 74.353 39.9787L48.8226 46.8196C48.7059 46.8524 48.5835 46.8605 48.4635 46.8434C48.3434 46.8262 48.2283 46.7843 48.1253 46.7201C48.0224 46.656 47.934 46.5711 47.8658 46.4708C47.7975 46.3705 47.7509 46.2572 47.729 46.1379Z" fill="white"/>
<g opacity="0.4">
<path d="M71.131 33.1266L70.9138 33.4747C70.9086 33.4835 70.9016 33.4912 70.8934 33.4973C70.8851 33.5034 70.8757 33.5078 70.8658 33.5102L69.3309 33.9215C69.3201 33.9246 69.3088 33.9254 69.2977 33.9238C69.2867 33.9221 69.276 33.9181 69.2667 33.912L68.9453 33.7102C68.9318 33.7018 68.9211 33.6896 68.9144 33.6752C68.9078 33.6608 68.9055 33.6448 68.9078 33.629C68.9102 33.6133 68.917 33.5987 68.9276 33.5868C68.9382 33.575 68.952 33.5665 68.9674 33.5624L71.0452 33.0056C71.0607 33.0017 71.0771 33.0025 71.0922 33.008C71.1073 33.0136 71.1204 33.0235 71.1297 33.0366C71.1389 33.0497 71.1441 33.0653 71.1443 33.0814C71.1446 33.0974 71.1399 33.1132 71.131 33.1266Z" fill="#407BFF"/>
<path d="M72.0604 38.2221L69.9826 38.7789C69.9668 38.7831 69.9501 38.7825 69.9346 38.7771C69.9192 38.7718 69.9057 38.7618 69.8959 38.7487C69.8862 38.7356 69.8807 38.7198 69.88 38.7034C69.8794 38.6871 69.8837 38.6709 69.8924 38.657L70.1082 38.3113C70.1194 38.2941 70.1365 38.2815 70.1562 38.2758L71.6911 37.8646C71.702 37.8613 71.7136 37.8607 71.7248 37.8626C71.7361 37.8646 71.7467 37.8692 71.7558 37.876L72.0791 38.0773C72.0918 38.0857 72.1018 38.0975 72.1081 38.1113C72.1144 38.1251 72.1167 38.1405 72.1148 38.1555C72.1128 38.1706 72.1067 38.1848 72.0971 38.1966C72.0875 38.2084 72.0748 38.2172 72.0604 38.2221Z" fill="#407BFF"/>
<path d="M71.5899 35.6605L71.4797 35.8402C71.4685 35.8574 71.4514 35.87 71.4317 35.8757L69.6301 36.3584C69.6194 36.361 69.6082 36.3614 69.5973 36.3596C69.5864 36.3578 69.576 36.3538 69.5667 36.3478C69.5574 36.3418 69.5495 36.334 69.5433 36.3249C69.5371 36.3157 69.5328 36.3054 69.5308 36.2945L69.4775 36.0189C69.4736 35.9986 69.4776 35.9777 69.4885 35.9603C69.4995 35.9428 69.5167 35.9302 69.5366 35.9249L71.3439 35.4406C71.3547 35.4376 71.366 35.4369 71.377 35.4385C71.3881 35.4402 71.3987 35.4441 71.4081 35.4502L71.5664 35.5496C71.5753 35.5553 71.583 35.5627 71.589 35.5714C71.595 35.58 71.5992 35.5898 71.6014 35.6002C71.6036 35.6105 71.6037 35.6211 71.6018 35.6315C71.5998 35.6419 71.5958 35.6517 71.5899 35.6605Z" fill="#407BFF"/>
<path d="M71.8751 35.7425L72.2803 37.8609C72.2829 37.8765 72.281 37.8924 72.2748 37.9069C72.2686 37.9214 72.2583 37.9337 72.2452 37.9425C72.2321 37.9512 72.2167 37.956 72.2009 37.9561C72.1852 37.9563 72.1697 37.9519 72.1564 37.9435L71.8369 37.7412C71.8274 37.7353 71.8191 37.7274 71.8128 37.7182C71.8064 37.7089 71.802 37.6984 71.7999 37.6874L71.4992 36.1126C71.4969 36.1026 71.4967 36.0923 71.4986 36.0822C71.5005 36.0721 71.5045 36.0625 71.5103 36.0541L71.7261 35.7084C71.7352 35.6944 71.7484 35.6836 71.7638 35.6774C71.7793 35.6712 71.7963 35.6698 71.8125 35.6735C71.8287 35.6772 71.8434 35.6858 71.8546 35.6982C71.8658 35.7105 71.873 35.726 71.8751 35.7425Z" fill="#407BFF"/>
<path d="M71.393 33.2293L71.7997 35.3535C71.8027 35.3691 71.8011 35.3852 71.7951 35.3999C71.7891 35.4146 71.7789 35.4273 71.7658 35.4362C71.7526 35.4452 71.7372 35.4502 71.7213 35.4505C71.7054 35.4508 71.6898 35.4464 71.6763 35.4379L71.3544 35.2343C71.3455 35.2282 71.3378 35.2205 71.3319 35.2115C71.3259 35.2025 71.3218 35.1924 71.3198 35.1818L71.0173 33.6076C71.0138 33.5874 71.0177 33.5666 71.0283 33.5491L71.2436 33.2015C71.2523 33.1875 71.2649 33.1764 71.28 33.1698C71.295 33.1631 71.3117 33.1612 71.3278 33.1642C71.344 33.1672 71.3589 33.175 71.3705 33.1866C71.3821 33.1983 71.3899 33.2131 71.393 33.2293Z" fill="#407BFF"/>
</g>
<path opacity="0.4" d="M69.3732 39.8736C69.3602 39.8003 69.3746 39.7248 69.4139 39.6615C69.4531 39.5983 69.5143 39.5517 69.5857 39.5308L72.8473 38.6569C72.8853 38.6463 72.9251 38.6437 72.9642 38.6493C73.0033 38.6549 73.0407 38.6684 73.0743 38.6892C73.1079 38.7099 73.1368 38.7374 73.1592 38.7699C73.1817 38.8023 73.1971 38.8391 73.2047 38.8778C73.2178 38.9514 73.2031 39.0273 73.1635 39.0907C73.1239 39.1541 73.0622 39.2006 72.9903 39.2211L69.7364 40.093C69.6981 40.1051 69.6576 40.109 69.6178 40.1043C69.5779 40.0995 69.5395 40.0864 69.5051 40.0656C69.4707 40.0448 69.4412 40.017 69.4184 39.9838C69.3957 39.9507 69.3803 39.9131 69.3732 39.8736Z" fill="#407BFF"/>
<path opacity="0.4" d="M65.2944 40.9664C65.2813 40.8931 65.2958 40.8176 65.335 40.7543C65.3742 40.6911 65.4354 40.6445 65.5069 40.6236L68.7684 39.7497C68.8064 39.7391 68.8462 39.7365 68.8853 39.7421C68.9244 39.7476 68.9619 39.7612 68.9954 39.782C69.029 39.8027 69.0579 39.8302 69.0803 39.8627C69.1028 39.8951 69.1182 39.9319 69.1258 39.9706C69.1389 40.0442 69.1242 40.1201 69.0846 40.1835C69.045 40.2469 68.9833 40.2934 68.9114 40.3139L65.6498 41.1878C65.6119 41.1987 65.5721 41.2015 65.533 41.196C65.4939 41.1906 65.4564 41.177 65.4229 41.1561C65.3894 41.1352 65.3606 41.1076 65.3385 41.0749C65.3163 41.0422 65.3013 41.0052 65.2944 40.9664Z" fill="#407BFF"/>
<path opacity="0.4" d="M61.2154 42.0594C61.2024 41.9861 61.2168 41.9106 61.2561 41.8473C61.2953 41.7841 61.3565 41.7375 61.4279 41.7166L64.6895 40.8427C64.7274 40.8324 64.7671 40.8301 64.8059 40.8358C64.8448 40.8416 64.8821 40.8552 64.9154 40.876C64.9488 40.8968 64.9775 40.9242 64.9998 40.9566C65.0221 40.9889 65.0374 41.0256 65.0449 41.0641C65.0585 41.1378 65.044 41.2139 65.0044 41.2774C64.9647 41.3409 64.9027 41.3873 64.8305 41.4074L61.569 42.2813C61.5311 42.2919 61.4915 42.2945 61.4526 42.2888C61.4137 42.2832 61.3764 42.2695 61.3431 42.2486C61.3098 42.2277 61.2813 42.2 61.2593 42.1675C61.2373 42.1349 61.2224 42.0981 61.2154 42.0594Z" fill="#407BFF"/>
<path opacity="0.4" d="M57.1366 43.1524C57.1235 43.0791 57.138 43.0036 57.1772 42.9403C57.2164 42.8771 57.2776 42.8305 57.3491 42.8096L60.6106 41.9357C60.6486 41.9254 60.6882 41.9231 60.7271 41.9288C60.7659 41.9346 60.8032 41.9483 60.8366 41.969C60.8699 41.9898 60.8986 42.0172 60.9209 42.0496C60.9432 42.082 60.9586 42.1186 60.9661 42.1571C60.9797 42.2308 60.9652 42.3069 60.9255 42.3704C60.8858 42.4339 60.8238 42.4803 60.7517 42.5004L57.4901 43.3744C57.4523 43.3849 57.4126 43.3875 57.3737 43.3818C57.3348 43.3762 57.2975 43.3625 57.2642 43.3416C57.231 43.3207 57.2024 43.2931 57.1804 43.2605C57.1584 43.2279 57.1435 43.1911 57.1366 43.1524Z" fill="#407BFF"/>
<path opacity="0.1" d="M52.3633 61.3692L51.1857 52.1702C51.1526 51.8672 51.2269 51.5622 51.3957 51.3084C51.5644 51.0546 51.8169 50.8681 52.1091 50.7815L60.9863 48.4028C61.12 48.3631 61.2608 48.3535 61.3987 48.3748C61.5365 48.3961 61.6679 48.4477 61.7833 48.526C61.8987 48.6043 61.9953 48.7072 62.0661 48.8274C62.1369 48.9476 62.1801 49.082 62.1926 49.2209L63.3702 58.4199C63.4037 58.7226 63.3297 59.0275 63.1613 59.2812C62.9929 59.5349 62.7407 59.7214 62.4487 59.8081L53.5696 62.1872C53.4359 62.227 53.2951 62.2366 53.1572 62.2153C53.0194 62.194 52.888 62.1423 52.7726 62.0641C52.6572 61.9858 52.5606 61.8828 52.4898 61.7627C52.419 61.6425 52.3758 61.5081 52.3633 61.3692Z" fill="#263238"/>
<path opacity="0.1" d="M65.0106 57.9805L63.8387 48.7799C63.8056 48.4769 63.8799 48.172 64.0486 47.9182C64.2174 47.6644 64.4699 47.4779 64.7621 47.3912L73.6393 45.0126C73.773 44.9724 73.914 44.9626 74.0519 44.9837C74.1899 45.0048 74.3214 45.0565 74.4369 45.1348C74.5525 45.2132 74.6491 45.3163 74.7198 45.4366C74.7904 45.557 74.8334 45.6916 74.8456 45.8306L76.0251 55.0292C76.0578 55.3321 75.9834 55.6369 75.8147 55.8906C75.646 56.1443 75.3937 56.3308 75.1017 56.4178L66.2149 58.7991C66.0813 58.8389 65.9405 58.8485 65.8027 58.8271C65.665 58.8058 65.5337 58.7541 65.4184 58.6757C65.3031 58.5973 65.2067 58.4943 65.1361 58.3741C65.0656 58.2538 65.0227 58.1194 65.0106 57.9805Z" fill="#263238"/>
<path d="M51.7725 61.5276L50.6006 52.3271C50.5675 52.0241 50.6418 51.7191 50.8105 51.4653C50.9793 51.2115 51.2318 51.025 51.524 50.9384L60.4012 48.5597C60.5349 48.52 60.6757 48.5104 60.8135 48.5317C60.9514 48.553 61.0827 48.6046 61.1982 48.6829C61.3136 48.7612 61.4102 48.8641 61.481 48.9843C61.5517 49.1045 61.5949 49.2389 61.6074 49.3778L62.7851 58.5768C62.8185 58.8795 62.7446 59.1844 62.5762 59.4381C62.4078 59.6918 62.1555 59.8783 61.8636 59.965L52.9787 62.3457C52.845 62.3855 52.7042 62.3951 52.5663 62.3737C52.4285 62.3524 52.2971 62.3008 52.1817 62.2225C52.0663 62.1442 51.9697 62.0413 51.8989 61.9211C51.8281 61.8009 51.7849 61.6665 51.7725 61.5276Z" fill="#407BFF"/>
<path opacity="0.2" d="M51.7725 61.5276L50.6006 52.3271C50.5675 52.0241 50.6418 51.7191 50.8105 51.4653C50.9793 51.2115 51.2318 51.025 51.524 50.9384L60.4012 48.5597C60.5349 48.52 60.6757 48.5104 60.8135 48.5317C60.9514 48.553 61.0827 48.6046 61.1982 48.6829C61.3136 48.7612 61.4102 48.8641 61.481 48.9843C61.5517 49.1045 61.5949 49.2389 61.6074 49.3778L62.7851 58.5768C62.8185 58.8795 62.7446 59.1844 62.5762 59.4381C62.4078 59.6918 62.1555 59.8783 61.8636 59.965L52.9787 62.3457C52.845 62.3855 52.7042 62.3951 52.5663 62.3737C52.4285 62.3524 52.2971 62.3008 52.1817 62.2225C52.0663 62.1442 51.9697 62.0413 51.8989 61.9211C51.8281 61.8009 51.7849 61.6665 51.7725 61.5276Z" fill="white"/>
<path d="M64.4197 58.1387L63.2402 48.9402C63.207 48.6372 63.2813 48.3322 63.4501 48.0784C63.6188 47.8246 63.8713 47.6381 64.1635 47.5515L73.0408 45.1728C73.1744 45.1327 73.3154 45.1228 73.4534 45.144C73.5913 45.1651 73.7229 45.2167 73.8384 45.2951C73.9539 45.3734 74.0505 45.4765 74.1212 45.5969C74.1919 45.7172 74.2349 45.8518 74.247 45.9909L75.4265 55.1894C75.4593 55.4923 75.3848 55.7971 75.2161 56.0508C75.0474 56.3045 74.7951 56.4911 74.5031 56.5781L65.624 58.9573C65.4904 58.9971 65.3496 59.0067 65.2119 58.9853C65.0741 58.964 64.9428 58.9123 64.8275 58.8339C64.7122 58.7555 64.6158 58.6525 64.5453 58.5323C64.4747 58.412 64.4318 58.2776 64.4197 58.1387Z" fill="#407BFF"/>
<path opacity="0.2" d="M64.4197 58.1387L63.2402 48.9402C63.207 48.6372 63.2813 48.3322 63.4501 48.0784C63.6188 47.8246 63.8713 47.6381 64.1635 47.5515L73.0408 45.1728C73.1744 45.1327 73.3154 45.1228 73.4534 45.144C73.5913 45.1651 73.7229 45.2167 73.8384 45.2951C73.9539 45.3734 74.0505 45.4765 74.1212 45.5969C74.1919 45.7172 74.2349 45.8518 74.247 45.9909L75.4265 55.1894C75.4593 55.4923 75.3848 55.7971 75.2161 56.0508C75.0474 56.3045 74.7951 56.4911 74.5031 56.5781L65.624 58.9573C65.4904 58.9971 65.3496 59.0067 65.2119 58.9853C65.0741 58.964 64.9428 58.9123 64.8275 58.8339C64.7122 58.7555 64.6158 58.6525 64.5453 58.5323C64.4747 58.412 64.4318 58.2776 64.4197 58.1387Z" fill="white"/>
<path d="M57.1771 59.2816C57.0435 59.3206 56.9029 59.3297 56.7653 59.308C56.6278 59.2864 56.4967 59.2347 56.3815 59.1565C56.2662 59.0784 56.1697 58.9757 56.0987 58.856C56.0277 58.7362 55.9841 58.6022 55.9709 58.4636L55.2741 53.016C55.2417 52.7129 55.3162 52.4081 55.4847 52.1542C55.6532 51.9002 55.9052 51.7132 56.197 51.6254C56.3308 51.5859 56.4718 51.5765 56.6097 51.5981C56.7475 51.6196 56.8789 51.6714 56.9944 51.7499C57.1098 51.8283 57.2064 51.9314 57.2772 52.0516C57.348 52.1719 57.3912 52.3063 57.4037 52.4453L58.1025 57.8924C58.1344 58.1955 58.0594 58.5003 57.8905 58.754C57.7215 59.0076 57.4692 59.1943 57.1771 59.2816Z" fill="white"/>
<path d="M52.9931 56.4442C52.961 56.1409 53.0359 55.8359 53.2047 55.5819C53.3736 55.3279 53.6258 55.1409 53.9179 55.0531L59.1786 53.6434C59.3124 53.6043 59.4533 53.5953 59.591 53.617C59.7287 53.6386 59.86 53.6905 59.9753 53.7689C60.0906 53.8473 60.1872 53.9502 60.2581 54.0702C60.329 54.1903 60.3724 54.3246 60.3853 54.4634C60.4173 54.7662 60.3425 55.0706 60.1739 55.3242C60.0053 55.5777 59.7535 55.7644 59.4619 55.8521L54.2051 57.2607C54.0712 57.3007 53.9301 57.3105 53.7919 57.2895C53.6537 57.2684 53.522 57.217 53.406 57.1389C53.2901 57.0608 53.193 56.958 53.1216 56.8379C53.0502 56.7178 53.0063 56.5833 52.9931 56.4442Z" fill="white"/>
<path d="M65.6384 53.056C65.6063 52.7527 65.6812 52.4478 65.85 52.1938C66.0189 51.9398 66.2711 51.7527 66.5632 51.6649L71.8201 50.2564C71.9539 50.2168 72.0949 50.2075 72.2327 50.2291C72.3706 50.2506 72.502 50.3024 72.6174 50.3809C72.7329 50.4593 72.8294 50.5623 72.9002 50.6826C72.971 50.8029 73.0143 50.9373 73.0268 51.0763C73.0588 51.3791 72.984 51.6835 72.8154 51.9371C72.6468 52.1906 72.395 52.3773 72.1034 52.465L66.8485 53.8731C66.7147 53.9128 66.5737 53.9223 66.4358 53.9011C66.2978 53.8798 66.1663 53.8283 66.0506 53.7502C65.9349 53.6721 65.8379 53.5693 65.7667 53.4493C65.6954 53.3293 65.6516 53.195 65.6384 53.056Z" fill="white"/>
</g>
<defs>
<clipPath id="clip0_1170_9637">
<rect width="99.3125" height="99.3125" fill="white" transform="translate(0 26.178) rotate(-15)"/>
</clipPath>
</defs>
</svg>
