<svg width="100" height="56" viewBox="0 0 100 56" fill="none" xmlns="http://www.w3.org/2000/svg">
<g style="mix-blend-mode:luminosity" opacity="0.1" clip-path="url(#clip0_1170_8498)">
<path d="M66.8567 30.7911L36.5083 43.6128L54.1128 85.282L84.4612 72.4603L66.8567 30.7911Z" fill="#407BFF" stroke="#263238" stroke-width="0.112" stroke-miterlimit="10"/>
<path d="M66.5679 32.031L37.5991 44.2698L54.4038 84.0458L83.3726 71.8069L66.5679 32.031Z" fill="white" stroke="#263238" stroke-width="0.112" stroke-linecap="round" stroke-linejoin="round"/>
<path d="M58.4246 39.5498L66.0226 36.15" stroke="#263238" stroke-width="0.112" stroke-linecap="round" stroke-linejoin="round"/>
<path d="M41.8168 46.9781L45.2657 45.4365" stroke="#263238" stroke-width="0.112" stroke-linecap="round" stroke-linejoin="round"/>
<path d="M68.3764 44.5568L69.5236 44.0448" stroke="#263238" stroke-width="0.112" stroke-linecap="round" stroke-linejoin="round"/>
<path d="M63.1462 46.8964L67.7399 44.841" stroke="#263238" stroke-width="0.112" stroke-linecap="round" stroke-linejoin="round"/>
<path d="M60.4793 48.0901L62.3896 47.2356" stroke="#263238" stroke-width="0.112" stroke-linecap="round" stroke-linejoin="round"/>
<path d="M55.0669 50.5105L59.6293 48.4691" stroke="#263238" stroke-width="0.112" stroke-linecap="round" stroke-linejoin="round"/>
<path d="M51.5815 52.0714L54.2648 50.8706" stroke="#263238" stroke-width="0.112" stroke-linecap="round" stroke-linejoin="round"/>
<path d="M45.3179 54.8729L50.7316 52.4502" stroke="#263238" stroke-width="0.112" stroke-linecap="round" stroke-linejoin="round"/>
<path d="M67.0708 48.1015L70.9833 46.3508" stroke="#263238" stroke-width="0.112" stroke-linecap="round" stroke-linejoin="round"/>
<path d="M58.9599 51.7295L66.1763 48.5009" stroke="#263238" stroke-width="0.112" stroke-linecap="round" stroke-linejoin="round"/>
<path d="M53.4258 54.2054L57.6556 52.3139" stroke="#263238" stroke-width="0.112" stroke-linecap="round" stroke-linejoin="round"/>
<path d="M46.7744 57.1794L52.6525 54.5518" stroke="#263238" stroke-width="0.112" stroke-linecap="round" stroke-linejoin="round"/>
<path d="M69.4063 50.1079L71.9175 48.9841" stroke="#263238" stroke-width="0.112" stroke-linecap="round" stroke-linejoin="round"/>
<path d="M62.4927 53.2003L68.6172 50.4613" stroke="#263238" stroke-width="0.112" stroke-linecap="round" stroke-linejoin="round"/>
<path d="M60.9313 53.8999L61.9157 53.459" stroke="#263238" stroke-width="0.112" stroke-linecap="round" stroke-linejoin="round"/>
<path d="M56.2771 55.9809L60.2349 54.2116" stroke="#263238" stroke-width="0.112" stroke-linecap="round" stroke-linejoin="round"/>
<path d="M67.705 53.8303L72.9444 51.485" stroke="#263238" stroke-width="0.112" stroke-linecap="round" stroke-linejoin="round"/>
<path d="M58.9575 57.7425L66.7652 54.2505" stroke="#263238" stroke-width="0.112" stroke-linecap="round" stroke-linejoin="round"/>
<path opacity="0.2" d="M80.4846 27.0754C77.7921 27.7968 75.6521 29.4707 74.4305 31.5424L74.2575 27.497L72.6829 29.0388C71.9933 29.5383 71.4015 30.1604 70.9371 30.8741C70.1425 32.0798 70.1133 33.8277 70.1133 33.8277L73.0731 31.4194C73.0731 31.4194 70.4631 35.5989 70.7118 36.5272C70.9605 37.4555 71.2571 39.4865 71.2571 39.4865L73.4529 36.96C73.4906 37.1006 73.5148 37.2471 73.553 37.3897C73.8312 38.4237 74.3354 39.3831 75.0292 40.1986C74.8528 40.8619 74.8341 41.5572 74.9746 42.229C75.1513 42.9441 75.4588 43.6203 75.8816 44.2235L77.1101 41.9367C77.2641 42.029 77.4204 42.1142 77.5822 42.1957L78.6644 43.4779L80.0512 44.4738L79.9403 43.136L79.7438 42.9733C81.3853 43.335 83.0899 43.2928 84.7115 42.8503C89.7065 41.5119 92.8073 36.8973 91.6406 32.5431C90.4739 28.189 85.4797 25.737 80.4846 27.0754Z" fill="black"/>
<path d="M85.8105 26.025C84.1041 25.27 82.1907 25.1217 80.3883 25.6046C78.5859 26.0876 77.003 27.1728 75.9027 28.6798L72.9531 29.4702L74.6022 35.6246C74.8664 36.6776 75.3375 37.6675 75.9881 38.5367C76.6386 39.4058 77.4556 40.1368 78.3914 40.6871C79.3273 41.2374 80.3632 41.596 81.439 41.742C82.5148 41.888 83.6089 41.8184 84.6575 41.5375C85.7061 41.2565 86.6884 40.7696 87.5471 40.1053C88.4057 39.441 89.1236 38.6125 89.6589 37.668C90.1942 36.7235 90.5362 35.6819 90.6651 34.604C90.7939 33.526 90.7069 32.4332 90.4093 31.3891L88.7602 25.2347L85.8105 26.025Z" fill="#9E9E9E" stroke="#263238" stroke-width="0.112" stroke-linecap="round" stroke-linejoin="round"/>
<path d="M82.9731 35.2555C87.3375 34.086 89.9276 29.5999 88.7581 25.2354C87.5887 20.871 83.1026 18.2809 78.7381 19.4504C74.3737 20.6198 71.7836 25.106 72.953 29.4704C74.1225 33.8349 78.6086 36.4249 82.9731 35.2555Z" fill="#BDBDBD" stroke="#263238" stroke-width="0.112" stroke-linecap="round" stroke-linejoin="round"/>
<path d="M82.7856 34.5518C86.7617 33.4864 89.1213 29.3995 88.0559 25.4235C86.9905 21.4474 82.9036 19.0879 78.9276 20.1532C74.9515 21.2186 72.5919 25.3055 73.6573 29.2816C74.7227 33.2576 78.8096 35.6172 82.7856 34.5518Z" fill="#9E9E9E" stroke="#263238" stroke-width="0.112" stroke-linecap="round" stroke-linejoin="round"/>
<path d="M82.7848 34.55C86.5445 33.5426 88.8038 29.7834 87.8312 26.1535C86.8586 22.5237 83.0223 20.3978 79.2627 21.4052C75.503 22.4126 73.2437 26.1718 74.2163 29.8016C75.1889 33.4315 79.0251 35.5574 82.7848 34.55Z" fill="#5C5C5C" stroke="#263238" stroke-width="0.112" stroke-linecap="round" stroke-linejoin="round"/>
<path d="M80.4065 27.1286L76.9269 14.1426" stroke="#263238" stroke-width="0.224" stroke-linecap="round" stroke-linejoin="round"/>
<path d="M79.7125 24.9759C79.7125 24.9759 74.5939 28.5699 74.2528 34.2734" stroke="#263238" stroke-width="0.224" stroke-linecap="round" stroke-linejoin="round"/>
<path d="M77.9075 18.2365C77.9075 18.2365 74.7522 16.0411 69.6329 16.5945" stroke="#263238" stroke-width="0.224" stroke-linecap="round" stroke-linejoin="round"/>
<path d="M75.0591 30.8033C75.0591 30.8033 71.3248 30.8671 70.3248 32.7933C69.3248 34.7195 70.3484 36.9002 70.3484 36.9002C70.3484 36.9002 70.5935 36.4728 72.1595 35.0432C73.7254 33.6136 75.0591 30.8033 75.0591 30.8033Z" fill="#407BFF" stroke="#263238" stroke-width="0.112" stroke-miterlimit="10"/>
<path d="M75.059 30.8034C73.5524 31.5536 72.2911 32.7178 71.4228 34.1595L75.059 30.8034Z" fill="#407BFF"/>
<path d="M75.059 30.8034C73.5524 31.5536 72.2911 32.7178 71.4228 34.1595" stroke="#263238" stroke-width="0.112" stroke-miterlimit="10"/>
<path d="M74.3741 33.9178C74.3741 33.9178 71.4316 36.2138 71.8003 38.3611C72.1689 40.5085 74.2863 41.6274 74.2863 41.6274C74.2863 41.6274 74.2246 41.14 74.6094 39.0556C74.9941 36.9713 74.3741 33.9178 74.3741 33.9178Z" fill="#407BFF" stroke="#263238" stroke-width="0.112" stroke-miterlimit="10"/>
<path d="M74.3735 33.9181C73.6208 35.4272 73.3152 37.1201 73.4928 38.7971L74.3735 33.9181Z" fill="#407BFF"/>
<path d="M74.3735 33.9181C73.6208 35.4272 73.3152 37.1201 73.4928 38.7971" stroke="#263238" stroke-width="0.112" stroke-miterlimit="10"/>
<path d="M76.1832 28.6714C76.1832 28.6714 79.8794 29.1885 80.6339 31.2325C81.3883 33.2765 80.106 35.3063 80.106 35.3063C80.106 35.3063 79.9157 34.8534 78.5403 33.2406C77.1649 31.6279 76.1832 28.6714 76.1832 28.6714Z" fill="#407BFF" stroke="#263238" stroke-width="0.112" stroke-miterlimit="10"/>
<path d="M76.1832 28.6714C77.5896 29.602 78.7007 30.9153 79.3854 32.4564L76.1832 28.6714Z" fill="#407BFF"/>
<path d="M76.1832 28.6714C77.5896 29.602 78.7007 30.9153 79.3854 32.4564" stroke="#263238" stroke-width="0.112" stroke-miterlimit="10"/>
<path d="M79.7314 24.9792C79.7314 24.9792 83.4277 25.4963 84.1821 27.5403C84.9365 29.5843 83.6622 31.612 83.6622 31.612C83.6622 31.612 83.4694 31.1576 82.0946 29.5469C80.7197 27.9362 79.7314 24.9792 79.7314 24.9792Z" fill="#407BFF" stroke="#263238" stroke-width="0.112" stroke-miterlimit="10"/>
<path d="M79.7314 24.9792C81.1372 25.9093 82.2474 27.2222 82.9311 28.7628L79.7314 24.9792Z" fill="#407BFF"/>
<path d="M79.7314 24.9792C81.1372 25.9093 82.2474 27.2222 82.9311 28.7628" stroke="#263238" stroke-width="0.112" stroke-miterlimit="10"/>
<path d="M76.3282 28.3549C76.3282 28.3549 73.3915 26.0428 71.4019 26.9119C69.4123 27.7809 68.8126 30.1081 68.8126 30.1081C68.8126 30.1081 69.2739 29.9328 71.3897 29.816C73.5055 29.6991 76.3282 28.3549 76.3282 28.3549Z" fill="#407BFF" stroke="#263238" stroke-width="0.112" stroke-miterlimit="10"/>
<path d="M76.3285 28.355C74.6843 27.9806 72.9673 28.0835 71.3795 28.6517L76.3285 28.355Z" fill="#407BFF"/>
<path d="M76.3285 28.355C74.6843 27.9806 72.9673 28.0835 71.3795 28.6517" stroke="#263238" stroke-width="0.112" stroke-miterlimit="10"/>
<path d="M79.4438 23.6804C79.4438 23.6804 85.6717 24.2341 88.8208 29.0025" stroke="#263238" stroke-width="0.224" stroke-linecap="round" stroke-linejoin="round"/>
<path d="M86.3899 26.4084C86.3899 26.4084 89.6553 24.5945 91.4829 25.7651C93.3105 26.9358 93.5153 29.3317 93.5153 29.3317C93.5153 29.3317 93.0879 29.0866 91.019 28.6309C88.9501 28.1753 86.3899 26.4084 86.3899 26.4084Z" fill="#407BFF" stroke="#263238" stroke-width="0.112" stroke-miterlimit="10"/>
<path d="M86.3898 26.4084C88.0717 26.3009 89.7494 26.6771 91.2243 27.4927L86.3898 26.4084Z" fill="#407BFF"/>
<path d="M86.3898 26.4084C88.0717 26.3009 89.7494 26.6771 91.2243 27.4927" stroke="#263238" stroke-width="0.112" stroke-miterlimit="10"/>
<path d="M88.5433 28.7622C88.5433 28.7622 92.2396 29.2793 92.994 31.3233C93.7484 33.3673 92.4661 35.3971 92.4661 35.3971C92.4661 35.3971 92.2733 34.9427 90.8979 33.33C89.5225 31.7172 88.5433 28.7622 88.5433 28.7622Z" fill="#407BFF" stroke="#263238" stroke-width="0.112" stroke-miterlimit="10"/>
<path d="M88.5433 28.7622C89.9493 29.6923 91.0601 31.0049 91.745 32.5452L88.5433 28.7622Z" fill="#407BFF"/>
<path d="M88.5433 28.7622C89.9493 29.6923 91.0601 31.0049 91.745 32.5452" stroke="#263238" stroke-width="0.112" stroke-miterlimit="10"/>
<path d="M84.35 25.1222C84.35 25.1222 81.4075 27.4181 81.7767 29.5675C82.1459 31.7169 84.2702 32.8296 84.2702 32.8296C84.2702 32.8296 84.2085 32.3422 84.5933 30.2578C84.978 28.1735 84.35 25.1222 84.35 25.1222Z" fill="#407BFF" stroke="#263238" stroke-width="0.112" stroke-miterlimit="10"/>
<path d="M84.3504 25.1222C83.5977 26.6313 83.2921 28.3242 83.4697 30.0012L84.3504 25.1222Z" fill="#407BFF"/>
<path d="M84.3504 25.1222C83.5977 26.6313 83.2921 28.3242 83.4697 30.0012" stroke="#263238" stroke-width="0.112" stroke-miterlimit="10"/>
<path d="M84.0675 24.9203C84.0675 24.9203 85.4528 21.4502 87.6087 21.202C89.7647 20.9538 91.4487 22.6733 91.4487 22.6733C91.4487 22.6733 90.9621 22.7542 89.0708 23.7089C87.1795 24.6636 84.0675 24.9203 84.0675 24.9203Z" fill="#407BFF" stroke="#263238" stroke-width="0.112" stroke-miterlimit="10"/>
<path d="M84.0675 24.9202C85.3043 23.7739 86.8427 23.0045 88.5019 22.7026L84.0675 24.9202Z" fill="#407BFF"/>
<path d="M84.0675 24.9202C85.3043 23.7739 86.8427 23.0045 88.5019 22.7026" stroke="#263238" stroke-width="0.112" stroke-miterlimit="10"/>
<path d="M79.7332 24.9163C79.7332 24.9163 76.7985 22.6037 74.8033 23.4679C72.808 24.332 72.214 26.6641 72.214 26.6641C72.214 26.6641 72.6753 26.4888 74.7905 26.37C76.9058 26.2511 79.7332 24.9163 79.7332 24.9163Z" fill="#407BFF" stroke="#263238" stroke-width="0.112" stroke-miterlimit="10"/>
<path d="M79.7334 24.9165C78.0892 24.5422 76.3722 24.6458 74.7849 25.2152L79.7334 24.9165Z" fill="#407BFF"/>
<path d="M79.7334 24.9165C78.0892 24.5422 76.3722 24.6458 74.7849 25.2152" stroke="#263238" stroke-width="0.112" stroke-miterlimit="10"/>
<path d="M77.771 18.0577C77.771 18.0577 74.1366 18.9605 73.6052 21.0604C73.0739 23.1604 74.5454 25.0596 74.5454 25.0596C74.5454 25.0596 74.6909 24.5899 75.8897 22.843C77.0885 21.0962 77.771 18.0577 77.771 18.0577Z" fill="#407BFF" stroke="#263238" stroke-width="0.112" stroke-miterlimit="10"/>
<path d="M77.7706 18.0578C76.4666 19.126 75.4958 20.5452 74.9729 22.1477L77.7706 18.0578Z" fill="#407BFF"/>
<path d="M77.7706 18.0578C76.4666 19.126 75.4958 20.5452 74.9729 22.1477" stroke="#263238" stroke-width="0.112" stroke-miterlimit="10"/>
<path d="M72.0442 16.3856C72.0442 16.3856 68.7523 14.6209 66.9383 15.8155C65.1242 17.0101 64.9517 19.4123 64.9517 19.4123C64.9517 19.4123 65.3748 19.159 67.4389 18.6727C69.5031 18.1863 72.0442 16.3856 72.0442 16.3856Z" fill="#407BFF" stroke="#263238" stroke-width="0.112" stroke-miterlimit="10"/>
<path d="M72.0441 16.3856C70.36 16.3031 68.6875 16.7042 67.224 17.5414L72.0441 16.3856Z" fill="#407BFF"/>
<path d="M72.0441 16.3856C70.36 16.3031 68.6875 16.7042 67.224 17.5414" stroke="#263238" stroke-width="0.112" stroke-miterlimit="10"/>
<path d="M74.0615 16.8721C74.0615 16.8721 70.405 17.6365 69.7902 19.7223C69.1753 21.808 70.5835 23.7522 70.5835 23.7522C70.5835 23.7522 70.7431 23.2787 72.0124 21.5862C73.2817 19.8936 74.0615 16.8721 74.0615 16.8721Z" fill="#407BFF" stroke="#263238" stroke-width="0.112" stroke-miterlimit="10"/>
<path d="M74.0617 16.8722C72.7197 17.8932 71.6976 19.2767 71.1159 20.8595L74.0617 16.8722Z" fill="#407BFF"/>
<path d="M74.0617 16.8722C72.7197 17.8932 71.6976 19.2767 71.1159 20.8595" stroke="#263238" stroke-width="0.112" stroke-miterlimit="10"/>
<path d="M75.0182 16.8572C75.0182 16.8572 74.8414 13.1272 72.8859 12.1868C70.9305 11.2463 68.7794 12.3245 68.7794 12.3245C68.7794 12.3245 69.2128 12.5594 70.6885 14.0806C72.1643 15.6018 75.0182 16.8572 75.0182 16.8572Z" fill="#407BFF" stroke="#263238" stroke-width="0.112" stroke-miterlimit="10"/>
<path d="M75.0182 16.8571C74.224 15.3701 73.0212 14.1412 71.5516 13.3152L75.0182 16.8571Z" fill="#407BFF"/>
<path d="M75.0182 16.8571C74.224 15.3701 73.0212 14.1412 71.5516 13.3152" stroke="#263238" stroke-width="0.112" stroke-miterlimit="10"/>
<path d="M79.188 22.2219C79.188 22.2219 80.8294 18.7434 85.5336 16.6646" stroke="#263238" stroke-width="0.224" stroke-linecap="round" stroke-linejoin="round"/>
<path d="M79.2185 21.9986C79.2185 21.9986 82.8074 20.9659 84.3255 22.5167C85.8437 24.0675 85.5109 26.4502 85.5109 26.4502C85.5109 26.4502 85.15 26.1161 83.239 25.2047C81.3279 24.2933 79.2185 21.9986 79.2185 21.9986Z" fill="#407BFF" stroke="#263238" stroke-width="0.112" stroke-miterlimit="10"/>
<path d="M79.2184 21.9985C80.882 22.2725 82.4325 23.0168 83.6868 24.1435L79.2184 21.9985Z" fill="#407BFF"/>
<path d="M79.2184 21.9985C80.882 22.2725 82.4325 23.0168 83.6868 24.1435" stroke="#263238" stroke-width="0.112" stroke-miterlimit="10"/>
<path d="M83.3507 17.6803C83.3507 17.6803 85.3192 14.5062 87.4876 14.6337C89.6559 14.7612 91.0044 16.7558 91.0044 16.7558C91.0044 16.7558 90.5113 16.748 88.4825 17.3584C86.4537 17.9687 83.3507 17.6803 83.3507 17.6803Z" fill="#407BFF" stroke="#263238" stroke-width="0.112" stroke-miterlimit="10"/>
<path d="M83.3508 17.6804C84.7679 16.7667 86.4169 16.2778 88.103 16.2714L83.3508 17.6804Z" fill="#407BFF"/>
<path d="M83.3508 17.6804C84.7679 16.7667 86.4169 16.2778 88.103 16.2714" stroke="#263238" stroke-width="0.112" stroke-miterlimit="10"/>
<path d="M81.8386 19.1191C81.8386 19.1191 85.3874 17.9528 86.9622 19.4497C88.537 20.9465 88.288 23.3369 88.288 23.3369C88.288 23.3369 87.9131 23.0066 85.9696 22.175C84.0261 21.3433 81.8386 19.1191 81.8386 19.1191Z" fill="#407BFF" stroke="#263238" stroke-width="0.112" stroke-miterlimit="10"/>
<path d="M81.8386 19.1191C83.5106 19.3316 85.0867 20.0183 86.3809 21.0979L81.8386 19.1191Z" fill="#407BFF"/>
<path d="M81.8386 19.1191C83.5106 19.3316 85.0867 20.0183 86.3809 21.0979" stroke="#263238" stroke-width="0.112" stroke-miterlimit="10"/>
<path d="M81.0024 19.5823C81.0024 19.5823 79.2885 16.2642 80.5138 14.4715C81.739 12.6788 84.1501 12.5388 84.1501 12.5388C84.1501 12.5388 83.8903 12.9595 83.3728 15.0148C82.8554 17.0701 81.0024 19.5823 81.0024 19.5823Z" fill="#407BFF" stroke="#263238" stroke-width="0.112" stroke-miterlimit="10"/>
<path d="M81.0023 19.5822C80.9466 17.8973 81.3738 16.2316 82.2335 14.7815L81.0023 19.5822Z" fill="#407BFF"/>
<path d="M81.0023 19.5822C80.9466 17.8973 81.3738 16.2316 82.2335 14.7815" stroke="#263238" stroke-width="0.112" stroke-miterlimit="10"/>
<path d="M77.1603 15.1912C77.1603 15.1912 78.8012 11.7107 83.5054 9.63192" stroke="#263238" stroke-width="0.224" stroke-linecap="round" stroke-linejoin="round"/>
<path d="M77.1901 14.9659C77.1901 14.9659 80.7791 13.9332 82.2972 15.484C83.8154 17.0347 83.4825 19.4175 83.4825 19.4175C83.4825 19.4175 83.1217 19.0834 81.2106 18.172C79.2996 17.2606 77.1901 14.9659 77.1901 14.9659Z" fill="#407BFF" stroke="#263238" stroke-width="0.112" stroke-miterlimit="10"/>
<path d="M77.1902 14.9658C78.8538 15.2398 80.4043 15.9841 81.6586 17.1108L77.1902 14.9658Z" fill="#407BFF"/>
<path d="M77.1902 14.9658C78.8538 15.2398 80.4043 15.9841 81.6586 17.1108" stroke="#263238" stroke-width="0.112" stroke-miterlimit="10"/>
<path d="M77.2392 14.8341C77.2392 14.8341 74.2886 12.543 74.6472 10.401C75.0058 8.25906 77.1277 7.12842 77.1277 7.12842C77.1277 7.12842 77.0693 7.61784 77.4636 9.70019C77.8579 11.7825 77.2392 14.8341 77.2392 14.8341Z" fill="#407BFF" stroke="#263238" stroke-width="0.112" stroke-miterlimit="10"/>
<path d="M77.2387 14.8345C76.4799 13.3291 76.1673 11.6383 76.3377 9.96118L77.2387 14.8345Z" fill="#407BFF"/>
<path d="M77.2387 14.8345C76.4799 13.3291 76.1673 11.6383 76.3377 9.96118" stroke="#263238" stroke-width="0.112" stroke-miterlimit="10"/>
<path d="M81.3236 10.6515C81.3236 10.6515 83.2921 7.47736 85.4605 7.60487C87.6288 7.73238 88.9758 9.72959 88.9758 9.72959C88.9758 9.72959 88.4827 9.72173 86.4539 10.3321C84.4252 10.9425 81.3236 10.6515 81.3236 10.6515Z" fill="#407BFF" stroke="#263238" stroke-width="0.112" stroke-miterlimit="10"/>
<path d="M81.3236 10.6517C82.7392 9.74145 84.3848 9.25344 86.0678 9.24483L81.3236 10.6517Z" fill="#407BFF"/>
<path d="M81.3236 10.6517C82.7392 9.74145 84.3848 9.25344 86.0678 9.24483" stroke="#263238" stroke-width="0.112" stroke-miterlimit="10"/>
<path d="M79.8103 12.0863C79.8103 12.0863 83.3591 10.9201 84.9339 12.4169C86.5086 13.9138 86.2597 16.3042 86.2597 16.3042C86.2597 16.3042 85.8848 15.9739 83.9418 15.1443C81.9988 14.3146 79.8103 12.0863 79.8103 12.0863Z" fill="#407BFF" stroke="#263238" stroke-width="0.112" stroke-miterlimit="10"/>
<path d="M79.8103 12.0864C81.4798 12.3023 83.053 12.9902 84.3451 14.0694L79.8103 12.0864Z" fill="#407BFF"/>
<path d="M79.8103 12.0864C81.4798 12.3023 83.053 12.9902 84.3451 14.0694" stroke="#263238" stroke-width="0.112" stroke-miterlimit="10"/>
<path d="M78.9844 12.549C78.9844 12.549 77.2599 9.23161 78.4771 7.44105C79.6943 5.65048 82.1147 5.52096 82.1147 5.52096C82.1147 5.52096 81.8543 5.93961 81.3368 7.99491C80.8194 10.0502 78.9844 12.549 78.9844 12.549Z" fill="#407BFF" stroke="#263238" stroke-width="0.112" stroke-miterlimit="10"/>
<path d="M78.9849 12.5489C78.9279 10.8671 79.3519 9.20406 80.2071 7.75491L78.9849 12.5489Z" fill="#407BFF"/>
<path d="M78.9849 12.5489C78.9279 10.8671 79.3519 9.20406 80.2071 7.75491" stroke="#263238" stroke-width="0.112" stroke-miterlimit="10"/>
<path d="M77.9795 18.5683C77.9795 18.5683 78.6939 14.9011 77.0177 13.524C75.3415 12.1469 72.9927 12.688 72.9927 12.688C72.9927 12.688 73.3596 13.0204 74.4322 14.8456C75.5049 16.6708 77.9795 18.5683 77.9795 18.5683Z" fill="#407BFF" stroke="#263238" stroke-width="0.112" stroke-miterlimit="10"/>
<path d="M77.9795 18.5682C77.5613 16.9347 76.685 15.4547 75.454 14.3025L77.9795 18.5682Z" fill="#407BFF"/>
<path d="M77.9795 18.5682C77.5613 16.9347 76.685 15.4547 75.454 14.3025" stroke="#263238" stroke-width="0.112" stroke-miterlimit="10"/>
<path opacity="0.2" d="M99.8203 45.5502L89.0175 44.1452C88.1437 44.0316 87.3432 44.6478 87.2295 45.5216L84.2098 68.7405C84.0962 69.6143 84.7124 70.4148 85.5862 70.5284L96.3891 71.9334C97.2629 72.047 98.0634 71.4308 98.177 70.557L101.197 47.3381C101.31 46.4643 100.694 45.6638 99.8203 45.5502Z" fill="black"/>
<path d="M100.27 45.4284L89.4669 44.0234C88.5931 43.9098 87.7926 44.526 87.679 45.3998L84.6593 68.6186C84.5456 69.4924 85.1619 70.2929 86.0357 70.4066L96.8385 71.8115C97.7124 71.9252 98.5128 71.3089 98.6265 70.4351L101.646 47.2163C101.76 46.3425 101.144 45.542 100.27 45.4284Z" fill="white" stroke="#263238" stroke-width="0.112" stroke-linecap="round" stroke-linejoin="round"/>
<path d="M100.854 48.4516L88.1284 46.7966L85.4507 67.3854L98.1761 69.0404L100.854 48.4516Z" fill="#263238" stroke="#263238" stroke-width="0.112" stroke-linecap="round" stroke-linejoin="round"/>
<path d="M99.6028 55.7225L90.8572 61.1713" stroke="#8A8A8A" stroke-width="0.112" stroke-linecap="round" stroke-linejoin="round"/>
<path d="M96.0588 46.363L93.2922 46.0039C93.2674 46.0008 93.2435 45.9929 93.2218 45.9806C93.2001 45.9682 93.1811 45.9517 93.1658 45.932C93.1505 45.9123 93.1392 45.8897 93.1327 45.8657C93.1261 45.8416 93.1244 45.8164 93.1276 45.7917C93.1307 45.7669 93.1386 45.743 93.151 45.7213C93.1633 45.6996 93.1798 45.6806 93.1995 45.6653C93.2192 45.65 93.2418 45.6388 93.2659 45.6322C93.2899 45.6257 93.3151 45.624 93.3398 45.6272L96.1065 45.9863C96.1567 45.9929 96.2024 46.0191 96.2333 46.0593C96.2642 46.0994 96.278 46.1502 96.2715 46.2005C96.2682 46.2251 96.2601 46.2489 96.2476 46.2704C96.2352 46.2919 96.2186 46.3107 96.1988 46.3258C96.1791 46.3409 96.1565 46.352 96.1325 46.3584C96.1085 46.3647 96.0834 46.3663 96.0588 46.363Z" fill="#263238"/>
<path d="M62.836 38.7829L33.7036 54.1687L54.8287 94.1683L83.9611 78.7825L62.836 38.7829Z" fill="#407BFF" stroke="#263238" stroke-width="0.112" stroke-miterlimit="10"/>
<path d="M62.655 40.0431L34.8469 54.7295L55.0122 92.9118L82.8203 78.2254L62.655 40.0431Z" fill="white" stroke="#263238" stroke-width="0.112" stroke-linecap="round" stroke-linejoin="round"/>
<path d="M55.1889 48.235L62.4662 44.1939" stroke="#263238" stroke-width="0.112" stroke-linecap="round" stroke-linejoin="round"/>
<path d="M39.2819 57.0648L42.5854 55.232" stroke="#263238" stroke-width="0.112" stroke-linecap="round" stroke-linejoin="round"/>
<path d="M65.5348 52.3671L66.6336 51.7582" stroke="#263238" stroke-width="0.112" stroke-linecap="round" stroke-linejoin="round"/>
<path d="M60.5253 55.148L64.925 52.7049" stroke="#263238" stroke-width="0.112" stroke-linecap="round" stroke-linejoin="round"/>
<path d="M57.971 56.5667L59.8007 55.5509" stroke="#263238" stroke-width="0.112" stroke-linecap="round" stroke-linejoin="round"/>
<path d="M64.539 56.0107L68.2863 53.9299" stroke="#263238" stroke-width="0.112" stroke-linecap="round" stroke-linejoin="round"/>
</g>
<defs>
<clipPath id="clip0_1170_8498">
<rect width="104.008" height="104.008" fill="white" transform="translate(-4 21.9194) rotate(-15)"/>
</clipPath>
</defs>
</svg>
