<svg width="81" height="56" viewBox="0 0 81 56" fill="none" xmlns="http://www.w3.org/2000/svg">
<g style="mix-blend-mode:luminosity" opacity="0.1" clip-path="url(#clip0_1170_9214)">
<path d="M44.0578 77.356L44.7233 77.542C44.8416 77.5669 44.9642 77.5636 45.0809 77.5323C45.1977 77.501 45.3055 77.4426 45.3955 77.3619L77.0255 45.7432C77.0624 45.7186 77.0906 45.683 77.1062 45.6415C77.1218 45.6001 77.1241 45.5547 77.1126 45.5119C77.1011 45.4691 77.0765 45.4309 77.0422 45.4028C77.008 45.3747 76.9658 45.358 76.9215 45.3551L76.2564 45.1706C76.1381 45.1457 76.0156 45.1491 75.8988 45.1803C75.782 45.2116 75.6742 45.27 75.5842 45.3507L43.9554 76.9674C43.9184 76.9919 43.89 77.0274 43.8743 77.0688C43.8585 77.1102 43.8561 77.1555 43.8674 77.1984C43.8787 77.2413 43.9031 77.2795 43.9373 77.3078C43.9714 77.3361 44.0136 77.3529 44.0578 77.356Z" fill="#E0E0E0"/>
<path d="M35.321 75.0247L35.9865 75.2108C36.1049 75.2357 36.2274 75.2323 36.3442 75.201C36.461 75.1697 36.5687 75.1114 36.6588 75.0307L68.2876 43.4139C68.3245 43.3893 68.3527 43.3537 68.3683 43.3123C68.3839 43.2708 68.3861 43.2254 68.3747 43.1826C68.3632 43.1398 68.3386 43.1016 68.3043 43.0735C68.2701 43.0454 68.2278 43.0287 68.1836 43.0258L67.5181 42.8397C67.3998 42.8149 67.2772 42.8182 67.1605 42.8495C67.0437 42.8808 66.9359 42.9392 66.8459 43.0199L35.217 74.6366C35.1802 74.6612 35.152 74.6968 35.1363 74.7383C35.1207 74.7797 35.1185 74.8251 35.13 74.8679C35.1414 74.9107 35.166 74.9489 35.2003 74.977C35.2346 75.0051 35.2768 75.0218 35.321 75.0247Z" fill="#E0E0E0"/>
<path d="M26.5835 72.6936L27.2495 72.8813C27.3678 72.9062 27.4903 72.9028 27.6071 72.8715C27.7239 72.8402 27.8317 72.7819 27.9217 72.7012L59.5501 41.0829C59.587 41.0582 59.6152 41.0227 59.6308 40.9812C59.6464 40.9397 59.6487 40.8944 59.6372 40.8515C59.6257 40.8087 59.6011 40.7706 59.5668 40.7425C59.5326 40.7143 59.4903 40.6976 59.4461 40.6948L58.7806 40.5087C58.6623 40.4838 58.5398 40.4872 58.423 40.5184C58.3062 40.5497 58.1984 40.6081 58.1084 40.6888L26.4796 72.3055C26.4427 72.3302 26.4145 72.3657 26.3988 72.4072C26.3832 72.4487 26.381 72.494 26.3925 72.5369C26.4039 72.5797 26.4285 72.6178 26.4628 72.646C26.4971 72.6741 26.5393 72.6908 26.5835 72.6936Z" fill="#E0E0E0"/>
<path d="M27.2196 72.4583C27.1098 72.419 27.0107 72.3545 26.9303 72.27C26.8498 72.1855 26.7903 72.0834 26.7564 71.9717L18.1872 39.9911C18.1623 39.8727 18.1657 39.75 18.1971 39.6332C18.2285 39.5163 18.2871 39.4086 18.3681 39.3186L49.2436 8.43621C49.3248 8.35088 49.4275 8.28906 49.541 8.25728C49.6544 8.2255 49.7743 8.22493 49.888 8.25564C50.0017 8.28635 50.105 8.3472 50.187 8.43176C50.269 8.51631 50.3267 8.62145 50.3539 8.73605L58.9231 40.7167C58.948 40.8351 58.9447 40.9578 58.9132 41.0746C58.8818 41.1915 58.8232 41.2992 58.7422 41.3892L27.8683 72.2712C27.7825 72.3512 27.679 72.4098 27.5663 72.4424C27.4536 72.4749 27.3348 72.4803 27.2196 72.4583Z" fill="#407BFF"/>
<path opacity="0.4" d="M50.3398 8.68149C50.27 8.51385 50.1116 8.48806 49.9702 8.63079L19.0903 39.5094C19.0074 39.5988 18.9479 39.7074 18.9171 39.8254L18.1983 39.6269C18.228 39.5097 18.2866 39.4019 18.3689 39.3133L49.2441 8.43598C49.3203 8.35022 49.418 8.28639 49.5272 8.25114C49.6363 8.21588 49.7529 8.21048 49.8649 8.23548C49.9768 8.26049 50.0801 8.31499 50.1639 8.39335C50.2476 8.4717 50.3089 8.57104 50.3414 8.68107L50.3398 8.68149Z" fill="white"/>
<path d="M27.8126 72.3178L27.7986 72.3215C27.7898 72.3298 27.7799 72.3369 27.7693 72.3427L27.7466 72.3571C27.733 72.3665 27.7183 72.3744 27.7029 72.3804C27.6931 72.3848 27.6826 72.3876 27.6719 72.3888L27.6206 72.4025C27.4928 72.4562 27.3516 72.469 27.2162 72.4393C27.1062 72.4003 27.0069 72.3359 26.9264 72.2514C26.846 72.1669 26.7866 72.0645 26.753 71.9527L19.2542 43.9666L19.9838 44.1621L27.4864 72.1622C27.528 72.3175 27.6269 72.3825 27.7372 72.353C27.7527 72.3511 27.7678 72.3471 27.7822 72.3409L27.7899 72.3388C27.7983 72.3327 27.8059 72.3256 27.8126 72.3178Z" fill="#F0F0F0"/>
<path opacity="0.1" d="M18.9173 39.8254C18.8837 39.9416 18.8806 40.0645 18.9081 40.1823L19.9751 44.1644L19.2455 43.9688L18.1789 39.9883C18.1745 39.9751 18.1709 39.9616 18.1681 39.948C18.1637 39.9189 18.1608 39.8897 18.1596 39.8604C18.1584 39.7826 18.1678 39.7051 18.1877 39.6299L18.9173 39.8254Z" fill="black"/>
<path d="M50.3541 8.73604L50.8354 10.5322L28.204 33.1656C28.048 33.3222 27.8741 33.2757 27.8167 33.0614L27.6345 32.3814C27.5771 32.1672 27.3986 32.1219 27.2456 32.2777L20.3522 39.1714C20.2711 39.2615 20.2124 39.3696 20.1811 39.4867C20.1497 39.6039 20.1465 39.7268 20.1717 39.8454L20.3539 40.5254C20.3788 40.6436 20.3755 40.766 20.3443 40.8827C20.3132 40.9995 20.255 41.1073 20.1746 41.1974L19.3862 41.981L18.9049 40.1848C18.8801 40.0666 18.8834 39.9442 18.9146 39.8275C18.9457 39.7107 19.0039 39.603 19.0843 39.5128L49.9715 8.63058C50.1275 8.47396 50.2967 8.5218 50.3541 8.73604Z" fill="#407BFF"/>
<path d="M58.9249 40.7195C58.9499 40.838 58.9465 40.9606 58.915 41.0774C58.8836 41.1943 58.825 41.3021 58.744 41.392L27.8693 72.2709C27.7132 72.4275 27.5393 72.3809 27.4819 72.1667L19.3928 41.9775L20.1812 41.1939C20.3372 41.0373 20.2016 39.3265 20.3592 39.1695L27.1372 32.3915C27.2948 32.2345 28.0519 33.3211 28.211 33.1637L50.8362 10.532L58.9249 40.7195Z" fill="#FAFAFA"/>
<path d="M50.8362 10.532L51.4219 12.7178L19.9785 44.1634L19.3928 41.9775L19.9771 41.395C20.1332 41.2384 20.1516 41.0587 20.1565 40.723L20.1725 39.8451C20.1698 39.543 20.2005 39.3285 20.3534 39.1727L27.1314 32.3947C27.289 32.2377 27.4316 32.1862 27.6279 32.3848L28.0549 32.8295C28.2095 32.9844 28.2879 33.0782 28.4471 32.9207L50.8362 10.532Z" fill="#E6E6E6"/>
<path d="M49.0849 10.2825C49.2835 10.0862 49.502 10.1441 49.5744 10.4142C49.6061 10.5632 49.6019 10.7176 49.5624 10.8647C49.5228 11.0118 49.449 11.1475 49.347 11.2605C49.1499 11.4565 48.9313 11.3985 48.859 11.1284C48.8272 10.9796 48.8311 10.8254 48.8704 10.6783C48.9097 10.5313 48.9832 10.3957 49.0849 10.2825Z" fill="white"/>
<path d="M48.2729 12.1495C48.3614 11.8194 48.2788 11.5105 48.0884 11.4595C47.8981 11.4084 47.6721 11.6347 47.5836 11.9648C47.4952 12.2949 47.5778 12.6038 47.7681 12.6548C47.9585 12.7058 48.1845 12.4796 48.2729 12.1495Z" fill="white"/>
<path d="M46.5093 12.8545C46.7079 12.6582 46.9264 12.7161 46.9988 12.9862C47.0304 13.1353 47.0263 13.2896 46.9868 13.4367C46.9472 13.5838 46.8734 13.7195 46.7713 13.8326C46.5742 14.0285 46.3557 13.9706 46.2833 13.7004C46.2516 13.5516 46.2555 13.3974 46.2948 13.2504C46.334 13.1033 46.4075 12.9677 46.5093 12.8545Z" fill="white"/>
<path opacity="0.5" d="M20.9767 41.7229L20.5321 42.1748L20.6303 41.7342C20.6344 41.7175 20.6343 41.7001 20.6298 41.6835C20.6254 41.667 20.6168 41.6518 20.6049 41.6395C20.5844 41.625 20.563 41.6507 20.5534 41.6832L20.4138 42.3047C20.4123 42.312 20.4115 42.3194 20.4114 42.3269L20.4135 42.3347C20.4152 42.3442 20.4177 42.3535 20.421 42.3626C20.4224 42.3711 20.4246 42.3794 20.4277 42.3875C20.4306 42.3917 20.4343 42.3952 20.4387 42.3978L20.785 42.5413C20.7899 42.5433 20.7952 42.5436 20.8002 42.5422C20.8053 42.5409 20.8097 42.5379 20.813 42.5338C20.8244 42.52 20.8315 42.503 20.8332 42.4851C20.8392 42.4453 20.8268 42.4053 20.8091 42.3951L20.5657 42.2939L21.0103 41.842C21.0208 41.8276 21.0278 41.811 21.0309 41.7934C21.034 41.7759 21.033 41.7579 21.0281 41.7407C21.0199 41.7163 20.9963 41.7027 20.9767 41.7229Z" fill="#455A64"/>
<path opacity="0.5" d="M21.3489 41.3503L21.7935 40.8984L21.5501 40.7972C21.5293 40.7878 21.5169 40.7479 21.5259 40.7072C21.535 40.6665 21.5533 40.6416 21.5741 40.651L21.9204 40.7945C21.9223 40.7984 21.9234 40.8026 21.9237 40.8069C21.9268 40.8149 21.929 40.8233 21.9304 40.8317C21.9336 40.8408 21.9361 40.8502 21.9379 40.8597C21.9379 40.8597 21.9379 40.8597 21.94 40.8675C21.9424 40.874 21.9442 40.8808 21.9454 40.8876L21.8058 41.5157C21.8035 41.5307 21.7968 41.5446 21.7866 41.5558C21.7834 41.5608 21.7784 41.5644 21.7727 41.5659C21.767 41.5674 21.7609 41.5668 21.7556 41.5641C21.7437 41.5518 21.7351 41.5366 21.7307 41.5201C21.7262 41.5035 21.7261 41.4861 21.7302 41.4694L21.8284 41.0288L21.3838 41.4807C21.3643 41.5009 21.3419 41.4919 21.3311 41.4516C21.3261 41.4345 21.3252 41.4164 21.3283 41.3989C21.3314 41.3813 21.3384 41.3647 21.3489 41.3503Z" fill="#455A64"/>
<path opacity="0.5" d="M22.673 39.3664C22.6647 39.3354 22.6345 39.3468 22.628 39.3785L22.6021 39.5735C22.4761 39.5939 22.3591 39.7534 22.3156 39.9947C22.2592 40.306 22.347 40.6335 22.5111 40.7243C22.5506 40.7451 22.5961 40.7516 22.6398 40.7426C22.6835 40.7336 22.7227 40.7097 22.7508 40.6751C22.838 40.5767 22.8939 40.4545 22.9114 40.3242C22.9163 40.3079 22.9166 40.2906 22.9122 40.2741C22.9077 40.2576 22.8988 40.2427 22.8864 40.2311C22.8652 40.2201 22.843 40.2427 22.835 40.2815C22.7941 40.5137 22.6592 40.6497 22.536 40.5812C22.4128 40.5127 22.349 40.2686 22.39 40.0363C22.4182 39.8623 22.4979 39.7561 22.5836 39.7282L22.5651 39.8762C22.5587 39.9146 22.5829 39.943 22.599 39.9221L22.7773 39.7245C22.7836 39.715 22.7876 39.7041 22.7889 39.6928C22.7902 39.6815 22.7888 39.67 22.7848 39.6593L22.673 39.3664Z" fill="#455A64"/>
<path opacity="0.5" d="M27.1664 33.4535L27.2495 32.9937C27.2553 32.9716 27.2552 32.9484 27.2493 32.9263C27.2434 32.9043 27.2319 32.8842 27.2158 32.8679C27.1867 32.8524 27.1553 32.8841 27.146 32.9365L27.0629 33.3964L26.8205 33.2617C26.7914 33.2462 26.7615 33.2775 26.7511 33.3319C26.7446 33.3542 26.7443 33.3778 26.7504 33.4003C26.7564 33.4227 26.7684 33.4431 26.7852 33.4592L27.0272 33.5923L26.9437 34.0507C26.9372 34.073 26.9369 34.0966 26.943 34.1191C26.949 34.1415 26.961 34.1619 26.9778 34.178C26.9851 34.181 26.9931 34.1816 27.0007 34.1795C27.0083 34.1775 27.015 34.173 27.0197 34.1667C27.0343 34.149 27.0435 34.1275 27.0464 34.1047L27.1299 33.6464L27.3719 33.7795C27.3789 33.7825 27.3866 33.7831 27.394 33.7811C27.4013 33.7791 27.4077 33.7748 27.4123 33.7687C27.4275 33.7516 27.4375 33.7305 27.4409 33.7078C27.4465 33.6854 27.4464 33.662 27.4404 33.6397C27.4344 33.6174 27.4229 33.597 27.4068 33.5805L27.1664 33.4535Z" fill="#455A64"/>
<path d="M23.5077 39.6804L23.3255 39.0004C23.3008 38.8822 23.3042 38.7598 23.3353 38.6431C23.3665 38.5264 23.4245 38.4186 23.5049 38.3284L49.0588 12.7854C49.2149 12.6288 49.3888 12.6754 49.4462 12.8896L49.6284 13.5696C49.6532 13.6878 49.6499 13.8102 49.6187 13.927C49.5876 14.0437 49.5295 14.1515 49.449 14.2416L23.8981 39.7838C23.739 39.9412 23.5651 39.8946 23.5077 39.6804Z" fill="#FAFAFA"/>
<path d="M49.0049 14.4172C48.9956 14.4216 48.9856 14.4243 48.9754 14.4251C48.9544 14.4215 48.9354 14.4109 48.9212 14.3951C48.907 14.3792 48.8985 14.3591 48.8971 14.3379L48.8557 14.0529L48.7018 13.9942C48.6878 13.9885 48.6753 13.9795 48.6656 13.9679C48.6558 13.9563 48.649 13.9425 48.6458 13.9277C48.6402 13.9053 48.6395 13.882 48.6438 13.8593C48.648 13.8367 48.6571 13.8152 48.6704 13.7963L48.826 13.5882C48.8287 13.5828 48.8299 13.5767 48.8296 13.5706L48.8403 13.2566C48.8399 13.2316 48.8467 13.207 48.8599 13.1858C48.8731 13.1646 48.8921 13.1476 48.9147 13.1369C48.9305 13.1312 48.9477 13.1306 48.9639 13.1352C48.9801 13.1399 48.9944 13.1494 49.0048 13.1626L49.1209 13.2979L49.27 13.1897C49.2835 13.1792 49.3 13.1731 49.3171 13.1724C49.3342 13.1717 49.3511 13.1764 49.3654 13.1858C49.3841 13.2026 49.3974 13.2245 49.4039 13.2487C49.4104 13.2729 49.4098 13.2985 49.402 13.3224L49.335 13.6249C49.3371 13.6327 49.3392 13.6404 49.3396 13.642L49.4371 13.8754C49.445 13.8969 49.4483 13.9198 49.4466 13.9426C49.445 13.9654 49.4385 13.9876 49.4276 14.0078C49.4209 14.0212 49.4111 14.0329 49.3991 14.0419C49.3871 14.0509 49.3731 14.057 49.3583 14.0596L49.1977 14.081L49.0833 14.3496C49.0773 14.3668 49.067 14.3821 49.0532 14.394C49.0394 14.4059 49.0227 14.4139 49.0049 14.4172ZM48.76 13.8821L48.9138 13.9408C48.9302 13.9484 48.9442 13.9601 48.9546 13.9749C48.965 13.9896 48.9713 14.0068 48.9729 14.0248L48.9941 14.2154L49.0689 14.029C49.0749 14.0122 49.0851 13.9971 49.0986 13.9854C49.112 13.9736 49.1283 13.9655 49.1457 13.9618L49.3064 13.9404C49.3057 13.9345 49.3042 13.9288 49.3018 13.9233L49.2024 13.6887C49.1914 13.6595 49.1893 13.6277 49.1961 13.5972L49.2591 13.3291L49.1435 13.4133C49.1265 13.4262 49.105 13.432 49.0837 13.4293C49.0625 13.4266 49.0431 13.4156 49.0298 13.3989L48.9395 13.2916L48.9294 13.5705C48.9283 13.6013 48.9184 13.6311 48.9008 13.6564L48.7453 13.8645C48.7463 13.8683 48.7481 13.8719 48.7507 13.8749C48.7532 13.878 48.7564 13.8804 48.76 13.8821Z" fill="#E0E0E0"/>
<g opacity="0.5">
<path d="M49.7675 12.5074C49.7431 12.5127 49.7175 12.5103 49.6945 12.5004C49.6714 12.4906 49.652 12.4738 49.6389 12.4524C49.6259 12.431 49.6198 12.406 49.6216 12.381C49.6234 12.356 49.6329 12.3322 49.6489 12.3129L50.4479 11.5131C50.4705 11.4905 50.5012 11.4778 50.5332 11.4778C50.5652 11.4778 50.5959 11.4905 50.6185 11.5131C50.6411 11.5358 50.6538 11.5664 50.6538 11.5984C50.6538 11.6304 50.641 11.6611 50.6184 11.6837L49.8194 12.4835C49.8043 12.4955 49.7865 12.5037 49.7675 12.5074Z" fill="#455A64"/>
<path d="M49.914 13.0537C49.8883 13.0604 49.8612 13.0585 49.8368 13.0482C49.8124 13.038 49.792 13.02 49.7788 12.997C49.7657 12.974 49.7604 12.9473 49.7639 12.9211C49.7675 12.8948 49.7795 12.8704 49.7983 12.8517L50.599 12.0581C50.6102 12.047 50.6235 12.0381 50.6381 12.032C50.6527 12.026 50.6684 12.0228 50.6843 12.0228C50.7001 12.0229 50.7158 12.026 50.7304 12.032C50.7451 12.0381 50.7583 12.047 50.7695 12.0582C50.7807 12.0694 50.7896 12.0827 50.7957 12.0973C50.8017 12.112 50.8048 12.1277 50.8048 12.1435C50.8048 12.1593 50.8017 12.175 50.7956 12.1896C50.7896 12.2043 50.7807 12.2176 50.7695 12.2288L49.9705 13.0286C49.9538 13.0411 49.9345 13.0497 49.914 13.0537Z" fill="#455A64"/>
<path d="M50.0605 13.6002C50.0348 13.6081 50.0071 13.6071 49.982 13.5974C49.9569 13.5878 49.9357 13.57 49.9218 13.5469C49.908 13.5238 49.9023 13.4967 49.9056 13.47C49.9089 13.4433 49.9211 13.4185 49.9402 13.3995L50.7392 12.5997C50.7617 12.5783 50.7915 12.5664 50.8225 12.5665C50.8535 12.5665 50.8833 12.5785 50.9057 12.6C50.9266 12.6228 50.9381 12.6528 50.9377 12.6838C50.9374 12.7148 50.9253 12.7445 50.9038 12.7669L50.1048 13.5667C50.0925 13.5807 50.0774 13.5921 50.0605 13.6002Z" fill="#455A64"/>
</g>
<path d="M19.3919 41.9779L19.9776 44.1638L19.248 43.9682L18.6627 41.7839L19.3919 41.9779Z" fill="#E0E0E0"/>
<path d="M23.0846 49.3678L28.912 43.5384C29.0681 43.3818 29.242 43.4284 29.2994 43.6426L34.5549 63.2564C34.5797 63.3746 34.5764 63.497 34.5452 63.6138C34.5141 63.7305 34.456 63.8383 34.3755 63.9284L28.5461 69.7567C28.39 69.9133 28.2162 69.8667 28.1587 69.6525L22.9037 50.0403C22.8787 49.9219 22.8821 49.7992 22.9135 49.6824C22.945 49.5655 23.0036 49.4577 23.0846 49.3678Z" fill="#F0F0F0"/>
<path d="M24.5405 49.7583L28.2416 46.0594C28.3992 45.9023 28.5702 45.938 28.6243 46.1399C28.645 46.2543 28.6387 46.3721 28.606 46.4837C28.5732 46.5953 28.5148 46.6977 28.4355 46.7828L24.7356 50.4864C24.578 50.6434 24.407 50.6077 24.3529 50.4059C24.3311 50.2908 24.3368 50.1722 24.3693 50.0597C24.4019 49.9472 24.4606 49.8439 24.5405 49.7583Z" fill="#E0E0E0"/>
<path d="M24.7082 51.7317L24.7785 51.9941C24.813 52.1229 24.9168 52.15 25.0115 52.0564L25.2043 51.8633C25.2527 51.8093 25.2877 51.7446 25.3065 51.6745C25.3253 51.6045 25.3274 51.531 25.3126 51.4599L25.2423 51.1976C25.2077 51.0687 25.1024 51.042 25.0092 51.1352L24.8164 51.3283C24.7678 51.3822 24.7326 51.4469 24.7138 51.517C24.695 51.5871 24.6931 51.6607 24.7082 51.7317Z" fill="#FAFAFA"/>
<path d="M25.8096 50.7959C25.8637 50.9977 26.0393 51.0322 26.1907 50.8768L28.8143 48.2487C28.8944 48.1628 28.9531 48.0593 28.9856 47.9465C29.0181 47.8337 29.0235 47.7148 29.0014 47.5995C28.9478 47.3992 28.7722 47.3648 28.6192 47.5206L25.9956 50.1487C25.9161 50.2345 25.8579 50.3378 25.8256 50.4502C25.7933 50.5626 25.7878 50.681 25.8096 50.7959Z" fill="#E0E0E0"/>
<path d="M25.0988 53.1892L25.1691 53.4516C25.2036 53.5804 25.3074 53.6076 25.4021 53.514L25.595 53.3208C25.6434 53.2668 25.6784 53.2021 25.6972 53.132C25.716 53.062 25.718 52.9885 25.7032 52.9175L25.6329 52.6551C25.5984 52.5262 25.493 52.4996 25.3999 52.5927L25.207 52.7858C25.1584 52.8398 25.1233 52.9044 25.1044 52.9745C25.0856 53.0447 25.0837 53.1182 25.0988 53.1892Z" fill="#FAFAFA"/>
<path d="M26.2002 52.2537C26.2543 52.4555 26.4299 52.49 26.5813 52.3346L29.2049 49.7064C29.285 49.6206 29.3437 49.5171 29.3762 49.4043C29.4087 49.2914 29.4142 49.1726 29.3921 49.0573C29.3384 48.857 29.1628 48.8225 29.0098 48.9783L26.3862 51.6065C26.3067 51.6923 26.2485 51.7955 26.2162 51.9079C26.1839 52.0203 26.1784 52.1388 26.2002 52.2537Z" fill="#E0E0E0"/>
<path d="M25.4886 54.6439L25.5589 54.9063C25.5934 55.0351 25.6976 55.0638 25.7919 54.9686L25.9852 54.7771C26.0333 54.7229 26.0682 54.6582 26.087 54.5882C26.1058 54.5182 26.108 54.4447 26.0934 54.3737L26.0231 54.1113C25.9886 53.9825 25.8828 53.9542 25.7901 54.049L25.5968 54.2405C25.5483 54.2945 25.5132 54.3592 25.4944 54.4293C25.4756 54.4994 25.4736 54.5729 25.4886 54.6439Z" fill="#FAFAFA"/>
<path d="M26.5904 53.7098C26.6441 53.91 26.8197 53.9445 26.9711 53.7891L29.5947 51.161C29.6746 51.0753 29.7332 50.9721 29.7658 50.8596C29.7984 50.7471 29.804 50.6285 29.7822 50.5134C29.7282 50.3115 29.5525 50.2771 29.3996 50.4329L26.776 53.061C26.6963 53.147 26.638 53.2506 26.6058 53.3633C26.5736 53.4759 26.5683 53.5946 26.5904 53.7098Z" fill="#E0E0E0"/>
<path d="M25.8783 56.0985L25.9486 56.3609C25.9832 56.4897 26.0874 56.5184 26.1817 56.4232L26.3749 56.2317C26.4231 56.1775 26.458 56.1128 26.4768 56.0428C26.4955 55.9728 26.4977 55.8993 26.4832 55.8283L26.4129 55.5659C26.3783 55.4371 26.2726 55.4088 26.1798 55.5036L25.9866 55.6951C25.9381 55.7491 25.903 55.8138 25.8842 55.8839C25.8654 55.954 25.8634 56.0275 25.8783 56.0985Z" fill="#FAFAFA"/>
<path d="M26.9789 55.1597C27.0326 55.36 27.2082 55.3944 27.3596 55.2391L29.9832 52.6109C30.0632 52.5253 30.1218 52.422 30.1544 52.3095C30.187 52.197 30.1926 52.0784 30.1708 51.9633C30.1167 51.7615 29.9411 51.727 29.7882 51.8828L27.1645 54.511C27.0849 54.597 27.0266 54.7005 26.9944 54.8132C26.9621 54.9259 26.9568 55.0446 26.9789 55.1597Z" fill="#E0E0E0"/>
<path d="M26.6632 57.7885L30.3573 54.0881C30.5149 53.9311 30.6859 53.9668 30.7399 54.1686C30.7617 54.2837 30.7561 54.4023 30.7235 54.5148C30.6909 54.6273 30.6323 54.7306 30.5524 54.8162L26.8591 58.5197C26.7015 58.6767 26.5306 58.641 26.4765 58.4392C26.4541 58.3237 26.4593 58.2045 26.4918 58.0914C26.5242 57.9783 26.583 57.8745 26.6632 57.7885Z" fill="#E0E0E0"/>
<path d="M27.932 58.8279C27.9861 59.0297 28.1617 59.0642 28.3146 58.9084L30.9379 56.2787C31.0178 56.1931 31.0764 56.0898 31.109 55.9773C31.1416 55.8648 31.1472 55.7462 31.1254 55.6311C31.0713 55.4293 30.8957 55.3948 30.7428 55.5506L28.1196 58.1803C28.0396 58.2659 27.981 58.3692 27.9484 58.4817C27.9158 58.5942 27.9102 58.7128 27.932 58.8279Z" fill="#E0E0E0"/>
<path d="M44.9163 36.3366L45.0128 36.6968C45.0702 36.911 45.2488 36.9564 45.3997 36.7994L52.818 29.3308C52.8982 29.2402 52.9562 29.1321 52.9873 29.0152C53.0183 28.8982 53.0216 28.7757 52.9969 28.6572L52.9137 28.3467C52.8563 28.1325 52.6777 28.0871 52.5248 28.2429L45.0906 35.6643C45.011 35.7549 44.9538 35.863 44.9235 35.9797C44.8932 36.0965 44.8908 36.2187 44.9163 36.3366Z" fill="#E0E0E0"/>
<path d="M45.6763 37.8501L54.1708 29.3559C54.3269 29.1993 54.4979 29.235 54.5519 29.4368C54.5737 29.5517 54.5683 29.6701 54.536 29.7825C54.5037 29.8949 54.4454 29.9982 54.3659 30.084L45.8714 38.5782C45.7153 38.7348 45.5444 38.6991 45.4907 38.4988C45.4686 38.3837 45.4739 38.265 45.5061 38.1523C45.5384 38.0396 45.5966 37.9361 45.6763 37.8501Z" fill="#EBEBEB"/>
<path d="M46.0665 39.3062L54.5611 30.812C54.7171 30.6554 54.8881 30.6911 54.9417 30.8913C54.9638 31.0065 54.9586 31.1251 54.9263 31.2378C54.8941 31.3505 54.8358 31.4541 54.7561 31.5401L46.2616 40.0343C46.1056 40.1909 45.9346 40.1552 45.8805 39.9533C45.8587 39.8384 45.8642 39.72 45.8965 39.6076C45.9288 39.4952 45.987 39.392 46.0665 39.3062Z" fill="#EBEBEB"/>
<path d="M46.4563 40.7609L54.9508 32.2668C55.1069 32.1101 55.2778 32.1459 55.3319 32.3477C55.3537 32.4626 55.3482 32.581 55.3159 32.6934C55.2836 32.8058 55.2254 32.9091 55.1459 32.9949L46.6514 41.489C46.4953 41.6457 46.3243 41.6099 46.2707 41.4097C46.2486 41.2946 46.2538 41.1759 46.2861 41.0632C46.3183 40.9505 46.3766 40.847 46.4563 40.7609Z" fill="#EBEBEB"/>
<path d="M46.8465 42.2173L55.341 33.7231C55.4971 33.5665 55.668 33.6022 55.7217 33.8025C55.7438 33.9176 55.7385 34.0363 55.7063 34.149C55.674 34.2617 55.6158 34.3652 55.5361 34.4512L47.0416 42.9454C46.8855 43.102 46.7146 43.0663 46.6605 42.8645C46.6387 42.7496 46.6441 42.6312 46.6765 42.5187C46.7088 42.4063 46.767 42.3031 46.8465 42.2173Z" fill="#EBEBEB"/>
<path d="M47.2362 43.6718L55.7308 35.1777C55.8868 35.021 56.0578 35.0567 56.1119 35.2586C56.1337 35.3735 56.1282 35.4919 56.0959 35.6043C56.0636 35.7167 56.0054 35.82 55.9259 35.9058L47.4313 44.3999C47.2753 44.5566 47.1043 44.5208 47.0506 44.3206C47.0285 44.2055 47.0338 44.0868 47.0661 43.9741C47.0983 43.8614 47.1566 43.7578 47.2362 43.6718Z" fill="#EBEBEB"/>
<path d="M47.6281 45.1343L56.1226 36.6401C56.2787 36.4835 56.4497 36.5192 56.5033 36.7195C56.5254 36.8346 56.5201 36.9533 56.4879 37.066C56.4557 37.1787 56.3974 37.2822 56.3177 37.3682L47.8215 45.8562C47.6655 46.0128 47.4945 45.9771 47.4404 45.7753C47.4199 45.6612 47.4261 45.5439 47.4587 45.4326C47.4912 45.3214 47.5492 45.2193 47.6281 45.1343Z" fill="#EBEBEB"/>
<path d="M48.0162 46.5826L56.5171 38.0934C56.6731 37.9368 56.8441 37.9725 56.8981 38.1743C56.92 38.2894 56.9146 38.4081 56.8824 38.5207C56.8501 38.6334 56.792 38.7369 56.7126 38.8231L48.2104 47.3076C48.0544 47.4642 47.8834 47.4285 47.8298 47.2282C47.8083 47.1136 47.8139 46.9954 47.8463 46.8833C47.8787 46.7712 47.9369 46.6682 48.0162 46.5826Z" fill="#EBEBEB"/>
<path d="M48.4064 48.039L56.9009 39.5448C57.057 39.3882 57.228 39.4239 57.282 39.6258C57.3038 39.7407 57.2984 39.8591 57.2661 39.9715C57.2338 40.0839 57.1755 40.1871 57.096 40.2729L48.6015 48.7671C48.4454 48.9237 48.2745 48.888 48.2204 48.6862C48.1986 48.5713 48.2041 48.4529 48.2364 48.3405C48.2687 48.2281 48.3269 48.1248 48.4064 48.039Z" fill="#EBEBEB"/>
<path d="M32.302 48.4587L43.4555 37.3003C43.6115 37.1437 43.7854 37.1903 43.8428 37.4045L47.342 50.4638C47.3668 50.582 47.3635 50.7044 47.3324 50.8212C47.3012 50.9379 47.2431 51.0457 47.1627 51.1358L36.0092 62.2942C35.8532 62.4509 35.6793 62.4043 35.6219 62.19L32.1227 49.1307C32.0979 49.0125 32.1012 48.8901 32.1323 48.7734C32.1635 48.6566 32.2216 48.5489 32.302 48.4587Z" fill="#F0F0F0"/>
<path d="M42.0965 45.6049L40.9378 50.0985L43.0289 51.6929L36.7232 48.652L34.8703 59.3916L35.6191 62.186C35.6765 62.4003 35.855 62.4456 36.0064 62.2902L47.1599 51.1318C47.2403 51.0417 47.2984 50.9339 47.3296 50.8171C47.3607 50.7004 47.364 50.578 47.3392 50.4598L46.6736 47.9758L42.0965 45.6049Z" fill="#E0E0E0"/>
<path d="M41.5507 41.4383C42.0171 40.9805 42.5285 41.1131 42.6982 41.7465C42.7721 42.0963 42.7624 42.4587 42.67 42.8041C42.5775 43.1495 42.4048 43.4683 42.1659 43.7344C41.6995 44.1921 41.1886 44.0611 41.0188 43.4277C40.9449 43.0777 40.9545 42.7151 41.0469 42.3694C41.1393 42.0237 41.3119 41.7047 41.5507 41.4383Z" fill="#E0E0E0"/>
<path d="M21.717 44.2701L50.4681 15.5193C50.6241 15.3627 50.798 15.4093 50.8554 15.6235L51.8188 19.219C51.8438 19.3374 51.8404 19.46 51.8089 19.5769C51.7775 19.6937 51.7189 19.8015 51.6379 19.8914L22.8875 48.6387C22.7319 48.7969 22.558 48.7503 22.5002 48.5345L21.5376 44.9421C21.5128 44.8239 21.5161 44.7015 21.5473 44.5847C21.5784 44.468 21.6365 44.3602 21.717 44.2701Z" fill="#E0E0E0"/>
<path d="M40.5925 27.7679L40.7589 28.3889C40.793 28.5162 40.8988 28.5444 40.9919 28.4512L49.35 20.0935L49.0588 19.0067L40.7038 27.3637C40.6549 27.4176 40.6193 27.4823 40.6 27.5525C40.5806 27.6227 40.5781 27.6965 40.5925 27.7679Z" fill="#FAFAFA"/>
<path d="M49.9547 18.1111C50.0494 18.0175 50.1532 18.0446 50.1877 18.1735L50.3541 18.7944C50.3688 18.8655 50.3667 18.9389 50.3479 19.009C50.3291 19.079 50.2941 19.1437 50.2459 19.1978L49.3494 20.0936L49.0582 19.0069L49.9547 18.1111Z" fill="#EBEBEB"/>
<path d="M50.1067 18.9906L49.9791 18.9865C49.978 18.9324 49.9703 18.8786 49.9562 18.8263C49.949 18.7769 49.9291 18.7303 49.8984 18.691C49.8677 18.6517 49.8274 18.621 49.7813 18.6019C49.751 18.5935 49.7191 18.5933 49.6888 18.6015C49.6585 18.6096 49.6309 18.6257 49.6089 18.6481C49.5495 18.7262 49.5092 18.8171 49.4911 18.9135C49.4731 19.0099 49.4777 19.1092 49.5048 19.2035C49.5123 19.2527 49.5324 19.2992 49.563 19.3385C49.5936 19.3778 49.6338 19.4085 49.6798 19.4278C49.7065 19.4342 49.7344 19.4336 49.7608 19.4261C49.7946 19.4162 49.8252 19.3977 49.8496 19.3723C49.9231 19.2868 49.9663 19.1792 49.9723 19.0666L50.0999 19.0707L50.1138 19.0669C50.1231 19.0642 50.1314 19.0587 50.1374 19.0511C50.1434 19.0436 50.1469 19.0343 50.1474 19.0246C50.1447 19.0156 50.1394 19.0076 50.1322 19.0015C50.1249 18.9955 50.1161 18.9917 50.1067 18.9906ZM49.7886 19.3188C49.7793 19.3311 49.7668 19.3405 49.7524 19.3461C49.7381 19.3518 49.7225 19.3533 49.7073 19.3506C49.6771 19.3349 49.6511 19.3123 49.6315 19.2845C49.6119 19.2568 49.5993 19.2247 49.5947 19.1911C49.5723 19.112 49.5679 19.029 49.5819 18.948C49.596 18.8671 49.628 18.7903 49.6757 18.7234C49.689 18.7092 49.7055 18.6985 49.7239 18.6922C49.7354 18.689 49.7476 18.6892 49.759 18.6928C49.7888 18.7088 49.8143 18.7317 49.8336 18.7595C49.8529 18.7873 49.8654 18.8192 49.8701 18.8527C49.8923 18.9317 49.8963 19.0147 49.8819 19.0954C49.8676 19.1762 49.8351 19.2527 49.7871 19.3192L49.7886 19.3188Z" fill="#FAFAFA"/>
<path d="M30.3664 42.5765L31.5245 46.8985C31.5819 47.1128 31.7605 47.1581 31.9118 47.0027L53.1998 25.7144C53.2802 25.6242 53.3383 25.5164 53.3695 25.3997C53.4006 25.283 53.4039 25.1606 53.3791 25.0423L52.2214 20.7219C52.164 20.5076 51.9855 20.4623 51.8341 20.6176L30.5458 41.9045C30.4653 41.9946 30.4072 42.1024 30.3761 42.2191C30.3449 42.3358 30.3416 42.4583 30.3664 42.5765Z" fill="#EBEBEB"/>
<path d="M35.9586 74.7975C35.8486 74.7584 35.7494 74.694 35.6689 74.6094C35.5885 74.5249 35.529 74.4227 35.4954 74.3109L26.9262 42.3302C26.9015 42.212 26.9049 42.0896 26.936 41.9729C26.9672 41.8562 27.0252 41.7484 27.1055 41.6582L57.981 10.7758C58.062 10.6887 58.1652 10.6253 58.2795 10.5924C58.3938 10.5595 58.5149 10.5585 58.6298 10.5893C58.7446 10.6201 58.8489 10.6817 58.9314 10.7673C59.0139 10.853 59.0715 10.9596 59.098 11.0755L67.6672 43.0562C67.692 43.1744 67.6887 43.2968 67.6575 43.4136C67.6264 43.5303 67.5682 43.6381 67.4878 43.7282L36.6061 74.6123C36.5204 74.692 36.4171 74.7504 36.3045 74.7825C36.192 74.8147 36.0734 74.8198 35.9586 74.7975Z" fill="#407BFF"/>
<path d="M59.0804 11.0203C59.0105 10.8527 58.8521 10.8269 58.7107 10.9696L27.8282 41.8506C27.7465 41.9401 27.688 42.0483 27.658 42.1657L26.93 41.9698C26.9596 41.8526 27.0182 41.7448 27.1005 41.6562L57.983 10.7752C58.0592 10.6894 58.157 10.6256 58.2661 10.5904C58.3753 10.5551 58.4919 10.5497 58.6039 10.5747C58.7158 10.5997 58.819 10.6542 58.9028 10.7326C58.9866 10.8109 59.0479 10.9103 59.0804 11.0203Z" fill="#455A64"/>
<path d="M36.55 74.6573L36.536 74.661C36.5272 74.6693 36.5173 74.6764 36.5067 74.6822L36.484 74.6966C36.4704 74.7061 36.4557 74.7139 36.4403 74.7199C36.4304 74.7243 36.42 74.7271 36.4092 74.7283L36.3601 74.7498C36.2323 74.8035 36.091 74.8163 35.9556 74.7866C35.8456 74.7476 35.7464 74.6832 35.6659 74.5987C35.5854 74.5141 35.526 74.4118 35.4925 74.3L27.9919 46.3076L28.7216 46.5031L36.2246 74.5049C36.2662 74.6601 36.3651 74.7251 36.4754 74.6956C36.4909 74.6938 36.506 74.6897 36.5204 74.6835C36.5315 74.6763 36.5415 74.6674 36.55 74.6573Z" fill="#F0F0F0"/>
<path d="M27.6574 42.1657C27.6239 42.282 27.6207 42.4048 27.6482 42.5226L28.7152 46.5047L27.9856 46.3092L26.919 42.3287C26.9146 42.3154 26.911 42.3019 26.9082 42.2883C26.9038 42.2593 26.901 42.23 26.8997 42.2007C26.8985 42.123 26.908 42.0454 26.9278 41.9702L27.6574 42.1657Z" fill="#263238"/>
<path d="M59.0977 11.0737L59.579 12.8699L36.9418 35.5065C36.7858 35.6632 36.6119 35.6166 36.5545 35.4023L36.3723 34.7224C36.3149 34.5081 36.1363 34.4628 35.9834 34.6186L29.09 41.5123C29.009 41.6022 28.9504 41.71 28.919 41.8269C28.8876 41.9437 28.8842 42.0663 28.9091 42.1848L29.0913 42.8647C29.1161 42.983 29.1128 43.1054 29.0817 43.2221C29.0505 43.3388 28.9924 43.4466 28.912 43.5368L28.1236 44.3204L27.6423 42.5242C27.6175 42.406 27.6208 42.2836 27.6519 42.1668C27.6831 42.0501 27.7412 41.9423 27.8216 41.8522L58.7104 10.9695C58.8664 10.8129 59.0403 10.8595 59.0977 11.0737Z" fill="#37474F"/>
<path d="M67.6697 43.0586C67.6946 43.177 67.6912 43.2996 67.6598 43.4165C67.6284 43.5334 67.5698 43.6411 67.4888 43.7311L36.6058 74.6105C36.4498 74.7671 36.2759 74.7205 36.2185 74.5063L28.1298 44.3187L28.9182 43.5351C29.0742 43.3784 28.9386 41.6677 29.0962 41.5106L35.8742 34.7326C36.0318 34.5756 36.7889 35.6623 36.948 35.5048L59.5852 12.8682L67.6743 43.0574L67.6697 43.0586Z" fill="#FAFAFA"/>
<path d="M59.579 12.8699L60.1647 15.0558L28.7155 46.5046L28.1298 44.3187L28.7133 43.7331C28.8693 43.5764 28.8878 43.3968 28.8926 43.061L28.9091 42.1847C28.9079 41.8822 28.937 41.6681 29.09 41.5123L35.868 34.7343C36.0256 34.5773 36.1682 34.5258 36.3723 34.7223L36.8008 35.1666C36.9535 35.3203 37.0334 35.4137 37.191 35.2567L59.579 12.8699Z" fill="#E6E6E6"/>
<path d="M58.2988 13.2027C58.3873 12.8726 58.3047 12.5637 58.1144 12.5127C57.924 12.4617 57.698 12.6879 57.6096 13.018C57.5211 13.3481 57.6037 13.6571 57.794 13.7081C57.9844 13.7591 58.2104 13.5328 58.2988 13.2027Z" fill="white"/>
<path d="M56.5362 13.9083C56.7333 13.7124 56.9518 13.7703 57.0242 14.0404C57.0566 14.1897 57.0531 14.3445 57.0139 14.4921C56.9748 14.6397 56.9012 14.7759 56.7991 14.8895C56.6005 15.0858 56.3819 15.0279 56.3096 14.7577C56.2773 14.6083 56.281 14.4534 56.3205 14.3057C56.3599 14.158 56.4338 14.0218 56.5362 13.9083Z" fill="white"/>
<path d="M55.247 15.1954C55.4437 14.998 55.6622 15.0559 55.7346 15.326C55.7664 15.4748 55.7625 15.6291 55.7232 15.7761C55.6839 15.9231 55.6104 16.0588 55.5087 16.1719C55.3105 16.3698 55.0919 16.3119 55.0196 16.0418C54.9879 15.8927 54.9921 15.7384 55.0316 15.5913C55.0712 15.4442 55.145 15.3085 55.247 15.1954Z" fill="white"/>
<path opacity="0.5" d="M29.713 44.0626L29.2699 44.5142L29.3662 44.0724C29.3706 44.0558 29.3706 44.0382 29.3662 44.0216C29.3617 44.005 29.353 43.9898 29.3408 43.9777C29.3207 43.9648 29.2973 43.9893 29.2882 44.0234L29.1498 44.6495C29.1498 44.6495 29.1531 44.6619 29.1474 44.6718C29.1484 44.6814 29.1509 44.6909 29.1549 44.6997C29.1552 44.7084 29.1574 44.7169 29.1615 44.7246L29.1722 44.7333L29.5169 44.8772C29.5218 44.8787 29.5271 44.8788 29.532 44.8775C29.5369 44.8762 29.5414 44.8735 29.5449 44.8698C29.5567 44.8553 29.5641 44.8377 29.5663 44.8191C29.5722 44.7792 29.5599 44.7393 29.5421 44.7291L29.3003 44.6275L29.7434 44.176C29.7544 44.1617 29.7619 44.1451 29.7652 44.1274C29.7686 44.1098 29.7677 44.0916 29.7627 44.0743C29.7577 44.0557 29.7345 44.0436 29.713 44.0626Z" fill="#455A64"/>
<path opacity="0.5" d="M30.0854 43.6899L30.5301 43.238L30.2882 43.1364C30.2658 43.1274 30.2535 43.0875 30.2641 43.0464C30.2747 43.0053 30.2914 42.9808 30.3134 42.9882L30.6581 43.1321L30.6688 43.1409C30.6726 43.1481 30.6747 43.1561 30.675 43.1642C30.6793 43.1735 30.6819 43.1835 30.6829 43.1937C30.6829 43.1937 30.6867 43.2077 30.6806 43.216L30.5422 43.8421C30.5387 43.8567 30.5322 43.8703 30.523 43.8822C30.5195 43.8873 30.5143 43.891 30.5083 43.8926C30.5023 43.8942 30.4959 43.8936 30.4904 43.8909C30.4782 43.8787 30.4694 43.8636 30.465 43.847C30.4605 43.8303 30.4605 43.8128 30.465 43.7962L30.5613 43.3544L30.1166 43.8064C30.0967 43.825 30.0747 43.8176 30.0635 43.7757C30.0593 43.7453 30.0672 43.7145 30.0854 43.6899Z" fill="#455A64"/>
<path opacity="0.5" d="M31.4101 41.7076C31.4014 41.675 31.3716 41.688 31.3651 41.7197L31.3411 41.9158C31.2131 41.9351 31.0965 42.0961 31.0526 42.3358C30.9963 42.6471 31.084 42.9747 31.2481 43.0655C31.2878 43.0867 31.3337 43.0933 31.3777 43.0842C31.4218 43.0751 31.4613 43.0509 31.4894 43.0158C31.5755 42.9167 31.6313 42.7949 31.65 42.665C31.6541 42.6489 31.654 42.632 31.6497 42.616C31.6454 42.5999 31.6371 42.5852 31.6254 42.5734C31.6038 42.5609 31.582 42.585 31.574 42.6238C31.5316 42.8564 31.3978 42.9905 31.275 42.9235C31.1522 42.8566 31.0865 42.6113 31.1286 42.3771C31.1593 42.2124 31.2354 42.0989 31.3207 42.0694L31.3021 42.2174C31.2973 42.2553 31.32 42.2842 31.338 42.2644L31.5144 42.0657C31.521 42.0563 31.5253 42.0454 31.5268 42.034C31.5284 42.0226 31.5272 42.0109 31.5234 42.0001L31.4101 41.7076Z" fill="#455A64"/>
<path opacity="0.5" d="M35.9042 35.7961L35.9877 35.3378C35.9942 35.3155 35.9945 35.2918 35.9884 35.2694C35.9824 35.2469 35.9704 35.2266 35.9536 35.2105C35.926 35.1946 35.8946 35.2263 35.8842 35.2807L35.8007 35.739L35.5587 35.6058C35.5311 35.5899 35.4997 35.6216 35.4893 35.676C35.4835 35.6981 35.4836 35.7213 35.4895 35.7433C35.4954 35.7654 35.507 35.7855 35.523 35.8018L35.765 35.9349L35.6819 36.3948C35.6761 36.4169 35.6762 36.4401 35.6821 36.4621C35.688 36.4842 35.6996 36.5043 35.7156 36.5205C35.7228 36.5239 35.7309 36.5246 35.7386 36.5226C35.7462 36.5205 35.7529 36.5158 35.7575 36.5093C35.7722 36.4922 35.7816 36.4712 35.7845 36.4488L35.8676 35.9889L36.1101 36.1237C36.1173 36.127 36.1254 36.1277 36.1331 36.1257C36.1407 36.1236 36.1474 36.1189 36.152 36.1124C36.1671 36.0956 36.1766 36.0744 36.179 36.0519C36.1855 36.0296 36.1858 36.0059 36.1798 35.9835C36.1738 35.9611 36.1617 35.9407 36.1449 35.9246L35.9042 35.7961Z" fill="#455A64"/>
<path d="M32.2443 42.0199L32.0621 41.34C32.0372 41.2215 32.0406 41.0989 32.072 40.9821C32.1034 40.8652 32.162 40.7574 32.243 40.6675L57.7946 15.1218C57.9522 14.9648 58.1261 15.0114 58.1835 15.2256L58.3657 15.9056C58.3902 16.024 58.3867 16.1466 58.3553 16.2633C58.3238 16.3801 58.2655 16.4879 58.1848 16.578L32.6332 42.1237C32.4756 42.2808 32.3017 42.2342 32.2443 42.0199Z" fill="#FAFAFA"/>
<path d="M57.743 16.7562C57.7332 16.7606 57.7227 16.7634 57.712 16.7645C57.691 16.7605 57.6719 16.7496 57.6579 16.7334C57.6439 16.7172 57.6358 16.6967 57.6349 16.6753L57.5934 16.3903L57.438 16.3321C57.4244 16.3263 57.4124 16.3174 57.403 16.306C57.3935 16.2946 57.387 16.2812 57.3839 16.2667C57.3779 16.2443 57.3768 16.2208 57.3808 16.1979C57.3847 16.1751 57.3935 16.1533 57.4066 16.1342L57.5622 15.9261C57.5654 15.9206 57.5672 15.9144 57.5674 15.9081L57.5785 15.5956C57.5775 15.5703 57.584 15.5454 57.5972 15.5238C57.6104 15.5022 57.6296 15.485 57.6525 15.4743C57.6684 15.4695 57.6853 15.4694 57.7013 15.4739C57.7173 15.4785 57.7316 15.4876 57.7426 15.5L57.8571 15.6357L58.0077 15.5272C58.0207 15.5161 58.037 15.5097 58.0541 15.509C58.0711 15.5084 58.0879 15.5135 58.1016 15.5236C58.1208 15.5397 58.1345 15.5613 58.141 15.5855C58.1474 15.6096 58.1463 15.6352 58.1378 15.6587L58.067 15.9655C58.0669 15.971 58.0684 15.9764 58.0711 15.9811L58.1706 16.2157C58.1785 16.2371 58.1818 16.26 58.1801 16.2828C58.1785 16.3057 58.172 16.3279 58.1611 16.348C58.154 16.3614 58.1438 16.3729 58.1315 16.3817C58.1191 16.3905 58.1048 16.3963 58.0898 16.3987L57.9292 16.4201L57.811 16.693C57.8054 16.7082 57.7963 16.7217 57.7845 16.7327C57.7727 16.7437 57.7585 16.7517 57.743 16.7562ZM57.4966 16.2215L57.6504 16.2802C57.6673 16.2871 57.6819 16.2985 57.6927 16.3133C57.7034 16.3281 57.7098 16.3455 57.7111 16.3637L57.7384 16.5527L57.8133 16.3663C57.8191 16.3495 57.8294 16.3345 57.8429 16.3229C57.8565 16.3114 57.873 16.3037 57.8905 16.3007L58.0512 16.2793C58.0516 16.2727 58.0498 16.2661 58.0462 16.2606L57.9659 16.0292C57.9535 16.0003 57.9513 15.968 57.9597 15.9377L58.0211 15.67L57.9067 15.7523C57.8898 15.7652 57.8685 15.7711 57.8474 15.7687C57.8263 15.7663 57.8069 15.7558 57.7934 15.7393L57.7011 15.631L57.6925 15.9095C57.691 15.9405 57.6806 15.9705 57.6624 15.9957L57.5068 16.2038C57.5015 16.2084 57.4979 16.2146 57.4966 16.2215Z" fill="#E0E0E0"/>
<g opacity="0.5">
<path d="M58.5052 14.8466C58.4795 14.8537 58.4522 14.8521 58.4276 14.842C58.4029 14.832 58.3823 14.8141 58.3689 14.791C58.3555 14.768 58.3501 14.7412 58.3536 14.7148C58.357 14.6884 58.3691 14.6639 58.388 14.6451L59.189 13.8464C59.2121 13.8275 59.2413 13.8178 59.2711 13.8193C59.3009 13.8207 59.3292 13.8331 59.3503 13.8542C59.3715 13.8752 59.3841 13.9034 59.3857 13.9332C59.3873 13.9629 59.3778 13.9923 59.3591 14.0155L58.5585 14.8157C58.5439 14.8307 58.5255 14.8414 58.5052 14.8466Z" fill="#455A64"/>
<path d="M58.651 15.3915C58.6253 15.3986 58.598 15.397 58.5733 15.3869C58.5487 15.3769 58.528 15.359 58.5146 15.3359C58.5013 15.3129 58.4959 15.2861 58.4993 15.2597C58.5028 15.2333 58.5149 15.2088 58.5337 15.19L59.3343 14.3898C59.3569 14.3671 59.3876 14.3545 59.4196 14.3545C59.4516 14.3545 59.4823 14.3672 59.5049 14.3898C59.5275 14.4124 59.5402 14.4431 59.5402 14.4751C59.5402 14.5071 59.5274 14.5378 59.5048 14.5604L58.7042 15.3606C58.6896 15.3756 58.6712 15.3863 58.651 15.3915Z" fill="#455A64"/>
<path d="M58.7978 15.9396C58.7721 15.9467 58.7448 15.9451 58.7202 15.935C58.6955 15.925 58.6749 15.907 58.6615 15.884C58.6481 15.861 58.6427 15.8342 58.6462 15.8078C58.6496 15.7814 58.6617 15.7569 58.6806 15.7381L59.4811 14.9379C59.5038 14.9152 59.5345 14.9025 59.5664 14.9026C59.5984 14.9026 59.6291 14.9153 59.6517 14.9379C59.6743 14.9605 59.687 14.9912 59.687 15.0232C59.687 15.0552 59.6743 15.0859 59.6517 15.1085L58.8511 15.9087C58.8365 15.9237 58.8181 15.9344 58.7978 15.9396Z" fill="#455A64"/>
</g>
<path d="M28.1289 44.319L28.7146 46.5048L27.985 46.3093L27.3997 44.125L28.1289 44.319Z" fill="#E0E0E0"/>
<path d="M31.8204 51.7078L37.6498 45.8795C37.8059 45.7229 37.9794 45.7679 38.0372 45.9837L43.2927 65.5975C43.3175 65.7157 43.3142 65.8381 43.283 65.9549C43.2519 66.0716 43.1938 66.1794 43.1133 66.2695L37.2839 72.0978C37.1278 72.2544 36.954 72.2078 36.8966 71.9936L31.6411 52.3798C31.6162 52.2616 31.6195 52.1392 31.6507 52.0224C31.6818 51.9057 31.74 51.7979 31.8204 51.7078Z" fill="#F0F0F0"/>
<path d="M33.2771 52.0978L36.9724 48.4021C37.13 48.2451 37.301 48.2808 37.3546 48.4811C37.3767 48.5964 37.3713 48.7153 37.3388 48.8281C37.3063 48.9409 37.2476 49.0444 37.1675 49.1302L33.4722 52.8259C33.3146 52.983 33.1436 52.9473 33.0895 52.7454C33.0677 52.6303 33.0734 52.5117 33.1059 52.3992C33.1385 52.2867 33.1972 52.1835 33.2771 52.0978Z" fill="#E0E0E0"/>
<path d="M33.4447 54.071L33.515 54.3334C33.5496 54.4623 33.6533 54.4894 33.748 54.3958L33.9409 54.2026C33.9893 54.1487 34.0242 54.0841 34.0427 54.014C34.0613 53.9439 34.0629 53.8705 34.0476 53.7997L33.9773 53.5373C33.9432 53.41 33.839 53.3814 33.7458 53.4745L33.553 53.6676C33.5043 53.7216 33.4692 53.7862 33.4504 53.8563C33.4316 53.9265 33.4296 54 33.4447 54.071Z" fill="#FAFAFA"/>
<path d="M34.5454 53.1323C34.5995 53.3341 34.7751 53.3686 34.9265 53.2132L37.5501 50.5851C37.6302 50.4992 37.6889 50.3957 37.7214 50.2829C37.7539 50.1701 37.7593 50.0512 37.7372 49.9359C37.6836 49.7357 37.5079 49.7012 37.355 49.857L34.7314 52.4851C34.6519 52.5709 34.5937 52.6742 34.5614 52.7866C34.529 52.899 34.5236 53.0174 34.5454 53.1323Z" fill="#E0E0E0"/>
<path d="M33.8354 55.5291L33.9078 55.7992C33.9423 55.9281 34.0461 55.9552 34.1408 55.8616L34.3337 55.6685C34.382 55.6145 34.4169 55.5499 34.4355 55.4798C34.454 55.4098 34.4557 55.3363 34.4403 55.2655L34.37 55.0031C34.3359 54.8758 34.2317 54.8472 34.1386 54.9404L33.9457 55.1335C33.8979 55.1863 33.8631 55.2496 33.8439 55.3183C33.8248 55.3869 33.8219 55.4591 33.8354 55.5291Z" fill="#FAFAFA"/>
<path d="M34.9369 54.5933C34.9909 54.7951 35.1666 54.8296 35.3179 54.6742L37.9416 52.046C38.0217 51.9602 38.0803 51.8567 38.1129 51.7438C38.1454 51.631 38.1508 51.5122 38.1287 51.3969C38.075 51.1966 37.8994 51.1621 37.7465 51.3179L35.1228 53.9461C35.0434 54.0319 34.9851 54.1351 34.9528 54.2475C34.9205 54.3599 34.9151 54.4784 34.9369 54.5933Z" fill="#E0E0E0"/>
<path d="M35.327 56.0496C35.3807 56.2499 35.5563 56.2843 35.7077 56.129L38.3313 53.5008C38.4113 53.4152 38.4699 53.3119 38.5025 53.1994C38.535 53.0869 38.5407 52.9683 38.5189 52.8532C38.4648 52.6514 38.2892 52.6169 38.1362 52.7727L35.5126 55.4009C35.433 55.4869 35.3747 55.5904 35.3424 55.7031C35.3102 55.8158 35.3049 55.9345 35.327 56.0496Z" fill="#E0E0E0"/>
<path d="M35.7168 57.5039C35.7705 57.7042 35.9461 57.7387 36.0975 57.5833L38.7211 54.9552C38.801 54.8695 38.8597 54.7663 38.8922 54.6538C38.9248 54.5412 38.9304 54.4226 38.9086 54.3076C38.8546 54.1057 38.6789 54.0713 38.526 54.2271L35.9024 56.8552C35.8227 56.9412 35.7644 57.0447 35.7322 57.1574C35.7 57.2701 35.6947 57.3888 35.7168 57.5039Z" fill="#E0E0E0"/>
<path d="M53.6529 38.6762L53.7494 39.0364C53.8068 39.2506 53.9853 39.296 54.1363 39.139L61.5545 31.6704C61.6348 31.5798 61.6928 31.4717 61.7238 31.3548C61.7549 31.2378 61.7582 31.1152 61.7335 30.9968L61.6503 30.6863C61.5925 30.4705 61.4139 30.4252 61.2614 30.5825L53.8335 38.0088C53.7532 38.0982 53.695 38.2051 53.6637 38.321C53.6323 38.4369 53.6286 38.5586 53.6529 38.6762Z" fill="#E0E0E0"/>
<path d="M54.4179 40.1899L62.9125 31.6958C63.0685 31.5391 63.2395 31.5749 63.2932 31.7751C63.3153 31.8902 63.31 32.0089 63.2778 32.1216C63.2455 32.2343 63.1872 32.3379 63.1076 32.4239L54.6126 40.9165C54.457 41.0747 54.2856 41.0374 54.2319 40.8371C54.2096 40.7222 54.2148 40.6037 54.2472 40.4912C54.2795 40.3787 54.338 40.2755 54.4179 40.1899Z" fill="#EBEBEB"/>
<path d="M54.8078 41.6447L63.3023 33.1506C63.4584 32.9939 63.6293 33.0297 63.6834 33.2315C63.7052 33.3464 63.6997 33.4648 63.6674 33.5772C63.6351 33.6896 63.5769 33.7929 63.4974 33.8787L55.0029 42.3728C54.8468 42.5295 54.6758 42.4937 54.6222 42.2935C54.5998 42.1784 54.605 42.0596 54.6372 41.9469C54.6695 41.8341 54.7279 41.7306 54.8078 41.6447Z" fill="#EBEBEB"/>
<path d="M55.1992 43.1055L63.6925 34.6067C63.8485 34.45 64.0195 34.4857 64.0731 34.686C64.0952 34.8011 64.09 34.9198 64.0577 35.0325C64.0255 35.1452 63.9672 35.2487 63.8876 35.3348L55.393 43.8289C55.237 43.9856 55.066 43.9498 55.0119 43.748C54.9907 43.6337 54.9965 43.5161 55.029 43.4045C55.0616 43.2929 55.1198 43.1905 55.1992 43.1055Z" fill="#EBEBEB"/>
<path d="M55.5877 44.5556L64.0835 36.0661C64.2395 35.9095 64.4105 35.9452 64.4646 36.147C64.4864 36.2619 64.4809 36.3803 64.4486 36.4927C64.4163 36.6051 64.3581 36.7084 64.2786 36.7942L55.7815 45.2791C55.6255 45.4357 55.4545 45.4 55.4009 45.1997C55.3794 45.0852 55.3852 44.9673 55.4176 44.8554C55.4501 44.7435 55.5083 44.6408 55.5877 44.5556Z" fill="#EBEBEB"/>
<path d="M55.9779 46.0117L64.4724 37.5175C64.6285 37.3609 64.7994 37.3966 64.8531 37.5969C64.8752 37.712 64.8699 37.8307 64.8377 37.9434C64.8055 38.0561 64.7472 38.1596 64.6675 38.2456L56.173 46.7398C56.0169 46.8964 55.846 46.8607 55.7919 46.6589C55.7697 46.544 55.775 46.4255 55.8073 46.313C55.8396 46.2005 55.8981 46.0973 55.9779 46.0117Z" fill="#EBEBEB"/>
<path d="M56.3677 47.4665L64.8623 38.9723C65.0183 38.8157 65.1893 38.8514 65.2433 39.0532C65.2651 39.1682 65.2597 39.2866 65.2274 39.399C65.1951 39.5114 65.1368 39.6146 65.0573 39.7004L56.5628 48.1946C56.4068 48.3512 56.2358 48.3155 56.1821 48.1152C56.1597 48.0001 56.1649 47.8814 56.1972 47.7686C56.2294 47.6559 56.2878 47.5524 56.3677 47.4665Z" fill="#EBEBEB"/>
<path d="M56.7578 48.9226L65.2524 40.4284C65.4084 40.2718 65.5794 40.3075 65.6331 40.5078C65.6552 40.6229 65.6499 40.7416 65.6177 40.8543C65.5854 40.967 65.5271 41.0705 65.4475 41.1565L56.9529 49.6507C56.7969 49.8073 56.6259 49.7716 56.5718 49.5698C56.5497 49.4549 56.5549 49.3364 56.5873 49.2239C56.6196 49.1114 56.678 49.0082 56.7578 48.9226Z" fill="#EBEBEB"/>
<path d="M57.1477 50.3774L65.6422 41.8832C65.7983 41.7266 65.9692 41.7623 66.0233 41.9641C66.0451 42.079 66.0396 42.1975 66.0073 42.3099C65.975 42.4223 65.9168 42.5255 65.8373 42.6113L57.3428 51.1055C57.1867 51.2621 57.0157 51.2264 56.9621 51.0261C56.9397 50.911 56.9449 50.7923 56.9771 50.6795C57.0094 50.5668 57.0678 50.4633 57.1477 50.3774Z" fill="#EBEBEB"/>
<path d="M41.0386 50.7986L52.192 39.6401C52.3481 39.4835 52.5219 39.5301 52.5794 39.7444L56.0786 52.8036C56.1034 52.9219 56.1001 53.0443 56.0689 53.161C56.0378 53.2777 55.9797 53.3855 55.8992 53.4757L44.7458 64.6341C44.5898 64.7907 44.4159 64.7441 44.3585 64.5299L40.8592 51.4706C40.8344 51.3523 40.8377 51.2299 40.8689 51.1132C40.9 50.9965 40.9582 50.8887 41.0386 50.7986Z" fill="#F0F0F0"/>
<path d="M50.8362 47.9436L49.6764 52.4391L51.7671 54.032L45.4614 50.9911L43.6085 61.7307L44.3573 64.5251C44.4147 64.7394 44.5932 64.7847 44.7446 64.6293L55.898 53.4709C55.9784 53.3808 56.0366 53.273 56.0677 53.1563C56.0989 53.0395 56.1022 52.9171 56.0774 52.7989L55.4118 50.315L50.8362 47.9436Z" fill="#E0E0E0"/>
<path d="M50.2901 43.7853C50.7544 43.3198 51.2675 43.4585 51.4372 44.0919C51.5112 44.442 51.5016 44.8046 51.4092 45.1502C51.3168 45.4959 51.1442 45.8149 50.9054 46.0814C50.439 46.5391 49.9276 46.4066 49.7579 45.7732C49.684 45.4233 49.6936 45.0609 49.7861 44.7155C49.8786 44.3701 50.0513 44.0514 50.2901 43.7853Z" fill="#E0E0E0"/>
<path d="M30.4548 46.6111L59.2059 17.8604C59.3619 17.7037 59.5358 17.7503 59.5932 17.9646L60.5558 21.557C60.5807 21.6754 60.5773 21.798 60.5459 21.9148C60.5145 22.0317 60.4559 22.1395 60.3749 22.2294L31.6253 50.9798C31.4693 51.1364 31.2954 51.0898 31.238 50.8756L30.2767 47.2878C30.2507 47.169 30.2532 47.0457 30.2842 46.928C30.3152 46.8104 30.3736 46.7018 30.4548 46.6111Z" fill="#E0E0E0"/>
<path d="M49.3295 30.109L49.4959 30.73C49.5304 30.8588 49.6342 30.8859 49.7289 30.7923L58.087 22.4345L57.7958 21.3478L49.4382 29.7071C49.3897 29.7608 49.3546 29.8252 49.3357 29.8951C49.3169 29.9649 49.3147 30.0382 49.3295 30.109Z" fill="#FAFAFA"/>
<path d="M58.6912 20.4507C58.7844 20.3575 58.8897 20.3842 58.9243 20.5131L59.0907 21.134C59.1052 21.2051 59.103 21.2785 59.0843 21.3485C59.0655 21.4186 59.0306 21.4832 58.9824 21.5374L58.086 22.4332L57.7948 21.3465L58.6912 20.4507Z" fill="#EBEBEB"/>
<path d="M58.8417 21.3306L58.7138 21.325C58.7127 21.2708 58.705 21.217 58.6908 21.1647C58.6833 21.1155 58.6633 21.069 58.6326 21.0297C58.602 20.9904 58.5618 20.9597 58.5159 20.9404C58.4852 20.9332 58.4531 20.9345 58.4232 20.9443C58.3932 20.9541 58.3666 20.9719 58.3461 20.9959C58.2865 21.0735 58.246 21.1641 58.2279 21.2603C58.2097 21.3565 58.2144 21.4556 58.2415 21.5497C58.249 21.5989 58.2691 21.6454 58.2997 21.6847C58.3303 21.724 58.3705 21.7547 58.4165 21.774C58.4427 21.7808 58.4701 21.7809 58.4964 21.7742C58.531 21.7646 58.5622 21.7452 58.5863 21.7185C58.6598 21.6329 58.703 21.5254 58.709 21.4128L58.837 21.4184L58.851 21.4147C58.8603 21.412 58.8685 21.4065 58.8745 21.3989C58.8805 21.3913 58.884 21.382 58.8846 21.3724C58.8838 21.3614 58.879 21.3511 58.8711 21.3434C58.8632 21.3357 58.8528 21.3311 58.8417 21.3306ZM58.5233 21.6572C58.5139 21.6698 58.5011 21.6796 58.4865 21.6852C58.4718 21.6909 58.4558 21.6924 58.4404 21.6894C58.4106 21.6733 58.385 21.6505 58.3657 21.6227C58.3464 21.5949 58.3339 21.563 58.3293 21.5295C58.3069 21.4504 58.3025 21.3674 58.3166 21.2864C58.3306 21.2055 58.3626 21.1287 58.4103 21.0618C58.4238 21.0481 58.4405 21.0379 58.4589 21.0322C58.4702 21.0285 58.4822 21.0282 58.4936 21.0312C58.5234 21.0473 58.549 21.0701 58.5683 21.0979C58.5876 21.1257 58.6 21.1576 58.6047 21.1911C58.6275 21.2701 58.632 21.3533 58.618 21.4343C58.6039 21.5153 58.5717 21.592 58.5237 21.6588L58.5233 21.6572Z" fill="#FAFAFA"/>
<path d="M39.1047 44.9223L40.2611 49.2381C40.3185 49.4524 40.497 49.4977 40.6484 49.3423L61.9363 28.054C62.0168 27.9638 62.0749 27.856 62.106 27.7393C62.1372 27.6226 62.1405 27.5002 62.1157 27.3819L60.958 23.0614C60.9006 22.8472 60.7221 22.8019 60.5691 22.9577L39.2828 44.2456C39.2016 44.3363 39.1432 44.4449 39.1122 44.5625C39.0812 44.6801 39.0787 44.8035 39.1047 44.9223Z" fill="#EBEBEB"/>
<path d="M74.3758 41.117C74.3758 41.117 74.0829 39.1671 74.6306 37.448C75.1783 35.7288 76.2257 34.4648 77.4053 34.0422C78.5849 33.6197 79.8585 34.4731 78.7711 35.5815C77.6837 36.6898 75.6007 38.0816 75.3088 41.2148L74.3758 41.117Z" fill="#407BFF"/>
<path opacity="0.1" d="M74.3758 41.117C74.3758 41.117 74.0829 39.1671 74.6306 37.448C75.1783 35.7288 76.2257 34.4648 77.4053 34.0422C78.5849 33.6197 79.8585 34.4731 78.7711 35.5815C77.6837 36.6898 75.6007 38.0816 75.3088 41.2148L74.3758 41.117Z" fill="black"/>
<path d="M74.5977 40.5301L74.5837 40.5338C74.575 40.5327 74.5667 40.5298 74.5592 40.5255C74.5516 40.5211 74.545 40.5152 74.5398 40.5083C74.5345 40.5014 74.5307 40.4934 74.5285 40.485C74.5263 40.4766 74.5258 40.4678 74.5271 40.4591C74.9598 36.9821 77.0325 35.024 78.067 34.4756C78.0746 34.4711 78.0831 34.4682 78.0919 34.4671C78.1008 34.4661 78.1097 34.4669 78.1182 34.4694C78.1267 34.472 78.1346 34.4763 78.1414 34.4821C78.1481 34.4878 78.1536 34.4949 78.1575 34.5029C78.1615 34.5106 78.164 34.519 78.1648 34.5276C78.1655 34.5362 78.1646 34.5449 78.162 34.5532C78.1595 34.5614 78.1553 34.5691 78.1497 34.5757C78.1442 34.5824 78.1374 34.5879 78.1297 34.5919C77.11 35.133 75.0854 37.0532 74.6595 40.4752C74.6567 40.4899 74.6491 40.5033 74.638 40.5132C74.6268 40.5232 74.6126 40.5291 74.5977 40.5301Z" fill="white"/>
<path d="M81.0502 38.841C81.0077 39.117 80.7732 39.3162 80.5488 39.4845C80.3243 39.6528 80.0848 39.8335 80.0122 40.1025C79.8637 40.6415 80.4889 41.1861 80.3197 41.7223C80.2761 41.8325 80.2105 41.9326 80.1268 42.0165C80.0431 42.1004 79.9432 42.1664 79.8332 42.2104C79.6565 42.296 79.4667 42.3452 79.2818 42.413C79.1913 42.4346 79.0997 42.4513 79.0074 42.4633C78.731 42.4751 78.4661 42.5777 78.2537 42.7551C77.9357 43.0649 77.9488 43.5672 77.8179 43.9917C77.7356 44.2443 77.5993 44.476 77.4184 44.6707C77.2376 44.8654 77.0165 45.0185 76.7706 45.1192C76.6088 45.1859 76.3051 45.3006 76.1085 45.2501C76.0943 45.2475 76.0804 45.2434 76.067 45.2379C76.0371 45.2188 76.0083 45.1982 75.9806 45.1762C75.9763 45.1742 75.9727 45.1712 75.9699 45.1674C75.8394 44.9411 75.8787 44.6594 75.8155 44.4051C75.8123 44.3899 75.8083 44.3749 75.8035 44.3601C75.714 44.0696 75.6284 43.7813 75.544 43.4911C75.3857 42.9562 75.2356 42.4207 75.0943 41.8812C75.0007 41.5318 74.8596 41.1603 74.9204 40.7913C74.9865 40.3859 75.3908 40.2676 75.4496 39.8724C75.4739 39.7145 75.4657 39.5537 75.488 39.3946C75.5238 39.16 75.6235 38.9397 75.7761 38.758C75.9287 38.5762 76.1284 38.4399 76.3533 38.3641C77.0548 38.1378 77.8456 38.5432 78.5409 38.3004C78.7177 38.2266 78.8903 38.1431 79.058 38.0503C79.6052 37.7889 80.3149 37.7734 80.7684 38.1744C80.8663 38.254 80.9432 38.3564 80.9923 38.4726C81.0415 38.5888 81.0613 38.7153 81.0502 38.841Z" fill="#407BFF"/>
<path d="M75.6066 44.0616C75.5902 44.0617 75.5744 44.0553 75.5626 44.0438C75.5508 44.0324 75.544 44.0167 75.5436 44.0003C75.5392 40.053 79.2761 38.4809 80.2018 38.3028C80.2181 38.3001 80.2349 38.3038 80.2485 38.3132C80.2622 38.3225 80.2717 38.3368 80.2751 38.353C80.2769 38.361 80.277 38.3693 80.2754 38.3773C80.2739 38.3854 80.2708 38.393 80.2662 38.3998C80.2617 38.4066 80.2558 38.4124 80.249 38.4169C80.2422 38.4214 80.2345 38.4245 80.2265 38.426C79.3214 38.6003 75.6634 40.1378 75.6699 43.9997C75.6697 44.0163 75.6629 44.0321 75.6511 44.0437C75.6392 44.0553 75.6232 44.0618 75.6066 44.0616Z" fill="white"/>
<path d="M79.4188 41.0403C79.4063 41.0406 79.394 41.0376 79.3832 41.0316C78.9418 40.8174 78.4586 40.7031 77.968 40.6968C77.4774 40.6904 76.9915 40.7923 76.5447 40.9951C76.5293 41.0016 76.5119 41.0019 76.4963 40.9958C76.4807 40.9897 76.4681 40.9778 76.4611 40.9626C76.4546 40.9472 76.4543 40.9298 76.4604 40.9142C76.4665 40.8986 76.4784 40.8859 76.4936 40.879C76.9584 40.6679 77.4641 40.562 77.9746 40.5691C78.485 40.5761 78.9876 40.6959 79.4464 40.9198C79.4607 40.9281 79.4711 40.9417 79.4754 40.9577C79.4797 40.9737 79.4775 40.9908 79.4693 41.0052C79.4643 41.0147 79.4572 41.0229 79.4484 41.029C79.4396 41.0351 79.4294 41.039 79.4188 41.0403Z" fill="white"/>
<path d="M44.6972 77.1414C44.5874 77.1021 44.4883 77.0376 44.4079 76.9531C44.3274 76.8686 44.2679 76.7665 44.234 76.6549L35.6648 44.6742C35.6396 44.556 35.6427 44.4335 35.6739 44.3167C35.7051 44.1999 35.7634 44.0921 35.8442 44.0022L66.7197 13.1197C66.8005 13.0327 66.9036 12.9694 67.0177 12.9365C67.1319 12.9036 67.2528 12.9024 67.3676 12.9331C67.4824 12.9637 67.5866 13.0251 67.6692 13.1105C67.7517 13.1959 67.8095 13.3022 67.8362 13.4179L76.4083 45.4095C76.4331 45.5277 76.4298 45.6501 76.3987 45.7668C76.3675 45.8836 76.3094 45.9913 76.229 46.0815L45.3401 76.9575C45.2548 77.0363 45.1522 77.094 45.0405 77.1259C44.9289 77.1579 44.8113 77.1632 44.6972 77.1414Z" fill="#407BFF"/>
<path opacity="0.4" d="M67.8182 13.3645C67.7483 13.1969 67.59 13.1711 67.4485 13.3138L36.5613 44.196C36.4796 44.2856 36.4212 44.3938 36.3912 44.5112L35.6631 44.3152C35.695 44.1962 35.757 44.0874 35.843 43.9992L66.7209 13.1194C66.797 13.0337 66.8948 12.9698 67.0039 12.9346C67.1131 12.8993 67.2297 12.8939 67.3417 12.9189C67.4536 12.9439 67.5568 12.9984 67.6406 13.0768C67.7244 13.1551 67.7857 13.2545 67.8182 13.3645Z" fill="white"/>
<path d="M45.2886 77.0013L45.2746 77.005C45.2658 77.0133 45.256 77.0204 45.2454 77.0262L45.2226 77.0406C45.209 77.0501 45.1944 77.0579 45.1789 77.0639C45.1691 77.0683 45.1586 77.0711 45.1479 77.0723L45.0987 77.0937C44.971 77.1475 44.8297 77.1603 44.6943 77.1306C44.5843 77.0916 44.485 77.0272 44.4045 76.9427C44.3241 76.8581 44.2647 76.7558 44.2311 76.644L36.7306 48.6516L37.4602 48.8471L44.9632 76.8489C45.0048 77.0041 45.1038 77.0691 45.214 77.0396C45.2295 77.0378 45.2447 77.0337 45.259 77.0275L45.2886 77.0013Z" fill="#F0F0F0"/>
<path opacity="0.1" d="M36.3952 44.51C36.3617 44.6262 36.3585 44.7491 36.386 44.8669L37.453 48.849L36.7234 48.6534L35.6589 44.6807C35.6546 44.6675 35.6509 44.654 35.6481 44.6403C35.6437 44.6113 35.6409 44.5821 35.6396 44.5528C35.6384 44.475 35.6479 44.3975 35.6677 44.3223L36.3952 44.51Z" fill="black"/>
<path d="M67.8356 13.4182L68.3168 15.2144L45.6766 37.8518C45.5205 38.0084 45.3466 37.9618 45.2892 37.7476L45.107 37.0676C45.0496 36.8534 44.8711 36.808 44.7181 36.9638L37.8247 43.8576C37.7438 43.9475 37.6852 44.0553 37.6537 44.1721C37.6223 44.289 37.6189 44.4116 37.6438 44.53L37.826 45.21C37.8509 45.3282 37.8476 45.4506 37.8164 45.5674C37.7853 45.6841 37.7271 45.7919 37.6467 45.882L36.8583 46.6657L36.377 44.8695C36.3522 44.7512 36.3555 44.6288 36.3867 44.5121C36.4178 44.3954 36.476 44.2876 36.5564 44.1974L67.4482 13.314C67.6047 13.1589 67.7781 13.2039 67.8356 13.4182Z" fill="#407BFF"/>
<path d="M76.4092 45.409C76.4342 45.5274 76.4308 45.6501 76.3993 45.7669C76.3679 45.8838 76.3093 45.9916 76.2283 46.0815L45.3391 76.9559C45.183 77.1126 45.0091 77.066 44.9517 76.8517L36.863 46.6642L37.6514 45.8805C37.8074 45.7239 37.6718 44.0131 37.8294 43.8561L44.607 37.0766C44.7646 36.9195 45.5221 38.0078 45.6812 37.8503L68.3184 15.2137L76.4092 45.409Z" fill="#FAFAFA"/>
<path d="M40.5594 54.0501L46.3873 48.2222C46.5449 48.0652 46.7187 48.1118 46.7761 48.326L52.0312 67.9383C52.0562 68.0567 52.0528 68.1793 52.0213 68.2961C51.9899 68.413 51.9313 68.5208 51.8503 68.6107L46.0228 74.4401C45.8653 74.5972 45.6914 74.5506 45.634 74.3363L40.3806 54.7303C40.354 54.6109 40.3564 54.4869 40.3875 54.3686C40.4186 54.2502 40.4776 54.1411 40.5594 54.0501Z" fill="#F0F0F0"/>
<path d="M42.0145 54.4405L45.7114 50.7444C45.869 50.5873 46.0384 50.6235 46.0924 50.8253C46.1146 50.9402 46.1094 51.0587 46.077 51.1712C46.0447 51.2837 45.9863 51.3869 45.9065 51.4725L42.21 55.1701C42.0539 55.3268 41.8825 55.2895 41.8289 55.0892C41.8068 54.9741 41.8121 54.8554 41.8443 54.7427C41.8765 54.63 41.9348 54.5265 42.0145 54.4405Z" fill="#E0E0E0"/>
<path d="M42.1829 56.4104L42.2532 56.6728C42.2873 56.8001 42.3915 56.8287 42.4862 56.7351L42.6775 56.5424C42.7261 56.4885 42.7613 56.4239 42.7801 56.3538C42.7989 56.2836 42.8008 56.2101 42.7857 56.1391L42.7154 55.8767C42.6809 55.7478 42.5771 55.7207 42.4824 55.8143L42.2911 56.007C42.2425 56.061 42.2074 56.1256 42.1886 56.1957C42.1697 56.2658 42.1678 56.3394 42.1829 56.4104Z" fill="#407BFF"/>
<path d="M43.2856 55.4795C43.3397 55.6814 43.5154 55.7158 43.6683 55.56L46.2915 52.9303C46.371 52.8445 46.4292 52.7413 46.4615 52.6289C46.4938 52.5165 46.4993 52.398 46.4775 52.2831C46.4234 52.0813 46.2478 52.0468 46.0964 52.2022L43.4728 54.8304C43.3927 54.9162 43.334 55.0197 43.3015 55.1325C43.269 55.2454 43.2635 55.3642 43.2856 55.4795Z" fill="#E0E0E0"/>
<path d="M43.6762 56.9371C43.7303 57.1389 43.9059 57.1733 44.0589 57.0176L46.6821 54.3878C46.7615 54.302 46.8198 54.1988 46.8521 54.0864C46.8844 53.974 46.8899 53.8556 46.8681 53.7407C46.814 53.5388 46.6384 53.5044 46.487 53.6597L43.8633 56.2879C43.7833 56.3737 43.7246 56.4773 43.6921 56.5901C43.6595 56.7029 43.6541 56.8218 43.6762 56.9371Z" fill="#E0E0E0"/>
<path d="M44.0659 58.3916C44.12 58.5934 44.2956 58.6279 44.4486 58.4721L47.0722 55.8439C47.1519 55.7579 47.2101 55.6544 47.2424 55.5417C47.2746 55.429 47.2799 55.3103 47.2578 55.1952C47.2041 54.9949 47.0285 54.9605 46.8771 55.1158L44.2535 57.744C44.1736 57.8296 44.1149 57.9329 44.0824 58.0454C44.0498 58.1579 44.0441 58.2765 44.0659 58.3916Z" fill="#E0E0E0"/>
<path d="M62.3908 41.0207L62.4873 41.3808C62.5447 41.5951 62.7232 41.6404 62.8742 41.4835L70.29 34.0055C70.3704 33.9153 70.4285 33.8076 70.4597 33.6908C70.4908 33.5741 70.4941 33.4517 70.4693 33.3335L70.3861 33.023C70.3287 32.8087 70.1501 32.7634 69.9988 32.9188L62.5713 40.3467C62.4901 40.4368 62.4315 40.5448 62.4001 40.662C62.3687 40.7791 62.3655 40.902 62.3908 41.0207Z" fill="#407BFF"/>
<path d="M63.157 42.5325L71.65 34.0387C71.8076 33.8817 71.9785 33.9174 72.0326 34.1192C72.0544 34.2343 72.0488 34.3529 72.0162 34.4654C71.9836 34.578 71.925 34.6812 71.8451 34.7668L63.3521 43.2606C63.1945 43.4176 63.0235 43.3819 62.9698 43.1817C62.9477 43.0664 62.9532 42.9475 62.9857 42.8347C63.0182 42.7219 63.0769 42.6183 63.157 42.5325Z" fill="#E6E6E6"/>
<path d="M63.5472 43.9886L72.0402 35.4948C72.1978 35.3378 72.3687 35.3735 72.4224 35.5738C72.4445 35.6891 72.4391 35.808 72.4066 35.9208C72.374 36.0336 72.3154 36.1371 72.2353 36.2229L63.7423 44.7167C63.5847 44.8737 63.4137 44.838 63.3596 44.6362C63.3378 44.5211 63.3435 44.4025 63.376 44.29C63.4086 44.1775 63.4673 44.0742 63.5472 43.9886Z" fill="#E6E6E6"/>
<path d="M63.9369 45.4434L72.4299 36.9496C72.5875 36.7926 72.7585 36.8283 72.8126 37.0301C72.8344 37.1452 72.8287 37.2638 72.7962 37.3763C72.7636 37.4888 72.705 37.5921 72.625 37.6777L64.132 46.1715C63.9744 46.3285 63.8035 46.2928 63.7498 46.0925C63.7277 45.9772 63.7331 45.8584 63.7656 45.7456C63.7982 45.6328 63.8568 45.5292 63.9369 45.4434Z" fill="#E6E6E6"/>
<path d="M64.3271 46.8995L72.8201 38.4057C72.9777 38.2487 73.1487 38.2844 73.2023 38.4847C73.2244 38.6 73.219 38.7189 73.1865 38.8317C73.154 38.9445 73.0953 39.048 73.0152 39.1338L64.5222 47.6276C64.3646 47.7846 64.1936 47.7489 64.1395 47.5471C64.1177 47.432 64.1234 47.3134 64.1559 47.2009C64.1885 47.0884 64.2472 46.9851 64.3271 46.8995Z" fill="#E6E6E6"/>
<path d="M64.7168 48.354L73.2098 39.8603C73.3674 39.7032 73.5384 39.739 73.5925 39.9408C73.6143 40.0559 73.6087 40.1745 73.5761 40.287C73.5435 40.3995 73.4849 40.5027 73.4049 40.5884L64.9119 49.0821C64.7543 49.2392 64.5834 49.2035 64.5297 49.0032C64.5076 48.8879 64.513 48.769 64.5456 48.6562C64.5781 48.5434 64.6368 48.4399 64.7168 48.354Z" fill="#E6E6E6"/>
<path d="M65.1071 49.8104L73.6001 41.3166C73.7576 41.1596 73.9286 41.1953 73.9823 41.3956C74.0044 41.5109 73.999 41.6297 73.9664 41.7425C73.9339 41.8553 73.8752 41.9589 73.7951 42.0447L65.3021 50.5385C65.1446 50.6955 64.9736 50.6598 64.9195 50.458C64.8977 50.3429 64.9033 50.2243 64.9359 50.1118C64.9685 49.9993 65.0271 49.896 65.1071 49.8104Z" fill="#E6E6E6"/>
<path d="M65.4968 51.2649L73.9898 42.7712C74.1474 42.6141 74.3184 42.6498 74.3725 42.8517C74.3942 42.9667 74.3886 43.0854 74.356 43.1979C74.3235 43.3104 74.2648 43.4136 74.1849 43.4993L65.6919 51.993C65.5343 52.1501 65.3633 52.1143 65.3097 51.9141C65.2876 51.7988 65.293 51.6799 65.3255 51.5671C65.358 51.4543 65.4167 51.3508 65.4968 51.2649Z" fill="#E6E6E6"/>
<path d="M65.887 52.7213L74.38 44.2275C74.5376 44.0705 74.7086 44.1062 74.7622 44.3065C74.7844 44.4217 74.7789 44.5406 74.7464 44.6534C74.7139 44.7662 74.6552 44.8698 74.5751 44.9556L66.0821 53.4494C65.9245 53.6064 65.7536 53.5707 65.6995 53.3689C65.6777 53.2538 65.6833 53.1352 65.7159 53.0227C65.7485 52.9102 65.8071 52.8069 65.887 52.7213Z" fill="#E6E6E6"/>
<path d="M49.7737 53.1418L60.9276 41.9849C61.0852 41.8279 61.2591 41.8745 61.3165 42.0887L64.8157 55.148C64.8406 55.2664 64.8372 55.3891 64.8058 55.5059C64.7744 55.6228 64.7158 55.7305 64.6348 55.8205L53.4809 66.9773C53.3234 67.1344 53.1495 67.0878 53.0921 66.8735L49.5928 53.8142C49.5679 53.6958 49.5713 53.5732 49.6027 53.4564C49.6342 53.3395 49.6927 53.2317 49.7737 53.1418Z" fill="#407BFF"/>
<path opacity="0.8" d="M49.7737 53.1418L60.9276 41.9849C61.0852 41.8279 61.2591 41.8745 61.3165 42.0887L64.8157 55.148C64.8406 55.2664 64.8372 55.3891 64.8058 55.5059C64.7744 55.6228 64.7158 55.7305 64.6348 55.8205L53.4809 66.9773C53.3234 67.1344 53.1495 67.0878 53.0921 66.8735L49.5928 53.8142C49.5679 53.6958 49.5713 53.5732 49.6027 53.4564C49.6342 53.3395 49.6927 53.2317 49.7737 53.1418Z" fill="white"/>
<path d="M59.5764 50.2872L58.4161 54.7811L60.5072 56.3756L54.2015 53.3347L52.3471 64.0747L53.0958 66.8691C53.1532 67.0834 53.3318 67.1287 53.4847 66.9729L64.6386 55.816C64.7196 55.7261 64.7782 55.6184 64.8096 55.5015C64.841 55.3846 64.8444 55.262 64.8195 55.1436L64.1539 52.6597L59.5764 50.2872Z" fill="#407BFF"/>
<path d="M59.0292 46.1278C59.494 45.6705 60.0065 45.8011 60.1767 46.436C60.2502 46.7859 60.2403 47.1482 60.1479 47.4935C60.0554 47.8389 59.8829 48.1576 59.6444 48.4239C59.1801 48.8894 58.6655 48.7511 58.4958 48.1177C58.4218 47.7675 58.4316 47.4047 58.5242 47.0589C58.6169 46.7131 58.7899 46.3941 59.0292 46.1278Z" fill="#407BFF"/>
<path d="M39.1937 48.9533L67.9433 20.2029C68.1009 20.0459 68.2748 20.0924 68.3322 20.3067L69.2952 23.9006C69.3204 24.0188 69.3173 24.1414 69.2861 24.2581C69.2549 24.3749 69.1966 24.4827 69.1158 24.5726L40.3643 53.3219C40.2067 53.4789 40.0328 53.4323 39.9754 53.2181L39.0128 49.6257C38.9879 49.5073 38.9913 49.3847 39.0227 49.2678C39.0542 49.1509 39.1128 49.0432 39.1937 48.9533Z" fill="#455A64"/>
<path d="M58.067 32.4518L58.2334 33.0728C58.2675 33.2001 58.3732 33.2284 58.4664 33.1352L66.8256 24.7754L66.5344 23.6887L58.1748 32.0469C58.1265 32.1013 58.0915 32.1662 58.0728 32.2366C58.0541 32.3069 58.0521 32.3806 58.067 32.4518Z" fill="#FAFAFA"/>
<path d="M67.433 22.7941C67.5273 22.6989 67.6315 22.7276 67.666 22.8564L67.8324 23.4774C67.8475 23.5484 67.8455 23.622 67.8267 23.6921C67.8079 23.7622 67.7728 23.8269 67.7242 23.8808L66.8293 24.7762L66.5381 23.6895L67.433 22.7941Z" fill="#407BFF"/>
<path d="M67.5819 23.6743L67.454 23.6686C67.4522 23.6145 67.4445 23.5608 67.431 23.5084C67.4235 23.4592 67.4033 23.4128 67.3724 23.3739C67.3416 23.3349 67.3011 23.3046 67.2549 23.286C67.2243 23.2789 67.1924 23.2802 67.1624 23.2897C67.1325 23.2992 67.1056 23.3165 67.0847 23.34C67.0249 23.4179 66.9844 23.5087 66.9663 23.6052C66.9482 23.7017 66.9531 23.8011 66.9806 23.8953C66.9881 23.9445 67.0082 23.9909 67.0391 24.0299C67.07 24.0689 67.1105 24.0991 67.1566 24.1177C67.1827 24.1252 67.2104 24.1253 67.2366 24.1179C67.2708 24.1079 67.3019 24.0893 67.3269 24.0638C67.3998 23.9772 67.4427 23.8694 67.4492 23.7564L67.5772 23.7621L67.5896 23.7587C67.599 23.7567 67.6074 23.7516 67.6135 23.7442C67.6197 23.7368 67.6232 23.7276 67.6236 23.718C67.6233 23.7069 67.6189 23.6962 67.6112 23.6881C67.6035 23.68 67.5931 23.6751 67.5819 23.6743ZM67.2576 24.0041C67.2472 24.0153 67.2338 24.0234 67.2189 24.0273C67.2041 24.0313 67.1885 24.031 67.1738 24.0266C67.1441 24.0108 67.1186 23.9882 67.0994 23.9607C67.0802 23.9332 67.0677 23.9015 67.0632 23.8682C67.0406 23.7892 67.0362 23.7061 67.0502 23.6251C67.0643 23.5441 67.0964 23.4674 67.1442 23.4005C67.1573 23.3862 67.1739 23.3755 67.1924 23.3693C67.2034 23.3663 67.2151 23.3667 67.2259 23.3703C67.2558 23.3858 67.2816 23.4082 67.3008 23.4358C67.3201 23.4634 67.3324 23.4953 67.3366 23.5287C67.361 23.6087 67.3666 23.6932 67.3529 23.7757C67.3392 23.8581 67.3066 23.9363 67.2576 24.0041Z" fill="#FAFAFA"/>
<path d="M47.8416 47.2601L49.0014 51.5883C49.0588 51.8026 49.2373 51.8479 49.3903 51.6921L70.677 30.4057C70.758 30.3158 70.8166 30.208 70.8481 30.0912C70.8795 29.9743 70.8829 29.8517 70.8579 29.7333L69.6994 25.4097C69.642 25.1954 69.4635 25.1501 69.3106 25.3059L48.0179 46.5889C47.9379 46.6791 47.8803 46.7868 47.8496 46.9034C47.819 47.02 47.8163 47.1422 47.8416 47.2601Z" fill="#407BFF"/>
<path opacity="0.7" d="M47.8416 47.2601L49.0014 51.5883C49.0588 51.8026 49.2373 51.8479 49.3903 51.6921L70.677 30.4057C70.758 30.3158 70.8166 30.208 70.8481 30.0912C70.8795 29.9743 70.8829 29.8517 70.8579 29.7333L69.6994 25.4097C69.642 25.1954 69.4635 25.1501 69.3106 25.3059L48.0179 46.5889C47.9379 46.6791 47.8803 46.7868 47.8496 46.9034C47.819 47.02 47.8163 47.1422 47.8416 47.2601Z" fill="white"/>
<path d="M68.3168 15.2141L68.9025 17.4L37.4533 48.8488L36.8676 46.6629L37.4512 46.0773C37.6072 45.9207 37.6256 45.741 37.6305 45.4053L37.6469 44.529C37.6457 44.2265 37.6749 44.0123 37.8278 43.8565L44.6054 37.077C44.763 36.92 44.906 36.87 45.1101 37.0666L45.5371 37.5112C45.6913 37.6646 45.7697 37.7584 45.9288 37.6009L68.3168 15.2141Z" fill="#E6E6E6"/>
<path d="M66.5605 14.9678C66.7587 14.7699 66.9772 14.8279 67.0496 15.098C67.0812 15.247 67.0771 15.4014 67.0376 15.5485C66.998 15.6956 66.9242 15.8312 66.8221 15.9443C66.6255 16.1418 66.4065 16.0823 66.3346 15.8137C66.3028 15.6649 66.3067 15.5107 66.346 15.3637C66.3853 15.2166 66.4588 15.081 66.5605 14.9678Z" fill="white"/>
<path d="M65.2741 16.2525C65.4707 16.055 65.6897 16.1145 65.7621 16.3846C65.7935 16.5333 65.7894 16.6872 65.7501 16.8339C65.7107 16.9807 65.6373 17.116 65.5357 17.229C65.3375 17.4269 65.119 17.3689 65.0466 17.0988C65.015 16.9498 65.0191 16.7954 65.0586 16.6483C65.0982 16.5012 65.172 16.3656 65.2741 16.2525Z" fill="white"/>
<path d="M64.4622 18.12C64.5506 17.7899 64.468 17.4809 64.2777 17.4299C64.0873 17.3789 63.8613 17.6052 63.7729 17.9353C63.6844 18.2654 63.767 18.5743 63.9574 18.6253C64.1477 18.6763 64.3737 18.4501 64.4622 18.12Z" fill="white"/>
<path opacity="0.5" d="M38.4516 46.4067L38.007 46.8587L38.1052 46.418C38.1092 46.4014 38.109 46.384 38.1046 46.3675C38.1001 46.3509 38.0916 46.3357 38.0799 46.3233C38.0594 46.3088 38.0364 46.335 38.0272 46.369L37.8888 46.9951C37.8888 46.9951 37.8922 47.0076 37.8865 47.0174C37.8875 47.0271 37.89 47.0365 37.894 47.0454C37.8944 47.054 37.8967 47.0625 37.9006 47.0702L37.9113 47.079L38.2556 47.2213C38.2604 47.2233 38.2658 47.2236 38.2708 47.2223C38.2759 47.2209 38.2803 47.218 38.2835 47.2138C38.296 47.2003 38.3037 47.1831 38.3053 47.1648C38.3101 47.149 38.3104 47.1322 38.3061 47.1163C38.3018 47.1004 38.2932 47.086 38.2812 47.0747L38.0378 46.9735L38.4824 46.5216C38.4934 46.5077 38.5009 46.4913 38.5043 46.4739C38.5077 46.4565 38.507 46.4385 38.5022 46.4215C38.4964 46.3997 38.4794 46.386 38.4516 46.4067Z" fill="#455A64"/>
<path opacity="0.5" d="M38.8242 46.034L39.2688 45.582L39.0254 45.4809C39.005 45.473 38.9926 45.4331 39.0017 45.3924C39.0107 45.3517 39.029 45.3268 39.0494 45.3346L39.3957 45.4781C39.3999 45.4802 39.4036 45.4832 39.4064 45.4869C39.4094 45.4944 39.4115 45.5022 39.4126 45.5102C39.416 45.5198 39.4186 45.5297 39.4205 45.5397C39.4208 45.5472 39.42 45.5547 39.4182 45.562L39.2797 46.2064C39.2774 46.2214 39.2707 46.2353 39.2605 46.2465C39.259 46.2491 39.257 46.2514 39.2547 46.2532C39.2523 46.2551 39.2496 46.2564 39.2467 46.2572C39.2438 46.258 39.2408 46.2581 39.2378 46.2577C39.2349 46.2573 39.232 46.2563 39.2294 46.2548C39.2176 46.2428 39.2091 46.2278 39.2047 46.2115C39.2003 46.1952 39.2003 46.178 39.2045 46.1617L39.3023 45.7195L38.8577 46.1714C38.8377 46.1901 38.8157 46.1826 38.8045 46.1407C38.7989 46.1227 38.7978 46.1035 38.8012 46.0849C38.8047 46.0663 38.8125 46.0488 38.8242 46.034Z" fill="#455A64"/>
<path opacity="0.5" d="M40.1479 44.0521C40.1392 44.0195 40.1094 44.0325 40.1029 44.0642L40.0789 44.2603C39.951 44.2796 39.8344 44.4406 39.7905 44.6803C39.7341 44.9916 39.8219 45.3192 39.986 45.41C40.0257 45.4311 40.0715 45.4378 40.1156 45.4287C40.1596 45.4196 40.1991 45.3954 40.2273 45.3603C40.3134 45.2616 40.3687 45.1397 40.3863 45.0099C40.391 44.9936 40.3912 44.9762 40.3868 44.9598C40.3824 44.9434 40.3736 44.9285 40.3613 44.9167C40.3416 44.9054 40.3178 44.9284 40.3119 44.9682C40.2694 45.2009 40.1356 45.335 40.0124 45.2665C39.8892 45.198 39.8239 44.9542 39.8664 44.7215C39.8956 44.5573 39.9732 44.4433 40.0585 44.4138L40.0399 44.5619C40.0351 44.5998 40.0578 44.6287 40.0743 44.6093L40.2522 44.4102C40.2589 44.4008 40.2631 44.39 40.2644 44.3785C40.2657 44.3671 40.2641 44.3556 40.2597 44.345L40.1479 44.0521Z" fill="#455A64"/>
<path opacity="0.5" d="M44.642 38.1373L44.7255 37.679C44.732 37.6567 44.7323 37.633 44.7263 37.6106C44.7203 37.5881 44.7082 37.5678 44.6914 37.5517C44.6623 37.5362 44.6324 37.5675 44.622 37.6219L44.5385 38.0802L44.2965 37.947C44.269 37.9311 44.2375 37.9628 44.2267 38.0157C44.221 38.038 44.2212 38.0615 44.2272 38.0838C44.2331 38.106 44.2447 38.1264 44.2608 38.143L44.5028 38.2761L44.4166 38.7368C44.4109 38.7589 44.411 38.7821 44.4169 38.8042C44.4228 38.8262 44.4343 38.8463 44.4503 38.8626C44.4576 38.8656 44.4656 38.8662 44.4732 38.8642C44.4808 38.8621 44.4875 38.8576 44.4922 38.8514C44.5064 38.8339 44.5158 38.8131 44.5193 38.7909L44.6024 38.331L44.8448 38.4657C44.852 38.469 44.8601 38.4698 44.8678 38.4677C44.8755 38.4656 44.8822 38.461 44.8867 38.4545C44.9019 38.4376 44.9113 38.4165 44.9138 38.394C44.9203 38.3717 44.9205 38.348 44.9145 38.3255C44.9085 38.3031 44.8965 38.2827 44.8797 38.2667L44.642 38.1373Z" fill="#455A64"/>
<path d="M40.9822 44.3642L40.8 43.6842C40.775 43.5658 40.7784 43.4431 40.8098 43.3263C40.8413 43.2094 40.8999 43.1017 40.9808 43.0117L66.5337 17.4707C66.6897 17.3141 66.8636 17.3607 66.921 17.5749L67.1032 18.2549C67.128 18.3731 67.1247 18.4955 67.0936 18.6123C67.0624 18.729 67.0043 18.8368 66.9239 18.9269L41.371 44.4679C41.2134 44.625 41.0396 44.5784 40.9822 44.3642Z" fill="#FAFAFA"/>
<path d="M66.48 19.1009C66.4707 19.1052 66.4607 19.1078 66.4505 19.1088C66.4293 19.1052 66.4099 19.0944 66.3956 19.0783C66.3813 19.0622 66.3729 19.0416 66.3719 19.0201L66.332 18.7346L66.1766 18.6764C66.163 18.6706 66.1508 18.6617 66.1412 18.6504C66.1315 18.6392 66.1246 18.6258 66.1209 18.6115C66.1151 18.5889 66.1142 18.5653 66.1184 18.5423C66.1226 18.5193 66.1317 18.4976 66.1452 18.4785L66.3008 18.2704C66.3035 18.2647 66.3052 18.2586 66.3059 18.2524L66.317 17.9399C66.3161 17.9147 66.3226 17.8897 66.3358 17.8681C66.3489 17.8465 66.3681 17.8293 66.391 17.8186C66.4069 17.8138 66.4239 17.8137 66.4399 17.8183C66.4558 17.8229 66.4702 17.8319 66.4811 17.8444L66.5957 17.9801L66.7459 17.87C66.7593 17.8595 66.7757 17.8536 66.7927 17.8533C66.8097 17.8529 66.8264 17.8581 66.8402 17.868C66.859 17.8843 66.8724 17.9059 66.8789 17.93C66.8853 17.954 66.8845 17.9795 66.8764 18.003L66.8055 18.3099C66.8055 18.3153 66.8069 18.3207 66.8097 18.3254L66.9092 18.56C66.9169 18.5816 66.9199 18.6047 66.918 18.6276C66.9161 18.6505 66.9094 18.6727 66.8981 18.6927C66.8911 18.7059 66.8812 18.7172 66.8691 18.7259C66.857 18.7346 66.8431 18.7405 66.8284 18.743L66.6678 18.7644L66.5538 19.0346C66.548 19.0509 66.5382 19.0655 66.5253 19.0771C66.5124 19.0887 66.4969 19.0969 66.48 19.1009ZM66.2352 18.5659L66.389 18.6245C66.4058 18.6316 66.4203 18.6431 66.431 18.6578C66.4417 18.6725 66.4481 18.6899 66.4497 18.7081L66.4755 18.8975L66.5518 18.7106C66.5574 18.6936 66.5675 18.6785 66.5812 18.6669C66.5948 18.6553 66.6114 18.6477 66.6291 18.645L66.7893 18.622C66.7897 18.616 66.7881 18.61 66.7848 18.605L66.6873 18.3715C66.6748 18.3421 66.6725 18.3094 66.6806 18.2785L66.742 18.0108L66.6265 18.095C66.6098 18.1078 66.5888 18.1136 66.5679 18.1111C66.547 18.1086 66.5279 18.098 66.5148 18.0816L66.4225 17.9732L66.4124 18.2522C66.4126 18.2832 66.4026 18.3134 66.3838 18.338L66.2282 18.5461C66.229 18.5531 66.2314 18.5599 66.2352 18.5659Z" fill="#E0E0E0"/>
<g opacity="0.5">
<path d="M67.2438 17.1907C67.2182 17.1978 67.1909 17.1962 67.1662 17.1862C67.1416 17.1761 67.1209 17.1582 67.1075 17.1351C67.0941 17.1121 67.0888 17.0853 67.0922 17.0589C67.0957 17.0325 67.1078 17.008 67.1266 16.9892L67.9256 16.1894C67.9485 16.1685 67.9785 16.157 68.0095 16.1574C68.0404 16.1577 68.0701 16.1698 68.0925 16.1913C68.1142 16.2138 68.1261 16.2439 68.1258 16.2751C68.1254 16.3063 68.1128 16.3361 68.0907 16.3582L67.2916 17.1579C67.2787 17.1726 67.2622 17.1839 67.2438 17.1907Z" fill="#455A64"/>
<path d="M67.3904 17.7371C67.3647 17.7442 67.3374 17.7426 67.3128 17.7326C67.2881 17.7225 67.2675 17.7046 67.2541 17.6815C67.2407 17.6585 67.2353 17.6317 67.2388 17.6053C67.2422 17.5789 67.2543 17.5544 67.2732 17.5356L68.0722 16.7358C68.0949 16.7145 68.1249 16.7028 68.156 16.7032C68.1871 16.7035 68.2169 16.7159 68.2391 16.7377C68.2607 16.7602 68.2727 16.7903 68.2723 16.8215C68.272 16.8527 68.2594 16.8826 68.2372 16.9046L67.4382 17.7044C67.4252 17.7191 67.4088 17.7303 67.3904 17.7371Z" fill="#455A64"/>
<path d="M67.5368 18.2835C67.5112 18.2906 67.4839 18.289 67.4592 18.2789C67.4345 18.2689 67.4139 18.251 67.4005 18.2279C67.3871 18.2049 67.3817 18.1781 67.3852 18.1517C67.3886 18.1253 67.4007 18.1008 67.4196 18.082L68.2186 17.2822C68.2413 17.2609 68.2713 17.2492 68.3024 17.2496C68.3335 17.2499 68.3633 17.2623 68.3855 17.284C68.4072 17.3065 68.4191 17.3367 68.4188 17.3679C68.4184 17.3991 68.4058 17.4289 68.3836 17.4509L67.5846 18.2507C67.5716 18.2654 67.5552 18.2767 67.5368 18.2835Z" fill="#455A64"/>
</g>
<path d="M36.8675 46.6632L37.4532 48.8491L36.7236 48.6535L36.1383 46.4692L36.8675 46.6632Z" fill="#E0E0E0"/>
</g>
<defs>
<clipPath id="clip0_1170_9214">
<rect width="80.3612" height="80.3612" fill="white" transform="translate(0 15.7991) rotate(-15)"/>
</clipPath>
</defs>
</svg>
