<svg width="100" height="56" viewBox="0 0 100 56" fill="none" xmlns="http://www.w3.org/2000/svg">
<g style="mix-blend-mode:luminosity" opacity="0.1" clip-path="url(#clip0_1170_9857)">
<path d="M84.6245 74.346L29.0721 89.2312C28.6364 89.3479 28.1722 89.2868 27.7816 89.0613C27.391 88.8358 27.106 88.4643 26.9893 88.0287L6.06594 9.94178C5.95367 9.5076 6.01744 9.04664 6.24338 8.65924C6.46932 8.27184 6.83914 7.98937 7.27233 7.87332L62.8247 -7.01189C63.0404 -7.06969 63.2654 -7.08444 63.4868 -7.05529C63.7083 -7.02614 63.9218 -6.95366 64.1152 -6.842C64.3086 -6.73033 64.4781 -6.58166 64.6141 -6.40448C64.75 -6.2273 64.8497 -6.02508 64.9075 -5.80936L85.827 72.2631C85.8848 72.4788 85.8996 72.7038 85.8704 72.9253C85.8413 73.1467 85.7688 73.3602 85.6571 73.5536C85.5454 73.747 85.3968 73.9165 85.2196 74.0525C85.0424 74.1885 84.8402 74.2882 84.6245 74.346ZM7.28775 7.93086C6.87159 8.04318 6.51691 8.31585 6.30139 8.68915C6.08586 9.06245 6.02706 9.50595 6.13786 9.92251L27.0612 88.0094C27.1735 88.4255 27.4462 88.7802 27.8195 88.9957C28.1928 89.2113 28.6363 89.2701 29.0528 89.1593L84.6052 74.2741C85.0214 74.1617 85.376 73.8891 85.5916 73.5158C85.8071 73.1425 85.8659 72.699 85.7551 72.2824L64.8318 -5.80447C64.7194 -6.22063 64.4468 -6.57531 64.0735 -6.79083C63.7002 -7.00636 63.2567 -7.06516 62.8401 -6.95435L7.28775 7.93086Z" fill="#EBEBEB"/>
<path d="M146.851 57.6726L91.2984 72.5578C90.8627 72.6746 90.3985 72.6135 90.0079 72.388C89.6173 72.1624 89.3323 71.791 89.2155 71.3553L68.2922 -6.73156C68.1799 -7.16574 68.2437 -7.6267 68.4696 -8.0141C68.6956 -8.4015 69.0654 -8.68397 69.4986 -8.80002L125.051 -23.6852C125.487 -23.802 125.951 -23.7409 126.341 -23.5153C126.732 -23.2898 127.017 -22.9184 127.134 -22.4827L148.053 55.5898C148.17 56.0255 148.109 56.4897 147.883 56.8803C147.658 57.2709 147.286 57.5559 146.851 57.6726ZM69.514 -8.74248C69.0979 -8.63016 68.7432 -8.35749 68.5276 -7.98419C68.3121 -7.61089 68.2533 -7.16739 68.3641 -6.75083L89.2874 71.336C89.3998 71.7522 89.6724 72.1069 90.0457 72.3224C90.419 72.5379 90.8625 72.5967 91.2791 72.4859L146.831 57.6007C147.248 57.4884 147.602 57.2157 147.818 56.8424C148.033 56.4691 148.092 56.0256 147.981 55.6091L127.058 -22.4778C126.946 -22.894 126.673 -23.2486 126.3 -23.4642C125.926 -23.6797 125.483 -23.7385 125.066 -23.6277L69.514 -8.74248Z" fill="#EBEBEB"/>
<path d="M110.04 49.7539C115.07 50.2284 118.275 57.1954 112.701 59.6848C110.612 60.6209 107.795 58.1288 105.439 58.7602C103.083 59.3915 101.971 62.5601 99.6145 63.1914C97.2584 63.8228 94.7081 61.6354 92.3549 62.266C90.0016 62.8966 88.8838 66.0667 86.5277 66.6981C84.1715 67.3294 81.6241 65.1413 79.268 65.7726C76.9118 66.404 75.7969 69.5734 73.4436 70.2039C71.0904 70.8345 68.5373 68.6479 66.1811 69.2792C63.8249 69.9106 62.6344 73.4764 60.3568 73.7105C54.285 74.3415 53.1438 66.6304 57.6958 63.7796L110.04 49.7539Z" fill="#F0F0F0"/>
<path d="M93.7769 42.8448L92.9004 39.5738C92.8679 39.4522 92.7885 39.3485 92.6797 39.2852C92.5709 39.2219 92.4415 39.2043 92.3197 39.2361L91.8738 39.3556C91.7524 39.3889 91.6491 39.4689 91.5865 39.5781C91.5239 39.6873 91.5071 39.8168 91.5397 39.9384L92.4161 43.2094L92.1029 44.3417C91.9297 44.947 91.9245 45.5879 92.0878 46.1958L94.0489 53.5146C94.0914 53.6733 94.1952 53.8086 94.3375 53.8907C94.4798 53.9729 94.6489 53.9952 94.8076 53.9526L97.1091 53.3359C97.2678 53.2934 97.4031 53.1896 97.4852 53.0473C97.5674 52.905 97.5897 52.7359 97.5471 52.5772L95.5869 45.2613C95.4232 44.6532 95.0972 44.1011 94.6439 43.6639L93.7769 42.8448Z" fill="#E0E0E0"/>
<path d="M93.9475 48.7623C94.6412 51.3514 95.2575 53.4557 95.0791 53.5035C94.9008 53.5513 94.189 51.4819 93.4929 48.884C92.7968 46.2862 92.5713 44.0865 92.7496 44.0387C92.928 43.9909 93.2506 46.1616 93.9475 48.7623Z" fill="#F5F5F5"/>
<path d="M92.4899 41.4662C92.735 42.381 92.8418 43.1479 92.7267 43.1787C92.6117 43.2096 92.4991 42.4442 92.254 41.5294C92.0088 40.6145 91.902 39.8476 92.0171 39.8168C92.1321 39.786 92.247 40.5599 92.4899 41.4662Z" fill="#F5F5F5"/>
<path d="M74.6313 49.27L73.8543 46.3701C73.8254 46.2625 73.7551 46.1708 73.6586 46.1151C73.5622 46.0594 73.4475 46.0443 73.3399 46.0731L72.9458 46.1788C72.8382 46.2076 72.7465 46.278 72.6908 46.3744C72.6351 46.4709 72.62 46.5855 72.6489 46.6931L73.4259 49.593L73.1364 50.5955C72.9841 51.1333 72.9799 51.7023 73.1244 52.2422L74.8627 58.7296C74.9003 58.87 74.9921 58.9897 75.118 59.0623C75.2439 59.135 75.3935 59.1547 75.5339 59.1171L77.5678 58.5721C77.6377 58.5538 77.7032 58.5218 77.7607 58.4781C77.8182 58.4344 77.8664 58.3797 77.9027 58.3173C77.939 58.2548 77.9626 58.1858 77.9721 58.1143C77.9816 58.0427 77.9769 57.9699 77.9582 57.9001L76.2207 51.4157C76.0761 50.8753 75.7869 50.3845 75.384 49.9964L74.6313 49.27Z" fill="#E0E0E0"/>
<path d="M74.7769 54.5159C75.3936 56.8174 75.9378 58.6758 75.7796 58.7182C75.6213 58.7606 74.9916 56.9282 74.3741 54.6239C73.7567 52.3195 73.5441 50.3753 73.7138 50.3298C73.8836 50.2843 74.1595 52.2116 74.7769 54.5159Z" fill="#F5F5F5"/>
<path d="M73.4881 48.0591C73.7055 48.8704 73.8007 49.5479 73.6972 49.5757C73.5936 49.6034 73.4955 48.9267 73.2781 48.1154C73.0607 47.3041 72.9677 46.623 73.0683 46.596C73.169 46.569 73.2708 47.2479 73.4881 48.0591Z" fill="#F5F5F5"/>
<path d="M69.6262 47.9933L68.6472 44.3397C68.6102 44.2046 68.5212 44.0896 68.3996 44.0199C68.2781 43.9502 68.134 43.9314 67.9986 43.9677L67.5009 44.1011C67.3656 44.1373 67.2502 44.2257 67.1798 44.3468C67.1094 44.4679 67.0898 44.612 67.1253 44.7475L68.1043 48.4011L67.7434 49.6664C67.549 50.3432 67.5428 51.0602 67.7255 51.7402L69.9148 59.9105C69.9622 60.0875 70.078 60.2384 70.2367 60.3301C70.3954 60.4217 70.584 60.4465 70.761 60.3991L73.3243 59.7123C73.5014 59.6648 73.6523 59.549 73.7439 59.3903C73.8355 59.2316 73.8604 59.043 73.8129 58.866L71.6237 50.6957C71.4419 50.0154 71.0781 49.3976 70.5714 48.9087L69.6262 47.9933Z" fill="#E0E0E0"/>
<path d="M69.8116 54.6007C70.5886 57.5006 71.276 59.8356 71.0746 59.8895C70.8732 59.9435 70.0852 57.6355 69.3082 54.7356C68.5311 51.8357 68.2774 49.3814 68.4759 49.3283C68.6745 49.2751 69.0338 51.6979 69.8116 54.6007Z" fill="#F5F5F5"/>
<path d="M68.1901 46.4633C68.4645 47.4874 68.583 48.3437 68.4535 48.3784C68.324 48.4131 68.1999 47.5583 67.9254 46.5342C67.651 45.51 67.5333 44.6566 67.6599 44.6227C67.7865 44.5888 67.9164 45.442 68.1901 46.4633Z" fill="#F5F5F5"/>
<path d="M100.395 51.0062L99.6483 48.2185C99.6119 48.093 99.6164 47.9591 99.6611 47.8363C99.7058 47.7135 99.7884 47.6081 99.8969 47.5352C100.314 47.2503 100.631 46.8414 100.803 46.3665C100.975 45.8916 100.994 45.3746 100.856 44.8886C100.705 44.3109 100.351 43.8069 99.8588 43.4691L96.5936 44.3441C96.3361 44.8827 96.2815 45.4962 96.4398 46.0719C96.5635 46.5616 96.838 47.0001 97.2245 47.3254C97.611 47.6506 98.09 47.8462 98.5936 47.8844C98.724 47.8932 98.8483 47.9433 98.9484 48.0273C99.0485 48.1113 99.1193 48.225 99.1506 48.3519L99.8975 51.1396C99.9359 51.2831 99.9222 51.4355 99.8589 51.5699C99.7956 51.7043 99.6867 51.8119 99.5515 51.8736C99.0704 52.092 98.772 52.3477 98.8221 52.5347C98.8946 52.8051 99.6277 52.6642 100.511 52.4275C101.394 52.1908 102.102 51.9456 102.03 51.6752C101.98 51.4882 101.593 51.4159 101.068 51.4674C100.919 51.483 100.77 51.4452 100.646 51.3606C100.523 51.2761 100.434 51.1505 100.395 51.0062Z" fill="#F5F5F5"/>
<path d="M96.8478 45.7531C96.8554 45.8215 96.8674 45.8893 96.8837 45.9562C96.9805 46.3521 97.2001 46.7072 97.5111 46.9706C97.822 47.234 98.2084 47.3922 98.6148 47.4226C98.8466 47.4362 99.0679 47.5239 99.2461 47.6728C99.3254 47.4622 99.4693 47.2822 99.6572 47.1587C99.994 46.9292 100.25 46.599 100.387 46.2154C100.525 45.8318 100.537 45.4144 100.423 45.0232C100.404 44.9571 100.38 44.8924 100.353 44.8293L96.8478 45.7531Z" fill="#E0E0E0"/>
<path d="M66.5824 60.0665L65.8355 57.2788C65.7991 57.1533 65.8036 57.0194 65.8483 56.8966C65.893 56.7738 65.9756 56.6684 66.0841 56.5955C66.5012 56.3106 66.8181 55.9017 66.9902 55.4268C67.1623 54.9519 67.1808 54.4349 67.043 53.9489C66.8923 53.3712 66.5383 52.8672 66.046 52.5294L62.7808 53.4044C62.5233 53.943 62.4687 54.5565 62.627 55.1322C62.7507 55.6219 63.0252 56.0604 63.4117 56.3857C63.7982 56.7109 64.2771 56.9065 64.7808 56.9447C64.9112 56.9535 65.0354 57.0036 65.1356 57.0876C65.2357 57.1716 65.3065 57.2853 65.3378 57.4122L66.0847 60.1999C66.1231 60.3434 66.1094 60.4958 66.0461 60.6302C65.9828 60.7646 65.8739 60.8722 65.7387 60.9339C65.2576 61.1523 64.9592 61.408 65.0093 61.595C65.0818 61.8654 65.8149 61.7245 66.6981 61.4878C67.5813 61.2511 68.2895 61.0059 68.2171 60.7355C68.1669 60.5485 67.7807 60.4762 67.2549 60.5277C67.1062 60.5433 66.9569 60.5055 66.8337 60.4209C66.7105 60.3364 66.6214 60.2108 66.5824 60.0665Z" fill="#EBEBEB"/>
<path d="M43.2909 24.4129C43.2909 24.4129 45.5852 18.5563 50.4701 17.2474C55.355 15.9385 59.8128 19.9859 59.8128 19.9859L66.8168 46.1251L50.2949 50.5521L43.2909 24.4129Z" fill="#F5F5F5"/>
<path d="M59.448 20.284C56.5776 18.0067 53.3915 17.1861 50.4485 17.9747C47.5054 18.7633 45.1565 21.067 43.8122 24.4736L50.6335 49.931L66.2693 45.7414L59.448 20.284ZM65.5889 45.1929L50.9169 49.1243L44.3561 24.6393C45.6589 21.5151 47.8799 19.3783 50.6072 18.6475C53.3344 17.9167 56.3292 18.656 59.0166 20.711L65.5889 45.1929Z" fill="#E0E0E0"/>
<path d="M67.4419 46.7007L50.0944 51.349L42.8221 24.2086L42.9017 23.9992C44.338 20.2226 46.9013 17.6487 50.1291 16.7838C53.357 15.9189 56.8637 16.854 59.9989 19.418L60.1696 19.5603L67.4419 46.7007ZM50.6333 49.9311L66.2691 45.7415L59.4478 20.2841C56.5774 18.0068 53.3913 17.1862 50.4483 17.9748C47.5052 18.7634 45.1563 21.0671 43.812 24.4737L50.6333 49.9311Z" fill="#EBEBEB"/>
<path d="M61.5428 46.6749L58.3915 34.9143L62.8507 33.7194L62.5331 32.5342L58.0739 33.729L54.9366 22.0201L59.3957 20.8253L59.2955 20.4513C59.0055 20.2207 58.7131 20.0154 58.4172 19.8202L54.6197 20.8378L53.8651 18.0213C53.5523 17.9818 53.2376 17.9582 52.9211 17.9505L53.7544 21.0604L49.1197 22.3022L48.2864 19.1923C48.0219 19.3557 47.7612 19.5335 47.5043 19.7257L48.2567 22.5335L44.4592 23.551C44.3005 23.8679 44.1507 24.1949 44.0141 24.5367L44.1167 24.9193L48.5758 23.7245L51.7132 35.4334L47.2598 36.6266L47.5789 37.8177L52.0381 36.6228L55.1878 48.3777L56.0509 48.1465L52.8996 36.3858L57.5429 35.1417L60.6941 46.9023L61.5428 46.6749ZM57.2109 33.9603L52.5763 35.2021L49.4389 23.4932L54.0821 22.2491L57.2109 33.9603Z" fill="#E6E6E6"/>
<path d="M86.3222 12.8826C86.3222 12.8826 88.6165 7.02606 93.5014 5.71715C98.3863 4.40824 102.844 8.4556 102.844 8.4556L109.848 34.5948L93.3262 39.0219L86.3222 12.8826Z" fill="#F5F5F5"/>
<path d="M102.479 8.75371C99.6118 6.47563 96.4228 5.65582 93.4798 6.4444C90.5368 7.23299 88.1878 9.53669 86.8435 12.9433L93.6648 38.4007L109.301 34.2111L102.479 8.75371ZM108.629 33.6604L93.9712 37.5879L87.4104 13.1028C88.7103 9.97944 90.9198 7.84569 93.6586 7.11184C96.3974 6.37798 99.3806 7.12034 102.068 9.17532L108.629 33.6604Z" fill="#E0E0E0"/>
<path d="M110.474 35.1701L93.1325 39.8168L85.8603 12.6764L85.9369 12.4677C87.3732 8.69112 89.9366 6.11722 93.1644 5.25233C96.3923 4.38743 99.8989 5.32254 103.034 7.88655L103.205 8.02889L110.474 35.1701ZM93.6772 38.3974L109.313 34.2078L102.492 8.75034C99.6242 6.47226 96.4352 5.65245 93.4922 6.44104C90.5491 7.22962 88.2002 9.53332 86.8559 12.9399L93.6772 38.3974Z" fill="#EBEBEB"/>
<path d="M104.575 35.1444L101.424 23.3838L105.883 22.189L105.565 21.0037L101.106 22.1985L97.9689 10.4897L102.428 9.29484L102.328 8.92085C102.038 8.6902 101.745 8.48489 101.452 8.28897L97.6521 9.30727L96.8974 6.49081C96.5789 6.45282 96.2642 6.42922 95.9534 6.42L96.7867 9.5299L92.155 10.771L91.3217 7.66108C91.0571 7.82447 90.7964 8.00224 90.5395 8.1944L91.2919 11.0022L87.4944 12.0198C87.3386 12.3359 87.1888 12.6628 87.0494 13.0055L87.1519 13.3881L91.611 12.1933L94.7484 23.9021L90.2893 25.0969L90.6084 26.288L95.0675 25.0931L98.2173 36.848L99.0803 36.6168L95.9291 24.8561L100.569 23.6127L103.721 35.3734L104.575 35.1444ZM100.243 22.4298L95.6115 23.6709L92.4741 11.962L97.1145 10.7186L100.243 22.4298Z" fill="#E6E6E6"/>
<path d="M113.638 20.9005C114.505 26.6931 114.077 30.2952 115.418 34.7707L104.766 37.4337C102.609 29.1097 101.841 30.9591 100.507 26.4756C100.027 24.7541 99.4895 22.5639 100.446 22.1505L106.138 19.3455L111.291 19.0132C111.848 18.9757 112.398 19.149 112.833 19.4987C113.268 19.8484 113.555 20.3488 113.638 20.9005Z" fill="#407BFF"/>
<path opacity="0.1" d="M113.638 20.9005C114.505 26.6931 114.077 30.2952 115.418 34.7707L104.766 37.4337C102.609 29.1097 101.841 30.9591 100.507 26.4756C100.027 24.7541 99.4895 22.5639 100.446 22.1505L106.138 19.3455L111.291 19.0132C111.848 18.9757 112.398 19.149 112.833 19.4987C113.268 19.8484 113.555 20.3488 113.638 20.9005Z" fill="black"/>
<path d="M105.629 8.63124C105.84 8.5615 106.066 8.54398 106.285 8.58017C106.505 8.61636 106.713 8.70518 106.89 8.83905C106.945 8.88004 107.035 10.4159 106.727 10.5323C106.013 10.8036 105.244 10.9039 104.484 10.8251C104.344 10.8091 104.203 10.8127 104.064 10.8358C103.929 10.872 103.42 11.6774 103.367 11.9969C103.325 12.3171 103.325 12.6415 103.37 12.9614C103.387 13.0638 103.386 13.1686 103.366 13.2707C103.343 13.3664 103.338 13.451 103.241 13.4707C103.195 13.7799 103.243 14.0957 103.379 14.3772C103.517 14.6568 103.681 14.9225 103.869 15.1709L104.261 15.7134C104.161 15.7404 102.827 15.5613 102.363 15.5344C101.591 14.8968 101.054 14.0194 100.838 13.0415C100.766 12.7711 100.563 11.9097 100.631 11.6355C100.66 11.4975 100.721 11.3685 100.811 11.2596C100.901 11.1508 101.015 11.0653 101.145 11.0106C100.787 10.3635 101.325 10.0373 101.92 9.60032C102.516 9.16334 103.286 9.04634 104.023 8.99059C104.571 8.93404 105.11 8.81343 105.629 8.63124Z" fill="#263238"/>
<path d="M102.532 23.6912C101.886 21.2096 98.5295 22.1026 98.7419 24.5063C98.7481 24.5293 98.7542 24.5523 98.7596 24.5725C99.0175 27.0194 101.322 32.4793 102.344 34.4966C102.577 34.964 102.986 35.3202 103.48 35.4874C103.975 35.6546 104.516 35.6193 104.985 35.3892L111.33 32.3016L110.119 29.2002L105.87 30.9709C105.776 31.0099 105.674 31.029 105.572 31.0268C105.47 31.0247 105.369 31.0014 105.277 30.9584C105.184 30.9154 105.101 30.8537 105.034 30.7771C104.966 30.7006 104.915 30.6108 104.884 30.5135L102.532 23.6912Z" fill="#407BFF"/>
<path d="M82.7269 29.3464C80.7013 28.4954 79.9978 29.9666 78.0322 29.4665C77.0796 29.2254 76.6105 29.5576 77.0421 28.7174L77.0375 28.7001C77.3435 27.993 77.5493 27.2467 77.649 26.4827C77.7618 25.5374 77.6374 24.5788 77.287 23.6936C77.1106 23.2039 77.1041 22.6691 77.2687 22.1753C78.2477 22.0888 79.4005 21.6041 80.0518 22.3546C80.6352 23.2462 81.0839 24.219 81.3834 25.2416L80.7638 25.0006C81.2014 25.5863 81.5756 25.9702 81.8901 26.3268C82.403 26.8832 82.479 28.2257 82.7269 29.3464Z" fill="#263238"/>
<path d="M77.1855 32.5458C77.7472 31.5813 76.6131 28.108 76.6131 28.108L79.1638 29.0772C79.1638 29.0772 79.8163 31.2365 80.4391 31.5352C80.5876 31.6064 80.7481 31.4802 80.8979 31.4524L80.8955 32.042L80.6509 32.8321L80.178 33.3689L79.3454 33.5642L78.5494 33.5278L77.553 33.1349L76.7228 32.7407C76.8785 32.6774 77.1026 32.6852 77.1855 32.5458Z" fill="#EEC8C0"/>
<path opacity="0.1" d="M79.4512 29.6508C77.958 29.832 77.1266 29.2377 76.6851 28.7177L76.6086 28.1215L79.1593 29.0908L79.4512 29.6508Z" fill="black"/>
<path d="M81.0925 25.9516L81.1026 25.989C81.1349 26.1099 81.1681 26.2336 81.1845 26.3525C81.205 26.466 81.2192 26.5806 81.2272 26.6957C81.2576 27.2865 81.0673 27.8675 80.6931 28.3256C80.3188 28.7838 79.7876 29.0864 79.2026 29.1745L79.1825 29.1799C78.6814 29.2624 78.1672 29.2061 77.6958 29.0171C77.4705 28.9331 77.254 28.8268 77.0497 28.7C76.9277 28.6227 76.8118 28.5362 76.7029 28.4414L76.6383 28.3847C76.5642 28.3151 76.4966 28.2469 76.4303 28.1722C76.3957 28.1352 76.3632 28.0945 76.3308 28.0539C76.3287 28.0483 76.3272 28.0425 76.3262 28.0367L76.2597 27.9496C75.9893 27.5693 75.7481 27.1691 75.538 26.7524C75.5272 26.7121 75.4955 26.6743 75.4725 26.6343L75.4593 26.5854C75.3713 26.4178 75.2801 26.2387 75.1786 26.0439C74.9678 25.6578 74.8573 25.2249 74.8573 24.785C74.8573 24.3451 74.9678 23.9122 75.1786 23.5261C75.3894 23.14 75.6938 22.813 76.0639 22.5752C76.4339 22.3373 76.8578 22.1962 77.2966 22.1648L77.4179 22.157C78.3485 22.1204 79.1451 22.6192 79.7714 23.3456C79.8353 23.4155 79.8952 23.489 79.9507 23.5658C79.9727 23.5907 79.992 23.6164 80.0112 23.6421C80.2179 23.9263 80.4015 24.2267 80.5602 24.5402C80.5675 24.5619 80.5734 24.584 80.5779 24.6064C80.6862 24.8152 80.7801 25.0311 80.859 25.2526C80.9518 25.4803 81.0299 25.7138 81.0925 25.9516Z" fill="#EEC8C0"/>
<path d="M79.7126 24.6471C79.7757 24.7906 79.7523 24.9448 79.6574 24.9703C79.5624 24.9957 79.4342 24.9314 79.3675 24.7859C79.341 24.7372 79.3287 24.6821 79.3318 24.6268C79.335 24.5715 79.3535 24.5181 79.3853 24.4728L79.3997 24.4689L79.686 24.2257C79.686 24.2257 79.6607 24.3959 79.5614 24.4626C79.6318 24.5046 79.6853 24.5699 79.7126 24.6471Z" fill="#263238"/>
<path d="M79.3283 25.1201C79.6495 25.3333 79.9985 25.5013 80.3655 25.6192C80.3329 25.7129 80.2805 25.7984 80.2119 25.87C80.1433 25.9415 80.06 25.9975 79.9679 26.0341L79.3283 25.1201Z" fill="#ED893E"/>
<path d="M77.3825 25.2221C77.4012 25.2167 77.4177 25.2055 77.4296 25.1901C77.4416 25.1747 77.4483 25.1559 77.449 25.1365C77.4745 24.9869 77.5307 24.8442 77.614 24.7174C77.6973 24.5906 77.8058 24.4823 77.9329 24.3994C77.9535 24.386 77.9682 24.3652 77.9739 24.3413C77.9795 24.3174 77.9757 24.2922 77.9632 24.271C77.9506 24.2504 77.9303 24.2356 77.9068 24.2298C77.8834 24.224 77.8586 24.2276 77.8377 24.2399C77.6846 24.3357 77.5541 24.4635 77.4552 24.6146C77.3562 24.7657 77.2911 24.9364 77.2644 25.115C77.2638 25.1269 77.2655 25.1388 77.2696 25.15C77.2736 25.1612 77.2799 25.1715 77.288 25.1803C77.2961 25.189 77.3058 25.1961 77.3167 25.201C77.3276 25.2059 77.3393 25.2086 77.3512 25.2089L77.3825 25.2221Z" fill="#263238"/>
<path d="M79.9515 23.5688C79.9675 23.5648 79.9821 23.5564 79.9936 23.5446C80.0051 23.5328 80.0132 23.5181 80.0168 23.502C80.0203 23.4902 80.0214 23.4778 80.02 23.4655C80.0186 23.4533 80.0148 23.4414 80.0087 23.4307C80.0027 23.42 79.9946 23.4106 79.9848 23.403C79.9751 23.3955 79.964 23.3899 79.952 23.3868C79.8103 23.3422 79.6597 23.3337 79.5138 23.362C79.368 23.3903 79.2315 23.4546 79.1167 23.5489C79.0989 23.5638 79.0875 23.585 79.0851 23.6081C79.0826 23.6312 79.0893 23.6544 79.1036 23.6727C79.1197 23.6906 79.1422 23.7016 79.1662 23.7032C79.1903 23.7048 79.214 23.697 79.2324 23.6813C79.3246 23.6111 79.4322 23.5638 79.5463 23.5434C79.6604 23.523 79.7777 23.5301 79.8886 23.5641C79.9086 23.5718 79.9305 23.5734 79.9515 23.5688Z" fill="#263238"/>
<path d="M78.1011 25.409C78.1671 25.5516 78.1408 25.7067 78.0497 25.7465C77.9586 25.7863 77.8286 25.704 77.759 25.5592C77.6894 25.4144 77.7251 25.26 77.8162 25.2201L77.8363 25.2147L78.0893 25.0082C78.0735 25.0961 78.0304 25.1767 77.966 25.2386C78.0288 25.2787 78.0764 25.3387 78.1011 25.409Z" fill="#263238"/>
<path d="M76.206 38.6018L75.7739 41.7764C75.6501 42.7068 76.3615 43.8544 76.9691 44.6259C78.3443 46.3634 80.49 49.1123 80.49 49.1123C80.4453 49.889 79.1685 50.0492 79.1685 50.0492C79.1685 50.0492 76.031 47.2237 74.2066 44.1204C72.9958 42.0644 73.214 36.6531 74.0807 34.4444C74.3446 33.7724 75.432 32.4913 75.432 32.4913L76.8337 38.7697L76.206 38.6018Z" fill="#EEC8C0"/>
<path d="M79.7862 48.8788L80.8533 49.2249C80.8896 49.2352 80.923 49.2537 80.951 49.2789L82.0056 50.165C82.0612 50.2122 82.0975 50.2782 82.1077 50.3504L82.1723 50.8449C82.1792 50.8841 82.1762 50.9243 82.1638 50.9621C82.1513 50.9999 82.1297 51.034 82.1008 51.0614L81.0049 52.092C80.978 52.1147 80.9469 52.1318 80.9133 52.1423C80.8798 52.1529 80.8445 52.1566 80.8094 52.1534C80.7744 52.1501 80.7404 52.14 80.7093 52.1234C80.6783 52.1069 80.6509 52.0844 80.6286 52.0571L79.4775 50.753C79.4558 50.7262 79.4376 50.6969 79.4233 50.6657L79.0107 49.6323C78.9902 49.5834 78.9851 49.5294 78.9959 49.4775C79.0068 49.4256 79.0332 49.3782 79.0715 49.3416L79.5446 48.9435C79.5758 48.9127 79.6145 48.8906 79.6568 48.8792C79.6992 48.8678 79.7438 48.8677 79.7862 48.8788Z" fill="#EEC8C0"/>
<path d="M86.9728 46.4718L78.5189 47.0041C78.5189 47.0041 79.1962 44.6642 75.4849 37.5801C73.786 34.3352 74.6882 32.1324 77.325 31.1792C77.4477 31.1309 77.5699 31.092 77.6978 31.0516C78.781 30.7212 80.4057 31.2264 81.4387 31.6526C81.4387 31.6526 81.4387 31.6526 81.4531 31.6487C81.7977 31.8647 82.1363 32.1039 82.5299 32.3531C85.7685 34.4053 84.1596 37.2846 86.1697 43.9119C86.1851 43.9694 86.2013 44.0298 86.2175 44.0902C86.3997 44.9045 86.6524 45.7013 86.9728 46.4718Z" fill="#EEC8C0"/>
<path d="M76.0034 21.0899C75.7209 21.0752 75.4386 21.1222 75.1762 21.2277C74.9137 21.3332 74.6773 21.4946 74.4835 21.7006C74.0985 22.1134 73.8167 22.6116 73.6613 23.1543C73.294 24.4794 73.3735 25.8885 73.8877 27.1638C74.3993 28.2909 75.7651 29.8551 77.1577 29.6208C75.7147 27.2046 76.1528 23.569 76.2108 21.0466C76.1508 21.0874 76.0801 21.0539 76.0034 21.0899Z" fill="#263238"/>
<path d="M75.2929 27.6199C75.5445 27.8864 75.8912 28.0428 76.2575 28.0552C76.7438 28.0636 76.8622 27.5848 76.6288 27.1971C76.4133 26.8417 75.9017 26.4053 75.4597 26.5854C75.3078 26.6512 75.1882 26.7747 75.1271 26.9286C75.066 27.0825 75.0685 27.2544 75.134 27.4065C75.1715 27.4879 75.2256 27.5606 75.2929 27.6199Z" fill="#EEC8C0"/>
<path d="M76.5164 20.9125C78.1723 20.8666 79.6265 21.1614 80.624 23.2961C80.2163 23.3283 79.9365 23.5728 79.5928 23.9702C79.0869 23.4013 78.4114 23.0104 77.666 22.8553C77.6156 23.3807 77.5645 23.9032 77.5192 24.4364C77.49 24.7186 77.515 25.341 77.515 25.341C77.095 25.4607 76.6832 25.6071 76.2819 25.7793C76.2819 25.7793 75.4174 23.9913 75.5375 22.587C75.5903 21.9901 75.6786 21.3528 76.0948 20.9268L76.5164 20.9125Z" fill="#263238"/>
<path d="M86.1721 43.9206C86.1868 43.9752 86.203 44.0357 86.2184 44.0932C84.2668 45.6706 79.8111 45.5664 78.2782 45.5301C78.2142 45.2913 78.1409 45.018 78.06 44.7159C78.5871 44.2664 79.34 43.8426 79.6796 43.545C80.9397 42.4546 81.8541 41.0201 82.3107 39.4174C82.9285 37.1891 82.8547 34.3937 81.6418 32.4215C81.0974 31.5406 79.8818 31.2157 78.9201 31.125C78.577 31.0874 77.4778 31.2771 77.3207 31.1743C77.2991 31.0937 77.2205 30.8003 77.3368 30.7969C79.5644 30.6872 80.5261 31.077 81.4547 31.6545C81.7994 31.8705 83.1332 32.913 83.5268 33.1621C86.767 35.2201 84.1735 37.2902 86.1721 43.9206Z" fill="#263238"/>
<path opacity="0.3" d="M86.1721 43.9206C86.1868 43.9752 86.203 44.0357 86.2184 44.0932C84.2668 45.6706 79.8111 45.5664 78.2782 45.5301C78.2142 45.2913 78.1409 45.018 78.06 44.7159C78.5871 44.2664 79.34 43.8426 79.6796 43.545C80.9397 42.4546 81.8541 41.0201 82.3107 39.4174C82.9285 37.1891 82.8547 34.3937 81.6418 32.4215C81.0974 31.5406 79.8818 31.2157 78.9201 31.125C78.577 31.0874 77.4778 31.2771 77.3207 31.1743C77.2991 31.0937 77.2205 30.8003 77.3368 30.7969C79.5644 30.6872 80.5261 31.077 81.4547 31.6545C81.7994 31.8705 83.1332 32.913 83.5268 33.1621C86.767 35.2201 84.1735 37.2902 86.1721 43.9206Z" fill="white"/>
<path d="M84.7161 58.8953C84.7161 58.8953 84.6654 60.0066 84.5785 61.7073C84.5803 61.7181 84.5832 61.7287 84.5869 61.7389C84.5212 62.9437 84.4446 64.4412 84.3515 66.0386C84.1729 69.1237 84.2698 71.4874 84.0312 73.9687C83.7626 76.8558 80.7458 88.2896 79.9039 91.1084C79.7233 91.7118 79.5688 92.3205 79.4354 92.939L79.3019 93.5915L77.5695 92.995L77.6936 92.1231C77.7368 91.686 79.2358 77.1653 79.2448 73.2747C79.2404 68.0341 77.7534 59.7342 77.9866 54.0106C78.0065 53.4749 78.0461 52.9555 78.096 52.4395C78.096 52.4395 84.2817 55.3178 84.6642 55.5946C85.0467 55.8713 84.7161 58.8953 84.7161 58.8953Z" fill="#EEC8C0"/>
<path opacity="0.1" d="M78.4201 62.343C78.4201 62.343 80.208 63.7448 84.5304 62.6267L84.5925 61.4199L84.395 59.6012L84.3646 58.9125C84.3646 58.9125 79.6009 56.1743 78.4201 62.343Z" fill="black"/>
<path d="M88.9562 54.0251C89.814 57.9857 91.7844 65.7305 92.4169 69.7483C93.1436 74.3822 95.0726 90.7872 95.0726 90.7872L93.141 91.1043C93.141 91.1043 88.9808 78.8462 88.1684 72.2126C87.9203 70.136 85.7182 64.9324 84.5449 61.7964C84.5383 61.784 84.5346 61.7702 84.5341 61.7561C83.5342 59.0948 82.6987 56.966 82.6987 56.966C82.6987 56.966 80.5623 56.7491 78.9706 55.4119C78.5113 55.0475 78.1269 54.5977 77.8386 54.0872C77.7076 53.8557 77.599 53.6122 77.5143 53.36C76.4721 50.2876 78.3575 46.9673 78.3575 46.9673L86.7724 46.4731C86.7724 46.4731 88.5316 52.0607 88.9562 54.0251Z" fill="#EEC8C0"/>
<path d="M90.6077 59.5277C90.6077 59.5277 85.089 60.5655 82.4746 61.5219C77.5187 63.337 76.1154 61.4714 76.1154 61.4714C76.1154 61.4714 78.2162 60.52 76.8923 52.7252C76.5725 50.8529 77.5038 48.6208 78.041 47.5302C78.2535 46.8774 78.3239 46.1868 78.2475 45.5046L86.1399 43.8893L86.7167 45.8346C86.7167 45.8346 87.7914 48.6948 88.0169 49.433C88.8409 52.1168 90.6077 59.5277 90.6077 59.5277Z" fill="#263238"/>
<path opacity="0.3" d="M90.6077 59.5277C90.6077 59.5277 85.089 60.5655 82.4746 61.5219C77.5187 63.337 76.1154 61.4714 76.1154 61.4714C76.1154 61.4714 78.2162 60.52 76.8923 52.7252C76.5725 50.8529 77.5038 48.6208 78.041 47.5302C78.2535 46.8774 78.3239 46.1868 78.2475 45.5046L86.1399 43.8893L86.7167 45.8346C86.7167 45.8346 87.7914 48.6948 88.0169 49.433C88.8409 52.1168 90.6077 59.5277 90.6077 59.5277Z" fill="white"/>
<path opacity="0.1" d="M79.8307 32.4846C78.7663 31.7461 80.548 38.5333 84.2503 40.1529C86.5212 41.1478 85.2421 36.2364 79.8307 32.4846Z" fill="black"/>
<path d="M78.8602 32.7075C79.0386 33.1224 79.2379 33.528 79.4572 33.9228C83.5969 40.2353 86.6447 37.732 87.1343 36.7745C87.3367 35.4468 85.8628 30.2916 84.7795 28.4235L84.0036 29.1987C83.8791 29.9536 85.4282 35.804 84.5828 34.8126C84.5828 34.8126 82.3388 33.089 82.0136 32.4854C81.7629 32.016 81.3695 31.6385 80.8902 31.4072C80.4109 31.176 79.8705 31.103 79.3471 31.1988C79.0978 31.3495 78.9113 31.5851 78.8219 31.8622C78.7325 32.1394 78.7461 32.4396 78.8602 32.7075Z" fill="#EEC8C0"/>
<path d="M84.3476 29.2021C83.3856 29.2255 82.5946 28.4138 82.5946 28.4138L84.0679 26.6623L84.7674 28.4329L84.3476 29.2021Z" fill="#EEC8C0"/>
<path d="M84.0878 26.66L82.6146 28.4114L81.3168 26.5946L82.7633 25.7445L84.0878 26.66Z" fill="#EEC8C0"/>
<path d="M79.7968 26.9833C79.8665 27.1281 80.0014 27.206 80.0946 27.1625C80.1878 27.1191 80.2068 26.9598 80.138 26.8179C80.0691 26.676 79.9334 26.5952 79.8402 26.6387C79.747 26.6822 79.7243 26.8393 79.7968 26.9833Z" fill="#263238"/>
<path d="M112.89 50.6186L116.072 71.5042C116.301 72.9691 115.185 74.4457 113.49 74.9554L84.9375 82.6061C82.9237 83.1457 80.9865 82.1416 80.7174 80.4469L77.5355 59.5614C77.3 58.0612 78.4729 56.5351 80.2393 56.0618L108.666 48.445C108.71 48.4301 108.755 48.418 108.801 48.4088C110.761 47.9792 112.627 48.9592 112.89 50.6186Z" fill="#407BFF"/>
<path opacity="0.5" d="M112.89 50.6186L116.072 71.5042C116.301 72.9691 115.185 74.4457 113.49 74.9554L84.9375 82.6061C82.9237 83.1457 80.9865 82.1416 80.7174 80.4469L77.5355 59.5614C77.3 58.0612 78.4729 56.5351 80.2393 56.0618L108.666 48.445C108.71 48.4301 108.755 48.418 108.801 48.4088C110.761 47.9792 112.627 48.9592 112.89 50.6186Z" fill="white"/>
<path d="M93.3327 62.7318C96.1896 62.469 98.9907 61.7777 101.642 60.6811C101.642 60.6811 107.425 70.8731 99.2834 73.0301C96.2771 73.8356 94.7064 72.8874 92.4563 72.2231C87.334 70.7126 82.6799 67.7508 81.0137 68.4254C78.6179 69.4035 80.7611 72.0051 72.6817 82.7727L70.1192 81.4489C70.1192 81.4489 73.298 62.3803 78.3815 61.0182C82.7917 59.8365 91.5528 64.7659 92.4882 64.5399C93.4236 64.3139 93.3327 62.7318 93.3327 62.7318Z" fill="#407BFF"/>
<path d="M81.1997 52.1443C81.1997 52.1443 80.2353 51.0306 80.5397 50.6591C80.8441 50.2877 80.8668 50.6486 80.8668 50.6486L82.0762 52.0204L81.1997 52.1443Z" fill="#7F3E3B"/>
<path d="M80.5743 53.7921C80.2094 53.8344 80.1003 53.5768 79.8324 53.3249C79.8324 53.3249 78.9689 52.2427 79.3461 51.9474C79.7769 51.7818 80.2188 51.6469 80.6687 51.5437C80.9821 51.4808 81.3075 51.5204 81.5966 51.6567C81.8858 51.793 82.1235 52.0187 82.2744 52.3005C83.0285 53.5384 80.5743 53.7921 80.5743 53.7921Z" fill="#7F3E3B"/>
<path d="M81.0582 53.5358L83.5193 55.8395L85.1507 55.0694L82.3676 52.9105L81.0582 53.5358Z" fill="#7F3E3B"/>
<path d="M89.4568 49.3709C89.4568 49.3709 87.3872 49.8176 87.6674 54.0161C87.8721 57.0817 87.6908 56.7849 87.6908 56.7849L83.2273 53.1646L81.5535 54.421C81.5535 54.421 87.3757 60.9826 89.1712 59.8355C89.1712 59.8355 90.1679 59.516 90.4837 57.6338C90.7995 55.7515 89.4568 49.3709 89.4568 49.3709Z" fill="#407BFF"/>
<path d="M89.4568 49.3709C89.4568 49.3709 87.3872 49.8176 87.6674 54.0161C87.8721 57.0817 87.6908 56.7849 87.6908 56.7849L83.2273 53.1646L81.5535 54.421C81.5535 54.421 87.3757 60.9826 89.1712 59.8355C89.1712 59.8355 90.1679 59.516 90.4837 57.6338C90.7995 55.7515 89.4568 49.3709 89.4568 49.3709Z" fill="#263238"/>
<path d="M88.3151 52.8311C88.5442 53.778 87.4694 56.2799 89.5799 57.1944C89.381 58.0402 90.1289 63.3745 91.0221 64.165C91.0221 64.165 97.7251 63.3927 102.214 61.8816C102.035 59.9376 100.211 56.2852 100.287 49.8822C100.291 49.5319 100.222 49.1847 100.083 48.863C99.9447 48.5413 99.7399 48.2523 99.4824 48.0149C99.2248 47.7775 98.9202 47.5968 98.5883 47.4847C98.2564 47.3726 97.9047 47.3315 97.5559 47.3641C97.1613 47.399 96.7431 47.4493 96.3186 47.5107C94.8355 47.6942 93.3676 47.9845 91.9262 48.3793C91.4544 48.5057 90.9783 48.6734 90.5207 48.8299C89.7207 49.1023 89.0513 49.6635 88.6433 50.4035C88.2354 51.1436 88.1184 52.0093 88.3151 52.8311Z" fill="#263238"/>
<path opacity="0.2" d="M97.4692 53.9549C97.3458 52.1363 97.4071 50.3099 97.6521 48.5037L98.0674 49.5703L98.5532 49.9335C98.4391 51.9128 102.34 54.1114 99.9831 59.2631C99.9268 59.3849 99.8329 59.4853 99.7152 59.5495C99.5976 59.6138 99.4623 59.6386 99.3295 59.6202C97.7018 59.4027 95.5655 57.9431 95.5655 57.9431L95.8094 55.781C96.9725 55.9905 97.5887 55.517 97.4692 53.9549Z" fill="black"/>
<path d="M90.3914 56.422L91.6806 56.1012C91.7405 56.0882 91.7964 56.0613 91.8439 56.0227C91.8914 55.9841 91.9292 55.9348 91.9541 55.8789C91.9791 55.823 91.9905 55.762 91.9875 55.7008C91.9845 55.6397 91.9671 55.5801 91.9368 55.5269L90.3855 52.338C90.3205 52.2131 90.2162 52.1129 90.0888 52.0529C89.9613 51.9929 89.8176 51.9764 89.6799 52.006L88.3935 52.326C88.3333 52.3381 88.2769 52.3643 88.2288 52.4024C88.1807 52.4406 88.1424 52.4897 88.117 52.5456C88.0916 52.6015 88.0799 52.6626 88.0828 52.7239C88.0857 52.7852 88.1031 52.845 88.1337 52.8982L89.6923 56.0913C89.7572 56.2148 89.8605 56.3138 89.9866 56.3734C90.1127 56.4331 90.2548 56.4501 90.3914 56.422Z" fill="#263238"/>
<path opacity="0.3" d="M90.3914 56.422L91.6806 56.1012C91.7405 56.0882 91.7964 56.0613 91.8439 56.0227C91.8914 55.9841 91.9292 55.9348 91.9541 55.8789C91.9791 55.823 91.9905 55.762 91.9875 55.7008C91.9845 55.6397 91.9671 55.5801 91.9368 55.5269L90.3855 52.338C90.3205 52.2131 90.2162 52.1129 90.0888 52.0529C89.9613 51.9929 89.8176 51.9764 89.6799 52.006L88.3935 52.326C88.3333 52.3381 88.2769 52.3643 88.2288 52.4024C88.1807 52.4406 88.1424 52.4897 88.117 52.5456C88.0916 52.6015 88.0799 52.6626 88.0828 52.7239C88.0857 52.7852 88.1031 52.845 88.1337 52.8982L89.6923 56.0913C89.7572 56.2148 89.8605 56.3138 89.9866 56.3734C90.1127 56.4331 90.2548 56.4501 90.3914 56.422Z" fill="white"/>
<path d="M90.1953 56.4713L91.4846 56.1505C91.5448 56.1379 91.6011 56.1113 91.6491 56.0728C91.697 56.0343 91.7352 55.985 91.7604 55.9289C91.7857 55.8728 91.7973 55.8116 91.7944 55.7501C91.7915 55.6887 91.7741 55.6288 91.7436 55.5754L90.1895 52.3873C90.1241 52.2624 90.0198 52.1621 89.8923 52.1017C89.7649 52.0412 89.6212 52.024 89.483 52.0524L88.1938 52.3732C88.1336 52.3858 88.0772 52.4125 88.0293 52.451C87.9814 52.4895 87.9432 52.5388 87.918 52.5949C87.8927 52.6509 87.881 52.7122 87.884 52.7736C87.8869 52.835 87.9043 52.8949 87.9347 52.9483L89.4912 56.145C89.5578 56.268 89.6623 56.3662 89.7892 56.4249C89.916 56.4837 90.0585 56.5 90.1953 56.4713Z" fill="#263238"/>
<path opacity="0.7" d="M90.1953 56.4713L91.4846 56.1505C91.5448 56.1379 91.6011 56.1113 91.6491 56.0728C91.697 56.0343 91.7352 55.985 91.7604 55.9289C91.7857 55.8728 91.7973 55.8116 91.7944 55.7501C91.7915 55.6887 91.7741 55.6288 91.7436 55.5754L90.1895 52.3873C90.1241 52.2624 90.0198 52.1621 89.8923 52.1017C89.7649 52.0412 89.6212 52.024 89.483 52.0524L88.1938 52.3732C88.1336 52.3858 88.0772 52.4125 88.0293 52.451C87.9814 52.4895 87.9432 52.5388 87.918 52.5949C87.8927 52.6509 87.881 52.7122 87.884 52.7736C87.8869 52.835 87.9043 52.8949 87.9347 52.9483L89.4912 56.145C89.5578 56.268 89.6623 56.3662 89.7892 56.4249C89.916 56.4837 90.0585 56.5 90.1953 56.4713Z" fill="white"/>
<path d="M89.8832 53.0121L89.7595 53.0453C89.6672 53.0647 89.5711 53.0531 89.4861 53.0123C89.401 52.9716 89.3318 52.9039 89.289 52.8199L89.23 52.7031C89.2096 52.6672 89.198 52.627 89.1961 52.5858C89.1942 52.5446 89.2021 52.5035 89.2191 52.4659C89.236 52.4283 89.2616 52.3953 89.2938 52.3694C89.326 52.3436 89.3637 52.3257 89.4041 52.3173L89.5278 52.2841C89.6197 52.2652 89.7152 52.2767 89.7999 52.3168C89.8847 52.357 89.954 52.4236 89.9976 52.5067L90.0574 52.6263C90.0777 52.6622 90.0893 52.7024 90.0912 52.7436C90.0931 52.7848 90.0853 52.8259 90.0683 52.8635C90.0513 52.901 90.0257 52.9341 89.9936 52.9599C89.9614 52.9858 89.9236 53.0037 89.8832 53.0121Z" fill="#263238"/>
<path d="M89.4412 52.5079C89.4584 52.5432 89.487 52.5716 89.5224 52.5885C89.5578 52.6054 89.5979 52.6098 89.6361 52.6009C89.6527 52.5975 89.6683 52.5902 89.6815 52.5797C89.6948 52.5691 89.7054 52.5555 89.7124 52.5401C89.7194 52.5247 89.7226 52.5078 89.7219 52.4908C89.7211 52.4739 89.7164 52.4574 89.708 52.4426C89.6904 52.4077 89.6618 52.3796 89.6265 52.3627C89.5912 52.3459 89.5513 52.3413 89.5131 52.3496C89.4965 52.353 89.4809 52.3603 89.4677 52.3709C89.4544 52.3814 89.4438 52.395 89.4368 52.4104C89.4298 52.4259 89.4266 52.4428 89.4273 52.4597C89.4281 52.4767 89.4329 52.4932 89.4412 52.5079Z" fill="#263238"/>
<path d="M89.6069 52.8768C89.6259 52.9111 89.6552 52.9386 89.6908 52.9551C89.7263 52.9717 89.7662 52.9766 89.8047 52.969C89.8213 52.9651 89.8368 52.9574 89.8499 52.9465C89.863 52.9356 89.8735 52.9217 89.8803 52.9061C89.8872 52.8905 89.8904 52.8735 89.8896 52.8564C89.8888 52.8394 89.8841 52.8227 89.8758 52.8078C89.8571 52.7739 89.8283 52.7466 89.7933 52.73C89.7584 52.7133 89.7191 52.708 89.681 52.7148C89.664 52.7183 89.6481 52.7258 89.6345 52.7366C89.6209 52.7474 89.6101 52.7613 89.6029 52.7771C89.5957 52.7928 89.5923 52.8101 89.593 52.8274C89.5937 52.8447 89.5985 52.8616 89.6069 52.8768Z" fill="#263238"/>
<path d="M91.9203 55.7994L94.41 57.2198L94.9075 55.6126L92.4256 54.6125L91.9203 55.7994Z" fill="#7F3E3B"/>
<path d="M100.75 51.2013C100.655 50.0087 100.063 47.6851 98.7472 47.5721C97.2113 47.4441 97.4017 49.6624 97.6152 51.6557C97.8286 53.649 97.8685 56.1914 97.3486 56.0809C96.2632 55.8507 94.2965 55.1967 94.2965 55.1967L93.7053 57.0294C93.7053 57.0294 98.2326 59.8402 99.5999 58.5334C101.145 57.0618 100.868 52.7143 100.75 51.2013Z" fill="#263238"/>
<path d="M94.3984 44.6549C94.4644 45.714 94.7529 46.7472 95.2449 47.6873C95.2449 47.6873 92.0426 51.1909 91.362 48.6507C91.362 48.6507 92.6002 48.4731 92.2913 46.9062C92.1153 46.0191 92.7898 44.8886 94.3984 44.6549Z" fill="#7F3E3B"/>
<path opacity="0.2" d="M92.2905 46.9093C92.1782 46.076 92.7029 45.0536 94.0635 44.7229L94.175 44.7824L94.317 44.9325C94.317 44.9325 94.0482 47.3818 92.3051 47.5621C92.3282 47.3448 92.3233 47.1254 92.2905 46.9093Z" fill="black"/>
<path d="M94.4804 41.3983C94.7547 43.5726 94.9024 44.492 94.0183 45.7957C92.6946 47.76 89.9532 47.6096 89.0445 45.5528C88.2244 43.7005 87.9335 40.4515 89.882 39.2078C90.3099 38.9275 90.8028 38.762 91.3132 38.7275C91.8237 38.6929 92.3344 38.7904 92.7962 39.0106C93.258 39.2308 93.6553 39.5662 93.9498 39.9846C94.2443 40.4029 94.426 40.8901 94.4775 41.3991L94.4804 41.3983Z" fill="#7F3E3B"/>
<path d="M90.1095 43.8058C90.0269 44.2353 89.8863 44.6516 89.6918 45.0432C89.7924 45.0912 89.9025 45.1164 90.014 45.1169C90.1256 45.1174 90.2359 45.0932 90.337 45.0461L90.1095 43.8058Z" fill="#630F0F"/>
<path d="M91.6977 42.2428C91.7115 42.2362 91.7237 42.2266 91.7334 42.2148C91.7472 42.1964 91.7534 42.1735 91.7508 42.1506C91.7481 42.1278 91.7367 42.1069 91.719 42.0922C91.592 41.9897 91.4421 41.9194 91.2821 41.8871C91.1221 41.8548 90.9567 41.8616 90.7998 41.9068C90.7785 41.9156 90.7612 41.9321 90.7514 41.953C90.7416 41.9739 90.74 41.9977 90.7468 42.0197C90.7554 42.0403 90.7714 42.0569 90.7916 42.0663C90.8118 42.0758 90.8348 42.0773 90.8561 42.0706C90.9866 42.0359 91.1235 42.0322 91.2557 42.06C91.3879 42.0878 91.5118 42.1461 91.6173 42.2305C91.6287 42.239 91.642 42.2446 91.656 42.2467C91.67 42.2489 91.6843 42.2475 91.6977 42.2428Z" fill="#263238"/>
<path d="M88.4805 42.6855C88.495 42.6811 88.5078 42.6723 88.517 42.6603C88.5987 42.5538 88.7045 42.4682 88.8257 42.4105C88.947 42.3528 89.0801 42.3247 89.2143 42.3285C89.2257 42.33 89.2372 42.3292 89.2482 42.3262C89.2592 42.3232 89.2695 42.3181 89.2785 42.3111C89.2876 42.3041 89.2951 42.2954 89.3007 42.2854C89.3064 42.2755 89.31 42.2645 89.3113 42.2532C89.3127 42.2417 89.3117 42.2301 89.3085 42.219C89.3053 42.2079 89.2999 42.1975 89.2926 42.1885C89.2853 42.1796 89.2763 42.1721 89.2661 42.1667C89.2558 42.1613 89.2446 42.158 89.2331 42.157C89.0698 42.1492 88.907 42.1808 88.7584 42.2491C88.6098 42.3173 88.4798 42.4202 88.3793 42.5492C88.3643 42.5669 88.3568 42.5898 88.3584 42.613C88.36 42.6361 88.3706 42.6578 88.3879 42.6733C88.4005 42.684 88.416 42.6908 88.4324 42.693C88.4488 42.6952 88.4656 42.6925 88.4805 42.6855Z" fill="#263238"/>
<path d="M91.2882 43.293C91.3337 43.4628 91.2541 43.626 91.138 43.6416C91.022 43.6573 90.9036 43.5379 90.8718 43.3615C90.8399 43.185 90.9126 43.0422 91.022 43.0129C91.1313 42.9836 91.2621 43.115 91.2882 43.293Z" fill="#263238"/>
<path d="M89.3133 43.6525C89.3595 43.8252 89.2771 43.9891 89.1631 44.0011C89.0492 44.0132 88.9287 43.8974 88.8969 43.721C88.865 43.5445 88.931 43.3881 89.0471 43.3724C89.1631 43.3567 89.2814 43.4761 89.3133 43.6525Z" fill="#263238"/>
<path d="M89.0979 43.3743L88.657 43.3318C88.657 43.3318 88.9319 43.6196 89.0979 43.3743Z" fill="#263238"/>
<path d="M91.0815 43.0124L90.637 42.9678C90.637 42.9678 90.9155 43.2577 91.0815 43.0124Z" fill="#263238"/>
<path d="M91.513 45.0734C91.5454 45.0096 91.5731 44.9435 91.5956 44.8755C91.6006 44.8657 91.6018 44.8544 91.5989 44.8438C91.5961 44.8332 91.5894 44.824 91.5802 44.818C91.5704 44.813 91.5591 44.8119 91.5485 44.8147C91.5379 44.8175 91.5287 44.8242 91.5227 44.8334C91.4693 45.0066 91.376 45.1649 91.2504 45.2955C91.1247 45.4261 90.9702 45.5253 90.7991 45.5854C90.7885 45.5882 90.7794 45.5952 90.7738 45.6048C90.7683 45.6144 90.7668 45.6257 90.7697 45.6364C90.7725 45.6471 90.7795 45.6562 90.7891 45.6617C90.7987 45.6673 90.81 45.6688 90.8207 45.6659C91.1209 45.5679 91.3699 45.3548 91.513 45.0734Z" fill="#263238"/>
<path d="M91.5931 38.25C91.5931 38.25 94.7238 36.7235 96.9283 41.8896C98.0278 44.4625 94.7844 46.938 94.7844 46.938L94.6349 46.3799C94.4201 45.5767 94.3706 44.7381 94.4894 43.9152L94.5769 43.2751L92.3968 41.4911C92.3968 41.4911 91.3732 41.4571 91.0019 40.6007C91.0019 40.6007 90.8616 40.9744 91.3717 41.4513C91.3717 41.4513 88.9748 42.1953 88.7619 40.9172C88.7357 41.0358 88.7371 41.1587 88.7661 41.2766C88.795 41.3945 88.8506 41.5042 88.9286 41.5972C88.9286 41.5972 88.171 41.7847 88.0866 41.1013C88.0021 40.4178 87.8563 37.503 91.5931 38.25Z" fill="#263238"/>
<path d="M95.2953 43.0085C95.274 43.2185 95.2112 43.4223 95.1107 43.608C95.0101 43.7937 94.8738 43.9577 94.7096 44.0904C94.2668 44.4403 93.8297 44.098 93.7738 43.5672C93.7203 43.0913 93.8883 42.3371 94.4176 42.1953C94.5336 42.1672 94.6548 42.1684 94.7703 42.1987C94.8857 42.229 94.9918 42.2875 95.0791 42.369C95.1663 42.4505 95.232 42.5524 95.2701 42.6655C95.3083 42.7786 95.3177 42.8994 95.2976 43.0171L95.2953 43.0085Z" fill="#7F3E3B"/>
<path d="M90.0498 55.5514L90.4639 55.9461C90.5408 56.0191 90.634 56.0726 90.7358 56.1022C90.8376 56.1318 90.945 56.1366 91.0491 56.1161L92.0371 55.9254C92.2341 55.8906 92.4196 55.8082 92.5774 55.6852C92.7353 55.5623 92.8607 55.4027 92.9427 55.2202L93.0488 54.9945C92.4041 54.2915 91.1906 54.0092 91.1906 54.0092L90.8505 53.8907C90.712 53.8381 90.5584 53.8426 90.4232 53.9031C90.288 53.9636 90.1823 54.0752 90.1292 54.2135L89.8846 54.8772C89.844 54.9935 89.8381 55.1191 89.8674 55.2388C89.8967 55.3584 89.9601 55.467 90.0498 55.5514Z" fill="#7F3E3B"/>
<path d="M38.7369 36.6101L34.6919 38.3723L30.5782 32.7897C30.3775 32.455 30.0805 33.0958 29.6932 33.1348L29.0268 33.2023C28.9348 33.1006 31.6357 38.2323 33.3174 41.2289C34.0034 42.4542 40.3516 39.23 40.3516 39.23C42.6535 37.349 38.7369 36.6101 38.7369 36.6101Z" fill="#FFB573"/>
<path d="M36.1853 37.1273C36.7164 38.4471 37.4532 39.6743 38.3683 40.7636C38.4207 40.8237 38.4898 40.8671 38.5667 40.8881C38.6437 40.9092 38.7251 40.9071 38.8009 40.882C40.9087 40.1754 41.7122 39.4112 41.7122 39.4112C41.3468 38.8185 41.2552 35.0473 40.688 34.7029C40.1127 34.9694 39.5679 35.2973 39.0631 35.681C38.6395 36.0565 36.1853 37.1273 36.1853 37.1273Z" fill="#407BFF"/>
<path d="M41.1864 39.9098C42.8034 45.8407 43.6457 51.0788 43.6457 51.0788C43.6457 51.0788 53.9421 48.3662 54.304 48.2784C53.2894 41.1778 53.4155 39.2663 52.5074 35.014C52.1513 33.2593 50.7702 31.9828 49.7152 32.062L49.5221 32.0891C46.5427 32.4773 43.5124 33.6192 40.7 34.6996C39.6217 35.152 40.5451 37.0907 41.1864 39.9098Z" fill="#407BFF"/>
<path d="M51.428 63.4085C50.9665 65.265 50.6803 82.6089 50.6803 82.6089L51.1726 92.5011C51.2417 93.9336 51.3945 95.3608 51.6303 96.7755L52.0284 99.8725L47.3977 101.175C47.3839 100.744 47.1437 96.3835 45.693 82.8567C44.2026 68.9398 43.5731 51.1475 43.5731 51.1475C43.5731 51.1475 49.432 49.331 52.0858 49.0392C53.7667 52.4585 52.4416 59.4121 51.428 63.4085Z" fill="#263238"/>
<path d="M64.2405 96.6618C64.3038 96.4721 61.4018 83.1677 60.6402 79.3819L56.8884 58.2451C56.8884 58.2451 56.0537 51.1025 54.2925 48.2813L45.6256 50.5388C45.6256 50.5388 54.7275 75.2094 57.6182 88.1036C58.6947 92.9152 59.8972 97.8286 59.8972 97.8286L64.2405 96.6618Z" fill="#263238"/>
<path d="M46.685 32.7999C47.4557 33.0868 47.3738 33.8857 47.0061 34.6194C46.5898 35.4917 45.971 36.2517 45.2011 36.836C45.1838 36.8406 41.7961 35.5437 43.4575 33.7233C43.7313 33.4218 43.7258 32.8836 43.6221 32.3471C43.5371 31.9396 43.4128 31.5413 43.251 31.1577C43.2155 31.0637 43.1754 30.9716 43.1308 30.8816C43.0915 30.7882 43.0465 30.6973 42.9962 30.6093L45.6695 28.561C45.472 29.1473 45.6545 30.8066 45.8558 31.3046C46.0907 31.8707 46.3288 32.6672 46.685 32.7999Z" fill="#FFB573"/>
<path opacity="0.2" d="M43.642 32.3295C43.5569 31.922 43.4326 31.5236 43.2708 31.14C43.2364 31.0458 43.1972 30.9534 43.1535 30.8632L45.3585 29.7944C44.978 30.4113 44.5671 31.5821 43.642 32.3295Z" fill="black"/>
<path d="M40.2839 30.0872C41.2029 32.0209 43.9272 32.4411 45.1445 30.5516C45.8486 29.4626 45.7271 28.4221 45.4783 26.8145C45.4431 26.568 45.4026 26.3137 45.3605 26.0413C45.3014 25.6149 45.1469 25.2073 44.9084 24.8489C44.8115 24.6987 44.6987 24.5594 44.572 24.4334C44.1052 23.9527 43.485 23.6504 42.8188 23.5789C42.1526 23.5074 41.4824 23.6711 40.9242 24.0417C39.0902 25.2639 39.4534 28.3456 40.2839 30.0872Z" fill="#FFB573"/>
<path d="M42.1455 26.9643C42.039 26.9928 41.9772 27.1419 42.0125 27.3082C42.0478 27.4745 42.151 27.5949 42.2734 27.5683C42.3957 27.5416 42.4539 27.3904 42.4178 27.2212C42.3817 27.0521 42.2542 26.9444 42.1455 26.9643Z" fill="#263238"/>
<path d="M40.3154 27.4394C40.209 27.4679 40.1456 27.6113 40.1825 27.7834C40.2193 27.9554 40.3286 28.0525 40.4433 28.0434C40.558 28.0342 40.6123 27.8686 40.5763 27.6994C40.5402 27.5303 40.4234 27.4166 40.3154 27.4394Z" fill="#263238"/>
<path d="M41.5971 29.1494C41.2424 29.25 40.8636 29.2239 40.5259 29.0756C40.8368 28.5931 41.0816 28.0712 41.2541 27.5238L41.5971 29.1494Z" fill="#ED893E"/>
<path d="M42.7332 26.6343C42.6356 26.555 42.5207 26.4996 42.3978 26.4726C42.2749 26.4456 42.1474 26.4476 42.0255 26.4786L41.9939 26.4871C41.9681 26.4917 41.9415 26.4864 41.9195 26.4723C41.8974 26.4582 41.8815 26.4364 41.8748 26.4111C41.8721 26.398 41.872 26.3846 41.8745 26.3715C41.877 26.3584 41.8821 26.3459 41.8894 26.3348C41.8967 26.3237 41.9062 26.3141 41.9172 26.3066C41.9283 26.2992 41.9407 26.2939 41.9537 26.2913C42.1058 26.2488 42.2658 26.2431 42.4206 26.2745C42.5754 26.3059 42.7204 26.3736 42.8439 26.4721C42.8647 26.4883 42.8782 26.512 42.8818 26.5382C42.8853 26.5643 42.8786 26.5907 42.8629 26.6119C42.853 26.6263 42.8383 26.6368 42.8215 26.6415C42.8072 26.6471 42.7918 26.6493 42.7765 26.6481C42.7613 26.6468 42.7464 26.6421 42.7332 26.6343Z" fill="#263238"/>
<path d="M39.4277 26.7952C39.4242 26.7824 39.4234 26.769 39.4251 26.7558C39.4268 26.7426 39.4311 26.7299 39.4378 26.7184C39.4444 26.7069 39.4533 26.6968 39.4638 26.6887C39.4744 26.6806 39.4864 26.6747 39.4993 26.6712C39.651 26.6275 39.8109 26.6209 39.9657 26.6518C40.1205 26.6828 40.2656 26.7505 40.3887 26.8492C40.3983 26.8576 40.4061 26.868 40.4117 26.8795C40.4172 26.8911 40.4203 26.9037 40.4209 26.9165C40.4214 26.9293 40.4194 26.9421 40.4149 26.9541C40.4104 26.9661 40.4035 26.977 40.3947 26.9863C40.386 26.9954 40.3755 27.0026 40.364 27.0076C40.3525 27.0126 40.3401 27.0153 40.3276 27.0155C40.315 27.0157 40.3026 27.0135 40.2909 27.0088C40.2792 27.0042 40.2686 26.9973 40.2596 26.9886C40.1603 26.915 40.0451 26.8658 39.9233 26.8449C39.8014 26.8239 39.6764 26.8319 39.5582 26.8682C39.5428 26.8738 39.526 26.875 39.5099 26.8717C39.4938 26.8684 39.4789 26.8607 39.4669 26.8495C39.4479 26.8366 39.434 26.8174 39.4277 26.7952Z" fill="#263238"/>
<path d="M43.6625 25.0655C43.887 25.4443 44.0422 25.86 44.1209 26.2932C44.4524 26.5377 44.7264 26.8517 44.9239 27.2131C45.1214 27.5745 45.2376 27.9747 45.2644 28.3857C45.4326 27.8065 45.8052 27.3079 46.3129 26.9824C46.2836 26.1816 46.1537 25.3876 45.9264 24.6192C45.8565 24.3201 45.7205 24.0405 45.5283 23.8009C45.43 23.6816 45.3001 23.5926 45.1534 23.544C45.0067 23.4955 44.8493 23.4894 44.6993 23.5266C44.6514 23.2095 44.292 23.019 43.9872 22.9403C43.0761 22.6835 42.1107 22.6904 41.2033 22.9603C40.296 23.2302 39.4837 23.752 38.861 24.465C38.6251 24.5282 38.3777 24.5945 38.1389 24.6585C38.2483 24.9107 38.4081 25.1379 38.6086 25.326C38.8091 25.5141 39.0459 25.6591 39.3046 25.7522C39.4213 25.8038 39.5311 25.8696 39.6316 25.9482C40.2006 25.9627 40.7641 25.8329 41.2695 25.571C41.7707 25.3036 42.2856 25.0627 42.8121 24.8493C42.9587 24.7925 43.1194 24.7828 43.2718 24.8216C43.4242 24.8603 43.5608 24.9456 43.6625 25.0655Z" fill="#263238"/>
<path d="M45.6039 26.6512C44.9451 26.8278 44.7682 27.7786 44.851 28.3639C44.94 29.0184 45.5017 29.4229 46.0345 28.9718C46.2339 28.8056 46.3981 28.6012 46.5175 28.3707C46.6368 28.1401 46.7088 27.8881 46.7293 27.6293C46.7487 27.4829 46.7315 27.3339 46.6792 27.1957C46.6269 27.0575 46.5412 26.9345 46.4297 26.8376C46.3181 26.7407 46.1844 26.6729 46.0402 26.6404C45.8961 26.6079 45.7462 26.6116 45.6039 26.6512Z" fill="#FFB573"/>
<path d="M41.2298 29.8491C41.2298 29.8491 41.7435 29.4647 43.3387 28.8245C43.4057 29.4541 43.1126 29.8102 42.2813 30.1254C41.45 30.4407 41.2298 29.8491 41.2298 29.8491Z" fill="#263238"/>
<path d="M41.2978 29.8063C41.3401 29.8661 41.3975 29.9136 41.4641 29.9439C41.5307 29.9743 41.6042 29.9864 41.6771 29.9791C42.1501 29.7893 42.6033 29.5532 43.0299 29.2743C43.1045 29.2344 43.1663 29.1743 43.2083 29.1009C43.2502 29.0275 43.2706 28.9437 43.2672 28.8593C42.5838 29.1157 41.9247 29.4326 41.2978 29.8063Z" fill="white"/>
<path d="M41.6989 29.9208C42.0721 29.6387 42.4868 29.4163 42.9283 29.2614C43.0588 29.2424 43.1921 29.2589 43.3141 29.3091C43.2071 29.6462 42.8813 29.9031 42.3014 30.1324C42.0842 30.2337 41.838 30.2538 41.6073 30.1889C41.6242 30.0954 41.6551 30.0051 41.6989 29.9208Z" fill="white"/>
<path d="M29.3574 32.3457C29.3574 32.3457 28.4306 31.1079 28.7763 30.7408C29.122 30.3738 29.119 30.7538 29.119 30.7538L30.2863 32.2911L29.3574 32.3457Z" fill="#FFB573"/>
<path d="M28.5779 34.0255C28.191 34.0428 28.0982 33.7655 27.8419 33.4765C27.8419 33.4765 27.0192 32.2817 27.4457 31.9978C27.9099 31.8561 28.3834 31.7467 28.8627 31.6705C29.1965 31.6289 29.5347 31.6957 29.8277 31.8609C30.1207 32.0261 30.3528 32.281 30.4899 32.5881C31.1709 33.9443 28.5779 34.0255 28.5779 34.0255Z" fill="#FFB573"/>
<path opacity="0.2" d="M49.8035 34.4155L53.4126 41.4407L52.7943 33.9317L49.8035 34.4155Z" fill="black"/>
<path d="M53.27 33.8413C53.6851 34.4239 54.0865 35.0131 54.4809 35.6105C54.8753 36.2078 55.2611 36.8075 55.6419 37.4115C56.0227 38.0156 56.3964 38.6278 56.7701 39.2399C57.0807 39.6886 57.3079 40.1897 57.4408 40.719C57.5073 41.0152 57.5347 41.3189 57.5225 41.6222C57.5146 41.8554 57.4925 42.0878 57.4562 42.3183L57.4341 42.4661C57.0835 43.7584 56.7206 45.0469 56.3453 46.3315C56.1568 46.974 55.9783 47.62 55.7775 48.2628C55.5766 48.9055 55.3901 49.5444 55.182 50.183C55.1184 50.3897 54.9799 50.5652 54.7936 50.675C54.6074 50.7848 54.3868 50.821 54.1751 50.7765C53.9635 50.732 53.7762 50.61 53.6499 50.4345C53.5236 50.259 53.4675 50.0425 53.4926 49.8278C53.5573 49.1598 53.6415 48.4959 53.7184 47.8278C53.7953 47.1597 53.8896 46.4992 53.9738 45.8353C54.1441 44.507 54.3294 43.1808 54.5297 41.8568L54.5041 42.0147C54.5114 41.889 54.5085 41.7629 54.4956 41.6377C54.4961 41.5801 54.4809 41.5234 54.4517 41.4737L54.3681 41.3574L54.1398 41.0578C53.7103 40.4791 53.2837 39.8996 52.8642 39.3121C52.4447 38.7246 52.0317 38.1384 51.6258 37.5441C51.2199 36.9499 50.8211 36.3475 50.4338 35.7421C50.1802 35.3652 50.0869 34.903 50.1741 34.4572C50.2614 34.0114 50.5222 33.6185 50.8991 33.365C51.2761 33.1115 51.7383 33.0181 52.1841 33.1054C52.6299 33.1926 53.0228 33.4534 53.2763 33.8304L53.27 33.8413Z" fill="#FFB573"/>
<path d="M53.6641 49.5352L52.8988 51.2819C52.8988 51.2819 54.2678 52.5247 54.8515 52.137C55.4353 51.7493 55.1974 49.9754 55.1974 49.9754L53.6641 49.5352Z" fill="#FFB573"/>
<path d="M50.0681 32.0752C50.0681 32.0752 48.0519 32.9855 50.7837 36.7368C52.9122 39.6631 52.8815 39.1687 52.8815 39.1687L55.5496 36.468C55.5496 36.468 52.8845 31.1479 50.0681 32.0752Z" fill="#407BFF"/>
<path d="M113.827 -2.63056L99.6266 1.17438C99.4389 1.22467 99.2789 1.34747 99.1817 1.51576C99.0846 1.68404 99.0582 1.88403 99.1085 2.07172L100.164 6.01016C100.215 6.19742 100.338 6.35695 100.506 6.45399C100.674 6.55102 100.873 6.57771 101.061 6.52824L103.202 5.95472L103.679 7.39305C103.75 7.46433 103.838 7.51648 103.935 7.54462C104.031 7.57277 104.134 7.57599 104.232 7.554C104.33 7.532 104.421 7.48551 104.496 7.41885C104.572 7.35219 104.629 7.26753 104.663 7.17277L105.172 5.42669L115.241 2.72869C115.429 2.67771 115.588 2.55479 115.685 2.38671C115.782 2.21864 115.809 2.01902 115.759 1.83135L114.705 -2.10421C114.655 -2.28877 114.536 -2.4469 114.372 -2.54513C114.209 -2.64336 114.013 -2.674 113.827 -2.63056Z" fill="#407BFF"/>
<g opacity="0.7">
<path d="M113.827 -2.63056L99.6266 1.17438C99.4389 1.22467 99.2789 1.34747 99.1817 1.51576C99.0846 1.68404 99.0582 1.88403 99.1085 2.07172L100.164 6.01016C100.215 6.19742 100.338 6.35695 100.506 6.45399C100.674 6.55102 100.873 6.57771 101.061 6.52824L103.202 5.95472L103.679 7.39305C103.75 7.46433 103.838 7.51648 103.935 7.54462C104.031 7.57277 104.134 7.57599 104.232 7.554C104.33 7.532 104.421 7.48551 104.496 7.41885C104.572 7.35219 104.629 7.26753 104.663 7.17277L105.172 5.42669L115.241 2.72869C115.429 2.67771 115.588 2.55479 115.685 2.38671C115.782 2.21864 115.809 2.01902 115.759 1.83135L114.705 -2.10421C114.655 -2.28877 114.536 -2.4469 114.372 -2.54513C114.209 -2.64336 114.013 -2.674 113.827 -2.63056Z" fill="white"/>
</g>
<path d="M64.2363 14.7026L78.4193 10.9023C78.6077 10.8526 78.8081 10.8794 78.9769 10.9768C79.1457 11.0742 79.2691 11.2344 79.3203 11.4224L80.3756 15.3609C80.4252 15.549 80.3982 15.7492 80.3006 15.9175C80.2029 16.0858 80.0426 16.2086 79.8546 16.259L77.7229 16.8302L78.031 18.314C78.0049 18.4111 77.9546 18.5 77.8848 18.5725C77.815 18.6449 77.7281 18.6985 77.632 18.7283C77.5359 18.758 77.4338 18.7629 77.3353 18.7426C77.2368 18.7223 77.1451 18.6773 77.0687 18.6119L75.7522 17.3582L65.6832 20.0562C65.4952 20.1066 65.2949 20.0804 65.1262 19.9835C64.9575 19.8865 64.8341 19.7267 64.7829 19.5389L63.7276 15.6005C63.6784 15.414 63.7041 15.2157 63.7992 15.048C63.8942 14.8802 64.0511 14.7562 64.2363 14.7026Z" fill="#407BFF"/>
<g opacity="0.7">
<path d="M64.2363 14.7026L78.4193 10.9023C78.6077 10.8526 78.8081 10.8794 78.9769 10.9768C79.1457 11.0742 79.2691 11.2344 79.3203 11.4224L80.3756 15.3609C80.4252 15.549 80.3982 15.7492 80.3006 15.9175C80.2029 16.0858 80.0426 16.2086 79.8546 16.259L77.7229 16.8302L78.031 18.314C78.0049 18.4111 77.9546 18.5 77.8848 18.5725C77.815 18.6449 77.7281 18.6985 77.632 18.7283C77.5359 18.758 77.4338 18.7629 77.3353 18.7426C77.2368 18.7223 77.1451 18.6773 77.0687 18.6119L75.7522 17.3582L65.6832 20.0562C65.4952 20.1066 65.2949 20.0804 65.1262 19.9835C64.9575 19.8865 64.8341 19.7267 64.7829 19.5389L63.7276 15.6005C63.6784 15.414 63.7041 15.2157 63.7992 15.048C63.8942 14.8802 64.0511 14.7562 64.2363 14.7026Z" fill="white"/>
</g>
<path d="M66.7373 15.7405L67.2566 16.3321L68.0425 16.2387L67.6385 16.9174L67.9663 17.6344L67.1983 17.4609L66.617 17.9959L66.5453 17.2103L65.8561 16.8246L66.5834 16.5125L66.7373 15.7405Z" fill="#407BFF"/>
<path d="M69.2755 15.0603L69.7948 15.652L70.5778 15.5593L70.1738 16.238L70.5045 16.9542L69.7365 16.7807L69.1552 17.3157L69.0835 16.5302L68.3943 16.1444L69.1187 15.8331L69.2755 15.0603Z" fill="#407BFF"/>
<path d="M71.8099 14.3814L72.3321 14.9723L73.1151 14.8796L72.7111 15.5583L73.0418 16.2745L72.2709 16.1018L71.6925 16.636L71.6208 15.8505L70.9316 15.4647L71.656 15.1534L71.8099 14.3814Z" fill="#407BFF"/>
<path d="M74.3472 13.7015L74.8665 14.2931L75.6524 14.1997L75.2484 14.8784L75.5791 15.5946L74.8082 15.4219L74.2298 15.9561L74.1552 15.1713L73.4689 14.7848L74.1933 14.4735L74.3472 13.7015Z" fill="#263238"/>
<path d="M76.8845 13.0215L77.4038 13.6132L78.1868 13.5205L77.7857 14.1984L78.1163 14.9146L77.3454 14.7419L76.7642 15.2769L76.6925 14.4913L76.0032 14.1056L76.7306 13.7935L76.8845 13.0215Z" fill="#263238"/>
<path d="M28.0103 17.9375L42.5845 14.0324C42.7725 13.982 42.9727 14.0082 43.1414 14.1051C43.3102 14.2021 43.4336 14.3619 43.4847 14.5497L44.54 18.4881C44.5896 18.6763 44.5626 18.8764 44.465 19.0448C44.3674 19.2131 44.207 19.3359 44.0191 19.3862L38.9155 20.7537L38.421 22.4526C38.3952 22.5498 38.3451 22.6389 38.2756 22.7116C38.206 22.7843 38.1192 22.8381 38.0232 22.8682C37.9271 22.8982 37.8251 22.9034 37.7265 22.8834C37.6279 22.8633 37.5361 22.8186 37.4594 22.7534L36.1422 21.4968L29.442 23.2922C29.2543 23.3416 29.0547 23.3149 28.8866 23.2179C28.7185 23.1209 28.5956 22.9613 28.5446 22.7741L27.4893 18.8356C27.4397 18.6475 27.4667 18.4473 27.5643 18.279C27.662 18.1107 27.8223 17.9879 28.0103 17.9375Z" fill="#407BFF"/>
<g opacity="0.7">
<path d="M28.0103 17.9375L42.5845 14.0324C42.7725 13.982 42.9727 14.0082 43.1414 14.1051C43.3102 14.2021 43.4336 14.3619 43.4847 14.5497L44.54 18.4881C44.5896 18.6763 44.5626 18.8764 44.465 19.0448C44.3674 19.2131 44.207 19.3359 44.0191 19.3862L38.9155 20.7537L38.421 22.4526C38.3952 22.5498 38.3451 22.6389 38.2756 22.7116C38.206 22.7843 38.1192 22.8381 38.0232 22.8682C37.9271 22.8982 37.8251 22.9034 37.7265 22.8834C37.6279 22.8633 37.5361 22.8186 37.4594 22.7534L36.1422 21.4968L29.442 23.2922C29.2543 23.3416 29.0547 23.3149 28.8866 23.2179C28.7185 23.1209 28.5956 22.9613 28.5446 22.7741L27.4893 18.8356C27.4397 18.6475 27.4667 18.4473 27.5643 18.279C27.662 18.1107 27.8223 17.9879 28.0103 17.9375Z" fill="white"/>
</g>
<path d="M30.8328 18.7874L31.355 19.3783L32.1388 19.2885L31.734 19.9643L32.0654 20.6834L31.2938 20.5078L30.7162 21.0449L30.6437 20.2565L29.9552 19.8736L30.6789 19.5594L30.8328 18.7874Z" fill="#407BFF"/>
<path d="M33.3701 18.1077L33.8893 18.6994L34.676 18.6088L34.2713 19.2846L34.6027 20.0037L33.831 19.8281L33.2534 20.3652L33.178 19.5776L32.4925 19.1939L33.2162 18.8798L33.3701 18.1077Z" fill="#407BFF"/>
<path d="M35.9083 17.4275L36.4276 18.0192L37.2114 17.9294L36.8095 18.6044L37.1409 19.3235L36.3692 19.1479L35.7888 19.6858L35.7163 18.8974L35.0278 18.5145L35.7544 18.1995L35.9083 17.4275Z" fill="#407BFF"/>
<path d="M38.4446 16.7478L38.9639 17.3395L39.7477 17.2497L39.3458 17.9247L39.6743 18.6446L38.9056 18.4682L38.3251 19.0061L38.2526 18.2177L37.5641 17.8348L38.2878 17.5206L38.4446 16.7478Z" fill="#407BFF"/>
<path d="M40.98 16.0687L41.5021 16.6595L42.2859 16.5698L41.8812 17.2456L42.2126 17.9646L41.441 17.7891L40.8634 18.3262L40.7908 17.5377L40.1024 17.1549L40.8261 16.8407L40.98 16.0687Z" fill="#407BFF"/>
</g>
<defs>
<clipPath id="clip0_1170_9857">
<rect width="148.918" height="148.918" fill="white" transform="translate(-10 -4.45728) rotate(-15)"/>
</clipPath>
</defs>
</svg>
