<svg width="15" height="16" viewBox="0 0 15 16" fill="none" xmlns="http://www.w3.org/2000/svg">
<path d="M1.71874 7.70415C1.71874 7.8229 1.76249 7.94165 1.85624 8.0354L5.64999 11.8292C5.83124 12.0104 6.13124 12.0104 6.31249 11.8292C6.49374 11.6479 6.49374 11.3479 6.31249 11.1667L2.84999 7.70415L6.31249 4.24165C6.49374 4.0604 6.49374 3.7604 6.31249 3.57915C6.13124 3.3979 5.83124 3.3979 5.64999 3.57915L1.85624 7.3729C1.76249 7.46665 1.71874 7.5854 1.71874 7.70415Z" fill="#4E4E4E"/>
<path d="M1.825 7.7041C1.825 7.96035 2.0375 8.17285 2.29375 8.17285H12.8125C13.0687 8.17285 13.2812 7.96035 13.2812 7.7041C13.2812 7.44785 13.0687 7.23535 12.8125 7.23535L2.29375 7.23535C2.0375 7.23535 1.825 7.44785 1.825 7.7041Z" fill="#4E4E4E"/>
</svg>
