<svg xmlns="http://www.w3.org/2000/svg" fill="none" viewBox="0 0 91 56"><g clip-path="url(#a)" opacity=".1" style="mix-blend-mode:luminosity"><path d="m90.908 54.153-3.338.894.012.044 3.337-.894-.011-.044Zm-33.487-.61-33.58 8.998a1.028 1.028 0 0 1-1.257-.727L9.936 14.61a1.028 1.028 0 0 1 .728-1.25l33.58-8.998a1.028 1.028 0 0 1 1.258.727l12.646 47.194a1.028 1.028 0 0 1-.727 1.26ZM10.673 13.395A.983.983 0 0 0 9.98 14.6l12.648 47.203a.983.983 0 0 0 1.202.696L57.41 53.5a.985.985 0 0 0 .695-1.204L45.457 5.093a.985.985 0 0 0-1.204-.695l-33.58 8.997ZM95.04 43.464l-33.581 8.998a1.03 1.03 0 0 1-1.26-.727L47.55 4.532a1.03 1.03 0 0 1 .73-1.25l33.58-8.998a1.028 1.028 0 0 1 1.254.719l12.648 47.203a1.028 1.028 0 0 1-.723 1.258ZM48.289 3.316a.985.985 0 0 0-.695 1.204l12.648 47.203a.985.985 0 0 0 1.204.696l33.581-8.998a.985.985 0 0 0 .695-1.204L83.074-4.987a.985.985 0 0 0-1.204-.695L48.29 3.316Zm56.948 45.728-86.953 23.3.012.043 86.952-23.3-.011-.043Z" fill="#EBEBEB"/><path d="m37.714 41.083-3.896 1.044 4.425 16.514 3.895-1.044-4.424-16.514Z" fill="#E6E6E6"/><path d="m42.699 33.712-3.896 1.044 5.934 22.145 3.895-1.044L42.7 33.712Z" fill="#E0E0E0"/><path d="m50.7 37.603-3.895 1.044 4.425 16.514 3.896-1.044L50.7 37.603Z" fill="#EBEBEB"/><path d="m26.235 50.193-3.896 1.043 2.916 10.883 3.896-1.044-2.916-10.883Z" fill="#F0F0F0"/><path d="m32 45.734-3.895 1.044 3.644 13.602 3.895-1.044L32 45.734Z" fill="#EBEBEB"/><path d="m58.703 41.493-3.896 1.044 2.916 10.883 3.896-1.044-2.916-10.883Z" fill="#F5F5F5"/><path d="m86.643 15.902-3.895 1.044 7.442 27.776 3.896-1.044-7.443-27.776Z" fill="#E0E0E0"/><path d="m63.688 34.123-3.895 1.044 4.425 16.514 3.895-1.043-4.425-16.515Z" fill="#F0F0F0"/><path d="m81.658 23.273-3.895 1.044 5.934 22.145 3.895-1.044-5.934-22.145Z" fill="#E6E6E6"/><path d="m75.947 27.924-3.896 1.044L77.204 48.2l3.896-1.044-5.153-19.232Z" fill="#EBEBEB"/><path d="m70.962 35.295-3.896 1.044 3.645 13.6 3.895-1.043-3.644-13.601Z" fill="#F0F0F0"/><path d="M24.985 39.53a2.814 2.814 0 1 0-5.626.169 2.814 2.814 0 0 0 5.626-.17Z" fill="#E0E0E0"/><path d="M24.936 40.935a2.814 2.814 0 1 0-4.874-2.814 2.814 2.814 0 0 0 4.874 2.814Z" fill="#E6E6E6"/><path d="M23.044 41.562a2.106 2.106 0 1 0-1.09-4.07 2.106 2.106 0 0 0 1.09 4.07Z" fill="#F0F0F0"/><path d="M23.509 39.721c.199.43-.03.813-.574 1.01l.09.374-.338.09-.09-.374a1.955 1.955 0 0 1-.894-.04l.041-.46c.24.081.497.104.748.066l-.137-.575c-.358-.007-.755-.034-.939-.423-.199-.43.034-.818.592-1.01l-.1-.373.347-.093.1.376c.235-.042.477-.036.71.017l-.034.445a1.347 1.347 0 0 0-.58-.03l.145.598c.354.013.74.033.913.402Zm-1.277-.403-.116-.491c-.177.086-.24.215-.186.338.054.124.158.135.302.153Zm.767.635c-.043-.095-.147-.132-.286-.142l.113.466c.168-.084.232-.202.173-.324Z" fill="#fff"/><path d="M80.742-.667 66.588 3.125a1.348 1.348 0 0 0-.954 1.652l1.434 5.349c.192.72.932 1.146 1.651.954l14.154-3.793a1.349 1.349 0 0 0 .954-1.652L82.394.286a1.349 1.349 0 0 0-1.652-.953Z" fill="#F0F0F0"/><path d="m69.927 3.392-1.18.316a.13.13 0 0 0-.091.158l1.513 5.649c.019.069.09.11.16.092l1.178-.316a.13.13 0 0 0 .092-.16l-1.514-5.648a.13.13 0 0 0-.158-.091ZM79.578.806 78.4 1.12a.13.13 0 0 0-.091.16l1.513 5.648a.13.13 0 0 0 .159.091l1.18-.316a.13.13 0 0 0 .09-.158L79.738.897a.13.13 0 0 0-.158-.091ZM75.442 4l-1.179.316a.13.13 0 0 0-.092.159l.993 3.704a.13.13 0 0 0 .159.091l1.179-.316a.13.13 0 0 0 .091-.158L75.6 4.092A.13.13 0 0 0 75.44 4Zm-2.22 1.61-1.18.317a.13.13 0 0 0-.091.158l.738 2.755c.018.07.09.11.158.092l1.18-.316a.13.13 0 0 0 .091-.159l-.738-2.755a.13.13 0 0 0-.159-.091Zm5.423 1.023-1.179.316a.13.13 0 0 0-.091.158l.119.446a.13.13 0 0 0 .159.091l1.179-.316a.13.13 0 0 0 .091-.158l-.119-.446a.13.13 0 0 0-.159-.091Z" fill="#fff"/><path d="M79 .923a.132.132 0 0 0-.156.113l-.875 5.08a.132.132 0 0 1-.158.112.132.132 0 0 1-.063-.034L75.025 3.77a.131.131 0 0 0-.184.007l-2.174 1.626a.13.13 0 0 1-.13.035l-3.368-1.96a.13.13 0 0 0-.158.105l.004.014a.131.131 0 0 0 .097.147l3.532 2.004a.126.126 0 0 0 .13-.035l2.082-1.538a.13.13 0 0 1 .185-.006l2.9 2.59a.132.132 0 0 0 .221-.075l.938-5.61a.133.133 0 0 0-.1-.151ZM44.763 17.288a2.937 2.937 0 1 0-1.52-5.673 2.937 2.937 0 0 0 1.52 5.673Z" fill="#E0E0E0"/><path d="M44.578 16.737a2.357 2.357 0 1 0-1.22-4.552 2.357 2.357 0 0 0 1.22 4.552Z" fill="#fff" opacity=".8"/><path d="M44.074 14.883a.239.239 0 1 0-.124-.462.239.239 0 0 0 .124.462Z" fill="#E0E0E0"/><path d="m44.01 14.744-1.227-.659.069-.126 1.11.597 1.213-1.831.12.08-1.286 1.94Z" fill="#E0E0E0"/><path d="m61.027 34.852-11.481 3.076 8.096 30.213 11.48-3.077-8.095-30.212Z" fill="#407BFF"/><path d="m61.064 34.842-8.562 2.294 8.096 30.212 8.561-2.294-8.095-30.212Z" fill="#000" opacity=".5"/><path d="m78.787 41.133-11.482 3.076 5.335 19.91 11.482-3.076-5.335-19.91Z" fill="#407BFF"/><path d="m78.774 41.086-8.561 2.294 5.348 19.959 8.56-2.294-5.347-19.96Z" fill="#000" opacity=".3"/><path d="m47.398 44.278-11.48 3.076 6.65 24.823 11.482-3.076-6.651-24.823Z" fill="#407BFF"/><path d="m47.382 44.217-8.561 2.294 6.668 24.884 8.56-2.294-6.667-24.884Z" fill="#000" opacity=".4"/><path d="M65.222 56.324c.115.366-.961 1.029-2.399 1.48-1.438.45-2.705.525-2.82.159-.115-.367.962-1.03 2.4-1.48 1.437-.45 2.705-.526 2.82-.16Z" fill="#407BFF"/><path d="M65.222 56.324c.115.366-.961 1.029-2.399 1.48-1.438.45-2.705.525-2.82.159-.115-.367.962-1.03 2.4-1.48 1.437-.45 2.705-.526 2.82-.16Z" fill="#fff" opacity=".4"/><path d="M65.717 55.831c.115.367-.962 1.03-2.399 1.482-1.437.452-2.706.524-2.82.157-.116-.366.961-1.029 2.399-1.48 1.437-.45 2.703-.534 2.82-.159Z" fill="#407BFF"/><path d="m65.503 55.164-5.225 1.64.207.662 5.225-1.64-.207-.662Z" fill="#407BFF"/><path d="M65.506 55.161c.115.366-.962 1.03-2.4 1.482-1.436.452-2.705.523-2.82.157-.115-.366.962-1.03 2.4-1.48 1.437-.45 2.713-.522 2.82-.159Z" fill="#407BFF"/><path d="M65.506 55.161c.115.366-.962 1.03-2.4 1.482-1.436.452-2.705.523-2.82.157-.115-.366.962-1.03 2.4-1.48 1.437-.45 2.713-.522 2.82-.159Z" fill="#fff" opacity=".4"/><path d="M65.165 55.234a.116.116 0 0 1-.005.07c-.232-.17-1.238-.041-2.377.32-1.139.361-2.041.825-2.129 1.096a.109.109 0 0 1-.047-.056c-.077-.248.878-.772 2.138-1.168 1.26-.395 2.343-.502 2.42-.262Z" fill="#407BFF"/><path d="M65.165 55.234a.116.116 0 0 1-.005.07c-.232-.17-1.238-.041-2.377.32-1.139.361-2.041.825-2.129 1.096a.109.109 0 0 1-.047-.056c-.077-.248.878-.772 2.138-1.168 1.26-.395 2.343-.502 2.42-.262Z" fill="#407BFF" opacity=".4"/><path d="M65.164 55.31c-.096.276-.992.74-2.13 1.097s-2.146.49-2.376.32c.09-.273.987-.738 2.13-1.097 1.14-.358 2.144-.49 2.376-.32Z" fill="#407BFF" opacity=".4"/><path d="M64.635 55.19c.115.365-.962 1.029-2.399 1.48-1.437.453-2.717.53-2.816.16-.1-.371.961-1.03 2.399-1.48 1.438-.451 2.702-.523 2.816-.16Z" fill="#407BFF"/><path d="m64.43 54.528-5.226 1.64.208.662 5.225-1.64-.208-.662Z" fill="#407BFF"/><path d="M64.428 54.529c.115.366-.961 1.03-2.398 1.482-1.438.452-2.706.523-2.821.157-.115-.366.961-1.03 2.4-1.48 1.437-.45 2.703-.53 2.82-.159Z" fill="#407BFF"/><path d="M64.428 54.529c.115.366-.961 1.03-2.398 1.482-1.438.452-2.706.523-2.821.157-.115-.366.961-1.03 2.4-1.48 1.437-.45 2.703-.53 2.82-.159Z" fill="#fff" opacity=".4"/><path d="M64.088 54.609a.095.095 0 0 1-.005.07c-.232-.17-1.236-.041-2.377.32-1.14.362-2.04.825-2.129 1.096a.106.106 0 0 1-.045-.057c-.077-.247.878-.772 2.138-1.167 1.26-.396 2.34-.51 2.418-.262Z" fill="#407BFF"/><path d="M64.088 54.609a.095.095 0 0 1-.005.07c-.232-.17-1.236-.041-2.377.32-1.14.362-2.04.825-2.129 1.096a.106.106 0 0 1-.045-.057c-.077-.247.878-.772 2.138-1.167 1.26-.396 2.34-.51 2.418-.262Z" fill="#407BFF" opacity=".4"/><path d="M64.083 54.68c-.096.275-.991.738-2.13 1.095-1.138.358-2.144.491-2.376.32.093-.272.988-.736 2.13-1.096 1.14-.36 2.14-.49 2.376-.32Z" fill="#407BFF" opacity=".4"/><path d="M64.92 54.028c.115.366-.961 1.03-2.398 1.482-1.438.452-2.704.523-2.82.157-.114-.367.96-1.03 2.4-1.48 1.44-.451 2.702-.523 2.819-.159Z" fill="#407BFF"/><path d="m64.712 53.37-5.226 1.64.208.661 5.225-1.64-.207-.662Z" fill="#407BFF"/><path d="M64.712 53.366c.114.367-.962 1.03-2.4 1.482-1.436.452-2.705.524-2.82.157-.115-.366.962-1.027 2.4-1.48 1.436-.451 2.705-.523 2.82-.159Z" fill="#407BFF"/><path d="M64.712 53.366c.114.367-.962 1.03-2.4 1.482-1.436.452-2.705.524-2.82.157-.115-.366.962-1.027 2.4-1.48 1.436-.451 2.705-.523 2.82-.159Z" fill="#fff" opacity=".4"/><path d="M64.371 53.446a.103.103 0 0 1-.004.073c-.233-.171-1.236-.042-2.378.318-1.14.36-2.04.824-2.129 1.096a.118.118 0 0 1-.045-.057c-.078-.248.878-.772 2.138-1.167 1.26-.396 2.34-.51 2.418-.263Z" fill="#407BFF"/><path d="M64.371 53.446a.103.103 0 0 1-.004.073c-.233-.171-1.236-.042-2.378.318-1.14.36-2.04.824-2.129 1.096a.118.118 0 0 1-.045-.057c-.078-.248.878-.772 2.138-1.167 1.26-.396 2.34-.51 2.418-.263Z" fill="#407BFF" opacity=".4"/><path d="M64.367 53.519c-.095.273-.992.737-2.13 1.094-1.138.357-2.145.49-2.377.32.093-.273.988-.736 2.13-1.096 1.14-.36 2.143-.489 2.377-.319Z" fill="#407BFF" opacity=".4"/><path d="M62.515 53.86a2.467 2.467 0 1 0-2.868-4.013 2.467 2.467 0 0 0 2.868 4.014Z" fill="#407BFF"/><path d="M63.603 52.96a2.467 2.467 0 1 0-4.456-2.117 2.467 2.467 0 0 0 4.456 2.116Z" fill="#407BFF"/><path d="M63.603 52.96a2.467 2.467 0 1 0-4.456-2.117 2.467 2.467 0 0 0 4.456 2.116Z" fill="#fff" opacity=".4"/><path d="M63.195 52.2a1.845 1.845 0 1 1-3.64-.608 1.845 1.845 0 0 1 3.64.608Z" fill="#407BFF"/><path d="M62.343 52.205a.557.557 0 0 0-.249-.232.52.52 0 0 0 .335-.639.469.469 0 0 0-.122-.195.844.844 0 0 0-.376-.2l.025-.15-.23-.037-.023.138-.23-.039.023-.138-.23-.039-.023.14-.5-.084-.342 2.062.498.084-.024.147.23.037.024-.146.23.038-.024.147.23.037.026-.152a.963.963 0 0 0 .514-.058.481.481 0 0 0 .272-.378.522.522 0 0 0-.035-.343Zm-1.18-1.038.474.08a.49.49 0 0 1 .257.105.205.205 0 0 1 .053.198.2.2 0 0 1-.121.167.476.476 0 0 1-.278.018l-.475-.08.09-.488Zm.627 1.422a.53.53 0 0 1-.295.014l-.556-.092.083-.51.558.093c.252.042.365.15.338.32a.216.216 0 0 1-.127.182l-.002-.007Z" fill="#fff" opacity=".3"/><path d="m30.991 27.299.28 1.043a3.241 3.241 0 0 1 1.98.262l.544-.942a4.321 4.321 0 0 0-2.804-.363Zm1.452 7.456a3.25 3.25 0 0 1-3.65-2.107l-1.043.28a4.335 4.335 0 0 0 4.974 2.878l-.281-1.05Zm-3.782-2.616a3.253 3.253 0 0 1 2.104-3.648l-.28-1.043a4.337 4.337 0 0 0-2.876 4.98l1.052-.289Z" fill="#407BFF"/><path d="M28.661 32.14a3.253 3.253 0 0 1 2.104-3.649l-.28-1.043a4.337 4.337 0 0 0-2.876 4.98l1.052-.289Z" fill="#000" opacity=".2"/><path d="m34.253 27.937-.544.941a3.251 3.251 0 0 1-.756 5.74l.28 1.044a4.338 4.338 0 0 0 1.019-7.729v.004Z" fill="#407BFF"/><path d="m30.991 27.299.28 1.043a3.241 3.241 0 0 1 1.98.262l.544-.942a4.321 4.321 0 0 0-2.804-.363Z" fill="#fff" opacity=".8"/><path d="M32.443 34.755a3.25 3.25 0 0 1-3.65-2.107l-1.043.28a4.335 4.335 0 0 0 4.974 2.878l-.281-1.05Z" fill="#fff" opacity=".6"/><path d="M28.661 32.14a3.253 3.253 0 0 1 2.104-3.649l-.28-1.043a4.337 4.337 0 0 0-2.876 4.98l1.052-.289Z" fill="#fff" opacity=".7"/><path d="m34.253 27.937-.544.941a3.251 3.251 0 0 1-.756 5.74l.28 1.044a4.338 4.338 0 0 0 1.019-7.729v.004Z" fill="#fff" opacity=".5"/><path d="m38.064 24.222 1.814 1.449 6.813-5.237 8.185.655 5.597-6.191.658.513.903-3.064-3.68.685.748.58-5.614 6.153-8.061-.64-7.363 5.097Z" fill="#407BFF"/><path d="m38.064 24.222 1.814 1.449 6.813-5.237 8.185.655 5.597-6.191.658.513.903-3.064-3.68.685.748.58-5.614 6.153-8.061-.64-7.363 5.097Z" fill="#fff" opacity=".5"/><path d="M69.79 16.925a1.746 1.746 0 1 0 .904 3.374 1.746 1.746 0 0 0-.904-3.374Zm.678 2.53a.874.874 0 1 1-.456-1.687.874.874 0 0 1 .456 1.687Zm4.9 1.28a1.746 1.746 0 1 0 .9 3.374 1.746 1.746 0 0 0-.9-3.374Zm.678 2.528a.873.873 0 1 1-.456-1.685.873.873 0 0 1 .456 1.685Zm-3.394 1.816-1.122.3 1.667-9.367 1.122-.3-1.667 9.367Z" fill="#407BFF"/><path d="M69.79 16.925a1.746 1.746 0 1 0 .904 3.374 1.746 1.746 0 0 0-.904-3.374Zm.678 2.53a.874.874 0 1 1-.456-1.687.874.874 0 0 1 .456 1.687Zm4.9 1.28a1.746 1.746 0 1 0 .9 3.374 1.746 1.746 0 0 0-.9-3.374Zm.678 2.528a.873.873 0 1 1-.456-1.685.873.873 0 0 1 .456 1.685Zm-3.394 1.816-1.122.3 1.667-9.367 1.122-.3-1.667 9.367Z" fill="#fff" opacity=".5"/></g><defs><clipPath id="a"><path d="m.465 5.842 86.952-23.299 23.3 86.953-86.953 23.299z" fill="#fff"/></clipPath></defs></svg>