<svg xmlns="http://www.w3.org/2000/svg" fill="none" viewBox="0 0 84 56"><g clip-path="url(#a)" opacity=".1" style="mix-blend-mode:luminosity"><path d="M24.989 48.919a7.918 7.918 0 0 1 .08-2.451c1.077-1.373 2.64-2.407 3.008-4.222.014-.067-.053-.151-.109-.073-.285.406-.79.676-1.139 1.03a7.69 7.69 0 0 0-.594.67 3.162 3.162 0 0 0-.583 1.732c-.184.2-.37.411-.533.619a59.286 59.286 0 0 1 1.187-4.991c.195-.182.377-.377.545-.583.178-.193.331-.408.454-.64.53.083.999-.287 1.376-.687 1.14-.658 2.003-1.692 3.27-2.095a8.8 8.8 0 0 0 1.059-.294 4.06 4.06 0 0 0 .835-.39c.272-.185.524-.396.755-.63a4.59 4.59 0 0 0 .656-.801c.068-.117.133-.23.213-.337.062-.109.135-.21.217-.304.051-.052.16-.116.112-.193-.003-.038-.02-.072-.06-.064a1.58 1.58 0 0 0-.245.033c-.089.024-.175.062-.258.087-.19.052-.373.12-.551.204-.332.131-.66.243-.986.403a7.172 7.172 0 0 0-.633.324 2.25 2.25 0 0 0-.488.398 3.675 3.675 0 0 0-.226.265c-.1.128-.194.257-.29.387a7.04 7.04 0 0 1-.535.715 4.557 4.557 0 0 1-.725.556c-.062.045-.122.09-.186.134-.509.366-1.048.735-1.546 1.135.61-.779 1.05-1.674 1.547-2.524.027-.048 0-.16-.072-.124-1.611.754-2.758 1.892-3.252 3.605a4.56 4.56 0 0 1-.636.843c-.08.084-.171.167-.258.252a29.55 29.55 0 0 1 1.245-3.573c.133-.302.27-.6.41-.895a.04.04 0 0 0 .03-.013.042.042 0 0 0 .012-.03.142.142 0 0 1-.001-.038c.134-.283.27-.569.406-.85.123-.095.252-.183.384-.263.418-.247.87-.426 1.306-.631.187-.092.368-.196.542-.312a4.92 4.92 0 0 0 1.03-.883c.1-.111.194-.231.294-.343l.19-.218c.109-.11.206-.232.29-.362.085-.146-.097-.124-.186-.092-.24.09-.468.204-.7.314-.231.11-.419.153-.623.252-.061.029-.124.051-.186.076a.488.488 0 0 1-.152.051.29.29 0 0 1 .046-.11c.04-.067.066-.14.1-.207a1.59 1.59 0 0 0 .12-.27c.027-.08.059-.157.095-.233a.778.778 0 0 0 .035-.188 2.31 2.31 0 0 1 .18-.47 4.1 4.1 0 0 1 .643-1.042c.037-.042.074-.085.113-.127.039-.042.038-.186-.049-.142a6.75 6.75 0 0 0-1.506 1.062 4.639 4.639 0 0 0-.751.796c-.087.13-.177.246-.253.38-.076.136-.15.292-.213.442-.22.513-.213 1-.38 1.517a11.08 11.08 0 0 0-.402.665 1.804 1.804 0 0 0-.045-.513 3.004 3.004 0 0 0-.312-.732 5.325 5.325 0 0 1-.457-1.242.049.049 0 0 0-.045-.04.049.049 0 0 0-.05.035c-.234.49-.46 1.033-.386 1.599.094.718.524 1.285.775 1.94-.166.362-.325.728-.49 1.078a24.574 24.574 0 0 0-.794 1.956 4.255 4.255 0 0 0-1.005-2.564c-.055-.06-.095.037-.075.086.347.748-.26 1.724-.201 2.538.02.252.082.499.183.73.04.09.38.728.557.865-.042.14-.088.278-.126.417a58.28 58.28 0 0 0-1.05 4.342c-.229 1.117-.396 2.225-.232 3.354.017.169.299.056.275-.101ZM30.92 32.17a2.786 2.786 0 0 1-.37.828c-.116.146-.25.279-.398.394-.113.095-.235.18-.359.261a1.62 1.62 0 0 0-.19.128 4.066 4.066 0 0 1-.2.167 2.07 2.07 0 0 0-.218.176.743.743 0 0 0-.18.225c.09-.267.164-.539.222-.814.03-.14.069-.276.116-.41a2.053 2.053 0 0 1 .308-.671c.056-.072.106-.148.159-.221.084-.109.176-.21.274-.306.25-.24.513-.467.787-.68.254-.209.52-.403.797-.581a3.767 3.767 0 0 0-.485.786 6.58 6.58 0 0 0-.263.718Zm-.122 1.84a9.688 9.688 0 0 1-1.076.628c-.176.096-.364.181-.545.277-.1.052-.197.11-.29.172a.817.817 0 0 0-.256.194 4.62 4.62 0 0 1 .708-1.05 2.672 2.672 0 0 1 .505-.438c.34-.218.693-.416 1.056-.593.132-.073.263-.138.396-.203.25-.12.508-.223.758-.343.034-.016.151-.092.195-.077.043.015-.046.126-.065.152-.13.164-.293.302-.43.457-.055.062-.108.128-.165.188-.13.134-.271.24-.414.357-.07.058-.146.109-.218.16l-.065.045-.093.075Zm-2.76 2.006a6.975 6.975 0 0 0-.377-.79c-.264-.569-.577-1.499-.179-2.087.228-.333.123-.025.212.228.075.197.165.388.268.571.242.463.458.966.364 1.48-.092.197-.19.392-.285.593l-.003.005Zm3.632 1.09c.02-.007.052-.062.066-.079.014-.017.048-.058.07-.089.046-.058.09-.12.134-.18.087-.123.17-.248.255-.371.15-.205.315-.398.495-.576.612-.634 1.48-.93 2.294-1.215.068-.024.275-.116.358-.079.1.058-.27.502-.31.56-.28.4-.606.764-.973 1.085-.244.213-.517.39-.812.524a4.69 4.69 0 0 1-1.005.298l-.31.073a1.407 1.407 0 0 0-.26.044l-.002.005Zm-4.29 2.804c.329-.764.543-1.474 1.141-2.11a6.307 6.307 0 0 1 1.848-1.322c-.46.837-.998 2.017-1.762 2.76l-.127.108-.004.008a2.227 2.227 0 0 1-1.096.556Zm-1.639.095a2.524 2.524 0 0 1-.157-1.505c.054-.364.18-.718.21-1.086l-.044-.46c.067.222.407.805.454.922.255.589.356 1.232.294 1.87-.108.319-.213.64-.31.96a7.467 7.467 0 0 1-.447-.701Zm.021 5.476c.128-.61.276-1.148.698-1.652.283-.338.595-.652.933-.937.16-.133.333-.253.485-.397-.344 1.215-1.262 2.078-2.114 2.983l-.002.003Zm44.863-27.948c-1.29-.71-2.712-1.018-4.155-1.237a81.582 81.582 0 0 0-5.718-.69c-.185-.014-.372-.022-.56-.035-.087-.275-.7-.975-.791-1.063a2.918 2.918 0 0 0-.8-.551c-.95-.44-2.414-.145-3.155-.906-.05-.046-.184-.042-.137.05.502.933 1.518 1.946 2.627 2.372a31.277 31.277 0 0 0-2.722.075c-.498.04-1.01.066-1.519.106-.676-.599-1.165-1.374-1.99-1.812-.65-.347-1.399-.322-2.106-.258a.063.063 0 0 0-.036.117c.474.316.908.69 1.291 1.112a4 4 0 0 0 .743.712c.185.122.387.218.599.285-.33.05-.655.11-.984.184-.707-.035-1.295-.267-2.01-.232a6.74 6.74 0 0 0-.626.055c-.205.027-.386.095-.576.136a6.044 6.044 0 0 0-1.306.553 8.727 8.727 0 0 0-1.954 1.336c-.094.088.083.156.151.125.068-.031.137-.054.209-.088a5.316 5.316 0 0 1 1.55-.304c.215-.026.432-.028.647-.005a.965.965 0 0 0 .25.04c.109-.004.217-.016.326-.01.127.006.253 0 .379-.02.098-.012.196-.02.299-.035.041-.004.12-.025.155-.007a.67.67 0 0 1-.144.175c-.059.062-.114.128-.177.187-.211.203-.376.439-.58.646-.237.228-.472.456-.695.7-.08.096-.192.305.027.268a3.03 3.03 0 0 0 .568-.187c.117-.04.234-.088.35-.13.18-.071.366-.129.546-.2a6.318 6.318 0 0 0 1.53-.848c.22-.157.43-.329.628-.514.444-.437.868-.898 1.358-1.298a5.54 5.54 0 0 1 .489-.342c.401-.037.807-.073 1.212-.106l.042.025a.054.054 0 0 0 .07-.031c.42-.036.841-.07 1.27-.1a37.763 37.763 0 0 1 4.881.113c-.144.066-.287.138-.422.195a5.72 5.72 0 0 1-1.305.388c-2.301-.163-4.198.696-5.831 2.305-.075.072.047.153.124.145.078-.007.21-.035.315-.051.81-.132 1.622-.184 2.424-.358a7.05 7.05 0 0 0 2.204-.786c.241-.132.462-.297.658-.49.09-.096.166-.203.227-.319.018-.03.118-.33.118-.33.338-.045.67-.134.985-.263a7.37 7.37 0 0 0 .951-.396c1.667.13 3.322.332 4.97.58.53.079 1.06.156 1.59.254-.335.106-.67.237-.99.363a4.076 4.076 0 0 0-2.376-.081 9.544 9.544 0 0 0-1.075.42c-.587.26-1.142.748-1.761.908-.119.03-.05.15.038.166 2.359.381 4.314-1.048 6.459-1.723 1.043.18 2.052.52 2.99 1.012.187.094.447-.195.251-.302Zm-24.142-.138a4.704 4.704 0 0 0-1.172.227c.34-.253.696-.487 1.063-.7.381-.235.774-.45 1.178-.643.159-.076.323-.14.491-.191.113-.033.226-.06.34-.094.145-.038.293-.062.443-.072.168-.012.337-.01.505.004a5 5 0 0 1 .547.045c.358.06.72.1 1.083.117a.94.94 0 0 0-.353.115 2.7 2.7 0 0 0-.314.183 5.137 5.137 0 0 1-.292.167 1.89 1.89 0 0 0-.239.172 5.405 5.405 0 0 1-.479.31c-.21.128-.433.23-.667.304-.38.087-.771.111-1.159.072a7.821 7.821 0 0 0-.975-.016Zm3.142.788c-.028.02-.054.04-.081.058-.098.064-.192.134-.295.19-.207.113-.406.238-.619.331-.1.043-.202.077-.301.116-.252.096-.492.23-.747.312-.04.012-.216.083-.214.01.003-.074.146-.166.182-.2.258-.248.502-.509.757-.76.137-.128.276-.257.427-.378.377-.357.773-.693 1.188-1.006.15-.11.309-.208.473-.295.092-.045.187-.086.28-.124a5.977 5.977 0 0 1 1.585-.381 1.086 1.086 0 0 0-.347.215 5.65 5.65 0 0 0-.34.275c-.196.174-.383.364-.578.534a12.89 12.89 0 0 1-1.254 1.017l-.116.086Zm2.926-2.426c-.665-.121-1.176-.61-1.624-1.112a5.773 5.773 0 0 0-.557-.584c-.265-.222-.694-.24-.18-.358.892-.214 1.87.582 2.44 1.159.285.287.492.588.78.809-.283.026-.576.05-.859.086Zm4.697 1.96-.01-.005c-.062.033-.126.071-.185.101-1.243.586-2.905.706-4.131.88a8.149 8.149 0 0 1 2.433-1.633c1.042-.44 1.994-.372 3.064-.423-.282.464-.69.837-1.177 1.077l.006.004Zm2.674-2.158c-.432-.03-.868-.046-1.3-.062a4.867 4.867 0 0 1-2.127-1.199c-.12-.11-.67-.785-.901-.962.173.082.532.257.535.262.46.135.944.143 1.407.242.658.106 1.267.41 1.748.87.226.27.437.552.632.845l.006.004Zm1.395 2.855c.245-.117.465-.272.699-.406a9.798 9.798 0 0 1 1.551-.711c.79-.287 1.514-.217 2.31-.095-1.483.624-2.939 1.343-4.566 1.209l.006.003ZM15.494 63.93l6.053 10.482a.96.96 0 0 0 .748.432l36.884.015c.276 0 .388-.193.25-.433l-6.002-10.48a.943.943 0 0 0-.746-.43l-36.937-.019c-.276 0-.388.193-.25.433Z" fill="#E0E0E0"/><path d="M58.954 60.202c-1.554-2.691-.294-4.874 2.814-4.874s6.886 2.181 8.44 4.873c1.554 2.691.294 4.874-2.814 4.874s-6.886-2.181-8.44-4.873Z" fill="#407BFF"/><path d="M58.954 60.202c-1.554-2.691-.294-4.874 2.814-4.874s6.886 2.181 8.44 4.873c1.554 2.691.294 4.874-2.814 4.874s-6.886-2.181-8.44-4.873Z" fill="#fff" opacity=".4"/><path d="m61.06 62.746-.01-.005a.118.118 0 0 1-.047-.124.12.12 0 0 1 .019-.043L72.228 46.72a.123.123 0 0 1 .166-.029.118.118 0 0 1 .05.078.12.12 0 0 1-.021.089L61.217 62.712a.12.12 0 0 1-.157.034Z" fill="#37474F"/><path d="M70.8 62.737a.117.117 0 0 1-.058-.115l1.464-15.844a.12.12 0 1 1 .238.021l-1.465 15.845a.119.119 0 0 1-.178.093Z" fill="#37474F"/><path d="M61.708 55.433a.123.123 0 0 1-.033-.03.12.12 0 0 1 .017-.17l10.552-8.54a.119.119 0 0 1 .194.105.121.121 0 0 1-.044.08L61.842 55.42a.12.12 0 0 1-.134.013Z" fill="#37474F"/><path d="m74.367 45.597-.419-.242a1.15 1.15 0 0 1-.069.141c-.302.523-.99.965-1.505.966a.395.395 0 0 1-.349-.146c-.072-.127-.036-.343.1-.58.115-.192.264-.363.439-.503l-.44-.255a2.364 2.364 0 0 0-.414.52c-.226.39-.263.776-.1 1.06.063.108.154.2.264.262a.987.987 0 0 0 .5.12c.686 0 1.528-.529 1.919-1.205.027-.044.051-.09.073-.138Z" fill="#455A64"/><path d="M80.431 57.179c-.291-.501-.318-.956-.128-1.285.19-.33.598-.534 1.177-.532 1.16 0 2.57.813 3.15 1.818.29.5.318.956.127 1.285-.19.33-.599.533-1.177.532-1.156-.005-2.566-.82-3.149-1.818Z" fill="#37474F"/><path d="M84.87 57.906c-.027-.255-.11-.5-.244-.72-.58-1.005-1.99-1.819-3.15-1.818a1.723 1.723 0 0 0-.745.148 1.307 1.307 0 0 0 .186 1.049c.545.939 1.865 1.701 2.95 1.703a1.306 1.306 0 0 0 1.003-.362Z" fill="#000" opacity=".25"/><path d="M81.123 56.209c-.272-.472-.297-.896-.119-1.205.179-.31.56-.5 1.102-.499 1.086.002 2.406.765 2.95 1.704.273.47.3.896.122 1.204-.178.308-.56.499-1.105.5-1.086-.002-2.407-.764-2.95-1.704Z" fill="#37474F"/><path d="M85.282 56.843a1.621 1.621 0 0 0-.225-.634c-.545-.939-1.865-1.702-2.95-1.704a1.635 1.635 0 0 0-.66.123c-.059.32.01.65.19.922.507.877 1.738 1.589 2.752 1.589.325.02.645-.086.893-.296Z" fill="#000" opacity=".25"/><path d="M80.332 56.99c-.169-.428.375-.886.72-.912-.09-.468.309-.819.765-.84.138.232.309.444.508.626-.455.02-.892.405-.8.873-.346.027-.912.5-.73.937-.334.06-.882.447-.692.976a2.85 2.85 0 0 1-.456-.679c-.188-.525.353-.92.685-.98Z" fill="#fff" opacity=".15"/><path d="M85.628 55.548c-.044-.134.06-.896.535-1.896 1.618-3.398 4.033-7.578 5.867-10.753l-1.885-1.088c-1.832 3.174-4.236 7.337-6.373 10.448-.631.916-1.246 1.392-1.383 1.42a.958.958 0 0 0-.687.437c-.166.289-.142.686.113 1.125.504.878 1.738 1.59 2.752 1.589.506 0 .862-.177 1.029-.466a.966.966 0 0 0 .032-.816Z" fill="#455A64"/><path d="M82.553 53.962c.525-.282.89-.46 1.6-1.485.653-.949 5.95-10.28 6.117-10.594l.131.076.14.151c-.864 1.496-6.201 10.968-6.9 11.658-.698.69-1.68 1.216-1.317 2.095a2.74 2.74 0 0 1-.509-.626c-.11-.65.213-.993.738-1.275Z" fill="#fff" opacity=".15"/><path d="M92.914 38.925a16.918 16.918 0 0 0-.849 0c-3.01-.025-6.194-.113-7.872.867-.633.365-1.2.837-1.671 1.395-1.06.43-2.098.871-3.127 1.318-.786.343-1.564.689-2.347 1.01l-.044.005c-.04 0-.064.005-.065.019-.002.013-.018.03-.042 0a.597.597 0 0 1 .011-.41c.049-.18.122-.352.218-.513a1.7 1.7 0 0 1 .365-.455.071.071 0 0 0 .021-.067.066.066 0 0 0-.08-.047 1.61 1.61 0 0 0-.615.296c-.188.14-.354.307-.494.495a1.42 1.42 0 0 0-.295.78.91.91 0 0 0 .045.285c-.52.195-1.046.37-1.562.516a8.325 8.325 0 0 1-1.633.306c-.55.065-.856-.062-.954-.3a.791.791 0 0 1 .032-.516c.082-.231.2-.448.35-.643a3.537 3.537 0 0 1 1.187-1.01c.214-.111.448-.18.69-.203a.857.857 0 0 1 .287.032.332.332 0 0 1 .164.117.308.308 0 0 1 .042.212.917.917 0 0 1-.1.318c-.12.23-.28.436-.476.606-.19.18-.417.318-.664.405a.854.854 0 0 1-.343.042.271.271 0 0 1-.212-.122l-.009-.018a.19.19 0 0 0-.232-.082.181.181 0 0 0-.103.244c.04.103.107.192.194.258a.749.749 0 0 0 .278.132c.178.037.361.035.538-.004.326-.076.632-.221.898-.424.273-.197.505-.445.68-.732.097-.156.165-.328.202-.508a1.06 1.06 0 0 0 .018-.319.888.888 0 0 0-.099-.333 1.016 1.016 0 0 0-.49-.463 1.483 1.483 0 0 0-.582-.128c-.354 0-.704.073-1.029.213a4.394 4.394 0 0 0-1.592 1.17 3.31 3.31 0 0 0-.556.882c-.075.18-.125.37-.149.564-.026.221-.006.445.06.658a1.572 1.572 0 0 0 .904.958c.186.077.382.127.582.148.093.013.186.02.28.02l.245-.002c1.303-.03 2.507-.376 3.655-.754.416-.14.827-.285 1.235-.436.14-.017.277-.056.406-.115.11-.046.217-.1.319-.164 1.6-.61 3.157-1.268 4.737-1.844 2.198-.796 4.423-1.483 6.685-1.773a18.97 18.97 0 0 1 1.96-.15l1.001-1.734-.003-.002Zm-9.497 1.905c.16-.201.525-.53 1.326-.854 1.23-.495 2.724-.605 3.63-.61a31.608 31.608 0 0 0-4.956 1.464Z" fill="#455A64"/><path d="M39.427 28.905c-.342.772-.864 1.179-1.366 1.178a1.083 1.083 0 0 1-.86-.496c-.796-1.074-.845-3.194-.1-4.75.574-1.194 1.387-1.835 2.159-1.834.479 0 .942.246 1.322.763.621.84.987 2.127 1.034 3.488l-1.99-.001s.274.582-.2 1.652Z" fill="#E0E0E0"/><path d="M39.427 28.905c-.342.772-.864 1.179-1.366 1.178a1.083 1.083 0 0 1-.86-.496c-.796-1.074-.845-3.194-.1-4.75.574-1.194 1.387-1.835 2.159-1.834.479 0 .942.246 1.322.763.621.84.987 2.127 1.034 3.488l-1.99-.001s.274.582-.2 1.652Z" fill="#000" opacity=".1"/><path d="M76.497 28.925c.475-1.07.2-1.652.2-1.652l-37.071-.018s.277.576-.2 1.65c-.343.771-.865 1.178-1.365 1.179l37.073.013c.507-.002 1.023-.407 1.363-1.172Z" fill="#E0E0E0"/><path d="M76.497 28.925c.475-1.07.2-1.652.2-1.652l-37.071-.018s.277.576-.2 1.65c-.343.771-.865 1.178-1.365 1.179l37.073.013c.507-.002 1.023-.407 1.363-1.172Z" fill="#000" opacity=".3"/><path d="m22.633 62.546 18.103-31.355c1.308-2.266 1.089-5.744-.154-7.423-.996-1.343-2.554-.863-3.483 1.074-.741 1.548-.698 3.675.1 4.75.638.86 1.671.57 2.228-.687.474-1.07.199-1.65.199-1.65l-.505.239-.009-.02c.007.017.152.421-.196 1.205-.26.584-.59.819-.812.844a.512.512 0 0 1-.456-.263c-.674-.91-.694-2.822-.045-4.177.43-.895 1.016-1.46 1.571-1.513.35-.034.672.146.959.532 1.072 1.452 1.35 4.668.114 6.807L22.145 62.264a11.271 11.271 0 0 0-.002 11.24l.163.28.324-.563a10.673 10.673 0 0 1 .004-10.675Z" fill="#455A64"/><path d="m59.705 62.563 18.103-31.355c1.308-2.266 1.09-5.743-.154-7.423-.382-.514-.845-.76-1.324-.765l-37.071-.012c.479 0 .942.247 1.322.764 1.243 1.68 1.461 5.156.153 7.422L22.633 62.546a10.674 10.674 0 0 0-.002 10.672l37.074.018a10.674 10.674 0 0 1 0-10.673Z" fill="#A2A2A2"/><path d="M77.654 23.785c-.382-.514-.845-.76-1.324-.765l-37.071-.012c.479 0 .942.247 1.322.764.495.668.826 1.62.96 2.665l37.079.016c-.139-1.048-.472-2-.966-2.668Z" fill="#8E8E8E"/><path d="M76.952 23.375c.219.133.408.309.557.517 1.146 1.545 1.45 4.963.143 7.226L59.55 62.473a10.881 10.881 0 0 0-.15 10.582l-36.661-.021a10.523 10.523 0 0 1 .053-10.4L40.916 31.24c1.255-2.217 1.168-5.745-.19-7.576a2.373 2.373 0 0 0-.457-.472l36.058.014c.22.001.434.06.623.172m.09-.156a1.413 1.413 0 0 0-.715-.204l-37.066-.01c.252.003.5.074.715.205.24.144.45.335.614.563 1.243 1.679 1.46 5.156.153 7.421L22.639 62.55a10.675 10.675 0 0 0-.002 10.672l37.068.014a10.675 10.675 0 0 1 0-10.673l18.103-31.355c1.308-2.266 1.09-5.743-.154-7.423a2.052 2.052 0 0 0-.614-.563Z" fill="#E0E0E0"/><path d="m45.22 31.344.068-.117.763-.001-.069.119-.373.036h-.06l-.329-.037Zm.113 1.389c.256 0 .487-.156.726-.57l.54-.936h.145l-.56.967c-.306.531-.68.742-1.054.745-.374.002-.512-.194-.236-.672l.154-.267.44-.763h.341l-.444.77-.113.196c-.25.394-.181.534.06.53Zm1.202-1.362-.253-.03.068-.119.601.001-.067.117-.287.031h-.062Zm-.29 1.529.307-.53.076-.132.174-.301-.164-.022.054-.094.508-.16.027.026-.137.285-.231.4-.303.524-.31.004Zm.522-.103-.06.103-.623-.002.059-.101.282-.045.121-.001.221.046Zm.996-.686-.151.262-.303.525h-.32l.308-.532.137-.237c.114-.197.1-.265-.024-.264a.946.946 0 0 0-.443.18h-.071l.08-.14.15.002-.136.057a1.21 1.21 0 0 1 .678-.308c.233 0 .275.142.095.455Zm-.461.637.22.05-.06.103h-.623l.059-.103.28-.047.124-.003Zm.471.145.307-.53.068-.12.18-.312-.168-.022.054-.094.548-.158.025.025-.206.356-.192.332-.302.525-.314-.002Zm.522-.103-.06.103h-.624l.06-.103.28-.046h.12l.224.046Zm.396-1.549a.361.361 0 0 1 .294-.18c.106.001.147.073.086.18a.36.36 0 0 1-.293.18c-.106-.001-.147-.075-.087-.18Zm.417.605-.211-.044.06-.104h.66l-.06.104-.292.04-.157.005Zm.265-.148-.193.958-.254.201 1.07-1.16h.156l-1.158 1.206h-.148l.193-1.213.334.008Zm.54.145-.205-.04.06-.104h.475l-.06.104-.215.04h-.054Zm1.218.318a.9.9 0 0 1-.094.137h-.957l.069-.12.535.001a.24.24 0 0 0 .232-.143c.09-.156.05-.26-.073-.26-.122 0-.345.126-.553.486-.18.313-.114.468.105.467a.754.754 0 0 0 .42-.156l.035.065a1.01 1.01 0 0 1-.674.291c-.354.004-.454-.237-.227-.63a1.261 1.261 0 0 1 .983-.644c.296 0 .37.21.2.506Zm.232.205.077-.133.173-.3-.165-.022.054-.094.51-.161.026.027-.153.312-.215.373-.303.524h-.317c.072-.112.223-.37.313-.526Zm-.41.425.284-.044h.16l.228.051-.058.102h-.677l.063-.11Zm.764-.76h.165l-.073.042c.219-.27.468-.418.617-.417.093-.001.146.046.12.135a.337.337 0 0 1-.274.194.113.113 0 0 1-.122-.089l-.026-.078.109.007a1.374 1.374 0 0 0-.474.374l-.135-.008.093-.16Zm.32.793.169-.292h.166l-.12.316-.098-.057.055-.095a.303.303 0 0 0 .253.102.38.38 0 0 0 .352-.17c.054-.093.023-.147-.107-.2l-.103-.041c-.154-.062-.203-.176-.098-.357a.822.822 0 0 1 .698-.38.461.461 0 0 1 .316.102l-.166.266h-.164l.1-.284.088.05-.045.079a.24.24 0 0 0-.207-.089.335.335 0 0 0-.3.158c-.052.09-.029.137.11.194l.081.031c.198.083.222.207.123.379a.857.857 0 0 1-.757.395.523.523 0 0 1-.346-.107Zm1.903-.61a6.62 6.62 0 0 1 .457-.106l-.057.099c-.133.025-.263.06-.392.1a.596.596 0 0 0-.364.254c-.075.13-.033.19.07.184.067 0 .128-.026.295-.11l.108-.058.006.044-.144.094a.94.94 0 0 1-.509.214c-.188 0-.27-.11-.15-.317.093-.16.249-.282.68-.399Zm-.027.462.348-.602c.135-.235.114-.296-.05-.297a.916.916 0 0 0-.254.04l.189-.089-.155.196a.33.33 0 0 1-.257.174c-.08 0-.106-.04-.076-.112a.884.884 0 0 1 .723-.33c.291 0 .344.126.154.453l-.316.548c-.047.082-.036.113.01.112a.198.198 0 0 0 .12-.054l.028.05a.497.497 0 0 1-.35.159c-.159.005-.192-.095-.114-.248Zm1.973-1.625.03.017-.216.354-.54.937-.303.525h-.319l.307-.532.623-1.078-.159-.01.056-.098.52-.115Zm-.798 1.742-.06.103-.659-.004.06-.103.291-.05h.12l.248.054Zm1.554-1.449.068-.117h.379l-.09.156h-.033l-.324-.039Zm-.426 1.394-.09.156h-.379l.069-.118.367-.038h.033Zm.26-.733.45-.78.346-.009-.45.78-.061.105-.459.795h-.342c.15-.257.3-.518.463-.8l.052-.09Zm-.274.758h.31c.346-.008.685-.256.944-.704.258-.448.213-.71-.116-.704h-.325l.075-.13.363.002c.507.001.657.304.354.829a1.608 1.608 0 0 1-1.364.834l-.317.002.076-.129Zm2.846-.603a.9.9 0 0 1-.096.138h-.956l.069-.118h.533a.242.242 0 0 0 .232-.144c.09-.156.052-.259-.077-.252-.129.007-.344.124-.553.486-.18.312-.113.466.105.467a.751.751 0 0 0 .419-.156l.036.063a1.01 1.01 0 0 1-.672.292c-.354.004-.457-.236-.23-.63a1.261 1.261 0 0 1 .984-.643c.3-.008.38.194.206.497Zm.444.1c-.175.303-.116.469.107.468a.707.707 0 0 0 .414-.166l.042.053a.943.943 0 0 1-.672.313c-.348.008-.46-.23-.227-.633a1.262 1.262 0 0 1 .995-.643c.246 0 .343.153.256.346a.26.26 0 0 1-.206.112c-.092.001-.116-.054-.063-.176l.075-.2.092.099a.341.341 0 0 0-.2-.059c-.177.002-.422.156-.613.487Zm2.022-1.21.028.017-.215.355-.54.936-.304.525h-.318l.307-.531.622-1.08-.167-.023.057-.098.53-.1Zm-.797 1.743-.06.101h-.652l.06-.103.286-.043h.12l.246.045Zm.916-.585c.126-.033.32-.079.456-.105l-.056.097a3.61 3.61 0 0 0-.39.102.597.597 0 0 0-.366.252c-.075.13-.032.19.07.186.068 0 .127-.026.296-.112l.11-.057.005.045-.144.094a.922.922 0 0 1-.51.213c-.19 0-.27-.11-.15-.318.087-.154.244-.273.68-.397Zm-.027.462.347-.602c.136-.234.116-.297-.039-.293a.967.967 0 0 0-.254.04l.188-.087-.154.195a.344.344 0 0 1-.258.176c-.078-.002-.106-.04-.075-.115a.888.888 0 0 1 .721-.33c.292 0 .343.127.155.453l-.317.548c-.046.081-.038.113.01.114a.213.213 0 0 0 .12-.056l.029.05a.5.5 0 0 1-.35.16c-.168.001-.205-.093-.128-.248l.005-.005Zm.942-.304.076-.133.173-.3-.164-.022.054-.093.509-.16.03.017-.153.311-.216.373-.303.525h-.318c.068-.103.222-.362.312-.518Zm-.412.424.284-.044h.16l.228.051-.06.103-.676-.01.064-.1Zm.764-.76h.166l-.073.044c.218-.273.467-.42.616-.42.092.002.145.05.128.141a.346.346 0 0 1-.275.195.117.117 0 0 1-.123-.09l-.025-.076.107.005a1.372 1.372 0 0 0-.474.374l-.134-.009.087-.164Zm1.098.184c.124-.034.32-.081.457-.106l-.056.098c-.133.026-.264.06-.392.101a.596.596 0 0 0-.365.254c-.075.13-.032.189.07.184.104-.005.128-.026.296-.11l.11-.058.004.044-.144.094a.929.929 0 0 1-.509.214c-.189 0-.27-.11-.15-.318.093-.16.25-.28.68-.396Zm-.027.462.348-.603c.135-.234.115-.296-.047-.296a.872.872 0 0 0-.255.04l.193-.096-.154.196a.334.334 0 0 1-.259.173c-.079 0-.105-.04-.076-.113a.887.887 0 0 1 .723-.33c.292 0 .344.126.155.454l-.317.548c-.047.081-.037.112.01.112a.198.198 0 0 0 .118-.055l.03.051a.49.49 0 0 1-.35.157c-.162.007-.197-.086-.119-.238Zm1.12.086a.43.43 0 0 0 .19-.063l.022.065a.66.66 0 0 1-.427.17c-.207-.003-.267-.097-.14-.318l.135-.233.31-.537h-.185l.074-.129.327-.04-.176.092.36-.417.206.003-.27.446-.459.794c-.07.114-.046.167.033.167Zm.79-1.072-.09.156-.457.001.09-.156h.457Zm-.414 1.204.306-.531.069-.119.18-.312-.167-.024.053-.092.546-.16.03.019-.205.356-.192.332-.302.525-.318.006Zm.521-.103-.06.103h-.623l.059-.103.282-.046h.121l.221.046Zm.395-1.55a.36.36 0 0 1 .295-.179c.105 0 .148.073.087.179a.373.373 0 0 1-.294.18c-.106 0-.148-.075-.088-.18Zm.054 1.051a1.23 1.23 0 0 1 .973-.637c.323 0 .474.232.24.637a1.213 1.213 0 0 1-.975.637c-.341 0-.47-.236-.238-.637Zm.883.002c.2-.346.196-.511.02-.517-.176-.006-.377.17-.578.518-.201.348-.197.51-.016.51.18.001.373-.163.574-.51Zm.32.6.307-.531.076-.133.174-.3-.164-.023.053-.092.51-.162.024.027-.137.284-.23.4-.304.525-.308.005Zm.522-.103-.06.103-.623-.002.06-.103.28-.046h.123l.22.048Zm1.005-.688-.152.262-.303.525h-.318l.307-.531.138-.24c.113-.196.101-.261-.024-.26a.92.92 0 0 0-.445.178h-.068l.079-.138h.15l-.136.059c.188-.173.426-.281.679-.31.229.007.272.145.093.455Zm-.46.638.219.05-.06.103-.623-.002.06-.103.279-.047h.125Zm1.23-.45a1.23 1.23 0 0 1 .968-.64c.322.001.471.233.238.638a1.206 1.206 0 0 1-.973.637c-.337.003-.47-.224-.234-.635Zm.882.004c.2-.348.195-.512.02-.517-.176-.006-.377.17-.577.516-.2.347-.199.51-.017.513.181.002.374-.165.574-.512Zm.94-.454-.185.001.075-.13.308-.03-.138.056a1.68 1.68 0 0 1 .517-.534.884.884 0 0 1 .478-.162c.13 0 .217.043.18.158a.3.3 0 0 1-.247.139c-.074.001-.115-.04-.135-.128l-.04-.09.262-.056v.074a.091.091 0 0 0-.07-.04.492.492 0 0 0-.274.133 1.8 1.8 0 0 0-.402.574l-.325.562-.302.524h-.317l.306-.53.31-.521Zm-.029.949-.06.103-.693.001.06-.103.295-.05h.154l.244.049Zm.724-1.1-.09.157-.455-.001.09-.156h.455Z" fill="#455A64"/><path d="m51.523 36.02.258-.449c.293-.507.232-.732-.146-.731-.253-.001-.548.1-.938.38.075-.258-.028-.38-.3-.381a1.75 1.75 0 0 0-.905.368l.156-.326-.042-.043-.849.263-.09.157.272.038c-.09.156-.146.274-.279.503l-.127.22-.377.654-.3.054-.097.169 1.037.006.1-.172-.219-.051.376-.651.36-.625c.172-.115.37-.188.575-.21.218.002.228.118.033.457l-.218.376-.377.654-.296.054-.098.17.512-.018h.483l.098-.17-.229-.043.377-.653.254-.44.104-.18c.172-.119.373-.192.582-.21.208-.001.24.096.036.449l-.22.38-.379.656-.3.052-.098.17h.77l.245.001.098-.17-.222-.051.38-.658Zm1.88.669c-.078 0-.094-.054-.017-.187l.525-.91c.314-.544.227-.754-.257-.755a1.474 1.474 0 0 0-1.203.555c-.05.121-.005.188.127.188a.555.555 0 0 0 .427-.29l.182-.229a.972.972 0 0 1 .184-.015c.27 0 .303.105.08.494l-.07.118a9.364 9.364 0 0 0-.463.114c-.714.195-.974.393-1.127.658-.2.346-.066.529.248.529.265 0 .465-.113.792-.322-.065.196.011.313.235.315a.823.823 0 0 0 .582-.265l-.05-.084a.361.361 0 0 1-.2.085h.005Zm-.5-.216c-.256.13-.354.17-.462.17-.165 0-.24-.09-.115-.306a.996.996 0 0 1 .605-.42c.088-.03.217-.067.35-.1l-.378.656Zm-7.142-2.35h-.336l-.112.195.317.038-.578 1.002h-1.129l.583-1.01.36-.036.114-.197-.569.001h-.674l-.113.195.323.039-.609 1.055-.105.181-.612 1.062-.369.04-.112.194h.907l.335.002.113-.197-.318-.036.62-1.074h1.128l-.623 1.08-.363.036-.112.196h.513l.387.001h.342l.113-.197-.324-.037.61-1.056.101-.176.614-1.063.367-.038.114-.197-.727-.003h-.176Zm16.083.322a.613.613 0 0 0 .487-.298c.102-.176.032-.297-.146-.292a.61.61 0 0 0-.489.299c-.096.17-.028.294.149.294v-.003Zm-13.8 1.047.353-.588-.03-.044-.768.095-.09.156.229.058-.703 1.195a1.35 1.35 0 0 1-.612.238c-.184 0-.22-.106-.038-.42l.395-.684.359-.586-.03-.044-.778.088-.09.156.233.06-.606 1.03c-.32.552-.215.75.13.75.344-.03.67-.164.933-.386l-.178.366.733-.037.099-.17-.22-.055.68-1.178Zm21.01.185-.135-.051c-.23-.095-.27-.172-.186-.316a.556.556 0 0 1 .501-.26c.08-.004.16.014.23.052l-.123.345h.273l.277-.44a.777.777 0 0 0-.526-.17 1.367 1.367 0 0 0-1.16.63c-.173.3-.091.49.164.593l.17.066c.217.089.266.177.177.332a.623.623 0 0 1-.583.288.54.54 0 0 1-.287-.066l.146-.382-.28-.002-.279.483a.852.852 0 0 0 .571.175 1.424 1.424 0 0 0 1.247-.645c.171-.286.13-.493-.196-.63l-.001-.002Zm-2.09 1c-.131-.001-.168-.097-.052-.297l.711-1.232h.506l.146-.252h-.5l.35-.576-.338-.001-.488.572-.368.039-.124.215h.308l-.514.891-.224.387c-.212.367-.098.53.23.527.261-.003.512-.1.706-.274l-.036-.106a.735.735 0 0 1-.314.106Zm-5.77-.659.318-.55.35-.584-.042-.043-.906.264-.09.156.276.037c-.094.164-.159.297-.291.527l-.114.197-.378.654-.304.055-.099.17 1.04.003.098-.17-.222-.052c.107-.219.258-.483.363-.665l.001.001Zm4.728 0 .252-.437c.297-.515.221-.744-.141-.743-.339.03-.662.158-.928.37l.431-.746.356-.588-.04-.038-.854.188-.09.156.277.042-1.034 1.79-.378.656-.303.052-.098.17.266.002h.764l.098-.17-.214-.051.376-.653.343-.593a1.32 1.32 0 0 1 .62-.239c.21 0 .225.109.036.437l-.228.395-.378.654-.294.052-.1.172 1.039.004.099-.172-.223-.05c.088-.213.237-.474.345-.662l.001.001Zm-6.182.093c.127-.361.088-.542-.242-.597a1.53 1.53 0 0 0 1.126-.682c.259-.448.041-.714-.605-.712l-.355.003-.56.001-.35.007-.114.196.328.038-.609 1.055-.105.181-.613 1.063-.372.038-.113.197 1.25-.004.114-.196-.334-.038.6-1.038h.179c.297 0 .364.089.254.402l-.21.58c-.104.26.01.345.315.345.138 0 .276-.017.409-.052l.113-.195-.298-.036.192-.556Zm-.58-.703h-.245l.617-1.068.268.001c.387 0 .47.175.27.519a1.042 1.042 0 0 1-.91.548Zm4.597-.39c-.071-.113-.236-.175-.488-.175a1.383 1.383 0 0 0-1.206.68c-.151.262-.15.461-.001.572a1.6 1.6 0 0 0-.591.501c-.09.156-.071.263.07.326-.26.07-.486.23-.64.451-.16.278-.055.5.59.5.737.008 1.33-.356 1.557-.75.202-.349.12-.567-.43-.57l-.518-.001c-.187 0-.203-.067-.142-.172a.775.775 0 0 1 .209-.229c.102.033.21.048.317.046a1.378 1.378 0 0 0 1.201-.674.7.7 0 0 0 .112-.352l.414.004.168-.292-.038-.041-.584.177Zm-2.138 1.956c.085.018.172.026.259.024h.464c.265-.002.29.13.2.284-.12.207-.443.368-.883.372-.355.003-.485-.107-.335-.368.071-.125.168-.234.284-.319l.011.007Zm.968-.955c-.225 0-.23-.195-.056-.495.173-.3.416-.496.64-.496.225 0 .237.191.067.486-.17.295-.434.493-.667.496l.016.009Zm-6.368.006.252-.435c.297-.516.222-.745-.137-.744-.336.03-.656.157-.921.366l.158-.325-.043-.044-.849.266-.09.156.272.038c-.09.156-.146.274-.278.504l-.127.218-.378.656-.3.054-.098.17 1.029-.001.098-.17-.217-.05c.12-.207.27-.47.377-.653l.36-.625c.177-.118.38-.19.59-.21.209 0 .228.11.038.44l-.228.394-.377.654-.325.036-.099.172h1.03l.1-.173-.223-.05c.113-.202.263-.466.37-.653l.016.01Z" fill="#407BFF"/><path d="m51.523 36.02.258-.449c.293-.507.232-.732-.146-.731-.253-.001-.548.1-.938.38.075-.258-.028-.38-.3-.381a1.75 1.75 0 0 0-.905.368l.156-.326-.042-.043-.849.263-.09.157.272.038c-.09.156-.146.274-.279.503l-.127.22-.377.654-.3.054-.097.169 1.037.006.1-.172-.219-.051.376-.651.36-.625c.172-.115.37-.188.575-.21.218.002.228.118.033.457l-.218.376-.377.654-.296.054-.098.17.512-.018h.483l.098-.17-.229-.043.377-.653.254-.44.104-.18c.172-.119.373-.192.582-.21.208-.001.24.096.036.449l-.22.38-.379.656-.3.052-.098.17h.77l.245.001.098-.17-.222-.051.38-.658Zm1.88.669c-.078 0-.094-.054-.017-.187l.525-.91c.314-.544.227-.754-.257-.755a1.474 1.474 0 0 0-1.203.555c-.05.121-.005.188.127.188a.555.555 0 0 0 .427-.29l.182-.229a.972.972 0 0 1 .184-.015c.27 0 .303.105.08.494l-.07.118a9.364 9.364 0 0 0-.463.114c-.714.195-.974.393-1.127.658-.2.346-.066.529.248.529.265 0 .465-.113.792-.322-.065.196.011.313.235.315a.823.823 0 0 0 .582-.265l-.05-.084a.361.361 0 0 1-.2.085h.005Zm-.5-.216c-.256.13-.354.17-.462.17-.165 0-.24-.09-.115-.306a.996.996 0 0 1 .605-.42c.088-.03.217-.067.35-.1l-.378.656Zm-7.142-2.35h-.336l-.112.195.317.038-.578 1.002h-1.129l.583-1.01.36-.036.114-.197-.569.001h-.674l-.113.195.323.039-.609 1.055-.105.181-.612 1.062-.369.04-.112.194h.907l.335.002.113-.197-.318-.036.62-1.074h1.128l-.623 1.08-.363.036-.112.196h.513l.387.001h.342l.113-.197-.324-.037.61-1.056.101-.176.614-1.063.367-.038.114-.197-.727-.003h-.176Zm16.083.322a.613.613 0 0 0 .487-.298c.102-.176.032-.297-.146-.292a.61.61 0 0 0-.489.299c-.096.17-.028.294.149.294v-.003Zm-13.8 1.047.353-.588-.03-.044-.768.095-.09.156.229.058-.703 1.195a1.35 1.35 0 0 1-.612.238c-.184 0-.22-.106-.038-.42l.395-.684.359-.586-.03-.044-.778.088-.09.156.233.06-.606 1.03c-.32.552-.215.75.13.75.344-.03.67-.164.933-.386l-.178.366.733-.037.099-.17-.22-.055.68-1.178Zm21.01.185-.135-.051c-.23-.095-.27-.172-.186-.316a.556.556 0 0 1 .501-.26c.08-.004.16.014.23.052l-.123.345h.273l.277-.44a.777.777 0 0 0-.526-.17 1.367 1.367 0 0 0-1.16.63c-.173.3-.091.49.164.593l.17.066c.217.089.266.177.177.332a.623.623 0 0 1-.583.288.54.54 0 0 1-.287-.066l.146-.382-.28-.002-.279.483a.852.852 0 0 0 .571.175 1.424 1.424 0 0 0 1.247-.645c.171-.286.13-.493-.196-.63l-.001-.002Zm-2.09 1c-.131-.001-.168-.097-.052-.297l.711-1.232h.506l.146-.252h-.5l.35-.576-.338-.001-.488.572-.368.039-.124.215h.308l-.514.891-.224.387c-.212.367-.098.53.23.527.261-.003.512-.1.706-.274l-.036-.106a.735.735 0 0 1-.314.106Zm-5.77-.659.318-.55.35-.584-.042-.043-.906.264-.09.156.276.037c-.094.164-.159.297-.291.527l-.114.197-.378.654-.304.055-.099.17 1.04.003.098-.17-.222-.052c.107-.219.258-.483.363-.665l.001.001Zm4.728 0 .252-.437c.297-.515.221-.744-.141-.743-.339.03-.662.158-.928.37l.431-.746.356-.588-.04-.038-.854.188-.09.156.277.042-1.034 1.79-.378.656-.303.052-.098.17.266.002h.764l.098-.17-.214-.051.376-.653.343-.593a1.32 1.32 0 0 1 .62-.239c.21 0 .225.109.036.437l-.228.395-.378.654-.294.052-.1.172 1.039.004.099-.172-.223-.05c.088-.213.237-.474.345-.662l.001.001Zm-6.182.093c.127-.361.088-.542-.242-.597a1.53 1.53 0 0 0 1.126-.682c.259-.448.041-.714-.605-.712l-.355.003-.56.001-.35.007-.114.196.328.038-.609 1.055-.105.181-.613 1.063-.372.038-.113.197 1.25-.004.114-.196-.334-.038.6-1.038h.179c.297 0 .364.089.254.402l-.21.58c-.104.26.01.345.315.345.138 0 .276-.017.409-.052l.113-.195-.298-.036.192-.556Zm-.58-.703h-.245l.617-1.068.268.001c.387 0 .47.175.27.519a1.042 1.042 0 0 1-.91.548Zm4.597-.39c-.071-.113-.236-.175-.488-.175a1.383 1.383 0 0 0-1.206.68c-.151.262-.15.461-.001.572a1.6 1.6 0 0 0-.591.501c-.09.156-.071.263.07.326-.26.07-.486.23-.64.451-.16.278-.055.5.59.5.737.008 1.33-.356 1.557-.75.202-.349.12-.567-.43-.57l-.518-.001c-.187 0-.203-.067-.142-.172a.775.775 0 0 1 .209-.229c.102.033.21.048.317.046a1.378 1.378 0 0 0 1.201-.674.7.7 0 0 0 .112-.352l.414.004.168-.292-.038-.041-.584.177Zm-2.138 1.956c.085.018.172.026.259.024h.464c.265-.002.29.13.2.284-.12.207-.443.368-.883.372-.355.003-.485-.107-.335-.368.071-.125.168-.234.284-.319l.011.007Zm.968-.955c-.225 0-.23-.195-.056-.495.173-.3.416-.496.64-.496.225 0 .237.191.067.486-.17.295-.434.493-.667.496l.016.009Zm-6.368.006.252-.435c.297-.516.222-.745-.137-.744-.336.03-.656.157-.921.366l.158-.325-.043-.044-.849.266-.09.156.272.038c-.09.156-.146.274-.278.504l-.127.218-.378.656-.3.054-.098.17 1.029-.001.098-.17-.217-.05c.12-.207.27-.47.377-.653l.36-.625c.177-.118.38-.19.59-.21.209 0 .228.11.038.44l-.228.394-.377.654-.325.036-.099.172h1.03l.1-.173-.223-.05c.113-.202.263-.466.37-.653l.016.01Z" fill="#000" opacity=".2"/><path d="m59.303 57.55-30.799-.017a.27.27 0 0 0-.002.54l30.799.017a.269.269 0 0 0 .19-.456.272.272 0 0 0-.188-.085Zm-.912 1.578-30.798-.017a.27.27 0 0 0-.002.54l30.798.017a.27.27 0 0 0 0-.541h.002Zm1.823-3.157-30.799-.017a.27.27 0 0 0-.001.54l30.798.017a.269.269 0 0 0 .191-.456.272.272 0 0 0-.19-.084Zm-21.758-15.39a.27.27 0 0 0 .133.035l30.799.016a.268.268 0 0 0 .25-.166.27.27 0 0 0-.25-.375l-30.798-.017a.27.27 0 0 0-.136.505l.002.001Zm19.023 20.127-30.797-.019a.27.27 0 0 0-.002.54l30.797.019a.27.27 0 1 0 0-.541h.002Zm4.52-7.828L31.2 52.863a.27.27 0 0 0-.002.54l30.799.017a.27.27 0 0 0 0-.541h.002Zm-5.431 9.406-30.798-.018a.27.27 0 0 0-.002.54l30.798.018a.27.27 0 1 0 0-.54h.002ZM67.564 43.24l-30.798-.017a.271.271 0 0 0-.25.374.271.271 0 0 0 .248.167l30.799.016a.27.27 0 0 0 0-.54h.001Zm-1.917 3.32-30.797-.017a.27.27 0 0 0-.002.54l30.798.018a.27.27 0 1 0 0-.541h.001Zm-2.734 4.736-30.798-.017a.27.27 0 0 0-.135.505.26.26 0 0 0 .134.034l30.798.018a.27.27 0 0 0 0-.54h.001Zm5.563-9.634-30.799-.017a.271.271 0 0 0-.25.374.27.27 0 0 0 .249.166l30.798.017a.27.27 0 0 0 0-.541h.002Zm-3.74 6.477-30.798-.018a.27.27 0 0 0-.266.263.265.265 0 0 0 .136.234c.04.024.086.036.133.035l30.798.019a.27.27 0 0 0 0-.541l-.003.008Zm-.911 1.579-30.798-.019a.27.27 0 0 0-.002.54l30.798.019a.272.272 0 0 0 .25-.167.27.27 0 0 0-.25-.374h.002Z" fill="#E0E0E0"/><path d="M18.634 62.338c1.87-2.613 4.404-5.207 5.349-7.374a.367.367 0 0 0 .044-.1c.01-.036.026-.043.037-.063a2.756 2.756 0 0 0-4.72-2.726l-.038.064c-.011.02-.044.058-.065.087-1.4 1.898-2.381 5.395-3.712 8.32-.659 1.45-1.811 2.416-2.141 2.987-.16.276-.136.658.106 1.079.486.84 1.668 1.523 2.64 1.524.487 0 .827-.172.987-.448.324-.569.584-2.046 1.513-3.35Z" fill="#37474F"/><path d="M13.368 63.527c-.16.277-.136.659.106 1.08.382.66 1.193 1.221 1.995 1.432-1.276-.508-1.254-1.654-.106-2.719 2.23-2.058 2.477-3.955 3.463-7.183.57-1.869 1.14-3.418 2.08-4.182.683-.557 1.689-.703 2.367-.259a2.755 2.755 0 0 0-3.948.374l-.037.064c-.012.02-.044.058-.065.088-1.4 1.898-2.382 5.394-3.712 8.319-.662 1.45-1.813 2.415-2.143 2.986Z" fill="#000" opacity=".1"/><path d="m19.331 52.074-.037.064c-.012.02-.044.058-.065.087-1.4 1.898-2.382 5.395-3.712 8.32-.66 1.45-1.811 2.415-2.141 2.987-.16.276-.137.658.105 1.079l.08.123c-.113-.82.512-1.307 1.908-2.629 1.396-1.321 2.305-4.739 2.9-7.068.596-2.33 1.77-3.64 2.942-3.989a2.757 2.757 0 0 0-1.98 1.026Z" fill="#000" opacity=".1"/><path d="M22.794 52.062a.901.901 0 0 0-.493-.001.992.992 0 0 0-.623.802c-.06.35.094.695.213 1.022l.222.6c.053.167.127.326.219.475.175.26.497.418.79.237a.966.966 0 0 0 .302-.34c.28-.48.38-1.044.282-1.591-.088-.48-.41-1.07-.912-1.204Zm-.277 3.425a.402.402 0 0 0-.294.166.484.484 0 0 0-.152.401.336.336 0 0 0 .276.243.452.452 0 0 0 .362-.126.469.469 0 0 0 .158-.353.35.35 0 0 0-.35-.33Z" fill="#455A64"/></g><defs><clipPath id="a"><path d="m45.069-4 78.06 45.069-45.068 78.06L.001 74.062z" fill="#fff"/></clipPath></defs></svg>