<svg xmlns="http://www.w3.org/2000/svg" fill="none" viewBox="0 0 91 56"><g clip-path="url(#a)" opacity=".1" style="mix-blend-mode:luminosity"><path d="M66.893 79.735 29.847 89.66a1.135 1.135 0 0 1-1.387-.802L14.506 36.783a1.134 1.134 0 0 1 .803-1.379l37.046-9.926a1.134 1.134 0 0 1 1.389.802l13.95 52.066a1.134 1.134 0 0 1-.801 1.389ZM15.319 35.442a1.084 1.084 0 0 0-.765 1.328l13.954 52.076a1.085 1.085 0 0 0 1.326.767l37.046-9.926a1.087 1.087 0 0 0 .767-1.328L53.693 26.283a1.086 1.086 0 0 0-1.328-.767l-37.046 9.926Z" fill="#EBEBEB"/><path d="M104.336 67.684 67.289 77.61a1.136 1.136 0 0 1-1.39-.802L51.947 24.733a1.136 1.136 0 0 1 .805-1.38l37.047-9.926a1.134 1.134 0 0 1 1.383.793l13.953 52.076a1.13 1.13 0 0 1-.798 1.388ZM52.761 23.392a1.086 1.086 0 0 0-.767 1.328l13.954 52.076a1.086 1.086 0 0 0 1.328.767l37.048-9.927a1.084 1.084 0 0 0 .766-1.328L91.137 14.232a1.086 1.086 0 0 0-1.329-.767l-37.047 9.927Z" fill="#EBEBEB"/><path d="m84.023 81.142 3.552-.952-6.918-25.818-3.551.952 6.917 25.818Z" fill="#F0F0F0"/><path d="m77.106 55.326-36.932 9.896L47.09 91.04l36.933-9.896-6.918-25.818Z" fill="#F5F5F5"/><path d="m77.106 55.326 3.551-.952-.252-.94-3.55.952.251.94Z" fill="#E6E6E6"/><path d="m76.854 54.386-36.932 9.896.252.94 36.932-9.896-.252-.94Z" fill="#F0F0F0"/><path d="M100.228 77.222a.297.297 0 0 1-.361-.21l-11.88-44.334a.294.294 0 0 1 .569-.153l11.879 44.335a.296.296 0 0 1-.207.362Z" fill="#F5F5F5"/><path d="M84.334 39.978s-1.314-5.464 4.064-6.904c5.378-1.441 6.974 3.946 6.974 3.946l-11.038 2.958Z" fill="#E0E0E0"/><path d="M38.708 95.724a.296.296 0 0 1-.362-.21L26.466 51.18a.296.296 0 0 1 .433-.33.294.294 0 0 1 .137.178l11.88 44.334a.296.296 0 0 1-.208.362Z" fill="#F5F5F5"/><path d="M23.76 58.006s-1.293-5.366 3.902-6.758c5.196-1.392 6.757 3.902 6.757 3.902L23.76 58.006Zm43.212-1.408-13.649 3.657-.781-8.166 13.648-3.657.782 8.166Z" fill="#E0E0E0"/><path d="m66.719 56.666-13.65 3.657-.78-8.166L65.936 48.5l.782 8.166Z" fill="#EBEBEB"/><path d="m53.423 59.57-.663-6.943a.179.179 0 0 1 .133-.192l12.471-3.342a.18.18 0 0 1 .227.157l.664 6.943a.182.182 0 0 1-.133.194l-12.47 3.342a.18.18 0 0 1-.229-.16Z" fill="#FAFAFA"/><path d="m70.297 25.388-36.16 9.69 3.131 11.688 36.161-9.69-3.132-11.688Z" fill="#EBEBEB"/><path d="m73.429 37.074.518-.139-3.132-11.688-.518.14 3.132 11.687Z" fill="#E0E0E0"/><path d="m69.137 27.396-32.994 8.84 2.283 8.52 32.994-8.84-2.283-8.52Z" fill="#fff"/><path d="M55.768 35.544 53.25 34.09l-1.454 2.518 2.518 1.454 1.454-2.518Zm-5.332 1.428-2.518-1.453-1.454 2.518 2.519 1.454 1.453-2.519Zm-5.331 1.43-2.519-1.455-1.454 2.519 2.519 1.453 1.454-2.518ZM61.1 34.115l-2.518-1.454-1.454 2.518 2.518 1.454 1.454-2.518Zm5.332-1.43-2.518-1.453-1.454 2.518 2.518 1.454 1.454-2.518Z" fill="#F5F5F5"/><path d="M75.958 31.128a1.657 1.657 0 0 0-2.078-1.294L47.322 36.95a1.942 1.942 0 0 0-1.382 2.221l1.855 9.363L51.55 77.84a1.528 1.528 0 0 0 1.957 1.327l26.56-7.117a2.113 2.113 0 0 0 1.5-2.253l-3.754-29.306-1.855-9.363Z" fill="#407BFF"/><path d="M75.958 31.128a1.657 1.657 0 0 0-2.078-1.294L47.322 36.95a1.942 1.942 0 0 0-1.382 2.221l1.855 9.363L51.55 77.84a1.528 1.528 0 0 0 1.957 1.327l26.56-7.117a2.113 2.113 0 0 0 1.5-2.253l-3.754-29.306-1.855-9.363Z" fill="#000" opacity=".2"/><path d="m79.122 72.305-26.56 7.117a1.53 1.53 0 0 1-1.958-1.326L46.85 48.788l30.018-8.044 3.755 29.306a2.113 2.113 0 0 1-1.5 2.255ZM51.09 35.217l-3.956 1.06.051.192 3.956-1.06-.051-.192Zm-5.72 1.959-.128-.153c.279-.232.604-.4.954-.494l.051.191a2.307 2.307 0 0 0-.877.456Zm27.565-7.099-26.56 7.117a1.942 1.942 0 0 0-1.382 2.22l1.858 9.373 30.017-8.043-1.856-9.362a1.654 1.654 0 0 0-2.077-1.305Z" fill="#407BFF"/><path d="m47.729 46.138-1.298-6.547a1.023 1.023 0 0 1 .727-1.17l25.53-6.84a.87.87 0 0 1 1.094.681l1.298 6.547a1.025 1.025 0 0 1-.727 1.17l-25.53 6.84a.873.873 0 0 1-1.094-.681Z" fill="#fff" opacity=".9"/><path d="m71.131 33.127-.217.348a.077.077 0 0 1-.048.035l-1.535.412a.08.08 0 0 1-.064-.01l-.322-.202a.082.082 0 0 1-.03-.035.073.073 0 0 1-.007-.046.082.082 0 0 1 .06-.067l2.077-.556a.08.08 0 0 1 .085.03.08.08 0 0 1 .001.09Zm.93 5.095-2.078.557a.082.082 0 0 1-.103-.076c0-.016.004-.032.012-.046l.216-.346a.086.086 0 0 1 .048-.035l1.535-.411a.074.074 0 0 1 .065.011l.323.201a.081.081 0 0 1 .018.12.08.08 0 0 1-.037.025Zm-.471-2.562-.11.18a.086.086 0 0 1-.048.036l-1.802.482a.082.082 0 0 1-.087-.033.08.08 0 0 1-.012-.03l-.053-.276a.081.081 0 0 1 .059-.094l1.807-.484a.08.08 0 0 1 .064.01l.158.099a.08.08 0 0 1 .024.11Zm.285.083.405 2.118a.082.082 0 0 1-.035.082.081.081 0 0 1-.089 0l-.32-.202a.081.081 0 0 1-.036-.054l-.3-1.574a.074.074 0 0 1 .01-.059l.216-.346a.081.081 0 0 1 .129-.01.081.081 0 0 1 .02.044Zm-.482-2.514.407 2.124a.082.082 0 0 1-.079.097.082.082 0 0 1-.045-.012l-.322-.204a.083.083 0 0 1-.034-.052l-.303-1.574a.085.085 0 0 1 .011-.059l.216-.347a.081.081 0 0 1 .127-.015.081.081 0 0 1 .022.042Zm-2.02 6.645a.302.302 0 0 1 .213-.343l3.261-.874a.285.285 0 0 1 .358.22.302.302 0 0 1-.215.344l-3.254.872a.284.284 0 0 1-.318-.11.284.284 0 0 1-.045-.11Zm-4.079 1.092a.302.302 0 0 1 .213-.342l3.261-.874a.285.285 0 0 1 .358.22.302.302 0 0 1-.215.344l-3.261.874a.281.281 0 0 1-.356-.222Zm-4.079 1.093a.302.302 0 0 1 .213-.342l3.261-.874a.286.286 0 0 1 .356.221.3.3 0 0 1-.215.343l-3.261.874a.28.28 0 0 1-.354-.222Zm-4.078 1.093a.302.302 0 0 1 .212-.342l3.262-.874a.286.286 0 0 1 .315.434.3.3 0 0 1-.174.13l-3.262.874a.282.282 0 0 1-.353-.222Z" fill="#407BFF" opacity=".4"/><path d="m52.363 61.37-1.177-9.2a1.301 1.301 0 0 1 .923-1.389l8.877-2.378a.943.943 0 0 1 1.207.818l1.177 9.199a1.3 1.3 0 0 1-.921 1.388l-8.88 2.38a.941.941 0 0 1-1.206-.819Zm12.648-3.39-1.172-9.2a1.301 1.301 0 0 1 .923-1.389l8.877-2.378a.94.94 0 0 1 1.207.818l1.18 9.198a1.303 1.303 0 0 1-.924 1.389l-8.887 2.381a.939.939 0 0 1-1.204-.819Z" fill="#263238" opacity=".1"/><path d="m51.773 61.528-1.172-9.2a1.302 1.302 0 0 1 .923-1.39l8.877-2.378a.943.943 0 0 1 1.206.818l1.178 9.199a1.3 1.3 0 0 1-.921 1.388l-8.885 2.38a.94.94 0 0 1-1.206-.817Z" fill="#407BFF"/><path d="m51.773 61.528-1.172-9.2a1.302 1.302 0 0 1 .923-1.39l8.877-2.378a.943.943 0 0 1 1.206.818l1.178 9.199a1.3 1.3 0 0 1-.921 1.388l-8.885 2.38a.94.94 0 0 1-1.206-.817Z" fill="#fff" opacity=".2"/><path d="m64.42 58.139-1.18-9.199a1.3 1.3 0 0 1 .923-1.389l8.878-2.378a.94.94 0 0 1 1.206.818l1.18 9.198a1.302 1.302 0 0 1-.924 1.39l-8.879 2.378a.939.939 0 0 1-1.204-.818Z" fill="#407BFF"/><path d="m64.42 58.139-1.18-9.199a1.3 1.3 0 0 1 .923-1.389l8.878-2.378a.94.94 0 0 1 1.206.818l1.18 9.198a1.302 1.302 0 0 1-.924 1.39l-8.879 2.378a.939.939 0 0 1-1.204-.818Z" fill="#fff" opacity=".2"/><path d="M57.177 59.282a.944.944 0 0 1-1.206-.818l-.697-5.448a1.307 1.307 0 0 1 .923-1.39.943.943 0 0 1 1.207.82l.698 5.446a1.308 1.308 0 0 1-.925 1.39Z" fill="#fff"/><path d="M52.993 56.444a1.31 1.31 0 0 1 .925-1.39l5.26-1.41a.946.946 0 0 1 1.207.82 1.307 1.307 0 0 1-.923 1.388l-5.257 1.409a.947.947 0 0 1-1.212-.817Zm12.645-3.388a1.309 1.309 0 0 1 .925-1.391l5.257-1.409a.94.94 0 0 1 1.08.427c.071.12.114.254.127.393a1.307 1.307 0 0 1-.924 1.389l-5.254 1.408a.946.946 0 0 1-1.21-.817Z" fill="#fff"/></g><defs><clipPath id="a"><path d="M0 26.178 95.929.474l25.704 95.929-95.929 25.704z" fill="#fff"/></clipPath></defs></svg>