<svg xmlns="http://www.w3.org/2000/svg" fill="none" viewBox="0 0 100 56"><g clip-path="url(#a)" opacity=".1" style="mix-blend-mode:luminosity"><path d="M66.857 30.791 36.508 43.613l17.605 41.669L84.46 72.46 66.857 30.791Z" fill="#407BFF" stroke="#263238" stroke-miterlimit="10" stroke-width=".112"/><path d="M66.568 32.031 37.599 44.27l16.805 39.776 28.969-12.24-16.805-39.775Z" fill="#fff" stroke="#263238" stroke-linecap="round" stroke-linejoin="round" stroke-width=".112"/><path d="m58.425 39.55 7.598-3.4M41.817 46.978l3.449-1.541m23.11-.88 1.148-.512m-6.378 2.851 4.594-2.055m-7.26 3.25 1.91-.855m-7.323 3.275 4.562-2.042m-8.047 3.602 2.683-1.2m-8.947 4.002 5.414-2.423m16.339-4.349 3.912-1.75M58.96 51.73l7.216-3.23m-12.75 5.705 4.23-1.891m-10.882 4.865 5.879-2.627m16.753-4.444 2.511-1.124M62.494 53.2l6.124-2.739M60.931 53.9l.985-.441m-5.639 2.522 3.958-1.77m7.47-.38 5.24-2.346m-13.987 6.258 7.807-3.492" stroke="#263238" stroke-linecap="round" stroke-linejoin="round" stroke-width=".112"/><path d="M80.485 27.075c-2.693.722-4.833 2.396-6.055 4.467l-.173-4.045-1.574 1.542a6.94 6.94 0 0 0-1.746 1.835c-.794 1.206-.824 2.954-.824 2.954l2.96-2.409s-2.61 4.18-2.361 5.108c.248.928.545 2.96.545 2.96l2.196-2.527c.038.14.062.287.1.43a7.236 7.236 0 0 0 1.476 2.809 4.397 4.397 0 0 0-.054 2.03 5.97 5.97 0 0 0 .907 1.995l1.228-2.287c.154.092.31.177.472.259l1.082 1.282 1.387.996-.11-1.338-.197-.163c1.641.362 3.346.32 4.968-.123 4.995-1.338 8.095-5.953 6.929-10.307-1.167-4.354-6.161-6.806-11.156-5.468Z" fill="#000" opacity=".2"/><path d="M85.81 26.025a8.173 8.173 0 0 0-9.907 2.655l-2.95.79 1.65 6.155a8.183 8.183 0 1 0 15.806-4.236l-1.649-6.154-2.95.79Z" fill="#9E9E9E" stroke="#263238" stroke-linecap="round" stroke-linejoin="round" stroke-width=".112"/><path d="M82.973 35.255a8.181 8.181 0 1 0-4.235-15.805 8.181 8.181 0 0 0 4.235 15.805Z" fill="#BDBDBD" stroke="#263238" stroke-linecap="round" stroke-linejoin="round" stroke-width=".112"/><path d="M82.786 34.552a7.453 7.453 0 1 0-3.858-14.399 7.453 7.453 0 0 0 3.858 14.399Z" fill="#9E9E9E" stroke="#263238" stroke-linecap="round" stroke-linejoin="round" stroke-width=".112"/><path d="M82.785 34.55c3.76-1.007 6.019-4.767 5.046-8.396-.972-3.63-4.809-5.756-8.568-4.749-3.76 1.008-6.02 4.767-5.047 8.397.973 3.63 4.81 5.755 8.569 4.748Z" fill="#5C5C5C" stroke="#263238" stroke-linecap="round" stroke-linejoin="round" stroke-width=".112"/><path d="m80.406 27.129-3.48-12.986m2.787 10.833s-5.12 3.594-5.46 9.297m3.654-16.037s-3.155-2.195-8.274-1.642" stroke="#263238" stroke-linecap="round" stroke-linejoin="round" stroke-width=".224"/><path d="M75.06 30.803s-3.735.064-4.735 1.99c-1 1.926.023 4.107.023 4.107s.246-.427 1.811-1.857c1.566-1.43 2.9-4.24 2.9-4.24Z" fill="#407BFF" stroke="#263238" stroke-miterlimit="10" stroke-width=".112"/><path d="M75.059 30.803a8.85 8.85 0 0 0-3.636 3.357l3.636-3.357Z" fill="#407BFF"/><path d="M75.059 30.803a8.85 8.85 0 0 0-3.636 3.357" stroke="#263238" stroke-miterlimit="10" stroke-width=".112"/><path d="M74.374 33.918s-2.942 2.296-2.574 4.443c.369 2.148 2.486 3.266 2.486 3.266s-.061-.487.323-2.571c.385-2.085-.235-5.138-.235-5.138Z" fill="#407BFF" stroke="#263238" stroke-miterlimit="10" stroke-width=".112"/><path d="M74.374 33.918a8.845 8.845 0 0 0-.881 4.88l.88-4.88Z" fill="#407BFF"/><path d="M74.374 33.918a8.845 8.845 0 0 0-.881 4.88" stroke="#263238" stroke-miterlimit="10" stroke-width=".112"/><path d="M76.183 28.671s3.696.518 4.45 2.562c.755 2.043-.527 4.073-.527 4.073s-.19-.453-1.566-2.065c-1.375-1.613-2.357-4.57-2.357-4.57Z" fill="#407BFF" stroke="#263238" stroke-miterlimit="10" stroke-width=".112"/><path d="M76.183 28.671a8.845 8.845 0 0 1 3.202 3.785l-3.202-3.785Z" fill="#407BFF"/><path d="M76.183 28.671a8.845 8.845 0 0 1 3.202 3.785" stroke="#263238" stroke-miterlimit="10" stroke-width=".112"/><path d="M79.731 24.98s3.697.516 4.451 2.56c.754 2.044-.52 4.072-.52 4.072s-.193-.454-1.567-2.065c-1.375-1.61-2.364-4.568-2.364-4.568Z" fill="#407BFF" stroke="#263238" stroke-miterlimit="10" stroke-width=".112"/><path d="M79.731 24.98a8.833 8.833 0 0 1 3.2 3.783l-3.2-3.784Z" fill="#407BFF"/><path d="M79.731 24.98a8.833 8.833 0 0 1 3.2 3.783" stroke="#263238" stroke-miterlimit="10" stroke-width=".112"/><path d="M76.328 28.355s-2.937-2.312-4.926-1.443c-1.99.869-2.59 3.196-2.59 3.196s.462-.175 2.578-.292c2.115-.117 4.938-1.461 4.938-1.461Z" fill="#407BFF" stroke="#263238" stroke-miterlimit="10" stroke-width=".112"/><path d="M76.329 28.355a8.854 8.854 0 0 0-4.95.297l4.95-.297Z" fill="#407BFF"/><path d="M76.329 28.355a8.854 8.854 0 0 0-4.95.297" stroke="#263238" stroke-miterlimit="10" stroke-width=".112"/><path d="M79.444 23.68s6.228.554 9.377 5.323" stroke="#263238" stroke-linecap="round" stroke-linejoin="round" stroke-width=".224"/><path d="M86.39 26.408s3.265-1.814 5.093-.643c1.828 1.17 2.032 3.567 2.032 3.567s-.427-.245-2.496-.701c-2.069-.456-4.63-2.223-4.63-2.223Z" fill="#407BFF" stroke="#263238" stroke-miterlimit="10" stroke-width=".112"/><path d="M86.39 26.408a8.827 8.827 0 0 1 4.834 1.085l-4.834-1.085Z" fill="#407BFF"/><path d="M86.39 26.408a8.827 8.827 0 0 1 4.834 1.085" stroke="#263238" stroke-miterlimit="10" stroke-width=".112"/><path d="M88.543 28.762s3.697.517 4.451 2.561c.754 2.044-.528 4.074-.528 4.074s-.193-.454-1.568-2.067c-1.376-1.613-2.355-4.568-2.355-4.568Z" fill="#407BFF" stroke="#263238" stroke-miterlimit="10" stroke-width=".112"/><path d="M88.543 28.762a8.844 8.844 0 0 1 3.202 3.783l-3.202-3.783Z" fill="#407BFF"/><path d="M88.543 28.762a8.844 8.844 0 0 1 3.202 3.783" stroke="#263238" stroke-miterlimit="10" stroke-width=".112"/><path d="M84.35 25.122s-2.942 2.296-2.573 4.445c.369 2.15 2.493 3.263 2.493 3.263s-.061-.488.323-2.572c.385-2.084-.243-5.136-.243-5.136Z" fill="#407BFF" stroke="#263238" stroke-miterlimit="10" stroke-width=".112"/><path d="M84.35 25.122a8.845 8.845 0 0 0-.88 4.88l.88-4.88Z" fill="#407BFF"/><path d="M84.35 25.122a8.845 8.845 0 0 0-.88 4.88" stroke="#263238" stroke-miterlimit="10" stroke-width=".112"/><path d="M84.067 24.92s1.386-3.47 3.542-3.718c2.156-.248 3.84 1.471 3.84 1.471s-.487.081-2.378 1.036c-1.891.955-5.004 1.211-5.004 1.211Z" fill="#407BFF" stroke="#263238" stroke-miterlimit="10" stroke-width=".112"/><path d="M84.067 24.92a8.856 8.856 0 0 1 4.435-2.217l-4.434 2.217Z" fill="#407BFF"/><path d="M84.067 24.92a8.856 8.856 0 0 1 4.435-2.217" stroke="#263238" stroke-miterlimit="10" stroke-width=".112"/><path d="M79.733 24.916s-2.934-2.312-4.93-1.448c-1.995.864-2.589 3.196-2.589 3.196s.461-.175 2.576-.294c2.116-.119 4.943-1.454 4.943-1.454Z" fill="#407BFF" stroke="#263238" stroke-miterlimit="10" stroke-width=".112"/><path d="M79.733 24.916a8.843 8.843 0 0 0-4.948.3l4.948-.3Z" fill="#407BFF"/><path d="M79.733 24.916a8.843 8.843 0 0 0-4.948.3" stroke="#263238" stroke-miterlimit="10" stroke-width=".112"/><path d="M77.771 18.058s-3.634.902-4.166 3.002c-.531 2.1.94 4 .94 4s.146-.47 1.345-2.217c1.198-1.747 1.881-4.785 1.881-4.785Z" fill="#407BFF" stroke="#263238" stroke-miterlimit="10" stroke-width=".112"/><path d="M77.77 18.058a8.826 8.826 0 0 0-2.797 4.09l2.798-4.09Z" fill="#407BFF"/><path d="M77.77 18.058a8.826 8.826 0 0 0-2.797 4.09" stroke="#263238" stroke-miterlimit="10" stroke-width=".112"/><path d="M72.044 16.386s-3.292-1.765-5.106-.57c-1.814 1.194-1.986 3.596-1.986 3.596s.423-.253 2.487-.74c2.064-.486 4.605-2.286 4.605-2.286Z" fill="#407BFF" stroke="#263238" stroke-miterlimit="10" stroke-width=".112"/><path d="M72.044 16.386a8.837 8.837 0 0 0-4.82 1.155l4.82-1.155Z" fill="#407BFF"/><path d="M72.044 16.386a8.837 8.837 0 0 0-4.82 1.155" stroke="#263238" stroke-miterlimit="10" stroke-width=".112"/><path d="M74.061 16.872s-3.656.765-4.27 2.85c-.616 2.086.793 4.03.793 4.03s.16-.473 1.428-2.166c1.27-1.692 2.05-4.714 2.05-4.714Z" fill="#407BFF" stroke="#263238" stroke-miterlimit="10" stroke-width=".112"/><path d="M74.062 16.872a8.843 8.843 0 0 0-2.946 3.988l2.946-3.988Z" fill="#407BFF"/><path d="M74.062 16.872a8.843 8.843 0 0 0-2.946 3.988" stroke="#263238" stroke-miterlimit="10" stroke-width=".112"/><path d="M75.018 16.857s-.177-3.73-2.132-4.67c-1.956-.94-4.107.138-4.107.138s.434.234 1.91 1.756c1.475 1.52 4.33 2.776 4.33 2.776Z" fill="#407BFF" stroke="#263238" stroke-miterlimit="10" stroke-width=".112"/><path d="M75.018 16.857a8.84 8.84 0 0 0-3.466-3.542l3.466 3.542Z" fill="#407BFF"/><path d="M75.018 16.857a8.84 8.84 0 0 0-3.466-3.542" stroke="#263238" stroke-miterlimit="10" stroke-width=".112"/><path d="M79.188 22.222s1.641-3.479 6.346-5.557" stroke="#263238" stroke-linecap="round" stroke-linejoin="round" stroke-width=".224"/><path d="M79.219 21.999s3.588-1.033 5.107.518c1.518 1.55 1.185 3.933 1.185 3.933s-.361-.334-2.272-1.245c-1.911-.912-4.02-3.206-4.02-3.206Z" fill="#407BFF" stroke="#263238" stroke-miterlimit="10" stroke-width=".112"/><path d="M79.218 21.998a8.835 8.835 0 0 1 4.469 2.145l-4.469-2.145Z" fill="#407BFF"/><path d="M79.218 21.998a8.835 8.835 0 0 1 4.469 2.145" stroke="#263238" stroke-miterlimit="10" stroke-width=".112"/><path d="M83.35 17.68s1.97-3.174 4.138-3.046c2.168.127 3.516 2.122 3.516 2.122s-.493-.008-2.522.602c-2.028.61-5.131.322-5.131.322Z" fill="#407BFF" stroke="#263238" stroke-miterlimit="10" stroke-width=".112"/><path d="M83.35 17.68a8.831 8.831 0 0 1 4.753-1.409l-4.752 1.41Z" fill="#407BFF"/><path d="M83.35 17.68a8.831 8.831 0 0 1 4.753-1.409" stroke="#263238" stroke-miterlimit="10" stroke-width=".112"/><path d="M81.839 19.12s3.548-1.167 5.123.33c1.575 1.497 1.326 3.887 1.326 3.887s-.375-.33-2.318-1.162c-1.944-.832-4.131-3.056-4.131-3.056Z" fill="#407BFF" stroke="#263238" stroke-miterlimit="10" stroke-width=".112"/><path d="M81.839 19.12a8.819 8.819 0 0 1 4.542 1.978l-4.542-1.979Z" fill="#407BFF"/><path d="M81.839 19.12a8.819 8.819 0 0 1 4.542 1.978" stroke="#263238" stroke-miterlimit="10" stroke-width=".112"/><path d="M81.002 19.582s-1.713-3.318-.488-5.11c1.225-1.793 3.636-1.933 3.636-1.933s-.26.42-.777 2.476c-.518 2.055-2.37 4.567-2.37 4.567Z" fill="#407BFF" stroke="#263238" stroke-miterlimit="10" stroke-width=".112"/><path d="M81.002 19.582a8.84 8.84 0 0 1 1.232-4.8l-1.232 4.8Z" fill="#407BFF"/><path d="M81.002 19.582a8.84 8.84 0 0 1 1.232-4.8" stroke="#263238" stroke-miterlimit="10" stroke-width=".112"/><path d="M77.16 15.191s1.641-3.48 6.345-5.56" stroke="#263238" stroke-linecap="round" stroke-linejoin="round" stroke-width=".224"/><path d="M77.19 14.966s3.59-1.033 5.107.518c1.518 1.55 1.186 3.934 1.186 3.934s-.361-.335-2.272-1.246c-1.911-.911-4.02-3.206-4.02-3.206Z" fill="#407BFF" stroke="#263238" stroke-miterlimit="10" stroke-width=".112"/><path d="M77.19 14.966a8.835 8.835 0 0 1 4.469 2.145l-4.469-2.145Z" fill="#407BFF"/><path d="M77.19 14.966a8.835 8.835 0 0 1 4.469 2.145" stroke="#263238" stroke-miterlimit="10" stroke-width=".112"/><path d="M77.24 14.834s-2.951-2.291-2.593-4.433c.359-2.142 2.48-3.273 2.48-3.273s-.058.49.337 2.572c.394 2.083-.225 5.134-.225 5.134Z" fill="#407BFF" stroke="#263238" stroke-miterlimit="10" stroke-width=".112"/><path d="M77.239 14.835a8.841 8.841 0 0 1-.901-4.874l.9 4.873Z" fill="#407BFF"/><path d="M77.239 14.835a8.841 8.841 0 0 1-.901-4.874" stroke="#263238" stroke-miterlimit="10" stroke-width=".112"/><path d="M81.324 10.652s1.968-3.175 4.136-3.047c2.169.127 3.516 2.125 3.516 2.125s-.493-.008-2.522.602-5.13.32-5.13.32Z" fill="#407BFF" stroke="#263238" stroke-miterlimit="10" stroke-width=".112"/><path d="M81.324 10.652a8.855 8.855 0 0 1 4.744-1.407l-4.744 1.407Z" fill="#407BFF"/><path d="M81.324 10.652a8.855 8.855 0 0 1 4.744-1.407" stroke="#263238" stroke-miterlimit="10" stroke-width=".112"/><path d="M79.81 12.086s3.55-1.166 5.124.33c1.575 1.498 1.326 3.888 1.326 3.888s-.375-.33-2.318-1.16c-1.943-.83-4.132-3.058-4.132-3.058Z" fill="#407BFF" stroke="#263238" stroke-miterlimit="10" stroke-width=".112"/><path d="M79.81 12.086a8.843 8.843 0 0 1 4.535 1.983l-4.535-1.983Z" fill="#407BFF"/><path d="M79.81 12.086a8.843 8.843 0 0 1 4.535 1.983" stroke="#263238" stroke-miterlimit="10" stroke-width=".112"/><path d="M78.984 12.549s-1.724-3.317-.507-5.108c1.217-1.79 3.638-1.92 3.638-1.92s-.26.419-.778 2.474-2.353 4.554-2.353 4.554Z" fill="#407BFF" stroke="#263238" stroke-miterlimit="10" stroke-width=".112"/><path d="M78.985 12.549a8.843 8.843 0 0 1 1.222-4.794l-1.222 4.794Z" fill="#407BFF"/><path d="M78.985 12.549a8.843 8.843 0 0 1 1.222-4.794" stroke="#263238" stroke-miterlimit="10" stroke-width=".112"/><path d="M77.98 18.568s.714-3.667-.962-5.044c-1.677-1.377-4.025-.836-4.025-.836s.367.332 1.44 2.158c1.072 1.825 3.546 3.722 3.546 3.722Z" fill="#407BFF" stroke="#263238" stroke-miterlimit="10" stroke-width=".112"/><path d="M77.98 18.568a8.849 8.849 0 0 0-2.526-4.266l2.526 4.266Z" fill="#407BFF"/><path d="M77.98 18.568a8.849 8.849 0 0 0-2.526-4.266" stroke="#263238" stroke-miterlimit="10" stroke-width=".112"/><path d="m99.82 45.55-10.802-1.405a1.596 1.596 0 0 0-1.788 1.377L84.21 68.74a1.595 1.595 0 0 0 1.376 1.788l10.803 1.405a1.595 1.595 0 0 0 1.788-1.376l3.02-23.219a1.596 1.596 0 0 0-1.377-1.788Z" fill="#000" opacity=".2"/><path d="m100.27 45.428-10.803-1.405a1.595 1.595 0 0 0-1.788 1.377l-3.02 23.219a1.596 1.596 0 0 0 1.377 1.788l10.802 1.404a1.595 1.595 0 0 0 1.788-1.376l3.02-23.219a1.595 1.595 0 0 0-1.376-1.788Z" fill="#fff" stroke="#263238" stroke-linecap="round" stroke-linejoin="round" stroke-width=".112"/><path d="m100.854 48.452-12.726-1.655-2.677 20.588 12.725 1.655 2.678-20.588Z" fill="#263238" stroke="#263238" stroke-linecap="round" stroke-linejoin="round" stroke-width=".112"/><path d="m96.059 46.363-2.767-.36a.19.19 0 0 1-.16-.137.189.189 0 0 1 .019-.145.189.189 0 0 1 .189-.094l2.766.36a.191.191 0 0 1 .142.283.188.188 0 0 1-.19.093Z" fill="#263238"/><path d="M62.836 38.783 33.704 54.169l21.125 40L83.96 78.782l-21.125-40Z" fill="#407BFF" stroke="#263238" stroke-miterlimit="10" stroke-width=".112"/><path d="M62.655 40.043 34.847 54.73l20.165 38.182L82.82 78.225 62.655 40.043Z" fill="#fff" stroke="#263238" stroke-linecap="round" stroke-linejoin="round" stroke-width=".112"/></g><defs><clipPath id="a"><path d="M-4 21.92 96.464-5l26.92 100.464-100.465 26.92z" fill="#fff"/></clipPath></defs></svg>