<svg xmlns="http://www.w3.org/2000/svg" fill="none" viewBox="0 0 81 56"><g clip-path="url(#a)" opacity=".1" style="mix-blend-mode:luminosity"><path d="m44.058 77.356.665.186a.77.77 0 0 0 .672-.18l31.63-31.619a.212.212 0 0 0-.104-.388l-.665-.184a.77.77 0 0 0-.672.18L43.955 76.967a.212.212 0 0 0 .103.389Zm-8.737-2.331.666.186a.77.77 0 0 0 .672-.18l31.629-31.617a.212.212 0 0 0-.104-.388l-.666-.186a.77.77 0 0 0-.672.18L35.217 74.637a.213.213 0 0 0-.017.34.212.212 0 0 0 .121.048Zm-8.737-2.331.666.187a.77.77 0 0 0 .672-.18L59.55 41.083a.212.212 0 0 0-.104-.388l-.665-.186a.77.77 0 0 0-.673.18L26.48 72.305a.213.213 0 0 0-.017.341.212.212 0 0 0 .12.048Z" fill="#E0E0E0"/><path d="M27.22 72.458a.747.747 0 0 1-.464-.486l-8.569-31.98a.77.77 0 0 1 .181-.673L49.244 8.436a.654.654 0 0 1 1.11.3l8.57 31.98a.768.768 0 0 1-.182.673L27.868 72.271a.747.747 0 0 1-.648.187Z" fill="#407BFF"/><path d="M50.34 8.681c-.07-.167-.228-.193-.37-.05L19.09 39.509a.74.74 0 0 0-.173.316l-.719-.198a.72.72 0 0 1 .17-.314L49.245 8.436a.643.643 0 0 1 1.097.245h-.001Z" fill="#fff" opacity=".4"/><path d="m27.813 72.318-.014.004a.142.142 0 0 1-.03.02l-.022.015a.213.213 0 0 1-.044.023.104.104 0 0 1-.031.009l-.051.014a.672.672 0 0 1-.405.036.743.743 0 0 1-.463-.486l-7.499-27.986.73.195 7.502 28c.042.155.14.22.251.191a.164.164 0 0 0 .045-.012l.008-.002a.133.133 0 0 0 .023-.021Z" fill="#F0F0F0"/><path d="M18.917 39.825a.707.707 0 0 0-.009.357l1.067 3.982-.73-.195-1.066-3.98a.352.352 0 0 1-.02-.129.85.85 0 0 1 .029-.23l.73.195Z" fill="#000" opacity=".1"/><path d="m50.354 8.736.481 1.796-22.631 22.634c-.156.156-.33.11-.387-.105l-.183-.68c-.057-.214-.235-.26-.388-.103l-6.894 6.893a.768.768 0 0 0-.18.674l.182.68a.77.77 0 0 1-.18.672l-.788.784-.481-1.796a.77.77 0 0 1 .18-.672L49.97 8.63c.157-.157.326-.11.383.105Z" fill="#407BFF"/><path d="M58.925 40.72a.767.767 0 0 1-.181.672L27.869 72.271c-.156.156-.33.11-.387-.104l-8.09-30.19.79-.783c.155-.157.02-1.867.177-2.025l6.778-6.777c.158-.158.915.93 1.074.772l22.625-22.632 8.089 30.187Z" fill="#FAFAFA"/><path d="m50.836 10.532.586 2.186-31.443 31.445-.586-2.185.584-.583c.156-.157.175-.336.18-.672l.015-.878c-.002-.302.029-.517.181-.672l6.778-6.778c.158-.157.3-.209.497-.01l.427.445c.154.154.233.248.392.09l22.39-22.388Z" fill="#E6E6E6"/><path d="M49.085 10.283c.198-.197.417-.139.49.131a.964.964 0 0 1-.228.847c-.197.196-.416.138-.488-.133a.963.963 0 0 1 .226-.845Zm-.812 1.867c.088-.33.006-.64-.185-.69-.19-.052-.416.175-.504.505-.089.33-.006.639.184.69.19.05.416-.175.505-.505Zm-1.764.704c.199-.196.417-.138.49.132a.965.965 0 0 1-.228.847c-.197.195-.415.138-.488-.133a.964.964 0 0 1 .226-.845Z" fill="#fff"/><path d="m20.977 41.723-.445.452.098-.44a.101.101 0 0 0-.025-.096c-.02-.014-.042.012-.052.044l-.14.622a.118.118 0 0 0-.002.022l.002.008.008.028a.127.127 0 0 0 .007.025.035.035 0 0 0 .01.01l.347.143c.005.002.01.003.015.001a.024.024 0 0 0 .013-.008.09.09 0 0 0 .02-.049c.006-.04-.006-.08-.024-.09l-.243-.101.444-.452a.117.117 0 0 0 .018-.101c-.008-.025-.032-.038-.051-.018Zm.372-.373.445-.452-.244-.1c-.02-.01-.033-.05-.024-.09.009-.041.027-.066.048-.057l.346.143a.034.034 0 0 1 .004.013.126.126 0 0 1 .006.025.129.129 0 0 1 .008.028l.002.008a.117.117 0 0 1 .005.02l-.14.628a.077.077 0 0 1-.018.04.024.024 0 0 1-.031.008.1.1 0 0 1-.026-.095l.098-.44-.444.452c-.02.02-.042.01-.053-.03a.116.116 0 0 1 .018-.1Zm1.324-1.984c-.008-.03-.038-.02-.045.013l-.026.195c-.126.02-.243.18-.286.42-.057.312.031.64.195.73a.193.193 0 0 0 .24-.049.662.662 0 0 0 .16-.35.092.092 0 0 0-.025-.094c-.02-.01-.043.012-.051.05-.04.233-.176.369-.299.3-.123-.068-.187-.312-.146-.545.028-.174.108-.28.194-.308l-.019.148c-.006.039.018.067.034.046l.178-.197a.072.072 0 0 0 .008-.066l-.112-.293Zm4.493-5.913.084-.46a.132.132 0 0 0-.034-.125c-.03-.016-.06.016-.07.069l-.083.46-.242-.135c-.03-.016-.06.016-.07.07a.126.126 0 0 0 .034.127l.242.133-.083.459a.126.126 0 0 0 .034.127.035.035 0 0 0 .042-.011.121.121 0 0 0 .026-.062l.084-.459.242.133a.034.034 0 0 0 .04-.01.118.118 0 0 0 .029-.061.135.135 0 0 0-.034-.127l-.24-.128Z" fill="#455A64" opacity=".5"/><path d="m23.508 39.68-.182-.68a.773.773 0 0 1 .179-.672l25.554-25.543c.156-.156.33-.11.387.105l.182.68a.771.771 0 0 1-.179.672l-25.55 25.542c-.16.157-.334.11-.391-.104Z" fill="#FAFAFA"/><path d="M49.005 14.417a.084.084 0 0 1-.03.008.094.094 0 0 1-.078-.087l-.041-.285-.154-.059a.093.093 0 0 1-.056-.066.16.16 0 0 1 .024-.132l.156-.208a.036.036 0 0 0 .004-.017l.01-.314a.13.13 0 0 1 .075-.12.08.08 0 0 1 .09.026l.116.135.149-.108a.082.082 0 0 1 .095-.004.13.13 0 0 1 .037.136l-.067.303.005.017.097.233a.16.16 0 0 1-.01.133.097.097 0 0 1-.069.052l-.16.021-.115.269a.103.103 0 0 1-.078.067Zm-.245-.535.154.059a.102.102 0 0 1 .059.084l.021.19.075-.186a.104.104 0 0 1 .077-.067l.16-.022a.06.06 0 0 0-.004-.017l-.1-.234a.16.16 0 0 1-.006-.092l.063-.268-.115.084a.082.082 0 0 1-.114-.014l-.09-.107-.01.278a.16.16 0 0 1-.03.086l-.155.208a.026.026 0 0 0 .006.01.026.026 0 0 0 .009.008Z" fill="#E0E0E0"/><path d="M49.767 12.507a.12.12 0 0 1-.118-.194l.799-.8a.12.12 0 0 1 .17.17l-.799.8a.12.12 0 0 1-.052.024Zm.147.547a.12.12 0 0 1-.116-.202l.801-.794a.123.123 0 0 1 .085-.035.123.123 0 0 1 .086.035.122.122 0 0 1 .035.085.12.12 0 0 1-.035.086l-.8.8a.139.139 0 0 1-.056.025Zm.146.546a.12.12 0 0 1-.154-.13.12.12 0 0 1 .034-.07l.8-.8a.12.12 0 0 1 .166 0 .122.122 0 0 1-.002.167l-.8.8a.139.139 0 0 1-.044.033Z" fill="#455A64" opacity=".5"/><path d="m19.392 41.978.586 2.186-.73-.196-.585-2.184.729.194Z" fill="#E0E0E0"/><path d="m23.085 49.368 5.827-5.83c.156-.156.33-.11.387.105l5.256 19.613a.771.771 0 0 1-.18.672l-5.829 5.829c-.156.156-.33.11-.387-.105L22.904 50.04a.768.768 0 0 1 .18-.672Z" fill="#F0F0F0"/><path d="m24.54 49.758 3.702-3.699c.157-.157.328-.121.382.08a.749.749 0 0 1-.188.644l-3.7 3.703c-.158.157-.329.122-.383-.08a.747.747 0 0 1 .188-.648Z" fill="#E0E0E0"/><path d="m24.708 51.732.07.262c.035.129.139.156.234.062l.192-.193a.462.462 0 0 0 .109-.403l-.07-.262c-.035-.13-.14-.156-.234-.063l-.193.193a.46.46 0 0 0-.108.404Z" fill="#FAFAFA"/><path d="M25.81 50.796c.054.202.23.236.38.08l2.624-2.627a.746.746 0 0 0 .187-.65c-.053-.2-.229-.234-.382-.078l-2.623 2.628a.747.747 0 0 0-.186.647Z" fill="#E0E0E0"/><path d="m25.099 53.19.07.262c.035.128.138.156.233.062l.193-.193a.462.462 0 0 0 .108-.404l-.07-.262c-.035-.129-.14-.155-.233-.062l-.193.193a.462.462 0 0 0-.108.403Z" fill="#FAFAFA"/><path d="M26.2 52.254c.054.202.23.236.381.08l2.624-2.628a.745.745 0 0 0 .187-.649c-.054-.2-.23-.235-.382-.079l-2.624 2.628a.747.747 0 0 0-.186.648Z" fill="#E0E0E0"/><path d="m25.489 54.644.07.262c.034.13.139.158.233.063l.193-.192a.467.467 0 0 0 .108-.403l-.07-.263c-.034-.128-.14-.157-.233-.062l-.193.191a.462.462 0 0 0-.108.404Z" fill="#FAFAFA"/><path d="M26.59 53.71c.054.2.23.234.381.08l2.624-2.629a.747.747 0 0 0 .187-.648c-.054-.201-.23-.236-.382-.08l-2.624 2.628a.746.746 0 0 0-.186.649Z" fill="#E0E0E0"/><path d="m25.878 56.099.07.262c.035.129.14.157.234.062l.193-.191a.466.466 0 0 0 .108-.404l-.07-.262c-.035-.129-.14-.157-.233-.062l-.193.191a.462.462 0 0 0-.109.404Z" fill="#FAFAFA"/><path d="M26.979 55.16c.054.2.23.234.38.08l2.624-2.63a.745.745 0 0 0 .188-.647c-.054-.202-.23-.236-.383-.08l-2.623 2.628a.747.747 0 0 0-.186.649Zm-.316 2.629 3.694-3.7c.158-.158.329-.122.383.08a.745.745 0 0 1-.188.647L26.86 58.52c-.158.157-.328.121-.383-.08a.745.745 0 0 1 .187-.651Zm1.269 1.039c.054.202.23.236.383.08l2.623-2.63a.746.746 0 0 0 .187-.647c-.054-.202-.23-.236-.382-.08l-2.623 2.63a.745.745 0 0 0-.188.647Zm16.984-22.491.097.36c.057.214.236.26.387.102l7.418-7.468a.778.778 0 0 0 .179-.674l-.083-.31c-.058-.215-.236-.26-.39-.104l-7.433 7.421a.772.772 0 0 0-.175.673Z" fill="#E0E0E0"/><path d="m45.676 37.85 8.495-8.494c.156-.157.327-.121.38.08a.747.747 0 0 1-.185.648l-8.495 8.494c-.156.157-.327.121-.38-.08a.748.748 0 0 1 .185-.648Zm.39 1.456 8.495-8.494c.156-.157.327-.12.38.08a.747.747 0 0 1-.185.648l-8.494 8.494c-.156.157-.327.121-.382-.08a.747.747 0 0 1 .186-.648Zm.39 1.455 8.495-8.494c.156-.157.327-.121.38.08a.747.747 0 0 1-.185.648l-8.495 8.494c-.156.157-.327.12-.38-.08a.747.747 0 0 1 .185-.648Zm.39 1.456 8.495-8.494c.156-.157.327-.12.38.08a.748.748 0 0 1-.185.648l-8.494 8.494c-.157.157-.327.121-.382-.08a.746.746 0 0 1 .187-.648Zm.39 1.455 8.495-8.494c.156-.157.327-.121.38.08a.747.747 0 0 1-.185.648L47.43 44.4c-.156.157-.327.12-.38-.08a.747.747 0 0 1 .185-.648Zm.392 1.462 8.495-8.494c.156-.157.327-.12.38.08a.748.748 0 0 1-.185.648l-8.496 8.488c-.157.157-.328.121-.382-.08a.748.748 0 0 1 .188-.642Zm.388 1.449 8.501-8.49c.156-.156.327-.12.381.081a.75.75 0 0 1-.185.65l-8.503 8.484c-.156.156-.327.12-.38-.08a.747.747 0 0 1 .186-.645Zm.39 1.456 8.495-8.494c.156-.157.327-.121.381.08a.747.747 0 0 1-.186.648l-8.494 8.494c-.157.157-.327.121-.382-.08a.747.747 0 0 1 .186-.648Z" fill="#EBEBEB"/><path d="M32.302 48.459 43.456 37.3c.155-.156.33-.11.387.105l3.499 13.059a.772.772 0 0 1-.18.672L36.01 62.294c-.156.157-.33.11-.387-.104l-3.5-13.06a.772.772 0 0 1 .18-.671Z" fill="#F0F0F0"/><path d="m42.096 45.605-1.158 4.494 2.09 1.594-6.305-3.041-1.853 10.74.75 2.794c.056.214.235.26.386.104L47.16 51.132a.772.772 0 0 0 .18-.672l-.666-2.484-4.578-2.371Zm-.545-4.167c.466-.458.977-.325 1.147.308a2.274 2.274 0 0 1-.532 1.988c-.466.458-.977.327-1.147-.306a2.277 2.277 0 0 1 .532-1.99ZM21.717 44.27l28.751-28.75c.156-.157.33-.11.387.104l.964 3.595a.767.767 0 0 1-.181.672L22.888 48.64c-.156.158-.33.111-.388-.105l-.962-3.592a.771.771 0 0 1 .179-.672Z" fill="#E0E0E0"/><path d="m40.593 27.768.166.62c.034.128.14.156.233.063l8.358-8.358-.291-1.086-8.355 8.357a.464.464 0 0 0-.111.404Z" fill="#FAFAFA"/><path d="M49.955 18.111c.094-.094.198-.066.233.063l.166.62a.465.465 0 0 1-.108.404l-.897.896-.29-1.087.896-.896Z" fill="#EBEBEB"/><path d="m50.107 18.99-.128-.003a.668.668 0 0 0-.023-.16.287.287 0 0 0-.175-.225.175.175 0 0 0-.172.046.63.63 0 0 0-.104.555.291.291 0 0 0 .175.225.16.16 0 0 0 .08-.002.202.202 0 0 0 .09-.054.51.51 0 0 0 .122-.305l.128.004.014-.004a.047.047 0 0 0 .033-.042.049.049 0 0 0-.04-.034Zm-.318.329a.083.083 0 0 1-.082.032.213.213 0 0 1-.112-.16.549.549 0 0 1 .08-.468.119.119 0 0 1 .049-.03.062.062 0 0 1 .035 0 .214.214 0 0 1 .111.16.544.544 0 0 1-.083.466h.002Z" fill="#FAFAFA"/><path d="m30.366 42.577 1.159 4.322c.057.214.236.26.387.104L53.2 25.714a.773.773 0 0 0 .18-.672l-1.159-4.32c-.057-.214-.235-.26-.387-.104L30.546 41.905a.77.77 0 0 0-.18.672Z" fill="#EBEBEB"/><path d="M35.959 74.797a.744.744 0 0 1-.464-.486l-8.569-31.98a.773.773 0 0 1 .18-.673L57.98 10.776a.655.655 0 0 1 1.117.3l8.57 31.98a.771.771 0 0 1-.18.672L36.606 74.612a.741.741 0 0 1-.647.186Z" fill="#407BFF"/><path d="M59.08 11.02c-.07-.167-.228-.193-.37-.05L27.829 41.85a.739.739 0 0 0-.17.316l-.728-.196a.72.72 0 0 1 .17-.314l30.883-30.88a.643.643 0 0 1 1.097.244Z" fill="#455A64"/><path d="m36.55 74.657-.014.004a.142.142 0 0 1-.03.021l-.022.015a.208.208 0 0 1-.075.031l-.049.022a.672.672 0 0 1-.404.037.743.743 0 0 1-.464-.487l-7.5-27.992.73.195 7.503 28.002c.041.155.14.22.25.19a.16.16 0 0 0 .045-.011.134.134 0 0 0 .03-.027Z" fill="#F0F0F0"/><path d="M27.657 42.166a.708.708 0 0 0-.009.357l1.067 3.982-.73-.196-1.066-3.98a.36.36 0 0 1-.02-.128.854.854 0 0 1 .029-.23l.73.195Z" fill="#263238"/><path d="m59.098 11.074.481 1.796-22.637 22.637c-.156.156-.33.11-.388-.105l-.182-.68c-.057-.214-.236-.26-.389-.103l-6.893 6.893a.767.767 0 0 0-.18.673l.181.68a.772.772 0 0 1-.179.672l-.788.783-.482-1.796a.772.772 0 0 1 .18-.672L58.71 10.97c.156-.157.33-.11.388.104Z" fill="#37474F"/><path d="M67.67 43.059a.77.77 0 0 1-.181.672l-30.883 30.88c-.156.156-.33.11-.388-.105L28.13 44.32l.788-.784c.156-.157.02-1.867.178-2.024l6.778-6.778c.158-.157.915.93 1.074.772l22.637-22.637 8.09 30.19h-.005Z" fill="#FAFAFA"/><path d="m59.579 12.87.586 2.186-31.45 31.449-.585-2.186.583-.586c.156-.157.175-.336.18-.672l.016-.876c-.001-.303.028-.517.181-.673l6.778-6.778c.158-.157.3-.208.504-.012l.429.445c.152.153.232.247.39.09L59.579 12.87Z" fill="#E6E6E6"/><path d="M58.299 13.203c.088-.33.006-.64-.185-.69-.19-.051-.416.175-.504.505-.089.33-.006.64.184.69.19.051.416-.175.505-.505Zm-1.763.705c.197-.196.416-.138.488.132a.964.964 0 0 1-.225.85c-.199.196-.417.138-.49-.132a.962.962 0 0 1 .227-.85Zm-1.289 1.287c.197-.197.415-.14.488.131a.963.963 0 0 1-.226.846c-.199.198-.417.14-.49-.13a.964.964 0 0 1 .228-.847Z" fill="#fff"/><path d="m29.713 44.063-.443.451.096-.442a.1.1 0 0 0-.025-.094c-.02-.013-.044.011-.053.045l-.138.627s.003.012-.003.022a.09.09 0 0 0 .008.028c0 .008.002.017.006.025l.011.008.345.144a.028.028 0 0 0 .028-.007.099.099 0 0 0 .021-.05c.006-.04-.006-.08-.024-.09l-.242-.102.443-.452a.114.114 0 0 0 .02-.102c-.005-.018-.029-.03-.05-.011Zm.372-.373.445-.452-.242-.102c-.022-.009-.035-.049-.024-.09.01-.04.027-.065.05-.058l.344.144.01.009a.054.054 0 0 1 .007.023c.004.01.007.02.008.03 0 0 .004.014-.002.022l-.139.626a.106.106 0 0 1-.019.04.026.026 0 0 1-.033.009.097.097 0 0 1-.025-.095l.096-.442-.444.452c-.02.019-.042.012-.053-.03a.117.117 0 0 1 .021-.086Zm1.325-1.982c-.009-.033-.038-.02-.045.012l-.024.196c-.128.02-.245.18-.288.42-.057.311.031.639.195.73a.192.192 0 0 0 .241-.05.683.683 0 0 0 .161-.351.097.097 0 0 0-.025-.092c-.021-.012-.043.012-.051.05-.042.233-.176.367-.299.3-.123-.066-.188-.312-.146-.546.03-.165.106-.278.192-.308l-.019.148c-.005.038.018.067.036.047l.176-.198a.072.072 0 0 0 .01-.066l-.114-.292Zm4.494-5.912.084-.458a.126.126 0 0 0-.034-.127c-.028-.016-.06.015-.07.07l-.083.458-.242-.133c-.028-.016-.06.016-.07.07a.131.131 0 0 0 .034.126l.242.133-.083.46a.131.131 0 0 0 .034.125.034.034 0 0 0 .041-.01.116.116 0 0 0 .028-.061l.083-.46.242.135a.034.034 0 0 0 .023.002.034.034 0 0 0 .019-.014.108.108 0 0 0 .027-.06.127.127 0 0 0-.034-.127l-.24-.129Z" fill="#455A64" opacity=".5"/><path d="m32.244 42.02-.182-.68a.77.77 0 0 1 .181-.673l25.552-25.545c.157-.157.331-.11.389.104l.182.68a.774.774 0 0 1-.181.672L32.633 42.124c-.157.157-.331.11-.389-.104Z" fill="#FAFAFA"/><path d="M57.743 16.756a.101.101 0 0 1-.031.009.095.095 0 0 1-.077-.09l-.042-.285-.155-.058a.092.092 0 0 1-.054-.065.16.16 0 0 1 .023-.133l.155-.208a.038.038 0 0 0 .005-.018l.011-.312a.128.128 0 0 1 .075-.122.087.087 0 0 1 .09.026l.114.136.15-.109a.076.076 0 0 1 .095-.003.122.122 0 0 1 .036.135l-.071.306a.03.03 0 0 0 .004.016l.1.235a.16.16 0 0 1-.01.132.098.098 0 0 1-.071.05l-.16.022-.119.273a.103.103 0 0 1-.068.063Zm-.246-.535.153.06a.098.098 0 0 1 .061.083l.027.189.075-.187a.1.1 0 0 1 .078-.065l.16-.022a.03.03 0 0 0-.005-.018l-.08-.232a.138.138 0 0 1-.006-.091l.061-.268-.114.082a.083.083 0 0 1-.114-.013l-.092-.108-.008.278a.16.16 0 0 1-.03.087l-.156.208a.031.031 0 0 0-.01.017Z" fill="#E0E0E0"/><path d="M58.505 14.847a.12.12 0 0 1-.151-.132.12.12 0 0 1 .034-.07l.801-.799a.12.12 0 0 1 .161.008.12.12 0 0 1 .01.162l-.801.8a.114.114 0 0 1-.054.03Zm.146.545a.12.12 0 0 1-.117-.202l.8-.8a.12.12 0 0 1 .206.085.12.12 0 0 1-.035.085l-.8.8a.114.114 0 0 1-.054.032Zm.147.548a.12.12 0 0 1-.152-.132.12.12 0 0 1 .035-.07l.8-.8a.12.12 0 0 1 .17 0 .12.12 0 0 1 0 .17l-.8.8a.114.114 0 0 1-.053.032Z" fill="#455A64" opacity=".5"/><path d="m28.129 44.319.586 2.186-.73-.196-.585-2.184.729.194Z" fill="#E0E0E0"/><path d="m31.82 51.708 5.83-5.828c.156-.157.33-.112.387.104l5.256 19.613a.771.771 0 0 1-.18.672l-5.83 5.829c-.155.156-.329.11-.386-.104L31.64 52.38a.77.77 0 0 1 .18-.672Z" fill="#F0F0F0"/><path d="m33.277 52.098 3.695-3.696c.158-.157.329-.121.383.08a.746.746 0 0 1-.188.648l-3.695 3.696c-.157.157-.328.121-.383-.08a.747.747 0 0 1 .188-.648Z" fill="#E0E0E0"/><path d="m33.445 54.071.07.262c.035.13.138.156.233.063l.193-.193a.457.457 0 0 0 .107-.403l-.07-.263c-.035-.127-.139-.156-.232-.063l-.193.194a.46.46 0 0 0-.108.403Z" fill="#FAFAFA"/><path d="M34.545 53.132c.054.202.23.237.381.081l2.624-2.628a.746.746 0 0 0 .187-.65c-.053-.2-.23-.234-.382-.078l-2.624 2.628a.747.747 0 0 0-.186.647Z" fill="#E0E0E0"/><path d="m33.835 55.53.073.27c.034.128.138.155.233.062l.193-.194a.46.46 0 0 0 .106-.402l-.07-.263c-.034-.127-.138-.156-.231-.063l-.193.194a.46.46 0 0 0-.11.395Z" fill="#FAFAFA"/><path d="M34.937 54.593c.054.202.23.237.38.081l2.625-2.628a.746.746 0 0 0 .187-.65c-.054-.2-.23-.234-.383-.078l-2.623 2.628a.748.748 0 0 0-.186.647Zm.39 1.457c.054.2.23.234.38.079l2.624-2.628a.745.745 0 0 0 .188-.648c-.054-.202-.23-.236-.383-.08L35.513 55.4a.748.748 0 0 0-.186.649Zm.39 1.454c.053.2.23.235.38.08l2.624-2.629a.746.746 0 0 0 .188-.647c-.054-.202-.23-.237-.383-.08l-2.624 2.627a.746.746 0 0 0-.185.649Zm17.936-18.828.096.36c.058.215.236.26.387.103l7.418-7.469a.776.776 0 0 0 .18-.673l-.084-.31c-.057-.216-.236-.262-.389-.105l-7.428 7.427a.766.766 0 0 0-.18.667Z" fill="#E0E0E0"/><path d="m54.418 40.19 8.495-8.494c.156-.157.327-.121.38.08a.748.748 0 0 1-.185.648l-8.495 8.492c-.156.159-.327.121-.381-.079a.74.74 0 0 1 .186-.647Zm.39 1.455 8.494-8.494c.156-.157.327-.121.381.08a.747.747 0 0 1-.186.648l-8.494 8.494c-.156.157-.327.12-.38-.08a.744.744 0 0 1 .185-.648Zm.391 1.46 8.494-8.498c.156-.157.326-.121.38.079a.747.747 0 0 1-.185.649l-8.495 8.494c-.156.157-.327.12-.381-.081a.743.743 0 0 1 .187-.642Zm.389 1.45 8.495-8.489c.157-.157.328-.12.382.081a.747.747 0 0 1-.186.647l-8.497 8.485c-.156.157-.327.121-.381-.08a.744.744 0 0 1 .187-.643Zm.39 1.457 8.494-8.495c.157-.156.327-.12.381.08a.748.748 0 0 1-.185.649l-8.495 8.494c-.156.156-.327.12-.381-.081a.743.743 0 0 1 .186-.647Zm.39 1.455 8.494-8.495c.156-.156.327-.12.381.081a.748.748 0 0 1-.186.647l-8.494 8.495c-.156.156-.327.12-.38-.08a.743.743 0 0 1 .185-.648Zm.39 1.456 8.494-8.495c.156-.156.327-.12.381.08a.748.748 0 0 1-.185.648l-8.495 8.495c-.156.156-.327.12-.381-.081a.743.743 0 0 1 .186-.647Zm.39 1.454 8.494-8.494c.156-.156.327-.12.381.081a.748.748 0 0 1-.186.647l-8.494 8.495c-.156.156-.327.12-.38-.08a.744.744 0 0 1 .185-.649Z" fill="#EBEBEB"/><path d="M41.039 50.799 52.192 39.64c.156-.157.33-.11.387.104l3.5 13.06a.771.771 0 0 1-.18.672L44.746 64.634c-.156.157-.33.11-.388-.104L40.86 51.47a.771.771 0 0 1 .18-.671Z" fill="#F0F0F0"/><path d="m50.836 47.944-1.16 4.495 2.091 1.593-6.306-3.04L43.61 61.73l.748 2.794c.058.214.236.26.388.104L55.899 53.47a.77.77 0 0 0 .18-.672l-.666-2.484-4.576-2.371Zm-.546-4.159c.464-.465.977-.326 1.147.307a2.276 2.276 0 0 1-.532 1.99c-.466.457-.977.325-1.147-.309a2.273 2.273 0 0 1 .532-1.988Zm-19.835 2.826 28.75-28.75c.157-.157.33-.11.388.104l.963 3.592a.769.769 0 0 1-.181.672l-28.75 28.75c-.156.157-.33.11-.387-.103l-.961-3.588a.768.768 0 0 1 .178-.677Z" fill="#E0E0E0"/><path d="m49.33 30.109.166.621c.034.129.138.156.233.062l8.358-8.358-.291-1.086-8.358 8.36a.46.46 0 0 0-.108.401Z" fill="#FAFAFA"/><path d="M58.691 20.45c.093-.092.199-.066.233.063l.167.621a.468.468 0 0 1-.109.403l-.896.896-.291-1.087.896-.895Z" fill="#EBEBEB"/><path d="m58.842 21.33-.128-.005a.663.663 0 0 0-.023-.16.29.29 0 0 0-.175-.225.172.172 0 0 0-.17.056.623.623 0 0 0-.104.554.291.291 0 0 0 .175.224.16.16 0 0 0 .08 0 .19.19 0 0 0 .09-.056.511.511 0 0 0 .122-.305l.128.005.014-.003a.046.046 0 0 0 .034-.043.045.045 0 0 0-.043-.041Zm-.319.327a.083.083 0 0 1-.083.032.216.216 0 0 1-.11-.16.547.547 0 0 1 .08-.467.117.117 0 0 1 .049-.03.061.061 0 0 1 .035 0 .216.216 0 0 1 .11.16.543.543 0 0 1-.08.467v-.002Z" fill="#FAFAFA"/><path d="m39.105 44.922 1.156 4.316c.057.214.236.26.387.104l21.288-21.288a.77.77 0 0 0 .18-.672l-1.158-4.32c-.057-.215-.236-.26-.389-.104L39.283 44.246a.769.769 0 0 0-.178.676Z" fill="#EBEBEB"/><path d="M74.376 41.117s-.293-1.95.255-3.669c.547-1.72 1.595-2.983 2.774-3.406 1.18-.422 2.454.431 1.366 1.54-1.087 1.108-3.17 2.5-3.462 5.633l-.933-.098Z" fill="#407BFF"/><path d="M74.376 41.117s-.293-1.95.255-3.669c.547-1.72 1.595-2.983 2.774-3.406 1.18-.422 2.454.431 1.366 1.54-1.087 1.108-3.17 2.5-3.462 5.633l-.933-.098Z" fill="#000" opacity=".1"/><path d="m74.598 40.53-.014.004a.066.066 0 0 1-.057-.075c.433-3.477 2.505-5.435 3.54-5.983a.065.065 0 0 1 .051-.007.065.065 0 0 1 .04.034.067.067 0 0 1 .004.05.063.063 0 0 1-.012.023.064.064 0 0 1-.02.016c-1.02.541-3.045 2.461-3.47 5.883a.068.068 0 0 1-.062.055Z" fill="#fff"/><path d="M81.05 38.841c-.042.276-.277.475-.501.643-.225.169-.464.35-.537.618-.148.54.477 1.084.308 1.62a.87.87 0 0 1-.487.488c-.177.086-.366.135-.551.203-.09.022-.182.038-.275.05a1.26 1.26 0 0 0-.753.292c-.318.31-.305.812-.436 1.237a1.83 1.83 0 0 1-1.047 1.127c-.162.067-.466.182-.662.131a.208.208 0 0 1-.042-.012 1.033 1.033 0 0 1-.097-.07c-.13-.227-.091-.509-.154-.763a52.888 52.888 0 0 1-.721-2.524c-.094-.35-.235-.72-.175-1.09.067-.405.47-.523.53-.919.024-.157.016-.318.038-.477a1.293 1.293 0 0 1 .865-1.03c.702-.227 1.493.178 2.188-.065a4.92 4.92 0 0 0 .517-.25c.547-.261 1.257-.277 1.71.124a.771.771 0 0 1 .282.667Z" fill="#407BFF"/><path d="M75.607 44.062a.063.063 0 0 1-.063-.062c-.005-3.947 3.732-5.52 4.658-5.697a.064.064 0 0 1 .073.05.059.059 0 0 1 0 .024.06.06 0 0 1-.049.049c-.905.174-4.563 1.712-4.556 5.574a.063.063 0 0 1-.063.062Z" fill="#fff"/><path d="M79.419 41.04a.07.07 0 0 1-.036-.008 3.34 3.34 0 0 0-2.838-.037.064.064 0 0 1-.084-.032.064.064 0 0 1 .033-.084 3.465 3.465 0 0 1 2.952.04.063.063 0 0 1 .023.086.067.067 0 0 1-.05.035Z" fill="#fff"/><path d="M44.697 77.141a.747.747 0 0 1-.463-.486l-8.57-31.98a.766.766 0 0 1 .18-.673L66.72 13.12a.654.654 0 0 1 1.116.298l8.572 31.992a.772.772 0 0 1-.179.672L45.34 76.957a.742.742 0 0 1-.643.184Z" fill="#407BFF"/><path d="M67.818 13.364c-.07-.167-.228-.193-.37-.05L36.561 44.196a.74.74 0 0 0-.17.315l-.728-.196a.72.72 0 0 1 .18-.316l30.878-30.88a.643.643 0 0 1 1.097.245Z" fill="#fff" opacity=".4"/><path d="m45.289 77.001-.014.004a.141.141 0 0 1-.03.021l-.022.015a.206.206 0 0 1-.075.031l-.05.022a.671.671 0 0 1-.404.037.743.743 0 0 1-.463-.487l-7.5-27.992.73.195 7.502 28.002c.042.155.14.22.251.19a.16.16 0 0 0 .045-.011l.03-.027Z" fill="#F0F0F0"/><path d="M36.395 44.51a.708.708 0 0 0-.009.357l1.067 3.982-.73-.196-1.064-3.972a.37.37 0 0 1-.02-.128.853.853 0 0 1 .029-.23l.727.187Z" fill="#000" opacity=".1"/><path d="m67.836 13.418.48 1.796-22.64 22.638c-.156.156-.33.11-.387-.104l-.182-.68c-.057-.215-.236-.26-.389-.104l-6.893 6.894a.77.77 0 0 0-.181.672l.182.68a.77.77 0 0 1-.18.672l-.788.784-.481-1.796a.771.771 0 0 1 .18-.673l30.891-30.883c.157-.155.33-.11.388.104Z" fill="#407BFF"/><path d="M76.41 45.409a.767.767 0 0 1-.182.672L45.34 76.957c-.156.157-.33.11-.387-.104l-8.089-30.188.788-.784c.156-.156.02-1.867.178-2.024l6.778-6.78c.158-.157.915.932 1.074.774l22.637-22.636L76.41 45.41Z" fill="#FAFAFA"/><path d="m40.56 54.05 5.827-5.828c.158-.157.332-.11.39.104l5.254 19.612a.766.766 0 0 1-.18.673l-5.828 5.83c-.158.156-.332.11-.389-.105L40.381 54.73a.767.767 0 0 1 .178-.68Z" fill="#F0F0F0"/><path d="m42.014 54.44 3.697-3.696c.158-.157.327-.12.381.081a.741.741 0 0 1-.185.647L42.21 55.17c-.156.157-.328.12-.381-.08a.748.748 0 0 1 .185-.65Z" fill="#E0E0E0"/><path d="m42.183 56.41.07.263c.034.127.139.156.233.062l.192-.193a.46.46 0 0 0 .108-.403l-.07-.262c-.035-.13-.139-.156-.234-.063l-.19.193a.46.46 0 0 0-.11.403Z" fill="#407BFF"/><path d="M43.286 55.48c.054.201.23.236.382.08l2.623-2.63a.747.747 0 0 0 .187-.647c-.055-.202-.23-.236-.382-.08l-2.623 2.627a.745.745 0 0 0-.187.65Zm.39 1.457c.054.202.23.236.383.08l2.623-2.63a.748.748 0 0 0 .186-.646c-.054-.202-.23-.237-.381-.081l-2.624 2.628a.746.746 0 0 0-.187.65Zm.39 1.455c.054.201.23.236.383.08l2.623-2.628a.747.747 0 0 0 .186-.649c-.054-.2-.23-.234-.38-.08l-2.624 2.629a.745.745 0 0 0-.188.648Z" fill="#E0E0E0"/><path d="m62.39 41.02.097.36c.058.215.236.26.387.103l7.416-7.477a.772.772 0 0 0 .18-.672l-.084-.311c-.057-.214-.236-.26-.387-.104l-7.428 7.428a.767.767 0 0 0-.18.674Z" fill="#407BFF"/><path d="m63.157 42.532 8.493-8.493c.158-.157.328-.122.383.08a.745.745 0 0 1-.188.648l-8.493 8.494c-.157.157-.328.12-.382-.08a.746.746 0 0 1 .187-.648Zm.39 1.457 8.493-8.494c.158-.157.329-.121.382.079a.746.746 0 0 1-.187.649l-8.493 8.494c-.157.157-.328.121-.382-.08a.747.747 0 0 1 .187-.648Zm.39 1.454 8.493-8.493c.157-.157.328-.122.383.08a.747.747 0 0 1-.188.648l-8.493 8.494c-.158.157-.329.12-.382-.08a.746.746 0 0 1 .187-.649Zm.39 1.457 8.493-8.494c.158-.157.329-.122.382.079a.746.746 0 0 1-.187.649l-8.493 8.494c-.157.157-.328.12-.383-.08a.747.747 0 0 1 .188-.648Zm.39 1.454 8.493-8.494c.157-.157.328-.121.383.08a.745.745 0 0 1-.188.648l-8.493 8.494c-.158.157-.329.121-.382-.079a.745.745 0 0 1 .187-.649Zm.39 1.456 8.493-8.493c.158-.157.329-.122.382.079a.744.744 0 0 1-.187.649l-8.493 8.493c-.157.158-.328.122-.383-.08a.745.745 0 0 1 .188-.648Zm.39 1.455 8.493-8.494c.157-.157.328-.121.383.08a.747.747 0 0 1-.188.648l-8.493 8.494c-.158.157-.329.121-.382-.079a.746.746 0 0 1 .187-.65Zm.39 1.456 8.493-8.493c.158-.157.329-.122.382.078a.744.744 0 0 1-.187.65l-8.493 8.493c-.157.157-.328.122-.382-.08a.745.745 0 0 1 .187-.648Z" fill="#E6E6E6"/><path d="m49.774 53.142 11.154-11.157c.157-.157.331-.11.389.104l3.499 13.059a.77.77 0 0 1-.181.672L53.48 66.978c-.158.157-.331.11-.389-.103l-3.5-13.06a.769.769 0 0 1 .182-.672Z" fill="#407BFF"/><path d="m49.774 53.142 11.154-11.157c.157-.157.331-.11.389.104l3.499 13.059a.77.77 0 0 1-.181.672L53.48 66.978c-.158.157-.331.11-.389-.103l-3.5-13.06a.769.769 0 0 1 .182-.672Z" fill="#fff" opacity=".8"/><path d="m59.576 50.287-1.16 4.494 2.091 1.595-6.305-3.041-1.855 10.74.749 2.794c.057.214.236.26.389.104l11.154-11.157a.767.767 0 0 0 .18-.672l-.665-2.484-4.578-2.373Zm-.547-4.16c.465-.457.977-.326 1.148.309a2.279 2.279 0 0 1-.533 1.988c-.464.465-.978.327-1.148-.306a2.275 2.275 0 0 1 .533-1.99Z" fill="#407BFF"/><path d="m39.194 48.953 28.75-28.75c.157-.157.33-.11.388.104l.963 3.594a.766.766 0 0 1-.18.672l-28.75 28.749c-.158.157-.332.11-.39-.104l-.962-3.592a.77.77 0 0 1 .18-.673Z" fill="#455A64"/><path d="m58.067 32.452.166.62c.035.128.14.156.233.063l8.36-8.36-.292-1.086-8.36 8.358a.466.466 0 0 0-.107.405Z" fill="#FAFAFA"/><path d="M67.433 22.794c.094-.095.198-.066.233.062l.166.621a.46.46 0 0 1-.108.404l-.895.895-.29-1.087.894-.895Z" fill="#407BFF"/><path d="m67.582 23.674-.128-.005a.74.74 0 0 0-.023-.16.285.285 0 0 0-.176-.223.175.175 0 0 0-.17.054.624.624 0 0 0-.104.555.286.286 0 0 0 .176.223.146.146 0 0 0 .08 0 .208.208 0 0 0 .09-.054.524.524 0 0 0 .122-.308l.128.006.013-.003a.044.044 0 0 0 .034-.04.045.045 0 0 0-.042-.045Zm-.324.33a.082.082 0 0 1-.084.022.212.212 0 0 1-.11-.158.546.546 0 0 1 .08-.467.115.115 0 0 1 .048-.032.058.058 0 0 1 .034.001.207.207 0 0 1 .11.159.542.542 0 0 1-.078.475Z" fill="#FAFAFA"/><path d="m47.842 47.26 1.16 4.328c.057.215.235.26.388.104l21.287-21.286a.769.769 0 0 0 .18-.673L69.7 25.41c-.057-.215-.236-.26-.388-.104L48.018 46.589a.769.769 0 0 0-.176.671Z" fill="#407BFF"/><path d="m47.842 47.26 1.16 4.328c.057.215.235.26.388.104l21.287-21.286a.769.769 0 0 0 .18-.673L69.7 25.41c-.057-.215-.236-.26-.388-.104L48.018 46.589a.769.769 0 0 0-.176.671Z" fill="#fff" opacity=".7"/><path d="m68.317 15.214.586 2.186-31.45 31.449-.585-2.186.583-.586c.156-.156.175-.336.18-.672l.016-.876c-.001-.303.028-.517.18-.673l6.778-6.779c.158-.157.301-.207.505-.01l.427.444c.154.154.233.247.392.09l22.388-22.387Z" fill="#E6E6E6"/><path d="M66.56 14.968c.199-.198.417-.14.49.13a.965.965 0 0 1-.228.846c-.197.198-.416.138-.487-.13a.963.963 0 0 1 .226-.846Zm-1.286 1.285c.197-.198.416-.139.488.132a.965.965 0 0 1-.226.844c-.198.198-.417.14-.49-.13a.965.965 0 0 1 .228-.846Zm-.812 1.867c.089-.33.006-.64-.184-.69-.19-.051-.417.175-.505.505-.089.33-.006.64.184.69.19.051.417-.175.505-.505Z" fill="#fff"/><path d="m38.452 46.407-.445.452.098-.441a.103.103 0 0 0-.025-.095c-.02-.014-.044.012-.053.046l-.138.626s.003.013-.003.022a.09.09 0 0 0 .008.028c0 .009.003.017.007.025l.01.009.345.142a.02.02 0 0 0 .015.001.024.024 0 0 0 .012-.008.083.083 0 0 0 .022-.05.088.088 0 0 0-.024-.09l-.243-.1.444-.452a.111.111 0 0 0 .02-.1c-.006-.022-.023-.036-.05-.015Zm.372-.373.445-.452-.244-.101c-.02-.008-.032-.048-.023-.089.009-.04.027-.065.047-.057l.347.143a.03.03 0 0 1 .01.009.099.099 0 0 1 .007.023.2.2 0 0 1 .008.03.08.08 0 0 1-.003.022l-.138.644a.077.077 0 0 1-.02.04.023.023 0 0 1-.013.011h-.01a.023.023 0 0 1-.008-.002.098.098 0 0 1-.024-.093l.097-.443-.444.452c-.02.02-.042.012-.053-.03a.117.117 0 0 1 .02-.107Zm1.324-1.982c-.009-.032-.039-.02-.045.012l-.024.196c-.128.02-.245.18-.288.42-.057.312.03.64.195.73a.193.193 0 0 0 .241-.05.67.67 0 0 0 .16-.35.094.094 0 0 0-.026-.093c-.02-.012-.043.011-.05.051-.042.233-.175.367-.299.298-.123-.068-.188-.312-.146-.544.03-.165.107-.279.193-.308l-.02.148c-.004.038.019.067.035.047l.178-.199a.067.067 0 0 0 .008-.065l-.112-.293Zm4.494-5.915.083-.458a.127.127 0 0 0-.034-.127c-.029-.016-.059.016-.069.07l-.084.458-.241-.133c-.028-.016-.06.016-.07.069a.134.134 0 0 0 .034.127l.242.133-.086.46a.133.133 0 0 0 .033.127.036.036 0 0 0 .023.001.036.036 0 0 0 .02-.013.128.128 0 0 0 .026-.06l.083-.46.243.135a.034.034 0 0 0 .042-.011.108.108 0 0 0 .027-.061.127.127 0 0 0-.034-.127l-.238-.13Z" fill="#455A64" opacity=".5"/><path d="m40.982 44.364-.182-.68a.768.768 0 0 1 .18-.672L66.535 17.47c.156-.157.33-.11.387.104l.182.68a.772.772 0 0 1-.18.672l-25.552 25.54c-.158.158-.331.111-.389-.103Z" fill="#FAFAFA"/><path d="M66.48 19.1a.092.092 0 0 1-.03.009.095.095 0 0 1-.078-.089l-.04-.285-.155-.059a.096.096 0 0 1-.056-.064.162.162 0 0 1 .024-.133l.156-.209a.057.057 0 0 0 .005-.018l.011-.312a.129.129 0 0 1 .074-.121.087.087 0 0 1 .09.025l.115.136.15-.11a.078.078 0 0 1 .094-.002.125.125 0 0 1 .036.135l-.07.307c0 .005 0 .01.004.015l.1.235a.162.162 0 0 1-.012.133.097.097 0 0 1-.07.05l-.16.021-.114.27a.104.104 0 0 1-.074.067Zm-.245-.534.154.059a.1.1 0 0 1 .06.083l.026.19.077-.187a.097.097 0 0 1 .077-.066l.16-.023a.028.028 0 0 0-.004-.017l-.098-.233a.144.144 0 0 1-.006-.093l.061-.268-.116.084a.08.08 0 0 1-.111-.013l-.093-.109-.01.28a.14.14 0 0 1-.028.085l-.156.208a.048.048 0 0 0 .007.02Z" fill="#E0E0E0"/><path d="M67.244 17.19a.12.12 0 0 1-.117-.2l.799-.8a.122.122 0 0 1 .166.001.119.119 0 0 1-.001.167l-.8.8a.118.118 0 0 1-.047.033Zm.146.547a.12.12 0 0 1-.117-.201l.8-.8a.12.12 0 0 1 .166.002.119.119 0 0 1-.002.167l-.799.8a.119.119 0 0 1-.048.032Zm.147.547a.12.12 0 0 1-.117-.202l.799-.8a.12.12 0 0 1 .166.002.12.12 0 0 1-.001.167l-.8.8a.119.119 0 0 1-.047.032Z" fill="#455A64" opacity=".5"/><path d="m36.867 46.663.586 2.186-.73-.195-.585-2.185.73.194Z" fill="#E0E0E0"/></g><defs><clipPath id="a"><path d="M0 15.8 77.623-5l20.799 77.623-77.623 20.799z" fill="#fff"/></clipPath></defs></svg>