<svg xmlns="http://www.w3.org/2000/svg" fill="none" viewBox="0 0 100 56"><g clip-path="url(#a)" opacity=".1" style="mix-blend-mode:luminosity"><path d="M84.624 74.346 29.072 89.231a1.7 1.7 0 0 1-2.083-1.202L6.066 9.942a1.7 1.7 0 0 1 1.206-2.069L62.825-7.012a1.7 1.7 0 0 1 2.082 1.203l20.92 78.072a1.7 1.7 0 0 1-1.203 2.083ZM7.288 7.931a1.63 1.63 0 0 0-1.15 1.992L27.06 88.009a1.629 1.629 0 0 0 1.992 1.15l55.552-14.885a1.63 1.63 0 0 0 1.15-1.992L64.832-5.804a1.63 1.63 0 0 0-1.992-1.15L7.288 7.93ZM146.85 57.673 91.298 72.558a1.7 1.7 0 0 1-2.082-1.203L68.292-6.732A1.7 1.7 0 0 1 69.5-8.8l55.552-14.885a1.698 1.698 0 0 1 2.083 1.202l20.919 78.073a1.697 1.697 0 0 1-1.202 2.083ZM69.514-8.742a1.63 1.63 0 0 0-1.15 1.991l20.923 78.087a1.63 1.63 0 0 0 1.992 1.15L146.831 57.6a1.63 1.63 0 0 0 1.15-1.992l-20.923-78.087a1.629 1.629 0 0 0-1.992-1.15L69.514-8.742Z" fill="#EBEBEB"/><path d="M110.04 49.754c5.03.474 8.235 7.441 2.661 9.93-2.089.937-4.906-1.555-7.262-.924-2.356.632-3.468 3.8-5.824 4.431-2.357.632-4.907-1.556-7.26-.925-2.353.63-3.471 3.8-5.827 4.432-2.357.631-4.904-1.557-7.26-.925-2.356.631-3.471 3.8-5.824 4.43-2.354.632-4.907-1.555-7.263-.924-2.356.632-3.547 4.197-5.824 4.431-6.072.632-7.213-7.08-2.661-9.93l52.344-14.026Z" fill="#F0F0F0"/><path d="m93.777 42.845-.877-3.271a.476.476 0 0 0-.58-.338l-.446.12a.476.476 0 0 0-.334.582l.876 3.271-.313 1.133a3.469 3.469 0 0 0-.015 1.854l1.96 7.319a.62.62 0 0 0 .76.438l2.301-.617a.62.62 0 0 0 .438-.759l-1.96-7.316a3.474 3.474 0 0 0-.943-1.597l-.867-.82Z" fill="#E0E0E0"/><path d="M93.948 48.762c.693 2.59 1.31 4.694 1.131 4.742-.178.047-.89-2.022-1.586-4.62-.696-2.598-.922-4.797-.743-4.845.178-.048.5 2.123 1.198 4.723Zm-1.458-7.296c.245.915.352 1.682.237 1.713-.115.03-.228-.735-.473-1.65-.245-.915-.352-1.681-.237-1.712.115-.031.23.743.473 1.65Z" fill="#F5F5F5"/><path d="m74.631 49.27-.777-2.9a.42.42 0 0 0-.514-.297l-.394.106a.42.42 0 0 0-.297.514l.777 2.9-.29 1.002a3.101 3.101 0 0 0-.012 1.647l1.739 6.488a.547.547 0 0 0 .67.387l2.035-.545a.548.548 0 0 0 .39-.672l-1.737-6.484a3.074 3.074 0 0 0-.837-1.42l-.753-.726Z" fill="#E0E0E0"/><path d="M74.777 54.516c.617 2.301 1.16 4.16 1.003 4.202-.159.043-.788-1.79-1.406-4.094-.617-2.305-.83-4.249-.66-4.294.17-.046.445 1.882 1.063 4.186Zm-1.289-6.457c.218.811.313 1.489.21 1.517-.104.027-.202-.65-.42-1.46-.217-.812-.31-1.493-.21-1.52.101-.027.203.652.42 1.463Z" fill="#F5F5F5"/><path d="m69.626 47.993-.979-3.653a.53.53 0 0 0-.648-.372l-.498.133a.53.53 0 0 0-.376.647l.98 3.653-.362 1.265a3.872 3.872 0 0 0-.017 2.074l2.189 8.17a.691.691 0 0 0 .846.49l2.563-.688a.691.691 0 0 0 .489-.846l-2.19-8.17a3.872 3.872 0 0 0-1.052-1.787l-.945-.916Z" fill="#E0E0E0"/><path d="M69.812 54.6c.777 2.9 1.464 5.236 1.263 5.29-.202.053-.99-2.255-1.767-5.154-.777-2.9-1.03-5.355-.832-5.408.198-.053.558 2.37 1.336 5.273Zm-1.622-8.137c.275 1.024.393 1.88.264 1.915-.13.035-.254-.82-.529-1.844-.274-1.024-.392-1.877-.265-1.911.127-.034.256.819.53 1.84Zm32.205 4.543-.747-2.788a.616.616 0 0 1 .249-.683 2.409 2.409 0 0 0 .959-2.646 2.483 2.483 0 0 0-.997-1.42l-3.265.875a2.48 2.48 0 0 0-.154 1.728 2.41 2.41 0 0 0 2.154 1.812.617.617 0 0 1 .557.468l.746 2.788a.628.628 0 0 1-.346.734c-.48.218-.779.474-.729.66.073.271.806.13 1.689-.106.883-.237 1.591-.482 1.519-.753-.05-.187-.437-.26-.962-.208a.631.631 0 0 1-.673-.46Z" fill="#F5F5F5"/><path d="M96.848 45.753a1.93 1.93 0 0 0 1.767 1.67c.232.013.453.1.631.25.08-.21.223-.39.411-.514a1.926 1.926 0 0 0 .696-2.33l-3.505.924Z" fill="#E0E0E0"/><path d="m66.582 60.066-.746-2.787a.616.616 0 0 1 .248-.684 2.41 2.41 0 0 0 .959-2.646 2.481 2.481 0 0 0-.997-1.42l-3.265.875a2.48 2.48 0 0 0-.154 1.728 2.41 2.41 0 0 0 2.154 1.813.617.617 0 0 1 .557.467l.747 2.788a.628.628 0 0 1-.346.734c-.481.218-.78.474-.73.661.073.27.806.13 1.69-.107.882-.237 1.59-.482 1.518-.752-.05-.188-.436-.26-.962-.208a.628.628 0 0 1-.673-.462Z" fill="#EBEBEB"/><path d="M43.29 24.413s2.295-5.857 7.18-7.166c4.885-1.309 9.343 2.739 9.343 2.739l7.004 26.14-16.522 4.426-7.004-26.14Z" fill="#F5F5F5"/><path d="M59.448 20.284c-2.87-2.277-6.056-3.098-9-2.31-2.943.79-5.291 3.093-6.636 6.5l6.822 25.457 15.635-4.19-6.821-25.457Zm6.14 24.909-14.671 3.931-6.56-24.485c1.302-3.124 3.523-5.26 6.25-5.991 2.727-.731 5.722.008 8.41 2.063l6.572 24.482Z" fill="#E0E0E0"/><path d="m67.442 46.7-17.348 4.65-7.272-27.14.08-.21c1.436-3.776 4-6.35 7.227-7.215 3.228-.865 6.735.07 9.87 2.634l.17.142 7.273 27.14Zm-16.809 3.231 15.636-4.19-6.821-25.457c-2.87-2.277-6.057-3.098-9-2.31-2.943.79-5.292 3.093-6.636 6.5l6.821 25.457Z" fill="#EBEBEB"/><path d="m61.543 46.675-3.151-11.76 4.459-1.196-.318-1.185-4.46 1.195-3.136-11.709 4.459-1.195-.1-.374c-.29-.23-.583-.436-.879-.63l-3.797 1.017-.755-2.817a9.344 9.344 0 0 0-.944-.07l.833 3.11-4.634 1.241-.834-3.11c-.264.164-.525.341-.782.534l.753 2.808-3.798 1.017c-.159.317-.308.644-.445.986l.103.382 4.459-1.195 3.137 11.71-4.453 1.193.319 1.19 4.46-1.194 3.149 11.755.863-.231L52.9 36.386l4.643-1.244 3.151 11.76.849-.227ZM57.21 33.96l-4.635 1.242-3.137-11.709 4.643-1.244L57.21 33.96Z" fill="#E6E6E6"/><path d="M86.322 12.883s2.294-5.857 7.18-7.166c4.884-1.309 9.342 2.739 9.342 2.739l7.004 26.139-16.522 4.427-7.004-26.14Z" fill="#F5F5F5"/><path d="M102.479 8.754c-2.867-2.278-6.056-3.098-9-2.31-2.942.789-5.291 3.093-6.635 6.5l6.82 25.457 15.637-4.19-6.822-25.457Zm6.15 24.906-14.658 3.928-6.56-24.485c1.3-3.124 3.509-5.257 6.248-5.991 2.738-.734 5.722.008 8.409 2.063l6.561 24.485Z" fill="#E0E0E0"/><path d="m110.474 35.17-17.342 4.647-7.272-27.14.077-.21c1.436-3.776 4-6.35 7.227-7.215 3.228-.865 6.735.07 9.87 2.635l.171.142 7.269 27.141Zm-16.797 3.227 15.636-4.19-6.821-25.457c-2.868-2.278-6.057-3.098-9-2.309-2.943.789-5.292 3.092-6.636 6.499l6.821 25.457Z" fill="#EBEBEB"/><path d="m104.575 35.144-3.151-11.76 4.459-1.195-.318-1.185-4.459 1.194-3.137-11.708 4.459-1.195-.1-.374a13 13 0 0 0-.876-.632l-3.8 1.018-.755-2.816a10.63 10.63 0 0 0-.944-.071l.834 3.11-4.632 1.241-.833-3.11c-.265.163-.526.341-.782.533l.752 2.808-3.798 1.018a15.06 15.06 0 0 0-.445.986l.103.382 4.459-1.195 3.137 11.71-4.459 1.194.32 1.191 4.459-1.195 3.15 11.755.862-.231-3.15-11.76 4.639-1.244 3.152 11.76.854-.229Zm-4.332-12.714-4.631 1.24-3.138-11.708 4.64-1.243 3.129 11.71Z" fill="#E6E6E6"/><path d="M113.638 20.9c.867 5.793.439 9.395 1.78 13.87l-10.652 2.664c-2.157-8.324-2.925-6.475-4.259-10.958-.48-1.722-1.017-3.912-.061-4.325l5.692-2.805 5.153-.333a2.222 2.222 0 0 1 2.347 1.887Z" fill="#407BFF"/><path d="M113.638 20.9c.867 5.793.439 9.395 1.78 13.87l-10.652 2.664c-2.157-8.324-2.925-6.475-4.259-10.958-.48-1.722-1.017-3.912-.061-4.325l5.692-2.805 5.153-.333a2.222 2.222 0 0 1 2.347 1.887Z" fill="#000" opacity=".1"/><path d="M102.532 23.691c-.646-2.481-4.002-1.588-3.79.815l.018.067c.257 2.446 2.562 7.906 3.584 9.924a1.979 1.979 0 0 0 2.641.892l6.345-3.087-1.211-3.102-4.249 1.77a.738.738 0 0 1-.986-.456l-2.352-6.823Z" fill="#407BFF"/><path d="M82.727 29.346c-2.026-.85-2.73.62-4.695.12-.952-.24-1.421.092-.99-.749l-.005-.017a8.281 8.281 0 0 0 .612-2.217 5.733 5.733 0 0 0-.362-2.79 2.318 2.318 0 0 1-.018-1.518c.979-.086 2.131-.57 2.783.18a10.835 10.835 0 0 1 1.331 2.887l-.62-.241c.438.585.813.97 1.127 1.326.513.556.589 1.899.837 3.02Z" fill="#263238"/><path d="M77.186 32.546c.561-.965-.573-4.438-.573-4.438l2.55.97s.653 2.159 1.276 2.457c.149.071.31-.055.459-.083l-.002.59-.245.79-.473.537-.833.195-.796-.036-.996-.393-.83-.394c.156-.064.38-.056.463-.195Z" fill="#EEC8C0"/><path d="M79.451 29.65c-1.493.182-2.324-.412-2.766-.932l-.076-.596 2.55.969.292.56Z" fill="#000" opacity=".1"/><path d="m81.093 25.952.01.037c.032.12.065.245.082.363a2.383 2.383 0 0 1-1.982 2.822l-.02.006a2.781 2.781 0 0 1-1.487-.163 3.63 3.63 0 0 1-.646-.317 2.858 2.858 0 0 1-.347-.259l-.065-.056a3.226 3.226 0 0 1-.307-.331.095.095 0 0 1-.005-.017l-.066-.087c-.27-.38-.512-.78-.722-1.198-.01-.04-.042-.078-.066-.118l-.013-.049c-.088-.167-.179-.346-.28-.541a2.627 2.627 0 0 1 2.118-3.88l.12-.007c.931-.037 1.728.462 2.354 1.189.064.07.124.143.18.22.022.025.041.05.06.076.207.284.39.585.55.898a.543.543 0 0 1 .017.066c.108.21.202.425.281.647.093.227.17.46.234.699Z" fill="#EEC8C0"/><path d="M79.713 24.647c.063.144.04.298-.056.323-.095.026-.223-.039-.29-.184a.298.298 0 0 1 .018-.313l.015-.004.286-.243s-.025.17-.125.237c.07.042.124.107.152.184Z" fill="#263238"/><path d="M79.328 25.12c.322.213.67.381 1.037.5a.69.69 0 0 1-.397.414l-.64-.914Z" fill="#ED893E"/><path d="M77.382 25.222a.092.092 0 0 0 .067-.085 1.1 1.1 0 0 1 .484-.738.096.096 0 0 0 .03-.128.092.092 0 0 0-.125-.031 1.249 1.249 0 0 0-.574.875.089.089 0 0 0 .053.086.09.09 0 0 0 .034.008l.031.013Zm2.57-1.653a.089.089 0 0 0 .065-.067.092.092 0 0 0-.065-.115.893.893 0 0 0-.835.162.09.09 0 0 0-.013.124.093.093 0 0 0 .128.008.73.73 0 0 1 .657-.117.11.11 0 0 0 .063.005Zm-1.85 1.84c.065.143.039.298-.052.338-.091.04-.221-.043-.291-.188-.07-.145-.034-.299.057-.339l.02-.005.253-.207a.423.423 0 0 1-.123.23c.063.04.11.1.135.171Z" fill="#263238"/><path d="m76.206 38.602-.432 3.174c-.124.93.588 2.078 1.195 2.85 1.375 1.737 3.521 4.486 3.521 4.486-.045.777-1.322.937-1.322.937s-3.137-2.825-4.961-5.929c-1.211-2.056-.993-7.467-.126-9.676.264-.672 1.351-1.953 1.351-1.953l1.402 6.279-.628-.168Z" fill="#EEC8C0"/><path d="m79.786 48.879 1.067.346c.037.01.07.029.098.054l1.055.886a.298.298 0 0 1 .102.185l.064.495a.241.241 0 0 1-.071.216l-1.096 1.031a.264.264 0 0 1-.376-.035l-1.151-1.304a.41.41 0 0 1-.055-.087l-.412-1.034a.262.262 0 0 1 .06-.29l.474-.398a.254.254 0 0 1 .241-.065Zm7.187-2.407-8.454.532s.677-2.34-3.034-9.424c-1.699-3.245-.797-5.448 1.84-6.4.123-.05.245-.088.373-.128 1.083-.33 2.708.174 3.74.6l.015-.003c.345.216.683.455 1.077.704 3.239 2.052 1.63 4.932 3.64 11.559l.047.178c.183.814.435 1.611.756 2.382Z" fill="#EEC8C0"/><path d="M76.003 21.09a1.946 1.946 0 0 0-1.52.61 3.574 3.574 0 0 0-.822 1.454 6.254 6.254 0 0 0 .227 4.01c.511 1.127 1.877 2.691 3.27 2.457-1.443-2.416-1.005-6.052-.947-8.574-.06.04-.13.007-.208.043Z" fill="#263238"/><path d="M75.293 27.62c.251.266.598.423.964.435.487.009.605-.47.372-.858-.216-.355-.727-.792-1.17-.612a.626.626 0 0 0-.325.822.643.643 0 0 0 .159.213Z" fill="#EEC8C0"/><path d="M76.516 20.913c1.656-.046 3.11.248 4.108 2.383-.408.032-.688.277-1.031.674a3.545 3.545 0 0 0-1.927-1.115c-.05.526-.102 1.048-.147 1.581-.029.283-.004.905-.004.905-.42.12-.832.266-1.233.438 0 0-.865-1.788-.745-3.192.053-.597.142-1.234.558-1.66l.421-.014Zm9.656 23.008.046.172c-1.951 1.578-6.407 1.473-7.94 1.437l-.218-.814c.527-.45 1.28-.873 1.62-1.171a8.56 8.56 0 0 0 2.63-4.128c.618-2.228.545-5.023-.668-6.995-.545-.881-1.76-1.206-2.722-1.297-.343-.038-1.442.152-1.6.05-.02-.081-.1-.375.017-.378 2.227-.11 3.19.28 4.118.857.344.216 1.678 1.259 2.072 1.508 3.24 2.058.647 4.128 2.645 10.759Z" fill="#263238"/><path d="m86.172 43.92.046.173c-1.951 1.578-6.407 1.473-7.94 1.437l-.218-.814c.527-.45 1.28-.873 1.62-1.171a8.56 8.56 0 0 0 2.63-4.128c.618-2.228.545-5.023-.668-6.995-.545-.881-1.76-1.206-2.722-1.297-.343-.038-1.442.152-1.6.05-.02-.081-.1-.375.017-.378 2.227-.11 3.19.28 4.118.857.344.216 1.678 1.259 2.072 1.508 3.24 2.058.647 4.128 2.645 10.759Z" fill="#fff" opacity=".3"/><path d="M84.716 58.895s-.05 1.112-.137 2.812a.18.18 0 0 0 .008.032c-.066 1.205-.142 2.702-.236 4.3-.178 3.085-.081 5.448-.32 7.93-.268 2.887-3.285 14.32-4.127 17.14-.18.603-.335 1.212-.469 1.83l-.133.653-1.733-.597.125-.872c.043-.437 1.542-14.958 1.55-18.848-.004-5.24-1.49-13.54-1.257-19.264.02-.536.06-1.056.109-1.572 0 0 6.186 2.879 6.568 3.156.383.276.052 3.3.052 3.3Z" fill="#EEC8C0"/><path d="M88.956 54.025c.858 3.96 2.828 11.706 3.46 15.723.728 4.634 2.657 21.04 2.657 21.04l-1.932.316s-4.16-12.258-4.973-18.891c-.248-2.077-2.45-7.28-3.623-10.417a.093.093 0 0 1-.01-.04c-1-2.661-1.836-4.79-1.836-4.79s-2.137-.217-3.728-1.554a4.542 4.542 0 0 1-1.132-1.325 4.176 4.176 0 0 1-.325-.727c-1.042-3.072.844-6.393.844-6.393l8.414-.494s1.76 5.588 2.184 7.552Z" fill="#EEC8C0"/><path d="M90.608 59.528s-5.519 1.038-8.133 1.994c-4.956 1.815-6.36-.05-6.36-.05s2.101-.952.777-8.747c-.32-1.872.612-4.104 1.149-5.195a4.813 4.813 0 0 0 .207-2.025l7.892-1.616.577 1.946s1.074 2.86 1.3 3.598c.824 2.684 2.59 10.095 2.59 10.095Z" fill="#263238"/><path d="M90.608 59.528s-5.519 1.038-8.133 1.994c-4.956 1.815-6.36-.05-6.36-.05s2.101-.952.777-8.747c-.32-1.872.612-4.104 1.149-5.195a4.813 4.813 0 0 0 .207-2.025l7.892-1.616.577 1.946s1.074 2.86 1.3 3.598c.824 2.684 2.59 10.095 2.59 10.095Z" fill="#fff" opacity=".3"/><path d="M79.83 32.485c-1.064-.739.718 6.048 4.42 7.668 2.271.995.992-3.917-4.42-7.668Z" fill="#000" opacity=".1"/><path d="M78.86 32.708c.179.414.378.82.597 1.215 4.14 6.312 7.188 3.809 7.677 2.852.203-1.328-1.271-6.483-2.355-8.351l-.775.775c-.125.755 1.424 6.605.579 5.614 0 0-2.244-1.724-2.57-2.328a2.51 2.51 0 0 0-2.666-1.286 1.209 1.209 0 0 0-.487 1.509Z" fill="#EEC8C0"/><path d="M84.348 29.202c-.962.023-1.753-.788-1.753-.788l1.473-1.752.7 1.77-.42.77Z" fill="#EEC8C0"/><path d="m84.088 26.66-1.473 1.751-1.298-1.816 1.446-.85 1.325.915Z" fill="#EEC8C0"/><path d="M79.797 26.983c.07.145.204.223.298.18.093-.044.112-.203.043-.345-.069-.142-.205-.223-.298-.18-.093.044-.116.201-.043.345Z" fill="#263238"/><path d="m112.89 50.619 3.182 20.885c.229 1.465-.887 2.942-2.582 3.451l-28.552 7.651c-2.014.54-3.951-.464-4.22-2.16l-3.183-20.885c-.235-1.5.938-3.026 2.704-3.5l28.427-7.616c.044-.015.089-.027.135-.036 1.96-.43 3.826.55 4.089 2.21Z" fill="#407BFF"/><path d="m112.89 50.619 3.182 20.885c.229 1.465-.887 2.942-2.582 3.451l-28.552 7.651c-2.014.54-3.951-.464-4.22-2.16l-3.183-20.885c-.235-1.5.938-3.026 2.704-3.5l28.427-7.616c.044-.015.089-.027.135-.036 1.96-.43 3.826.55 4.089 2.21Z" fill="#fff" opacity=".5"/><path d="M81.2 52.144s-.965-1.113-.66-1.485c.304-.371.327-.01.327-.01l1.21 1.371-.877.124Z" fill="#7F3E3B"/><path d="M80.574 53.792c-.365.042-.474-.215-.742-.467 0 0-.863-1.082-.486-1.378a9.8 9.8 0 0 1 1.323-.403 1.489 1.489 0 0 1 1.605.757c.754 1.237-1.7 1.491-1.7 1.491Z" fill="#7F3E3B"/><path d="m81.058 53.536 2.461 2.303 1.632-.77-2.783-2.159-1.31.626Z" fill="#7F3E3B"/><path d="M89.457 49.37s-2.07.448-1.79 4.646c.205 3.066.024 2.769.024 2.769l-4.464-3.62-1.674 1.256s5.823 6.562 7.618 5.415c0 0 .997-.32 1.313-2.202.316-1.883-1.027-8.263-1.027-8.263Z" fill="#407BFF"/><path d="M89.457 49.37s-2.07.448-1.79 4.646c.205 3.066.024 2.769.024 2.769l-4.464-3.62-1.674 1.256s5.823 6.562 7.618 5.415c0 0 .997-.32 1.313-2.202.316-1.883-1.027-8.263-1.027-8.263Z" fill="#263238"/><path d="M88.315 52.831c.23.947-.846 3.449 1.265 4.363-.199.846.549 6.18 1.442 6.971 0 0 6.703-.772 11.192-2.283-.179-1.944-2.003-5.597-1.927-12a2.497 2.497 0 0 0-2.731-2.518c-.395.035-.813.085-1.237.147a31.068 31.068 0 0 0-4.393.868c-.472.127-.948.294-1.405.45a3.393 3.393 0 0 0-2.206 4.002Z" fill="#263238"/><path d="M97.47 53.955a26.971 26.971 0 0 1 .182-5.451l.415 1.066.486.364c-.114 1.979 3.787 4.177 1.43 9.33a.625.625 0 0 1-.654.356c-1.627-.217-3.763-1.677-3.763-1.677l.243-2.162c1.163.21 1.78-.264 1.66-1.826Z" fill="#000" opacity=".2"/><path d="m90.391 56.422 1.29-.32a.39.39 0 0 0 .256-.575l-1.552-3.189a.644.644 0 0 0-.705-.332l-1.287.32a.389.389 0 0 0-.26.572l1.56 3.193a.643.643 0 0 0 .698.331Z" fill="#263238"/><path d="m90.391 56.422 1.29-.32a.39.39 0 0 0 .256-.575l-1.552-3.189a.644.644 0 0 0-.705-.332l-1.287.32a.389.389 0 0 0-.26.572l1.56 3.193a.643.643 0 0 0 .698.331Z" fill="#fff" opacity=".3"/><path d="m90.195 56.471 1.29-.32a.39.39 0 0 0 .259-.576l-1.555-3.188a.65.65 0 0 0-.706-.335l-1.29.321a.39.39 0 0 0-.258.575l1.556 3.197a.649.649 0 0 0 .704.326Z" fill="#263238"/><path d="m90.195 56.471 1.29-.32a.39.39 0 0 0 .259-.576l-1.555-3.188a.65.65 0 0 0-.706-.335l-1.29.321a.39.39 0 0 0-.258.575l1.556 3.197a.649.649 0 0 0 .704.326Z" fill="#fff" opacity=".7"/><path d="m89.883 53.012-.123.033a.428.428 0 0 1-.471-.225l-.059-.117a.262.262 0 0 1 .174-.386l.124-.033a.432.432 0 0 1 .47.223l.06.12a.263.263 0 0 1-.175.385Z" fill="#263238"/><path d="M89.441 52.508a.173.173 0 0 0 .195.093.108.108 0 0 0 .072-.158.177.177 0 0 0-.195-.093.107.107 0 0 0-.076.06.109.109 0 0 0 .004.098Zm.166.369a.185.185 0 0 0 .198.092.11.11 0 0 0 .07-.161.185.185 0 0 0-.194-.093.11.11 0 0 0-.074.162Z" fill="#263238"/><path d="m91.92 55.8 2.49 1.42.498-1.607-2.482-1-.506 1.186Z" fill="#7F3E3B"/><path d="M100.75 51.201c-.095-1.192-.687-3.516-2.003-3.629-1.536-.128-1.345 2.09-1.132 4.084.214 1.993.254 4.535-.266 4.425-1.086-.23-3.053-.884-3.053-.884l-.59 1.832s4.527 2.811 5.894 1.504c1.545-1.471 1.268-5.819 1.15-7.332Z" fill="#263238"/><path d="M94.398 44.655a7.553 7.553 0 0 0 .847 3.032s-3.202 3.504-3.883.964c0 0 1.238-.178.93-1.745-.177-.887.498-2.017 2.106-2.251Z" fill="#7F3E3B"/><path d="M92.29 46.91c-.112-.834.413-1.856 1.773-2.187l.112.06.142.15s-.269 2.449-2.012 2.63a2.552 2.552 0 0 0-.015-.654Z" fill="#000" opacity=".2"/><path d="M94.48 41.398c.275 2.175.422 3.094-.462 4.398-1.323 1.964-4.065 1.814-4.974-.243-.82-1.852-1.11-5.101.838-6.345a2.979 2.979 0 0 1 4.596 2.191h.002Z" fill="#7F3E3B"/><path d="M90.11 43.806c-.083.43-.224.846-.418 1.237a.756.756 0 0 0 .645.003l-.228-1.24Z" fill="#630F0F"/><path d="M91.698 42.243a.105.105 0 0 0 .035-.028.09.09 0 0 0-.014-.123 1.016 1.016 0 0 0-.92-.185.093.093 0 0 0-.052.113.09.09 0 0 0 .11.05.864.864 0 0 1 .76.16.086.086 0 0 0 .08.013Zm-3.217.442a.073.073 0 0 0 .036-.025.849.849 0 0 1 .697-.331.086.086 0 0 0 .094-.11.086.086 0 0 0-.075-.062 1.02 1.02 0 0 0-.854.392.09.09 0 0 0 .009.124.087.087 0 0 0 .093.012Zm2.807.608c.046.17-.034.333-.15.349-.116.015-.234-.104-.266-.28-.032-.177.04-.32.15-.35.11-.028.24.103.266.281Zm-1.975.36c.046.172-.036.336-.15.348-.114.012-.234-.104-.266-.28-.032-.176.034-.333.15-.349.116-.015.234.104.266.28Z" fill="#263238"/><path d="m89.098 43.374-.441-.042s.275.288.44.042Zm1.984-.362-.445-.044s.278.29.445.044Zm.431 2.061c.032-.063.06-.13.083-.197a.044.044 0 0 0-.015-.058.045.045 0 0 0-.058.015 1.16 1.16 0 0 1-.724.752.042.042 0 0 0 .022.08c.3-.097.549-.31.692-.592Z" fill="#263238"/><path d="M91.593 38.25s3.13-1.526 5.335 3.64c1.1 2.572-2.144 5.048-2.144 5.048l-.15-.558a6.143 6.143 0 0 1-.145-2.465l.088-.64-2.18-1.784s-1.024-.034-1.395-.89c0 0-.14.373.37.85 0 0-2.397.744-2.61-.534a.79.79 0 0 0 .167.68s-.758.188-.842-.496c-.085-.683-.23-3.598 3.506-2.851Z" fill="#263238"/><path d="M95.295 43.008a1.599 1.599 0 0 1-.585 1.082c-.443.35-.88.008-.936-.523-.054-.476.114-1.23.644-1.372a.721.721 0 0 1 .88.822l-.003-.009ZM90.05 55.551l.414.395a.664.664 0 0 0 .585.17l.988-.19a1.226 1.226 0 0 0 .906-.706l.106-.225c-.645-.703-1.858-.986-1.858-.986l-.34-.118a.56.56 0 0 0-.722.323l-.244.663a.637.637 0 0 0 .165.674Z" fill="#7F3E3B"/><path d="m38.737 36.61-4.045 1.762-4.114-5.582c-.2-.335-.497.306-.885.345l-.666.067c-.092-.101 2.609 5.03 4.29 8.027.686 1.225 7.035-1.999 7.035-1.999 2.302-1.881-1.615-2.62-1.615-2.62Z" fill="#FFB573"/><path d="M36.185 37.127a13.472 13.472 0 0 0 2.183 3.637.405.405 0 0 0 .433.118c2.108-.707 2.911-1.47 2.911-1.47-.365-.593-.457-4.365-1.024-4.71a8.792 8.792 0 0 0-1.625.979c-.424.376-2.878 1.446-2.878 1.446Z" fill="#407BFF"/><path d="M41.186 39.91a120.323 120.323 0 0 1 2.46 11.169s10.296-2.713 10.658-2.8c-1.015-7.101-.889-9.013-1.797-13.265-.356-1.755-1.737-3.031-2.792-2.952l-.193.027c-2.98.388-6.01 1.53-8.822 2.61-1.078.453-.155 2.392.486 5.21Z" fill="#407BFF"/><path d="M51.428 63.408c-.461 1.857-.748 19.2-.748 19.2l.493 9.893c.069 1.433.221 2.86.457 4.274l.398 3.097-4.63 1.303c-.014-.431-.254-4.791-1.705-18.318-1.49-13.917-2.12-31.71-2.12-31.71s5.859-1.816 8.513-2.108c1.68 3.42.356 10.373-.658 14.37Z" fill="#263238"/><path d="M64.24 96.662c.064-.19-2.838-13.494-3.6-17.28l-3.752-21.137s-.834-7.142-2.596-9.964l-8.666 2.258s9.102 24.67 11.992 37.565a577.165 577.165 0 0 0 2.28 9.725l4.342-1.167Z" fill="#263238"/><path d="M46.685 32.8c.77.287.689 1.086.321 1.82a6.058 6.058 0 0 1-1.805 2.216c-.017.005-3.405-1.292-1.743-3.113.273-.301.268-.84.164-1.376a6.449 6.449 0 0 0-.371-1.19 3.043 3.043 0 0 0-.12-.275 2.512 2.512 0 0 0-.135-.273l2.673-2.048c-.197.586-.014 2.246.187 2.744.235.566.473 1.362.829 1.495Z" fill="#FFB573"/><path d="M43.642 32.33a6.457 6.457 0 0 0-.371-1.19 2.978 2.978 0 0 0-.117-.277l2.204-1.069c-.38.617-.79 1.788-1.716 2.536Z" fill="#000" opacity=".2"/><path d="M40.284 30.087c.919 1.934 3.643 2.354 4.86.465.705-1.09.583-2.13.334-3.738-.035-.246-.075-.5-.117-.773a2.861 2.861 0 0 0-.789-1.608 2.87 2.87 0 0 0-3.648-.391c-1.834 1.222-1.47 4.304-.64 6.045Z" fill="#FFB573"/><path d="M42.145 26.964c-.106.029-.168.178-.133.344.036.166.139.287.261.26.123-.026.18-.178.145-.347-.036-.169-.164-.277-.273-.257Zm-1.83.475c-.106.029-.17.172-.133.344.037.172.147.27.261.26.115-.009.17-.174.133-.344-.036-.169-.153-.282-.26-.26Z" fill="#263238"/><path d="M41.597 29.15c-.355.1-.733.074-1.071-.074.31-.483.556-1.005.728-1.552l.343 1.625Z" fill="#ED893E"/><path d="M42.733 26.634a.806.806 0 0 0-.707-.155l-.032.008a.104.104 0 0 1-.12-.076.102.102 0 0 1 .08-.12.998.998 0 0 1 .89.181.101.101 0 0 1 .019.14.075.075 0 0 1-.041.03.102.102 0 0 1-.089-.008Zm-3.305.161a.1.1 0 0 1 .071-.124.987.987 0 0 1 .89.178.096.096 0 0 1 .032.067.096.096 0 0 1-.026.07.095.095 0 0 1-.104.023.095.095 0 0 1-.031-.02.789.789 0 0 0-.702-.12.09.09 0 0 1-.091-.02.098.098 0 0 1-.04-.054Z" fill="#263238"/><path d="M43.663 25.066c.224.378.38.794.458 1.227a2.828 2.828 0 0 1 1.143 2.093 2.497 2.497 0 0 1 1.049-1.404c-.03-.8-.16-1.594-.387-2.363a2.06 2.06 0 0 0-.398-.818.82.82 0 0 0-.829-.274c-.048-.318-.407-.508-.712-.587a5.004 5.004 0 0 0-5.126 1.525l-.722.194a2.014 2.014 0 0 0 1.166 1.093c.116.052.226.118.327.196a3.373 3.373 0 0 0 1.638-.377 16.224 16.224 0 0 1 1.542-.722.756.756 0 0 1 .85.216Z" fill="#263238"/><path d="M45.604 26.651c-.659.177-.836 1.128-.753 1.713.089.654.65 1.059 1.184.608a1.95 1.95 0 0 0 .694-1.343.894.894 0 0 0-1.125-.978Z" fill="#FFB573"/><path d="M41.23 29.85s.514-.385 2.109-1.026c.067.63-.226.986-1.058 1.301-.831.316-1.051-.276-1.051-.276Z" fill="#263238"/><path d="M41.298 29.806a.413.413 0 0 0 .38.173 7.74 7.74 0 0 0 1.352-.705.45.45 0 0 0 .237-.415 12.25 12.25 0 0 0-1.97.947Z" fill="#fff"/><path d="M41.699 29.92a4.52 4.52 0 0 1 1.23-.659.736.736 0 0 1 .385.048c-.107.337-.433.594-1.013.823a1 1 0 0 1-.694.057.946.946 0 0 1 .092-.268Z" fill="#fff"/><path d="M29.357 32.346s-.926-1.238-.58-1.605c.345-.367.342.013.342.013l1.167 1.537-.929.055Z" fill="#FFB573"/><path d="M28.578 34.026c-.387.017-.48-.26-.736-.55 0 0-.823-1.194-.396-1.478a10.5 10.5 0 0 1 1.417-.328 1.57 1.57 0 0 1 1.627.918c.68 1.356-1.912 1.438-1.912 1.438Z" fill="#FFB573"/><path d="m49.803 34.416 3.61 7.025-.619-7.51-2.99.485Z" fill="#000" opacity=".2"/><path d="M53.27 33.841c.415.583.816 1.172 1.21 1.77a101.898 101.898 0 0 1 2.29 3.629c.31.449.538.95.67 1.479.067.296.095.6.083.903-.008.233-.03.466-.067.696l-.022.148a199.63 199.63 0 0 1-1.089 3.865c-.188.643-.367 1.289-.567 1.932-.201.643-.388 1.281-.596 1.92a.867.867 0 0 1-1.69-.355c.065-.668.15-1.332.226-2 .077-.668.172-1.329.256-1.993.17-1.328.355-2.654.556-3.978l-.026.158a2.35 2.35 0 0 0-.008-.377.318.318 0 0 0-.044-.164l-.084-.117-.228-.3a103.268 103.268 0 0 1-2.514-3.514 71.736 71.736 0 0 1-1.192-1.8 1.713 1.713 0 1 1 2.842-1.913l-.006.011Z" fill="#FFB573"/><path d="m53.664 49.535-.765 1.747s1.369 1.243 1.953.855c.583-.388.345-2.162.345-2.162l-1.533-.44Z" fill="#FFB573"/><path d="M50.068 32.075s-2.016.91.716 4.662c2.128 2.926 2.098 2.432 2.098 2.432l2.668-2.701s-2.665-5.32-5.482-4.393ZM113.827-2.63l-14.2 3.805a.733.733 0 0 0-.518.898l1.055 3.938a.736.736 0 0 0 .897.518l2.141-.573.477 1.438a.595.595 0 0 0 .984-.22l.509-1.746 10.069-2.698a.734.734 0 0 0 .518-.898l-1.054-3.935a.738.738 0 0 0-.878-.527Z" fill="#407BFF"/><path d="m113.827-2.63-14.2 3.804a.733.733 0 0 0-.518.898l1.055 3.938a.736.736 0 0 0 .897.518l2.141-.573.477 1.438a.595.595 0 0 0 .984-.22l.509-1.746 10.069-2.698a.734.734 0 0 0 .518-.898l-1.054-3.935a.738.738 0 0 0-.878-.527Z" fill="#fff" opacity=".7"/><path d="m64.236 14.703 14.183-3.8a.739.739 0 0 1 .901.52l1.056 3.938a.736.736 0 0 1-.521.898l-2.132.571.308 1.484a.596.596 0 0 1-.962.298l-1.317-1.254-10.069 2.698a.736.736 0 0 1-.9-.517L63.728 15.6a.738.738 0 0 1 .508-.897Z" fill="#407BFF"/><path d="m64.236 14.703 14.183-3.8a.739.739 0 0 1 .901.52l1.056 3.938a.736.736 0 0 1-.521.898l-2.132.571.308 1.484a.596.596 0 0 1-.962.298l-1.317-1.254-10.069 2.698a.736.736 0 0 1-.9-.517L63.728 15.6a.738.738 0 0 1 .508-.897Z" fill="#fff" opacity=".7"/><path d="m66.737 15.74.52.592.785-.093-.404.678.328.717-.768-.173-.581.535-.072-.786-.689-.385.727-.313.154-.771Zm2.538-.68.52.592.783-.093-.404.679.33.716-.767-.173-.582.535-.072-.786-.689-.386.725-.31.156-.774Zm2.535-.679.522.591.783-.092-.404.678.33.716-.77-.172-.579.534-.071-.785-.69-.386.725-.312.154-.772Z" fill="#407BFF"/><path d="m74.347 13.701.52.592.785-.093-.404.678.331.717-.77-.173-.58.534-.074-.785-.686-.386.724-.312.154-.772Zm2.538-.68.519.592.783-.092-.401.677.33.717-.77-.173-.582.535-.072-.786-.689-.385.728-.313.154-.771Z" fill="#263238"/><path d="m28.01 17.938 14.574-3.906a.736.736 0 0 1 .9.518l1.056 3.938a.736.736 0 0 1-.52.898l-5.105 1.368-.494 1.699a.596.596 0 0 1-.962.3l-1.317-1.256-6.7 1.795a.736.736 0 0 1-.897-.518l-1.056-3.938a.736.736 0 0 1 .521-.898Z" fill="#407BFF"/><path d="m28.01 17.938 14.574-3.906a.736.736 0 0 1 .9.518l1.056 3.938a.736.736 0 0 1-.52.898l-5.105 1.368-.494 1.699a.596.596 0 0 1-.962.3l-1.317-1.256-6.7 1.795a.736.736 0 0 1-.897-.518l-1.056-3.938a.736.736 0 0 1 .521-.898Z" fill="#fff" opacity=".7"/><path d="m30.833 18.787.522.591.784-.09-.405.676.331.72-.771-.176-.578.537-.072-.789-.689-.382.724-.315.154-.772Zm2.537-.68.52.592.786-.09-.405.676.332.719-.772-.176-.578.537-.075-.787-.685-.384.723-.314.154-.772Zm2.538-.68.52.592.783-.09-.401.675.33.72-.77-.176-.581.538-.073-.789-.688-.382.726-.316.154-.772Zm2.537-.68.519.593.784-.09-.402.675.328.72-.768-.177-.58.538-.073-.788-.689-.383.724-.314.157-.773Zm2.535-.678.522.59.784-.09-.405.677.332.719-.772-.176-.578.537-.072-.788-.689-.383.724-.314.154-.772Z" fill="#407BFF"/></g><defs><clipPath id="a"><path d="M-10-4.457 133.844-43l38.543 143.844-143.844 38.543z" fill="#fff"/></clipPath></defs></svg>