<svg width="73" height="73" viewBox="0 0 73 73" fill="none" xmlns="http://www.w3.org/2000/svg">
<path d="M19.1887 21.5976L17.7462 19.2543C18.5336 17.8604 18.7713 16.2224 18.4124 14.6622C18.0536 13.102 17.1242 11.7324 15.8069 10.8225C14.4897 9.91268 12.8797 9.52837 11.2935 9.7451C9.70733 9.96183 8.25953 10.764 7.23463 11.9938C6.20973 13.2237 5.68184 14.7924 5.7547 16.3917C5.82755 17.991 6.49588 19.5052 7.62836 20.6368C8.76084 21.7684 10.2756 22.4356 11.8749 22.5072C13.4743 22.5788 15.0426 22.0497 16.2716 21.0239L19.1887 21.5976Z" fill="#F5F5F5"/>
<path d="M15.2949 18.5127C15.2575 18.5158 15.2198 18.5158 15.1824 18.5127L14.8612 18.5199L13.6786 18.5316L9.7819 18.5491H9.46362V18.5127C9.46362 17.0527 9.46362 15.7489 9.47384 14.7984C9.47384 14.3312 9.4826 13.9531 9.48552 13.6815C9.48552 13.556 9.48552 13.4552 9.48552 13.3793C9.48148 13.3444 9.48148 13.3091 9.48552 13.2742C9.48768 13.3092 9.48768 13.3443 9.48552 13.3793C9.48552 13.4552 9.48552 13.556 9.48552 13.6815C9.48552 13.9531 9.48552 14.3312 9.4972 14.7984C9.4972 15.7489 9.4972 17.0556 9.50888 18.5127L9.47238 18.4762H9.7819L13.6816 18.4864L14.8642 18.498H15.1854C15.2223 18.4989 15.259 18.5038 15.2949 18.5127Z" fill="#263238"/>
<path d="M9.7819 18.5858H9.46362C9.45438 18.5855 9.44556 18.5819 9.4388 18.5755C9.43518 18.5722 9.43227 18.5681 9.43027 18.5636C9.42826 18.5591 9.42719 18.5542 9.42712 18.5493L9.4388 14.7985L9.45778 13.3794C9.45778 13.2568 9.45778 13.2334 9.50158 13.2334C9.54538 13.2334 9.541 13.2524 9.54538 13.3794L9.55414 13.9941L9.5629 14.8L9.57458 18.4412H9.7819L13.6816 18.4514L15.1868 18.4704C15.3168 18.4704 15.3328 18.4704 15.3328 18.5142C15.3328 18.558 15.3153 18.5536 15.1868 18.558L14.8656 18.5653L13.683 18.577L9.7819 18.5858Z" fill="#E0E0E0"/>
<path d="M14.6511 14.5459C14.5974 14.6046 14.5398 14.6597 14.4788 14.7109L13.9897 15.1401C13.5736 15.4993 12.9969 15.9942 12.3574 16.5359L12.2611 16.6176L12.2363 16.6381L12.2114 16.6162L11.4814 15.9417H11.534L10.4682 16.8177L10.1587 17.0644C10.1235 17.0965 10.0848 17.1244 10.0433 17.1476C10.0742 17.1114 10.1084 17.0781 10.1455 17.0483L10.4375 16.7855L11.4858 15.8862L11.5092 15.8672L11.5311 15.8876L12.2611 16.5578H12.2129L12.3093 16.476C12.9502 15.9344 13.5313 15.4467 13.9561 15.0978L14.454 14.689C14.5153 14.6355 14.5813 14.5876 14.6511 14.5459Z" fill="#263238"/>
<path d="M10.0375 17.1915C10.0287 17.1915 10.0214 17.1915 10.0126 17.1755C10.0039 17.1594 10.001 17.1302 10.1178 17.0295L10.4098 16.7667L11.4814 15.8483C11.4883 15.8424 11.4971 15.8391 11.5062 15.8391C11.5153 15.8391 11.5241 15.8424 11.531 15.8483L12.2391 16.498L12.2859 16.4572C12.9064 15.933 13.4904 15.4352 13.9327 15.0775L14.4364 14.6657C14.6467 14.4978 14.6511 14.4964 14.6788 14.5197C14.7065 14.5519 14.7022 14.5548 14.5021 14.7344L14.013 15.1724C13.575 15.5461 13.0013 16.0484 12.3808 16.5681L12.2596 16.6703C12.2529 16.6762 12.2444 16.6794 12.2355 16.6794C12.2266 16.6794 12.2181 16.6762 12.2114 16.6703L11.5062 16.0162L10.1791 17.1039C10.0944 17.1638 10.0594 17.1915 10.0375 17.1915ZM12.2917 16.5418L12.3326 16.5068L12.6479 16.2382L12.3326 16.5053L12.2917 16.5418Z" fill="#E0E0E0"/>
<path d="M14.651 15.7592C14.6302 15.6397 14.6219 15.5183 14.6262 15.3971C14.6189 15.1737 14.6145 14.8627 14.6145 14.5211L14.651 14.5576H14.5882C14.2276 14.5576 13.902 14.5576 13.6655 14.5474C13.5383 14.5491 13.4112 14.5389 13.2859 14.5167C13.4123 14.4959 13.5404 14.4871 13.6684 14.4904C13.9049 14.4904 14.2305 14.4802 14.5911 14.4802H14.6904V14.5167C14.6904 14.8627 14.6904 15.1737 14.6787 15.3927C14.6824 15.5155 14.6731 15.6383 14.651 15.7592Z" fill="#263238"/>
<path d="M14.6511 15.7956C14.6102 15.7956 14.6015 15.7956 14.5898 15.3984C14.5825 15.1824 14.5796 14.8977 14.5781 14.5896C14.2335 14.5896 13.9094 14.5896 13.6641 14.5794C13.2466 14.5677 13.2466 14.5589 13.2466 14.5166C13.2466 14.4743 13.2466 14.4655 13.6641 14.4538C13.9123 14.4538 14.2481 14.4436 14.5883 14.4436H14.6876C14.6973 14.4439 14.7065 14.4475 14.7139 14.4538C14.7173 14.4573 14.72 14.4614 14.7218 14.4659C14.7235 14.4704 14.7243 14.4753 14.7241 14.4801V14.5166C14.7241 14.8524 14.7241 15.1648 14.7124 15.3926C14.7022 15.7956 14.6934 15.7956 14.6511 15.7956Z" fill="#E0E0E0"/>
<path d="M37.0372 11.7777L45.0351 10.5557C45.2905 12.2273 45.016 13.9368 44.25 15.4443C43.484 16.9518 42.2651 18.1815 40.7644 18.9607C39.2636 19.7399 37.5566 20.0294 35.8828 19.7887C34.2091 19.5479 32.6529 18.7889 31.4327 17.6183C30.2124 16.4477 29.3895 14.9242 29.0795 13.262C28.7696 11.5997 28.988 9.88205 29.7043 8.35031C30.4206 6.81857 31.5986 5.54966 33.0731 4.7218C34.5475 3.89394 36.2442 3.54871 37.9249 3.73461L37.0372 11.7777Z" fill="#EBEBEB"/>
<path d="M39.6317 3.76099L38.6608 9.96161L44.7475 8.81843C44.7475 8.81843 43.8525 5.34363 39.6317 3.76099Z" fill="#E0E0E0"/>
<path d="M55.4581 15.2978C55.4444 14.1876 55.7599 13.0982 56.3649 12.1672C56.9699 11.2362 57.8372 10.5054 58.8572 10.0669C59.8773 9.62849 61.0044 9.50214 62.0962 9.70382C63.188 9.9055 64.1956 10.4262 64.9917 11.2001C65.7879 11.974 66.3368 12.9665 66.5693 14.0522C66.8017 15.1378 66.7073 16.2681 66.2979 17.3001C65.8885 18.3322 65.1824 19.2198 64.2689 19.8508C63.3554 20.4819 62.2754 20.8281 61.1652 20.8458C59.6734 20.8645 58.235 20.2911 57.1652 19.2511C56.0954 18.2112 55.4815 16.7896 55.4581 15.2978ZM63.7611 15.1635C63.7501 14.6328 63.5821 14.1173 63.2783 13.682C62.9746 13.2467 62.5487 12.9112 62.0544 12.7177C61.5602 12.5243 61.0197 12.4815 60.5012 12.595C59.9826 12.7084 59.5093 12.9729 59.141 13.3551C58.7727 13.7373 58.5258 14.22 58.4316 14.7423C58.3373 15.2647 58.3999 15.8032 58.6115 16.29C58.823 16.7768 59.1741 17.1901 59.6202 17.4775C60.0664 17.765 60.5878 17.9139 61.1185 17.9054C61.8322 17.8912 62.5111 17.5946 63.0065 17.0806C63.5018 16.5666 63.7732 15.8772 63.7611 15.1635Z" fill="#F5F5F5"/>
<path d="M55.458 15.2979C55.4318 13.805 55.999 12.3627 57.035 11.2875C58.071 10.2124 59.4913 9.59215 60.9841 9.56299L61.0279 12.5078C60.3116 12.5192 59.6291 12.8148 59.1306 13.3294C58.6322 13.844 58.3586 14.5355 58.37 15.2519C58.3814 15.9682 58.6769 16.6507 59.1916 17.1492C59.7062 17.6476 60.3977 17.9212 61.1141 17.9098L61.1608 20.8546C59.6681 20.8726 58.2293 20.2975 57.1601 19.2557C56.0909 18.2139 55.4788 16.7905 55.458 15.2979Z" fill="#E0E0E0"/>
<path d="M60.4805 9.11027C64.1042 9.05187 66.995 11.8638 67.0505 15.5051L63.6209 15.5605C63.5932 13.8188 62.269 12.7238 60.5359 12.7515L60.4805 9.11027Z" fill="#EBEBEB"/>
<path d="M9.51924 45.4353H5.64148V54.3734H9.51924V45.4353Z" fill="#EBEBEB"/>
<path d="M15.1066 37.3H11.2289V54.3733H15.1066V37.3Z" fill="#F5F5F5"/>
<path d="M34.7641 37.7893H30.8864V54.3735H34.7641V37.7893Z" fill="#EBEBEB"/>
<path d="M40.5734 31.7375H36.6957V54.1967H40.5734V31.7375Z" fill="#F5F5F5"/>
<path d="M61.4354 31.5593H57.5576V54.3718H61.4354V31.5593Z" fill="#F5F5F5"/>
<path d="M68.734 35.0547H64.8562V54.3719H68.734V35.0547Z" fill="#EBEBEB"/>
<path d="M69.2727 36.7804C69.2727 36.7804 69.2376 36.722 69.1734 36.6038C69.1091 36.4855 69.0186 36.3118 68.8901 36.0782C68.6317 35.6226 68.2434 34.9525 67.6725 34.1364C67.3878 33.729 67.0505 33.2881 66.6578 32.8224C66.2344 32.3203 65.7757 31.8489 65.2854 31.412C64.7257 30.9055 64.1151 30.4583 63.4633 30.0776C63.2896 29.9783 63.1129 29.879 62.9275 29.7856C62.7421 29.6921 62.5508 29.6104 62.3581 29.5271C61.9564 29.3638 61.5418 29.2343 61.1185 29.1402C60.6744 29.0449 60.2222 28.9921 59.7681 28.9826C59.294 28.9803 58.8212 29.0293 58.3577 29.1286C57.8744 29.2319 57.405 29.3916 56.959 29.6045C56.5064 29.8206 56.064 30.0892 55.5968 30.3345C54.6458 30.8569 53.642 31.2768 52.6024 31.5872C51.4889 31.8869 50.3368 32.0173 49.1845 31.9741C49.0385 31.9741 48.8925 31.9624 48.7465 31.9566C48.5971 31.9534 48.448 31.9422 48.2998 31.923C48.2253 31.9128 48.1538 31.9084 48.0764 31.8938L47.8544 31.8485C47.7084 31.8223 47.5624 31.7726 47.4164 31.7317C46.8345 31.5433 46.2682 31.3094 45.7229 31.0324L44.0526 30.1944C43.4876 29.9054 42.8966 29.6703 42.2875 29.4921C41.0523 29.1826 39.7456 28.968 38.4331 29.1067C37.7718 29.176 37.1268 29.3556 36.5248 29.6381C35.9238 29.9342 35.3734 30.3235 34.894 30.7915C33.9158 31.7317 33.18 32.8691 32.4485 33.967C31.7171 35.0649 31.0148 36.1716 30.2585 37.2082C29.5283 38.2369 28.7006 39.1928 27.7867 40.0625C27.3387 40.4789 26.8599 40.8611 26.3545 41.2057C25.8579 41.5397 25.335 41.8326 24.7908 42.0817C24.2608 42.3266 23.7077 42.5178 23.1396 42.6525C22.8607 42.727 22.576 42.7664 22.2957 42.8131C22.0155 42.8451 21.7338 42.8626 21.4518 42.8657C20.3594 42.8731 19.2815 42.6161 18.3099 42.1167C17.3653 41.6568 16.5141 41.1049 15.6425 40.6772C13.967 39.8103 12.0402 39.5597 10.1987 39.9694C8.3573 40.379 6.71839 41.4228 5.56847 42.9183C5.09847 43.5214 4.71515 44.1872 4.42967 44.8966L4.30703 45.2207C4.27345 45.3141 4.25009 45.3944 4.22965 45.4572L4.16541 45.6514C4.16541 45.6514 4.18293 45.5842 4.22235 45.4557C4.24133 45.3915 4.26323 45.3097 4.29535 45.2163C4.32747 45.1229 4.36981 45.0134 4.41507 44.8907C5.1465 43.0311 6.53019 41.5016 8.30743 40.5881C9.75861 39.8718 11.3889 39.5996 12.994 39.8055C13.9242 39.9228 14.8271 40.1999 15.6629 40.6246C16.5389 41.0524 17.3901 41.6043 18.3318 42.0598C19.2947 42.5532 20.3626 42.8066 21.4445 42.7985C21.7241 42.7955 22.0033 42.778 22.2811 42.746C22.5599 42.6993 22.8403 42.6598 23.1177 42.5868C23.6813 42.4519 24.23 42.2612 24.7558 42.0174C25.296 41.7679 25.815 41.4749 26.3078 41.1414C26.8099 40.7982 27.2857 40.418 27.7313 40.0041C28.6408 39.1364 29.4651 38.1836 30.1928 37.1586C30.9462 36.1234 31.6528 35.0255 32.3828 33.9203C33.1128 32.8151 33.8487 31.6821 34.8356 30.736C35.3225 30.2612 35.8819 29.8669 36.4927 29.568C37.1026 29.2858 37.7555 29.1081 38.4243 29.0424C39.7529 28.8964 41.0654 29.1183 42.3064 29.4308C42.9188 29.6103 43.5127 29.8474 44.0804 30.1389L45.7491 30.9769C46.2914 31.2527 46.8542 31.486 47.4325 31.6748C47.5785 31.7142 47.7245 31.7639 47.8705 31.7887L48.0895 31.8339C48.1625 31.8485 48.2355 31.8529 48.3085 31.8631C48.4545 31.8836 48.6005 31.8894 48.7465 31.8967C48.8925 31.904 49.0385 31.9157 49.1845 31.9142C50.33 31.9592 51.4758 31.8318 52.5834 31.5361C53.6193 31.2281 54.6196 30.8111 55.5676 30.2922C56.0334 30.0527 56.4743 29.787 56.9327 29.5622C57.8194 29.1438 58.7891 28.9312 59.7695 28.9402C60.2272 28.95 60.6829 29.0038 61.1302 29.1008C61.556 29.1964 61.973 29.3273 62.3771 29.4921C62.5713 29.5782 62.7669 29.6571 62.9494 29.7534C63.1319 29.8498 63.3129 29.9432 63.4881 30.0454C64.1418 30.4288 64.7539 30.8789 65.3146 31.3886C65.8043 31.8289 66.2625 32.3031 66.6855 32.8078C67.0783 33.2706 67.4155 33.713 67.6959 34.1218C68.1322 34.7504 68.5352 35.4015 68.9033 36.0723C69.0288 36.303 69.1179 36.4826 69.1807 36.6008L69.2727 36.7804Z" fill="#263238"/>
<path d="M38.4841 30.0454C39.0348 30.0454 39.4813 29.5989 39.4813 29.0482C39.4813 28.4975 39.0348 28.051 38.4841 28.051C37.9334 28.051 37.4869 28.4975 37.4869 29.0482C37.4869 29.5989 37.9334 30.0454 38.4841 30.0454Z" fill="#407BFF"/>
<path d="M38.4842 30.8967C38.1258 30.8967 37.7754 30.7904 37.4775 30.5912C37.1795 30.3921 36.9472 30.109 36.8101 29.7778C36.6731 29.4467 36.6373 29.0823 36.7073 28.7308C36.7773 28.3793 36.95 28.0565 37.2036 27.8031C37.4571 27.5498 37.7801 27.3773 38.1316 27.3076C38.4832 27.2378 38.8476 27.2739 39.1786 27.4113C39.5097 27.5486 39.7925 27.7811 39.9914 28.0793C40.1904 28.3774 40.2964 28.7279 40.2961 29.0863C40.2953 29.5664 40.1041 30.0267 39.7645 30.3661C39.4248 30.7055 38.9644 30.8963 38.4842 30.8967ZM38.4842 27.4204C38.1547 27.4204 37.8327 27.5181 37.5587 27.7012C37.2848 27.8842 37.0713 28.1444 36.9452 28.4488C36.8191 28.7532 36.7861 29.0881 36.8504 29.4113C36.9147 29.7344 37.0733 30.0312 37.3063 30.2642C37.5393 30.4972 37.8361 30.6558 38.1592 30.7201C38.4824 30.7844 38.8173 30.7514 39.1217 30.6253C39.4261 30.4992 39.6863 30.2857 39.8693 30.0118C40.0524 29.7378 40.1501 29.4157 40.1501 29.0863C40.1497 28.6446 39.9741 28.2211 39.6617 27.9088C39.3494 27.5964 38.9259 27.4208 38.4842 27.4204Z" fill="#407BFF"/>
<path d="M38.9631 25.6085L38.9105 23.566L39.4201 23.5748L38.4682 22.4111L37.5162 23.585L38.0433 23.5879L38.0959 25.6027L38.9631 25.6085Z" fill="#EBEBEB"/>
<path d="M37.0373 26.702V27.0772H36.7015V26.7181C36.4046 26.7084 36.1163 26.6159 35.8693 26.4509L36.0532 26.0421C36.2449 26.1766 36.4683 26.2586 36.7015 26.2801V25.7209C36.3306 25.6304 35.916 25.5063 35.916 25.0288C35.916 24.6741 36.1729 24.3689 36.7015 24.3091V23.9368H37.0373V24.3018C37.2765 24.3156 37.5091 24.3857 37.7162 24.5062L37.5483 24.9179C37.3909 24.8271 37.2173 24.7681 37.0373 24.7441V25.3121C37.4081 25.3997 37.8169 25.5238 37.8169 25.9954C37.814 26.337 37.5614 26.6392 37.0373 26.702ZM36.7015 25.223V24.7485C36.5248 24.7879 36.4547 24.8858 36.4547 24.9953C36.4547 25.1048 36.5555 25.1763 36.7015 25.223ZM37.2855 26.0289C37.2855 25.9121 37.1876 25.8494 37.0446 25.7983V26.2611C37.2037 26.2231 37.2782 26.1341 37.2782 26.0289H37.2855Z" fill="#E0E0E0"/>
<path d="M41.4085 20.3028C41.4085 20.5613 41.2187 20.7846 40.8026 20.7846C40.6066 20.7881 40.4138 20.7343 40.2478 20.6299L40.3807 20.3715C40.5016 20.4579 40.6467 20.5038 40.7953 20.5029C40.9632 20.5029 41.0669 20.4313 41.0669 20.3131C41.0669 20.1948 40.9924 20.1247 40.7281 20.1247H40.3558L40.4318 19.3057H41.318V19.5758H40.7106L40.6873 19.8517H40.8055C41.2377 19.8561 41.4085 20.0459 41.4085 20.3028Z" fill="#407BFF"/>
<path d="M41.5458 20.0327C41.5458 19.5523 41.8115 19.2808 42.1692 19.2808C42.5269 19.2808 42.7926 19.5523 42.7926 20.0327C42.7926 20.513 42.5284 20.7846 42.1692 20.7846C41.81 20.7846 41.5458 20.513 41.5458 20.0327ZM42.4539 20.0327C42.4539 19.7027 42.3371 19.5655 42.1692 19.5655C42.0013 19.5655 41.8874 19.7027 41.8874 20.0327C41.8874 20.3626 42.0028 20.4999 42.1692 20.4999C42.3356 20.4999 42.4539 20.3626 42.4539 20.0327Z" fill="#407BFF"/>
<path d="M42.9328 19.6895C42.9283 19.6394 42.9343 19.5889 42.9503 19.5413C42.9664 19.4936 42.9922 19.4498 43.0262 19.4127C43.0601 19.3756 43.1014 19.346 43.1474 19.3257C43.1934 19.3054 43.2431 19.2949 43.2934 19.2949C43.3437 19.2949 43.3935 19.3054 43.4395 19.3257C43.4855 19.346 43.5268 19.3756 43.5607 19.4127C43.5946 19.4498 43.6205 19.4936 43.6365 19.5413C43.6526 19.5889 43.6586 19.6394 43.6541 19.6895C43.6601 19.7401 43.6552 19.7914 43.6399 19.84C43.6246 19.8885 43.5991 19.9333 43.5651 19.9713C43.5311 20.0093 43.4895 20.0396 43.4429 20.0602C43.3963 20.0809 43.3458 20.0913 43.2949 20.091C43.2438 20.0913 43.1933 20.0808 43.1466 20.0602C43.0999 20.0396 43.0581 20.0093 43.0239 19.9714C42.9897 19.9335 42.9639 19.8888 42.9482 19.8402C42.9325 19.7916 42.9273 19.7402 42.9328 19.6895ZM43.4467 19.6895C43.4467 19.5333 43.3854 19.4588 43.3007 19.4588C43.2161 19.4588 43.1547 19.5362 43.1547 19.6895C43.1547 19.8428 43.2175 19.9202 43.3007 19.9202C43.384 19.9202 43.4467 19.8457 43.4467 19.6895ZM44.1607 19.3055H44.4089L43.4146 20.7655H43.1679L44.1607 19.3055ZM43.9227 20.3757C43.9303 20.3061 43.9579 20.2403 44.0022 20.1861C44.0464 20.1319 44.1054 20.0917 44.172 20.0703C44.2387 20.049 44.3101 20.0473 44.3776 20.0657C44.4451 20.084 44.5058 20.1216 44.5525 20.1737C44.5991 20.2258 44.6297 20.2904 44.6404 20.3595C44.6512 20.4287 44.6416 20.4994 44.613 20.5633C44.5844 20.6271 44.5379 20.6813 44.4791 20.7192C44.4203 20.7572 44.3518 20.7773 44.2819 20.7772C44.231 20.7771 44.1808 20.7663 44.1345 20.7455C44.0881 20.7247 44.0466 20.6944 44.0128 20.6565C43.9789 20.6186 43.9534 20.5741 43.9378 20.5257C43.9223 20.4773 43.9172 20.4262 43.9227 20.3757ZM44.4337 20.3757C44.4337 20.2224 44.3738 20.145 44.2877 20.145C44.2016 20.145 44.1417 20.2195 44.1417 20.3757C44.1417 20.5319 44.2045 20.6064 44.2877 20.6064C44.3709 20.6064 44.4337 20.529 44.4337 20.3757Z" fill="#407BFF"/>
<path d="M7.68688 42.3489C8.2376 42.3489 8.68406 41.9024 8.68406 41.3517C8.68406 40.8009 8.2376 40.3545 7.68688 40.3545C7.13615 40.3545 6.6897 40.8009 6.6897 41.3517C6.6897 41.9024 7.13615 42.3489 7.68688 42.3489Z" fill="#407BFF"/>
<path d="M7.68698 43.1999C7.32863 43.1999 6.97833 43.0936 6.68037 42.8945C6.38241 42.6954 6.15018 42.4125 6.01304 42.0814C5.87591 41.7503 5.84003 41.386 5.90994 41.0346C5.97985 40.6831 6.15241 40.3602 6.4058 40.1069C6.6592 39.8535 6.98204 39.6809 7.33351 39.611C7.68497 39.5411 8.04928 39.577 8.38035 39.7141C8.71143 39.8512 8.9944 40.0835 9.19349 40.3814C9.39258 40.6794 9.49884 41.0297 9.49884 41.388C9.49846 41.8685 9.30744 42.3291 8.96773 42.6688C8.62803 43.0085 8.1674 43.1995 7.68698 43.1999ZM7.68698 39.7236C7.35745 39.7236 7.03531 39.8214 6.76133 40.0045C6.48735 40.1876 6.27383 40.4479 6.14779 40.7523C6.02175 41.0568 5.98884 41.3918 6.05324 41.715C6.11764 42.0382 6.27644 42.335 6.50956 42.5679C6.74268 42.8009 7.03964 42.9594 7.36289 43.0235C7.68613 43.0876 8.02112 43.0544 8.32549 42.9281C8.62986 42.8018 8.88993 42.5881 9.0728 42.3139C9.25568 42.0398 9.35313 41.7176 9.35284 41.388C9.35207 40.9466 9.17627 40.5235 8.86398 40.2115C8.5517 39.8995 8.12843 39.724 7.68698 39.7236Z" fill="#407BFF"/>
<path d="M7.19051 35.551L7.24453 37.5921L6.73499 37.5833L7.68691 38.747L8.63882 37.5731L8.11031 37.5702L8.05774 35.5554L7.19051 35.551Z" fill="#EBEBEB"/>
<path d="M6.01517 39.2623V39.6375H5.68083V39.274C5.38383 39.265 5.09538 39.1724 4.84863 39.0068L5.03259 38.598C5.22424 38.7325 5.44771 38.8145 5.68083 38.836V38.2768C5.30999 38.1878 4.89535 38.0637 4.89535 37.5848C4.89535 37.23 5.15231 36.9249 5.68083 36.865V36.5H6.01517V36.865C6.25489 36.8775 6.48815 36.9471 6.69553 37.0679L6.52763 37.4797C6.36988 37.3887 6.19574 37.3296 6.01517 37.3059V37.8753C6.38747 37.9615 6.79481 38.0856 6.79481 38.5571C6.79481 38.8988 6.54077 39.1995 6.01517 39.2623ZM5.68083 37.7833V37.3088C5.50417 37.3483 5.43409 37.4461 5.43409 37.557C5.43409 37.668 5.53337 37.7366 5.68083 37.7833ZM6.25607 38.5907C6.25607 38.4739 6.15971 38.4097 6.01517 38.36V38.8214C6.18307 38.7849 6.25607 38.6973 6.25607 38.5907Z" fill="#E0E0E0"/>
<path d="M64.7 28.4364V28.8116H64.3656V28.4466C64.068 28.4372 63.7791 28.3441 63.532 28.1779L63.7159 27.7706C63.9082 27.9049 64.1321 27.9869 64.3656 28.0086V27.4479C63.9948 27.3574 63.5787 27.2333 63.5787 26.7544C63.5787 26.4011 63.8371 26.096 64.3656 26.0361V25.6638H64.7V26.0288C64.9392 26.0425 65.1719 26.1125 65.3789 26.2332L65.2124 26.6449C65.0553 26.5527 64.8809 26.4935 64.7 26.4712V27.0391C65.0708 27.1267 65.4796 27.2508 65.4796 27.7224C65.4796 28.0714 65.2256 28.3721 64.7 28.4364ZM64.3656 26.9574V26.4829C64.1875 26.5223 64.1174 26.6187 64.1174 26.7296C64.1174 26.8406 64.2182 26.9107 64.3656 26.9574ZM64.9409 27.7633C64.9409 27.6465 64.8445 27.5837 64.7 27.5326V27.994C64.8679 27.9575 64.9409 27.8713 64.9409 27.7633Z" fill="#E0E0E0"/>
<path d="M66.7761 28.7401C66.9286 28.6732 67.058 28.5629 67.1483 28.423C67.2387 28.2831 67.2859 28.1197 67.2842 27.9532C67.2913 27.8443 67.2761 27.7351 67.2395 27.6323C67.2029 27.5295 67.1457 27.4353 67.0713 27.3554C66.9969 27.2755 66.907 27.2117 66.8071 27.1679C66.7071 27.1241 66.5993 27.1012 66.4902 27.1006C66.3811 27.1 66.273 27.1217 66.1726 27.1644C66.0722 27.2072 65.9815 27.27 65.9063 27.349C65.8311 27.428 65.7728 27.5216 65.7351 27.624C65.6973 27.7264 65.6809 27.8354 65.6869 27.9444C65.6834 28.1124 65.7298 28.2777 65.8203 28.4193C65.9107 28.5609 66.0411 28.6726 66.195 28.7401C64.9657 28.9255 65.027 30.2614 65.027 30.2614L67.9353 30.276C67.9353 30.276 67.9952 28.9241 66.7761 28.7401Z" fill="#EBEBEB"/>
<path d="M43.1153 16.0981C43.0735 16.0976 43.033 16.0829 43.0006 16.0564C42.9682 16.0299 42.9459 15.9931 42.9372 15.9521L42.527 14.2234H41.3838L40.9881 15.8718C40.9764 15.919 40.9465 15.9597 40.905 15.9851C40.8635 16.0105 40.8136 16.0186 40.7662 16.0076C40.7426 16.0021 40.7204 15.992 40.7007 15.9778C40.6811 15.9636 40.6645 15.9457 40.6518 15.925C40.6392 15.9044 40.6308 15.8814 40.6271 15.8575C40.6234 15.8336 40.6246 15.8091 40.6304 15.7856L41.0261 14.1621C41.03 14.0859 41.062 14.0139 41.1159 13.9599C41.1699 13.906 41.2419 13.874 41.3181 13.8701H42.5883C42.6643 13.8746 42.7359 13.9068 42.7897 13.9607C42.8436 14.0145 42.8758 14.0861 42.8803 14.1621L43.2876 15.8762C43.2933 15.8996 43.2943 15.924 43.2905 15.9479C43.2867 15.9717 43.2783 15.9946 43.2657 16.0152C43.2531 16.0358 43.2365 16.0538 43.217 16.068C43.1975 16.0822 43.1753 16.0924 43.1518 16.0981C43.1397 16.0991 43.1275 16.0991 43.1153 16.0981Z" fill="#407BFF"/>
<path d="M42.5079 13.8818H41.3939V15.9142H42.5079V13.8818Z" fill="#407BFF"/>
<path d="M41.6173 18.3303C41.5587 18.33 41.5026 18.3064 41.4613 18.2648C41.42 18.2233 41.3968 18.167 41.3968 18.1084V15.7067C41.3933 15.6758 41.3963 15.6446 41.4056 15.6149C41.415 15.5853 41.4306 15.5579 41.4512 15.5347C41.4719 15.5115 41.4973 15.493 41.5257 15.4802C41.554 15.4675 41.5848 15.4609 41.6158 15.4609C41.6469 15.4609 41.6777 15.4675 41.706 15.4802C41.7344 15.493 41.7598 15.5115 41.7804 15.5347C41.8011 15.5579 41.8167 15.5853 41.826 15.6149C41.8354 15.6446 41.8384 15.6758 41.8348 15.7067V18.104C41.8356 18.1332 41.8306 18.1623 41.82 18.1895C41.8095 18.2168 41.7936 18.2416 41.7734 18.2627C41.7532 18.2837 41.7289 18.3006 41.7021 18.3122C41.6753 18.3238 41.6465 18.33 41.6173 18.3303Z" fill="#407BFF"/>
<path d="M42.2845 18.3304C42.2259 18.33 42.1699 18.3065 42.1286 18.2649C42.0873 18.2233 42.0641 18.1671 42.0641 18.1085V15.7068C42.0726 15.6548 42.0993 15.6076 42.1394 15.5735C42.1795 15.5395 42.2305 15.5208 42.2831 15.5208C42.3357 15.5208 42.3866 15.5395 42.4268 15.5735C42.4669 15.6076 42.4936 15.6548 42.5021 15.7068V18.1041C42.5027 18.1333 42.4975 18.1622 42.4869 18.1894C42.4763 18.2165 42.4604 18.2413 42.4402 18.2623C42.42 18.2833 42.3959 18.3002 42.3691 18.3119C42.3424 18.3235 42.3137 18.3298 42.2845 18.3304Z" fill="#407BFF"/>
<path d="M42.4861 13.2072C42.4861 13.3138 42.4545 13.4179 42.3953 13.5065C42.3361 13.5951 42.2519 13.6642 42.1535 13.7049C42.055 13.7457 41.9467 13.7564 41.8422 13.7356C41.7377 13.7148 41.6417 13.6635 41.5664 13.5881C41.491 13.5128 41.4397 13.4168 41.4189 13.3123C41.3981 13.2078 41.4088 13.0995 41.4496 13.001C41.4904 12.9026 41.5594 12.8184 41.648 12.7593C41.7366 12.7001 41.8408 12.6685 41.9473 12.6685C42.0902 12.6685 42.2272 12.7252 42.3283 12.8263C42.4293 12.9273 42.4861 13.0643 42.4861 13.2072Z" fill="#407BFF"/>
<path d="M40.9895 16.5215L41.4129 14.8979H42.4904L42.9036 16.5215H40.9895Z" fill="#407BFF"/>
<path d="M32.2295 22.357C32.2295 22.5746 32.0689 22.7658 31.7171 22.7658C31.5494 22.7682 31.3849 22.7209 31.244 22.6301L31.3579 22.4125C31.4601 22.4855 31.5827 22.5244 31.7083 22.5235C31.8543 22.5235 31.9375 22.4636 31.9375 22.3629C31.9375 22.2621 31.8747 22.2023 31.6455 22.2023H31.3302L31.3944 21.5088H32.1448V21.738H31.6309L31.6119 21.9716H31.7127C32.085 21.9745 32.2295 22.138 32.2295 22.357Z" fill="#455A64"/>
<path d="M32.3463 22.1278C32.3463 21.7219 32.5712 21.4912 32.8734 21.4912C33.1756 21.4912 33.4019 21.7219 33.4019 22.1278C33.4019 22.5337 33.1785 22.7658 32.8734 22.7658C32.5682 22.7658 32.3463 22.5351 32.3463 22.1278ZM33.1143 22.1278C33.1143 21.8489 33.0165 21.7321 32.8734 21.7321C32.7303 21.7321 32.6339 21.8489 32.6339 22.1278C32.6339 22.4066 32.7332 22.5234 32.8734 22.5234C33.0135 22.5234 33.1143 22.4081 33.1143 22.1278Z" fill="#455A64"/>
<path d="M33.5202 21.8373C33.5267 21.7785 33.5501 21.7228 33.5875 21.6769C33.625 21.6311 33.6749 21.5971 33.7312 21.579C33.7876 21.5609 33.848 21.5595 33.9051 21.5749C33.9622 21.5904 34.0137 21.6221 34.0532 21.6662C34.0927 21.7102 34.1186 21.7648 34.1278 21.8232C34.137 21.8817 34.1291 21.9416 34.105 21.9957C34.0809 22.0497 34.0417 22.0957 33.9921 22.1279C33.9424 22.1602 33.8845 22.1774 33.8253 22.1775C33.7821 22.1778 33.7394 22.1689 33.6999 22.1514C33.6604 22.1339 33.625 22.1083 33.5962 22.0761C33.5673 22.0439 33.5456 22.006 33.5325 21.9649C33.5195 21.9237 33.5152 21.8802 33.5202 21.8373ZM33.9582 21.8373C33.9582 21.7059 33.9071 21.6431 33.8297 21.6431C33.7523 21.6431 33.7012 21.7074 33.7012 21.8373C33.7012 21.9672 33.7553 22.0329 33.8297 22.0329C33.9042 22.0329 33.9538 21.9702 33.9538 21.8373H33.9582ZM34.5641 21.5117H34.7743L33.9319 22.744H33.7261L34.5641 21.5117ZM34.3612 22.4184C34.3674 22.3591 34.3907 22.3029 34.4282 22.2566C34.4657 22.2103 34.5159 22.1758 34.5726 22.1574C34.6293 22.1391 34.6901 22.1375 34.7477 22.153C34.8052 22.1686 34.8571 22.2004 34.8969 22.2448C34.9367 22.2892 34.9627 22.3441 34.9719 22.403C34.9811 22.4619 34.973 22.5222 34.9486 22.5766C34.9242 22.631 34.8845 22.6772 34.8344 22.7094C34.7843 22.7417 34.7259 22.7588 34.6663 22.7586C34.6228 22.7592 34.5797 22.7506 34.5397 22.7334C34.4998 22.7161 34.464 22.6905 34.4348 22.6583C34.4055 22.6262 34.3834 22.5881 34.3699 22.5467C34.3565 22.5054 34.352 22.4616 34.3568 22.4184H34.3612ZM34.7992 22.4184C34.7992 22.2884 34.7481 22.2227 34.6707 22.2227C34.5933 22.2227 34.5422 22.287 34.5422 22.4184C34.5422 22.5498 34.5948 22.614 34.6707 22.614C34.7466 22.614 34.7904 22.5483 34.7904 22.4184H34.7992Z" fill="#455A64"/>
<path d="M33.4428 18.8502C33.3952 18.8502 33.3495 18.8313 33.3158 18.7976C33.2821 18.7639 33.2632 18.7182 33.2632 18.6706V17.0237H31.9361V18.6706C31.9361 18.7182 31.9172 18.7639 31.8835 18.7976C31.8498 18.8313 31.8041 18.8502 31.7565 18.8502C31.7089 18.8502 31.6632 18.8313 31.6295 18.7976C31.5958 18.7639 31.5769 18.7182 31.5769 18.6706V16.9785C31.5765 16.9376 31.5842 16.8971 31.5995 16.8592C31.6147 16.8213 31.6373 16.7868 31.6659 16.7577C31.6945 16.7285 31.7286 16.7053 31.7662 16.6893C31.8038 16.6734 31.8441 16.6649 31.885 16.6646H33.3143C33.3967 16.6657 33.4752 16.6993 33.5329 16.7581C33.5906 16.8169 33.6228 16.8961 33.6224 16.9785V18.6706C33.6224 18.6942 33.6177 18.7175 33.6087 18.7393C33.5997 18.7611 33.5865 18.7809 33.5698 18.7976C33.5531 18.8142 33.5333 18.8275 33.5115 18.8365C33.4897 18.8455 33.4664 18.8502 33.4428 18.8502Z" fill="#455A64"/>
<path d="M33.1449 16.6848H32.0558V18.6704H33.1449V16.6848Z" fill="#455A64"/>
<path d="M32.2748 20.6401C32.2218 20.6442 32.1693 20.6271 32.1289 20.5927C32.0884 20.5582 32.0632 20.5091 32.0587 20.4562V18.437C32.0661 18.3852 32.092 18.3377 32.1315 18.3034C32.1711 18.2691 32.2217 18.2502 32.2741 18.2502C32.3264 18.2502 32.377 18.2691 32.4166 18.3034C32.4561 18.3377 32.482 18.3852 32.4894 18.437V20.4562C32.4849 20.5089 32.4599 20.5577 32.4198 20.5921C32.3796 20.6265 32.3276 20.6438 32.2748 20.6401Z" fill="#455A64"/>
<path d="M32.9259 20.6401C32.8732 20.6438 32.8211 20.6265 32.7809 20.5921C32.7408 20.5577 32.7158 20.5089 32.7113 20.4562V18.437C32.7187 18.3852 32.7446 18.3377 32.7841 18.3034C32.8237 18.2691 32.8743 18.2502 32.9267 18.2502C32.979 18.2502 33.0296 18.2691 33.0692 18.3034C33.1087 18.3377 33.1346 18.3852 33.142 18.437V20.4562C33.1375 20.5091 33.1123 20.5582 33.0718 20.5927C33.0314 20.6271 32.9789 20.6442 32.9259 20.6401Z" fill="#455A64"/>
<path d="M33.1259 16.0251C33.1259 16.1291 33.0951 16.2307 33.0373 16.3171C32.9796 16.4036 32.8975 16.4709 32.8014 16.5107C32.7054 16.5505 32.5997 16.5609 32.4978 16.5406C32.3958 16.5203 32.3022 16.4703 32.2287 16.3968C32.1551 16.3233 32.1051 16.2296 32.0848 16.1277C32.0645 16.0257 32.0749 15.92 32.1147 15.824C32.1545 15.7279 32.2219 15.6458 32.3083 15.5881C32.3947 15.5303 32.4964 15.4995 32.6003 15.4995C32.7397 15.4995 32.8734 15.5549 32.972 15.6535C33.0705 15.752 33.1259 15.8857 33.1259 16.0251Z" fill="#455A64"/>
<path d="M67.4725 32.5492C67.4725 32.7464 67.414 32.9392 67.3045 33.1032C67.1949 33.2672 67.0391 33.395 66.8569 33.4705C66.6747 33.5459 66.4742 33.5657 66.2808 33.5272C66.0874 33.4887 65.9097 33.3938 65.7702 33.2543C65.6308 33.1148 65.5358 32.9372 65.4973 32.7437C65.4588 32.5503 65.4786 32.3498 65.5541 32.1676C65.6295 31.9854 65.7573 31.8296 65.9213 31.7201C66.0853 31.6105 66.2781 31.552 66.4753 31.552C66.7398 31.552 66.9934 31.6571 67.1804 31.8441C67.3674 32.0311 67.4725 32.2847 67.4725 32.5492Z" fill="#407BFF"/>
<path d="M66.4753 34.3976C66.1169 34.3976 65.7665 34.2913 65.4685 34.0922C65.1706 33.893 64.9383 33.61 64.8012 33.2788C64.6641 32.9477 64.6283 32.5833 64.6984 32.2318C64.7684 31.8803 64.9411 31.5574 65.1947 31.3041C65.4482 31.0508 65.7712 30.8783 66.1227 30.8086C66.4743 30.7388 66.8386 30.7749 67.1697 30.9123C67.5007 31.0496 67.7836 31.2821 67.9825 31.5802C68.1814 31.8784 68.2875 32.2288 68.2872 32.5872C68.2864 33.0674 68.0952 33.5277 67.7555 33.8671C67.4159 34.2064 66.9555 34.3973 66.4753 34.3976ZM66.4753 30.9214C66.1458 30.9214 65.8238 31.0191 65.5498 31.2021C65.2759 31.3852 65.0623 31.6454 64.9363 31.9497C64.8102 32.2541 64.7772 32.5891 64.8415 32.9122C64.9057 33.2354 65.0644 33.5322 65.2974 33.7652C65.5303 33.9982 65.8272 34.1568 66.1503 34.2211C66.4735 34.2854 66.8084 34.2524 67.1128 34.1263C67.4172 34.0002 67.6774 33.7867 67.8604 33.5127C68.0435 33.2388 68.1412 32.9167 68.1412 32.5872C68.1408 32.1456 67.9652 31.7221 67.6528 31.4097C67.3405 31.0974 66.917 30.9218 66.4753 30.9214Z" fill="#407BFF"/>
<path d="M43.7007 59.0789C43.7007 59.0789 43.6088 64.1641 43.6088 66.0504H59.6512V60.6863L59.1432 59.276L58.9607 58.1313L43.7007 59.0789Z" fill="#263238"/>
<path d="M47.9303 65.846C47.8754 65.3984 47.8456 64.948 47.8412 64.497C47.8122 64.0464 47.8078 63.5946 47.8281 63.1436C47.8829 63.5917 47.9126 64.0426 47.9171 64.4941C47.9462 64.9441 47.9506 65.3955 47.9303 65.846Z" fill="#455A64"/>
<path d="M48.4793 60.8587C48.4793 60.8587 48.5085 60.8368 48.5727 60.828C48.6643 60.8167 48.7572 60.8325 48.8399 60.8733C48.9042 60.9026 48.9601 60.9474 49.0027 61.0037C49.0453 61.0601 49.0731 61.1261 49.0837 61.1959C49.0958 61.2815 49.0823 61.3688 49.0449 61.4468C49.0075 61.5247 48.9479 61.5898 48.8735 61.6339C48.7938 61.6727 48.7036 61.6844 48.6167 61.6673C48.5297 61.6501 48.4508 61.6051 48.3917 61.539C48.339 61.4811 48.3098 61.4056 48.3099 61.3273C48.3098 61.2608 48.3296 61.1957 48.3669 61.1405C48.3913 61.1004 48.4238 61.0659 48.4622 61.039C48.5007 61.0121 48.5443 60.9935 48.5903 60.9842C48.656 60.9755 48.691 60.9915 48.6895 60.9945C48.6881 60.9974 48.653 60.9945 48.5976 61.0134C48.5186 61.0401 48.4525 61.0953 48.4121 61.1682C48.3813 61.2183 48.3677 61.2771 48.3735 61.3357C48.3793 61.3942 48.4041 61.4493 48.4443 61.4923C48.4935 61.5446 48.558 61.5799 48.6285 61.5933C48.6991 61.6067 48.7721 61.5974 48.837 61.5668C48.8936 61.5321 48.9401 61.4831 48.9716 61.4246C49.0031 61.3662 49.0185 61.3004 49.0162 61.2341C49.014 61.1677 48.9942 61.1032 48.9589 61.0469C48.9236 60.9907 48.8739 60.9449 48.8151 60.9142C48.7104 60.8652 48.5942 60.8461 48.4793 60.8587Z" fill="#455A64"/>
<path d="M57.3123 61.2032C57.2022 61.1562 57.0983 61.0959 57.0028 61.0236C56.8188 60.9024 56.5648 60.7243 56.3078 60.5141C56.0509 60.3038 55.8187 60.098 55.6611 59.9447C55.5697 59.8675 55.4883 59.7792 55.4187 59.6819C55.5186 59.7472 55.612 59.822 55.6976 59.9053C55.864 60.0513 56.0947 60.2454 56.3546 60.4542C56.6144 60.663 56.8583 60.847 57.0335 60.9798C57.1331 61.0455 57.2265 61.1203 57.3123 61.2032Z" fill="#455A64"/>
<path d="M58.9576 62.8734C58.9362 62.8897 58.9126 62.903 58.8876 62.9129L58.6773 63.0136L58.5313 63.0851C58.4758 63.11 58.4116 63.1319 58.3444 63.1567C58.2101 63.2049 58.0524 63.2691 57.8831 63.3144L57.6086 63.3917C57.5137 63.418 57.4115 63.4341 57.3078 63.4574C57.1005 63.5071 56.8699 63.5319 56.6363 63.564C55.5955 63.6721 54.5437 63.554 53.5527 63.218C53.3378 63.1452 53.1268 63.0613 52.9205 62.9669C52.8242 62.9231 52.7278 62.8837 52.6402 62.8384L52.3906 62.7026C52.2473 62.6251 52.1084 62.5398 51.9745 62.4471C51.9146 62.4077 51.8577 62.3727 51.8066 62.3376C51.7555 62.3026 51.7146 62.2661 51.6737 62.234L51.4912 62.088C51.4503 62.0544 51.4299 62.0369 51.4313 62.0339C51.4555 62.0459 51.4784 62.0601 51.5 62.0763L51.6912 62.2091L51.827 62.3055C51.8781 62.3391 51.9365 62.3727 51.9978 62.4106C52.1205 62.4836 52.2548 62.5756 52.4168 62.653L52.6665 62.7844C52.7541 62.8282 52.849 62.8647 52.9454 62.9085C53.1366 62.999 53.3513 63.0691 53.5746 63.1494C54.5556 63.4736 55.5936 63.5885 56.6216 63.4866C56.8582 63.4574 57.083 63.4355 57.2889 63.3888C57.3925 63.3669 57.4933 63.3523 57.5882 63.3275L57.8612 63.2545C58.0364 63.2136 58.1868 63.1538 58.3225 63.1085C58.3897 63.0851 58.454 63.0647 58.5109 63.0428L58.6656 62.9786L58.8803 62.891C58.9053 62.882 58.9312 62.8761 58.9576 62.8734Z" fill="#455A64"/>
<path d="M46.593 24.8842C46.3418 24.8975 46.0945 24.8176 45.8985 24.66C45.7025 24.5023 45.5715 24.2778 45.5307 24.0296C45.4898 23.7814 45.5419 23.5269 45.6771 23.3147C45.8122 23.1025 46.0208 22.9476 46.263 22.8796C46.115 22.7124 46.0236 22.5028 46.0016 22.2806C45.9797 22.0584 46.0284 21.8349 46.1408 21.642C46.2532 21.4491 46.4236 21.2965 46.6277 21.206C46.8318 21.1155 47.0593 21.0916 47.2777 21.1379C47.298 20.919 47.3747 20.709 47.5003 20.5286C47.6259 20.3482 47.7961 20.2034 47.9944 20.1084C48.1926 20.0134 48.4121 19.9714 48.6315 19.9865C48.8508 20.0016 49.0624 20.0734 49.2458 20.1947C49.5029 20.0059 49.8159 19.9086 50.1347 19.9184C50.4536 19.9282 50.76 20.0445 51.0051 20.2487C51.2196 20.2239 51.4364 20.2676 51.6245 20.3736C51.8126 20.4796 51.9623 20.6424 52.0521 20.8388C52.142 21.0351 52.1673 21.2549 52.1245 21.4665C52.0817 21.6781 51.973 21.8708 51.8139 22.0168" fill="#263238"/>
<path d="M46.4383 25.0185C46.5797 23.9382 47.123 22.9509 47.9599 22.2533C48.7969 21.5557 49.8659 21.1992 50.954 21.2546L51.1789 21.2663C53.5879 21.5262 54.7121 23.7191 54.3836 26.1194L53.6346 34.1494L53.5937 34.5392L47.964 35.3801L48.0735 33.3361C48.0735 33.3361 45.7623 32.85 45.844 30.5271C45.8908 29.4044 46.1652 27.1005 46.4383 25.0185Z" fill="#F2F2F2"/>
<path d="M48.0486 33.323C49.127 33.3776 50.1983 33.1211 51.1351 32.5842C51.1351 32.5842 50.3365 34.2194 48.0297 33.8982L48.0486 33.323Z" fill="#5E483F"/>
<path d="M46.8237 26.8437C46.8188 26.9298 46.8475 27.0146 46.9039 27.08C46.9603 27.1453 47.0399 27.1862 47.1259 27.1941C47.1679 27.1995 47.2107 27.1966 47.2516 27.1853C47.2925 27.1741 47.3307 27.1547 47.3641 27.1285C47.3974 27.1022 47.4251 27.0696 47.4456 27.0324C47.4662 26.9953 47.4791 26.9545 47.4836 26.9123C47.4885 26.8257 47.4595 26.7406 47.4029 26.6749C47.3462 26.6093 47.2663 26.5682 47.1799 26.5604C47.1379 26.5553 47.0952 26.5587 47.0545 26.5702C47.0138 26.5817 46.9757 26.6012 46.9426 26.6276C46.9094 26.6539 46.8819 26.6866 46.8614 26.7237C46.841 26.7608 46.8282 26.8016 46.8237 26.8437Z" fill="#263238"/>
<path d="M46.8806 26.1808C46.92 26.226 47.1726 26.0523 47.5376 26.0713C47.9026 26.0903 48.1464 26.2801 48.1873 26.2392C48.2078 26.2202 48.1698 26.1399 48.0588 26.0523C47.9103 25.9373 47.7297 25.8715 47.542 25.864C47.3557 25.8554 47.1716 25.9066 47.0164 26.01C46.9025 26.083 46.866 26.1603 46.8806 26.1808Z" fill="#263238"/>
<path d="M50.1933 27.1648C50.1877 27.2512 50.2162 27.3363 50.2727 27.4019C50.3293 27.4674 50.4093 27.5081 50.4955 27.5152C50.5376 27.5205 50.5803 27.5174 50.6211 27.5061C50.6619 27.4947 50.7001 27.4754 50.7333 27.4492C50.7666 27.4229 50.7944 27.3904 50.8149 27.3533C50.8355 27.3163 50.8486 27.2756 50.8533 27.2334C50.8585 27.1469 50.8297 27.0618 50.7729 26.9963C50.7161 26.9308 50.636 26.8901 50.5496 26.883C50.5076 26.8776 50.4649 26.8805 50.4241 26.8918C50.3833 26.9031 50.3452 26.9224 50.3119 26.9487C50.2787 26.975 50.2511 27.0076 50.2308 27.0448C50.2104 27.0819 50.1977 27.1227 50.1933 27.1648Z" fill="#263238"/>
<path d="M50.3846 26.426C50.424 26.4713 50.6853 26.299 51.0416 26.318C51.3978 26.337 51.6504 26.5268 51.6913 26.4859C51.7117 26.4669 51.6738 26.3866 51.5643 26.299C51.4152 26.184 51.2341 26.1182 51.046 26.1107C50.8598 26.1028 50.6758 26.1538 50.5204 26.2567C50.4079 26.3238 50.37 26.4012 50.3846 26.426Z" fill="#263238"/>
<path d="M48.9582 29.0029C48.9582 28.9825 48.7407 28.9328 48.3844 28.87C48.2939 28.8554 48.2078 28.8335 48.1961 28.7708C48.1926 28.6761 48.2186 28.5828 48.2705 28.5036C48.3669 28.2875 48.4676 28.0656 48.5742 27.8232C48.9976 26.8538 49.3042 26.0552 49.2692 26.0376C49.2341 26.0201 48.856 26.7939 48.4326 27.7619L48.1406 28.4481C48.0777 28.555 48.0549 28.6807 48.0764 28.8029C48.0869 28.8373 48.1058 28.8686 48.1312 28.894C48.1567 28.9195 48.188 28.9383 48.2224 28.9489C48.2718 28.966 48.3234 28.9758 48.3757 28.9781C48.7319 29.0102 48.9567 29.0233 48.9582 29.0029Z" fill="#263238"/>
<path d="M49.9962 29.3023C49.9393 29.3023 49.9188 29.6833 49.5728 29.9417C49.2268 30.2002 48.818 30.1374 48.8121 30.1914C48.8121 30.2148 48.9012 30.2702 49.0749 30.2834C49.3014 30.2982 49.5258 30.2326 49.7086 30.098C49.884 29.9683 50.0022 29.7757 50.0385 29.5607C50.0619 29.3986 50.0225 29.3008 49.9962 29.3023Z" fill="#263238"/>
<path d="M50.37 25.0185C50.4007 25.1163 50.7584 25.0886 51.1745 25.1645C51.5906 25.2404 51.9235 25.366 51.9833 25.2813C52.0111 25.2419 51.957 25.147 51.8242 25.0462C51.6479 24.9218 51.4455 24.8394 51.2324 24.8052C51.0193 24.771 50.8012 24.7861 50.5949 24.8491C50.4314 24.8988 50.3496 24.9659 50.37 25.0185Z" fill="#263238"/>
<path d="M47.0631 25.1544C47.1215 25.2376 47.3726 25.1661 47.6675 25.1763C47.9624 25.1866 48.2107 25.2581 48.2734 25.1763C48.2997 25.1369 48.2647 25.0537 48.1595 24.9719C48.0172 24.8724 47.8485 24.8175 47.6748 24.8141C47.5011 24.8108 47.3304 24.8591 47.1843 24.953C47.0762 25.0318 47.0383 25.1121 47.0631 25.1544Z" fill="#263238"/>
<path d="M46.72 23.966C46.72 23.966 47.4048 22.541 48.1231 22.2373C48.9918 21.868 49.3115 22.8213 50.132 22.633C50.9526 22.4447 51.7818 22.0928 52.5775 22.7586C53.4535 23.4886 53.0009 23.947 53.0053 24.9807C53.0243 29.1694 53.728 30.3827 54.0434 28.4321C54.0784 28.2175 54.6843 28.0759 54.8186 27.1692C54.9924 25.9939 55.1106 24.5617 54.8873 23.7105C54.7004 22.9936 54.3208 22.4855 53.6258 21.9118C52.5279 21.0051 50.9628 20.9087 49.8941 20.9642C48.8253 21.0197 46.7083 22.1395 46.72 23.966Z" fill="#263238"/>
<path d="M53.8929 28.3604C53.8999 28.2753 53.9241 28.1924 53.9641 28.1169C54.004 28.0414 54.0589 27.9748 54.1254 27.9211C54.1919 27.8675 54.2686 27.8279 54.3509 27.8048C54.4331 27.7817 54.5192 27.7755 54.6039 27.7867C55.0346 27.8494 55.5048 28.1195 55.4318 29.0131C55.3018 30.5986 53.7367 30.1416 53.7382 30.0964C53.7396 30.0511 53.8331 29.0233 53.8929 28.3604Z" fill="#F2F2F2"/>
<path d="M54.1309 29.5269C54.1382 29.5269 54.1572 29.5488 54.2024 29.5736C54.2657 29.6071 54.3394 29.6149 54.4083 29.5956C54.5806 29.5474 54.7441 29.2933 54.7748 29.0116C54.7903 28.876 54.7748 28.7387 54.7295 28.6101C54.7189 28.5593 54.6961 28.5118 54.663 28.4719C54.63 28.4319 54.5876 28.4007 54.5397 28.3808C54.5085 28.3708 54.4749 28.3715 54.4441 28.3829C54.4134 28.3943 54.3874 28.4157 54.3703 28.4436C54.3455 28.486 54.3528 28.5181 54.3441 28.5195C54.3353 28.521 54.3119 28.4903 54.3309 28.4261C54.3426 28.3877 54.3674 28.3546 54.401 28.3326C54.4473 28.3031 54.5035 28.2931 54.5572 28.3049C54.6213 28.3229 54.6796 28.3571 54.7266 28.4041C54.7737 28.4512 54.8078 28.5095 54.8259 28.5736C54.8823 28.7163 54.9024 28.8708 54.8843 29.0232C54.8492 29.3415 54.6609 29.6277 54.4258 29.6744C54.3824 29.6835 54.3375 29.6825 54.2945 29.6717C54.2515 29.6608 54.2115 29.6402 54.1776 29.6116C54.1309 29.5664 54.1251 29.5299 54.1309 29.5269Z" fill="#5E483F"/>
<path d="M54.02 25.2842C53.8173 25.432 53.5809 25.5268 53.3323 25.5601C53.0827 25.5733 52.8053 25.4141 52.7761 25.1674C52.7629 25.0564 52.7965 24.9294 52.7279 24.8404C52.6593 24.7513 52.4841 24.7586 52.3512 24.7659C52.1174 24.7726 51.8883 24.6988 51.7023 24.5569C51.5163 24.415 51.3846 24.2136 51.3292 23.9863C51.2022 24.1571 50.9292 24.1323 50.7554 24.0125C50.5971 23.8709 50.4595 23.7078 50.3466 23.5278C50.2152 23.3614 50.0269 23.2095 49.8152 23.2285C49.7016 23.2619 49.5845 23.282 49.4662 23.2884C49.2589 23.2592 49.1742 23.0095 49.148 22.8007C49.1217 22.592 49.1144 22.3496 48.9436 22.2284C48.7727 22.1072 48.5698 22.1656 48.3756 22.1846C48.1814 22.2036 47.9376 22.1467 47.8982 21.9554C47.8922 21.9049 47.8967 21.8537 47.9112 21.805C47.9258 21.7563 47.9502 21.7111 47.9829 21.6722C48.1215 21.4865 48.3187 21.353 48.5425 21.2931C48.7663 21.2332 49.0038 21.2505 49.2166 21.3422C49.3075 21.0818 49.4735 20.8541 49.6938 20.6881C49.9141 20.5221 50.1787 20.4251 50.4541 20.4095C50.7295 20.3938 51.0033 20.4602 51.2409 20.6003C51.4786 20.7403 51.6694 20.9477 51.7891 21.1962C51.9657 21.053 52.1741 20.9544 52.3968 20.9086C52.6195 20.8628 52.8499 20.8713 53.0686 20.9333C53.2873 20.9953 53.488 21.109 53.6535 21.2647C53.8191 21.4205 53.9448 21.6138 54.02 21.8284C54.2173 21.7848 54.4232 21.8008 54.6115 21.8742C54.7998 21.9476 54.9621 22.0752 55.0778 22.2408C55.1936 22.4065 55.2577 22.6027 55.262 22.8048C55.2663 23.0068 55.2105 23.2056 55.1018 23.376C55.3792 23.5541 55.6099 23.849 55.5997 24.179C55.5895 24.5089 55.2522 24.8185 54.9398 24.7163C54.9954 24.8486 54.999 24.997 54.9499 25.1319C54.9007 25.2667 54.8025 25.378 54.6748 25.4436C54.5471 25.5091 54.3994 25.5239 54.2612 25.4852C54.123 25.4464 54.0045 25.3569 53.9295 25.2346" fill="#263238"/>
<path d="M49.075 21.8037C49.0735 21.8134 49.0735 21.8232 49.075 21.8329C49.075 21.8519 49.075 21.8811 49.075 21.9191C49.0914 22.0275 49.1255 22.1325 49.1758 22.23C49.2551 22.3848 49.369 22.5191 49.5086 22.6228C49.6929 22.7632 49.9179 22.8396 50.1496 22.8403L50.1248 22.8038C50.0712 22.9456 50.0749 23.1027 50.135 23.2418C50.199 23.3877 50.2841 23.5235 50.3876 23.6448C50.4364 23.7144 50.4927 23.7785 50.5555 23.836C50.6295 23.8922 50.7163 23.9293 50.808 23.9441C50.901 23.9619 50.9968 23.9568 51.0874 23.9293C51.1779 23.9019 51.2604 23.8528 51.3278 23.7864L51.2694 23.766C51.2831 23.932 51.3315 24.0932 51.4115 24.2394C51.4915 24.3855 51.6012 24.5132 51.7337 24.6142C51.8794 24.7334 52.0596 24.8025 52.2476 24.8113C52.4241 24.8117 52.5993 24.7821 52.7659 24.7237L52.725 24.7033C52.7983 24.8997 52.9192 25.0748 53.0769 25.2128C53.1487 25.2811 53.2349 25.3325 53.3291 25.3633C53.4233 25.3941 53.5232 25.4036 53.6215 25.3909C53.7901 25.3633 53.9471 25.287 54.0729 25.1712C54.1987 25.0555 54.2879 24.9056 54.3296 24.7398L54.2931 24.7544C54.4552 24.8519 54.6463 24.8896 54.8333 24.861C54.973 24.8443 55.1068 24.7942 55.2231 24.715C55.296 24.6648 55.3593 24.602 55.41 24.5295C55.4281 24.5049 55.4429 24.4779 55.4538 24.4492C55.3879 24.5451 55.3047 24.6278 55.2085 24.6931C55.0941 24.7667 54.9641 24.8127 54.8289 24.8274C54.651 24.8501 54.4708 24.8115 54.3179 24.7179L54.2901 24.6989L54.2814 24.7325C54.2403 24.887 54.1553 25.0262 54.0366 25.1332C53.9179 25.2403 53.7706 25.3105 53.6127 25.3355C53.5229 25.3461 53.4319 25.3365 53.3462 25.3075C53.2606 25.2784 53.1826 25.2306 53.1178 25.1676C52.9696 25.0367 52.8563 24.8712 52.7878 24.6858L52.7776 24.6551L52.7469 24.6639C52.5873 24.7192 52.4195 24.7473 52.2505 24.7471C52.0767 24.7397 51.91 24.6756 51.776 24.5646C51.6514 24.469 51.548 24.3485 51.4726 24.2108C51.3972 24.073 51.3513 23.921 51.338 23.7645L51.3307 23.6886L51.2782 23.7441C51.1888 23.8301 51.072 23.8821 50.9482 23.8909C50.8244 23.8997 50.7014 23.8648 50.6007 23.7922C50.5417 23.7379 50.4884 23.6777 50.4416 23.6127C50.3412 23.4962 50.2581 23.3659 50.1948 23.2258C50.1659 23.1637 50.1497 23.0964 50.1472 23.0279C50.1447 22.9595 50.1559 22.8912 50.1802 22.8272L50.1948 22.7907H50.154C49.933 22.7927 49.7173 22.723 49.5393 22.5921C49.4025 22.4942 49.2893 22.367 49.2079 22.2198C49.1393 22.0901 49.0943 21.9492 49.075 21.8037Z" fill="#455A64"/>
<path d="M56.8057 45.7081L58.9139 47.7419L58.2321 43.8568L62.5099 42.5049C62.5099 42.5049 63.6458 47.8353 63.8444 49.0968C64.1977 51.3598 63.7626 54.5762 61.6544 54.8025C59.3738 55.0463 57.651 52.7964 56.5546 51.3204C55.7122 50.1859 54.3529 48.2018 54.3529 48.2018L56.8057 45.711" fill="#E0E0E0"/>
<path d="M40.5092 42.2539C39.823 44.4147 38.8637 44.7359 38.4841 50.9336C38.4097 52.141 39.3163 53.6886 40.3953 54.2347C41.4742 54.7807 43.3562 54.1106 43.9664 53.0667L44.5723 48.4866L40.5092 42.2539Z" fill="#E0E0E0"/>
<path d="M43.3444 51.297C43.2207 50.9865 43.0803 50.6829 42.924 50.3874C42.744 50.1047 42.5491 49.8317 42.34 49.5698C42.4234 49.6246 42.4978 49.6921 42.5604 49.7698C42.8864 50.1253 43.1315 50.5472 43.2787 51.0065C43.316 51.0992 43.3381 51.1973 43.3444 51.297Z" fill="#263238"/>
<path d="M39.4755 44.7446C39.512 44.6176 41.6231 38.871 42.2962 37.6125C43.1021 36.1072 44.7957 35.4429 45.8469 35.3772C46.8981 35.3115 58.1518 36.208 58.1518 36.208C58.1518 36.208 61.3039 36.9993 61.9405 39.858C62.7406 43.4335 63.3844 46.9609 63.3844 46.9609L57.7444 48.18L57.086 46.5024L46.4878 48.8676L43.9007 45.0395L39.4755 44.7446Z" fill="#E0E0E0"/>
<path d="M58.9606 58.1242L58.6919 48.5451L58.9007 36.5366L54.5003 34.6021L54.0068 32.7041L48.8764 35.1292L47.8018 33.9422L47.3521 35.2795L46.2279 35.6475L44.016 40.0041L43.9197 47.6545C43.9197 47.6545 43.3838 56.6715 43.7007 59.0732C43.7007 59.0732 44.5299 60.4485 47.0791 60.5098C52.2475 60.6339 58.9606 58.1183 58.9606 58.1183" fill="#E0E0E0"/>
<path d="M54.4959 45.0176C54.4959 45.038 54.236 45.0176 53.8214 44.9884L52.2052 44.8526L50.5875 44.7329C50.1729 44.7008 49.9174 44.676 49.9174 44.6555C50.1405 44.6218 50.3668 44.613 50.5919 44.6292C51.008 44.6292 51.5832 44.657 52.2169 44.7081C52.8505 44.7592 53.4214 44.8249 53.8331 44.8847C54.2448 44.9446 54.4974 44.9972 54.4959 45.0176Z" fill="white"/>
<path d="M54.4244 45.8045C54.4244 45.8249 54.1645 45.8045 53.7499 45.7753L52.1336 45.6409L50.516 45.5198C50.1013 45.4876 49.8458 45.4643 49.8458 45.4424C50.069 45.4087 50.2952 45.3999 50.5203 45.4161C50.9364 45.4161 51.5117 45.4453 52.1453 45.4949C52.779 45.5446 53.3498 45.6118 53.7615 45.6716C53.9867 45.6911 54.2091 45.7357 54.4244 45.8045Z" fill="white"/>
<path d="M54.3528 46.5914C54.3528 46.6119 54.093 46.5914 53.6783 46.5622L52.0621 46.4279L50.4444 46.3067C50.0298 46.2761 49.7743 46.2512 49.7743 46.2308C49.7743 46.2104 50.0327 46.1987 50.4488 46.2031C50.8649 46.2074 51.4402 46.2323 52.0738 46.2819C52.7074 46.3315 53.2783 46.3987 53.69 46.46C53.9152 46.4785 54.1376 46.5226 54.3528 46.5914Z" fill="white"/>
<path d="M54.2813 47.3784C54.2813 47.3988 54.0214 47.3784 53.6068 47.3492L51.9906 47.2149L50.37 47.0937C49.9553 47.063 49.6998 47.0382 49.6998 47.0178C49.6998 46.9973 49.9582 46.9857 50.3743 46.9915C50.7904 46.9973 51.3657 47.0192 51.9993 47.0689C52.633 47.1185 53.2038 47.1857 53.6156 47.247C53.8418 47.2652 54.0651 47.3093 54.2813 47.3784Z" fill="white"/>
<path d="M47.0747 60.7609C47.069 60.741 47.066 60.7203 47.0659 60.6996C47.0659 60.6499 47.0572 60.5901 47.0513 60.5171C47.0426 60.3433 47.0294 60.1097 47.0119 59.8133C46.9842 59.1899 46.9462 58.3095 46.898 57.2277C46.8163 55.0377 46.7126 52.0228 46.752 48.6838C46.7725 47.0135 46.828 45.4207 46.9886 43.9782C47.1492 42.5357 47.4017 41.2582 47.6251 40.1822C47.8485 39.1062 48.0631 38.2535 48.2091 37.6593C48.2807 37.3673 48.3391 37.1454 48.3799 36.9775C48.4004 36.9059 48.415 36.849 48.4281 36.8008C48.4322 36.7798 48.4396 36.7596 48.45 36.741C48.4517 36.7619 48.4517 36.7829 48.45 36.8037C48.4398 36.8534 48.4281 36.9118 48.415 36.9833C48.3785 37.1527 48.3288 37.3819 48.269 37.6724C48.1405 38.2696 47.9478 39.1324 47.7332 40.2026C47.5185 41.2728 47.2849 42.5547 47.1273 43.9884C46.9696 45.4221 46.9229 47.0135 46.9024 48.6794C46.8674 52.014 46.9564 55.0333 47.0134 57.2189C47.0426 58.3022 47.0674 59.1826 47.0835 59.806C47.0908 60.098 47.0951 60.3375 47.0981 60.5112V60.6937C47.0949 60.7175 47.087 60.7403 47.0747 60.7609Z" fill="#263238"/>
<path d="M50.3816 41.9749C50.4791 41.9713 50.5766 41.9742 50.6736 41.9837L51.5409 42.0362L54.7047 42.2523H54.7646V42.3122C54.6551 43.7619 54.5251 45.4964 54.3835 47.3711V47.4046L54.3572 47.4236C54.2112 47.5317 54.0492 47.6397 53.8842 47.7463C53.5974 47.9341 53.3006 48.1062 52.995 48.2617C52.6968 48.4274 52.3689 48.533 52.03 48.5726C51.6974 48.5824 51.368 48.506 51.0737 48.3507C50.7974 48.2076 50.5379 48.0343 50.2999 47.8339C50.1845 47.7375 50.0721 47.6397 49.9655 47.5419C49.9058 47.4914 49.8562 47.4299 49.8195 47.3608C49.7827 47.2935 49.7543 47.2219 49.7349 47.1477C49.6738 46.8742 49.6478 46.5941 49.6575 46.314C49.6717 45.8193 49.7161 45.3259 49.7903 44.8365C49.9217 43.9401 50.0823 43.2305 50.1889 42.7326C50.2444 42.4859 50.2926 42.2946 50.3262 42.1676C50.3403 42.1011 50.3609 42.0361 50.3875 41.9734C50.3823 42.0409 50.3715 42.1078 50.3554 42.1735C50.3276 42.3195 50.2897 42.5078 50.2444 42.7443C50.1495 43.2393 50.0108 43.9576 49.894 44.8511C49.8264 45.335 49.7879 45.8226 49.7787 46.3111C49.7714 46.5796 49.7984 46.848 49.859 47.1097C49.888 47.2389 49.9582 47.3552 50.059 47.4411C50.1641 47.539 50.2751 47.6339 50.3904 47.7331C50.6208 47.9259 50.872 48.0924 51.1394 48.2295C51.4121 48.3733 51.7175 48.4437 52.0256 48.4339C52.3442 48.3958 52.6526 48.2967 52.9337 48.1419C53.235 47.9892 53.5275 47.8196 53.8097 47.6339C53.9718 47.5287 54.1324 47.4207 54.2769 47.3156L54.2463 47.3696C54.3923 45.4964 54.5383 43.7619 54.6536 42.3136L54.7091 42.3779L51.5847 42.1034L50.7087 42.0202L50.4751 41.9939C50.4432 41.9916 50.4118 41.9852 50.3816 41.9749Z" fill="#263238"/>
<path d="M54.0068 32.7041C54.0068 32.7041 53.433 32.8705 51.9628 33.656C50.5203 34.4254 48.8793 35.1292 48.8793 35.1292L49.0048 37.4462L54.4579 34.7058" fill="#E0E0E0"/>
<path d="M47.8018 33.9421L48.8764 35.1291L48.3026 37.6126L47.3448 35.3686" fill="#E0E0E0"/>
<path d="M54.6726 43.6234C54.6726 43.6643 53.6433 43.6161 52.3804 43.5183C51.1175 43.4205 50.0955 43.3066 50.0984 43.2672C50.1013 43.2278 51.1277 43.2672 52.3906 43.3723C53.6535 43.4774 54.6755 43.584 54.6726 43.6234Z" fill="#263238"/>
<g opacity="0.3">
<path d="M49.8794 47.3491C50.1261 47.7565 50.3568 48.3142 50.6941 48.65C51.0222 49.0012 51.4659 49.2225 51.9438 49.2734C52.366 49.2809 52.7802 49.1575 53.1294 48.9201C53.7031 48.5609 54.0565 47.9959 54.312 47.3696C54.3485 47.3228 53.4914 47.8952 53.0257 48.1434C52.6306 48.3791 52.1688 48.4782 51.7117 48.4251C51.0226 48.3697 50.405 47.8017 49.8823 47.3491" fill="black"/>
</g>
<g opacity="0.3">
<path d="M48.8574 35.386C48.8092 35.421 48.5114 38.252 48.5114 38.252L53.9834 34.9451L49.0019 37.446L48.8574 35.386Z" fill="black"/>
</g>
<path d="M47.9215 38.147C47.0131 42.0779 46.4011 46.0715 46.0907 50.0942C45.8805 52.8857 45.7228 56.5853 45.7228 56.5853L46.9682 58.1271L48.8764 56.4379C48.8764 56.4379 48.7946 48.5801 48.8939 45.9492C48.9757 43.784 48.634 38.2609 48.634 38.2609L47.9215 38.147Z" fill="#407BFF"/>
<path d="M57.5956 41.6406C57.6186 41.7136 57.6357 41.7883 57.6467 41.864C57.6744 42.0231 57.7124 42.2305 57.7576 42.4787C57.8496 43.0116 57.9708 43.7226 58.1066 44.5081C58.2424 45.2935 58.3621 46.0206 58.4395 46.5418C58.4789 46.8017 58.5081 47.0134 58.5271 47.1594C58.5405 47.2351 58.5478 47.3118 58.549 47.3886C58.525 47.3154 58.5079 47.2402 58.4979 47.1638C58.4687 47.0061 58.4322 46.7988 58.3869 46.5506C58.2935 46.0177 58.1694 45.3067 58.0307 44.5212C57.892 43.7357 57.7825 43.0086 57.7051 42.4874C57.6686 42.2363 57.6394 42.029 57.6175 41.8698C57.6032 41.7943 57.5959 41.7175 57.5956 41.6406Z" fill="#263238"/>
<path d="M59.2219 36.8723C59.2307 36.8825 59.0759 37.0052 58.8526 37.2329C58.271 37.8303 57.8667 38.5773 57.6846 39.3908C57.6174 39.7018 57.6013 39.8989 57.5882 39.8989C57.5805 39.8505 57.5805 39.8013 57.5882 39.7529C57.5948 39.626 57.6099 39.4997 57.6335 39.3748C57.7099 38.9604 57.8502 38.5605 58.0496 38.1892C58.2484 37.818 58.5046 37.4804 58.8087 37.1891C58.9003 37.1003 58.9979 37.0178 59.1007 36.9424C59.1375 36.9133 59.1784 36.8897 59.2219 36.8723Z" fill="#263238"/>
<path d="M48.8939 36.2372L48.4048 36.0459L47.942 36.8416L47.8588 38.1468L48.5114 38.252L49.0019 37.446L48.8939 36.2372Z" fill="#407BFF"/>
<path d="M43.6088 40.1208C43.6292 40.1208 43.6467 43.3329 43.6467 47.3041C43.6467 51.2753 43.6292 54.4887 43.6088 54.4887C43.5883 54.4887 43.5708 51.2767 43.5708 47.3041C43.5708 43.3314 43.5869 40.1208 43.6088 40.1208Z" fill="#263238"/>
<path d="M48.929 35.1086C48.9378 35.1159 48.8224 35.2911 48.6501 35.5817C48.4232 35.9602 48.2156 36.3501 48.0282 36.7497L47.9771 36.8606L47.942 36.9351L47.907 36.8621C47.7286 36.4872 47.5764 36.1003 47.4515 35.7043C47.4033 35.5583 47.3697 35.4313 47.3493 35.3466C47.3334 35.3036 47.325 35.2582 47.3245 35.2123C47.3347 35.2123 47.3931 35.3933 47.4997 35.6883C47.6062 35.9832 47.7654 36.3891 47.9756 36.8285H47.907L47.9596 36.7161C48.1474 36.3126 48.3626 35.9224 48.6034 35.5481C48.6969 35.4021 48.7757 35.2941 48.8326 35.2181C48.8596 35.1774 48.892 35.1406 48.929 35.1086Z" fill="#263238"/>
<path d="M54.5003 34.6021C54.4767 34.6198 54.4512 34.635 54.4244 34.6473L54.2039 34.7627L53.3878 35.1861C52.7001 35.5438 51.7569 36.0533 50.713 36.611C50.0765 36.9497 49.475 37.2636 48.9508 37.5264L48.9026 37.5513V37.4972C48.9026 36.8169 48.891 36.2446 48.8866 35.8299C48.8866 35.6357 48.8866 35.4795 48.8866 35.3613C48.8841 35.3052 48.8865 35.249 48.8939 35.1934C48.9028 35.2484 48.9072 35.304 48.907 35.3598C48.907 35.4781 48.9172 35.6357 48.9245 35.8299C48.9362 36.2446 48.9508 36.8169 48.9683 37.4958L48.9202 37.4666C49.4414 37.1994 50.0414 36.8826 50.6722 36.5439C51.7161 35.9861 52.6636 35.4839 53.3586 35.1379C53.706 34.9641 53.9893 34.8284 54.1864 34.7364L54.4141 34.6342C54.4417 34.6205 54.4705 34.6098 54.5003 34.6021Z" fill="#263238"/>
<path d="M44.2687 36.3847C44.2789 36.3847 44.1942 36.5307 44.0832 36.7847C43.9398 37.1072 43.8344 37.4453 43.7693 37.7921C43.7077 38.1394 43.6856 38.4926 43.7036 38.8448C43.7197 39.1149 43.7474 39.2828 43.7358 39.2828C43.7178 39.2465 43.706 39.2076 43.7007 39.1675C43.6779 39.0615 43.6613 38.9542 43.6511 38.8463C43.6148 38.4893 43.6295 38.1289 43.6949 37.7761C43.7595 37.4211 43.8741 37.077 44.0351 36.7541C44.0821 36.6566 44.1358 36.5625 44.1957 36.4723C44.238 36.4154 44.2643 36.3818 44.2687 36.3847Z" fill="#263238"/>
<path d="M48.3916 38.3353C48.3799 38.3543 48.2558 38.2959 48.1142 38.2053C47.9726 38.1148 47.866 38.0287 47.8777 38.0112C47.8894 37.9936 48.0135 38.052 48.1551 38.1411C48.2967 38.2302 48.4033 38.3178 48.3916 38.3353Z" fill="#263238"/>
<path d="M48.6267 38.017C48.493 37.8087 48.3814 37.5871 48.2938 37.3556C48.1833 37.135 48.0957 36.9036 48.0325 36.665C48.1653 36.8735 48.2764 37.0952 48.3639 37.3264C48.4745 37.5472 48.5625 37.7786 48.6267 38.017Z" fill="#263238"/>
<path d="M62.3216 51.1877C62.3129 51.1777 62.306 51.1664 62.3011 51.1541C62.288 51.1293 62.2719 51.0957 62.25 51.0548C62.2281 51.014 62.2004 50.9556 62.1683 50.8928C62.1362 50.83 62.0821 50.7614 62.0296 50.684C61.7083 50.2493 61.3411 49.8503 60.9346 49.4941C60.4236 49.0254 59.7768 48.4969 59.0483 47.8881C58.6862 47.583 58.3007 47.2647 57.9153 46.9084C57.506 46.5439 57.1253 46.1485 56.7765 45.7258H56.832L54.6347 48.0341C54.5339 48.1392 54.4332 48.2429 54.3427 48.3407V48.2925C55.1734 49.5072 55.9297 50.6825 56.7239 51.668C57.097 52.1355 57.4962 52.5815 57.9197 53.0039C58.2808 53.3795 58.6714 53.7257 59.0877 54.0391C59.8469 54.6129 60.609 54.8581 61.139 54.845C61.2061 54.845 61.2689 54.845 61.3273 54.845L61.4894 54.8275L61.6354 54.8129L61.7493 54.7866L61.904 54.753L61.9566 54.7443C61.9401 54.7513 61.923 54.7567 61.9055 54.7603L61.7522 54.8012L61.6383 54.8304L61.4923 54.8494L61.3288 54.8698C61.2689 54.8698 61.2061 54.8698 61.139 54.8698C60.6032 54.8932 59.825 54.6494 59.0556 54.077C58.6395 53.7639 58.2489 53.4183 57.8876 53.0434C57.4612 52.6211 57.0591 52.1751 56.6831 51.7075C55.883 50.7205 55.1238 49.5437 54.293 48.3305L54.2755 48.3056L54.2974 48.2838L54.5894 47.9771L56.7794 45.6835L56.8086 45.6528L56.8349 45.6864C57.1804 46.1074 57.5572 46.5017 57.962 46.8661C58.346 47.2209 58.73 47.5421 59.0906 47.8472C59.8206 48.4531 60.4601 48.9875 60.9667 49.462C61.373 49.823 61.737 50.229 62.0515 50.6723C62.1026 50.7512 62.1464 50.8183 62.1858 50.884L62.2632 51.0519L62.3084 51.1541C62.3134 51.1651 62.3177 51.1763 62.3216 51.1877Z" fill="#263238"/>
<g opacity="0.3">
<path d="M51.7176 49.5756C51.7031 49.4516 51.6427 49.3376 51.5482 49.2559C51.3672 49.1376 51.1394 49.2939 50.954 49.4019C50.4649 49.6939 49.8605 49.6837 49.2911 49.6589C47.5755 49.6022 45.865 49.4398 44.1694 49.1727C43.3416 49.034 42.505 48.8529 41.7648 48.4558C41.0246 48.0587 40.3778 47.4207 40.1398 46.6148L39.7427 46.4001C40.0507 47.0557 40.0186 48.9099 40.1281 49.6238C40.2376 50.3378 40.5559 50.8488 41.2436 51.0707C41.5256 51.143 41.8184 51.1638 42.1079 51.132C44.9301 50.986 47.7771 51.1189 50.5992 50.986C51.0037 50.9656 51.4752 50.9101 51.6869 50.5699C51.8694 50.2794 51.7964 49.9056 51.7176 49.5756Z" fill="black"/>
</g>
<path d="M53.4987 43.1692C53.4987 43.1692 52.1614 41.6391 51.9219 41.8085C51.6825 41.9778 51.3379 42.0698 51.6693 42.6845C52.0008 43.2991 52.5599 43.6524 52.6651 44.1795C52.7702 44.7066 52.6519 45.9768 53.2403 46.4075C53.8287 46.8382 54.6477 47.9565 54.6477 47.9565L56.6917 45.8249L55.8829 45.2161C55.8829 45.2161 56.372 43.9955 56.3676 43.3575C56.3632 42.7195 55.9296 41.9223 55.9296 41.9223C55.8769 41.6051 55.7233 41.3132 55.4916 41.0901C55.4547 40.8159 55.4006 40.5443 55.3296 40.2769C55.2201 39.8725 53.7542 38.4592 53.7542 38.4592C53.6215 38.5525 53.5301 38.6936 53.4993 38.853C53.4685 39.0123 53.5008 39.1773 53.5892 39.3133C53.7902 39.6394 54.0141 39.9507 54.2594 40.2448L52.9206 40.0842C52.8973 40.1781 52.8937 40.2758 52.9099 40.3711C52.9262 40.4664 52.962 40.5574 53.015 40.6383C53.0681 40.7191 53.1372 40.7882 53.2182 40.8411C53.2992 40.894 53.3902 40.9295 53.4856 40.9456C54.2229 41.1339 54.3966 41.404 54.3966 41.404L53.4841 41.7063C53.4841 41.7063 53.5265 42.245 53.9221 42.2581L54.3207 42.2698L53.4987 43.1692Z" fill="#F2F2F2"/>
<path d="M53.8462 42.2538L54.731 42.2246H54.75L54.7587 42.2348C54.9343 42.4358 55.055 42.6787 55.1091 42.94C55.1568 43.2602 55.0929 43.587 54.9281 43.8657C54.7345 44.147 54.4986 44.3966 54.2287 44.6059C54.0172 44.7773 53.8394 44.9868 53.7046 45.2235C53.6194 45.3851 53.5791 45.5666 53.5878 45.7491C53.5966 45.879 53.6287 45.9462 53.6214 45.9491C53.6141 45.952 53.6112 45.933 53.5966 45.9009C53.5778 45.854 53.565 45.805 53.5586 45.7549C53.5375 45.5654 53.5714 45.3737 53.6564 45.203C53.7878 44.9557 53.9664 44.7364 54.182 44.5577C54.4432 44.3488 54.6724 44.1029 54.8624 43.8277C55.0181 43.5639 55.0803 43.2552 55.0391 42.9517C54.9899 42.7013 54.8784 42.4673 54.7149 42.2713L54.7383 42.2816C54.1864 42.2859 53.8448 42.2743 53.8462 42.2538Z" fill="#5E483F"/>
<path d="M55.7122 41.902C55.7005 41.902 55.6625 41.8305 55.5764 41.7268C55.4609 41.5945 55.3083 41.4998 55.1384 41.4553C54.9676 41.4126 54.7914 41.3958 54.6157 41.4056C54.5411 41.4157 54.4655 41.4157 54.3909 41.4056C54.4601 41.3734 54.535 41.355 54.6113 41.3516C54.7941 41.3256 54.9801 41.336 55.1588 41.3823C55.2585 41.4107 55.3528 41.4556 55.4377 41.5151C55.5058 41.5647 55.565 41.6254 55.6129 41.6947C55.6644 41.7534 55.6988 41.8251 55.7122 41.902Z" fill="#5E483F"/>
<path d="M55.3471 40.899C55.3311 40.9151 55.1325 40.7151 54.8376 40.5428C54.5427 40.3705 54.2711 40.2917 54.2769 40.2698C54.4882 40.2984 54.6916 40.3688 54.8753 40.4768C55.059 40.5849 55.2194 40.7284 55.3471 40.899Z" fill="#5E483F"/>
<path d="M39.001 42.9239L40.7603 49.5698C40.8077 49.7487 40.9137 49.9065 41.0614 50.0179C41.2091 50.1294 41.39 50.188 41.575 50.1845L50.6839 50.0049C50.8054 50.0025 50.925 49.9734 51.0339 49.9196C51.1429 49.8657 51.2387 49.7885 51.3144 49.6934C51.3901 49.5983 51.4439 49.4877 51.4719 49.3694C51.5 49.2512 51.5016 49.1281 51.4767 49.0092L50.1349 42.6436C50.0958 42.4581 49.994 42.2918 49.8467 42.1724C49.6995 42.0531 49.5157 41.988 49.3261 41.988H39.7222C39.6081 41.9881 39.4955 42.0143 39.3931 42.0647C39.2907 42.1151 39.2012 42.1883 39.1316 42.2787C39.0619 42.3691 39.0139 42.4743 38.9913 42.5861C38.9686 42.698 38.972 42.8135 39.001 42.9239Z" fill="#263238"/>
<path d="M38.2359 44.4233C38.1432 44.3058 38.0928 44.1605 38.0928 44.0108C38.0928 43.8612 38.1432 43.7159 38.2359 43.5984C38.3312 43.4835 38.4506 43.3909 38.5855 43.3271C38.7205 43.2633 38.8678 43.2298 39.017 43.229C39.3182 43.2301 39.6161 43.2917 39.893 43.41C40.2367 43.5418 40.5667 43.7066 40.8785 43.9021C41.099 44.0408 41.3267 44.2203 41.3691 44.4758C41.4114 44.7313 41.134 45.0248 40.9077 44.8963C41.0662 44.9633 41.2065 45.0669 41.3172 45.1986C41.4278 45.3303 41.5057 45.4864 41.5443 45.6541C41.5925 45.9796 41.4187 46.1534 41.1063 46.2468C41.2223 46.2955 41.315 46.387 41.3653 46.5022C41.4156 46.6175 41.4196 46.7477 41.3764 46.8659C41.261 47.1097 40.9252 47.1768 40.6741 47.0805C40.4303 46.9626 40.2196 46.786 40.0609 46.5666C40.2409 46.8776 40.3031 47.2429 40.2361 47.5959C39.8903 47.4719 39.585 47.2556 39.3533 46.9704C39.1217 46.6853 38.9726 46.3421 38.9221 45.9782C38.7551 45.8454 38.6387 45.6592 38.5924 45.4508C38.5462 45.2425 38.5729 45.0246 38.6681 44.8335C38.3892 44.7474 38.0724 44.3196 38.0943 44.0276" fill="#F2F2F2"/>
<path d="M41.0888 46.2498C40.9828 46.1813 40.8822 46.1046 40.788 46.0206C40.5582 45.8286 40.2883 45.6905 39.9982 45.6162C39.8395 45.5811 39.6751 45.5811 39.5164 45.6162C39.3879 45.6482 39.2682 45.7086 39.166 45.7928C39.0738 45.8767 38.9964 45.9754 38.9368 46.0848C38.9385 46.0496 38.948 46.0152 38.9645 45.9841C39.0035 45.8974 39.0602 45.8198 39.1309 45.7563C39.2356 45.6602 39.3618 45.5906 39.4989 45.5534C39.6676 45.5099 39.8443 45.5074 40.0142 45.5461C40.316 45.6217 40.5938 45.7723 40.8216 45.9841C40.9218 46.0608 41.0116 46.1501 41.0888 46.2498Z" fill="#5E483F"/>
<path d="M41.0114 44.9286C40.885 44.8942 40.763 44.8452 40.6479 44.7826C40.5217 44.7189 40.392 44.6624 40.2595 44.6132C40.0969 44.5565 39.9299 44.513 39.7602 44.4833C39.5932 44.4527 39.422 44.4527 39.255 44.4833C39.1193 44.5084 38.9911 44.5638 38.8798 44.6454C38.7792 44.7251 38.6957 44.8245 38.6345 44.9374C38.6345 44.9374 38.6345 44.8965 38.6637 44.8337C38.706 44.7434 38.7684 44.664 38.8462 44.6016C38.9604 44.5078 39.0957 44.4432 39.2404 44.4132C39.4164 44.3789 39.5974 44.3789 39.7733 44.4132C39.9475 44.4437 40.1186 44.4902 40.2843 44.5519C40.4174 44.6052 40.5467 44.6677 40.6712 44.7388C40.7892 44.7934 40.903 44.8569 41.0114 44.9286Z" fill="#5E483F"/>
<g opacity="0.3">
<path d="M58.8131 54.1193C58.7401 53.8565 58.835 53.855 58.6262 53.6813C57.8556 53.0081 57.1493 52.2647 56.5165 51.4606C55.8683 50.6488 54.8565 49.002 54.8565 49.002L54.6171 48.929C54.8244 50.1159 55.4215 51.192 56.0099 52.2446C56.3087 52.8291 56.6695 53.3797 57.0859 53.8871C57.5239 54.3791 58.0875 54.7836 58.7328 54.9091C58.7978 54.7893 58.8384 54.6578 58.8522 54.5222C58.866 54.3866 58.8527 54.2497 58.8131 54.1193Z" fill="black"/>
</g>
<path d="M13.667 38.6624C13.6747 38.7106 13.6781 38.7595 13.6772 38.8084C13.6772 38.9154 13.6802 39.0556 13.686 39.2288C13.686 39.3208 13.686 39.423 13.686 39.5325C13.686 39.642 13.7035 39.7632 13.7123 39.8931C13.7342 40.1501 13.7459 40.445 13.7955 40.7691C13.8174 40.9312 13.8393 41.1006 13.8627 41.2772C13.886 41.4539 13.924 41.6349 13.9561 41.8233C14.0174 42.2029 14.1109 42.6014 14.2014 43.0234C14.397 43.8629 14.6394 44.7754 14.9036 45.7434C15.1679 46.7113 15.4015 47.6268 15.584 48.4721C15.6672 48.8984 15.7548 49.2999 15.8059 49.6824C15.8337 49.8722 15.8658 50.0562 15.8862 50.2329C15.9067 50.4095 15.9213 50.5818 15.9373 50.7453C15.9767 51.0694 15.9767 51.3673 15.987 51.6213C15.987 51.7513 15.9972 51.8724 15.9957 51.9834C15.9943 52.0944 15.987 52.1951 15.9826 52.2885C15.9738 52.4628 15.9665 52.6029 15.9607 52.709C15.9593 52.758 15.9544 52.8067 15.9461 52.855C15.9412 52.8065 15.9412 52.7576 15.9461 52.709C15.9461 52.6024 15.9461 52.4623 15.9461 52.2885C15.9461 52.1966 15.9461 52.0958 15.9461 51.9849C15.9461 51.8739 15.9344 51.7542 15.9286 51.6242C15.9125 51.3658 15.9081 51.0709 15.8629 50.7482C15.8453 50.5857 15.8264 50.4163 15.8059 50.2402C15.784 50.0635 15.749 49.8825 15.7198 49.6927C15.6658 49.3131 15.5738 48.913 15.4906 48.4896C15.3022 47.6487 15.0642 46.7289 14.8029 45.7667C14.5416 44.8046 14.308 43.8877 14.1109 43.0438C14.0233 42.6204 13.9313 42.2189 13.8743 41.8379C13.8437 41.6481 13.8086 41.4656 13.7853 41.2889C13.7619 41.1122 13.7444 40.9414 13.7254 40.7779C13.6787 40.4538 13.6729 40.1574 13.6568 39.9019C13.6568 39.772 13.6407 39.6508 13.6393 39.5398V39.2347C13.6393 39.0595 13.6466 38.9208 13.6495 38.8142C13.65 38.7631 13.6559 38.7122 13.667 38.6624Z" fill="#263238"/>
<path d="M33.7435 45.6585L35.8094 38.3103L38.3513 38.7731C38.3513 38.7731 37.7425 39.4666 37.7425 40.1046C37.7425 40.7427 37.3191 46.7564 37.3191 46.7564C37.3191 46.7564 34.7918 47.4981 33.7698 45.787" fill="#FFBE9D"/>
<path d="M35.8094 38.3105C35.8094 38.3105 35.5261 37.544 35.7495 36.8811C35.9729 36.2183 36.7365 35.7044 36.6883 35.3058C36.6401 34.9072 37.046 33.9538 37.4183 34.0283C37.7906 34.1028 38.0519 34.4663 37.7439 35.0766C37.5462 35.4776 37.3831 35.8947 37.2562 36.3234C37.2562 36.3234 41.0522 34.3451 41.3632 34.3028C41.6742 34.2604 41.9837 34.2166 42.064 34.4648C42.1443 34.713 41.3866 35.0284 41.3866 35.0284L40.3646 36.3555C40.1951 36.8617 39.9568 37.3421 39.6565 37.7834C39.2185 38.3762 38.3556 38.7733 38.3556 38.7733L37.2489 40.1048C37.2489 40.1048 35.5656 39.5325 35.8094 38.3105Z" fill="#FFBE9D"/>
<path d="M41.318 35.0809C41.318 35.0809 41.2844 35.059 41.2246 35.0298C41.1399 34.9918 41.0457 34.9806 40.9545 34.9977C40.652 35.0865 40.385 35.2677 40.1909 35.516C39.9879 35.7639 39.8158 36.0355 39.6784 36.3249C39.6268 36.4498 39.5601 36.5679 39.4799 36.6767C39.5059 36.5433 39.5501 36.4141 39.6113 36.2927C39.7334 35.9867 39.9023 35.7015 40.112 35.4474C40.3661 35.1554 40.6785 34.9539 40.9457 34.9247C41.0506 34.9118 41.1567 34.9367 41.245 34.9948C41.3034 35.0401 41.318 35.078 41.318 35.0809Z" fill="#EB996E"/>
<path d="M39.9237 35.5786C39.9383 35.6035 39.693 35.7699 39.3777 35.9509C39.0623 36.132 38.7937 36.259 38.7791 36.2342C38.7645 36.2094 39.0083 36.0415 39.3251 35.8604C39.6419 35.6794 39.9091 35.5524 39.9237 35.5786Z" fill="#EB996E"/>
<path d="M37.9118 36.4314C37.8986 36.4065 38.2038 36.3058 38.5498 36.4314C38.8958 36.5569 39.0798 36.8095 39.055 36.8212C39.0301 36.8329 38.8374 36.6343 38.5162 36.5292C38.195 36.4241 37.9162 36.462 37.9118 36.4314Z" fill="#EB996E"/>
<path d="M29.9796 46.0834C29.9606 46.1929 32.8558 50.0999 33.7946 50.8328C36.0985 52.63 37.7921 50.1991 37.6227 48.142C37.4533 46.0849 31.4688 36.4167 31.4688 36.4167L29.5314 40.9822L29.9796 46.0834Z" fill="#407BFF"/>
<path d="M14.8278 35.3815L20.0925 34.1449L20.5889 33.3054L25.8697 33.3901L27.0961 34.7026L30.6147 36.4313L27.6612 48.8311L17.7507 49.3406L14.8278 35.3815Z" fill="#263238"/>
<path d="M20.8517 33.1421L18.8822 34.3641L14.746 35.2649L16.06 51.8826C16.06 51.8826 12.1793 59.4352 11.5865 65.9921H22.0314C22.0314 65.9921 23.0198 57.6511 22.9161 54.3121C22.8125 50.9731 22.8767 45.1141 22.8767 45.1141L20.1816 35.0401L20.8517 33.1421Z" fill="#407BFF"/>
<path d="M26.2376 34.3727L25.8697 33.2383L27.245 34.6224C27.245 34.6224 28.0597 34.9056 28.2349 34.9698C29.6029 35.4808 31.4688 36.4167 31.4688 36.4167L29.1328 51.1875C29.1328 51.1875 32.266 59.527 32.0105 65.9919C32.0105 65.9919 24.8565 66.1102 22.0314 65.9919L22.795 44.7854C22.795 44.7854 25.277 41.8552 25.6901 38.906C26.1033 35.9568 26.2376 34.3727 26.2376 34.3727Z" fill="#407BFF"/>
<path d="M22.6679 47.1215C22.6346 47.0941 22.6039 47.0638 22.5759 47.031L22.3263 46.7609L21.405 45.7389L18.2938 42.2349L18.2733 42.213L18.2821 42.1852C18.4398 41.6144 18.6062 41.0172 18.777 40.4026C18.85 40.1369 18.923 39.8741 18.996 39.6142L19.0457 39.6828L16.9812 39.604H16.9111L16.936 39.5383C17.4951 38.0301 17.9755 36.7394 18.3186 35.8138C18.4894 35.3641 18.6266 35.005 18.7259 34.7465C18.7712 34.6297 18.8091 34.5363 18.8369 34.4633C18.8483 34.4296 18.8635 34.3973 18.8821 34.3669C18.8754 34.4018 18.8657 34.436 18.8529 34.4691L18.7566 34.7611L18.3784 35.8386C18.0426 36.7686 17.5754 38.0651 17.0309 39.5777L16.9856 39.5091L19.05 39.5821H19.1187L19.0997 39.6478C19.0281 39.9062 18.9537 40.1704 18.8807 40.4362C18.7099 41.0494 18.5434 41.648 18.3843 42.2174L18.3726 42.1692L21.462 45.698C21.8372 46.136 22.1409 46.4879 22.3584 46.739L22.5949 47.0222C22.6227 47.0527 22.6471 47.0859 22.6679 47.1215Z" fill="#263238"/>
<path d="M22.0459 65.9921C22.0167 65.9921 22.1539 61.2047 22.354 55.3034C22.554 49.4021 22.7394 44.6162 22.7686 44.6177C22.7978 44.6191 22.6606 49.4036 22.462 55.3063C22.2634 61.2091 22.0766 65.9921 22.0459 65.9921Z" fill="#263238"/>
<path d="M27.2318 34.5669C27.2428 34.6056 27.2506 34.6452 27.2552 34.6852C27.2683 34.7728 27.2844 34.8866 27.3048 35.0297C27.3457 35.3407 27.4026 35.7743 27.4742 36.3116C27.61 37.4154 27.7983 38.9396 28.0144 40.6916L28.0231 40.7617L27.9531 40.75L26.8084 40.5529L26.8683 40.477L27.0858 40.9646L27.5151 41.9253L27.5282 41.956L27.5063 41.9822L24.3337 45.6614L23.3833 46.7448C23.2767 46.8645 23.1905 46.9608 23.1234 47.0368C23.0562 47.1127 22.6708 47.3974 22.6679 47.3959C22.6649 47.3945 23.0533 47.0937 23.1059 47.0236L23.3599 46.7199L24.2855 45.6147L27.4304 41.9122L27.4216 41.9691L26.9924 41.0099L26.7748 40.5208L26.7325 40.4288L26.8332 40.4463L27.9779 40.6449L27.9151 40.7033C27.7136 38.9513 27.5384 37.4212 27.4114 36.3233C27.3545 35.7831 27.3077 35.348 27.2742 35.0356C27.261 34.8896 27.2508 34.7786 27.242 34.691C27.2336 34.6502 27.2301 34.6085 27.2318 34.5669Z" fill="#263238"/>
<path d="M21.3889 59.2395C21.1787 58.9607 20.7538 58.7884 20.5363 59.0614H20.5436C20.4358 59.1454 20.3563 59.2604 20.3159 59.3909C20.2754 59.5214 20.2759 59.6612 20.3173 59.7914C20.3498 59.8714 20.398 59.9441 20.4591 60.0052C20.5202 60.0662 20.5929 60.1145 20.6729 60.147C20.7529 60.1795 20.8386 60.1957 20.925 60.1945C21.0114 60.1934 21.0966 60.175 21.1758 60.1403C21.2524 60.0985 21.3195 60.0411 21.3724 59.9717C21.4254 59.9022 21.4632 59.8225 21.4833 59.7375C21.5034 59.6525 21.5054 59.5642 21.4891 59.4784C21.4729 59.3926 21.4387 59.3112 21.3889 59.2395Z" fill="#263238"/>
<path d="M21.7145 53.6229C21.5042 53.3455 21.0779 53.1732 20.8604 53.4462H20.8692C20.761 53.5299 20.6813 53.6449 20.6408 53.7755C20.6003 53.9061 20.601 54.046 20.6429 54.1762C20.6752 54.2562 20.7233 54.3288 20.7842 54.3899C20.8452 54.451 20.9178 54.4992 20.9977 54.5317C21.0776 54.5643 21.1632 54.5804 21.2494 54.5793C21.3357 54.5782 21.4208 54.5598 21.4999 54.5252C21.5767 54.4833 21.6439 54.4258 21.697 54.3563C21.7502 54.2869 21.7881 54.207 21.8083 54.1219C21.8286 54.0368 21.8307 53.9484 21.8145 53.8624C21.7983 53.7764 21.7643 53.6948 21.7145 53.6229Z" fill="#263238"/>
<g opacity="0.3">
<path d="M16.9827 39.5542C17.0177 39.6667 17.7594 39.7805 17.8893 40.093C18.0193 40.4054 17.955 40.7631 17.863 41.0902C17.7711 41.4172 17.6513 41.7442 17.6747 42.083C17.7156 42.6889 18.193 43.1619 18.6412 43.5736C19.891 44.7226 21.4152 45.9709 22.6679 47.1214C21.5598 45.7081 20.1158 44.2452 18.8909 42.9327C18.6973 42.7517 18.5475 42.529 18.4529 42.2815C18.3565 41.9618 18.4529 41.6201 18.5463 41.3019L18.923 40.0331C18.9551 39.9236 19.0252 39.7411 19.0413 39.6813C18.8884 39.6489 18.7331 39.6298 18.577 39.6243C18.577 39.6243 17.4747 39.5075 16.99 39.5542" fill="black"/>
</g>
<path d="M31.2732 38.9177C31.2748 38.9599 31.2709 39.0021 31.2615 39.0433C31.2469 39.1367 31.2279 39.255 31.206 39.4024C31.1505 39.7266 31.0761 40.1733 30.9856 40.7164C30.7972 41.8406 30.5476 43.3693 30.2556 45.0599C29.9636 46.7506 29.7022 48.2895 29.4964 49.3976C29.3927 49.9524 29.3066 50.3992 29.2423 50.7116C29.2121 50.8566 29.1873 50.9749 29.1679 51.0664C29.162 51.1085 29.1507 51.1498 29.1343 51.189C29.1347 51.1464 29.1391 51.1038 29.1474 51.062C29.162 50.97 29.1795 50.8503 29.2029 50.7043C29.2569 50.3802 29.3314 49.9334 29.4234 49.3903L30.1534 45.0483C30.4381 43.3517 30.7067 41.8187 30.9126 40.7106C31.0162 40.1558 31.1024 39.7076 31.1651 39.3966C31.1958 39.2506 31.2206 39.1338 31.2411 39.0418C31.2472 38.9994 31.2579 38.9578 31.2732 38.9177Z" fill="#263238"/>
<path d="M14.819 35.2488C14.0416 35.511 13.3738 36.0247 12.921 36.7088C12.045 38.0023 10.5324 50.551 10.585 51.4212C10.6375 52.2914 11.4026 54.4989 13.432 54.2083C15.4614 53.9178 20.8604 50.1466 20.8604 50.1466L19.0033 46.5492L15.0613 48.4063L15.5971 42.194L14.819 35.2488Z" fill="#407BFF"/>
<g opacity="0.3">
<path d="M26.7851 52.998C26.6566 52.4329 25.9573 52.2519 25.3835 52.1789L16.0249 50.9846L15.2131 53.6126C15.2964 54.2156 15.381 54.8303 15.638 55.3821C15.895 55.934 16.3519 56.426 16.9432 56.5706C17.4659 56.6976 18.012 56.5443 18.5273 56.391L25.4098 54.347C25.7589 54.2672 26.0898 54.122 26.3851 53.9192C26.6654 53.7163 26.8639 53.3513 26.7851 52.998Z" fill="black"/>
</g>
<g opacity="0.3">
<path d="M15.2628 42.1445C15.1504 41.7065 14.9796 41.1955 14.5518 41.0276C14.0963 40.8495 13.5677 41.1809 13.3648 41.6262C13.1619 42.0715 13.2057 42.5869 13.2772 43.0701C13.5254 44.752 14.1182 46.6179 14.6671 48.2268L16.587 47.5217C16.333 45.7405 15.7052 43.8892 15.2628 42.1445Z" fill="black"/>
</g>
<path d="M35.094 40.6128L33.2047 46.3068L35.6575 48.088L37.6344 48.8822C37.6344 48.872 38.0037 46.0381 37.9103 47.028L38.3483 41.1807L35.094 40.6128Z" fill="#407BFF"/>
<path d="M35.094 40.6128C35.0865 40.6982 35.0714 40.7827 35.0487 40.8654C35.0166 41.0274 34.9611 41.2596 34.8866 41.5443C34.7406 42.1166 34.4895 42.8933 34.1858 43.7343C33.8822 44.5752 33.6252 45.3519 33.4646 45.9243C33.3843 46.2075 33.3186 46.4367 33.2792 46.5973C33.2617 46.6811 33.2368 46.7632 33.2047 46.8426C33.214 46.7575 33.2291 46.6731 33.25 46.59C33.2836 46.428 33.339 46.1958 33.4135 45.9097C33.5595 45.3388 33.8106 44.5621 34.1143 43.7197C34.418 42.8773 34.6735 42.102 34.8355 41.5297C34.9158 41.2464 34.9815 41.0158 35.021 40.8566C35.0394 40.7737 35.0638 40.6922 35.094 40.6128Z" fill="#263238"/>
<path d="M34.4779 49.1889C34.388 49.0978 34.3091 48.9963 34.2428 48.8867C34.069 48.6326 33.9096 48.3689 33.7654 48.0968C33.6216 47.8251 33.4925 47.5458 33.3785 47.2603C33.3262 47.1437 33.2865 47.0218 33.2603 46.8967C33.326 47.0055 33.3822 47.1199 33.4282 47.2384C33.526 47.4515 33.6647 47.745 33.8326 48.0618C34.0005 48.3786 34.1655 48.6575 34.2881 48.8575C34.3602 48.9627 34.4237 49.0735 34.4779 49.1889Z" fill="#263238"/>
<path d="M14.819 48.034C14.6146 47.9863 14.4148 47.9208 14.2218 47.8384C14.0208 47.781 13.8254 47.7057 13.6378 47.6135C13.8488 47.6333 14.0555 47.685 14.251 47.7668C14.4527 47.8267 14.6442 47.9168 14.819 48.034Z" fill="#263238"/>
<path d="M15.4132 39.9602C15.3872 39.9217 15.3675 39.8793 15.3548 39.8346C15.3212 39.7514 15.2774 39.6302 15.2292 39.4769C14.9796 38.6798 14.8526 37.8493 14.8525 37.0139C14.8525 36.8548 14.8525 36.7219 14.8642 36.6358C14.8636 36.5893 14.87 36.5431 14.8832 36.4985C14.8949 36.4985 14.8934 36.6956 14.9066 37.0139C14.9368 37.8418 15.0627 38.6634 15.2818 39.4623C15.3635 39.7689 15.4249 39.9573 15.4132 39.9602Z" fill="#263238"/>
<g opacity="0.3">
<path d="M27.4727 41.1194L28.1633 41.1661C28.0146 40.9707 27.8138 40.8213 27.5839 40.735C27.354 40.6487 27.1045 40.6291 26.8639 40.6784C26.88 41.0945 27.3136 41.4187 27.2873 41.8348C27.2481 42.0555 27.1427 42.2592 26.9851 42.4188L25.6959 44.0058L25.7864 44.8C26.3135 44.0481 26.8449 43.34 27.372 42.5954C27.5482 42.3766 27.6769 42.1235 27.7501 41.8523C27.8085 41.5763 27.718 41.2537 27.4727 41.1194Z" fill="black"/>
</g>
<g opacity="0.3">
<path d="M34.326 43.2292L34.5348 42.6145C34.1829 43.6701 32.9887 44.4804 32.5959 45.5214C32.4366 45.9627 32.3932 46.4376 32.4698 46.9006C32.5465 47.3635 32.7408 47.799 33.0339 48.1654C33.1697 48.3319 33.4033 48.4925 33.5814 48.3713C33.6484 48.3319 33.701 48.2721 33.7314 48.2006C33.7619 48.1291 33.7687 48.0498 33.7508 47.9742C33.6953 47.8282 33.285 46.977 33.212 46.8427C33.158 46.7405 33.2807 46.447 33.4442 45.898C33.726 44.9286 34.0369 44.1971 34.326 43.2292Z" fill="black"/>
</g>
<path d="M19.126 26.5354C19.1046 27.4731 19.2824 28.4048 19.6476 29.2687C20.0127 30.1327 20.557 30.9094 21.2444 31.5476L22.192 28.8042" fill="#263238"/>
<path d="M26.2595 21.0795C25.4463 20.6415 24.4651 20.5714 23.557 20.7524C22.6489 20.9335 21.805 21.3467 21.0006 21.8095C20.5494 22.0708 20.1012 22.357 19.7785 22.7629C19.1872 23.506 18.6105 24.7251 18.5478 25.6726C18.501 26.4377 18.7945 28.3547 19.1186 29.0496C19.4106 29.6876 20.8049 30.1738 21.4911 30.3315L27.7866 23.0111C27.6728 22.604 27.4791 22.2236 27.2169 21.892C26.9548 21.5604 26.6293 21.2842 26.2595 21.0795Z" fill="#263238"/>
<path d="M27.3443 22.0665L25.8419 21.7964C26.6668 23.7615 26.8902 28.254 27.3618 30.3315C27.918 29.5242 29.2101 27.0655 29.1415 26.0888C29.0729 25.112 29.1371 21.9 27.3443 22.0665Z" fill="#263238"/>
<path d="M28.2072 25.2697C28.1093 23.7615 27.1063 21.9117 25.604 22.0767L22.1292 22.9629C21.5947 23.0993 21.1179 23.4035 20.769 23.8307C20.42 24.258 20.2172 24.7859 20.1903 25.3369C20.1903 25.3938 20.1801 25.3237 20.1815 25.3675L20.9568 34.3655L23.5658 39.5427L25.8682 34.1129C25.8682 33.3829 25.8682 32.7989 25.8682 32.7989C25.8682 32.7989 27.794 32.4748 28.1867 29.9607C28.3838 28.7109 28.324 26.9443 28.2072 25.2697Z" fill="#FFBE9D"/>
<path d="M27.6013 27.1678C27.6025 27.252 27.5706 27.3333 27.5124 27.3942C27.4542 27.4551 27.3745 27.4907 27.2903 27.4934C27.2492 27.4965 27.2078 27.4915 27.1687 27.4784C27.1295 27.4654 27.0934 27.4447 27.0624 27.4174C27.0314 27.3902 27.0061 27.3571 26.9881 27.32C26.9701 27.2829 26.9596 27.2426 26.9574 27.2014C26.9562 27.1174 26.988 27.0363 27.0458 26.9755C27.1037 26.9146 27.183 26.8788 27.2669 26.8758C27.3082 26.8724 27.3497 26.8773 27.389 26.8903C27.4283 26.9032 27.4646 26.9239 27.4958 26.9511C27.527 26.9784 27.5524 27.0116 27.5705 27.0488C27.5886 27.086 27.5991 27.1265 27.6013 27.1678Z" fill="#263238"/>
<path d="M27.8305 26.2538C27.791 26.2961 27.5385 26.1165 27.1997 26.118C26.861 26.1195 26.5982 26.2932 26.5603 26.2509C26.5427 26.2319 26.5822 26.156 26.6931 26.0757C26.8432 25.9716 27.0215 25.916 27.2041 25.9165C27.3844 25.9152 27.5603 25.9715 27.7064 26.0771C27.8129 26.1589 27.8494 26.2348 27.8305 26.2538Z" fill="#263238"/>
<path d="M24.5921 27.1678C24.5933 27.252 24.5614 27.3333 24.5032 27.3942C24.4451 27.4551 24.3653 27.4907 24.2812 27.4934C24.24 27.4965 24.1987 27.4915 24.1595 27.4784C24.1204 27.4654 24.0843 27.4447 24.0532 27.4174C24.0222 27.3902 23.997 27.3571 23.9789 27.32C23.9609 27.2829 23.9505 27.2426 23.9483 27.2014C23.9471 27.1174 23.9788 27.0363 24.0367 26.9755C24.0945 26.9146 24.1739 26.8788 24.2578 26.8758C24.299 26.8724 24.3406 26.8773 24.3799 26.8903C24.4192 26.9032 24.4555 26.9239 24.4867 26.9511C24.5178 26.9784 24.5432 27.0116 24.5613 27.0488C24.5795 27.086 24.5899 27.1265 24.5921 27.1678Z" fill="#263238"/>
<path d="M24.5368 26.2538C24.4973 26.2961 24.2521 26.1165 23.906 26.118C23.56 26.1194 23.3045 26.2932 23.2666 26.2508C23.249 26.2319 23.2885 26.156 23.3994 26.0757C23.5495 25.9716 23.7278 25.916 23.9104 25.9165C24.0906 25.9159 24.2663 25.9721 24.4127 26.0771C24.5192 26.1589 24.5557 26.2348 24.5368 26.2538Z" fill="#263238"/>
<path d="M25.6215 28.9781C25.6215 28.9576 25.8347 28.9197 26.1836 28.8744C26.2727 28.8656 26.3559 28.8481 26.3705 28.7868C26.3788 28.6957 26.3584 28.6043 26.3121 28.5255C26.2274 28.3113 26.1393 28.0865 26.0478 27.8509C25.6828 26.8917 25.4171 26.0989 25.4638 26.0887C25.5105 26.0785 25.8303 26.8406 26.1938 27.7998C26.2829 28.0364 26.3661 28.2612 26.4464 28.4773C26.5025 28.584 26.519 28.7071 26.4931 28.8248C26.4802 28.8561 26.4604 28.884 26.4351 28.9065C26.4098 28.9291 26.3797 28.9455 26.3471 28.9547C26.2995 28.9675 26.2504 28.9743 26.2011 28.9751C26.0088 29.0007 25.8141 29.0017 25.6215 28.9781Z" fill="#263238"/>
<path d="M22.5365 31.9053C22.5365 31.9053 23.3541 33.631 25.8682 33.3901V32.8061C24.6956 32.8204 23.5421 32.5085 22.5365 31.9053Z" fill="#EB996E"/>
<path d="M24.4272 25.001C24.3937 25.0945 24.0476 25.0507 23.6403 25.1018C23.233 25.1529 22.9103 25.2624 22.8504 25.1777C22.8271 25.1383 22.884 25.0492 23.0169 24.9572C23.1938 24.8452 23.3939 24.7747 23.6021 24.7512C23.8102 24.7277 24.021 24.7517 24.2185 24.8215C24.3674 24.8813 24.4418 24.9558 24.4272 25.001Z" fill="#263238"/>
<path d="M27.7166 25.1937C27.6568 25.2725 27.4173 25.1937 27.1326 25.1937C26.8479 25.1937 26.6026 25.2477 26.5486 25.1645C26.5253 25.1251 26.5632 25.0462 26.6683 24.9718C26.8111 24.8824 26.977 24.8372 27.1454 24.8419C27.3137 24.8466 27.4769 24.9009 27.6144 24.998C27.7108 25.074 27.74 25.1543 27.7166 25.1937Z" fill="#263238"/>
<path d="M27.5254 22.9744C27.4364 22.79 27.298 22.6338 27.1255 22.5232C26.9531 22.4126 26.7534 22.352 26.5486 22.3481C26.1378 22.3478 25.7355 22.4654 25.3894 22.6868C23.8929 23.5511 23.1235 25.6404 21.6445 26.5354C21.281 26.7558 20.8079 26.5544 20.4984 26.8464C20.1889 27.1384 19.9889 27.6026 20.1597 27.9925C19.9482 27.7294 19.7757 27.4373 19.6472 27.1252C19.5835 26.9685 19.5542 26.8 19.5612 26.6309C19.5683 26.4619 19.6115 26.2964 19.6881 26.1456C19.8166 25.9236 20.0414 25.7543 20.1042 25.5061C20.1582 25.2871 20.0721 25.0593 20.0823 24.8345C20.1068 24.6057 20.1854 24.386 20.3115 24.1935C20.8955 23.1715 21.6883 22.2415 22.7147 21.6663C23.3839 21.2788 24.1462 21.0815 24.9193 21.0954C25.6956 21.1133 26.4398 21.4085 27.0173 21.9276C27.3487 22.2371 27.6962 22.5554 27.5254 22.9744Z" fill="#263238"/>
<path d="M20.5349 27.156C20.5086 27.0844 19.1975 26.6114 19.18 28.0042C19.1625 29.3577 20.529 29.0905 20.5319 29.0525C20.5349 29.0146 20.5349 27.156 20.5349 27.156Z" fill="#FFBE9D"/>
<path d="M20.1188 28.5372C20.1188 28.5372 20.0954 28.5532 20.0545 28.5708C19.9983 28.5933 19.9355 28.5933 19.8793 28.5708C19.7333 28.5167 19.618 28.289 19.6136 28.0437C19.6111 27.928 19.6346 27.8133 19.6822 27.7079C19.6954 27.6656 19.7186 27.6272 19.7499 27.596C19.7811 27.5647 19.8196 27.5415 19.8618 27.5283C19.89 27.5193 19.9204 27.521 19.9474 27.5332C19.9744 27.5453 19.9959 27.567 20.0078 27.594C20.0253 27.632 20.0166 27.6583 20.0239 27.6612C20.0312 27.6641 20.0531 27.6393 20.0428 27.5823C20.0358 27.5488 20.0172 27.5188 19.9903 27.4977C19.9533 27.4693 19.9066 27.4567 19.8603 27.4626C19.8046 27.4727 19.7523 27.4971 19.7088 27.5334C19.6653 27.5698 19.632 27.6168 19.6121 27.6699C19.5533 27.7866 19.5237 27.9159 19.526 28.0466C19.5333 28.3182 19.672 28.5751 19.8647 28.6306C19.9009 28.6419 19.9392 28.6447 19.9767 28.6389C20.0141 28.6331 20.0497 28.6188 20.0808 28.597C20.1158 28.5693 20.1231 28.5401 20.1188 28.5372Z" fill="#EB996E"/>
<path d="M20.002 26.4611C20.031 26.4495 20.0585 26.4343 20.0837 26.4158C20.1348 26.3837 20.2151 26.3399 20.31 26.2698C20.5765 26.0753 20.8213 25.8526 21.04 25.6055C21.3593 25.2357 21.6576 24.8481 21.9335 24.4448C22.2665 23.9508 22.6401 23.4854 23.0504 23.0535C23.2695 22.8381 23.5113 22.6471 23.7717 22.4841C24.0154 22.3345 24.2768 22.2158 24.5499 22.1307C25.0124 21.9822 25.4988 21.9223 25.9836 21.9541C26.3107 21.9741 26.6338 22.0374 26.9443 22.1424C27.0552 22.176 27.1384 22.214 27.1954 22.2359C27.2235 22.249 27.2528 22.2592 27.283 22.2665C27.2564 22.2502 27.2286 22.2361 27.1998 22.2242C27.1197 22.1846 27.0373 22.15 26.953 22.1205C26.6423 22.0054 26.3169 21.9347 25.9865 21.9103C25.4936 21.871 24.9979 21.9276 24.5265 22.0767C24.2486 22.1618 23.9823 22.281 23.7337 22.4315C23.4699 22.5991 23.2251 22.7949 23.0037 23.0155C22.5904 23.4492 22.2157 23.9182 21.8839 24.4171C21.6129 24.8218 21.3205 25.2117 21.0079 25.5851C20.793 25.8327 20.5544 26.0586 20.2954 26.2596C20.202 26.3297 20.1246 26.3764 20.075 26.4129C20.0495 26.4272 20.0251 26.4433 20.002 26.4611Z" fill="#455A64"/>
<path d="M19.9654 28.7766C19.8983 28.7636 19.8287 28.7767 19.7709 28.8132C19.7131 28.8497 19.6713 28.9069 19.6542 28.9731C19.6371 29.0393 19.6458 29.1095 19.6787 29.1695C19.7116 29.2295 19.7661 29.2746 19.8311 29.2958C19.8961 29.317 19.9668 29.3126 20.0287 29.2834C20.0905 29.2543 20.139 29.2027 20.1641 29.1391C20.1892 29.0755 20.1892 29.0047 20.1639 28.9412C20.1387 28.8776 20.0901 28.8261 20.0282 28.7971" fill="white"/>
<path d="M20.0282 28.797C20.0864 28.8433 20.1288 28.9066 20.1494 28.978C20.159 29.0151 20.1593 29.0541 20.1501 29.0913C20.1409 29.1285 20.1226 29.1628 20.0968 29.1912C20.0666 29.2268 20.0265 29.2527 19.9816 29.2656C19.9367 29.2785 19.889 29.2778 19.8445 29.2636C19.7999 29.2494 19.7606 29.2223 19.7315 29.1858C19.7024 29.1492 19.6847 29.1049 19.6807 29.0583C19.6758 29.0203 19.6806 28.9816 19.6946 28.9458C19.7087 28.9101 19.7315 28.8785 19.761 28.8539C19.8193 28.8073 19.8909 28.7802 19.9654 28.7766C19.9654 28.7766 19.9435 28.762 19.9012 28.762C19.8628 28.7625 19.8249 28.7708 19.7898 28.7865C19.7547 28.8022 19.7232 28.8249 19.6972 28.8532C19.6713 28.8815 19.6513 28.9148 19.6387 28.9511C19.6261 28.9874 19.621 29.0259 19.6238 29.0642C19.6282 29.1221 19.6498 29.1774 19.6858 29.2231C19.7218 29.2687 19.7706 29.3025 19.8259 29.3202C19.8813 29.3379 19.9406 29.3387 19.9964 29.3225C20.0522 29.3063 20.1019 29.2738 20.1392 29.2292C20.17 29.1937 20.1911 29.1508 20.2003 29.1047C20.2096 29.0587 20.2066 29.011 20.1917 28.9664C20.174 28.9077 20.1376 28.8565 20.0881 28.8204C20.053 28.797 20.0297 28.7926 20.0282 28.797Z" fill="#263238"/>
<path d="M20.3363 26.8449C20.3158 27.2143 20.2983 27.6041 20.4691 27.9326C20.6399 28.2611 21.0706 28.486 21.3918 28.302C21.6546 28.156 21.7335 27.8158 21.7773 27.5165C21.9058 26.6551 21.9642 25.7835 22.0999 24.9221L20.3363 26.8449Z" fill="#263238"/>
<path d="M24.7689 29.638C24.703 29.7236 24.659 29.824 24.6404 29.9303C24.6218 30.0367 24.6292 30.146 24.6621 30.2489C24.6949 30.3518 24.7522 30.4452 24.829 30.5211C24.9059 30.597 24.9999 30.6532 25.1032 30.6848C25.1851 30.7125 25.2739 30.7125 25.3558 30.6848C25.4217 30.6477 25.4795 30.5977 25.5257 30.5378C25.5719 30.4778 25.6054 30.4091 25.6244 30.3359L25.7704 29.9855C25.7841 29.9675 25.7924 29.946 25.7943 29.9234C25.7961 29.9009 25.7915 29.8783 25.7809 29.8583C25.7703 29.8383 25.7541 29.8218 25.7344 29.8107C25.7147 29.7996 25.6923 29.7944 25.6697 29.7957L24.801 29.5869" fill="#EB996E"/>
<path d="M25.3368 30.6454C25.2033 30.6634 25.0675 30.6463 24.9426 30.5958C24.7962 30.5483 24.6728 30.4478 24.5966 30.314C24.5521 30.2319 24.5333 30.1383 24.5426 30.0454C24.5491 29.9495 24.5729 29.8555 24.6127 29.768C24.6512 29.6826 24.7063 29.6057 24.7747 29.5417L24.7981 29.5212L24.8273 29.5315C25.4025 29.7344 25.8493 29.8366 25.8493 29.8614C25.8493 29.8862 25.3821 29.8235 24.7952 29.6278L24.8463 29.6161C24.7884 29.6723 24.7414 29.7386 24.7076 29.8118C24.6712 29.8821 24.6502 29.9593 24.6459 30.0383C24.6417 30.1174 24.6542 30.1964 24.6827 30.2702C24.7469 30.3875 24.8503 30.4785 24.9747 30.5272C25.185 30.6148 25.3412 30.6265 25.3368 30.6454Z" fill="#263238"/>
<path d="M27.191 22.338C27.191 22.3453 27.0727 22.3147 26.8552 22.3088C26.5484 22.3031 26.2437 22.3587 25.9587 22.4723C25.7617 22.5489 25.5737 22.6468 25.3981 22.7643C25.1945 22.8981 24.9994 23.0444 24.8141 23.2023C24.3895 23.5635 24.0092 23.9737 23.6811 24.4244C23.5088 24.6667 23.357 24.9149 23.192 25.1441C23.0363 25.3688 22.8539 25.5737 22.6489 25.7544C22.2982 26.0521 21.9147 26.3088 21.5057 26.5195C21.1597 26.7034 20.8692 26.8304 20.6706 26.9195L20.4399 27.01C20.4134 27.0229 20.3854 27.0326 20.3567 27.0392C20.3809 27.022 20.4068 27.0073 20.4341 26.9954L20.6589 26.8845C20.8546 26.7866 21.1407 26.6523 21.4809 26.464C21.8828 26.2491 22.2598 25.9906 22.6051 25.6931C22.8042 25.5139 22.9815 25.3121 23.1336 25.0916C23.2957 24.8653 23.4475 24.6156 23.6212 24.3718C23.952 23.9157 24.3379 23.5023 24.7703 23.141C24.9559 22.9834 25.1509 22.8371 25.3543 22.703C25.5375 22.5843 25.7334 22.4864 25.9383 22.411C26.2299 22.2991 26.5417 22.2494 26.8537 22.265C26.9377 22.2699 27.0212 22.2817 27.1034 22.3001C27.1344 22.3078 27.164 22.3207 27.191 22.338Z" fill="#455A64"/>
<path d="M20.294 26.0084C20.2572 26.0395 20.217 26.0665 20.1743 26.0887L19.8312 26.2902L19.7158 26.3573C19.6711 26.3835 19.6213 26.4 19.5698 26.4055C19.5376 26.4086 19.5052 26.4009 19.4778 26.3836C19.4631 26.3737 19.451 26.3605 19.4423 26.345C19.4337 26.3296 19.4289 26.3123 19.4282 26.2946C19.4314 26.2323 19.4539 26.1726 19.4924 26.1237L19.8896 25.4872L19.9436 25.5368C19.8111 25.6339 19.663 25.7075 19.5056 25.7544C19.3483 25.8004 19.1845 25.8196 19.0209 25.8113C18.9791 25.8101 18.9378 25.8028 18.8982 25.7894C18.875 25.7829 18.8534 25.7712 18.8352 25.7553C18.8171 25.7394 18.8027 25.7196 18.7931 25.6974C18.7855 25.6746 18.7837 25.6503 18.7878 25.6266C18.7918 25.6029 18.8017 25.5806 18.8165 25.5616C18.8388 25.5309 18.8642 25.5025 18.8924 25.477C19.0713 25.3035 19.2264 25.1071 19.3537 24.893C19.4653 24.6921 19.5629 24.4838 19.6457 24.2695C19.6394 24.3314 19.6252 24.3923 19.6034 24.4506C19.5512 24.6133 19.4827 24.7703 19.399 24.9192C19.2751 25.1411 19.1208 25.3445 18.9406 25.5237C18.8895 25.5719 18.8398 25.6273 18.8603 25.6697C18.8807 25.712 18.9522 25.7325 19.0238 25.7339C19.3369 25.7502 19.6462 25.6585 19.8998 25.474L20.0604 25.3558L19.9523 25.5237L19.5465 26.1559C19.5158 26.1936 19.496 26.239 19.4895 26.2873C19.4895 26.3267 19.5231 26.3486 19.5669 26.3457C19.6539 26.3282 19.7367 26.2939 19.8107 26.2449L20.164 26.0639C20.205 26.0403 20.2486 26.0217 20.294 26.0084Z" fill="#455A64"/>
<path d="M13.5502 41.7561L16.0117 54.699C16.035 54.8222 16.0824 54.9396 16.1512 55.0445C16.2201 55.1494 16.3089 55.2396 16.4127 55.31C16.5165 55.3804 16.6332 55.4296 16.756 55.4548C16.8789 55.48 17.0055 55.4806 17.1286 55.4567L26.5821 53.6376C26.7055 53.6138 26.823 53.5659 26.9278 53.4966C27.0326 53.4273 27.1228 53.3381 27.193 53.2339C27.2633 53.1297 27.3123 53.0127 27.3372 52.8896C27.3622 52.7664 27.3626 52.6396 27.3384 52.5163L24.7338 39.3471C24.709 39.2226 24.6596 39.1044 24.5886 38.9992C24.5176 38.894 24.4264 38.804 24.3203 38.7344C24.2141 38.6648 24.0952 38.6171 23.9705 38.5939C23.8457 38.5708 23.7176 38.5727 23.5935 38.5996L14.2831 40.6436C14.0401 40.6969 13.8275 40.8431 13.6906 41.0509C13.5537 41.2587 13.5033 41.5117 13.5502 41.7561Z" fill="#E0E0E0"/>
<path d="M19.856 46.5331L20.6429 46.1433C20.6429 46.1433 20.8984 44.7943 21.313 44.3183C21.7277 43.8424 22.335 43.2963 22.335 43.1664C22.335 43.0364 22.5278 42.1444 22.5278 42.1444C22.5278 42.1444 22.8942 41.8246 22.9658 42.4641C23.0105 42.8356 23.0105 43.211 22.9658 43.5825L25.4273 42.9693C25.6828 42.905 26.0026 42.9299 25.9704 43.1854C25.9383 43.4409 25.8011 43.5737 25.6054 43.7329C25.5352 43.7913 25.4558 43.8377 25.3704 43.8701C25.3704 43.8701 25.7806 44.2482 25.7806 44.6191C25.7806 44.9899 26.2011 45.8513 25.8186 46.266C25.4361 46.6806 23.6782 47.9274 22.7526 48.0866C21.827 48.2457 21.5992 48.5246 21.17 49.0706L19.856 46.5331Z" fill="#FFBE9D"/>
<path d="M23.1686 43.5386C23.1789 43.559 22.8869 43.7298 22.5569 43.9839C22.2269 44.2379 21.9846 44.4715 21.9729 44.4569C22.2912 44.0561 22.7041 43.7405 23.1745 43.5386H23.1686Z" fill="#EB996E"/>
<path d="M25.5135 43.8C25.3299 43.9106 25.1305 43.9923 24.9222 44.0424C24.723 44.116 24.5178 44.1721 24.309 44.2103C24.4928 44.1006 24.6921 44.0194 24.9003 43.9694C25.0998 43.8966 25.3049 43.84 25.5135 43.8Z" fill="#EB996E"/>
<path d="M14.3678 48.3801L19.7888 46.082L21.8226 50.1364L14.3678 53.9383V48.3801Z" fill="#407BFF"/>
<path d="M19.6851 46.2075C19.6939 46.2279 18.2251 46.8309 16.4133 47.5565C14.6014 48.2822 13.121 48.853 13.1137 48.834C13.1064 48.8151 14.5737 48.2106 16.3855 47.485C18.1974 46.7594 19.6778 46.1885 19.6851 46.2075Z" fill="#263238"/>
<g opacity="0.3">
<path d="M14.7256 48.1304C14.0663 48.2624 13.4214 48.458 12.7998 48.7144C12.5421 48.8075 12.301 48.9416 12.0859 49.1115C11.9788 49.1971 11.8897 49.3032 11.8238 49.4235C11.7579 49.5437 11.7164 49.6759 11.7019 49.8123C11.8798 49.736 12.0475 49.6379 12.2012 49.5203C12.8173 48.9027 13.8788 48.5435 14.7781 48.2063L14.7256 48.1304Z" fill="black"/>
</g>
</svg>
