<svg width="70" height="70" viewBox="0 0 70 70" fill="none" xmlns="http://www.w3.org/2000/svg">
<path d="M62.9859 55.7886H58.3491V55.8236H62.9859V55.7886Z" fill="#EBEBEB"/>
<path d="M46.3705 56.1694H45.1539V56.2044H46.3705V56.1694Z" fill="#EBEBEB"/>
<path d="M58.2091 54.4893H55.5225V54.5243H58.2091V54.4893Z" fill="#EBEBEB"/>
<path d="M13.3909 54.7246H7.3443V54.7596H13.3909V54.7246Z" fill="#EBEBEB"/>
<path d="M15.5246 54.7246H14.6384V54.7596H15.5246V54.7246Z" fill="#EBEBEB"/>
<path d="M31.5212 55.3154H18.406V55.3504H31.5212V55.3154Z" fill="#EBEBEB"/>
<path d="M33.18 47.292H6.14737C5.93559 47.2916 5.73262 47.2072 5.58301 47.0573C5.4334 46.9074 5.34936 46.7043 5.34937 46.4925V8.49235C5.35121 8.28179 5.43605 8.08047 5.58547 7.9321C5.73488 7.78374 5.9368 7.70031 6.14737 7.69995H33.18C33.392 7.69995 33.5953 7.78417 33.7452 7.93409C33.8951 8.08401 33.9794 8.28734 33.9794 8.49935V46.4925C33.9794 46.7046 33.8951 46.9079 33.7452 47.0578C33.5953 47.2077 33.392 47.292 33.18 47.292ZM6.14737 7.72795C5.94488 7.72832 5.75081 7.80902 5.60776 7.95233C5.46471 8.09565 5.38436 8.28986 5.38437 8.49235V46.4925C5.38436 46.695 5.46471 46.8893 5.60776 47.0326C5.75081 47.1759 5.94488 47.2566 6.14737 47.257H33.18C33.3826 47.2566 33.5768 47.1759 33.7201 47.0327C33.8633 46.8894 33.944 46.6952 33.9444 46.4925V8.49235C33.944 8.28973 33.8633 8.09552 33.7201 7.95225C33.5768 7.80897 33.3826 7.72832 33.18 7.72795H6.14737Z" fill="#EBEBEB"/>
<path d="M63.4633 47.292H36.4293C36.2174 47.2916 36.0143 47.2072 35.8645 47.0574C35.7147 46.9076 35.6303 46.7045 35.6299 46.4925V8.49235C35.6322 8.28167 35.7173 8.08034 35.8669 7.93201C36.0166 7.78369 36.2186 7.70031 36.4293 7.69995H63.4633C63.6737 7.70068 63.8752 7.78427 64.0243 7.93259C64.1735 8.08092 64.2581 8.28204 64.2599 8.49235V46.4925C64.2599 46.7041 64.1761 46.907 64.0268 47.0568C63.8775 47.2067 63.6749 47.2912 63.4633 47.292ZM36.4293 7.72795C36.2267 7.72832 36.0325 7.80897 35.8892 7.95225C35.746 8.09552 35.6653 8.28973 35.6649 8.49235V46.4925C35.6653 46.6952 35.746 46.8894 35.8892 47.0327C36.0325 47.1759 36.2267 47.2566 36.4293 47.257H63.4633C63.666 47.2566 63.8602 47.1759 64.0034 47.0327C64.1467 46.8894 64.2274 46.6952 64.2277 46.4925V8.49235C64.2274 8.28973 64.1467 8.09552 64.0034 7.95225C63.8602 7.80897 63.666 7.72832 63.4633 7.72795H36.4293Z" fill="#EBEBEB"/>
<path d="M70 53.5359H0V53.5709H70V53.5359Z" fill="#EBEBEB"/>
<path d="M53.9701 22.7695H52.3741V24.3655H53.9701V22.7695Z" fill="#FAFAFA"/>
<path d="M53.9701 25.6704H52.3741V27.2678H53.9701V25.6704Z" fill="#F0F0F0"/>
<path d="M53.9701 28.571H52.3741V30.167H53.9701V28.571Z" fill="#F0F0F0"/>
<path d="M53.9701 31.4719H52.3741V33.0679H53.9701V31.4719Z" fill="#FAFAFA"/>
<path d="M57.0627 31.4719H55.4667V33.0679H57.0627V31.4719Z" fill="#F0F0F0"/>
<path d="M53.9701 34.3743H52.3741V35.9717H53.9701V34.3743Z" fill="#F0F0F0"/>
<path d="M57.0627 34.3743H55.4667V35.9717H57.0627V34.3743Z" fill="#FAFAFA"/>
<path d="M60.1553 34.3743H58.5593V35.9717H60.1553V34.3743Z" fill="#FAFAFA"/>
<path d="M53.9701 37.2749H52.3741V38.8709H53.9701V37.2749Z" fill="#F0F0F0"/>
<path d="M57.0627 37.2749H55.4667V38.8709H57.0627V37.2749Z" fill="#FAFAFA"/>
<path d="M60.1553 37.2749H58.5593V38.8709H60.1553V37.2749Z" fill="#F0F0F0"/>
<path d="M53.9701 40.1758H52.3741V41.7732H53.9701V40.1758Z" fill="#FAFAFA"/>
<path d="M57.0627 40.1758H55.4667V41.7732H57.0627V40.1758Z" fill="#FAFAFA"/>
<path d="M60.1553 40.1758H58.5593V41.7732H60.1553V40.1758Z" fill="#F0F0F0"/>
<path d="M63.2493 40.1758H61.6519V41.7732H63.2493V40.1758Z" fill="#F0F0F0"/>
<path d="M63.8765 9.56323H53.7335V10.4214H63.8765V9.56323Z" fill="#E0E0E0"/>
<path d="M63.8765 43.5356H53.7335V44.3938H63.8765V43.5356Z" fill="#EBEBEB"/>
<path d="M64.2696 45.1261H53.274V8.72607H64.2696V45.1261ZM54.1126 44.2861H63.4324V9.56607H54.1126V44.2861Z" fill="#EBEBEB"/>
<path d="M52.9116 9.9917H42.9366V43.8311H52.9116V9.9917Z" fill="#FAFAFA"/>
<path d="M52.1569 33.1855H43.6267V43.6533H52.1569V33.1855Z" fill="#E6E6E6"/>
<path d="M51.4151 34.3462H49.4299H48.8839H48.3379V35.4382H48.8839H49.4299H51.4151V34.3462Z" fill="#E6E6E6"/>
<path d="M51.4151 36.4614H49.4299H48.8839H48.3379V37.5534H48.8839H49.4299H51.4151V36.4614Z" fill="#FAFAFA"/>
<path d="M51.4151 38.5769H49.4299H48.8839H48.3379V39.6689H48.8839H49.4299H51.4151V38.5769Z" fill="#E6E6E6"/>
<path d="M51.4151 40.6924H49.4299H48.5871H48.3379V41.7844H48.5871H49.4299H51.4151V40.6924Z" fill="#FAFAFA"/>
<path d="M47.4462 34.3462H45.4624H44.9164H44.3704V35.4382H44.9164H45.4624H47.4462V34.3462Z" fill="#FAFAFA"/>
<path d="M47.4462 36.4614H45.4624H44.6924H44.3704V37.5534H44.6924H45.4624H47.4462V36.4614Z" fill="#FAFAFA"/>
<path d="M47.4462 38.5769H45.4624H44.9164H44.3704V39.6689H44.9164H45.4624H47.4462V38.5769Z" fill="#E6E6E6"/>
<path d="M47.4462 40.6924H45.4624H44.9164H44.3704V41.7844H44.9164H45.4624H47.4462V40.6924Z" fill="#FAFAFA"/>
<path opacity="0.1" d="M52.8796 9.9917H42.9046V43.8311H52.8796V9.9917Z" fill="white"/>
<g opacity="0.3">
<path d="M51.9163 9.9917H48.7369L45.2565 43.8311H48.4373L51.9163 9.9917Z" fill="white"/>
</g>
<path d="M52.9957 9.56323H42.8527V10.4214H52.9957V9.56323Z" fill="#E0E0E0"/>
<path d="M52.9957 43.5356H42.8527V44.3938H52.9957V43.5356Z" fill="#EBEBEB"/>
<path d="M53.3905 45.1261H42.3949V8.72607H53.3905V45.1261ZM43.2321 44.2861H52.5519V9.56607H43.2321V44.2861Z" fill="#EBEBEB"/>
<path d="M26.775 9.9917H16.8V43.8311H26.775V9.9917Z" fill="#FAFAFA"/>
<path opacity="0.1" d="M26.7555 9.9917H16.7805V43.8311H26.7555V9.9917Z" fill="white"/>
<g opacity="0.3">
<path d="M25.781 9.9917H22.6002L19.1212 43.8311H22.3006L25.781 9.9917Z" fill="white"/>
</g>
<path d="M26.8603 9.56323H16.7173V10.4214H26.8603V9.56323Z" fill="#E0E0E0"/>
<path d="M26.8603 43.5356H16.7173V44.3938H26.8603V43.5356Z" fill="#EBEBEB"/>
<path d="M27.2539 45.1261H16.2583V8.72607H27.2539V45.1261ZM17.0969 44.2861H26.4153V9.56607H17.0969V44.2861Z" fill="#EBEBEB"/>
<path d="M15.9097 9.9917H5.93469V43.8311H15.9097V9.9917Z" fill="#FAFAFA"/>
<path d="M8.16742 25.1299H7.17902V26.1183H8.16742V25.1299Z" fill="#FAFAFA"/>
<path d="M10.0828 25.1299H9.09442V26.1183H10.0828V25.1299Z" fill="#FAFAFA"/>
<path d="M11.9982 25.1299H11.0098V26.1183H11.9982V25.1299Z" fill="#FAFAFA"/>
<path d="M13.9118 25.1299H12.9234V26.1183H13.9118V25.1299Z" fill="#FAFAFA"/>
<path d="M8.16742 26.9263H7.17902V27.9147H8.16742V26.9263Z" fill="#FAFAFA"/>
<path d="M10.0828 26.9263H9.09442V27.9147H10.0828V26.9263Z" fill="#FAFAFA"/>
<path d="M11.9982 26.9263H11.0098V27.9147H11.9982V26.9263Z" fill="#FAFAFA"/>
<path d="M11.9982 28.7209H11.0098V29.7093H11.9982V28.7209Z" fill="#FAFAFA"/>
<path d="M8.16742 31.5266H7.17902V32.515H8.16742V31.5266Z" fill="#FAFAFA"/>
<path d="M10.0828 31.5266H9.09442V32.515H10.0828V31.5266Z" fill="#FAFAFA"/>
<path d="M11.9982 31.5266H11.0098V32.515H11.9982V31.5266Z" fill="#FAFAFA"/>
<path d="M13.9118 31.5266H12.9234V32.515H13.9118V31.5266Z" fill="#FAFAFA"/>
<path d="M8.16742 33.3228H7.17902V34.3112H8.16742V33.3228Z" fill="#FAFAFA"/>
<path d="M10.0828 33.3228H9.09442V34.3112H10.0828V33.3228Z" fill="#FAFAFA"/>
<path d="M11.9982 33.3228H11.0098V34.3112H11.9982V33.3228Z" fill="#FAFAFA"/>
<path d="M13.9118 33.3228H12.9234V34.3112H13.9118V33.3228Z" fill="#E6E6E6"/>
<path d="M10.0828 35.1189H9.09442V36.1073H10.0828V35.1189Z" fill="#E6E6E6"/>
<path d="M11.9982 35.1189H11.0098V36.1073H11.9982V35.1189Z" fill="#FAFAFA"/>
<path d="M13.9118 35.1189H12.9234V36.1073H13.9118V35.1189Z" fill="#E6E6E6"/>
<path d="M8.16742 37.9246H7.17902V38.913H8.16742V37.9246Z" fill="#FAFAFA"/>
<path d="M10.0828 37.9246H9.09442V38.913H10.0828V37.9246Z" fill="#FAFAFA"/>
<path d="M11.9982 37.9246H11.0098V38.913H11.9982V37.9246Z" fill="#FAFAFA"/>
<path d="M13.9118 37.9246H12.9234V38.913H13.9118V37.9246Z" fill="#FAFAFA"/>
<path d="M8.16742 39.7207H7.17902V40.7091H8.16742V39.7207Z" fill="#FAFAFA"/>
<path d="M10.0828 39.7207H9.09442V40.7091H10.0828V39.7207Z" fill="#FAFAFA"/>
<path d="M11.9982 39.7207H11.0098V40.7091H11.9982V39.7207Z" fill="#FAFAFA"/>
<path d="M13.9118 39.7207H12.9234V40.7091H13.9118V39.7207Z" fill="#E6E6E6"/>
<path d="M8.16742 41.5168H7.17902V42.5052H8.16742V41.5168Z" fill="#E6E6E6"/>
<path d="M10.0828 41.5168H9.09442V42.5052H10.0828V41.5168Z" fill="#E6E6E6"/>
<path d="M11.9982 41.5168H11.0098V42.5052H11.9982V41.5168Z" fill="#FAFAFA"/>
<path d="M13.9118 41.5168H12.9234V42.5052H13.9118V41.5168Z" fill="#E6E6E6"/>
<g opacity="0.3">
<path d="M14.9143 9.9917H11.7349L8.25592 43.8311H11.4353L14.9143 9.9917Z" fill="white"/>
</g>
<path d="M15.9951 9.56323H5.85211V10.4214H15.9951V9.56323Z" fill="#E0E0E0"/>
<path d="M15.9951 43.5356H5.85211V44.3938H15.9951V43.5356Z" fill="#EBEBEB"/>
<path d="M16.3882 45.1261H5.39258V8.72607H16.3882V45.1261ZM6.23118 44.2861H15.5496V9.56607H6.23118V44.2861Z" fill="#EBEBEB"/>
<path d="M34.0926 49.6453L33.9806 49.6593C33.9736 49.6019 33.2932 43.9067 34.6974 39.2531C36.0974 34.6331 35.1314 31.6791 35.1174 31.6511L35.2252 31.6147C35.235 31.6441 36.2052 34.6261 34.8052 39.2853C33.408 43.9165 34.0856 49.5893 34.0926 49.6453Z" fill="#E0E0E0"/>
<path d="M35.3221 32.2855C35.0775 31.9942 34.7457 31.7895 34.3757 31.7017L34.4023 31.5911C34.7959 31.6846 35.149 31.9026 35.4089 32.2127L35.3221 32.2855Z" fill="#E0E0E0"/>
<path d="M35.8024 32.7564L35.4794 32.939L35.5352 33.0377L35.8582 32.8552L35.8024 32.7564Z" fill="#E0E0E0"/>
<path d="M35.2002 35.3822C34.9185 34.7402 34.397 34.2338 33.747 33.971L33.789 33.8674C34.4661 34.1407 35.0097 34.6677 35.3038 35.336L35.2002 35.3822Z" fill="#E0E0E0"/>
<path d="M34.8978 38.9396H34.7844C34.7806 38.7106 34.7262 38.4852 34.625 38.2797C34.5239 38.0742 34.3784 37.8937 34.1992 37.751L34.2692 37.6628C34.4617 37.8161 34.6178 38.0101 34.7265 38.2308C34.8352 38.4516 34.8937 38.6936 34.8978 38.9396Z" fill="#E0E0E0"/>
<path d="M34.6456 39.8495L34.5392 39.8089C34.5974 39.6646 34.6845 39.5336 34.7953 39.4243C34.9061 39.315 35.0381 39.2296 35.1832 39.1733L35.2224 39.2797C35.0923 39.3299 34.9738 39.4064 34.8746 39.5045C34.7753 39.6025 34.6974 39.72 34.6456 39.8495Z" fill="#E0E0E0"/>
<path d="M33.9121 45.6218L33.8253 45.5504C33.9653 45.3838 34.0675 44.7524 34.1235 44.4136C34.1361 44.3324 34.1473 44.2638 34.1571 44.2134L34.2677 44.2344C34.2593 44.2834 34.2481 44.352 34.2341 44.4318C34.1515 44.94 34.0577 45.4468 33.9121 45.6218Z" fill="#E0E0E0"/>
<path d="M33.8478 47.4347C33.769 47.2129 33.6222 47.0215 33.4285 46.8878C33.2347 46.7541 33.0037 46.6849 32.7684 46.6899V46.5765C33.0286 46.5703 33.2842 46.6466 33.4984 46.7944C33.7127 46.9423 33.8747 47.1542 33.9612 47.3997L33.8478 47.4347Z" fill="#E0E0E0"/>
<path d="M34.7117 48.6191L33.9149 49.5105L33.9995 49.5861L34.7962 48.6946L34.7117 48.6191Z" fill="#E0E0E0"/>
<path d="M35.2801 42.8051C35.4607 43.3889 34.2021 44.5019 34.2021 44.5019C34.2021 44.5019 32.5347 44.2933 32.3541 43.7081C32.1735 43.1229 32.5963 42.1681 33.4041 41.9189C34.2119 41.6697 35.0939 42.2213 35.2801 42.8051Z" fill="#F0F0F0"/>
<path d="M36.6713 35.7153C36.5117 36.3355 35.3189 36.7765 35.3189 36.7765C35.3189 36.7765 34.4873 35.8147 34.6469 35.1945C34.8065 34.5743 35.4659 33.8897 36.0245 34.0339C36.5831 34.1781 36.8309 35.0951 36.6713 35.7153Z" fill="#EBEBEB"/>
<path d="M31.8878 44.9863C32.6354 45.2789 33.0946 46.6019 33.0946 46.6019C33.0946 46.6019 31.8612 47.2669 31.1122 46.9757C30.3632 46.6845 29.5722 45.8557 29.785 45.3139C29.9978 44.7721 31.1388 44.6951 31.8878 44.9863Z" fill="#F5F5F5"/>
<path d="M33.5287 37.702C33.6797 37.8293 33.8529 37.9276 34.0397 37.9918C34.1338 38.0219 34.2344 38.0258 34.3305 38.0031C34.4267 37.9804 34.5149 37.932 34.5857 37.863C34.7467 37.6782 34.7033 37.3926 34.6025 37.17C34.4023 36.729 33.6645 35.9814 33.0975 36.19C32.2799 36.505 33.1633 37.4318 33.5287 37.702Z" fill="#E6E6E6"/>
<path d="M35.2031 38.826C35.0953 38.959 34.9819 39.1256 35.0407 39.2866C35.074 39.3549 35.1291 39.4102 35.1973 39.4437C35.2655 39.4771 35.343 39.4869 35.4173 39.4714C35.5653 39.4369 35.7036 39.3694 35.8219 39.274C36.1103 39.0724 36.7025 38.6524 36.3245 38.259C35.9465 37.8656 35.4285 38.5446 35.2031 38.826Z" fill="#EBEBEB"/>
<path d="M32.7868 33.2261C32.7245 33.2295 32.6649 33.2524 32.6164 33.2916C32.5679 33.3308 32.533 33.3843 32.5166 33.4445C32.4928 33.5845 32.6118 33.7133 32.7266 33.8015C33.0136 34.0227 33.8746 34.6191 34.0678 34.0437C34.2498 33.5005 33.1676 33.1799 32.7868 33.2261Z" fill="#E0E0E0"/>
<path d="M34.3756 31.3334C34.1978 31.3502 34.02 31.2858 33.8422 31.297C33.6644 31.3082 33.4656 31.451 33.5062 31.626C33.5468 31.801 33.7428 31.8402 33.9066 31.8514C34.188 31.8681 34.4703 31.8484 34.7466 31.7926C34.8119 31.7867 34.8724 31.7561 34.916 31.7072C34.9888 31.6008 34.874 31.458 34.7508 31.4272C34.6239 31.4109 34.4991 31.3813 34.3784 31.339L34.3756 31.3334Z" fill="#E6E6E6"/>
<path d="M36.12 32.557C36.2992 32.557 36.4714 32.4856 36.6506 32.4856C36.8298 32.4856 37.0356 32.6144 37.0076 32.7908C36.9796 32.9672 36.7849 33.0218 36.6211 33.0428C36.3424 33.0798 36.0599 33.0798 35.7812 33.0428C35.7151 33.0413 35.652 33.0148 35.6048 32.9686C35.5264 32.8664 35.6314 32.718 35.7448 32.6718C35.8708 32.6474 35.9938 32.6094 36.1116 32.5584L36.12 32.557Z" fill="#F0F0F0"/>
<path d="M35.9368 45.7113C35.9774 45.6692 36.0313 45.6425 36.0894 45.6357C36.1275 45.6401 36.1631 45.6571 36.1905 45.6839C36.2179 45.7108 36.2355 45.7461 36.2406 45.7841C36.2488 45.8604 36.2392 45.9376 36.2126 46.0095C36.0908 46.4141 34.7328 49.3471 34.4192 48.8207C34.2344 48.5085 34.6894 47.4781 34.8238 47.1855C35.0823 46.6185 35.4623 46.1152 35.9368 45.7113Z" fill="#F0F0F0"/>
<path d="M35.1246 31.444C35.2123 31.1956 35.3622 30.9739 35.56 30.8C35.7742 30.6446 36.12 30.6334 36.274 30.8476C36.449 31.087 36.274 31.451 36.0066 31.5784C35.7392 31.7058 35.427 31.6666 35.133 31.626C35.133 31.5826 35.133 31.5392 35.126 31.4958L35.1246 31.444Z" fill="#E6E6E6"/>
<path d="M36.0736 53.5568C34.6187 53.8047 33.1325 53.8047 31.6776 53.5568L29.9682 48.5168H37.7844L36.0736 53.5568Z" fill="#F0F0F0"/>
<path d="M35.0826 15.8171C36.6855 15.8171 37.9848 14.5177 37.9848 12.9149C37.9848 11.3121 36.6855 10.0127 35.0826 10.0127C33.4798 10.0127 32.1804 11.3121 32.1804 12.9149C32.1804 14.5177 33.4798 15.8171 35.0826 15.8171Z" fill="#E0E0E0"/>
<path d="M37.7535 13.2596C38.0103 11.6775 36.9359 10.1867 35.3538 9.92993C33.7717 9.67312 32.2809 10.7475 32.0241 12.3296C31.7673 13.9118 32.8417 15.4025 34.4238 15.6593C36.0059 15.9162 37.4967 14.8418 37.7535 13.2596Z" fill="#EBEBEB"/>
<path opacity="0.8" d="M37.216 12.8128C37.216 13.2735 37.0794 13.7239 36.8234 14.107C36.5674 14.4901 36.2036 14.7887 35.7779 14.965C35.3522 15.1413 34.8838 15.1875 34.4319 15.0976C33.98 15.0077 33.5649 14.7858 33.2391 14.46C32.9133 14.1342 32.6915 13.7191 32.6016 13.2672C32.5117 12.8153 32.5578 12.3469 32.7342 11.9213C32.9105 11.4956 33.2091 11.1317 33.5922 10.8758C33.9753 10.6198 34.4257 10.4832 34.8864 10.4832C35.5043 10.4832 36.0968 10.7286 36.5337 11.1655C36.9706 11.6024 37.216 12.1949 37.216 12.8128Z" fill="white"/>
<path d="M34.7606 13.0326C34.7165 12.9882 34.6918 12.9281 34.692 12.8655C34.6921 12.8029 34.717 12.7429 34.7613 12.6987C34.8055 12.6544 34.8655 12.6295 34.9281 12.6294C34.9906 12.6293 35.0507 12.6539 35.0952 12.698C35.1173 12.7199 35.1348 12.746 35.1469 12.7748C35.1589 12.8035 35.1651 12.8343 35.1652 12.8655C35.1652 12.8967 35.1591 12.9275 35.1472 12.9563C35.1353 12.9851 35.1179 13.0113 35.0959 13.0333C35.0738 13.0553 35.0477 13.0728 35.0189 13.0847C34.9901 13.0966 34.9592 13.1027 34.9281 13.1026C34.8969 13.1025 34.8661 13.0963 34.8373 13.0843C34.8086 13.0723 34.7825 13.0547 34.7606 13.0326Z" fill="#E0E0E0"/>
<path d="M34.8867 12.7847L36.2615 12.7427L36.2657 12.8855L35.0197 12.9233L34.8853 15.0905L34.7439 15.0821L34.8867 12.7847Z" fill="#E0E0E0"/>
<path d="M34.9999 59.7814C49.9914 59.7814 62.1445 59.0719 62.1445 58.1966C62.1445 57.3214 49.9914 56.6118 34.9999 56.6118C20.0083 56.6118 7.85529 57.3214 7.85529 58.1966C7.85529 59.0719 20.0083 59.7814 34.9999 59.7814Z" fill="#F5F5F5"/>
<path d="M60.2488 50.8074L60.96 39.487C61.0226 38.4914 60.8805 37.4936 60.5425 36.555C60.2045 35.6165 59.6778 34.7571 58.9948 34.03C58.3119 33.3028 57.4872 32.7233 56.5717 32.3272C55.6562 31.9311 54.6692 31.7268 53.6716 31.7268C51.8063 31.7271 50.0119 32.4411 48.6563 33.7224C47.3008 35.0038 46.487 36.7553 46.3818 38.6176L45.6398 51.8392H59.1498C59.4298 51.8391 59.6993 51.7323 59.9034 51.5407C60.1075 51.349 60.231 51.0868 60.2488 50.8074Z" fill="#407BFF"/>
<path opacity="0.1" d="M60.274 50.4001L60.96 39.4899C61.0226 38.4943 60.8805 37.4965 60.5425 36.5579C60.2045 35.6194 59.6778 34.76 58.9948 34.0329C58.3119 33.3058 57.4872 32.7263 56.5717 32.3301C55.6562 31.934 54.6692 31.7297 53.6716 31.7297C51.8063 31.73 50.0119 32.444 48.6563 33.7254C47.3008 35.0067 46.487 36.7582 46.3818 38.6205L45.6398 51.8393H58.7424C59.1325 51.838 59.5076 51.6888 59.7919 51.4216C60.0762 51.1545 60.2485 50.7894 60.274 50.4001Z" fill="black"/>
<path d="M58.0565 51.8392L58.8321 39.487C58.8944 38.4915 58.7522 37.4937 58.4141 36.5552C58.076 35.6168 57.5493 34.7575 56.8664 34.0304C56.1835 33.3033 55.359 32.7238 54.4435 32.3276C53.5281 31.9314 52.5412 31.727 51.5437 31.7268C49.6783 31.7267 47.8836 32.4407 46.528 33.7221C45.1724 35.0035 44.3587 36.7552 44.2539 38.6176L43.5077 51.8392H58.0565Z" fill="#407BFF"/>
<path d="M58.2889 53.9658H58.4751C58.5253 53.9631 58.5729 53.9425 58.6093 53.9079C58.6457 53.8733 58.6686 53.8268 58.6739 53.7768L58.9539 51.8406H57.8199L58.0999 53.7768C58.105 53.8251 58.1266 53.8703 58.161 53.9046C58.1954 53.939 58.2405 53.9606 58.2889 53.9658Z" fill="#407BFF"/>
<path opacity="0.7" d="M58.2889 53.9658H58.4751C58.5253 53.9631 58.5729 53.9425 58.6093 53.9079C58.6457 53.8733 58.6686 53.8268 58.6739 53.7768L58.9539 51.8406H57.8199L58.0999 53.7768C58.105 53.8251 58.1266 53.8703 58.161 53.9046C58.1954 53.939 58.2405 53.9606 58.2889 53.9658Z" fill="white"/>
<path d="M39.998 53.9658H40.166C40.2137 53.9609 40.258 53.9391 40.2911 53.9045C40.3242 53.8699 40.3439 53.8246 40.3466 53.7768L40.6 51.8406H39.5696L39.8202 53.7768C39.8229 53.8242 39.8422 53.8691 39.8747 53.9037C39.9072 53.9383 39.9509 53.9602 39.998 53.9658Z" fill="#407BFF"/>
<path opacity="0.5" d="M39.998 53.9658H40.166C40.2137 53.9609 40.258 53.9391 40.2911 53.9045C40.3242 53.8699 40.3439 53.8246 40.3466 53.7768L40.6 51.8406H39.5696L39.8202 53.7768C39.8229 53.8242 39.8422 53.8691 39.8747 53.9037C39.9072 53.9383 39.9509 53.9602 39.998 53.9658Z" fill="white"/>
<path d="M45.2631 53.9658H45.4325C45.4802 53.9609 45.5245 53.9391 45.5576 53.9045C45.5907 53.8699 45.6104 53.8246 45.6131 53.7768L45.8623 51.8406H44.8333L45.0797 53.7768C45.0825 53.825 45.1026 53.8707 45.1363 53.9054C45.17 53.9401 45.215 53.9615 45.2631 53.9658Z" fill="#407BFF"/>
<path opacity="0.7" d="M45.2631 53.9658H45.4325C45.4802 53.9609 45.5245 53.9391 45.5576 53.9045C45.5907 53.8699 45.6104 53.8246 45.6131 53.7768L45.8623 51.8406H44.8333L45.0797 53.7768C45.0825 53.825 45.1026 53.8707 45.1363 53.9054C45.17 53.9401 45.215 53.9615 45.2631 53.9658Z" fill="white"/>
<path d="M52.619 53.9658H52.8052C52.8554 53.9628 52.903 53.9423 52.9397 53.9077C52.9763 53.8731 52.9995 53.8268 53.0054 53.7768L53.2854 51.8406H52.15L52.43 53.7768C52.4349 53.8252 52.4564 53.8705 52.4908 53.9049C52.5252 53.9394 52.5705 53.9609 52.619 53.9658Z" fill="#407BFF"/>
<path opacity="0.5" d="M52.619 53.9658H52.8052C52.8554 53.9628 52.903 53.9423 52.9397 53.9077C52.9763 53.8731 52.9995 53.8268 53.0054 53.7768L53.2854 51.8406H52.15L52.43 53.7768C52.4349 53.8252 52.4564 53.8705 52.4908 53.9049C52.5252 53.9394 52.5705 53.9609 52.619 53.9658Z" fill="white"/>
<path d="M46.4548 47.18H41.4764L41.1474 42.3808L41.076 41.3504L41.0438 40.8758C41.0349 40.7513 41.0185 40.6274 40.9948 40.5048C40.9948 40.4782 40.9836 40.4488 40.978 40.4222C40.9751 40.4021 40.9699 40.3824 40.9626 40.3634C40.8285 39.8743 40.5672 39.4294 40.2052 39.074C39.7876 38.6615 39.2355 38.413 38.6498 38.374H43.3328C43.3832 38.374 43.435 38.374 43.4868 38.374C44.1217 38.3768 44.7303 38.6281 45.1822 39.074C45.5446 39.4293 45.8064 39.8742 45.941 40.3634C45.9483 40.3824 45.9535 40.4021 45.9564 40.4222C45.9893 40.5716 46.0113 40.7232 46.0222 40.8758L46.0544 41.3504L46.4548 47.18Z" fill="#407BFF"/>
<path opacity="0.1" d="M46.4548 47.18H41.4764L41.1474 42.3808L41.076 41.3504L41.0438 40.8758C41.0349 40.7513 41.0185 40.6274 40.9948 40.5048C40.9948 40.4782 40.9836 40.4488 40.978 40.4222C40.9751 40.4021 40.9699 40.3824 40.9626 40.3634C40.8285 39.8743 40.5672 39.4294 40.2052 39.074C39.7876 38.6615 39.2355 38.413 38.6498 38.374H43.3328C43.3832 38.374 43.435 38.374 43.4868 38.374C44.1217 38.3768 44.7303 38.6281 45.1822 39.074C45.5446 39.4293 45.8064 39.8742 45.941 40.3634C45.9483 40.3824 45.9535 40.4021 45.9564 40.4222C45.9893 40.5716 46.0113 40.7232 46.0222 40.8758L46.0544 41.3504L46.4548 47.18Z" fill="black"/>
<g opacity="0.1">
<path d="M50.3998 44.6179H52.399C52.8862 44.6179 53.2796 44.9259 53.2796 45.3053V46.4869C53.2796 46.8677 52.8862 47.1743 52.399 47.1743H50.3998V44.6179Z" fill="black"/>
</g>
<path d="M42.2364 47.1743H51.0424C51.4615 47.1743 51.8012 46.8346 51.8012 46.4155V45.3753C51.8012 44.9562 51.4615 44.6165 51.0424 44.6165H42.2364C41.8173 44.6165 41.4776 44.9562 41.4776 45.3753V46.4155C41.4776 46.8346 41.8173 47.1743 42.2364 47.1743Z" fill="#407BFF"/>
<path d="M63 41.1979C63.0012 41.8673 62.7656 42.5155 62.3349 43.0279C61.9042 43.5404 61.3062 43.8839 60.6466 43.9979L60.1356 50.8201C60.0908 51.3997 59.6694 51.8435 59.1654 51.8435H53.6746C54.1786 51.8435 54.5986 51.3997 54.6434 50.8201L54.9234 47.1801L55.16 43.9937C55.5915 43.9196 55.9999 43.7462 56.353 43.4872C56.706 43.2282 56.994 42.8907 57.1942 42.5013C57.2217 42.4519 57.2465 42.4009 57.2684 42.3487C57.4302 41.9867 57.5132 41.5944 57.512 41.1979C57.5117 41.0037 57.492 40.81 57.4532 40.6197C57.4378 40.5441 57.4182 40.4685 57.3972 40.3943C57.2975 40.0609 57.1381 39.7483 56.9268 39.4717C56.6618 39.1267 56.3212 38.847 55.9312 38.6543C55.5411 38.4616 55.1121 38.3609 54.677 38.3601H60.1678C60.6079 38.3585 61.0421 38.4612 61.4348 38.6597C61.8187 38.8508 62.1539 39.1271 62.4148 39.4675C62.7958 39.9638 63.0016 40.5723 63 41.1979Z" fill="#407BFF"/>
<path opacity="0.1" d="M63 41.1979C63.0012 41.8673 62.7656 42.5155 62.3349 43.0279C61.9042 43.5404 61.3062 43.8839 60.6466 43.9979L60.1356 50.8201C60.0908 51.3997 59.6694 51.8435 59.1654 51.8435H53.6746C54.1786 51.8435 54.5986 51.3997 54.6434 50.8201L54.9234 47.1801L55.16 43.9937C55.5915 43.9196 55.9999 43.7462 56.353 43.4872C56.706 43.2282 56.994 42.8907 57.1942 42.5013C57.2217 42.4519 57.2465 42.4009 57.2684 42.3487C57.4302 41.9867 57.5132 41.5944 57.512 41.1979C57.5117 41.0037 57.492 40.81 57.4532 40.6197C57.4378 40.5441 57.4182 40.4685 57.3972 40.3943C57.2975 40.0609 57.1381 39.7483 56.9268 39.4717C56.6618 39.1267 56.3212 38.847 55.9312 38.6543C55.5411 38.4616 55.1121 38.3609 54.677 38.3601H60.1678C60.6079 38.3585 61.0421 38.4612 61.4348 38.6597C61.8187 38.8508 62.1539 39.1271 62.4148 39.4675C62.7958 39.9638 63.0016 40.5723 63 41.1979Z" fill="black"/>
<path d="M57.5135 41.1993C57.5135 42.5993 56.5909 43.7655 55.3799 43.9993L54.9123 50.8201C54.8717 51.3997 54.4923 51.8449 54.0331 51.8449H39.3695C38.9131 51.8449 38.5295 51.3997 38.4903 50.8201L38.0213 43.9867C36.8341 43.7375 35.9367 42.5867 35.9367 41.2035C35.9339 40.6228 36.0987 40.0536 36.4113 39.5641C36.6478 39.1909 36.9735 38.8825 37.3591 38.6667C37.71 38.4694 38.1059 38.3657 38.5085 38.3657C39.1436 38.3695 39.7523 38.6206 40.2053 39.0657C40.5671 39.4206 40.8285 39.865 40.9627 40.3537C40.9699 40.3737 40.9751 40.3943 40.9781 40.4153C41.0112 40.5642 41.0332 40.7154 41.0439 40.8675L41.0775 41.3421L41.4765 47.1801H51.9261L52.3587 40.8801C52.4203 39.9897 52.8543 39.2477 53.4563 38.8963C53.8367 38.5919 54.3015 38.4116 54.7877 38.3797C54.8388 38.3746 54.8903 38.3722 54.9417 38.3727C55.3326 38.3705 55.7178 38.4668 56.0617 38.6527C56.0724 38.6575 56.0827 38.6631 56.0925 38.6695C56.4475 38.8667 56.7522 39.1431 56.9829 39.4773C57.3304 39.9842 57.5154 40.5848 57.5135 41.1993Z" fill="#407BFF"/>
<path opacity="0.1" d="M51.6839 51.8405H39.3639C38.9075 51.8405 38.5239 51.3953 38.4847 50.8157L38.0157 43.9823C36.8285 43.7331 35.9311 42.5823 35.9311 41.1991C35.9283 40.6184 36.093 40.0492 36.4057 39.5597C36.6422 39.1865 36.9679 38.8781 37.3535 38.6623C37.7044 38.465 38.1002 38.3613 38.5029 38.3613C39.138 38.3651 39.7466 38.6162 40.1997 39.0613C40.5615 39.4162 40.8229 39.8606 40.9571 40.3493C40.9643 40.3693 40.9695 40.3899 40.9725 40.4109C41.0056 40.5598 41.0276 40.711 41.0383 40.8631L41.0719 41.3377L41.4765 47.1799H51.9261L51.6839 51.8405Z" fill="white"/>
<path d="M50.0863 32.4409C49.8427 32.5809 49.6201 32.6971 49.3863 32.8161C49.1525 32.9351 48.9229 33.0443 48.6863 33.1535C48.2159 33.3677 47.7399 33.5735 47.2499 33.7513C46.756 33.935 46.2533 34.0938 45.7435 34.2273C45.2133 34.3698 44.6718 34.4667 44.1251 34.5171L44.0089 34.5283H43.9543C43.4601 34.4709 43.0219 34.3883 42.5823 34.2903C42.1427 34.1923 41.7073 34.0957 41.2761 33.9851C40.8449 33.8745 40.4165 33.7611 39.9881 33.6379C39.5597 33.5147 39.1355 33.3873 38.7113 33.2431L38.9059 32.2715C39.7865 32.3275 40.6657 32.4115 41.5365 32.5025L42.8371 32.6327C43.2655 32.6747 43.7037 32.7111 44.0873 32.7251H43.9179C44.3573 32.6468 44.7905 32.5373 45.2143 32.3975C45.6525 32.2575 46.0907 32.0979 46.5289 31.9103C46.9671 31.7227 47.4011 31.5295 47.8323 31.3237C48.0535 31.2229 48.2677 31.1165 48.4777 31.0115C48.6877 30.9065 48.9117 30.7945 49.1035 30.6951L50.0863 32.4409Z" fill="#263238"/>
<path opacity="0.1" d="M50.0863 32.4409C49.8427 32.5809 49.6201 32.6971 49.3863 32.8161C49.1525 32.9351 48.9229 33.0443 48.6863 33.1535C48.2159 33.3677 47.7399 33.5735 47.2499 33.7513C46.756 33.935 46.2533 34.0938 45.7435 34.2273C45.2133 34.3698 44.6718 34.4667 44.1251 34.5171L44.0089 34.5283H43.9543C43.4601 34.4709 43.0219 34.3883 42.5823 34.2903C42.1427 34.1923 41.7073 34.0957 41.2761 33.9851C40.8449 33.8745 40.4165 33.7611 39.9881 33.6379C39.5597 33.5147 39.1355 33.3873 38.7113 33.2431L38.9059 32.2715C39.7865 32.3275 40.6657 32.4115 41.5365 32.5025L42.8371 32.6327C43.2655 32.6747 43.7037 32.7111 44.0873 32.7251H43.9179C44.3573 32.6468 44.7905 32.5373 45.2143 32.3975C45.6525 32.2575 46.0907 32.0979 46.5289 31.9103C46.9671 31.7227 47.4011 31.5295 47.8323 31.3237C48.0535 31.2229 48.2677 31.1165 48.4777 31.0115C48.6877 30.9065 48.9117 30.7945 49.1035 30.6951L50.0863 32.4409Z" fill="black"/>
<path d="M38.7282 31.7381C38.5213 31.5929 38.2926 31.4813 38.0506 31.4077L37.688 32.8231L38.7744 33.2795L38.8976 33.1283C38.9812 33.0273 39.0433 32.9104 39.0801 32.7846C39.117 32.6588 39.1278 32.5269 39.1119 32.3968C39.0961 32.2667 39.0539 32.1412 38.9879 32.0279C38.9219 31.9147 38.8336 31.8161 38.7282 31.7381Z" fill="#FFC3BD"/>
<path d="M37.6881 32.8231L38.0507 31.4077L37.0371 30.8547L36.7319 31.8515L37.6881 32.8231Z" fill="#FFC3BD"/>
<path opacity="0.2" d="M46.6773 33.88H46.7165H46.7333C47.2681 33.8226 48.8403 33.558 49.9771 32.4366C49.8077 32.109 49.5753 31.8556 49.2911 31.7982C48.5071 31.6498 47.5467 32.2112 46.6773 33.88Z" fill="black"/>
<path d="M47.6002 41.1978C48.9414 37.576 48.0594 34.2454 48.2274 32.4016C48.2686 31.9471 48.4568 31.5184 48.7635 31.1804C49.0702 30.8425 49.4786 30.6136 49.927 30.5284C50.8426 30.352 51.9752 30.1532 53.0546 30.0076C53.3562 29.966 53.6632 29.9901 53.9547 30.0783C54.2461 30.1665 54.515 30.3166 54.743 30.5185C54.9709 30.7204 55.1525 30.9692 55.2752 31.2478C55.398 31.5265 55.459 31.8284 55.4542 32.1328C55.3604 37.5928 53.6104 41.1978 53.6104 41.1978L50.7824 41.1852L47.6002 41.1978Z" fill="#407BFF"/>
<path opacity="0.8" d="M47.6002 41.1978C48.9414 37.576 48.0594 34.2454 48.2274 32.4016C48.2686 31.9471 48.4568 31.5184 48.7635 31.1804C49.0702 30.8425 49.4786 30.6136 49.927 30.5284C50.8426 30.352 51.9752 30.1532 53.0546 30.0076C53.3562 29.966 53.6632 29.9901 53.9547 30.0783C54.2461 30.1665 54.515 30.3166 54.743 30.5185C54.9709 30.7204 55.1525 30.9692 55.2752 31.2478C55.398 31.5265 55.459 31.8284 55.4542 32.1328C55.3604 37.5928 53.6104 41.1978 53.6104 41.1978L50.7824 41.1852L47.6002 41.1978Z" fill="white"/>
<path d="M36.8705 53.5557L36.5121 55.9119H37.6503L38.3979 53.5557H36.8705Z" fill="#FFC3BD"/>
<path d="M36.3664 55.3868L37.8882 55.3504C37.9001 55.349 37.9121 55.3502 37.9235 55.3538C37.935 55.3574 37.9455 55.3633 37.9545 55.3712C37.9634 55.3791 37.9707 55.3889 37.9756 55.3997C37.9806 55.4106 37.9832 55.4224 37.9834 55.4344V56.5544C37.9766 56.6165 37.9473 56.6739 37.9012 56.7159C37.8551 56.7579 37.7952 56.7816 37.7328 56.7826C37.2036 56.7826 36.9516 56.763 36.2824 56.7826C35.5699 56.7804 34.8582 56.7336 34.1516 56.6426C33.6098 56.5502 33.7568 56.042 34.0018 56.0336C35.1078 55.993 35.7266 55.762 36.1242 55.4736C36.1935 55.4194 36.2784 55.3889 36.3664 55.3868Z" fill="#263238"/>
<path opacity="0.2" d="M36.7263 54.5007L36.8705 53.5557H38.3979L38.0311 54.7345L36.7263 54.5007Z" fill="black"/>
<path d="M46.9001 40.3493C46.9001 40.3493 37.6391 40.4417 37.4949 43.3747C37.2905 47.5915 36.5779 54.0147 36.5779 54.0147L38.3237 54.4949C38.3237 54.4949 40.8157 48.1207 40.9123 44.8265C43.5177 44.3085 50.2139 44.8265 51.0007 43.1157C51.3852 42.245 51.489 41.2761 51.2975 40.3438L46.9001 40.3493Z" fill="#407BFF"/>
<path opacity="0.6" d="M46.9001 40.3493C46.9001 40.3493 37.6391 40.4417 37.4949 43.3747C37.2905 47.5915 36.5779 54.0147 36.5779 54.0147L38.3237 54.4949C38.3237 54.4949 40.8157 48.1207 40.9123 44.8265C43.5177 44.3085 50.2139 44.8265 51.0007 43.1157C51.3852 42.245 51.489 41.2761 51.2975 40.3438L46.9001 40.3493Z" fill="black"/>
<path d="M45.0185 54.4669L45.6359 56.0657H46.8847L46.4549 54.3843L45.0185 54.4669Z" fill="#FFC3BD"/>
<path opacity="0.2" d="M46.5712 54.838L46.329 53.6074L44.7512 53.8034L45.1558 54.873L46.5712 54.838Z" fill="black"/>
<path d="M45.2968 55.5367H46.8914C46.9172 55.5347 46.9427 55.543 46.9623 55.5598C46.982 55.5766 46.9942 55.6005 46.9964 55.6262L47.0734 56.8204C47.0719 56.8851 47.0451 56.9465 46.9988 56.9916C46.9524 57.0366 46.8902 57.0616 46.8256 57.0613C46.2656 57.0515 46.0052 57.0207 45.3038 57.0207C44.874 57.0207 44.0032 57.0627 43.4082 57.0627C42.8132 57.0627 42.83 56.5027 43.0806 56.4593C44.2146 56.2325 44.6528 55.9203 45.0518 55.6193C45.1227 55.5666 45.2085 55.5377 45.2968 55.5367Z" fill="#263238"/>
<path d="M49.3904 40.3493C49.3904 40.3493 40.9904 40.9191 41.1976 43.8493C41.423 47.0581 44.7872 54.4991 44.7872 54.4991H46.4798C46.4798 54.4991 45.3598 47.7483 44.8446 44.4779C47.2134 44.4779 52.7028 44.8349 53.4924 43.1199C53.8754 42.2487 53.9781 41.28 53.7864 40.3479L49.3904 40.3493Z" fill="#407BFF"/>
<path opacity="0.5" d="M49.3904 40.3493C49.3904 40.3493 40.9904 40.9191 41.1976 43.8493C41.423 47.0581 44.7872 54.4991 44.7872 54.4991H46.4798C46.4798 54.4991 45.3598 47.7483 44.8446 44.4779C47.2134 44.4779 52.7028 44.8349 53.4924 43.1199C53.8754 42.2487 53.9781 41.28 53.7864 40.3479L49.3904 40.3493Z" fill="black"/>
<path d="M50.6631 28.4789C50.8563 29.2265 50.9165 30.1589 49.8721 30.5439C49.5823 31.0059 49.4409 31.4931 50.5567 31.3195C51.4449 31.2047 52.2532 30.7476 52.8093 30.0455C52.1415 29.4603 52.2633 27.6655 52.4327 26.6533L50.6631 28.4789Z" fill="#FFC3BD"/>
<path d="M50.5398 29.8396C49.5808 30.0034 48.7926 30.7454 48.3698 31.6204C47.947 32.4954 47.8448 33.4922 47.8532 34.4652C47.8616 35.4382 47.9722 36.407 47.9456 37.3786C47.9162 38.4986 47.646 39.2924 47.2596 40.348C47.2596 40.5986 47.639 40.74 47.9596 40.8058C48.6288 39.3456 49.0684 37.9484 49.0222 36.344C48.9872 35.1792 48.9718 33.852 49.1622 32.704C49.3526 31.556 50.726 30.0566 50.6602 29.8494L50.5398 29.8396Z" fill="#263238"/>
<path opacity="0.3" d="M51.478 29.0275C51.3775 29.1022 51.2629 29.1558 51.1412 29.1851C51.0195 29.2145 50.8931 29.219 50.7696 29.1983C50.7719 29.0165 50.7588 28.8348 50.7304 28.6551L51.8896 27.7031C51.915 27.8268 51.9313 27.9522 51.9386 28.0783C51.9511 28.2629 51.9152 28.4476 51.8344 28.6141C51.7537 28.7806 51.6308 28.9231 51.478 29.0275Z" fill="black"/>
<path d="M49.7449 24.0576C48.5199 24.7506 48.5073 26.7092 48.8853 27.8376C48.9806 28.1337 49.1555 28.3979 49.3909 28.6013C49.6262 28.8047 49.913 28.9395 50.2197 28.9909C50.5265 29.0424 50.8415 29.0085 51.1304 28.893C51.4192 28.7775 51.6707 28.5848 51.8575 28.336C52.4567 27.5786 52.3698 26.8142 52.3404 25.4982C52.311 24.1822 50.9713 23.366 49.7449 24.0576Z" fill="#FFC3BD"/>
<path opacity="0.2" d="M50.1397 27.5801C49.7449 27.7495 49.3123 27.9693 48.9133 27.9217C49.0206 28.2055 49.2021 28.4552 49.4389 28.6449C49.6756 28.8346 49.9589 28.9573 50.2592 29.0002C50.5595 29.0431 50.8658 29.0046 51.1462 28.8888C51.4266 28.773 51.6708 28.5841 51.8533 28.3417C52.3475 27.7201 52.5001 27.3001 52.3601 26.1689C51.5929 27.0677 50.9839 27.2161 50.1397 27.5801Z" fill="black"/>
<path d="M51.324 24.5C51.1969 24.7066 51.1402 24.949 51.1627 25.1907C51.1852 25.4323 51.2855 25.6601 51.4486 25.8398C51.5592 25.956 51.695 26.0456 51.8014 26.1646C51.9674 26.3513 52.0538 26.5954 52.0422 26.845C52.0671 26.6844 52.1471 26.5375 52.2684 26.4295C52.3898 26.3214 52.5449 26.259 52.7072 26.2528C52.5411 26.767 52.375 27.2804 52.2088 27.7928C52.5377 27.6394 52.8219 27.4045 53.0346 27.1105C53.2472 26.8165 53.3813 26.4731 53.424 26.1128C53.5304 25.1188 52.304 22.9894 51.324 24.5Z" fill="#263238"/>
<path d="M48.465 24.5686C48.3713 24.6727 48.3045 24.7982 48.2704 24.934C48.254 25.0013 48.2587 25.072 48.2837 25.1366C48.3087 25.2012 48.353 25.2566 48.4104 25.2952C48.5165 25.338 48.6338 25.3439 48.7436 25.312L49.8636 25.1174C50.5048 25.0054 51.146 24.8948 51.7788 24.7422C52.0588 24.675 52.3822 24.5672 52.4942 24.2984C52.8568 23.4234 51.3084 23.31 50.7904 23.3338C49.9084 23.38 49.0166 23.8868 48.465 24.5686Z" fill="#263238"/>
<path d="M52.5391 26.0288C52.1723 26.1114 52.0155 26.6392 52.0253 26.978C52.0253 27.363 52.3053 27.6136 52.6301 27.3812C52.8713 27.2019 53.0355 26.9377 53.0893 26.642C53.1551 26.2794 52.9073 25.9462 52.5391 26.0288Z" fill="#FFC3BD"/>
<path d="M49.9479 27.3658C49.8923 27.4029 49.8293 27.4272 49.7632 27.4371C49.6972 27.447 49.6297 27.4423 49.5657 27.4232C49.7057 27.1068 49.6889 27.1782 49.7323 26.6406L49.9479 27.3658Z" fill="#ED847E"/>
<path d="M50.5933 25.6201C50.4883 25.5025 50.2013 25.4577 50.0459 25.4801C50.0301 25.4821 50.0142 25.478 50.0015 25.4687C49.9887 25.4593 49.98 25.4453 49.9773 25.4297C49.9752 25.4129 49.9795 25.3959 49.9893 25.3822C49.9992 25.3684 50.0139 25.3589 50.0305 25.3555C50.2265 25.3261 50.5527 25.3849 50.6857 25.5319C50.6972 25.5437 50.7037 25.5595 50.7037 25.576C50.7037 25.5925 50.6972 25.6083 50.6857 25.6201C50.6778 25.6282 50.6683 25.6344 50.6577 25.6383C50.6463 25.6418 50.6342 25.6419 50.6228 25.6387C50.6114 25.6355 50.6011 25.629 50.5933 25.6201Z" fill="#263238"/>
<path d="M48.7815 25.8818C48.7684 25.8727 48.7593 25.8588 48.7561 25.8432C48.753 25.8275 48.7561 25.8112 48.7647 25.7978C48.8138 25.7094 48.8827 25.6337 48.966 25.5766C49.0494 25.5195 49.1448 25.4826 49.2449 25.4688C49.2526 25.4686 49.2602 25.4699 49.2673 25.4727C49.2745 25.4755 49.2809 25.4797 49.2864 25.4851C49.2919 25.4904 49.2963 25.4968 49.2992 25.5039C49.3022 25.5109 49.3037 25.5185 49.3037 25.5262C49.3045 25.5432 49.2987 25.5598 49.2875 25.5726C49.2762 25.5854 49.2605 25.5933 49.2435 25.5948C49.1646 25.6074 49.0896 25.6377 49.0241 25.6836C48.9586 25.7294 48.9044 25.7895 48.8655 25.8594C48.8605 25.8685 48.8532 25.8762 48.8444 25.8818C48.8356 25.8874 48.8255 25.8908 48.8151 25.8916C48.8031 25.8925 48.7911 25.8891 48.7815 25.8818Z" fill="#263238"/>
<path d="M49.84 27.9355C49.9747 28.1069 50.0986 28.2865 50.211 28.4731L50.2978 28.4367C50.6926 28.2659 50.8046 28.0279 50.8102 27.8165C50.8054 27.6483 50.7535 27.4849 50.6604 27.3447C50.5204 27.5869 50.1662 27.7801 49.973 27.8739C49.8904 27.9145 49.84 27.9355 49.84 27.9355Z" fill="#2E353A"/>
<path d="M49.9702 27.8739L50.0276 27.9523C50.0434 27.9734 50.0657 27.9885 50.0911 27.9954C50.1165 28.0022 50.1434 28.0004 50.1676 27.9901C50.4588 27.8501 50.652 27.7101 50.7276 27.5519C50.7345 27.537 50.7381 27.5208 50.7381 27.5043C50.7381 27.4879 50.7345 27.4716 50.7276 27.4567C50.7089 27.4179 50.6874 27.3804 50.6632 27.3447C50.5162 27.5869 50.1634 27.7801 49.9702 27.8739Z" fill="white"/>
<path d="M50.2952 28.4368C50.69 28.266 50.802 28.0281 50.8076 27.8167C50.6576 27.8858 50.5244 27.9866 50.417 28.1121C50.343 28.2047 50.3004 28.3184 50.2952 28.4368Z" fill="#DE5753"/>
<path d="M49.2311 26.3201C49.1625 26.3327 49.1247 26.4307 49.1443 26.5357C49.1639 26.6407 49.2381 26.7163 49.3067 26.7023C49.3753 26.6883 49.4131 26.5931 49.3935 26.4881C49.3739 26.3831 49.2997 26.3201 49.2311 26.3201Z" fill="#263238"/>
<path d="M50.4321 26.1269C50.3635 26.1395 50.3257 26.2361 50.3453 26.3425C50.3649 26.4489 50.4391 26.5231 50.5077 26.5091C50.5763 26.4951 50.6141 26.3985 50.5945 26.2935C50.5749 26.1885 50.5007 26.1143 50.4321 26.1269Z" fill="#263238"/>
<path opacity="0.9" d="M48.7017 26.8885L49.5851 26.6897L49.6005 27.0649L48.7787 27.2609L48.7017 26.8885Z" fill="white"/>
<g opacity="0.8">
<path opacity="0.9" d="M49.8539 26.6308L49.9589 26.9752L51.0929 26.7316L51.0257 26.334L49.8539 26.6308Z" fill="white"/>
</g>
<path d="M49.5908 26.8283L49.5852 26.6897L49.854 26.6309L49.8932 26.7611L49.5908 26.8283Z" fill="#263238"/>
<path d="M49.2689 41.0369C49.2689 41.0369 50.8635 41.6543 51.2289 41.7747C51.649 41.9392 52.091 42.0406 52.5407 42.0757C52.7687 42.0911 52.9974 42.0576 53.2115 41.9777C53.4256 41.8978 53.6203 41.7733 53.7825 41.6123C54.1633 41.2063 54.2823 40.5903 54.3817 40.0121C54.6729 38.3144 54.9651 36.6167 55.2581 34.9189C55.3981 34.0789 55.7663 32.8189 55.7355 32.3443C55.6781 31.4623 55.1167 30.4207 53.6873 29.8481C53.1273 29.6255 52.5827 29.7081 52.1151 30.2681C51.8351 30.6013 51.0203 31.4049 50.8201 32.8203C50.6605 33.9543 50.4113 35.4229 50.4267 36.5751C50.4449 38.0899 49.8401 39.9995 49.2689 41.0369Z" fill="#263238"/>
<path d="M55.6571 31.8781C55.8195 33.3537 55.0033 37.0735 54.8465 37.2975C54.1773 39.4549 52.3391 38.2915 52.0731 38.1921C51.6097 38.0213 51.1379 37.6867 50.6969 37.4641C49.8415 37.0441 49.0309 36.6969 48.2357 36.1691L48.6837 35.2843C49.5559 35.5811 52.0241 36.2195 52.4315 36.3189C52.6079 36.3651 53.2953 36.7249 53.2883 36.2503C53.3849 36.0921 53.5193 33.0107 53.8147 31.9215C53.8484 31.7993 53.907 31.6854 53.9869 31.5869L54.0135 31.5533C54.1213 31.4182 54.2642 31.3153 54.4266 31.2558C54.5889 31.1964 54.7644 31.1826 54.934 31.2161C55.1036 31.2497 55.2608 31.3291 55.3883 31.4459C55.5158 31.5626 55.6088 31.7121 55.6571 31.8781Z" fill="#263238"/>
<path opacity="0.1" d="M55.6571 31.8781C55.8195 33.3537 55.0033 37.0735 54.8465 37.2975C54.1773 39.4549 52.3391 38.2915 52.0731 38.1921C51.6097 38.0213 51.1379 37.6867 50.6969 37.4641C49.8415 37.0441 49.0309 36.6969 48.2357 36.1691L48.6837 35.2843C49.5559 35.5811 52.0241 36.2195 52.4315 36.3189C52.6079 36.3651 53.2953 36.7249 53.2883 36.2503C53.3849 36.0921 53.5193 33.0107 53.8147 31.9215C53.8484 31.7993 53.907 31.6854 53.9869 31.5869L54.0135 31.5533C54.1213 31.4182 54.2642 31.3153 54.4266 31.2558C54.5889 31.1964 54.7644 31.1826 54.934 31.2161C55.1036 31.2497 55.2608 31.3291 55.3883 31.4459C55.5158 31.5626 55.6088 31.7121 55.6571 31.8781Z" fill="white"/>
<path d="M48.3334 37.45H44.1894L43.7162 32.0432H47.8602L48.3334 37.45Z" fill="#263238"/>
<path opacity="0.5" d="M48.3334 37.45H44.1894L43.7162 32.0432H47.8602L48.3334 37.45Z" fill="white"/>
<path d="M48.1868 37.4234H44.0428L43.5696 32.0166H47.7136L48.1868 37.4234Z" fill="#407BFF"/>
<path opacity="0.8" d="M48.1868 37.4234H44.0428L43.5696 32.0166H47.7136L48.1868 37.4234Z" fill="white"/>
<path d="M46.543 32.3539H44.8L44.7412 31.6777H46.4828L46.543 32.3539Z" fill="#407BFF"/>
<path d="M44.7412 31.6779L44.912 31.6191H46.7166L46.7418 31.9061L46.6074 32.0615L46.599 32.2967L46.543 32.3541L46.4828 31.6779H44.7412Z" fill="#407BFF"/>
<path opacity="0.5" d="M44.7412 31.6779L44.912 31.6191H46.7166L46.7418 31.9061L46.6074 32.0615L46.599 32.2967L46.543 32.3541L46.4828 31.6779H44.7412Z" fill="black"/>
<path d="M49.0142 35.5769L49.108 36.0823C48.884 36.6661 47.6002 36.5121 47.6002 36.5121V35.0183L48.7328 35.2815C48.803 35.2987 48.8669 35.3356 48.9167 35.388C48.9666 35.4403 49.0004 35.5059 49.0142 35.5769Z" fill="#FFC3BD"/>
<path d="M47.5973 35.0183L47.6029 36.5149L46.4661 36.5429L46.2057 35.2269L47.5973 35.0183Z" fill="#FFC3BD"/>
<path d="M51.9257 47.18L52.3583 40.88C52.4199 39.9896 52.8539 39.2476 53.4559 38.8962C53.8364 38.5918 54.3011 38.4115 54.7873 38.3796C54.8385 38.3745 54.8899 38.3721 54.9413 38.3726C55.3323 38.3704 55.7174 38.4667 56.0613 38.6526C56.072 38.6574 56.0823 38.663 56.0921 38.6694C56.4472 38.8666 56.7519 39.143 56.9825 39.4772C57.3316 39.9855 57.5172 40.5882 57.5145 41.2048C57.5145 42.6048 56.5919 43.771 55.3809 44.0048L54.9119 50.82C54.8713 51.3996 54.4919 51.8448 54.0327 51.8448H51.6835L51.9257 47.18Z" fill="#407BFF"/>
<path opacity="0.1" d="M51.9257 47.18L52.3583 40.88C52.4199 39.9896 52.8539 39.2476 53.4559 38.8962C53.8364 38.5918 54.3011 38.4115 54.7873 38.3796C54.8385 38.3745 54.8899 38.3721 54.9413 38.3726C55.3323 38.3704 55.7174 38.4667 56.0613 38.6526C56.072 38.6574 56.0823 38.663 56.0921 38.6694C56.4472 38.8666 56.7519 39.143 56.9825 39.4772C57.3316 39.9855 57.5172 40.5882 57.5145 41.2048C57.5145 42.6048 56.5919 43.771 55.3809 44.0048L54.9119 50.82C54.8713 51.3996 54.4919 51.8448 54.0327 51.8448H51.6835L51.9257 47.18Z" fill="white"/>
<path d="M30.5618 17.864V23.7174C30.5618 23.8659 30.5028 24.0083 30.3978 24.1134C30.2928 24.2184 30.1504 24.2774 30.0018 24.2774H24.007L21.865 25.9336C21.8043 25.9795 21.7319 26.0075 21.6561 26.0145C21.5802 26.0214 21.5039 26.0071 21.4358 25.973C21.3677 25.939 21.3105 25.8866 21.2705 25.8217C21.2306 25.7569 21.2096 25.6821 21.2098 25.606V24.2774H20.8752C20.7267 24.2774 20.5843 24.2184 20.4793 24.1134C20.3742 24.0083 20.3152 23.8659 20.3152 23.7174V17.8626C20.3156 17.7897 20.3304 17.7176 20.3588 17.6504C20.3872 17.5832 20.4287 17.5224 20.4808 17.4714C20.5328 17.4203 20.5945 17.3801 20.6622 17.3531C20.7299 17.326 20.8023 17.3127 20.8752 17.3138H30.0116C30.1576 17.3138 30.2975 17.3718 30.4007 17.4749C30.5039 17.5781 30.5618 17.7181 30.5618 17.864Z" stroke="#407BFF" stroke-width="0.158" stroke-miterlimit="10"/>
<path d="M24.948 16.4893H23.8042V16.6293H24.948V16.4893Z" fill="#407BFF"/>
<path d="M19.5999 18.1384H19.4599V17.4482C19.4603 17.1934 19.5618 16.9491 19.7421 16.769C19.9224 16.5889 20.1669 16.4878 20.4217 16.4878H22.9739V16.6278H20.4189C20.2013 16.6282 19.9927 16.7147 19.8387 16.8684C19.6847 17.0221 19.5978 17.2306 19.5971 17.4482L19.5999 18.1384Z" fill="#407BFF"/>
<path d="M27.6879 21.602C27.6271 21.6023 27.5668 21.5901 27.5109 21.566C27.455 21.542 27.4047 21.5066 27.3632 21.4621C27.3216 21.4177 27.2897 21.3651 27.2695 21.3078C27.2492 21.2504 27.2411 21.1894 27.2455 21.1288C27.3953 19.4222 28.7477 19.2654 28.9171 17.325C28.9661 16.765 28.7617 16.555 28.3711 16.555C27.9805 16.555 27.7397 16.7664 27.6907 17.325L27.6627 17.6442C27.6501 17.7884 27.5838 17.9226 27.477 18.0203C27.3702 18.1181 27.2307 18.1722 27.0859 18.172C27.0058 18.1719 26.9265 18.1551 26.8532 18.1228C26.7799 18.0905 26.7141 18.0433 26.66 17.9842C26.6059 17.9251 26.5647 17.8554 26.5389 17.7795C26.5132 17.7036 26.5035 17.6232 26.5105 17.5434L26.5231 17.4034C26.6323 16.1546 27.3085 15.4434 28.5027 15.4434C29.6969 15.4434 30.2471 16.1574 30.1379 17.4034C29.9601 19.4264 28.4831 19.74 28.3571 21.1666C28.3578 21.1735 28.3578 21.1806 28.3571 21.1876C28.3507 21.3007 28.3013 21.4072 28.2191 21.4852C28.1369 21.5633 28.0281 21.607 27.9147 21.6076L27.6879 21.602ZM28.2941 22.7892C28.2815 22.936 28.2142 23.0727 28.1055 23.1722C27.9969 23.2718 27.8549 23.327 27.7075 23.3268C27.6258 23.3269 27.5451 23.31 27.4703 23.2772C27.3955 23.2444 27.3284 23.1963 27.2732 23.1361C27.218 23.0759 27.176 23.0049 27.1498 22.9276C27.1235 22.8502 27.1137 22.7683 27.1209 22.687C27.1336 22.5399 27.201 22.403 27.31 22.3034C27.4189 22.2038 27.5613 22.1488 27.7089 22.1494C27.7904 22.1496 27.8709 22.1668 27.9454 22.1998C28.0199 22.2328 28.0868 22.2808 28.1418 22.341C28.1968 22.4011 28.2387 22.472 28.2649 22.5491C28.2911 22.6262 28.3011 22.708 28.2941 22.7892Z" fill="#407BFF"/>
<path d="M26.11 20.2314H22.89C22.8158 20.2314 22.7446 20.2019 22.6921 20.1494C22.6395 20.0969 22.61 20.0256 22.61 19.9514C22.61 19.8771 22.6395 19.8059 22.6921 19.7534C22.7446 19.7009 22.8158 19.6714 22.89 19.6714H26.11C26.1843 19.6714 26.2555 19.7009 26.308 19.7534C26.3605 19.8059 26.39 19.8771 26.39 19.9514C26.39 20.0256 26.3605 20.0969 26.308 20.1494C26.2555 20.2019 26.1843 20.2314 26.11 20.2314Z" fill="#407BFF"/>
<path d="M25.6649 21.3403H22.8957C22.8214 21.3403 22.7502 21.3108 22.6977 21.2583C22.6452 21.2058 22.6157 21.1345 22.6157 21.0603C22.6157 20.986 22.6452 20.9148 22.6977 20.8623C22.7502 20.8098 22.8214 20.7803 22.8957 20.7803H25.6649C25.7391 20.7803 25.8103 20.8098 25.8629 20.8623C25.9154 20.9148 25.9449 20.986 25.9449 21.0603C25.9449 21.1345 25.9154 21.2058 25.8629 21.2583C25.8103 21.3108 25.7391 21.3403 25.6649 21.3403Z" fill="#407BFF"/>
<path d="M25.2197 22.4475H22.8957C22.8214 22.4475 22.7502 22.418 22.6977 22.3654C22.6452 22.3129 22.6157 22.2417 22.6157 22.1675C22.6157 22.0932 22.6452 22.022 22.6977 21.9695C22.7502 21.917 22.8214 21.8875 22.8957 21.8875H25.2197C25.2939 21.8875 25.3651 21.917 25.4177 21.9695C25.4702 22.022 25.4997 22.0932 25.4997 22.1675C25.4997 22.2417 25.4702 22.3129 25.4177 22.3654C25.3651 22.418 25.2939 22.4475 25.2197 22.4475Z" fill="#407BFF"/>
<path d="M18.6312 45.2913H16.5858C16.0874 45.2913 15.6842 45.6063 15.6842 45.9913V47.2009C15.6842 47.5901 16.0874 47.9009 16.5858 47.9009H18.6312V45.2913Z" fill="#407BFF"/>
<path d="M9.12516 50.9879L8.41396 39.6675C8.35143 38.6721 8.4935 37.6744 8.83142 36.736C9.16934 35.7976 9.69594 34.9385 10.3787 34.2114C11.0615 33.4844 11.8861 32.905 12.8014 32.509C13.7168 32.1129 14.7036 31.9086 15.701 31.9087C17.5665 31.9086 19.3613 32.6225 20.7172 33.9038C22.073 35.1852 22.887 36.9369 22.9922 38.7995L23.737 52.0211H10.22C9.94047 52.0199 9.67188 51.9124 9.46861 51.7206C9.26533 51.5288 9.14256 51.2669 9.12516 50.9879Z" fill="#407BFF"/>
<path opacity="0.1" d="M9.09996 50.5777L8.41396 39.6675C8.35143 38.6721 8.4935 37.6744 8.83142 36.736C9.16934 35.7976 9.69594 34.9385 10.3787 34.2114C11.0615 33.4844 11.8861 32.905 12.8014 32.509C13.7168 32.1129 14.7036 31.9086 15.701 31.9087C17.5665 31.9086 19.3613 32.6225 20.7172 33.9038C22.073 35.1852 22.887 36.9369 22.9922 38.7995L23.737 52.0211H10.64C10.2477 52.0219 9.86998 51.8729 9.5838 51.6047C9.29762 51.3365 9.12457 50.9692 9.09996 50.5777Z" fill="black"/>
<path d="M11.3178 52.0211L10.5422 39.6675C10.4797 38.672 10.6218 37.6742 10.9598 36.7357C11.2978 35.7972 11.8245 34.938 12.5075 34.2109C13.1904 33.4839 14.0151 32.9045 14.9306 32.5086C15.8461 32.1126 16.8331 31.9085 17.8306 31.9087C19.6959 31.9089 21.4904 32.623 22.8459 33.9043C24.2014 35.1857 25.0153 36.9372 25.1204 38.7995L25.8666 52.0211H11.3178Z" fill="#407BFF"/>
<path d="M11.0852 54.1478H10.899C10.8486 54.1446 10.8009 54.1237 10.7644 54.0889C10.7278 54.0541 10.7046 54.0076 10.6988 53.9574L10.4188 52.0212H11.5542L11.2742 53.9574C11.2693 54.0061 11.2479 54.0515 11.2134 54.0862C11.179 54.1208 11.1337 54.1426 11.0852 54.1478Z" fill="#407BFF"/>
<path opacity="0.7" d="M11.0852 54.1478H10.899C10.8486 54.1446 10.8009 54.1237 10.7644 54.0889C10.7278 54.0541 10.7046 54.0076 10.6988 53.9574L10.4188 52.0212H11.5542L11.2742 53.9574C11.2693 54.0061 11.2479 54.0515 11.2134 54.0862C11.179 54.1208 11.1337 54.1426 11.0852 54.1478Z" fill="white"/>
<path d="M29.3764 54.1478H29.207C29.1592 54.1426 29.1148 54.1206 29.0818 54.0857C29.0487 54.0509 29.0291 54.0054 29.0264 53.9574L28.7772 52.0212H29.8062L29.557 53.9574C29.5543 54.0054 29.5346 54.0509 29.5016 54.0857C29.4685 54.1206 29.4241 54.1426 29.3764 54.1478Z" fill="#407BFF"/>
<path opacity="0.5" d="M29.3764 54.1478H29.207C29.1592 54.1426 29.1148 54.1206 29.0818 54.0857C29.0487 54.0509 29.0291 54.0054 29.0264 53.9574L28.7772 52.0212H29.8062L29.557 53.9574C29.5543 54.0054 29.5346 54.0509 29.5016 54.0857C29.4685 54.1206 29.4241 54.1426 29.3764 54.1478Z" fill="white"/>
<path d="M24.1107 54.1478H23.9399C23.8922 54.1426 23.8478 54.1206 23.8147 54.0857C23.7817 54.0509 23.762 54.0054 23.7593 53.9574L23.5087 52.0212H24.5391L24.2899 53.9574C24.287 54.0051 24.2675 54.0503 24.2348 54.085C24.202 54.1198 24.1581 54.142 24.1107 54.1478Z" fill="#407BFF"/>
<path opacity="0.7" d="M24.1107 54.1478H23.9399C23.8922 54.1426 23.8478 54.1206 23.8147 54.0857C23.7817 54.0509 23.762 54.0054 23.7593 53.9574L23.5087 52.0212H24.5391L24.2899 53.9574C24.287 54.0051 24.2675 54.0503 24.2348 54.085C24.202 54.1198 24.1581 54.142 24.1107 54.1478Z" fill="white"/>
<path d="M16.7551 54.1478H16.5689C16.5184 54.1448 16.4706 54.1241 16.434 54.0892C16.3973 54.0544 16.3742 54.0077 16.3687 53.9574L16.0887 52.0212H17.2241L16.9441 53.9574C16.9392 54.0061 16.9178 54.0515 16.8834 54.0862C16.849 54.1208 16.8037 54.1426 16.7551 54.1478Z" fill="#407BFF"/>
<path opacity="0.5" d="M16.7551 54.1478H16.5689C16.5184 54.1448 16.4706 54.1241 16.434 54.0892C16.3973 54.0544 16.3742 54.0077 16.3687 53.9574L16.0887 52.0212H17.2241L16.9441 53.9574C16.9392 54.0061 16.9178 54.0515 16.8834 54.0862C16.849 54.1208 16.8037 54.1426 16.7551 54.1478Z" fill="white"/>
<path d="M22.9194 47.3548H27.8978L28.2268 42.5598L28.2968 41.5294L28.3304 41.0548C28.339 40.9304 28.3549 40.8065 28.378 40.6838C28.378 40.6572 28.3906 40.6292 28.3962 40.6026C28.3992 40.5821 28.4044 40.5619 28.4116 40.5424C28.5458 40.0537 28.8072 39.6093 29.169 39.2544C29.5862 38.8421 30.1378 38.5937 30.723 38.5544H26.04C25.9882 38.5544 25.9378 38.5544 25.886 38.5544C25.2508 38.5576 24.6419 38.8088 24.1892 39.2544C23.8274 39.6093 23.566 40.0537 23.4318 40.5424C23.4246 40.5619 23.4194 40.5821 23.4164 40.6026C23.3835 40.7516 23.3616 40.9027 23.3506 41.0548L23.3184 41.5294L22.9194 47.3548Z" fill="#407BFF"/>
<path opacity="0.1" d="M22.9194 47.3548H27.8978L28.2268 42.5598L28.2968 41.5294L28.3304 41.0548C28.339 40.9304 28.3549 40.8065 28.378 40.6838C28.378 40.6572 28.3906 40.6292 28.3962 40.6026C28.3992 40.5821 28.4044 40.5619 28.4116 40.5424C28.5458 40.0537 28.8072 39.6093 29.169 39.2544C29.5862 38.8421 30.1378 38.5937 30.723 38.5544H26.04C25.9882 38.5544 25.9378 38.5544 25.886 38.5544C25.2508 38.5576 24.6419 38.8088 24.1892 39.2544C23.8274 39.6093 23.566 40.0537 23.4318 40.5424C23.4246 40.5619 23.4194 40.5821 23.4164 40.6026C23.3835 40.7516 23.3616 40.9027 23.3506 41.0548L23.3184 41.5294L22.9194 47.3548Z" fill="black"/>
<g opacity="0.1">
<path d="M18.9742 44.8H16.9736C16.4878 44.8 16.0944 45.108 16.0944 45.4874V46.6704C16.0944 47.0498 16.4878 47.3578 16.9736 47.3578H18.9742V44.8Z" fill="black"/>
</g>
<path d="M27.1375 44.7986H18.3315C17.9124 44.7986 17.5727 45.1383 17.5727 45.5574V46.5976C17.5727 47.0167 17.9124 47.3564 18.3315 47.3564H27.1375C27.5566 47.3564 27.8963 47.0167 27.8963 46.5976V45.5574C27.8963 45.1383 27.5566 44.7986 27.1375 44.7986Z" fill="#407BFF"/>
<path d="M6.37 41.3797C6.36881 42.0491 6.6044 42.6973 7.03508 43.2097C7.46577 43.7221 8.0638 44.0657 8.7234 44.1797L9.24 50.9963C9.2848 51.5759 9.7048 52.0211 10.2088 52.0211H15.701C15.197 52.0211 14.777 51.5759 14.7322 50.9963L14.4522 47.3563L14.2114 44.1769C13.7805 44.1015 13.3729 43.9274 13.0205 43.6683C12.6681 43.4091 12.3804 43.0719 12.18 42.6831C12.1534 42.6327 12.1296 42.5809 12.1072 42.5291C11.9448 42.1677 11.8613 41.7759 11.8622 41.3797C11.8622 41.1849 11.8824 40.9907 11.9224 40.8001C11.9378 40.7245 11.9574 40.6489 11.977 40.5761C12.0775 40.2422 12.2373 39.9292 12.4488 39.6521C12.7105 39.3124 13.0455 39.0363 13.4288 38.8443C13.8198 38.6477 14.2512 38.5451 14.6888 38.5447H9.2064C8.92158 38.5445 8.63837 38.5875 8.3664 38.6721C7.8063 38.8448 7.31368 39.1873 6.9566 39.6521C6.57567 40.1474 6.36941 40.7548 6.37 41.3797Z" fill="#407BFF"/>
<path opacity="0.1" d="M6.37 41.3797C6.36881 42.0491 6.6044 42.6973 7.03508 43.2097C7.46577 43.7221 8.0638 44.0657 8.7234 44.1797L9.24 50.9963C9.2848 51.5759 9.7048 52.0211 10.2088 52.0211H15.701C15.197 52.0211 14.777 51.5759 14.7322 50.9963L14.4522 47.3563L14.2114 44.1769C13.7805 44.1015 13.3729 43.9274 13.0205 43.6683C12.6681 43.4091 12.3804 43.0719 12.18 42.6831C12.1534 42.6327 12.1296 42.5809 12.1072 42.5291C11.9448 42.1677 11.8613 41.7759 11.8622 41.3797C11.8622 41.1849 11.8824 40.9907 11.9224 40.8001C11.9378 40.7245 11.9574 40.6489 11.977 40.5761C12.0775 40.2422 12.2373 39.9292 12.4488 39.6521C12.7105 39.3124 13.0455 39.0363 13.4288 38.8443C13.8198 38.6477 14.2512 38.5451 14.6888 38.5447H9.2064C8.92158 38.5445 8.63837 38.5875 8.3664 38.6721C7.8063 38.8448 7.31368 39.1873 6.9566 39.6521C6.57567 40.1474 6.36941 40.7548 6.37 41.3797Z" fill="black"/>
<path d="M11.8609 41.3796C11.8609 42.7796 12.7835 43.9472 13.9945 44.1796L14.4621 51.0018C14.5027 51.5828 14.8821 52.0266 15.3413 52.0266H30.0049C30.4613 52.0266 30.8449 51.5828 30.8841 51.0018L31.3531 44.1698C32.5389 43.9206 33.4363 42.7698 33.4363 41.3852C33.4395 40.8046 33.2752 40.2354 32.9631 39.7458C32.7259 39.3727 32.3997 39.0643 32.0139 38.8484C31.663 38.6523 31.2678 38.5492 30.8659 38.5488C30.2306 38.5517 29.6216 38.8029 29.1691 39.2488C28.807 39.6037 28.5452 40.0481 28.4103 40.5368C28.4041 40.5565 28.3995 40.5766 28.3963 40.597C28.3627 40.7458 28.3407 40.897 28.3305 41.0492L28.2969 41.5238L27.8979 47.3534H17.4483L17.0157 41.0534C16.9527 40.163 16.5201 39.421 15.9181 39.0696C15.537 38.7663 15.0726 38.5861 14.5867 38.553C14.5349 38.553 14.4845 38.553 14.4327 38.553C14.0418 38.5509 13.6566 38.6471 13.3127 38.833C13.3014 38.837 13.2906 38.8422 13.2805 38.8484C12.9263 39.0467 12.6218 39.323 12.3901 39.6562C12.0422 40.1634 11.8576 40.7647 11.8609 41.3796Z" fill="#407BFF"/>
<path opacity="0.1" d="M17.6889 52.0213H30.0089C30.4653 52.0213 30.8489 51.5775 30.8881 50.9965L31.3571 44.1645C32.5429 43.9153 33.4403 42.7645 33.4403 41.3799C33.4435 40.7993 33.2792 40.23 32.9671 39.7405C32.73 39.3673 32.4038 39.0589 32.0179 38.8431C31.667 38.647 31.2719 38.5438 30.8699 38.5435C30.2346 38.5463 29.6256 38.7976 29.1731 39.2435C28.811 39.5983 28.5492 40.0427 28.4143 40.5315C28.4082 40.5512 28.4035 40.5713 28.4003 40.5917C28.3668 40.7405 28.3448 40.8917 28.3345 41.0439L28.3009 41.5185L27.9019 47.3481H17.4481L17.6889 52.0213Z" fill="white"/>
<path d="M21.438 54.4305L22.6322 54.7609L23.7046 51.9539L22.5104 51.6235L21.438 54.4305Z" fill="#FFC3BD"/>
<path d="M23.167 54.3886C23.0728 54.2665 22.9366 54.1837 22.7848 54.1562L21.5598 53.9168C21.5313 53.9086 21.5006 53.9118 21.4744 53.926C21.4482 53.9401 21.4286 53.964 21.4198 53.9924L21.0404 55.1124C21.0296 55.1429 21.0248 55.1751 21.0265 55.2074C21.0282 55.2396 21.0362 55.2713 21.0501 55.3004C21.064 55.3296 21.0836 55.3557 21.1076 55.3772C21.1317 55.3988 21.1598 55.4154 21.1902 55.426H21.1986C21.6522 55.6052 21.9588 55.5436 22.6672 55.6808C23.1054 55.7648 24.0224 56.056 24.6356 56.0308C25.2488 56.0056 25.2474 55.3994 24.9898 55.3546C24.0798 55.2146 23.3798 54.6658 23.167 54.3886Z" fill="#263238"/>
<g opacity="0.2">
<path d="M23.7048 51.9553L23.1518 53.4029L21.9576 53.0697L22.5092 51.6235L23.7048 51.9553Z" fill="black"/>
</g>
<path d="M19.719 41.3001C19.719 41.3001 26.9094 41.2609 26.6854 43.6689C26.5342 45.2957 25.753 47.0051 25.1454 48.6557C24.262 51.0483 23.4962 53.1357 23.4962 53.1357L21.8582 52.5687C21.8582 52.5687 23.3296 45.6499 24.3208 44.9415H18.2406C16.2288 44.9415 15.3594 42.7322 17.318 40.1562C18.515 40.1604 19.719 41.3001 19.719 41.3001Z" fill="#407BFF"/>
<path opacity="0.6" d="M19.719 41.2999C19.719 41.2999 26.9094 41.2607 26.6854 43.6687C26.796 45.1653 23.4948 53.1327 23.4948 53.1327L21.8568 52.5657C21.8568 52.5657 23.3282 45.6469 24.3194 44.9385H18.2406C16.2288 44.9385 15.3594 42.7293 17.318 40.1533C18.515 40.1603 19.719 41.2999 19.719 41.2999Z" fill="black"/>
<path d="M24.7899 36.9277C23.9051 37.7355 22.1677 35.8231 21.8877 35.5963C21.2885 35.1063 19.5273 33.4627 19.6197 32.8915C19.8997 31.2115 22.6549 33.5915 23.4515 35.2323L24.7899 36.9277Z" fill="#263238"/>
<path d="M17.0464 31.8724C16.6026 31.9662 16.1224 31.8066 15.8102 32.1356C15.498 32.4646 15.3678 32.9266 15.323 33.3774C15.2836 34.0073 15.3165 34.6395 15.421 35.2618C15.5144 36.0206 15.6119 36.779 15.7136 37.5368C15.7767 38.1611 15.7527 38.791 15.6422 39.4086C15.6306 39.4743 15.641 39.5419 15.6719 39.6009C15.7028 39.6599 15.7525 39.7071 15.813 39.7348C15.813 39.7348 19.2556 39.8524 20.2566 39.8146C20.7886 39.795 20.4232 38.395 20.587 37.5746C20.6234 37.3926 20.979 36.645 21.0322 36.4546C21.2786 35.5516 21.1148 34.93 20.8922 34.0228C20.7256 33.3634 20.657 32.4128 20.321 32.3428C19.7162 32.2182 18.2812 31.6092 17.0464 31.8724Z" fill="#407BFF"/>
<path opacity="0.8" d="M17.0464 31.8724C16.6026 31.9662 16.1224 31.8066 15.8102 32.1356C15.498 32.4646 15.3678 32.9266 15.323 33.3774C15.2836 34.0073 15.3165 34.6395 15.421 35.2618C15.5144 36.0206 15.6119 36.779 15.7136 37.5368C15.7767 38.1611 15.7527 38.791 15.6422 39.4086C15.6306 39.4743 15.641 39.5419 15.6719 39.6009C15.7028 39.6599 15.7525 39.7071 15.813 39.7348C15.813 39.7348 19.2556 39.8524 20.2566 39.8146C20.7886 39.795 20.4232 38.395 20.587 37.5746C20.6234 37.3926 20.979 36.645 21.0322 36.4546C21.2786 35.5516 21.1148 34.93 20.8922 34.0228C20.7256 33.3634 20.657 32.4128 20.321 32.3428C19.7162 32.2182 18.2812 31.6092 17.0464 31.8724Z" fill="white"/>
<path d="M16.5552 32.5191C16.509 32.4491 15.2952 31.4299 15.0782 32.6073C14.7716 34.2467 15.4058 35.8595 15.4058 35.8595C15.4058 35.8595 15.5458 37.6333 16.0666 37.8111C16.5874 37.9889 17.0718 38.0323 17.2454 37.7285C17.3577 37.4917 17.4169 37.2332 17.419 36.9711C17.419 36.9711 17.3602 33.7399 16.5552 32.5191Z" fill="#263238"/>
<path d="M17.3936 29.6226C17.5182 30.3772 17.6232 31.7562 17.0842 32.242C17.0842 32.242 18.4016 32.9322 19.2668 34.1362C19.4589 33.9928 19.601 33.7925 19.6729 33.5639C19.7448 33.3352 19.7428 33.0897 19.6672 32.8622C19.6239 32.7186 19.5519 32.5853 19.4556 32.4703C19.3594 32.3553 19.2409 32.261 19.1072 32.193C18.5962 31.913 18.6452 31.3838 18.7852 30.8882L17.3936 29.6226Z" fill="#E8BFBF"/>
<path opacity="0.2" d="M17.5658 30.9036L18.0572 31.0926C18.2676 31.1739 18.4927 31.2101 18.718 31.199C18.6829 31.3529 18.6829 31.5127 18.718 31.6666C18.5418 31.7147 18.3554 31.7108 18.1815 31.6551C18.0075 31.5994 17.8535 31.4945 17.738 31.353C17.6586 31.2126 17.6005 31.0611 17.5658 30.9036Z" fill="black"/>
<path d="M29.7638 52.0169H31.1022L29.7008 48.6611L28.7936 50.2011L29.7638 52.0169Z" fill="#FFC3BD"/>
<path d="M30.992 51.6992L29.4226 51.3422C29.3957 51.3354 29.3673 51.339 29.3429 51.3523C29.3185 51.3655 29.3 51.3874 29.291 51.4136L28.8528 52.6204C28.844 52.6508 28.8414 52.6827 28.8449 52.7142C28.8485 52.7456 28.8582 52.7761 28.8735 52.8038C28.8889 52.8315 28.9095 52.8559 28.9343 52.8756C28.9591 52.8953 28.9876 52.9099 29.018 52.9186C29.5682 53.0334 29.8384 53.0586 30.5286 53.2168C30.9486 53.3134 32.0294 53.5962 32.616 53.7292C33.2026 53.8622 33.3566 53.2882 33.1228 53.179C32.0756 52.6946 31.5086 52.2312 31.2048 51.8364C31.1517 51.7676 31.0766 51.7191 30.992 51.6992Z" fill="#263238"/>
<g opacity="0.2">
<path d="M29.7008 48.6611L30.2972 50.0905L29.0932 50.7625L28.7936 50.2025L29.7008 48.6611Z" fill="black"/>
</g>
<path d="M15.6157 39.7502L15.4757 40.2066C15.4575 40.2416 15.4981 40.278 15.5569 40.2808L20.7369 40.4376C20.7845 40.4376 20.8223 40.418 20.8265 40.3886L20.8867 39.9294C20.8867 39.8986 20.8503 39.8706 20.8013 39.8678L15.7053 39.7138C15.6885 39.7111 15.6712 39.7131 15.6554 39.7195C15.6397 39.726 15.6259 39.7365 15.6157 39.7502Z" fill="#263238"/>
<path d="M22.0949 43.495C20.3911 44.2216 18.5431 44.9468 17.5379 44.9468C15.5247 44.9468 13.7369 43.4936 15.6423 40.1868C16.8407 40.1868 18.9225 40.2205 18.9225 40.2205C18.9225 40.2205 22.8425 39.1004 25.6957 39.4308C26.3718 39.5098 27.0055 39.8009 27.5058 40.2625C28.0061 40.724 28.3473 41.3323 28.4803 41.9998C29.2027 45.6398 30.3157 49.5766 30.3157 49.5766L28.8835 50.5566C28.8835 50.5566 26.6505 45.8624 25.3653 42.1398C24.6849 42.354 23.4347 42.9238 22.0949 43.495Z" fill="#407BFF"/>
<path opacity="0.5" d="M28.4801 42C28.3476 41.332 28.0066 40.7231 27.5063 40.261C27.0059 39.7989 26.3719 39.5073 25.6955 39.4282C22.8479 39.1034 18.9223 40.2178 18.9223 40.2178C18.9223 40.2178 16.8405 40.18 15.6421 40.1842C13.7059 43.477 15.5245 44.9442 17.5377 44.9442C18.5429 44.9442 20.3909 44.219 22.0947 43.4924C23.4345 42.9212 24.6847 42.3514 25.3651 42.133C26.6503 45.8598 28.8833 50.5554 28.8833 50.5554L30.3155 49.5754C30.3155 49.5754 29.2025 45.64 28.4801 42Z" fill="black"/>
<path d="M26.6854 43.68C26.6399 44.1477 26.5698 44.6126 26.4754 45.073C26.4684 45.0576 26.4628 45.0436 26.4572 45.0282C26.4516 45.0128 26.4572 45.0212 26.4572 45.017C26.4526 45.0015 26.4465 44.9865 26.4391 44.9722C26.0583 44.0258 25.6858 43.0556 25.3708 42.1414H25.3806C26.1954 42.4872 26.7512 42.98 26.6854 43.68Z" fill="#407BFF"/>
<path opacity="0.6" d="M26.6854 43.68C26.6399 44.1477 26.5698 44.6126 26.4754 45.073C26.4684 45.0576 26.4628 45.0436 26.4572 45.0282C26.4516 45.0128 26.4572 45.0212 26.4572 45.017C26.4526 45.0015 26.4465 44.9865 26.4391 44.9722C26.0583 44.0258 25.6858 43.0556 25.3708 42.1414H25.3806C26.1954 42.4872 26.7512 42.98 26.6854 43.68Z" fill="black"/>
<path d="M16.4751 28.8974C16.8951 30.0804 17.0491 30.59 17.8359 31.0338C19.0217 31.703 20.3797 30.9246 20.3209 29.6338C20.2677 28.4788 19.5887 26.7372 18.2727 26.5972C17.9824 26.5645 17.6885 26.6067 17.4191 26.7197C17.1496 26.8327 16.9136 27.0127 16.7334 27.2427C16.5533 27.4727 16.4349 27.745 16.3897 28.0336C16.3445 28.3223 16.3739 28.6177 16.4751 28.8918V28.8974Z" fill="#E8BFBF"/>
<path d="M18.6018 28.7433C18.6312 28.8455 18.7054 28.9057 18.7698 28.8833C18.8342 28.8609 18.8594 28.7713 18.8342 28.6719C18.809 28.5725 18.732 28.5095 18.6662 28.5319C18.6004 28.5543 18.5738 28.6453 18.6018 28.7433Z" fill="#263238"/>
<path d="M19.7009 28.3961C19.7303 28.4997 19.8045 28.5599 19.8689 28.5361C19.9333 28.5123 19.9585 28.4241 19.9333 28.3247C19.9081 28.2253 19.8297 28.1623 19.7667 28.1847C19.7037 28.2071 19.6729 28.2995 19.7009 28.3961Z" fill="#263238"/>
<path d="M19.7399 28.2001L19.9555 28.0601C19.9555 28.0601 19.8869 28.2799 19.7399 28.2001Z" fill="#263238"/>
<path d="M19.3077 28.6201C19.4592 28.819 19.6372 28.9961 19.8369 29.1465C19.7968 29.1961 19.7463 29.2362 19.6889 29.264C19.6316 29.2918 19.5688 29.3067 19.5051 29.3075L19.3077 28.6201Z" fill="#ED847E"/>
<path d="M15.7024 29.68C15.7884 29.893 15.8536 30.1138 15.897 30.3394C15.9089 30.5662 15.8359 30.7894 15.6923 30.9654C15.5487 31.1414 15.3446 31.2576 15.12 31.2914C15.3156 31.3435 15.5233 31.3264 15.7077 31.2429C15.8922 31.1595 16.0422 31.0149 16.1322 30.8336C16.0252 31.1186 15.8133 31.3519 15.54 31.486C15.7354 31.4881 15.9286 31.4451 16.1046 31.3604C16.2807 31.2756 16.4348 31.1514 16.555 30.9974C16.4892 31.1682 16.415 31.3376 16.3562 31.5084C16.6886 31.307 16.9616 31.021 17.1472 30.6796C17.2214 30.5396 17.2774 30.3576 17.1794 30.2344C17.0814 30.1112 16.926 30.1196 16.7832 30.1168C16.6404 30.114 16.4682 30.0804 16.4164 29.9474C16.3646 29.8144 16.4598 29.6814 16.5634 29.5904C16.667 29.4994 16.7916 29.4154 16.8294 29.2824C16.8473 29.1861 16.8406 29.0869 16.8098 28.994C16.7454 28.7364 16.6819 28.4783 16.6194 28.2198C16.6024 28.1285 16.5697 28.0409 16.5228 27.9608C16.2428 27.5408 15.9306 28.1568 15.8228 28.3654C15.621 28.7735 15.5781 29.242 15.7024 29.68Z" fill="#263238"/>
<path d="M16.3924 30.0565C16.551 30.2626 16.7844 30.3979 17.042 30.4331C17.385 30.4751 17.5054 30.1531 17.3682 29.8605C17.2436 29.5917 16.916 29.2487 16.5926 29.3397C16.2692 29.4307 16.1992 29.7989 16.3924 30.0565Z" fill="#E8BFBF"/>
<path d="M18.6202 27.8978C18.6179 27.9109 18.6118 27.9229 18.6025 27.9324C18.5933 27.9419 18.5814 27.9484 18.5684 27.951C18.2884 28.0042 18.126 28.3416 18.126 28.3444C18.119 28.3597 18.1063 28.3716 18.0906 28.3776C18.0749 28.3836 18.0575 28.3833 18.042 28.3766C18.0271 28.3696 18.0155 28.3571 18.0098 28.3416C18.004 28.3262 18.0045 28.3091 18.0112 28.294C18.0238 28.2814 18.1974 27.8936 18.5446 27.8264C18.5609 27.8239 18.5775 27.8278 18.5911 27.8371C18.6046 27.8465 18.614 27.8607 18.6174 27.8768C18.6204 27.8834 18.6214 27.8907 18.6202 27.8978Z" fill="#263238"/>
<path d="M19.3677 27.6178C19.3583 27.6163 19.3488 27.6168 19.3396 27.6192C19.3305 27.6216 19.3219 27.6259 19.3145 27.6318C19.2991 27.6486 19.2473 27.678 19.2767 27.6934C19.4475 27.7802 19.6841 27.923 19.8661 27.8936C19.8969 27.8936 19.9697 27.8614 19.9543 27.839C19.9438 27.8277 19.9305 27.8193 19.9158 27.8146C19.9011 27.81 19.8854 27.8092 19.8703 27.8124C19.7303 27.832 19.5329 27.6962 19.3985 27.6262C19.3886 27.6221 19.3783 27.6193 19.3677 27.6178Z" fill="#263238"/>
<path d="M18.6396 28.546L18.8566 28.406C18.8566 28.406 18.788 28.6286 18.6396 28.546Z" fill="#263238"/>
<path d="M18.6199 26.0791C18.1425 25.9923 18.0809 25.9601 17.5965 25.9909C17.1072 26.0062 16.6342 26.1698 16.2399 26.4599C15.8716 26.7644 15.6118 27.1799 15.4993 27.6443C15.3893 28.1071 15.3769 28.5877 15.4629 29.0555C15.4784 29.279 15.575 29.4891 15.7345 29.6463C15.7508 29.3947 15.7935 29.1456 15.8619 28.9029C15.9333 28.658 16.0803 28.4419 16.2819 28.2855C16.3709 28.2374 16.4476 28.1693 16.5059 28.0867C16.5362 28.005 16.5532 27.919 16.5563 27.8319C16.6002 27.6359 16.7174 27.4641 16.8839 27.3517C17.0493 27.242 17.2263 27.1509 17.4117 27.0801C18.0011 26.8267 18.6437 26.6811 19.1869 26.3395C19.0092 26.23 18.8188 26.1426 18.6199 26.0791Z" fill="#263238"/>
<path d="M16.1773 27.9523C16.3055 28.108 16.4809 28.2176 16.6771 28.2645C16.9095 28.3177 17.4905 28.3037 17.5255 28.2435C17.5605 28.1833 17.3533 27.5309 17.1181 27.4917C17.2803 27.6484 17.4741 27.7686 17.6865 27.8445C17.9267 27.8926 18.1742 27.8926 18.4145 27.8445C18.5377 27.8165 18.2619 27.3069 18.0617 27.1613C18.6651 27.2873 19.3035 27.4315 19.7417 27.8613C20.1799 28.2911 20.3689 28.9715 20.3465 29.6057C20.4491 29.523 20.5316 29.418 20.5877 29.2987C20.6437 29.1793 20.6718 29.0488 20.6699 28.9169C20.7756 29.2449 20.8143 29.5907 20.7837 29.9339C20.7532 30.2771 20.654 30.6106 20.4921 30.9147C21.1333 30.3883 21.3727 29.4685 21.2047 28.6565C21.0367 27.8445 20.5047 27.1375 19.8593 26.6181C19.2993 26.1743 18.6329 25.8425 17.9231 25.8257C16.9921 25.7977 15.2673 26.8561 16.1773 27.9523Z" fill="#263238"/>
<path d="M16.9317 31.696C16.9317 31.6498 16.9429 31.5882 16.9485 31.5238C16.9608 31.376 16.9177 31.2289 16.8277 31.1109C16.7377 30.993 16.6072 30.9126 16.4613 30.8854C16.418 30.8777 16.3776 30.8586 16.3441 30.83C16.3107 30.8015 16.2854 30.7645 16.2709 30.723C16.1631 30.4094 16.1211 30.3142 16.0175 30.0062C15.7375 29.9376 15.4001 30.0426 15.1075 30.0734C15.0264 30.4248 15.0207 30.7893 15.0907 31.143C15.102 31.2221 15.1328 31.2972 15.1803 31.3614C15.446 31.5791 15.7399 31.7599 16.0539 31.899C16.3059 31.976 16.6601 31.7198 16.9317 31.696Z" fill="#E8BFBF"/>
<path d="M16.0832 31.9059C16.0832 31.9059 15.3118 36.8829 16.107 37.6459C16.5732 38.0911 16.9764 37.8447 17.227 37.5661C17.3189 37.4623 17.388 37.3404 17.4299 37.2083C17.4719 37.0762 17.4858 36.9367 17.4706 36.7989L16.9288 31.7001C16.9288 31.7001 16.3968 31.3851 16.0832 31.9059Z" fill="#E8BFBF"/>
<path d="M24.3715 36.4C24.6882 36.1236 24.9154 35.759 25.0239 35.3528C25.0486 35.2095 25.058 35.064 25.0519 34.9188C25.0449 34.0172 24.7901 32.3638 24.7901 32.3638L24.0579 32.1216C24.0579 32.1216 23.8297 33.3816 23.7779 34.0704C23.7681 34.2104 23.7527 34.3658 23.7359 34.5352C23.7037 34.8432 23.6645 35.182 23.6295 35.4634L24.3715 36.4Z" fill="#E8BFBF"/>
<path d="M24.79 36.9277C25.0154 36.7219 25.0532 36.4727 25.1694 35.9477C25.28 35.4465 25.1554 34.8277 25.0518 34.9215C25.0389 34.9333 25.0292 34.9482 25.0238 34.9649C24.846 35.3849 24.1544 35.0167 23.9584 34.8067C23.874 34.7264 23.7997 34.6362 23.7372 34.5379C23.7115 34.5004 23.6978 34.456 23.6978 34.4105C23.6978 34.365 23.7115 34.3206 23.7372 34.2831C23.5244 34.1949 23.3536 35.0321 23.4572 35.2379L23.5104 35.3933C23.5947 35.6454 23.7248 35.8799 23.894 36.0849L24.279 36.5483L24.79 36.9277Z" fill="#263238"/>
<path d="M24.0382 32.2266L23.9514 30.947C24.1778 31.0548 24.4117 31.146 24.6514 31.22C25.007 31.3418 25.4914 31.1276 25.3794 31.36C25.2008 31.7058 25.0016 32.0405 24.783 32.3624L24.0382 32.2266Z" fill="#E8BFBF"/>
<path d="M23.9514 30.947L24.5002 29.666L25.217 30.1042C25.4144 30.5326 25.3906 31.3642 25.3906 31.3642C25.3906 31.3642 24.3938 31.4034 23.9514 30.947Z" fill="#E8BFBF"/>
<path d="M19.2236 29.9599C19.2418 30.0509 19.3076 30.1153 19.3636 30.0999C19.4196 30.0845 19.4546 30.0033 19.435 29.9123C19.4154 29.8213 19.351 29.7569 19.295 29.7723C19.239 29.7877 19.204 29.8745 19.2236 29.9599Z" fill="#263238"/>
<path d="M17.448 47.3549L17.0154 41.0549C16.9524 40.1645 16.5198 39.4225 15.9178 39.0711C15.5367 38.7677 15.0724 38.5876 14.5864 38.5545C14.5346 38.5545 14.4842 38.5545 14.4324 38.5545C14.0415 38.5523 13.6563 38.6486 13.3124 38.8345C13.3012 38.8385 13.2904 38.8436 13.2802 38.8499C12.9261 39.0482 12.6216 39.3244 12.3898 39.6577C12.0402 40.1657 11.8545 40.7686 11.8578 41.3853C11.8578 42.7853 12.7804 43.9529 13.9914 44.1853L14.459 51.0075C14.4996 51.5885 14.879 52.0323 15.3382 52.0323H17.686L17.448 47.3549Z" fill="#407BFF"/>
<path opacity="0.1" d="M17.448 47.3549L17.0154 41.0549C16.9524 40.1645 16.5198 39.4225 15.9178 39.0711C15.5367 38.7677 15.0724 38.5876 14.5864 38.5545C14.5346 38.5545 14.4842 38.5545 14.4324 38.5545C14.0415 38.5523 13.6563 38.6486 13.3124 38.8345C13.3012 38.8385 13.2904 38.8436 13.2802 38.8499C12.9261 39.0482 12.6216 39.3244 12.3898 39.6577C12.0402 40.1657 11.8545 40.7686 11.8578 41.3853C11.8578 42.7853 12.7804 43.9529 13.9914 44.1853L14.459 51.0075C14.4996 51.5885 14.879 52.0323 15.3382 52.0323H17.686L17.448 47.3549Z" fill="white"/>
<path d="M34.1823 58.8658C36.7756 58.8658 38.8779 58.328 38.8779 57.6646C38.8779 57.0012 36.7756 56.4634 34.1823 56.4634C31.589 56.4634 29.4867 57.0012 29.4867 57.6646C29.4867 58.328 31.589 58.8658 34.1823 58.8658Z" fill="#263238"/>
<path opacity="0.3" d="M34.1823 58.4654C36.7756 58.4654 38.8779 58.0172 38.8779 57.4644C38.8779 56.9115 36.7756 56.4634 34.1823 56.4634C31.589 56.4634 29.4867 56.9115 29.4867 57.4644C29.4867 58.0172 31.589 58.4654 34.1823 58.4654Z" fill="white"/>
<path d="M34.5702 57.4629H33.7946L32.8986 47.8H35.4662L34.5702 57.4629Z" fill="#263238"/>
<path d="M35.4662 47.8001C35.4662 48.0801 34.8922 48.3097 34.1824 48.3097C33.4726 48.3097 32.8986 48.0815 32.8986 47.8001C32.8986 47.5187 33.474 47.2905 34.1824 47.2905C34.8908 47.2905 35.4662 47.5187 35.4662 47.8001Z" fill="#263238"/>
<path opacity="0.7" d="M35.4662 47.8001C35.4662 48.0801 34.8922 48.3097 34.1824 48.3097C33.4726 48.3097 32.8986 48.0815 32.8986 47.8001C32.8986 47.5187 33.474 47.2905 34.1824 47.2905C34.8908 47.2905 35.4662 47.5187 35.4662 47.8001Z" fill="white"/>
<path opacity="0.7" d="M18.48 47.9513C18.4835 47.8935 18.4986 47.8369 18.5243 47.785C18.55 47.733 18.5859 47.6868 18.6298 47.6489C19.7148 48.7409 26.5986 49.5823 34.9286 49.5823C43.2586 49.5823 50.1424 48.7423 51.2288 47.6489C51.2727 47.6868 51.3085 47.733 51.3343 47.785C51.36 47.8369 51.3751 47.8935 51.3786 47.9513C51.3786 49.1847 44.0132 50.1913 34.9286 50.1913C25.844 50.1913 18.48 49.1847 18.48 47.9513Z" fill="white"/>
<path opacity="0.7" d="M18.6353 48.2298C19.7203 47.1378 26.6041 46.2979 34.9341 46.2979C43.2641 46.2979 50.1479 47.1378 51.2343 48.2298C50.1479 49.3218 43.2641 50.1632 34.9341 50.1632C26.6041 50.1632 19.7203 49.3218 18.6353 48.2298Z" fill="white"/>
<path opacity="0.7" d="M18.48 47.908C18.48 46.6732 25.844 45.668 34.9286 45.668C44.0132 45.668 51.3786 46.6676 51.3786 47.908C51.3752 47.9656 51.3602 48.0221 51.3344 48.0738C51.3087 48.1255 51.2728 48.1715 51.2288 48.209C50.1424 47.117 43.2586 46.277 34.9286 46.277C26.5986 46.277 19.7148 47.117 18.6298 48.209C18.5858 48.1715 18.5499 48.1255 18.5241 48.0738C18.4984 48.0221 18.4834 47.9656 18.48 47.908Z" fill="white"/>
<path d="M41.2791 46.82L34.3967 46.6898C34.3781 46.6879 34.3601 46.6823 34.3438 46.6734C34.3274 46.6644 34.313 46.6523 34.3014 46.6377C34.2898 46.6231 34.2812 46.6063 34.2762 46.5883C34.2711 46.5703 34.2698 46.5516 34.2721 46.533C34.2706 46.5144 34.2728 46.4957 34.2786 46.4779C34.2844 46.4602 34.2938 46.4438 34.306 46.4297C34.3183 46.4156 34.3333 46.4041 34.35 46.3959C34.3668 46.3877 34.385 46.3829 34.4037 46.3818L41.2861 46.512C41.3048 46.5138 41.3229 46.5192 41.3395 46.5281C41.356 46.537 41.3706 46.5491 41.3823 46.5637C41.3941 46.5784 41.4028 46.5952 41.4079 46.6133C41.413 46.6313 41.4144 46.6502 41.4121 46.6688C41.4136 46.6876 41.4114 46.7064 41.4054 46.7242C41.3995 46.7421 41.3901 46.7585 41.3777 46.7727C41.3653 46.7868 41.3501 46.7982 41.3332 46.8064C41.3163 46.8145 41.2979 46.8192 41.2791 46.82Z" fill="#263238"/>
<path opacity="0.2" d="M41.2791 46.82L34.3967 46.6898C34.3781 46.6879 34.3601 46.6823 34.3438 46.6734C34.3274 46.6644 34.313 46.6523 34.3014 46.6377C34.2898 46.6231 34.2812 46.6063 34.2762 46.5883C34.2711 46.5703 34.2698 46.5516 34.2721 46.533C34.2706 46.5144 34.2728 46.4957 34.2786 46.4779C34.2844 46.4602 34.2938 46.4438 34.306 46.4297C34.3183 46.4156 34.3333 46.4041 34.35 46.3959C34.3668 46.3877 34.385 46.3829 34.4037 46.3818L41.2861 46.512C41.3048 46.5138 41.3229 46.5192 41.3395 46.5281C41.356 46.537 41.3706 46.5491 41.3823 46.5637C41.3941 46.5784 41.4028 46.5952 41.4079 46.6133C41.413 46.6313 41.4144 46.6502 41.4121 46.6688C41.4136 46.6876 41.4114 46.7064 41.4054 46.7242C41.3995 46.7421 41.3901 46.7585 41.3777 46.7727C41.3653 46.7868 41.3501 46.7982 41.3332 46.8064C41.3163 46.8145 41.2979 46.8192 41.2791 46.82Z" fill="white"/>
<path d="M44.6209 46.3174L41.3309 46.8144C41.295 46.8145 41.2604 46.8007 41.2343 46.7759C41.2082 46.7511 41.1927 46.7173 41.1909 46.6814C41.1852 46.6438 41.1936 46.6053 41.2145 46.5735C41.2355 46.5417 41.2675 46.5188 41.3043 46.5092L44.5943 46.0122C44.6303 46.0122 44.6648 46.0259 44.6909 46.0507C44.717 46.0755 44.7325 46.1093 44.7343 46.1452C44.74 46.1828 44.7316 46.2213 44.7107 46.2531C44.6897 46.2849 44.6577 46.3078 44.6209 46.3174Z" fill="#263238"/>
<path d="M44.5916 46.0122H37.6364L34.4038 46.3818L41.0986 46.5078L44.5916 46.0122Z" fill="#263238"/>
<path opacity="0.6" d="M44.5916 46.0122H37.6364L34.4038 46.3818L41.0986 46.5078L44.5916 46.0122Z" fill="white"/>
<path opacity="0.5" d="M44.6209 46.3174L41.3309 46.8144C41.295 46.8145 41.2604 46.8007 41.2343 46.7759C41.2082 46.7511 41.1927 46.7173 41.1909 46.6814C41.1852 46.6438 41.1936 46.6053 41.2145 46.5735C41.2355 46.5417 41.2675 46.5188 41.3043 46.5092L44.5943 46.0122C44.6303 46.0122 44.6648 46.0259 44.6909 46.0507C44.717 46.0755 44.7325 46.1093 44.7343 46.1452C44.74 46.1828 44.7316 46.2213 44.7107 46.2531C44.6897 46.2849 44.6577 46.3078 44.6209 46.3174Z" fill="white"/>
<path d="M41.0986 46.5078L34.681 46.3874C34.56 46.372 34.4489 46.3128 34.3687 46.2209C34.2884 46.1291 34.2446 46.011 34.2456 45.889L34.0524 42.0138C34.0384 41.7436 34.2134 41.5266 34.4388 41.5308L40.8564 41.6526C40.9777 41.6674 41.0891 41.7265 41.1695 41.8185C41.2499 41.9105 41.2934 42.0289 41.2918 42.151L41.4864 46.0248C41.499 46.295 41.3254 46.512 41.0986 46.5078Z" fill="#407BFF"/>
<path opacity="0.2" d="M41.0986 46.5078L34.681 46.3874C34.56 46.372 34.4489 46.3128 34.3687 46.2209C34.2884 46.1291 34.2446 46.011 34.2456 45.889L34.0524 42.0138C34.0384 41.7436 34.2134 41.5266 34.4388 41.5308L40.8564 41.6526C40.9777 41.6674 41.0891 41.7265 41.1695 41.8185C41.2499 41.9105 41.2934 42.0289 41.2918 42.151L41.4864 46.0248C41.499 46.295 41.3254 46.512 41.0986 46.5078Z" fill="white"/>
<path d="M40.9109 46.4883L34.4933 46.3665C34.3721 46.3514 34.2606 46.2923 34.1801 46.2004C34.0996 46.1085 34.0556 45.9903 34.0565 45.8681L33.8633 41.9999C33.8493 41.7297 34.0243 41.5127 34.2511 41.5169L40.6673 41.6373C40.7886 41.6524 40.9 41.7115 40.9806 41.8034C41.0611 41.8953 41.1051 42.0135 41.1041 42.1357L41.3001 46.0053C41.3113 46.2755 41.1363 46.4925 40.9109 46.4883Z" fill="#407BFF"/>
<path opacity="0.6" d="M40.9109 46.4883L34.4933 46.3665C34.3721 46.3514 34.2606 46.2923 34.1801 46.2004C34.0996 46.1085 34.0556 45.9903 34.0565 45.8681L33.8633 41.9999C33.8493 41.7297 34.0243 41.5127 34.2511 41.5169L40.6673 41.6373C40.7886 41.6524 40.9 41.7115 40.9806 41.8034C41.0611 41.8953 41.1051 42.0135 41.1041 42.1357L41.3001 46.0053C41.3113 46.2755 41.1363 46.4925 40.9109 46.4883Z" fill="white"/>
<path d="M36.7303 43.936C36.7491 44.1204 36.8349 44.2915 36.9713 44.4169C37.1078 44.5423 37.2856 44.6133 37.4709 44.6164C37.558 44.6179 37.6445 44.6009 37.7245 44.5664C37.8046 44.5319 37.8764 44.4808 37.9352 44.4165C37.994 44.3521 38.0384 44.276 38.0655 44.1932C38.0926 44.1104 38.1018 44.0227 38.0925 43.936C38.0721 43.7527 37.9858 43.5829 37.8495 43.4585C37.7132 43.3341 37.5364 43.2635 37.3519 43.2598C37.2651 43.2584 37.1791 43.2754 37.0993 43.3096C37.0196 43.3438 36.948 43.3946 36.8893 43.4584C36.8306 43.5223 36.7861 43.5979 36.7586 43.6802C36.7312 43.7625 36.7216 43.8497 36.7303 43.936Z" fill="white"/>
</svg>
