<svg width="68" height="53" viewBox="0 0 68 53" fill="none" xmlns="http://www.w3.org/2000/svg">
<g opacity="0.3">
<path d="M27.6229 4.21021H13.6704V21.7282H27.6229V4.21021Z" stroke="black" stroke-width="0.105333" stroke-linecap="round" stroke-linejoin="round"/>
<path d="M14.4331 17.2821V5.16772H20.4224" stroke="black" stroke-width="0.105333" stroke-linecap="round" stroke-linejoin="round"/>
<path d="M21.5884 5.16772H26.8603V20.7708H14.4331V18.2227" stroke="black" stroke-width="0.105333" stroke-linecap="round" stroke-linejoin="round"/>
<path d="M23.6026 13.7839V16.6795H17.6924V9.25879H23.6026V12.7685" stroke="black" stroke-width="0.105333" stroke-linecap="round" stroke-linejoin="round"/>
</g>
<path d="M20.0063 36.9531L21.5948 47.9204C21.6001 47.9579 21.6188 47.9922 21.6475 48.017C21.6761 48.0418 21.7128 48.0554 21.7507 48.0553C21.7729 48.0553 21.7949 48.0506 21.8151 48.0415C21.8354 48.0323 21.8535 48.019 21.8682 48.0024C21.883 47.9858 21.894 47.9662 21.9006 47.945C21.9072 47.9238 21.9092 47.9014 21.9066 47.8793L20.5994 37.0574L20.0063 36.9531Z" fill="#263238" stroke="#263238" stroke-width="0.105333" stroke-linecap="round" stroke-linejoin="round"/>
<path d="M16.0805 35.6586C16.0805 35.6586 17.7879 35.469 19.3311 35.6344C19.9799 35.7039 22.2688 35.8829 22.1951 36.4212C22.1213 36.9594 21.6337 37.1785 21.5357 37.1785C21.4377 37.1785 12.2969 37.8105 12.1505 37.6673C12.0041 37.524 11.8577 37.1785 11.9546 36.9826C12.0515 36.7867 16.0805 35.6586 16.0805 35.6586Z" fill="#B8B8B8" stroke="#263238" stroke-width="0.105333" stroke-linecap="round" stroke-linejoin="round"/>
<path d="M9.51824 27.9881C9.47827 27.9821 9.43741 27.986 9.3993 27.9995C9.3612 28.013 9.32702 28.0357 9.29982 28.0657C9.27261 28.0956 9.25322 28.1317 9.24336 28.171C9.23351 28.2102 9.23349 28.2512 9.24332 28.2904C9.61094 29.8346 11.2805 36.8014 11.4553 36.9794C11.6565 37.1795 12.4992 37.5808 12.8605 37.5408C13.2218 37.5008 14.9872 36.9394 16.2722 35.8555C17.5573 34.7716 18.3989 33.6077 18.3188 32.8851C18.2388 32.1625 17.7922 31.521 17.3961 31.441C17.0001 31.3609 15.3885 31.481 13.9844 31.0396C12.5803 30.5983 11.4153 29.8757 10.7738 28.993C10.2946 28.3347 9.88164 28.0524 9.51824 27.9881Z" fill="#B8B8B8" stroke="#263238" stroke-width="0.105333" stroke-linecap="round" stroke-linejoin="round"/>
<path d="M11.1381 33.496L11.5268 37.6114L9.17051 47.9046C9.16539 47.9246 9.16489 47.9454 9.16904 47.9656C9.1732 47.9858 9.1819 48.0048 9.19449 48.0212C9.20708 48.0375 9.22322 48.0508 9.24169 48.06C9.26017 48.0691 9.28049 48.074 9.30112 48.0742C9.33088 48.0742 9.35984 48.0645 9.38346 48.0464C9.40709 48.0283 9.42406 48.0028 9.43173 47.9741L12.1504 37.663L13.5197 37.6114V37.3323L12.1251 37.2269L11.3446 33.457C11.3403 33.4352 11.3292 33.4153 11.313 33.4002C11.2967 33.3851 11.2761 33.3755 11.254 33.3728C11.2377 33.3709 11.2211 33.3728 11.2057 33.3785C11.1902 33.3841 11.1763 33.3933 11.1651 33.4053C11.1538 33.4172 11.1455 33.4317 11.1408 33.4474C11.1362 33.4632 11.1352 33.4798 11.1381 33.496Z" fill="#263238" stroke="#263238" stroke-width="0.105333" stroke-linecap="round" stroke-linejoin="round"/>
<path d="M48.1692 36.9531L46.5839 47.9204C46.5786 47.9578 46.5601 47.9919 46.5316 48.0167C46.5032 48.0414 46.4668 48.0551 46.4291 48.0553C46.4068 48.0554 46.3847 48.0508 46.3643 48.0418C46.3439 48.0327 46.3257 48.0194 46.3108 48.0028C46.296 47.9862 46.2848 47.9665 46.2782 47.9452C46.2715 47.924 46.2695 47.9015 46.2721 47.8793L47.5762 37.0574L48.1692 36.9531Z" fill="#263238" stroke="#263238" stroke-width="0.105333" stroke-linecap="round" stroke-linejoin="round"/>
<path d="M52.095 35.6586C52.095 35.6586 50.3875 35.469 48.8444 35.6344C48.1955 35.7039 45.9066 35.8829 45.9804 36.4212C46.0541 36.9594 46.5429 37.1785 46.6398 37.1785C46.7367 37.1785 55.8786 37.8105 56.025 37.6673C56.1714 37.524 56.3188 37.1785 56.2209 36.9826C56.1229 36.7867 52.095 35.6586 52.095 35.6586Z" fill="#B8B8B8" stroke="#263238" stroke-width="0.105333" stroke-linecap="round" stroke-linejoin="round"/>
<path d="M58.6572 27.9881C58.6972 27.9821 58.7381 27.986 58.7762 27.9995C58.8143 28.0131 58.8485 28.0358 58.8758 28.0657C58.9031 28.0955 58.9226 28.1317 58.9326 28.1708C58.9426 28.21 58.9428 28.2511 58.9332 28.2904C58.5645 29.8346 56.895 36.8013 56.7212 36.9793C56.52 37.1795 55.6773 37.5808 55.316 37.5408C54.9547 37.5007 53.1894 36.9393 51.9053 35.8554C50.6213 34.7715 49.7776 33.6076 49.8577 32.885C49.9377 32.1624 50.3843 31.521 50.7814 31.4409C51.1785 31.3608 52.788 31.4809 54.1921 31.0396C55.5962 30.5982 56.7612 29.8757 57.4037 28.993C57.8809 28.3346 58.2949 28.0523 58.6572 27.9881Z" fill="#B8B8B8" stroke="#263238" stroke-width="0.105333" stroke-linecap="round" stroke-linejoin="round"/>
<path d="M57.0383 33.496L56.6485 37.6114L59.0049 47.9045C59.01 47.9245 59.0105 47.9454 59.0063 47.9656C59.0022 47.9858 58.9935 48.0048 58.9809 48.0212C58.9683 48.0375 58.9521 48.0508 58.9337 48.06C58.9152 48.0691 58.8949 48.074 58.8742 48.0741C58.8445 48.0742 58.8155 48.0644 58.7919 48.0463C58.7683 48.0282 58.7513 48.0028 58.7436 47.9741L56.025 37.6672L54.6556 37.6156V37.3365L56.0503 37.2311L56.8308 33.4612C56.8351 33.4394 56.8461 33.4195 56.8624 33.4044C56.8787 33.3893 56.8993 33.3797 56.9214 33.377C56.9374 33.375 56.9536 33.3768 56.9688 33.3822C56.984 33.3875 56.9978 33.3962 57.0091 33.4077C57.0204 33.4192 57.0289 33.4332 57.0339 33.4485C57.039 33.4638 57.0405 33.48 57.0383 33.496Z" fill="#263238" stroke="#263238" stroke-width="0.105333" stroke-linecap="round" stroke-linejoin="round"/>
<path d="M19.0552 48.1838H18.3252L17.9597 31.1577H19.4207L19.0552 48.1838Z" fill="white" stroke="#263238" stroke-width="0.105333" stroke-linecap="round" stroke-linejoin="round"/>
<path d="M17.9829 32.2258H19.3975L19.4207 31.1577H17.9597L17.9829 32.2258Z" fill="#263238" stroke="#263238" stroke-width="0.105333" stroke-linecap="round" stroke-linejoin="round"/>
<path d="M49.9608 48.1838H49.2309L48.8654 31.1577H50.3263L49.9608 48.1838Z" fill="white" stroke="#263238" stroke-width="0.105333" stroke-linecap="round" stroke-linejoin="round"/>
<path d="M48.8885 32.2258H50.3032L50.3263 31.1577H48.8654L48.8885 32.2258Z" fill="#263238" stroke="#263238" stroke-width="0.105333" stroke-linecap="round" stroke-linejoin="round"/>
<path d="M50.7773 29.8579H17.4614V31.6307H50.7773V29.8579Z" fill="white" stroke="#263238" stroke-width="0.105333" stroke-linecap="round" stroke-linejoin="round"/>
<path d="M50.7773 29.8579H17.4614V30.7448H50.7773V29.8579Z" fill="#263238" stroke="#263238" stroke-width="0.105333" stroke-linecap="round" stroke-linejoin="round"/>
<path d="M51.5032 29.8579H16.7358V30.532H51.5032V29.8579Z" fill="#407BFF" stroke="#263238" stroke-width="0.105333" stroke-linecap="round" stroke-linejoin="round"/>
<path d="M36.0549 22.5411C36.0549 22.5411 36.4699 22.9182 36.5816 22.9562C36.6933 22.9941 36.9081 23.0436 36.9081 23.0436L37.1472 23.0941L36.6206 22.3284L36.0549 22.5411Z" fill="white" stroke="#263238" stroke-width="0.105333" stroke-linecap="round" stroke-linejoin="round"/>
<path d="M33.8164 19.7131L38.707 24.8365L40.2544 24.155L36.9943 19.5466L33.8164 19.7131Z" fill="#B8B8B8" stroke="#263238" stroke-width="0.105333" stroke-linecap="round" stroke-linejoin="round"/>
<path d="M34.3231 19.8941L37.4705 23.3354L39.3844 23.0889L36.8838 19.7087L34.3231 19.8941Z" fill="white" stroke="#263238" stroke-width="0.105333" stroke-linecap="round" stroke-linejoin="round"/>
<path d="M35.4892 21.8398C35.4441 21.7774 35.4046 21.7111 35.3712 21.6418C35.3812 21.5084 35.4013 21.376 35.4313 21.2457C35.4492 21.192 35.5039 21.173 35.5513 21.2815C35.586 21.3611 35.6005 21.4479 35.5935 21.5343C35.6049 21.5973 35.6211 21.6592 35.6419 21.7197L35.5218 21.8883L35.4892 21.8398Z" fill="white" stroke="#263238" stroke-width="0.105333" stroke-linecap="round" stroke-linejoin="round"/>
<path d="M35.723 22.1599C35.723 22.1599 35.4891 21.8882 35.4891 21.8439C35.528 21.7316 35.5755 21.6224 35.6313 21.5174C35.6377 21.4984 35.9473 21.4805 35.9947 21.4616C36.0421 21.4426 36.1485 21.431 36.1232 21.5111C36.1131 21.5491 36.0946 21.5843 36.0691 21.6142C36.0436 21.6441 36.0117 21.6679 35.9758 21.6838C35.9216 21.7066 35.87 21.7353 35.822 21.7691L35.803 21.8555L35.8894 21.9788" fill="white"/>
<path d="M35.723 22.1599C35.723 22.1599 35.4891 21.8882 35.4891 21.8439C35.528 21.7316 35.5755 21.6224 35.6313 21.5174C35.6377 21.4984 35.9473 21.4805 35.9947 21.4616C36.0421 21.4426 36.1485 21.431 36.1232 21.5111C36.1131 21.5491 36.0946 21.5843 36.0691 21.6142C36.0436 21.6441 36.0117 21.6679 35.9758 21.6838C35.9216 21.7066 35.87 21.7353 35.822 21.7691L35.803 21.8555L35.8894 21.9788" stroke="#263238" stroke-width="0.105333" stroke-linecap="round" stroke-linejoin="round"/>
<path d="M35.8999 22.3684C35.8999 22.3684 35.6376 22.065 35.6376 22.0092C35.6813 21.8837 35.7342 21.7615 35.7956 21.6437C35.8029 21.6226 36.1474 21.6026 36.2032 21.5815C36.259 21.5605 36.376 21.5468 36.3486 21.6363C36.3371 21.679 36.3161 21.7185 36.2873 21.7521C36.2585 21.7856 36.2226 21.8123 36.1821 21.8301C36.1212 21.856 36.0633 21.8885 36.0094 21.927L35.9894 22.0229L36.0852 22.1609" fill="white"/>
<path d="M35.8999 22.3684C35.8999 22.3684 35.6376 22.065 35.6376 22.0092C35.6813 21.8837 35.7342 21.7615 35.7956 21.6437C35.8029 21.6226 36.1474 21.6026 36.2032 21.5815C36.259 21.5605 36.376 21.5468 36.3486 21.6363C36.3371 21.679 36.3161 21.7185 36.2873 21.7521C36.2585 21.7856 36.2226 21.8123 36.1821 21.8301C36.1212 21.856 36.0633 21.8885 36.0094 21.927L35.9894 22.0229L36.0852 22.1609" stroke="#263238" stroke-width="0.105333" stroke-linecap="round" stroke-linejoin="round"/>
<path d="M36.1622 22.6382C36.0484 22.5236 35.9428 22.4011 35.8462 22.2717C35.8945 22.1537 35.9497 22.0387 36.0116 21.9272C36.0116 21.9272 36.6541 21.8219 36.6889 21.8303C36.7236 21.8387 36.7436 21.8788 36.6404 21.9746C36.5468 22.0441 36.4388 22.0916 36.3244 22.1137C36.2833 22.1274 36.276 22.3064 36.276 22.3064L36.4698 22.5476" fill="white"/>
<path d="M36.1622 22.6382C36.0484 22.5236 35.9428 22.4011 35.8462 22.2717C35.8945 22.1537 35.9497 22.0387 36.0116 21.9272C36.0116 21.9272 36.6541 21.8219 36.6889 21.8303C36.7236 21.8387 36.7436 21.8788 36.6404 21.9746C36.5468 22.0441 36.4388 22.0916 36.3244 22.1137C36.2833 22.1274 36.276 22.3064 36.276 22.3064L36.4698 22.5476" stroke="#263238" stroke-width="0.105333" stroke-linecap="round" stroke-linejoin="round"/>
<path d="M33.888 22.574C33.7064 22.6398 33.5317 22.7234 33.3666 22.8236C33.1622 22.9605 32.822 23.1396 32.822 23.1396L32.4723 24.3351C32.744 24.3492 33.0064 24.4382 33.2307 24.5922C33.5709 24.8418 34.2967 24.7733 34.4789 24.6606C34.6611 24.5479 34.9097 23.6621 34.6822 23.4577C34.4547 23.2534 33.888 22.574 33.888 22.574Z" fill="white" stroke="#263238" stroke-width="0.105333" stroke-linecap="round" stroke-linejoin="round"/>
<path d="M36.1127 23.5272L35.4807 23.3228C35.4807 23.3228 35.0036 23.0068 34.8898 22.9605C34.718 22.9273 34.5433 22.9121 34.3684 22.9152C34.3684 22.9152 33.2793 24.4804 33.234 24.5942C33.1887 24.708 33.1655 24.9576 33.3245 25.0029C33.4836 25.0482 33.8691 24.9123 33.8691 24.9123C33.8691 24.9123 34.2325 25.0935 34.459 25.0482C34.6855 25.0029 35.367 24.5215 35.367 24.5215L36.1612 24.4994L36.1127 23.5272Z" fill="white" stroke="#263238" stroke-width="0.105333" stroke-linecap="round" stroke-linejoin="round"/>
<path d="M33.7755 23.0057C33.7755 23.0057 34.2748 23.7768 34.4559 23.7999C34.6371 23.8231 34.8193 23.7093 34.6824 23.4597C34.5455 23.2101 34.3875 22.8277 34.2969 22.617C34.2063 22.4064 33.8429 22.4137 33.6838 22.754" fill="white"/>
<path d="M33.7755 23.0057C33.7755 23.0057 34.2748 23.7768 34.4559 23.7999C34.6371 23.8231 34.8193 23.7093 34.6824 23.4597C34.5455 23.2101 34.3875 22.8277 34.2969 22.617C34.2063 22.4064 33.8429 22.4137 33.6838 22.754" stroke="#263238" stroke-width="0.105333" stroke-linecap="round" stroke-linejoin="round"/>
<path d="M35.1426 24.1761C35.0972 24.2311 35.0701 24.2989 35.065 24.3701C35.0599 24.4413 35.0771 24.5122 35.1142 24.5732C35.17 24.6669 35.2321 24.7649 35.2553 24.7649C35.2854 24.7641 35.315 24.7573 35.3424 24.745C35.3699 24.7327 35.3946 24.715 35.4151 24.6931C35.4357 24.6711 35.4517 24.6453 35.4623 24.6172C35.4728 24.589 35.4776 24.559 35.4765 24.5289C35.4649 24.3731 35.3227 23.9738 35.1426 24.1761Z" fill="white" stroke="#263238" stroke-width="0.105333" stroke-linecap="round" stroke-linejoin="round"/>
<path d="M34.876 24.4656C34.8311 24.5208 34.8043 24.5887 34.7994 24.6598C34.7945 24.7309 34.8117 24.8017 34.8486 24.8627C34.9034 24.9564 34.9666 25.0533 34.9898 25.0533C35.0199 25.0525 35.0495 25.0457 35.0769 25.0334C35.1043 25.0211 35.129 25.0034 35.1496 24.9815C35.1702 24.9595 35.1862 24.9337 35.1967 24.9056C35.2073 24.8774 35.2121 24.8474 35.211 24.8174C35.1983 24.6625 35.0572 24.2623 34.876 24.4656Z" fill="white" stroke="#263238" stroke-width="0.105333" stroke-linecap="round" stroke-linejoin="round"/>
<path d="M34.5695 24.7532C34.5343 24.7975 34.5134 24.8514 34.5095 24.9078C34.5055 24.9642 34.5187 25.0204 34.5474 25.0692C34.5926 25.145 34.6432 25.224 34.6611 25.224C34.6854 25.2234 34.7093 25.2179 34.7315 25.2079C34.7537 25.198 34.7737 25.1837 34.7903 25.166C34.807 25.1483 34.8199 25.1274 34.8285 25.1047C34.8371 25.0819 34.841 25.0577 34.8402 25.0334C34.8307 24.9154 34.7159 24.5931 34.5695 24.7532Z" fill="white" stroke="#263238" stroke-width="0.105333" stroke-linecap="round" stroke-linejoin="round"/>
<path d="M34.3001 24.8818C34.2719 24.9158 34.2551 24.9578 34.2521 25.0018C34.2491 25.0459 34.2599 25.0897 34.2832 25.1273C34.3169 25.1852 34.3559 25.2452 34.3706 25.2452C34.3891 25.2447 34.4073 25.2405 34.4242 25.2329C34.441 25.2253 34.4562 25.2144 34.4689 25.2009C34.4815 25.1873 34.4913 25.1715 34.4978 25.1541C34.5042 25.1368 34.5072 25.1184 34.5065 25.0999C34.4991 25.004 34.4117 24.7533 34.3001 24.8818Z" fill="white" stroke="#263238" stroke-width="0.105333" stroke-linecap="round" stroke-linejoin="round"/>
<path d="M32.9285 23.0025L32.6399 24.553L32.089 24.5298L32.425 22.8582L32.9285 23.0025Z" fill="#407BFF" stroke="#263238" stroke-width="0.105333" stroke-linecap="round" stroke-linejoin="round"/>
<path d="M32.5493 22.6466C32.5493 22.6466 32.2849 24.5816 32.1406 24.7532C31.9963 24.9249 30.055 24.3941 29.9591 24.3698C29.8633 24.3456 30.0792 21.5901 30.0792 21.5901C30.0792 21.5901 32.3291 22.5465 32.5493 22.6466Z" fill="#407BFF" stroke="#263238" stroke-width="0.105333" stroke-linecap="round" stroke-linejoin="round"/>
<path d="M39.1315 9.43995C39.1315 9.43995 38.7787 10.2584 38.7787 10.5828C38.7787 10.9072 38.8071 11.3876 38.7228 11.6361C38.6386 11.8847 38.2288 12.0311 38.3278 12.2429C38.4268 12.4546 38.7081 12.582 38.7081 12.582C38.7081 12.582 38.9061 13.5985 39.0188 13.9092C39.1315 14.22 39.3159 14.2621 39.4844 14.2337C39.6529 14.2052 40.0922 14.0925 40.0922 14.0925L40.4166 15.7715L42.5475 14.5865L42.1946 13.4858C42.1946 13.4858 42.8013 12.4272 42.1525 10.9452C41.5036 9.46312 40.1059 8.57937 39.1315 9.43995Z" fill="white" stroke="#263238" stroke-width="0.105333" stroke-linecap="round" stroke-linejoin="round"/>
<path d="M38.9913 11.0661C39.0055 11.0363 39.0254 11.0097 39.0501 10.9877C39.0748 10.9658 39.1036 10.9491 39.1349 10.9386C39.1661 10.9281 39.1992 10.924 39.2321 10.9265C39.265 10.9291 39.297 10.9382 39.3263 10.9534" stroke="#263238" stroke-width="0.105333" stroke-linecap="round" stroke-linejoin="round"/>
<path d="M39.2159 11.7267C39.27 11.7267 39.3138 11.6319 39.3138 11.5149C39.3138 11.398 39.27 11.3032 39.2159 11.3032C39.1618 11.3032 39.1179 11.398 39.1179 11.5149C39.1179 11.6319 39.1618 11.7267 39.2159 11.7267Z" fill="#263238"/>
<path d="M39.061 12.8126C39.061 12.8126 39.6119 12.7989 39.8658 12.4597" stroke="#263238" stroke-width="0.105333" stroke-linecap="round" stroke-linejoin="round"/>
<path d="M42.5813 14.1514C42.5813 14.1514 40.1524 15.626 40.0618 15.7408C39.9712 15.8557 39.9027 16.6035 39.9027 16.6035L42.9437 14.6022L42.5813 14.1514Z" fill="white" stroke="#263238" stroke-width="0.105333" stroke-linecap="round" stroke-linejoin="round"/>
<path d="M38.8692 34.2986C38.8692 34.2986 38.6712 35.7343 38.746 36.1293C38.8208 36.5243 41.2192 43.8186 41.2445 44.0693C41.2698 44.32 41.492 45.4555 41.492 45.4555C41.492 45.4555 40.997 46.3213 40.898 46.6679C40.799 47.0144 40.3534 47.3852 40.1806 47.5105C40.0079 47.6359 39.438 47.8571 39.3643 47.9561C39.2906 48.0551 39.5392 48.0351 39.6993 48.0699C39.9498 48.0898 40.2014 48.093 40.4524 48.0793C40.4524 48.0793 41.1455 48.1046 41.3435 48.0298C41.5415 47.9551 41.8133 47.2135 41.9376 47.065C42.024 46.9701 42.1353 46.9015 42.2589 46.867L42.0366 48.131H42.3821C42.3821 48.131 42.6296 47.1166 42.7287 46.77C42.8277 46.4235 42.952 46.2265 42.8034 45.88C42.6771 45.6121 42.5281 45.3555 42.3579 45.1132C42.3579 45.1132 42.2589 42.3418 42.2831 42.2186C42.3073 42.0954 42.1103 39.6695 42.0366 39.027C41.9629 38.3845 41.4173 36.6781 41.393 36.5295C41.3688 36.381 41.5415 34.6989 41.5415 34.6989L38.8692 34.2986Z" fill="#B8B8B8" stroke="#263238" stroke-width="0.105333" stroke-linecap="round" stroke-linejoin="round"/>
<path d="M40.6938 34.6641C40.6938 34.6641 40.975 36.7497 41.1351 37.6261C41.2952 38.5024 41.9377 44.2937 41.8967 44.8182C41.8811 45.068 41.8509 45.3167 41.8061 45.5629C41.8061 45.5629 41.1014 47.0376 40.9402 47.2093C40.7791 47.381 40.5031 47.7412 40.3388 47.7728C40.1745 47.8044 39.5551 47.9066 39.6973 48.0678C39.8395 48.2289 41.3531 48.2447 41.6807 48.1541C42.0083 48.0635 42.4307 47.3631 42.5666 47.2778L42.7014 47.1914L42.8067 48.1246L43.1638 48.1152C43.1638 48.1152 43.444 47.2546 43.4293 46.7037C43.4145 46.1528 43.069 45.5577 43.069 45.5577C43.069 45.5577 43.4335 43.6764 43.6473 42.405C43.8611 41.1337 44.2498 40.1878 43.977 39.204C43.8076 38.6304 43.6819 38.0448 43.601 37.4523C43.601 37.3701 43.7632 34.5029 43.7632 34.5029C43.7632 34.5029 41.4185 35.0306 40.6938 34.6641Z" fill="white" stroke="#263238" stroke-width="0.105333" stroke-linecap="round" stroke-linejoin="round"/>
<path d="M43.4314 46.7037C43.4141 46.4306 43.3496 46.1626 43.2407 45.9116C43.2049 45.9243 43.168 45.9369 43.128 45.9527C42.7014 46.1223 42.0536 46.9565 41.5206 47.4021C41.3721 47.5314 41.1986 47.6289 41.0109 47.6885C40.8232 47.7481 40.6253 47.7686 40.4294 47.7486L40.4157 47.7402C40.3923 47.7558 40.3662 47.7669 40.3388 47.7729C40.1745 47.8055 39.5551 47.9066 39.6973 48.0678C39.8395 48.229 41.3531 48.2448 41.6807 48.1542C42.0083 48.0636 42.4307 47.3631 42.5666 47.2778L42.7014 47.1914L42.8067 48.1247L43.1638 48.1152C43.1638 48.1152 43.4461 47.2546 43.4314 46.7037Z" fill="#263238" stroke="#263238" stroke-width="0.105333" stroke-linecap="round" stroke-linejoin="round"/>
<path d="M38.3489 26.311L38.569 28.5451L37.9634 35.0958C37.9634 35.0958 40.1648 36.0238 41.9808 35.9185C43.7967 35.8131 44.7869 35.2865 44.7869 35.2865C44.7869 35.2865 44.5393 30.4685 44.5667 30.1936C44.5941 29.9187 44.9249 28.8453 44.6499 27.6351C44.375 26.4248 44.099 25.9561 44.099 25.9561C44.099 25.9561 40.2754 26.9441 38.3489 26.311Z" fill="#263238" stroke="#263238" stroke-width="0.105333" stroke-linecap="round" stroke-linejoin="round"/>
<path d="M42.8719 14.3557C42.8719 14.3557 39.9226 16.2854 39.5581 16.7394C39.1937 17.1934 38.3552 19.3949 38.3552 19.7804C38.3552 20.1659 38.8545 24.1601 38.8545 24.1601L38.1509 26.6576C38.1509 26.6576 38.6049 27.3149 40.9654 27.1337C43.3259 26.9525 44.5056 26.3848 44.5056 26.3848C44.5056 26.3848 43.4207 23.8652 43.3986 23.525C43.3765 23.1848 44.1475 19.9436 44.1928 19.2358C44.2381 18.528 43.8578 16.6025 43.6261 16.0126C43.4026 15.448 43.1509 14.895 42.8719 14.3557Z" fill="#407BFF" stroke="#263238" stroke-width="0.105333" stroke-linecap="round" stroke-linejoin="round"/>
<path d="M39.4414 7.97674C39.4414 7.97674 38.5429 8.32223 38.5661 8.64561C38.5893 8.96898 39.0728 9.86747 39.4646 10.2361C39.8564 10.6048 40.9393 11.457 41.032 12.2185C41.1247 12.9801 40.9172 13.7164 40.617 13.7395L40.3178 13.7627C40.3178 13.7627 40.4326 14.3157 41.4702 14.4769C42.5077 14.638 43.6822 14.6148 44.2594 13.6237C44.8366 12.6325 44.6965 10.4436 44.1203 9.42929C43.5442 8.41493 42.119 7.79241 41.3311 7.67759C40.5432 7.56278 39.4414 7.97674 39.4414 7.97674Z" fill="#263238" stroke="#263238" stroke-width="0.105333" stroke-linecap="round" stroke-linejoin="round"/>
<path d="M39.2611 17.9741C39.4022 17.7724 39.5559 17.58 39.7214 17.3979C40.0096 17.116 40.3384 16.8788 40.6968 16.6943L40.9464 16.2856L41.174 16.3762C41.174 16.3762 41.806 15.9675 42.2863 15.6041C42.5432 15.4185 42.7724 15.1971 42.9667 14.9468" stroke="#263238" stroke-width="0.105333" stroke-linecap="round" stroke-linejoin="round"/>
<path d="M38.7903 18.6682C38.7903 18.6682 38.9167 18.4691 39.0905 18.2163" stroke="#263238" stroke-width="0.105333" stroke-linecap="round" stroke-linejoin="round"/>
<path d="M41.4457 16.9312C41.4457 16.9312 40.7421 17.7928 40.6747 18.0898C40.6073 18.3869 40.1333 21.8702 40.1333 21.8702C40.1333 21.8702 39.792 21.8702 39.7467 21.9619C39.7014 22.0535 39.634 22.6655 39.634 22.6655C39.634 22.6655 39.4518 22.8688 39.3612 22.892L35.9115 23.4365L36.0706 24.7985C36.0706 24.7985 38.272 24.7985 38.8851 24.73C39.4981 24.6616 40.2913 24.73 40.6757 24.571C41.2424 24.4583 41.7196 23.939 41.7196 23.939L42.0261 23.2016C42.0261 23.2016 43.2174 20.147 43.2627 19.5392C43.2925 19.2727 43.2768 19.0031 43.2164 18.7418" fill="#407BFF"/>
<path d="M41.4457 16.9312C41.4457 16.9312 40.7421 17.7928 40.6747 18.0898C40.6073 18.3869 40.1333 21.8702 40.1333 21.8702C40.1333 21.8702 39.792 21.8702 39.7467 21.9619C39.7014 22.0535 39.634 22.6655 39.634 22.6655C39.634 22.6655 39.4518 22.8688 39.3612 22.892L35.9115 23.4365L36.0706 24.7985C36.0706 24.7985 38.272 24.7985 38.8851 24.73C39.4981 24.6616 40.2913 24.73 40.6757 24.571C41.2424 24.4583 41.7196 23.939 41.7196 23.939L42.0261 23.2016C42.0261 23.2016 43.2174 20.147 43.2627 19.5392C43.2925 19.2727 43.2768 19.0031 43.2164 18.7418" stroke="#263238" stroke-width="0.105333" stroke-linecap="round" stroke-linejoin="round"/>
<path d="M30.273 8.29289C30.273 8.29289 30.6828 9.07551 30.7017 9.48526C30.7207 9.89501 30.5521 10.3606 30.608 10.6955C30.6638 11.0305 31.0177 11.1611 30.9429 11.3844C30.8681 11.6077 30.5332 11.6825 30.5332 11.6825C30.5332 11.6825 30.3657 12.4462 30.2361 12.8928C30.1066 13.3394 29.6768 13.3952 29.4725 13.3952C29.2444 13.3686 29.0195 13.3189 28.8015 13.2467L28.5782 14.536L26.0649 12.7116L26.2693 11.613L26.679 10.8493C26.679 10.8493 26.1397 9.63905 26.6232 8.78269C27.1067 7.92633 27.9451 7.64719 28.8763 7.53554C29.8074 7.42389 30.273 8.29289 30.273 8.29289Z" fill="white" stroke="#263238" stroke-width="0.105333" stroke-linecap="round" stroke-linejoin="round"/>
<path d="M27.0519 11.0115C27.0636 11.0755 27.0923 11.1353 27.1349 11.1845C27.1775 11.2338 27.2325 11.2708 27.2941 11.2917C27.4472 11.316 27.604 11.2897 27.7408 11.2169C27.7408 11.2169 27.5543 11.9805 27.8893 12.4082" stroke="#263238" stroke-width="0.105333" stroke-linecap="round" stroke-linejoin="round"/>
<path d="M29.2839 11.4402C29.2839 11.4402 29.4325 11.9985 29.9159 11.9985" stroke="#263238" stroke-width="0.105333" stroke-linecap="round" stroke-linejoin="round"/>
<path d="M29.7708 9.44723C29.7708 9.44723 30.012 9.24289 30.348 9.54098" stroke="#263238" stroke-width="0.105333" stroke-linecap="round" stroke-linejoin="round"/>
<path d="M30.1951 11.0671C30.4743 11.0671 30.7007 10.7507 30.7007 10.3604C30.7007 9.97 30.4743 9.65356 30.1951 9.65356C29.9158 9.65356 29.6895 9.97 29.6895 10.3604C29.6895 10.7507 29.9158 11.0671 30.1951 11.0671Z" stroke="#263238" stroke-width="0.105333" stroke-linecap="round" stroke-linejoin="round"/>
<path d="M30.292 10.5333C30.292 10.6618 30.2415 10.7661 30.1804 10.7661C30.1193 10.7661 30.0687 10.6608 30.0687 10.5333C30.0687 10.4059 30.1182 10.3005 30.1804 10.3005C30.2425 10.3005 30.292 10.3996 30.292 10.5333Z" fill="#263238"/>
<path d="M29.659 10.4438L27.6851 10.3975" stroke="#263238" stroke-width="0.105333" stroke-linecap="round" stroke-linejoin="round"/>
<path d="M28.8017 13.2465C28.6884 13.2154 28.5815 13.1648 28.4857 13.0969C28.374 13.0042 28.2065 12.8926 28.2065 12.8926L28.6721 14.0091L28.8017 13.2465Z" fill="#263238" stroke="#263238" stroke-width="0.105333" stroke-miterlimit="10"/>
<path d="M30.2729 8.29277C30.2729 8.29277 29.7325 7.79455 29.2838 7.93991C28.8351 8.08527 28.7066 8.31173 28.9109 8.75835C29.1153 9.20496 29.0416 9.63367 28.8372 9.76428C28.6329 9.89489 27.9809 10.0065 27.9061 10.1372C27.8437 10.2335 27.7685 10.321 27.6828 10.3973C27.6828 10.3973 27.5153 9.89489 27.2351 10.0434C26.9549 10.1919 26.8822 10.7702 27.0497 11.0114L26.2671 11.6076C26.2671 11.6076 26.305 10.7144 26.0069 10.0065C25.7088 9.29871 25.5613 7.73451 26.1238 7.26788C26.6863 6.80125 27.3878 6.89605 27.5985 6.70961C27.8092 6.52317 27.7849 6.09447 28.4412 6.03864C29.0974 5.98281 29.3723 6.46735 29.6514 6.579C29.9306 6.69065 30.0422 6.29987 30.5078 6.61587C30.9734 6.93187 31.3505 7.37953 31.1967 7.84511C31.0429 8.31068 30.2729 8.29277 30.2729 8.29277Z" fill="#263238" stroke="#263238" stroke-width="0.105333" stroke-linecap="round" stroke-linejoin="round"/>
<path d="M25.078 39.9212C25.078 39.9212 24.702 42.5188 24.702 43.0675C24.702 43.6163 24.6451 45.3301 24.6451 45.3301C24.6451 45.3301 24.4429 45.9358 24.4429 46.0801C24.4429 46.2244 24.4713 46.5709 24.4713 46.5709L24.5872 48.1014H25.9723C25.9723 48.1014 26.5211 45.9073 26.4632 44.0882C26.4052 42.2691 25.3951 38.8816 25.3951 38.8816L25.078 39.9212Z" fill="#263238" stroke="#263238" stroke-width="0.105333" stroke-linecap="round" stroke-linejoin="round"/>
<path d="M23.8677 25.8728C23.8677 25.8728 23.9382 29.2487 24.1521 30.0314C24.3659 30.814 24.8599 31.7725 24.8599 32.0211C24.8599 32.2697 25.1759 35.1811 25.3929 35.9669C25.6099 36.7527 24.7883 39.1659 25.0021 40.5521C25.2159 41.9382 25.8195 45.4227 25.8195 45.4227C25.8195 45.4227 25.6773 45.3879 25.6773 45.8851V46.9163L25.7131 48.1245H27.2415C27.2415 48.1245 27.1362 47.8759 27.4901 47.8759C27.844 47.8759 28.0589 48.0865 28.2369 48.1245C28.4149 48.1624 30.7249 48.1245 30.7249 48.1245C30.7249 48.1245 30.9029 47.8401 30.8302 47.6621C30.7575 47.484 30.5142 47.4851 30.0486 47.2355C29.5831 46.9858 29.0174 46.5961 28.8394 46.4181C28.6614 46.2401 28.5908 45.7787 28.4844 45.5649C28.378 45.351 28.2 45.1035 28.2 44.9613C28.2 44.8191 28.4107 41.5475 28.4107 39.6272C28.4107 37.707 28.6951 36.5346 29.0153 34.7577C29.3355 32.9807 29.2997 29.6743 29.3313 28.7147C29.3629 27.7551 29.4367 26.0814 29.4367 26.0814L23.8677 25.8728Z" fill="#263238" stroke="#263238" stroke-width="0.105333" stroke-linecap="round" stroke-linejoin="round"/>
<path d="M28.9059 14.9761C28.9059 14.9761 29.5105 15.6334 29.4063 16.08C29.3429 16.3469 29.3163 16.6212 29.3273 16.8952C29.3273 16.8952 29.9593 17.9486 30.0109 19.8667C30.0625 21.7848 30.4048 24.4687 30.4048 24.4687L29.8002 25.7833L29.0629 24.337C29.0629 24.337 29.2735 20.84 29.2999 19.972C29.3262 19.1041 29.3525 18.3678 29.2472 17.8422C29.1832 17.5208 29.1392 17.1958 29.1155 16.8689L28.6942 15.3437L28.9059 14.9761Z" fill="#263238" stroke="#263238" stroke-width="0.105333" stroke-linecap="round" stroke-linejoin="round"/>
<path d="M25.8891 12.3027L29.0786 14.6011L28.6963 16.0537L25.6016 13.0495L25.8891 12.3027Z" fill="#407BFF" stroke="#263238" stroke-width="0.105333" stroke-linecap="round" stroke-linejoin="round"/>
<path d="M25.5973 13.0496C25.5973 13.0496 23.7213 15.6829 23.459 16.7647C23.1967 17.8464 23.38 19.8667 23.4064 20.1353C23.4327 20.4039 23.538 25.9992 23.6697 26.2362C23.8014 26.4732 24.5629 26.5522 24.5629 26.5522H29.4546C29.4546 26.5522 29.8222 26.3679 29.7959 25.7896C29.7695 25.2113 29.6905 24.5804 29.6905 24.5804C29.6905 24.5804 29.7169 18.9008 29.6642 18.1382C29.6115 17.3756 28.692 15.7155 28.692 15.7155L25.5973 13.0496Z" fill="#407BFF" stroke="#263238" stroke-width="0.105333" stroke-linecap="round" stroke-linejoin="round"/>
<path d="M25.0158 32.9588C24.96 32.9588 24.9064 32.9366 24.8669 32.8971C24.8274 32.8576 24.8052 32.804 24.8052 32.7481V31.8939C24.8053 31.8315 24.8177 31.7698 24.8418 31.7123C24.8658 31.6548 24.9009 31.6025 24.9451 31.5586C24.9893 31.5147 25.0418 31.4799 25.0995 31.4563C25.1572 31.4326 25.2189 31.4206 25.2813 31.4209H25.9459C26.0018 31.4209 26.0554 31.4431 26.0949 31.4826C26.1344 31.5221 26.1566 31.5757 26.1566 31.6316C26.1566 31.6874 26.1344 31.741 26.0949 31.7805C26.0554 31.82 26.0018 31.8422 25.9459 31.8422H25.2813C25.2676 31.8422 25.2545 31.8477 25.2448 31.8574C25.2351 31.867 25.2297 31.8802 25.2297 31.8939V32.7481C25.2297 32.776 25.2241 32.8037 25.2133 32.8295C25.2026 32.8552 25.1868 32.8786 25.1669 32.8982C25.147 32.9178 25.1234 32.9333 25.0974 32.9437C25.0715 32.9541 25.0438 32.9592 25.0158 32.9588Z" fill="white" stroke="#263238" stroke-width="0.105333" stroke-linecap="round" stroke-linejoin="round"/>
<path d="M26.7412 29.7756C26.7412 29.7756 27.0161 30.1969 27.1447 30.2917C27.2732 30.3865 27.3227 30.5666 27.468 30.9237C27.5495 31.1084 27.6037 31.3039 27.6292 31.5041C27.6883 31.6391 27.7314 31.7805 27.7577 31.9254C27.7577 32.0381 27.2416 32.2646 27.2416 32.2646C27.2416 32.2646 27.2574 32.4753 27.1605 32.5227C27.03 32.5877 26.8809 32.6048 26.7391 32.5711C26.6 32.4821 26.4702 32.3795 26.3515 32.2646C26.1921 32.2524 26.0349 32.2198 25.8838 32.1677C25.6731 32.0866 25.4319 32.0381 25.3024 31.8601C25.1728 31.6821 25.1254 31.5536 25.1739 31.1344C25.2223 30.7152 25.4635 29.7461 25.4635 29.7461L26.7412 29.7756Z" fill="white" stroke="#263238" stroke-width="0.105333" stroke-linecap="round" stroke-linejoin="round"/>
<path d="M25.337 29.0486C25.337 29.0486 25.3697 29.8238 25.4497 29.8723C25.714 29.9916 26.0028 30.0468 26.2924 30.0335C26.527 30.0032 26.7556 29.9379 26.9708 29.8396L26.9539 29.0812C26.9539 29.0812 25.6109 29.1939 25.337 29.0486Z" fill="#407BFF" stroke="#263238" stroke-width="0.105333" stroke-linecap="round" stroke-linejoin="round"/>
<path d="M25.0138 15.3838C25.0138 15.3838 24.2217 16.9975 24.1922 17.7317C24.1627 18.4658 24.5156 22.6613 24.5156 24.3919C24.5156 26.1225 24.8969 28.7643 25.0422 29.0266C25.1876 29.2888 25.5415 29.3489 25.8048 29.3489C26.0682 29.3489 26.9203 29.4953 27.0962 29.114C27.2721 28.7327 27.0962 24.8301 27.0962 24.1844C27.0962 23.5387 28.0937 19.812 27.7124 17.6116" fill="#407BFF"/>
<path d="M25.0138 15.3838C25.0138 15.3838 24.2217 16.9975 24.1922 17.7317C24.1627 18.4658 24.5156 22.6613 24.5156 24.3919C24.5156 26.1225 24.8969 28.7643 25.0422 29.0266C25.1876 29.2888 25.5415 29.3489 25.8048 29.3489C26.0682 29.3489 26.9203 29.4953 27.0962 29.114C27.2721 28.7327 27.0962 24.8301 27.0962 24.1844C27.0962 23.5387 28.0937 19.812 27.7124 17.6116" stroke="#263238" stroke-width="0.105333" stroke-linecap="round" stroke-linejoin="round"/>
<path d="M27.984 31.4209H27.3204C27.2814 31.421 27.2431 31.4319 27.2098 31.4525V31.8106C27.243 31.8316 27.2813 31.8429 27.3204 31.8433H27.984C27.9977 31.8433 28.0109 31.8487 28.0205 31.8584C28.0302 31.8681 28.0357 31.8812 28.0357 31.8949V32.7492C28.0357 32.805 28.0578 32.8586 28.0974 32.8981C28.1369 32.9376 28.1904 32.9598 28.2463 32.9598C28.3022 32.9598 28.3558 32.9376 28.3953 32.8981C28.4348 32.8586 28.457 32.805 28.457 32.7492V31.8949C28.4571 31.8327 28.445 31.7711 28.4213 31.7136C28.3976 31.6561 28.3628 31.6038 28.3188 31.5598C28.2749 31.5158 28.2227 31.4808 28.1653 31.457C28.1078 31.4332 28.0462 31.4209 27.984 31.4209Z" fill="white" stroke="#263238" stroke-width="0.105333" stroke-linecap="round" stroke-linejoin="round"/>
<path d="M30.4238 32.7344H22.7924C22.512 32.7344 22.2847 32.9617 22.2847 33.2421V38.4877C22.2847 38.7681 22.512 38.9954 22.7924 38.9954H30.4238C30.7042 38.9954 30.9315 38.7681 30.9315 38.4877V33.2421C30.9315 32.9617 30.7042 32.7344 30.4238 32.7344Z" fill="#407BFF" stroke="#263238" stroke-width="0.105333" stroke-linecap="round" stroke-linejoin="round"/>
<path d="M27.1752 31.324L27.1931 31.9655" stroke="#263238" stroke-width="0.105333" stroke-linecap="round" stroke-linejoin="round"/>
</svg>
