<svg width="220" height="256" viewBox="0 0 220 256" fill="none" xmlns="http://www.w3.org/2000/svg">
<g filter="url(#filter0_d_1170_8497)">
<g clip-path="url(#clip0_1170_8497)">
<rect x="100" y="95" width="100" height="56" rx="9.80148" fill="url(#paint0_linear_1170_8497)" shape-rendering="crispEdges"/>
<g style="mix-blend-mode:luminosity" opacity="0.1" clip-path="url(#clip1_1170_8497)">
<path d="M166.857 125.791L136.508 138.613L154.113 180.282L184.461 167.46L166.857 125.791Z" fill="#407BFF" stroke="#263238" stroke-width="0.112" stroke-miterlimit="10"/>
<path d="M166.568 127.031L137.599 139.27L154.404 179.046L183.373 166.807L166.568 127.031Z" fill="white" stroke="#263238" stroke-width="0.112" stroke-linecap="round" stroke-linejoin="round"/>
<path d="M158.425 134.55L166.023 131.15" stroke="#263238" stroke-width="0.112" stroke-linecap="round" stroke-linejoin="round"/>
<path d="M141.817 141.978L145.266 140.436" stroke="#263238" stroke-width="0.112" stroke-linecap="round" stroke-linejoin="round"/>
<path d="M168.376 139.557L169.524 139.045" stroke="#263238" stroke-width="0.112" stroke-linecap="round" stroke-linejoin="round"/>
<path d="M163.146 141.896L167.74 139.841" stroke="#263238" stroke-width="0.112" stroke-linecap="round" stroke-linejoin="round"/>
<path d="M160.479 143.09L162.39 142.236" stroke="#263238" stroke-width="0.112" stroke-linecap="round" stroke-linejoin="round"/>
<path d="M155.067 145.51L159.629 143.469" stroke="#263238" stroke-width="0.112" stroke-linecap="round" stroke-linejoin="round"/>
<path d="M151.581 147.071L154.265 145.871" stroke="#263238" stroke-width="0.112" stroke-linecap="round" stroke-linejoin="round"/>
<path d="M145.318 149.873L150.732 147.45" stroke="#263238" stroke-width="0.112" stroke-linecap="round" stroke-linejoin="round"/>
<path d="M167.071 143.101L170.983 141.351" stroke="#263238" stroke-width="0.112" stroke-linecap="round" stroke-linejoin="round"/>
<path d="M158.96 146.729L166.176 143.501" stroke="#263238" stroke-width="0.112" stroke-linecap="round" stroke-linejoin="round"/>
<path d="M153.426 149.205L157.656 147.314" stroke="#263238" stroke-width="0.112" stroke-linecap="round" stroke-linejoin="round"/>
<path d="M146.774 152.179L152.652 149.552" stroke="#263238" stroke-width="0.112" stroke-linecap="round" stroke-linejoin="round"/>
<path d="M169.406 145.108L171.917 143.984" stroke="#263238" stroke-width="0.112" stroke-linecap="round" stroke-linejoin="round"/>
<path d="M162.493 148.2L168.617 145.461" stroke="#263238" stroke-width="0.112" stroke-linecap="round" stroke-linejoin="round"/>
<path d="M160.931 148.9L161.916 148.459" stroke="#263238" stroke-width="0.112" stroke-linecap="round" stroke-linejoin="round"/>
<path d="M156.277 150.981L160.235 149.212" stroke="#263238" stroke-width="0.112" stroke-linecap="round" stroke-linejoin="round"/>
<path d="M167.705 148.83L172.944 146.485" stroke="#263238" stroke-width="0.112" stroke-linecap="round" stroke-linejoin="round"/>
<path d="M158.957 152.742L166.765 149.251" stroke="#263238" stroke-width="0.112" stroke-linecap="round" stroke-linejoin="round"/>
<path opacity="0.2" d="M180.485 122.075C177.792 122.797 175.652 124.471 174.431 126.542L174.257 122.497L172.683 124.039C171.993 124.538 171.402 125.16 170.937 125.874C170.142 127.08 170.113 128.828 170.113 128.828L173.073 126.419C173.073 126.419 170.463 130.599 170.712 131.527C170.961 132.456 171.257 134.487 171.257 134.487L173.453 131.96C173.491 132.101 173.515 132.247 173.553 132.39C173.831 133.424 174.335 134.383 175.029 135.199C174.853 135.862 174.834 136.557 174.975 137.229C175.151 137.944 175.459 138.62 175.882 139.224L177.11 136.937C177.264 137.029 177.42 137.114 177.582 137.196L178.664 138.478L180.051 139.474L179.94 138.136L179.744 137.973C181.385 138.335 183.09 138.293 184.711 137.85C189.707 136.512 192.807 131.897 191.641 127.543C190.474 123.189 185.48 120.737 180.485 122.075Z" fill="black"/>
<path d="M185.811 121.025C184.104 120.27 182.191 120.122 180.388 120.605C178.586 121.088 177.003 122.173 175.903 123.68L172.953 124.47L174.602 130.625C174.866 131.678 175.338 132.668 175.988 133.537C176.639 134.406 177.456 135.137 178.391 135.687C179.327 136.237 180.363 136.596 181.439 136.742C182.515 136.888 183.609 136.818 184.657 136.537C185.706 136.256 186.688 135.77 187.547 135.105C188.406 134.441 189.124 133.612 189.659 132.668C190.194 131.723 190.536 130.682 190.665 129.604C190.794 128.526 190.707 127.433 190.409 126.389L188.76 120.235L185.811 121.025Z" fill="#9E9E9E" stroke="#263238" stroke-width="0.112" stroke-linecap="round" stroke-linejoin="round"/>
<path d="M182.973 130.255C187.338 129.086 189.928 124.6 188.758 120.235C187.589 115.871 183.103 113.281 178.738 114.45C174.374 115.62 171.784 120.106 172.953 124.47C174.123 128.835 178.609 131.425 182.973 130.255Z" fill="#BDBDBD" stroke="#263238" stroke-width="0.112" stroke-linecap="round" stroke-linejoin="round"/>
<path d="M182.786 129.552C186.762 128.486 189.121 124.4 188.056 120.423C186.991 116.447 182.904 114.088 178.928 115.153C174.951 116.219 172.592 120.306 173.657 124.282C174.723 128.258 178.81 130.617 182.786 129.552Z" fill="#9E9E9E" stroke="#263238" stroke-width="0.112" stroke-linecap="round" stroke-linejoin="round"/>
<path d="M182.785 129.55C186.544 128.543 188.804 124.783 187.831 121.154C186.859 117.524 183.022 115.398 179.263 116.405C175.503 117.413 173.244 121.172 174.216 124.802C175.189 128.431 179.025 130.557 182.785 129.55Z" fill="#5C5C5C" stroke="#263238" stroke-width="0.112" stroke-linecap="round" stroke-linejoin="round"/>
<path d="M180.406 122.129L176.927 109.143" stroke="#263238" stroke-width="0.224" stroke-linecap="round" stroke-linejoin="round"/>
<path d="M179.712 119.976C179.712 119.976 174.594 123.57 174.253 129.273" stroke="#263238" stroke-width="0.224" stroke-linecap="round" stroke-linejoin="round"/>
<path d="M177.908 113.236C177.908 113.236 174.752 111.041 169.633 111.594" stroke="#263238" stroke-width="0.224" stroke-linecap="round" stroke-linejoin="round"/>
<path d="M175.059 125.803C175.059 125.803 171.325 125.867 170.325 127.793C169.325 129.719 170.348 131.9 170.348 131.9C170.348 131.9 170.594 131.473 172.159 130.043C173.725 128.614 175.059 125.803 175.059 125.803Z" fill="#407BFF" stroke="#263238" stroke-width="0.112" stroke-miterlimit="10"/>
<path d="M175.059 125.803C173.552 126.554 172.291 127.718 171.423 129.16L175.059 125.803Z" fill="#407BFF"/>
<path d="M175.059 125.803C173.552 126.554 172.291 127.718 171.423 129.16" stroke="#263238" stroke-width="0.112" stroke-miterlimit="10"/>
<path d="M174.374 128.918C174.374 128.918 171.432 131.214 171.8 133.361C172.169 135.509 174.286 136.627 174.286 136.627C174.286 136.627 174.225 136.14 174.609 134.056C174.994 131.971 174.374 128.918 174.374 128.918Z" fill="#407BFF" stroke="#263238" stroke-width="0.112" stroke-miterlimit="10"/>
<path d="M174.373 128.918C173.621 130.427 173.315 132.12 173.493 133.797L174.373 128.918Z" fill="#407BFF"/>
<path d="M174.373 128.918C173.621 130.427 173.315 132.12 173.493 133.797" stroke="#263238" stroke-width="0.112" stroke-miterlimit="10"/>
<path d="M176.183 123.671C176.183 123.671 179.879 124.188 180.634 126.232C181.388 128.276 180.106 130.306 180.106 130.306C180.106 130.306 179.916 129.853 178.54 128.241C177.165 126.628 176.183 123.671 176.183 123.671Z" fill="#407BFF" stroke="#263238" stroke-width="0.112" stroke-miterlimit="10"/>
<path d="M176.183 123.671C177.59 124.602 178.701 125.915 179.385 127.456L176.183 123.671Z" fill="#407BFF"/>
<path d="M176.183 123.671C177.59 124.602 178.701 125.915 179.385 127.456" stroke="#263238" stroke-width="0.112" stroke-miterlimit="10"/>
<path d="M179.731 119.979C179.731 119.979 183.428 120.496 184.182 122.54C184.937 124.584 183.662 126.612 183.662 126.612C183.662 126.612 183.469 126.158 182.095 124.547C180.72 122.936 179.731 119.979 179.731 119.979Z" fill="#407BFF" stroke="#263238" stroke-width="0.112" stroke-miterlimit="10"/>
<path d="M179.731 119.979C181.137 120.909 182.247 122.222 182.931 123.763L179.731 119.979Z" fill="#407BFF"/>
<path d="M179.731 119.979C181.137 120.909 182.247 122.222 182.931 123.763" stroke="#263238" stroke-width="0.112" stroke-miterlimit="10"/>
<path d="M176.328 123.355C176.328 123.355 173.391 121.043 171.402 121.912C169.412 122.781 168.813 125.108 168.813 125.108C168.813 125.108 169.274 124.933 171.39 124.816C173.505 124.699 176.328 123.355 176.328 123.355Z" fill="#407BFF" stroke="#263238" stroke-width="0.112" stroke-miterlimit="10"/>
<path d="M176.329 123.355C174.684 122.981 172.967 123.084 171.379 123.652L176.329 123.355Z" fill="#407BFF"/>
<path d="M176.329 123.355C174.684 122.981 172.967 123.084 171.379 123.652" stroke="#263238" stroke-width="0.112" stroke-miterlimit="10"/>
<path d="M179.444 118.68C179.444 118.68 185.672 119.234 188.821 124.002" stroke="#263238" stroke-width="0.224" stroke-linecap="round" stroke-linejoin="round"/>
<path d="M186.39 121.408C186.39 121.408 189.655 119.594 191.483 120.765C193.311 121.936 193.515 124.332 193.515 124.332C193.515 124.332 193.088 124.087 191.019 123.631C188.95 123.175 186.39 121.408 186.39 121.408Z" fill="#407BFF" stroke="#263238" stroke-width="0.112" stroke-miterlimit="10"/>
<path d="M186.39 121.408C188.072 121.301 189.749 121.677 191.224 122.493L186.39 121.408Z" fill="#407BFF"/>
<path d="M186.39 121.408C188.072 121.301 189.749 121.677 191.224 122.493" stroke="#263238" stroke-width="0.112" stroke-miterlimit="10"/>
<path d="M188.543 123.762C188.543 123.762 192.24 124.279 192.994 126.323C193.748 128.367 192.466 130.397 192.466 130.397C192.466 130.397 192.273 129.943 190.898 128.33C189.522 126.717 188.543 123.762 188.543 123.762Z" fill="#407BFF" stroke="#263238" stroke-width="0.112" stroke-miterlimit="10"/>
<path d="M188.543 123.762C189.949 124.692 191.06 126.005 191.745 127.545L188.543 123.762Z" fill="#407BFF"/>
<path d="M188.543 123.762C189.949 124.692 191.06 126.005 191.745 127.545" stroke="#263238" stroke-width="0.112" stroke-miterlimit="10"/>
<path d="M184.35 120.122C184.35 120.122 181.407 122.418 181.777 124.568C182.146 126.717 184.27 127.83 184.27 127.83C184.27 127.83 184.209 127.342 184.593 125.258C184.978 123.173 184.35 120.122 184.35 120.122Z" fill="#407BFF" stroke="#263238" stroke-width="0.112" stroke-miterlimit="10"/>
<path d="M184.35 120.122C183.598 121.631 183.292 123.324 183.47 125.001L184.35 120.122Z" fill="#407BFF"/>
<path d="M184.35 120.122C183.598 121.631 183.292 123.324 183.47 125.001" stroke="#263238" stroke-width="0.112" stroke-miterlimit="10"/>
<path d="M184.068 119.92C184.068 119.92 185.453 116.45 187.609 116.202C189.765 115.954 191.449 117.673 191.449 117.673C191.449 117.673 190.962 117.754 189.071 118.709C187.18 119.664 184.068 119.92 184.068 119.92Z" fill="#407BFF" stroke="#263238" stroke-width="0.112" stroke-miterlimit="10"/>
<path d="M184.068 119.92C185.304 118.774 186.843 118.005 188.502 117.703L184.068 119.92Z" fill="#407BFF"/>
<path d="M184.068 119.92C185.304 118.774 186.843 118.005 188.502 117.703" stroke="#263238" stroke-width="0.112" stroke-miterlimit="10"/>
<path d="M179.733 119.916C179.733 119.916 176.799 117.604 174.803 118.468C172.808 119.332 172.214 121.664 172.214 121.664C172.214 121.664 172.675 121.489 174.791 121.37C176.906 121.251 179.733 119.916 179.733 119.916Z" fill="#407BFF" stroke="#263238" stroke-width="0.112" stroke-miterlimit="10"/>
<path d="M179.733 119.916C178.089 119.542 176.372 119.646 174.785 120.215L179.733 119.916Z" fill="#407BFF"/>
<path d="M179.733 119.916C178.089 119.542 176.372 119.646 174.785 120.215" stroke="#263238" stroke-width="0.112" stroke-miterlimit="10"/>
<path d="M177.771 113.058C177.771 113.058 174.137 113.96 173.605 116.06C173.074 118.16 174.545 120.06 174.545 120.06C174.545 120.06 174.691 119.59 175.89 117.843C177.088 116.096 177.771 113.058 177.771 113.058Z" fill="#407BFF" stroke="#263238" stroke-width="0.112" stroke-miterlimit="10"/>
<path d="M177.771 113.058C176.467 114.126 175.496 115.545 174.973 117.148L177.771 113.058Z" fill="#407BFF"/>
<path d="M177.771 113.058C176.467 114.126 175.496 115.545 174.973 117.148" stroke="#263238" stroke-width="0.112" stroke-miterlimit="10"/>
<path d="M172.044 111.386C172.044 111.386 168.752 109.621 166.938 110.816C165.124 112.01 164.952 114.412 164.952 114.412C164.952 114.412 165.375 114.159 167.439 113.673C169.503 113.186 172.044 111.386 172.044 111.386Z" fill="#407BFF" stroke="#263238" stroke-width="0.112" stroke-miterlimit="10"/>
<path d="M172.044 111.386C170.36 111.303 168.688 111.704 167.224 112.541L172.044 111.386Z" fill="#407BFF"/>
<path d="M172.044 111.386C170.36 111.303 168.688 111.704 167.224 112.541" stroke="#263238" stroke-width="0.112" stroke-miterlimit="10"/>
<path d="M174.061 111.872C174.061 111.872 170.405 112.637 169.79 114.722C169.175 116.808 170.584 118.752 170.584 118.752C170.584 118.752 170.743 118.279 172.012 116.586C173.282 114.894 174.061 111.872 174.061 111.872Z" fill="#407BFF" stroke="#263238" stroke-width="0.112" stroke-miterlimit="10"/>
<path d="M174.062 111.872C172.72 112.893 171.698 114.277 171.116 115.86L174.062 111.872Z" fill="#407BFF"/>
<path d="M174.062 111.872C172.72 112.893 171.698 114.277 171.116 115.86" stroke="#263238" stroke-width="0.112" stroke-miterlimit="10"/>
<path d="M175.018 111.857C175.018 111.857 174.841 108.127 172.886 107.187C170.93 106.246 168.779 107.324 168.779 107.324C168.779 107.324 169.213 107.559 170.689 109.081C172.164 110.602 175.018 111.857 175.018 111.857Z" fill="#407BFF" stroke="#263238" stroke-width="0.112" stroke-miterlimit="10"/>
<path d="M175.018 111.857C174.224 110.37 173.021 109.141 171.552 108.315L175.018 111.857Z" fill="#407BFF"/>
<path d="M175.018 111.857C174.224 110.37 173.021 109.141 171.552 108.315" stroke="#263238" stroke-width="0.112" stroke-miterlimit="10"/>
<path d="M179.188 117.222C179.188 117.222 180.829 113.743 185.534 111.665" stroke="#263238" stroke-width="0.224" stroke-linecap="round" stroke-linejoin="round"/>
<path d="M179.218 116.999C179.218 116.999 182.807 115.966 184.326 117.517C185.844 119.067 185.511 121.45 185.511 121.45C185.511 121.45 185.15 121.116 183.239 120.205C181.328 119.293 179.218 116.999 179.218 116.999Z" fill="#407BFF" stroke="#263238" stroke-width="0.112" stroke-miterlimit="10"/>
<path d="M179.218 116.999C180.882 117.273 182.433 118.017 183.687 119.144L179.218 116.999Z" fill="#407BFF"/>
<path d="M179.218 116.999C180.882 117.273 182.433 118.017 183.687 119.144" stroke="#263238" stroke-width="0.112" stroke-miterlimit="10"/>
<path d="M183.351 112.68C183.351 112.68 185.319 109.506 187.488 109.634C189.656 109.761 191.004 111.756 191.004 111.756C191.004 111.756 190.511 111.748 188.483 112.358C186.454 112.969 183.351 112.68 183.351 112.68Z" fill="#407BFF" stroke="#263238" stroke-width="0.112" stroke-miterlimit="10"/>
<path d="M183.351 112.68C184.768 111.767 186.417 111.278 188.103 111.271L183.351 112.68Z" fill="#407BFF"/>
<path d="M183.351 112.68C184.768 111.767 186.417 111.278 188.103 111.271" stroke="#263238" stroke-width="0.112" stroke-miterlimit="10"/>
<path d="M181.839 114.119C181.839 114.119 185.387 112.953 186.962 114.45C188.537 115.947 188.288 118.337 188.288 118.337C188.288 118.337 187.913 118.007 185.97 117.175C184.026 116.343 181.839 114.119 181.839 114.119Z" fill="#407BFF" stroke="#263238" stroke-width="0.112" stroke-miterlimit="10"/>
<path d="M181.839 114.119C183.511 114.332 185.087 115.018 186.381 116.098L181.839 114.119Z" fill="#407BFF"/>
<path d="M181.839 114.119C183.511 114.332 185.087 115.018 186.381 116.098" stroke="#263238" stroke-width="0.112" stroke-miterlimit="10"/>
<path d="M181.002 114.582C181.002 114.582 179.289 111.264 180.514 109.472C181.739 107.679 184.15 107.539 184.15 107.539C184.15 107.539 183.89 107.959 183.373 110.015C182.855 112.07 181.002 114.582 181.002 114.582Z" fill="#407BFF" stroke="#263238" stroke-width="0.112" stroke-miterlimit="10"/>
<path d="M181.002 114.582C180.947 112.897 181.374 111.232 182.234 109.782L181.002 114.582Z" fill="#407BFF"/>
<path d="M181.002 114.582C180.947 112.897 181.374 111.232 182.234 109.782" stroke="#263238" stroke-width="0.112" stroke-miterlimit="10"/>
<path d="M177.16 110.191C177.16 110.191 178.801 106.711 183.505 104.632" stroke="#263238" stroke-width="0.224" stroke-linecap="round" stroke-linejoin="round"/>
<path d="M177.19 109.966C177.19 109.966 180.779 108.933 182.297 110.484C183.815 112.035 183.483 114.417 183.483 114.417C183.483 114.417 183.122 114.083 181.211 113.172C179.3 112.261 177.19 109.966 177.19 109.966Z" fill="#407BFF" stroke="#263238" stroke-width="0.112" stroke-miterlimit="10"/>
<path d="M177.19 109.966C178.854 110.24 180.404 110.984 181.659 112.111L177.19 109.966Z" fill="#407BFF"/>
<path d="M177.19 109.966C178.854 110.24 180.404 110.984 181.659 112.111" stroke="#263238" stroke-width="0.112" stroke-miterlimit="10"/>
<path d="M177.239 109.834C177.239 109.834 174.289 107.543 174.647 105.401C175.006 103.259 177.128 102.128 177.128 102.128C177.128 102.128 177.069 102.618 177.464 104.7C177.858 106.783 177.239 109.834 177.239 109.834Z" fill="#407BFF" stroke="#263238" stroke-width="0.112" stroke-miterlimit="10"/>
<path d="M177.239 109.834C176.48 108.329 176.167 106.638 176.338 104.961L177.239 109.834Z" fill="#407BFF"/>
<path d="M177.239 109.834C176.48 108.329 176.167 106.638 176.338 104.961" stroke="#263238" stroke-width="0.112" stroke-miterlimit="10"/>
<path d="M181.324 105.652C181.324 105.652 183.292 102.477 185.46 102.605C187.629 102.732 188.976 104.73 188.976 104.73C188.976 104.73 188.483 104.722 186.454 105.332C184.425 105.942 181.324 105.652 181.324 105.652Z" fill="#407BFF" stroke="#263238" stroke-width="0.112" stroke-miterlimit="10"/>
<path d="M181.324 105.652C182.739 104.741 184.385 104.253 186.068 104.245L181.324 105.652Z" fill="#407BFF"/>
<path d="M181.324 105.652C182.739 104.741 184.385 104.253 186.068 104.245" stroke="#263238" stroke-width="0.112" stroke-miterlimit="10"/>
<path d="M179.81 107.086C179.81 107.086 183.359 105.92 184.934 107.417C186.509 108.914 186.26 111.304 186.26 111.304C186.26 111.304 185.885 110.974 183.942 110.144C181.999 109.315 179.81 107.086 179.81 107.086Z" fill="#407BFF" stroke="#263238" stroke-width="0.112" stroke-miterlimit="10"/>
<path d="M179.81 107.086C181.48 107.302 183.053 107.99 184.345 109.069L179.81 107.086Z" fill="#407BFF"/>
<path d="M179.81 107.086C181.48 107.302 183.053 107.99 184.345 109.069" stroke="#263238" stroke-width="0.112" stroke-miterlimit="10"/>
<path d="M178.984 107.549C178.984 107.549 177.26 104.232 178.477 102.441C179.694 100.65 182.115 100.521 182.115 100.521C182.115 100.521 181.854 100.94 181.337 102.995C180.819 105.05 178.984 107.549 178.984 107.549Z" fill="#407BFF" stroke="#263238" stroke-width="0.112" stroke-miterlimit="10"/>
<path d="M178.985 107.549C178.928 105.867 179.352 104.204 180.207 102.755L178.985 107.549Z" fill="#407BFF"/>
<path d="M178.985 107.549C178.928 105.867 179.352 104.204 180.207 102.755" stroke="#263238" stroke-width="0.112" stroke-miterlimit="10"/>
<path d="M177.98 113.568C177.98 113.568 178.694 109.901 177.018 108.524C175.342 107.147 172.993 107.688 172.993 107.688C172.993 107.688 173.36 108.02 174.432 109.846C175.505 111.671 177.98 113.568 177.98 113.568Z" fill="#407BFF" stroke="#263238" stroke-width="0.112" stroke-miterlimit="10"/>
<path d="M177.98 113.568C177.561 111.935 176.685 110.455 175.454 109.302L177.98 113.568Z" fill="#407BFF"/>
<path d="M177.98 113.568C177.561 111.935 176.685 110.455 175.454 109.302" stroke="#263238" stroke-width="0.112" stroke-miterlimit="10"/>
<path opacity="0.2" d="M199.82 140.55L189.017 139.145C188.144 139.032 187.343 139.648 187.23 140.522L184.21 163.74C184.096 164.614 184.712 165.415 185.586 165.528L196.389 166.933C197.263 167.047 198.063 166.431 198.177 165.557L201.197 142.338C201.31 141.464 200.694 140.664 199.82 140.55Z" fill="black"/>
<path d="M200.27 140.428L189.467 139.023C188.593 138.91 187.793 139.526 187.679 140.4L184.659 163.619C184.546 164.492 185.162 165.293 186.036 165.407L196.839 166.812C197.712 166.925 198.513 166.309 198.626 165.435L201.646 142.216C201.76 141.342 201.144 140.542 200.27 140.428Z" fill="white" stroke="#263238" stroke-width="0.112" stroke-linecap="round" stroke-linejoin="round"/>
<path d="M200.854 143.452L188.128 141.797L185.451 162.385L198.176 164.04L200.854 143.452Z" fill="#263238" stroke="#263238" stroke-width="0.112" stroke-linecap="round" stroke-linejoin="round"/>
<path d="M199.603 150.723L190.857 156.171" stroke="#8A8A8A" stroke-width="0.112" stroke-linecap="round" stroke-linejoin="round"/>
<path d="M196.059 141.363L193.292 141.004C193.267 141.001 193.243 140.993 193.222 140.981C193.2 140.968 193.181 140.952 193.166 140.932C193.15 140.912 193.139 140.89 193.133 140.866C193.126 140.842 193.124 140.816 193.128 140.792C193.131 140.767 193.139 140.743 193.151 140.721C193.163 140.7 193.18 140.681 193.2 140.665C193.219 140.65 193.242 140.639 193.266 140.632C193.29 140.626 193.315 140.624 193.34 140.627L196.106 140.986C196.157 140.993 196.202 141.019 196.233 141.059C196.264 141.099 196.278 141.15 196.272 141.201C196.268 141.225 196.26 141.249 196.248 141.27C196.235 141.292 196.219 141.311 196.199 141.326C196.179 141.341 196.157 141.352 196.133 141.358C196.108 141.365 196.083 141.366 196.059 141.363Z" fill="#263238"/>
<path d="M162.836 133.783L133.704 149.169L154.829 189.168L183.961 173.783L162.836 133.783Z" fill="#407BFF" stroke="#263238" stroke-width="0.112" stroke-miterlimit="10"/>
<path d="M162.655 135.043L134.847 149.729L155.012 187.912L182.82 173.225L162.655 135.043Z" fill="white" stroke="#263238" stroke-width="0.112" stroke-linecap="round" stroke-linejoin="round"/>
<path d="M155.189 143.235L162.466 139.194" stroke="#263238" stroke-width="0.112" stroke-linecap="round" stroke-linejoin="round"/>
<path d="M139.282 152.065L142.585 150.232" stroke="#263238" stroke-width="0.112" stroke-linecap="round" stroke-linejoin="round"/>
<path d="M165.535 147.367L166.634 146.758" stroke="#263238" stroke-width="0.112" stroke-linecap="round" stroke-linejoin="round"/>
<path d="M160.525 150.148L164.925 147.705" stroke="#263238" stroke-width="0.112" stroke-linecap="round" stroke-linejoin="round"/>
<path d="M157.971 151.567L159.801 150.551" stroke="#263238" stroke-width="0.112" stroke-linecap="round" stroke-linejoin="round"/>
<path d="M164.539 151.011L168.286 148.93" stroke="#263238" stroke-width="0.112" stroke-linecap="round" stroke-linejoin="round"/>
</g>
<path d="M158.25 109.747L140.366 112.23L143.775 136.785L161.658 134.302L158.25 109.747Z" fill="#407BFF" stroke="#263238" stroke-width="0.112" stroke-miterlimit="10"/>
<path d="M157.921 110.362L140.85 112.732L144.104 136.172L161.175 133.802L157.921 110.362Z" fill="white" stroke="#263238" stroke-width="0.112" stroke-linecap="round" stroke-linejoin="round"/>
<path d="M152.544 113.188L157.048 112.466" stroke="#263238" stroke-width="0.112" stroke-linecap="round" stroke-linejoin="round"/>
<path d="M142.699 114.764L144.743 114.437" stroke="#263238" stroke-width="0.112" stroke-linecap="round" stroke-linejoin="round"/>
<path d="M157.102 117.25L157.782 117.141" stroke="#263238" stroke-width="0.112" stroke-linecap="round" stroke-linejoin="round"/>
<path d="M154.001 117.746L156.724 117.31" stroke="#263238" stroke-width="0.112" stroke-linecap="round" stroke-linejoin="round"/>
<path d="M152.42 118L153.553 117.818" stroke="#263238" stroke-width="0.112" stroke-linecap="round" stroke-linejoin="round"/>
<path d="M149.212 118.513L151.916 118.08" stroke="#263238" stroke-width="0.112" stroke-linecap="round" stroke-linejoin="round"/>
<path d="M147.145 118.845L148.736 118.59" stroke="#263238" stroke-width="0.112" stroke-linecap="round" stroke-linejoin="round"/>
<path d="M143.432 119.44L146.642 118.925" stroke="#263238" stroke-width="0.112" stroke-linecap="round" stroke-linejoin="round"/>
<path d="M155.908 118.941L158.227 118.569" stroke="#263238" stroke-width="0.112" stroke-linecap="round" stroke-linejoin="round"/>
<path d="M151.099 119.711L155.378 119.025" stroke="#263238" stroke-width="0.112" stroke-linecap="round" stroke-linejoin="round"/>
<path d="M147.819 120.237L150.326 119.835" stroke="#263238" stroke-width="0.112" stroke-linecap="round" stroke-linejoin="round"/>
<path d="M143.876 120.867L147.36 120.31" stroke="#263238" stroke-width="0.112" stroke-linecap="round" stroke-linejoin="round"/>
<path d="M156.86 120.334L158.348 120.096" stroke="#263238" stroke-width="0.112" stroke-linecap="round" stroke-linejoin="round"/>
<path d="M152.761 120.991L156.392 120.41" stroke="#263238" stroke-width="0.112" stroke-linecap="round" stroke-linejoin="round"/>
<path d="M151.835 121.139L152.419 121.046" stroke="#263238" stroke-width="0.112" stroke-linecap="round" stroke-linejoin="round"/>
<path d="M149.076 121.581L151.422 121.206" stroke="#263238" stroke-width="0.112" stroke-linecap="round" stroke-linejoin="round"/>
<path d="M144.826 122.262L148.708 121.64" stroke="#263238" stroke-width="0.112" stroke-linecap="round" stroke-linejoin="round"/>
<path d="M143.998 122.394L144.485 122.317" stroke="#263238" stroke-width="0.112" stroke-linecap="round" stroke-linejoin="round"/>
<path d="M155.431 122.063L158.537 121.565" stroke="#263238" stroke-width="0.112" stroke-linecap="round" stroke-linejoin="round"/>
<path d="M150.245 122.894L154.874 122.153" stroke="#263238" stroke-width="0.112" stroke-linecap="round" stroke-linejoin="round"/>
<path d="M148.951 123.101L149.76 122.971" stroke="#263238" stroke-width="0.112" stroke-linecap="round" stroke-linejoin="round"/>
<path d="M144.187 123.864L148.322 123.201" stroke="#263238" stroke-width="0.112" stroke-linecap="round" stroke-linejoin="round"/>
<path d="M152.106 124.096L152.576 124.019" stroke="#263238" stroke-width="0.112" stroke-linecap="round" stroke-linejoin="round"/>
<path d="M148.296 124.706L151.638 124.17" stroke="#263238" stroke-width="0.112" stroke-linecap="round" stroke-linejoin="round"/>
<path d="M144.375 125.333L147.756 124.792" stroke="#263238" stroke-width="0.112" stroke-linecap="round" stroke-linejoin="round"/>
<path opacity="0.2" d="M165.991 109.713C164.464 109.713 163.093 110.296 162.153 111.219L162.635 109.053L161.583 109.646C161.147 109.812 160.746 110.058 160.399 110.37C159.807 110.895 159.544 111.816 159.544 111.816L161.452 110.961C161.452 110.961 159.477 112.804 159.477 113.33C159.477 113.857 159.346 114.974 159.346 114.974L160.867 113.948C160.867 114.028 160.859 114.109 160.859 114.19C160.86 114.777 160.991 115.356 161.242 115.886C161.055 116.212 160.946 116.578 160.925 116.953C160.917 117.357 160.984 117.758 161.122 118.138L162.097 117.101C162.166 117.172 162.236 117.239 162.31 117.305L162.701 118.138L163.294 118.862L163.425 118.138L163.344 118.024C164.162 118.448 165.07 118.667 165.991 118.663C168.825 118.663 171.121 116.66 171.121 114.19C171.121 111.719 168.825 109.713 165.991 109.713Z" fill="black"/>
<path d="M168.96 109.912C168.163 109.271 167.172 108.921 166.149 108.921C165.126 108.921 164.134 109.271 163.338 109.912H161.665V113.404C161.655 113.999 161.764 114.59 161.985 115.142C162.206 115.695 162.535 116.197 162.953 116.621C163.37 117.045 163.867 117.382 164.416 117.612C164.965 117.842 165.554 117.96 166.149 117.96C166.744 117.96 167.333 117.842 167.882 117.612C168.43 117.382 168.928 117.045 169.345 116.621C169.763 116.197 170.091 115.695 170.313 115.142C170.534 114.59 170.643 113.999 170.633 113.404V109.912H168.96Z" fill="#9E9E9E" stroke="#263238" stroke-width="0.112" stroke-linecap="round" stroke-linejoin="round"/>
<path d="M166.148 114.396C168.625 114.396 170.632 112.389 170.632 109.912C170.632 107.436 168.625 105.429 166.148 105.429C163.672 105.429 161.665 107.436 161.665 109.912C161.665 112.389 163.672 114.396 166.148 114.396Z" fill="#BDBDBD" stroke="#263238" stroke-width="0.112" stroke-linecap="round" stroke-linejoin="round"/>
<path d="M166.149 113.997C168.405 113.997 170.234 112.168 170.234 109.912C170.234 107.656 168.405 105.828 166.149 105.828C163.893 105.828 162.064 107.656 162.064 109.912C162.064 112.168 163.893 113.997 166.149 113.997Z" fill="#9E9E9E" stroke="#263238" stroke-width="0.112" stroke-linecap="round" stroke-linejoin="round"/>
<path d="M166.149 113.996C168.282 113.996 170.011 112.326 170.011 110.267C170.011 108.208 168.282 106.538 166.149 106.538C164.016 106.538 162.286 108.208 162.286 110.267C162.286 112.326 164.016 113.996 166.149 113.996Z" fill="#5C5C5C" stroke="#263238" stroke-width="0.112" stroke-linecap="round" stroke-linejoin="round"/>
<path d="M165.943 109.73V102.362" stroke="#263238" stroke-width="0.224" stroke-linecap="round" stroke-linejoin="round"/>
<path d="M165.88 108.492C165.88 108.492 162.661 109.668 161.672 112.639" stroke="#263238" stroke-width="0.224" stroke-linecap="round" stroke-linejoin="round"/>
<path d="M165.881 104.668C165.881 104.668 164.522 103.059 161.734 102.625" stroke="#263238" stroke-width="0.224" stroke-linecap="round" stroke-linejoin="round"/>
<path d="M162.591 110.917C162.591 110.917 160.605 110.421 159.802 111.299C159 112.176 159.232 113.476 159.232 113.476C159.232 113.476 159.422 113.284 160.454 112.75C161.486 112.215 162.591 110.917 162.591 110.917Z" fill="#407BFF" stroke="#263238" stroke-width="0.112" stroke-miterlimit="10"/>
<path d="M162.59 110.917C161.687 111.1 160.854 111.538 160.19 112.178L162.59 110.917Z" fill="#407BFF"/>
<path d="M162.59 110.917C161.687 111.1 160.854 111.538 160.19 112.178" stroke="#263238" stroke-width="0.112" stroke-miterlimit="10"/>
<path d="M161.786 112.468C161.786 112.468 159.903 113.266 159.793 114.455C159.684 115.644 160.646 116.537 160.646 116.537C160.646 116.537 160.683 116.27 161.182 115.221C161.681 114.173 161.786 112.468 161.786 112.468Z" fill="#407BFF" stroke="#263238" stroke-width="0.112" stroke-miterlimit="10"/>
<path d="M161.786 112.468C161.173 113.16 160.771 114.013 160.628 114.926L161.786 112.468Z" fill="#407BFF"/>
<path d="M161.786 112.468C161.173 113.16 160.771 114.013 160.628 114.926" stroke="#263238" stroke-width="0.112" stroke-miterlimit="10"/>
<path d="M163.488 109.948C163.488 109.948 165.371 110.746 165.481 111.935C165.59 113.124 164.623 114.016 164.623 114.016C164.623 114.016 164.587 113.75 164.088 112.701C163.588 111.652 163.488 109.948 163.488 109.948Z" fill="#407BFF" stroke="#263238" stroke-width="0.112" stroke-miterlimit="10"/>
<path d="M163.488 109.948C164.101 110.64 164.502 111.493 164.646 112.406L163.488 109.948Z" fill="#407BFF"/>
<path d="M163.488 109.948C164.101 110.64 164.502 111.493 164.646 112.406" stroke="#263238" stroke-width="0.112" stroke-miterlimit="10"/>
<path d="M165.89 108.497C165.89 108.497 167.773 109.295 167.883 110.484C167.992 111.673 167.03 112.565 167.03 112.565C167.03 112.565 166.992 112.297 166.493 111.25C165.994 110.202 165.89 108.497 165.89 108.497Z" fill="#407BFF" stroke="#263238" stroke-width="0.112" stroke-miterlimit="10"/>
<path d="M165.89 108.497C166.502 109.188 166.904 110.041 167.047 110.953L165.89 108.497Z" fill="#407BFF"/>
<path d="M165.89 108.497C166.502 109.188 166.904 110.041 167.047 110.953" stroke="#263238" stroke-width="0.112" stroke-miterlimit="10"/>
<path d="M163.61 109.801C163.61 109.801 162.383 108.16 161.206 108.338C160.03 108.516 159.382 109.663 159.382 109.663C159.382 109.663 159.651 109.635 160.788 109.874C161.925 110.112 163.61 109.801 163.61 109.801Z" fill="#407BFF" stroke="#263238" stroke-width="0.112" stroke-miterlimit="10"/>
<path d="M163.61 109.801C162.792 109.369 161.869 109.18 160.948 109.256L163.61 109.801Z" fill="#407BFF"/>
<path d="M163.61 109.801C162.792 109.369 161.869 109.18 160.948 109.256" stroke="#263238" stroke-width="0.112" stroke-miterlimit="10"/>
<path d="M165.922 107.768C165.922 107.768 169.14 108.945 170.131 111.915" stroke="#263238" stroke-width="0.224" stroke-linecap="round" stroke-linejoin="round"/>
<path d="M169.212 110.197C169.212 110.197 171.198 109.7 171.999 110.579C172.801 111.458 172.569 112.756 172.569 112.756C172.569 112.756 172.378 112.565 171.347 112.03C170.317 111.496 169.212 110.197 169.212 110.197Z" fill="#407BFF" stroke="#263238" stroke-width="0.112" stroke-miterlimit="10"/>
<path d="M169.212 110.197C170.118 110.379 170.952 110.816 171.617 111.457L169.212 110.197Z" fill="#407BFF"/>
<path d="M169.212 110.197C170.118 110.379 170.952 110.816 171.617 111.457" stroke="#263238" stroke-width="0.112" stroke-miterlimit="10"/>
<path d="M170.018 111.749C170.018 111.749 171.901 112.547 172.011 113.736C172.12 114.925 171.154 115.817 171.154 115.817C171.154 115.817 171.116 115.55 170.617 114.501C170.117 113.452 170.018 111.749 170.018 111.749Z" fill="#407BFF" stroke="#263238" stroke-width="0.112" stroke-miterlimit="10"/>
<path d="M170.018 111.749C170.63 112.441 171.032 113.293 171.176 114.205L170.018 111.749Z" fill="#407BFF"/>
<path d="M170.018 111.749C170.63 112.441 171.032 113.293 171.176 114.205" stroke="#263238" stroke-width="0.112" stroke-miterlimit="10"/>
<path d="M168.315 109.227C168.315 109.227 166.431 110.025 166.322 111.215C166.212 112.406 167.179 113.296 167.179 113.296C167.179 113.296 167.216 113.029 167.715 111.98C168.214 110.932 168.315 109.227 168.315 109.227Z" fill="#407BFF" stroke="#263238" stroke-width="0.112" stroke-miterlimit="10"/>
<path d="M168.315 109.227C167.702 109.919 167.3 110.772 167.157 111.685L168.315 109.227Z" fill="#407BFF"/>
<path d="M168.315 109.227C167.702 109.919 167.3 110.772 167.157 111.685" stroke="#263238" stroke-width="0.112" stroke-miterlimit="10"/>
<path d="M168.194 109.08C168.194 109.08 169.419 107.44 170.596 107.614C171.772 107.788 172.42 108.938 172.42 108.938C172.42 108.938 172.151 108.911 171.014 109.148C169.878 109.386 168.194 109.08 168.194 109.08Z" fill="#407BFF" stroke="#263238" stroke-width="0.112" stroke-miterlimit="10"/>
<path d="M168.194 109.08C169.011 108.649 169.935 108.46 170.856 108.535L168.194 109.08Z" fill="#407BFF"/>
<path d="M168.194 109.08C169.011 108.649 169.935 108.46 170.856 108.535" stroke="#263238" stroke-width="0.112" stroke-miterlimit="10"/>
<path d="M165.9 108.463C165.9 108.463 164.674 106.823 163.496 106.997C162.317 107.172 161.672 108.322 161.672 108.322C161.672 108.322 161.941 108.295 163.077 108.532C164.214 108.769 165.9 108.463 165.9 108.463Z" fill="#407BFF" stroke="#263238" stroke-width="0.112" stroke-miterlimit="10"/>
<path d="M165.9 108.463C165.083 108.032 164.159 107.843 163.238 107.92L165.9 108.463Z" fill="#407BFF"/>
<path d="M165.9 108.463C165.083 108.032 164.159 107.843 163.238 107.92" stroke="#263238" stroke-width="0.112" stroke-miterlimit="10"/>
<path d="M165.834 104.554C165.834 104.554 163.782 104.517 163.203 105.553C162.624 106.589 163.133 107.803 163.133 107.803C163.133 107.803 163.277 107.575 164.159 106.821C165.042 106.066 165.834 104.554 165.834 104.554Z" fill="#407BFF" stroke="#263238" stroke-width="0.112" stroke-miterlimit="10"/>
<path d="M165.834 104.554C164.992 104.935 164.277 105.548 163.773 106.323L165.834 104.554Z" fill="#407BFF"/>
<path d="M165.834 104.554C164.992 104.935 164.277 105.548 163.773 106.323" stroke="#263238" stroke-width="0.112" stroke-miterlimit="10"/>
<path d="M163.04 102.857C163.04 102.857 161.547 101.456 160.418 101.831C159.288 102.206 158.856 103.453 158.856 103.453C158.856 103.453 159.116 103.379 160.277 103.414C161.439 103.45 163.04 102.857 163.04 102.857Z" fill="#407BFF" stroke="#263238" stroke-width="0.112" stroke-miterlimit="10"/>
<path d="M163.04 102.857C162.16 102.574 161.218 102.549 160.324 102.785L163.04 102.857Z" fill="#407BFF"/>
<path d="M163.04 102.857C162.16 102.574 161.218 102.549 160.324 102.785" stroke="#263238" stroke-width="0.112" stroke-miterlimit="10"/>
<path d="M164.038 103.401C164.038 103.401 161.994 103.287 161.373 104.304C160.752 105.321 161.222 106.549 161.222 106.549C161.222 106.549 161.373 106.321 162.285 105.606C163.197 104.89 164.038 103.401 164.038 103.401Z" fill="#407BFF" stroke="#263238" stroke-width="0.112" stroke-miterlimit="10"/>
<path d="M164.039 103.401C163.183 103.751 162.446 104.338 161.914 105.094L164.039 103.401Z" fill="#407BFF"/>
<path d="M164.039 103.401C163.183 103.751 162.446 104.338 161.914 105.094" stroke="#263238" stroke-width="0.112" stroke-miterlimit="10"/>
<path d="M164.547 103.528C164.547 103.528 164.982 101.529 164.081 100.754C163.179 99.9785 161.887 100.244 161.887 100.244C161.887 100.244 162.083 100.43 162.649 101.445C163.214 102.459 164.547 103.528 164.547 103.528Z" fill="#407BFF" stroke="#263238" stroke-width="0.112" stroke-miterlimit="10"/>
<path d="M164.547 103.529C164.338 102.629 163.875 101.808 163.214 101.162L164.547 103.529Z" fill="#407BFF"/>
<path d="M164.547 103.529C164.338 102.629 163.875 101.808 163.214 101.162" stroke="#263238" stroke-width="0.112" stroke-miterlimit="10"/>
<path d="M165.993 106.96C165.993 106.96 167.356 105.351 170.141 104.918" stroke="#263238" stroke-width="0.224" stroke-linecap="round" stroke-linejoin="round"/>
<path d="M166.041 106.846C166.041 106.846 168.087 106.808 168.671 107.845C169.255 108.881 168.741 110.095 168.741 110.095C168.741 110.095 168.597 109.867 167.715 109.113C166.832 108.36 166.041 106.846 166.041 106.846Z" fill="#407BFF" stroke="#263238" stroke-width="0.112" stroke-miterlimit="10"/>
<path d="M166.041 106.846C166.883 107.227 167.598 107.841 168.102 108.615L166.041 106.846Z" fill="#407BFF"/>
<path d="M166.041 106.846C166.883 107.227 167.598 107.841 168.102 108.615" stroke="#263238" stroke-width="0.112" stroke-miterlimit="10"/>
<path d="M168.841 105.146C168.841 105.146 170.333 103.745 171.463 104.12C172.593 104.495 173.024 105.742 173.024 105.742C173.024 105.742 172.764 105.668 171.603 105.703C170.443 105.739 168.841 105.146 168.841 105.146Z" fill="#407BFF" stroke="#263238" stroke-width="0.112" stroke-miterlimit="10"/>
<path d="M168.841 105.146C169.721 104.863 170.663 104.838 171.557 105.074L168.841 105.146Z" fill="#407BFF"/>
<path d="M168.841 105.146C169.721 104.863 170.663 104.838 171.557 105.074" stroke="#263238" stroke-width="0.112" stroke-miterlimit="10"/>
<path d="M167.837 105.693C167.837 105.693 169.881 105.579 170.502 106.595C171.123 107.611 170.652 108.841 170.652 108.841C170.652 108.841 170.501 108.613 169.59 107.897C168.679 107.181 167.837 105.693 167.837 105.693Z" fill="#407BFF" stroke="#263238" stroke-width="0.112" stroke-miterlimit="10"/>
<path d="M167.837 105.693C168.692 106.043 169.429 106.63 169.96 107.385L167.837 105.693Z" fill="#407BFF"/>
<path d="M167.837 105.693C168.692 106.043 169.429 106.63 169.96 107.385" stroke="#263238" stroke-width="0.112" stroke-miterlimit="10"/>
<path d="M167.328 105.82C167.328 105.82 166.892 103.82 167.795 103.045C168.697 102.27 169.994 102.538 169.994 102.538C169.994 102.538 169.796 102.723 169.231 103.738C168.666 104.753 167.328 105.82 167.328 105.82Z" fill="#407BFF" stroke="#263238" stroke-width="0.112" stroke-miterlimit="10"/>
<path d="M167.328 105.82C167.538 104.92 168 104.099 168.661 103.453L167.328 105.82Z" fill="#407BFF"/>
<path d="M167.328 105.82C167.538 104.92 168 104.099 168.661 103.453" stroke="#263238" stroke-width="0.112" stroke-miterlimit="10"/>
<path d="M165.917 102.95C165.917 102.95 167.28 101.341 170.065 100.907" stroke="#263238" stroke-width="0.224" stroke-linecap="round" stroke-linejoin="round"/>
<path d="M165.965 102.835C165.965 102.835 168.011 102.798 168.595 103.834C169.179 104.87 168.665 106.084 168.665 106.084C168.665 106.084 168.521 105.856 167.639 105.103C166.756 104.349 165.965 102.835 165.965 102.835Z" fill="#407BFF" stroke="#263238" stroke-width="0.112" stroke-miterlimit="10"/>
<path d="M165.965 102.835C166.807 103.216 167.522 103.83 168.026 104.604L165.965 102.835Z" fill="#407BFF"/>
<path d="M165.965 102.835C166.807 103.216 167.522 103.83 168.026 104.604" stroke="#263238" stroke-width="0.112" stroke-miterlimit="10"/>
<path d="M166.01 102.773C166.01 102.773 164.773 101.141 165.266 100.058C165.76 98.9753 167.044 98.6777 167.044 98.6777C167.044 98.6777 166.943 98.9285 166.857 100.087C166.77 101.245 166.01 102.773 166.01 102.773Z" fill="#407BFF" stroke="#263238" stroke-width="0.112" stroke-miterlimit="10"/>
<path d="M166.009 102.773C165.821 101.868 165.896 100.929 166.224 100.065L166.009 102.773Z" fill="#407BFF"/>
<path d="M166.009 102.773C165.821 101.868 165.896 100.929 166.224 100.065" stroke="#263238" stroke-width="0.112" stroke-miterlimit="10"/>
<path d="M168.765 101.138C168.765 101.138 170.257 99.7368 171.387 100.112C172.517 100.487 172.947 101.735 172.947 101.735C172.947 101.735 172.687 101.661 171.526 101.696C170.366 101.732 168.765 101.138 168.765 101.138Z" fill="#407BFF" stroke="#263238" stroke-width="0.112" stroke-miterlimit="10"/>
<path d="M168.765 101.138C169.643 100.857 170.584 100.832 171.476 101.066L168.765 101.138Z" fill="#407BFF"/>
<path d="M168.765 101.138C169.643 100.857 170.584 100.832 171.476 101.066" stroke="#263238" stroke-width="0.112" stroke-miterlimit="10"/>
<path d="M167.76 101.683C167.76 101.683 169.805 101.569 170.426 102.585C171.047 103.6 170.576 104.83 170.576 104.83C170.576 104.83 170.425 104.602 169.514 103.888C168.603 103.173 167.76 101.683 167.76 101.683Z" fill="#407BFF" stroke="#263238" stroke-width="0.112" stroke-miterlimit="10"/>
<path d="M167.76 101.683C168.614 102.034 169.349 102.621 169.88 103.376L167.76 101.683Z" fill="#407BFF"/>
<path d="M167.76 101.683C168.614 102.034 169.349 102.621 169.88 103.376" stroke="#263238" stroke-width="0.112" stroke-miterlimit="10"/>
<path d="M167.258 101.81C167.258 101.81 166.815 99.8097 167.714 99.0345C168.612 98.2593 169.911 98.5341 169.911 98.5341C169.911 98.5341 169.714 98.7188 169.149 99.7334C168.583 100.748 167.258 101.81 167.258 101.81Z" fill="#407BFF" stroke="#263238" stroke-width="0.112" stroke-miterlimit="10"/>
<path d="M167.258 101.81C167.466 100.912 167.927 100.092 168.585 99.446L167.258 101.81Z" fill="#407BFF"/>
<path d="M167.258 101.81C167.466 100.912 167.927 100.092 168.585 99.446" stroke="#263238" stroke-width="0.112" stroke-miterlimit="10"/>
<path d="M165.872 104.854C165.872 104.854 166.77 103.014 166.078 102.048C165.386 101.081 164.066 101.034 164.066 101.034C164.066 101.034 164.213 101.262 164.522 102.381C164.831 103.499 165.872 104.854 165.872 104.854Z" fill="#407BFF" stroke="#263238" stroke-width="0.112" stroke-miterlimit="10"/>
<path d="M165.872 104.854C165.882 103.93 165.628 103.022 165.14 102.238L165.872 104.854Z" fill="#407BFF"/>
<path d="M165.872 104.854C165.882 103.93 165.628 103.022 165.14 102.238" stroke="#263238" stroke-width="0.112" stroke-miterlimit="10"/>
<path opacity="0.2" d="M173.606 122.235L168.087 119.959C167.641 119.775 167.129 119.988 166.945 120.434L162.053 132.297C161.869 132.743 162.082 133.254 162.528 133.439L168.048 135.715C168.494 135.899 169.005 135.686 169.189 135.24L174.081 123.377C174.265 122.93 174.053 122.419 173.606 122.235Z" fill="black"/>
<path d="M173.862 122.234L168.342 119.958C167.896 119.774 167.385 119.987 167.201 120.433L162.309 132.296C162.125 132.743 162.337 133.254 162.784 133.438L168.303 135.714C168.749 135.898 169.261 135.685 169.445 135.239L174.337 123.376C174.521 122.93 174.308 122.418 173.862 122.234Z" fill="white" stroke="#263238" stroke-width="0.112" stroke-linecap="round" stroke-linejoin="round"/>
<path d="M173.742 123.918L167.24 121.237L162.903 131.756L169.404 134.437L173.742 123.918Z" fill="#263238" stroke="#263238" stroke-width="0.112" stroke-linecap="round" stroke-linejoin="round"/>
<path d="M166.122 129.393L164.414 129.912" stroke="#8A8A8A" stroke-width="0.112" stroke-linecap="round" stroke-linejoin="round"/>
<path d="M172.048 127.589L166.646 129.233" stroke="#8A8A8A" stroke-width="0.112" stroke-linecap="round" stroke-linejoin="round"/>
<path d="M168.882 127.969L169.26 127.855" stroke="#8A8A8A" stroke-width="0.112" stroke-linecap="round" stroke-linejoin="round"/>
<path d="M165.077 129.116L168.42 128.108" stroke="#8A8A8A" stroke-width="0.112" stroke-linecap="round" stroke-linejoin="round"/>
<path d="M171.5 122.132L170.086 121.549C170.074 121.544 170.062 121.537 170.052 121.527C170.043 121.517 170.035 121.506 170.03 121.493C170.024 121.481 170.022 121.467 170.021 121.454C170.021 121.44 170.024 121.426 170.029 121.414C170.034 121.401 170.042 121.389 170.052 121.38C170.061 121.37 170.073 121.362 170.085 121.357C170.098 121.352 170.111 121.349 170.125 121.349C170.139 121.349 170.152 121.351 170.165 121.357L171.579 121.939C171.604 121.95 171.625 121.97 171.635 121.996C171.646 122.021 171.646 122.05 171.636 122.076C171.63 122.089 171.623 122.1 171.613 122.11C171.603 122.119 171.592 122.127 171.579 122.132C171.567 122.137 171.553 122.14 171.54 122.14C171.526 122.14 171.512 122.137 171.5 122.132Z" fill="#263238"/>
<path d="M166.291 133.85C166.323 133.774 166.331 133.69 166.314 133.609C166.298 133.528 166.258 133.454 166.199 133.396C166.141 133.338 166.066 133.298 165.985 133.283C165.904 133.267 165.82 133.275 165.744 133.307C165.668 133.339 165.603 133.393 165.558 133.461C165.512 133.53 165.488 133.611 165.488 133.693C165.488 133.776 165.513 133.856 165.559 133.925C165.605 133.993 165.67 134.047 165.747 134.078C165.797 134.099 165.852 134.11 165.907 134.109C165.961 134.109 166.016 134.098 166.066 134.077C166.117 134.056 166.163 134.025 166.202 133.986C166.24 133.947 166.271 133.901 166.291 133.85Z" fill="white" stroke="#263238" stroke-width="0.0788853" stroke-miterlimit="10"/>
<path d="M166.185 133.575L165.794 133.414L165.632 133.805L166.023 133.966L166.185 133.575Z" fill="#263238"/>
<path d="M154.988 113.407L137.384 117.419L142.894 141.59L160.497 137.577L154.988 113.407Z" fill="#407BFF" stroke="#263238" stroke-width="0.112" stroke-miterlimit="10"/>
<path d="M154.714 114.048L137.91 117.878L143.169 140.951L159.972 137.121L154.714 114.048Z" fill="white" stroke="#263238" stroke-width="0.112" stroke-linecap="round" stroke-linejoin="round"/>
<path d="M149.599 117.326L154.025 116.219" stroke="#263238" stroke-width="0.112" stroke-linecap="round" stroke-linejoin="round"/>
<path d="M139.927 119.744L141.935 119.242" stroke="#263238" stroke-width="0.112" stroke-linecap="round" stroke-linejoin="round"/>
<path d="M154.49 120.981L155.158 120.814" stroke="#263238" stroke-width="0.112" stroke-linecap="round" stroke-linejoin="round"/>
<path d="M151.444 121.742L154.119 121.073" stroke="#263238" stroke-width="0.112" stroke-linecap="round" stroke-linejoin="round"/>
<path d="M149.891 122.131L151.003 121.853" stroke="#263238" stroke-width="0.112" stroke-linecap="round" stroke-linejoin="round"/>
<path d="M146.738 122.919L149.395 122.254" stroke="#263238" stroke-width="0.112" stroke-linecap="round" stroke-linejoin="round"/>
<path d="M144.708 123.427L146.271 123.036" stroke="#263238" stroke-width="0.112" stroke-linecap="round" stroke-linejoin="round"/>
<path d="M141.06 124.339L144.213 123.55" stroke="#263238" stroke-width="0.112" stroke-linecap="round" stroke-linejoin="round"/>
<path d="M153.446 122.768L155.725 122.198" stroke="#263238" stroke-width="0.112" stroke-linecap="round" stroke-linejoin="round"/>
<path d="M148.722 123.949L152.925 122.898" stroke="#263238" stroke-width="0.112" stroke-linecap="round" stroke-linejoin="round"/>
<path d="M145.499 124.755L147.962 124.139" stroke="#263238" stroke-width="0.112" stroke-linecap="round" stroke-linejoin="round"/>
<path d="M141.625 125.723L145.048 124.868" stroke="#263238" stroke-width="0.112" stroke-linecap="round" stroke-linejoin="round"/>
<path d="M154.514 124.074L155.977 123.708" stroke="#263238" stroke-width="0.112" stroke-linecap="round" stroke-linejoin="round"/>
<path d="M150.488 125.081L154.055 124.19" stroke="#263238" stroke-width="0.112" stroke-linecap="round" stroke-linejoin="round"/>
<path d="M149.578 125.309L150.151 125.166" stroke="#263238" stroke-width="0.112" stroke-linecap="round" stroke-linejoin="round"/>
<path d="M146.867 125.986L149.172 125.411" stroke="#263238" stroke-width="0.112" stroke-linecap="round" stroke-linejoin="round"/>
<path d="M142.691 127.031L146.506 126.076" stroke="#263238" stroke-width="0.112" stroke-linecap="round" stroke-linejoin="round"/>
<path d="M141.877 127.234L142.356 127.115" stroke="#263238" stroke-width="0.112" stroke-linecap="round" stroke-linejoin="round"/>
<path d="M153.24 125.92L156.292 125.156" stroke="#263238" stroke-width="0.112" stroke-linecap="round" stroke-linejoin="round"/>
<path d="M148.145 127.193L152.692 126.057" stroke="#263238" stroke-width="0.112" stroke-linecap="round" stroke-linejoin="round"/>
<path d="M146.874 127.512L147.668 127.312" stroke="#263238" stroke-width="0.112" stroke-linecap="round" stroke-linejoin="round"/>
<path d="M142.192 128.681L146.255 127.666" stroke="#263238" stroke-width="0.112" stroke-linecap="round" stroke-linejoin="round"/>
<path d="M150.102 128.231L150.564 128.115" stroke="#263238" stroke-width="0.112" stroke-linecap="round" stroke-linejoin="round"/>
<path d="M146.358 129.167L149.643 128.345" stroke="#263238" stroke-width="0.112" stroke-linecap="round" stroke-linejoin="round"/>
<path d="M142.507 130.129L145.829 129.299" stroke="#263238" stroke-width="0.112" stroke-linecap="round" stroke-linejoin="round"/>
<path opacity="0.2" d="M161.645 137.433C161.52 135.945 160.591 132.599 159.352 132.165C158.585 131.897 156.647 132.713 155.282 133.376C155.396 132.871 155.475 132.369 155.475 132.369L151.674 128.402L151.728 128.916L153.085 132.486C153.085 132.486 152.554 133.076 152.672 133.284C152.789 133.493 153.557 133.638 153.557 133.638C153.557 133.638 153.321 133.697 153.468 134.08C153.588 134.357 153.747 134.615 153.94 134.847L153.981 134.829C154.059 134.913 154.144 134.989 154.236 135.057C154.979 135.616 155.137 135.64 155.137 135.64C155.137 135.64 155.447 135.577 155.572 137.189C155.696 138.801 155.199 139.355 156.005 140.349C156.811 141.343 162.759 148.101 162.759 148.101C162.759 148.101 161.769 138.921 161.645 137.433Z" fill="black"/>
<path d="M155.079 129.552C155.079 129.552 154.349 130.35 153.751 130.747C153.154 131.144 152.738 131.671 153.287 131.94C153.617 132.102 154.085 131.874 154.085 131.874C154.085 131.874 153.356 132.074 153.223 132.737C153.091 133.401 154.55 133.135 154.55 133.135C154.55 133.135 153.488 133.866 153.821 134.132C154.154 134.397 154.816 134.198 155.148 134.198C155.479 134.198 157.138 133.135 157.542 133.135C157.945 133.135 158.736 133.998 158.736 134.662C158.736 135.325 159.798 135.259 159.93 133.202C160.062 131.146 159.532 129.419 158.669 128.888C157.806 128.356 155.079 129.552 155.079 129.552Z" fill="white" stroke="#263238" stroke-width="0.112" stroke-linecap="round" stroke-linejoin="round"/>
<path d="M154.68 131.808L157.329 130.819C157.329 130.819 158.492 130.566 159.327 131.941" stroke="#263238" stroke-width="0.112" stroke-linecap="round" stroke-linejoin="round"/>
<path d="M155.145 132.605L157.539 132.206C157.539 132.206 158.6 132.14 159.264 133.401" stroke="#263238" stroke-width="0.112" stroke-linecap="round" stroke-linejoin="round"/>
<path d="M170.872 146.906C169.411 145.508 163.234 140.136 163.176 139.772C163.109 139.374 162.844 134.729 162.844 134.064C162.844 133.4 161.517 131.808 161.517 131.808C161.517 131.808 160.972 131.027 160.706 129.7C160.441 128.373 159.224 127.827 158.559 127.894C157.893 127.96 156.074 128.158 155.345 128.692C154.615 129.225 153.951 129.886 154.614 130.085C155.717 130.415 157.521 128.945 158.391 129.961C158.789 130.427 159.26 132.469 159.327 132.74C159.352 132.879 159.343 133.022 159.299 133.156C159.256 133.291 159.179 133.413 159.077 133.51C158.758 133.765 158.42 133.993 158.065 134.194C158.065 134.194 156.986 134.512 156.521 134.551C156.056 134.59 156.056 136.831 156.56 137.493C157.064 138.156 157.799 141.211 158.418 141.986C159.009 142.727 164.294 150.632 164.294 150.632" fill="white"/>
<path d="M170.872 146.906C169.411 145.508 163.234 140.136 163.176 139.772C163.109 139.374 162.844 134.729 162.844 134.064C162.844 133.4 161.517 131.808 161.517 131.808C161.517 131.808 160.972 131.027 160.706 129.7C160.441 128.373 159.224 127.827 158.559 127.894C157.893 127.96 156.074 128.158 155.345 128.692C154.615 129.225 153.951 129.886 154.614 130.085C155.717 130.415 157.521 128.945 158.391 129.961C158.789 130.427 159.26 132.469 159.327 132.74C159.352 132.879 159.343 133.022 159.299 133.156C159.256 133.291 159.179 133.413 159.077 133.51C158.758 133.765 158.42 133.993 158.065 134.194C158.065 134.194 156.986 134.512 156.521 134.551C156.056 134.59 156.056 136.831 156.56 137.493C157.064 138.156 157.799 141.211 158.418 141.986C159.009 142.727 164.294 150.632 164.294 150.632" stroke="#263238" stroke-width="0.112" stroke-linecap="round" stroke-linejoin="round"/>
<path d="M151.412 128.066C151.422 128.055 151.436 128.048 151.45 128.046C151.465 128.045 151.48 128.049 151.492 128.058L151.812 128.201C151.828 128.209 151.842 128.22 151.853 128.234C151.865 128.247 151.873 128.263 151.877 128.281C151.882 128.298 151.883 128.316 151.879 128.333C151.876 128.351 151.87 128.367 151.86 128.382C151.85 128.396 151.837 128.409 151.821 128.418C151.806 128.427 151.789 128.432 151.771 128.434C151.754 128.436 151.736 128.434 151.719 128.429C151.702 128.423 151.687 128.414 151.674 128.402L151.423 128.157C151.41 128.147 151.401 128.133 151.398 128.117C151.395 128.101 151.399 128.085 151.408 128.071L151.412 128.066Z" fill="#263238" stroke="#263238" stroke-width="0.112" stroke-linecap="round" stroke-linejoin="round"/>
<path d="M151.695 128.248C151.741 128.199 151.803 128.168 151.87 128.161C151.938 128.154 152.005 128.171 152.061 128.209L152.911 128.648L161.259 134.141C161.334 134.189 161.398 134.251 161.447 134.325C161.497 134.398 161.531 134.481 161.549 134.568C161.566 134.654 161.565 134.744 161.547 134.831C161.529 134.917 161.493 134.999 161.443 135.072C161.392 135.145 161.327 135.207 161.252 135.254C161.178 135.301 161.094 135.333 161.006 135.347C160.919 135.361 160.83 135.357 160.744 135.336C160.658 135.315 160.577 135.277 160.506 135.224L152.403 129.247L151.739 128.671C151.709 128.65 151.683 128.623 151.663 128.592C151.643 128.561 151.63 128.526 151.623 128.49C151.617 128.454 151.618 128.416 151.625 128.38C151.633 128.344 151.648 128.31 151.67 128.28C151.677 128.269 151.685 128.258 151.695 128.248Z" fill="#407BFF" stroke="#263238" stroke-width="0.112" stroke-linecap="round" stroke-linejoin="round"/>
<path d="M161.259 134.141L158.85 132.555C158.664 132.609 158.5 132.72 158.381 132.874C158.263 133.028 158.196 133.215 158.192 133.409C158.192 133.447 158.195 133.485 158.201 133.523L160.506 135.223C160.577 135.276 160.658 135.314 160.744 135.335C160.83 135.356 160.919 135.36 161.006 135.345C161.094 135.331 161.177 135.3 161.252 135.252C161.327 135.205 161.392 135.144 161.443 135.071C161.493 134.998 161.529 134.916 161.547 134.829C161.565 134.743 161.566 134.653 161.548 134.566C161.531 134.479 161.497 134.397 161.447 134.323C161.398 134.25 161.334 134.188 161.259 134.14V134.141Z" fill="#263238" stroke="#263238" stroke-width="0.112" stroke-linecap="round" stroke-linejoin="round"/>
<path d="M158.226 141.641C155.604 138.677 156.04 137.04 155.641 136.511C155.242 135.982 155.006 135.485 154.608 134.287C154.21 133.088 153.951 132.142 153.951 131.147C153.951 130.152 154.806 129.98 155.469 131.041C156.133 132.102 156.937 133.735 156.937 133.735C156.937 133.735 157.467 134.398 158.533 134.2" fill="white"/>
<path d="M158.226 141.641C155.604 138.677 156.04 137.04 155.641 136.511C155.242 135.982 155.006 135.485 154.608 134.287C154.21 133.088 153.951 132.142 153.951 131.147C153.951 130.152 154.806 129.98 155.469 131.041C156.133 132.102 156.937 133.735 156.937 133.735C156.937 133.735 157.467 134.398 158.533 134.2" stroke="#263238" stroke-width="0.112" stroke-linecap="round" stroke-linejoin="round"/>
<path d="M156.938 133.733C156.938 133.733 157.682 134.436 158.024 135.014" stroke="#263238" stroke-width="0.112" stroke-linecap="round" stroke-linejoin="round"/>
<path d="M154.783 130.729L155.004 131.172C155.004 131.172 154.954 131.172 154.601 131.375C154.389 131.495 154.211 131.667 154.083 131.874C154.083 131.874 153.741 130.92 154.044 130.62C154.118 130.544 154.215 130.493 154.32 130.477C154.414 130.466 154.509 130.484 154.592 130.529C154.675 130.574 154.742 130.644 154.783 130.729Z" fill="white" stroke="#263238" stroke-width="0.112" stroke-linecap="round" stroke-linejoin="round"/>
<path d="M155.73 133.144L155.837 133.132" stroke="#263238" stroke-width="0.112" stroke-linecap="round" stroke-linejoin="round"/>
<path d="M154.736 133.695C154.736 133.695 154.798 133.332 155.527 133.178" stroke="#263238" stroke-width="0.112" stroke-linecap="round" stroke-linejoin="round"/>
<path d="M155.531 133.44C155.531 133.44 155.48 133.592 154.968 133.798" stroke="#263238" stroke-width="0.112" stroke-linecap="round" stroke-linejoin="round"/>
<path d="M155.509 132.952C155.254 132.992 155.011 133.091 154.799 133.241" stroke="#263238" stroke-width="0.112" stroke-linecap="round" stroke-linejoin="round"/>
<path opacity="0.2" d="M141.412 123.747C141.412 123.747 140.947 125.039 140.761 125.349C140.575 125.659 139.583 126.831 139.393 127.146C139.202 127.46 138.834 128.447 138.834 128.447L141.845 127.686C141.845 127.686 141.004 128.94 140.508 129.562C140.012 130.185 138.963 131.48 138.963 131.67C138.963 131.861 138.716 132.599 138.716 132.599L140.141 133.653L143.053 132.599L144.23 132.164C144.23 132.164 141.875 133.652 141.131 134.395C140.388 135.138 137.784 136.626 137.103 137.122C136.421 137.618 134.996 137.864 134.439 137.99C133.883 138.117 128.986 142.082 128.986 142.082L136.054 127.581L138.099 124.172L139.898 122.871L139.712 124.915L141.412 123.747Z" fill="black"/>
<path d="M126.161 145.091L133.601 137.436C134.231 137.352 134.851 137.205 135.452 136.999C136.592 136.628 136.934 136.528 137.472 136.124C138.01 135.721 140.233 134.542 141.175 133.935C142.116 133.329 143.767 132.656 144.07 132.386C144.374 132.116 144.138 131.781 143.331 131.612C142.523 131.443 141.714 131.646 140.637 132.117C139.559 132.588 138.448 132.993 138.482 132.757C138.516 132.521 138.718 131.343 138.92 130.94C139.122 130.536 141.143 128.36 141.176 128.258C141.209 128.157 141.446 128.056 141.85 127.688C142.253 127.32 142.894 126.881 142.99 126.24C143.085 125.6 142.586 125.837 142.384 125.938C142.183 126.04 140.768 126.645 140.397 126.881C140.027 127.117 137.865 129.395 137.865 129.395L139.387 126.203C139.582 126.027 139.762 125.837 139.927 125.633C140.128 125.364 141.34 124.05 141.409 123.747C141.422 123.666 141.415 123.583 141.389 123.505C141.363 123.427 141.318 123.357 141.258 123.301C141.198 123.244 141.125 123.204 141.046 123.182C140.967 123.161 140.883 123.159 140.803 123.177C140.433 123.279 139.269 124.307 138.883 124.591C138.085 125.181 136.796 127.419 136.796 127.419L138.211 124.827C138.211 124.827 139.288 123.851 139.557 123.548C139.826 123.245 140.151 122.574 139.86 122.269C139.551 121.944 138.882 122.49 138.378 123.009C137.916 123.486 137.238 124.086 137.238 124.086C137.238 124.086 137.643 123.615 137.542 123.211C137.44 122.808 136.666 123.379 136.431 123.446C136.196 123.514 134.175 125.299 133.872 125.534C133.569 125.768 132.936 127.7 132.936 127.7L130.488 132.805L123.14 138.092" fill="white"/>
<path d="M126.161 145.091L133.601 137.436C134.231 137.352 134.851 137.205 135.452 136.999C136.592 136.628 136.934 136.528 137.472 136.124C138.01 135.721 140.233 134.542 141.175 133.935C142.116 133.329 143.767 132.656 144.07 132.386C144.374 132.116 144.138 131.781 143.331 131.612C142.523 131.443 141.714 131.646 140.637 132.117C139.559 132.588 138.448 132.993 138.482 132.757C138.516 132.521 138.718 131.343 138.92 130.94C139.122 130.536 141.143 128.36 141.176 128.258C141.209 128.157 141.446 128.056 141.85 127.688C142.253 127.32 142.894 126.881 142.99 126.24C143.085 125.6 142.586 125.837 142.384 125.938C142.183 126.04 140.768 126.645 140.397 126.881C140.027 127.117 137.865 129.395 137.865 129.395L139.387 126.203C139.582 126.027 139.762 125.837 139.927 125.633C140.128 125.364 141.34 124.05 141.409 123.747C141.422 123.666 141.415 123.583 141.389 123.505C141.363 123.427 141.318 123.357 141.258 123.301C141.198 123.244 141.125 123.204 141.046 123.182C140.967 123.161 140.883 123.159 140.803 123.177C140.433 123.279 139.269 124.307 138.883 124.591C138.085 125.181 136.796 127.419 136.796 127.419L138.211 124.827C138.211 124.827 139.288 123.851 139.557 123.548C139.826 123.245 140.151 122.574 139.86 122.269C139.551 121.944 138.882 122.49 138.378 123.009C137.916 123.486 137.238 124.086 137.238 124.086C137.238 124.086 137.643 123.615 137.542 123.211C137.44 122.808 136.666 123.379 136.431 123.446C136.196 123.514 134.175 125.299 133.872 125.534C133.569 125.768 132.936 127.7 132.936 127.7L130.488 132.805L123.14 138.092" stroke="#263238" stroke-width="0.112" stroke-linecap="round" stroke-linejoin="round"/>
<path d="M137.238 124.083L136.25 124.937C136.143 125.03 136.051 125.139 135.978 125.26L134.224 128.128" stroke="#263238" stroke-width="0.112" stroke-linecap="round" stroke-linejoin="round"/>
<path d="M144.012 131.853L143.504 131.886C143.504 131.886 143.846 132.191 143.538 132.631" stroke="#263238" stroke-width="0.112" stroke-linecap="round" stroke-linejoin="round"/>
<path d="M142.258 126.095C142.258 126.095 142.476 126.065 142.724 126.458C142.84 126.363 142.925 126.237 142.969 126.095" stroke="#263238" stroke-width="0.112" stroke-linecap="round" stroke-linejoin="round"/>
<path d="M140.394 123.451C140.602 123.498 140.8 123.581 140.98 123.697C141.071 123.768 141.238 123.644 141.308 123.552" stroke="#263238" stroke-width="0.112" stroke-linecap="round" stroke-linejoin="round"/>
<path d="M139.037 122.501C139.132 122.505 139.224 122.528 139.309 122.57C139.416 122.628 139.518 122.696 139.614 122.773C139.676 122.749 139.732 122.713 139.779 122.666C139.826 122.619 139.862 122.563 139.886 122.501" stroke="#263238" stroke-width="0.112" stroke-linecap="round" stroke-linejoin="round"/>
<path d="M136.8 123.315C136.8 123.315 137.028 123.291 137.142 123.382C137.305 123.521 137.211 123.586 137.211 123.586C137.211 123.586 137.488 123.488 137.515 123.348" stroke="#263238" stroke-width="0.112" stroke-linecap="round" stroke-linejoin="round"/>
<path d="M140.562 127.213C140.761 127.354 140.923 127.54 141.036 127.756" stroke="#263238" stroke-width="0.112" stroke-linecap="round" stroke-linejoin="round"/>
<path d="M140.36 127.28C140.492 127.431 140.639 127.567 140.8 127.687" stroke="#263238" stroke-width="0.112" stroke-linecap="round" stroke-linejoin="round"/>
<path d="M141.071 127.314L141.308 127.62" stroke="#263238" stroke-width="0.112" stroke-linecap="round" stroke-linejoin="round"/>
<path d="M141.64 132.225L141.877 132.631" stroke="#263238" stroke-width="0.112" stroke-linecap="round" stroke-linejoin="round"/>
<path d="M141.945 132.87L142.013 133.004" stroke="#263238" stroke-width="0.112" stroke-linecap="round" stroke-linejoin="round"/>
<path d="M142.178 132.327C142.238 132.605 142.26 132.89 142.245 133.174" stroke="#263238" stroke-width="0.112" stroke-linecap="round" stroke-linejoin="round"/>
<path d="M138.563 125.21C138.563 125.21 138.905 125.176 139.173 125.583" stroke="#263238" stroke-width="0.112" stroke-linecap="round" stroke-linejoin="round"/>
<path d="M138.733 125.619L139.037 125.789" stroke="#263238" stroke-width="0.112" stroke-linecap="round" stroke-linejoin="round"/>
<path d="M138.834 125.112L139.037 125.246" stroke="#263238" stroke-width="0.112" stroke-linecap="round" stroke-linejoin="round"/>
<path d="M136.766 124.738C136.879 124.712 136.997 124.714 137.109 124.743C137.221 124.773 137.325 124.829 137.41 124.908" stroke="#263238" stroke-width="0.112" stroke-linecap="round" stroke-linejoin="round"/>
<path d="M136.902 124.942C137.054 125.014 137.213 125.07 137.376 125.112" stroke="#263238" stroke-width="0.112" stroke-linecap="round" stroke-linejoin="round"/>
<path d="M137.309 124.569L137.546 124.636" stroke="#263238" stroke-width="0.112" stroke-linecap="round" stroke-linejoin="round"/>
<path d="M134.53 125.315C134.742 125.271 134.961 125.271 135.174 125.315" stroke="#263238" stroke-width="0.112" stroke-linecap="round" stroke-linejoin="round"/>
<path d="M135.241 125.112L135.581 125.246" stroke="#263238" stroke-width="0.112" stroke-linecap="round" stroke-linejoin="round"/>
<path d="M136.799 127.417L136.072 128.802" stroke="#263238" stroke-width="0.112" stroke-linecap="round" stroke-linejoin="round"/>
</g>
</g>
<defs>
<filter id="filter0_d_1170_8497" x="0.300003" y="0.300003" width="299.4" height="255.4" filterUnits="userSpaceOnUse" color-interpolation-filters="sRGB">
<feFlood flood-opacity="0" result="BackgroundImageFix"/>
<feColorMatrix in="SourceAlpha" type="matrix" values="0 0 0 0 0 0 0 0 0 0 0 0 0 0 0 0 0 0 127 0" result="hardAlpha"/>
<feOffset dy="5"/>
<feGaussianBlur stdDeviation="49.85"/>
<feComposite in2="hardAlpha" operator="out"/>
<feColorMatrix type="matrix" values="0 0 0 0 0 0 0 0 0 0 0 0 0 0 0 0 0 0 0.12 0"/>
<feBlend mode="normal" in2="BackgroundImageFix" result="effect1_dropShadow_1170_8497"/>
<feBlend mode="normal" in="SourceGraphic" in2="effect1_dropShadow_1170_8497" result="shape"/>
</filter>
<linearGradient id="paint0_linear_1170_8497" x1="150" y1="95" x2="150" y2="151" gradientUnits="userSpaceOnUse">
<stop stop-color="white" stop-opacity="0"/>
<stop offset="0.594828" stop-color="white"/>
</linearGradient>
<clipPath id="clip0_1170_8497">
<rect x="100" y="95" width="100" height="56" rx="9.80148" fill="white"/>
</clipPath>
<clipPath id="clip1_1170_8497">
<rect width="104.008" height="104.008" fill="white" transform="translate(96 116.919) rotate(-15)"/>
</clipPath>
</defs>
</svg>
