<svg width="29" height="28" viewBox="0 0 29 28" fill="none" xmlns="http://www.w3.org/2000/svg">
<path d="M10.3866 14.0336C10.3785 16.1242 12.0881 17.8259 14.2049 17.8341C16.3216 17.8424 18.0445 16.1541 18.0527 14.0636C18.0609 11.9731 16.3512 10.2701 14.2345 10.2618C12.1177 10.2535 10.3948 11.9418 10.3866 14.0336Z" fill="#3F4ACF" fill-opacity="0.47"/>
<path d="M24.6134 14.0281C24.6355 8.34921 19.9762 3.71153 14.226 3.68906C8.4758 3.66659 3.78168 8.26772 3.75949 13.9467C3.7373 19.6256 8.39663 24.262 14.1455 24.2844C15.8841 24.2912 17.5246 23.8736 18.9693 23.1335C18.157 21.3056 16.3144 20.0236 14.1622 20.0152C10.7993 20.0021 8.08373 17.2991 8.0967 13.9792C8.10968 10.6592 10.8463 7.9776 14.2092 7.99074C17.5721 8.00388 20.4459 10.8734 20.2644 14.3211L20.2945 14.3316L20.2632 22.3475C22.8837 20.4837 24.5987 17.4531 24.612 14.0281L24.6134 14.0281Z" fill="#3F4ACF"/>
</svg>
