<svg width="20" height="20" viewBox="0 0 20 20" fill="none" xmlns="http://www.w3.org/2000/svg">
<path d="M2.5 4.375H17.5C17.8417 4.375 18.125 4.09167 18.125 3.75C18.125 3.40833 17.8417 3.125 17.5 3.125H2.5C2.15833 3.125 1.875 3.40833 1.875 3.75C1.875 4.09167 2.15833 4.375 2.5 4.375Z" fill="white"/>
<path d="M9.60833 8.54175H17.5C17.8417 8.54175 18.125 8.25842 18.125 7.91675C18.125 7.57508 17.8417 7.29175 17.5 7.29175H9.60833C9.26667 7.29175 8.98333 7.57508 8.98333 7.91675C8.98333 8.25842 9.25833 8.54175 9.60833 8.54175Z" fill="white"/>
<path d="M2.5 12.7083H17.5C17.8417 12.7083 18.125 12.4249 18.125 12.0833C18.125 11.7416 17.8417 11.4583 17.5 11.4583H2.5C2.15833 11.4583 1.875 11.7416 1.875 12.0833C1.875 12.4249 2.15833 12.7083 2.5 12.7083Z" fill="white"/>
<path d="M9.60833 16.875H17.5C17.8417 16.875 18.125 16.5917 18.125 16.25C18.125 15.9083 17.8417 15.625 17.5 15.625H9.60833C9.26667 15.625 8.98333 15.9083 8.98333 16.25C8.98333 16.5917 9.25833 16.875 9.60833 16.875Z" fill="white"/>
</svg>
