<svg width="53" height="53" viewBox="0 0 53 53" fill="none" xmlns="http://www.w3.org/2000/svg">
<path d="M17.5594 46.7354L17.9516 46.9675C18.0227 47.0036 18.1013 47.0224 18.1811 47.0224C18.2608 47.0224 18.3395 47.0036 18.4106 46.9675L43.9576 32.224C43.9853 32.2146 44.0094 32.1968 44.0264 32.173C44.0434 32.1492 44.0526 32.1207 44.0526 32.0915C44.0526 32.0623 44.0434 32.0338 44.0264 32.01C44.0094 31.9862 43.9853 31.9684 43.9576 31.959L43.5654 31.7279C43.4943 31.6919 43.4157 31.6731 43.3359 31.6731C43.2562 31.6731 43.1776 31.6919 43.1065 31.7279L17.5605 46.4704C17.5327 46.4797 17.5086 46.4974 17.4915 46.5211C17.4744 46.5448 17.4651 46.5733 17.465 46.6025C17.4648 46.6318 17.4739 46.6603 17.4908 46.6841C17.5078 46.708 17.5317 46.7259 17.5594 46.7354Z" fill="#E0E0E0"/>
<path d="M12.3915 43.7591L12.7837 43.9912C12.8549 44.0273 12.9335 44.046 13.0132 44.046C13.093 44.046 13.1716 44.0273 13.2427 43.9912L38.7887 29.2487C38.8164 29.2393 38.8404 29.2215 38.8575 29.1977C38.8745 29.174 38.8837 29.1455 38.8837 29.1162C38.8837 29.087 38.8745 29.0585 38.8575 29.0347C38.8404 29.011 38.8164 28.9931 38.7887 28.9837L38.3965 28.7516C38.3254 28.7156 38.2468 28.6968 38.167 28.6968C38.0873 28.6968 38.0087 28.7156 37.9375 28.7516L12.3915 43.4941C12.3638 43.5035 12.3398 43.5213 12.3228 43.5451C12.3057 43.5688 12.2966 43.5973 12.2966 43.6266C12.2966 43.6558 12.3057 43.6843 12.3228 43.7081C12.3398 43.7319 12.3638 43.7497 12.3915 43.7591Z" fill="#E0E0E0"/>
<path d="M7.22326 40.7825L7.61546 41.0157C7.68659 41.0518 7.76521 41.0705 7.84495 41.0705C7.92469 41.0705 8.00331 41.0518 8.07444 41.0157L33.6204 26.2722C33.6481 26.2628 33.6722 26.245 33.6892 26.2212C33.7062 26.1974 33.7154 26.1689 33.7154 26.1397C33.7154 26.1104 33.7062 26.0819 33.6892 26.0582C33.6722 26.0344 33.6481 26.0166 33.6204 26.0072L33.2282 25.775C33.1571 25.739 33.0785 25.7202 32.9987 25.7202C32.919 25.7202 32.8404 25.739 32.7693 25.775L7.22326 40.5175C7.19557 40.5269 7.17152 40.5447 7.15449 40.5685C7.13745 40.5923 7.1283 40.6208 7.1283 40.65C7.1283 40.6793 7.13745 40.7078 7.15449 40.7315C7.17152 40.7553 7.19557 40.7731 7.22326 40.7825Z" fill="#E0E0E0"/>
<path d="M7.60129 36.291C7.63203 36.2783 7.72849 34.1975 6.83385 32.9722C5.93921 31.7468 4.85377 31.6037 4.14039 31.9058C3.42701 32.2079 3.57435 32.934 4.45203 33.3729C5.32971 33.8117 6.42151 34.5792 6.67803 35.9773L7.60129 36.291Z" fill="#E0E0E0"/>
<path d="M7.27213 35.6817C7.25623 35.6818 7.24081 35.6762 7.22873 35.6659C7.21665 35.6556 7.20872 35.6412 7.20641 35.6255C6.87039 33.5118 5.61641 32.4773 4.56383 32.2123C4.54671 32.208 4.53197 32.1972 4.52283 32.1821C4.5137 32.167 4.51091 32.1489 4.51507 32.1317C4.51957 32.1145 4.53064 32.0998 4.54591 32.0907C4.56117 32.0815 4.57941 32.0788 4.59669 32.083C5.69485 32.3575 6.99123 33.427 7.33785 35.6043C7.3406 35.6217 7.33635 35.6395 7.32603 35.6538C7.3157 35.6681 7.30013 35.6777 7.28273 35.6806L7.27213 35.6817Z" fill="white"/>
<path d="M7.43943 40.1549C7.30375 39.6058 6.75149 39.2443 6.09959 39.185C5.42225 39.1235 4.63361 39.0578 4.42479 38.4854C4.21597 37.913 4.42479 37.1392 4.32939 36.7586C4.21279 36.2986 4.03683 36.0241 3.14749 35.7453C2.35037 35.4951 1.90941 34.733 2.71289 34.4107C3.21863 34.2198 3.77175 34.1935 4.29335 34.3355C4.62937 34.4213 4.95055 34.5602 5.28975 34.6344C5.44703 34.6673 5.60642 34.6893 5.76675 34.7001C5.95225 34.7128 6.13775 34.6503 6.32537 34.662C6.80767 34.6927 7.24015 35.0245 7.46805 35.4506C7.62811 35.7506 7.59207 36.0866 7.58041 36.4152C7.56875 36.7438 7.55497 37.0756 7.54331 37.4063C7.51575 38.1229 7.48854 38.8401 7.46169 39.5581L7.43943 40.1549Z" fill="#E6E6E6"/>
<path d="M7.43927 38.2946C7.42549 38.2946 7.41204 38.2904 7.40082 38.2824C7.3896 38.2744 7.38117 38.2631 7.37673 38.25C6.74073 36.4873 4.15645 34.892 3.29679 34.7902C3.2877 34.7897 3.2788 34.7874 3.27065 34.7834C3.2625 34.7793 3.25525 34.7736 3.24937 34.7667C3.24348 34.7598 3.23908 34.7517 3.23642 34.743C3.23377 34.7343 3.23292 34.7251 3.23394 34.7161C3.23495 34.707 3.2378 34.6983 3.24231 34.6904C3.24683 34.6825 3.25291 34.6756 3.26018 34.6701C3.26746 34.6647 3.27578 34.6607 3.28462 34.6586C3.29347 34.6565 3.30266 34.6562 3.31163 34.6577C4.19567 34.7637 6.85415 36.3972 7.50287 38.2055C7.50832 38.2223 7.50706 38.2405 7.49935 38.2563C7.49164 38.2721 7.47807 38.2843 7.46153 38.2903C7.45448 38.2933 7.4469 38.2947 7.43927 38.2946Z" fill="white"/>
<path d="M6.52334 36.8488C6.51845 36.8499 6.51338 36.8499 6.5085 36.8488C6.50012 36.846 6.49238 36.8417 6.48571 36.8359C6.47904 36.8301 6.47358 36.8231 6.46964 36.8152C6.46569 36.8073 6.46335 36.7988 6.46274 36.79C6.46214 36.7812 6.46328 36.7723 6.4661 36.764C6.76926 35.8715 6.62086 35.262 6.6198 35.2556C6.61757 35.2472 6.61704 35.2384 6.61824 35.2298C6.61944 35.2212 6.62235 35.2128 6.62679 35.2054C6.63123 35.1979 6.63711 35.1913 6.6441 35.1861C6.65109 35.1809 6.65904 35.1772 6.6675 35.1751C6.67599 35.1728 6.68484 35.1723 6.69354 35.1735C6.70224 35.1747 6.71062 35.1775 6.7182 35.182C6.72578 35.1864 6.73241 35.1923 6.73772 35.1993C6.74302 35.2063 6.7469 35.2143 6.74912 35.2228C6.75548 35.2493 6.90918 35.8747 6.5933 36.8075C6.58766 36.821 6.5778 36.8323 6.56519 36.8398C6.55258 36.8472 6.5379 36.8504 6.52334 36.8488Z" fill="white"/>
<path d="M7.2723 37.912C7.26124 37.9122 7.25032 37.9097 7.2405 37.9046C6.7211 37.6226 5.59432 37.824 5.58266 37.8262C5.56526 37.829 5.54746 37.8249 5.53302 37.8148C5.51858 37.8047 5.50863 37.7894 5.50528 37.7721C5.50358 37.7635 5.50361 37.7546 5.50536 37.746C5.50711 37.7373 5.51055 37.7292 5.51548 37.7219C5.5204 37.7146 5.52672 37.7083 5.53406 37.7035C5.54141 37.6987 5.54964 37.6953 5.55828 37.6937C5.60704 37.6852 6.74336 37.4817 7.3041 37.7869C7.31694 37.7941 7.32706 37.8053 7.33288 37.8189C7.3387 37.8324 7.33988 37.8474 7.33626 37.8617C7.33263 37.876 7.32439 37.8886 7.31283 37.8977C7.30126 37.9068 7.28701 37.9119 7.2723 37.912Z" fill="white"/>
<path d="M7.60129 36.291C7.63203 36.2783 7.72849 34.1975 6.83385 32.9722C5.93921 31.7468 4.85377 31.6037 4.14039 31.9058C3.42701 32.2079 3.57435 32.934 4.45203 33.3729C5.32971 33.8117 6.42151 34.5792 6.67803 35.9773L7.60129 36.291Z" fill="#407BFF"/>
<g opacity="0.1">
<path d="M7.60129 36.291C7.63203 36.2783 7.72849 34.1975 6.83385 32.9722C5.93921 31.7468 4.85377 31.6037 4.14039 31.9058C3.42701 32.2079 3.57435 32.934 4.45203 33.3729C5.32971 33.8117 6.42151 34.5792 6.67803 35.9773L7.60129 36.291Z" fill="black"/>
</g>
<path d="M7.27213 35.6817C7.25623 35.6818 7.24081 35.6762 7.22873 35.6659C7.21665 35.6556 7.20872 35.6412 7.20641 35.6255C6.87039 33.5118 5.61641 32.4773 4.56383 32.2123C4.54671 32.208 4.53197 32.1972 4.52283 32.1821C4.5137 32.167 4.51091 32.1489 4.51507 32.1317C4.51957 32.1145 4.53064 32.0998 4.54591 32.0907C4.56117 32.0815 4.57941 32.0788 4.59669 32.083C5.69485 32.3575 6.99123 33.427 7.33785 35.6043C7.3406 35.6217 7.33635 35.6395 7.32603 35.6538C7.3157 35.6681 7.30013 35.6777 7.28273 35.6806L7.27213 35.6817Z" fill="white"/>
<path d="M7.43943 40.1549C7.30375 39.6058 6.75149 39.2443 6.09959 39.185C5.42225 39.1235 4.63361 39.0578 4.42479 38.4854C4.21597 37.913 4.42479 37.1392 4.32939 36.7586C4.21279 36.2986 4.03683 36.0241 3.14749 35.7453C2.35037 35.4951 1.90941 34.733 2.71289 34.4107C3.21863 34.2198 3.77175 34.1935 4.29335 34.3355C4.62937 34.4213 4.95055 34.5602 5.28975 34.6344C5.44703 34.6673 5.60642 34.6893 5.76675 34.7001C5.95225 34.7128 6.13775 34.6503 6.32537 34.662C6.80767 34.6927 7.24015 35.0245 7.46805 35.4506C7.62811 35.7506 7.59207 36.0866 7.58041 36.4152C7.56875 36.7438 7.55497 37.0756 7.54331 37.4063C7.51575 38.1229 7.48854 38.8401 7.46169 39.5581L7.43943 40.1549Z" fill="#407BFF"/>
<path d="M7.43927 38.2946C7.42549 38.2946 7.41204 38.2904 7.40082 38.2824C7.3896 38.2744 7.38117 38.2631 7.37673 38.25C6.74073 36.4873 4.15645 34.892 3.29679 34.7902C3.2877 34.7897 3.2788 34.7874 3.27065 34.7834C3.2625 34.7793 3.25525 34.7736 3.24937 34.7667C3.24348 34.7598 3.23908 34.7517 3.23642 34.743C3.23377 34.7343 3.23292 34.7251 3.23394 34.7161C3.23495 34.707 3.2378 34.6983 3.24231 34.6904C3.24683 34.6825 3.25291 34.6756 3.26018 34.6701C3.26746 34.6647 3.27578 34.6607 3.28462 34.6586C3.29347 34.6565 3.30266 34.6562 3.31163 34.6577C4.19567 34.7637 6.85415 36.3972 7.50287 38.2055C7.50832 38.2223 7.50706 38.2405 7.49935 38.2563C7.49164 38.2721 7.47807 38.2843 7.46153 38.2903C7.45448 38.2933 7.4469 38.2947 7.43927 38.2946Z" fill="white"/>
<path d="M6.52334 36.8488C6.51845 36.8499 6.51338 36.8499 6.5085 36.8488C6.50012 36.846 6.49238 36.8417 6.48571 36.8359C6.47904 36.8301 6.47358 36.8231 6.46964 36.8152C6.46569 36.8073 6.46335 36.7988 6.46274 36.79C6.46214 36.7812 6.46328 36.7723 6.4661 36.764C6.76926 35.8715 6.62086 35.262 6.6198 35.2556C6.61757 35.2472 6.61704 35.2384 6.61824 35.2298C6.61944 35.2212 6.62235 35.2128 6.62679 35.2054C6.63123 35.1979 6.63711 35.1913 6.6441 35.1861C6.65109 35.1809 6.65904 35.1772 6.6675 35.1751C6.67599 35.1728 6.68484 35.1723 6.69354 35.1735C6.70224 35.1747 6.71062 35.1775 6.7182 35.182C6.72578 35.1864 6.73241 35.1923 6.73772 35.1993C6.74302 35.2063 6.7469 35.2143 6.74912 35.2228C6.75548 35.2493 6.90918 35.8747 6.5933 36.8075C6.58766 36.821 6.5778 36.8323 6.56519 36.8398C6.55258 36.8472 6.5379 36.8504 6.52334 36.8488Z" fill="white"/>
<path d="M7.2723 37.912C7.26124 37.9122 7.25032 37.9097 7.2405 37.9046C6.7211 37.6226 5.59432 37.824 5.58266 37.8262C5.56526 37.829 5.54746 37.8249 5.53302 37.8148C5.51858 37.8047 5.50863 37.7894 5.50528 37.7721C5.50358 37.7635 5.50361 37.7546 5.50536 37.746C5.50711 37.7373 5.51055 37.7292 5.51548 37.7219C5.5204 37.7146 5.52672 37.7083 5.53406 37.7035C5.54141 37.6987 5.54964 37.6953 5.55828 37.6937C5.60704 37.6852 6.74336 37.4817 7.3041 37.7869C7.31694 37.7941 7.32706 37.8053 7.33288 37.8189C7.3387 37.8324 7.33988 37.8474 7.33626 37.8617C7.33263 37.876 7.32439 37.8886 7.31283 37.8977C7.30126 37.9068 7.28701 37.9119 7.2723 37.912Z" fill="white"/>
<path d="M7.66873 40.7409C7.60548 40.6971 7.55337 40.6391 7.51656 40.5716C7.47974 40.504 7.45925 40.4288 7.45673 40.3519V18.5159C7.46105 18.4362 7.48414 18.3587 7.52411 18.2896C7.56409 18.2205 7.61981 18.1619 7.68675 18.1184L32.6275 3.71511C32.6938 3.67461 32.7698 3.65277 32.8475 3.65188C32.9251 3.651 33.0016 3.6711 33.0688 3.71008C33.136 3.74905 33.1915 3.80545 33.2293 3.87332C33.2671 3.94118 33.2859 4.018 33.2836 4.09565V25.9317C33.2793 26.0113 33.2562 26.0889 33.2162 26.158C33.1763 26.227 33.1205 26.2857 33.0536 26.3292L8.11393 40.7324C8.04562 40.7688 7.9697 40.7885 7.89234 40.7899C7.81498 40.7914 7.73837 40.7746 7.66873 40.7409Z" fill="#407BFF"/>
<path opacity="0.4" d="M33.2839 4.05868C33.268 3.93996 33.1715 3.8965 33.057 3.96328L8.11418 18.3634C8.04609 18.4062 7.98964 18.4652 7.94988 18.5351L7.52588 18.286C7.56476 18.2164 7.62053 18.1577 7.68806 18.1153L32.6277 3.71524C32.6909 3.67361 32.7641 3.64963 32.8396 3.64581C32.9152 3.64198 32.9904 3.65844 33.0574 3.69348C33.1245 3.72852 33.181 3.78087 33.221 3.84508C33.261 3.9093 33.2831 3.98305 33.2849 4.05868H33.2839Z" fill="white"/>
<path d="M8.07044 40.7527H8.0609C8.05387 40.7565 8.04639 40.7593 8.03864 40.7612L8.02168 40.7665C8.01141 40.7702 8.00074 40.7727 7.98988 40.7739C7.98286 40.775 7.97571 40.775 7.96868 40.7739H7.9337C7.84313 40.7863 7.75093 40.7704 7.66976 40.7284C7.60634 40.6847 7.55409 40.6268 7.51726 40.5592C7.48042 40.4916 7.46004 40.4163 7.45776 40.3393V21.2307L7.88918 21.4798V40.598C7.88918 40.704 7.94112 40.7623 8.01638 40.7623C8.02658 40.7638 8.03693 40.7638 8.04712 40.7623H8.05242C8.05878 40.7598 8.06483 40.7566 8.07044 40.7527Z" fill="#F0F0F0"/>
<path opacity="0.1" d="M7.95001 18.535C7.90881 18.6033 7.88582 18.681 7.88323 18.7608V21.4797L7.45181 21.2306V18.5127C7.45128 18.5035 7.45128 18.4943 7.45181 18.4852C7.45396 18.4659 7.45714 18.4468 7.46135 18.4279C7.47386 18.3782 7.49312 18.3304 7.51859 18.2859L7.95001 18.535Z" fill="black"/>
<path d="M33.2837 4.09594V5.32236L15.0029 15.8778C14.8768 15.951 14.774 15.8916 14.774 15.7453V15.2811C14.774 15.1348 14.668 15.0754 14.544 15.1486L8.97578 18.3635C8.9087 18.4071 8.85289 18.4659 8.81291 18.5352C8.77293 18.6045 8.74992 18.6822 8.74576 18.7621V19.2264C8.74138 19.3059 8.71839 19.3834 8.67862 19.4524C8.63885 19.5214 8.58342 19.5802 8.5168 19.6239L7.8808 19.9885V18.7621C7.88517 18.6825 7.90817 18.6051 7.94794 18.5361C7.98771 18.467 8.04314 18.4083 8.10976 18.3646L33.0579 3.96344C33.1841 3.8903 33.2837 3.94966 33.2837 4.09594Z" fill="#407BFF"/>
<path d="M33.2842 25.934C33.2799 26.0137 33.2568 26.0912 33.2168 26.1603C33.1769 26.2293 33.1211 26.288 33.0542 26.3315L8.11452 40.7326C7.98838 40.8058 7.88556 40.7464 7.88556 40.6001V19.9874L8.52156 19.6227C8.6477 19.5496 8.85334 18.4366 8.98054 18.3634L14.4554 15.2025C14.5826 15.1294 14.8794 15.9509 15.0077 15.8777L33.2842 5.32227V25.934Z" fill="#FAFAFA"/>
<path d="M33.2842 5.32227V6.81475L7.88556 21.4798V19.9874L8.35726 19.716C8.4834 19.6429 8.5258 19.5316 8.58622 19.3185L8.74628 18.762C8.7961 18.5691 8.85228 18.4376 8.9763 18.3645L14.4512 15.2036C14.5784 15.1304 14.678 15.122 14.7692 15.282L14.9653 15.6382C15.0374 15.7633 15.0713 15.8364 15.1996 15.7633L33.2842 5.32227Z" fill="#E6E6E6"/>
<path d="M32.2112 4.86437C32.3712 4.77321 32.5005 4.84741 32.5005 5.03185C32.4953 5.13218 32.4663 5.22982 32.416 5.31678C32.3657 5.40375 32.2955 5.47756 32.2112 5.53217C32.0522 5.62333 31.9229 5.54913 31.9229 5.36469C31.928 5.26446 31.9568 5.16688 32.007 5.07992C32.0571 4.99297 32.127 4.9191 32.2112 4.86437Z" fill="white"/>
<path d="M31.3752 5.9151C31.4879 5.71991 31.488 5.50899 31.3754 5.44401C31.2629 5.37903 31.0803 5.48459 30.9676 5.67978C30.8549 5.87497 30.8548 6.08588 30.9673 6.15086C31.0799 6.21584 31.2625 6.11029 31.3752 5.9151Z" fill="white"/>
<path d="M30.1313 6.0631C30.2914 5.97194 30.4207 6.04614 30.4207 6.23058C30.4154 6.33091 30.3864 6.42855 30.3361 6.51551C30.2858 6.60248 30.2157 6.67629 30.1313 6.7309C29.9723 6.82206 29.843 6.74786 29.843 6.56342C29.8482 6.46319 29.877 6.36561 29.9271 6.27866C29.9772 6.1917 30.0472 6.11783 30.1313 6.0631Z" fill="white"/>
<path opacity="0.5" d="M8.93808 20.0954L8.57768 20.3074L8.71548 20.0434C8.72096 20.0335 8.72383 20.0224 8.72383 20.0111C8.72383 19.9998 8.72096 19.9886 8.71548 19.9788C8.70488 19.966 8.68686 19.9788 8.6752 19.9978L8.48016 20.3699C8.47794 20.3743 8.47616 20.3789 8.47486 20.3837V20.389C8.47434 20.3953 8.47434 20.4017 8.47486 20.4081C8.47428 20.4137 8.47428 20.4194 8.47486 20.425C8.47599 20.4282 8.4778 20.4311 8.48016 20.4335L8.67626 20.584C8.67901 20.5861 8.68236 20.5872 8.6858 20.5872C8.68924 20.5872 8.69259 20.5861 8.69534 20.584C8.705 20.5771 8.71239 20.5675 8.71654 20.5565C8.72714 20.5321 8.72608 20.5045 8.71654 20.495L8.57874 20.389L8.93914 20.177C8.94827 20.1696 8.95559 20.1602 8.96055 20.1495C8.96551 20.1389 8.96797 20.1272 8.96776 20.1155C8.9667 20.0985 8.95398 20.0858 8.93808 20.0954Z" fill="#455A64"/>
<path opacity="0.5" d="M9.23878 19.9217L9.59918 19.7097L9.46138 19.6037C9.44972 19.5942 9.44866 19.5666 9.46138 19.5422C9.4741 19.5178 9.49 19.5051 9.50166 19.5147L9.69776 19.6652C9.69827 19.668 9.69827 19.6709 9.69776 19.6737C9.69834 19.6793 9.69834 19.685 9.69776 19.6906C9.69828 19.697 9.69828 19.7033 9.69776 19.7097C9.69776 19.7097 9.69776 19.7097 9.69776 19.715C9.69819 19.7196 9.69819 19.7242 9.69776 19.7288L9.50166 20.1051C9.49762 20.1142 9.49098 20.1219 9.48258 20.1273C9.47966 20.1299 9.47589 20.1314 9.47198 20.1314C9.46807 20.1314 9.46429 20.1299 9.46138 20.1273C9.4559 20.1174 9.45303 20.1063 9.45303 20.095C9.45303 20.0837 9.4559 20.0726 9.46138 20.0627L9.59918 19.7987L9.23878 20.0107C9.22288 20.0203 9.21016 20.0107 9.21016 19.9832C9.20995 19.9714 9.21241 19.9598 9.21737 19.9491C9.22233 19.9385 9.22965 19.9291 9.23878 19.9217Z" fill="#455A64"/>
<path opacity="0.5" d="M10.421 18.8838C10.421 18.8626 10.3998 18.8647 10.3902 18.8838L10.3404 19.0035C10.2567 18.9951 10.1549 19.0767 10.086 19.223C9.99697 19.4116 9.99697 19.6353 10.086 19.7212C10.1076 19.7412 10.1355 19.753 10.1649 19.7548C10.1942 19.7565 10.2233 19.748 10.2471 19.7307C10.3195 19.6829 10.3759 19.6146 10.4093 19.5346C10.4152 19.5251 10.4184 19.514 10.4184 19.5028C10.4184 19.4916 10.4152 19.4806 10.4093 19.471C10.3976 19.4604 10.3796 19.471 10.368 19.4943C10.3022 19.6353 10.1931 19.6989 10.1263 19.6342C10.0595 19.5696 10.0606 19.4032 10.1263 19.2622C10.174 19.1562 10.2429 19.1021 10.3022 19.0989L10.2651 19.1901C10.2545 19.2134 10.2651 19.2357 10.2789 19.2251L10.4263 19.1297C10.4319 19.1247 10.4363 19.1185 10.4391 19.1115C10.4418 19.1045 10.4429 19.0969 10.4422 19.0894L10.421 18.8838Z" fill="#455A64"/>
<path opacity="0.5" d="M14.2928 15.8841L14.4242 15.6053C14.4316 15.5922 14.4355 15.5774 14.4355 15.5624C14.4355 15.5473 14.4316 15.5325 14.4242 15.5195C14.4083 15.5046 14.3829 15.5195 14.368 15.5513L14.2366 15.83L14.1051 15.7028C14.0892 15.688 14.0649 15.7028 14.049 15.7357C14.041 15.7488 14.0368 15.7638 14.0368 15.7792C14.0368 15.7945 14.041 15.8095 14.049 15.8226L14.1804 15.9488L14.049 16.2265C14.041 16.2396 14.0368 16.2546 14.0368 16.2699C14.0368 16.2853 14.041 16.3003 14.049 16.3134C14.0531 16.3166 14.0581 16.3183 14.0633 16.3183C14.0685 16.3183 14.0735 16.3166 14.0776 16.3134C14.0899 16.3046 14.0994 16.2924 14.1051 16.2784L14.2366 16.0007L14.368 16.1268C14.372 16.1299 14.3768 16.1316 14.3818 16.1316C14.3868 16.1316 14.3917 16.1299 14.3956 16.1268C14.4082 16.1186 14.4182 16.1068 14.4242 16.0929C14.4316 16.0796 14.4355 16.0647 14.4355 16.0495C14.4355 16.0342 14.4316 16.0193 14.4242 16.006L14.2928 15.8841Z" fill="#455A64"/>
<path d="M10.8991 19.2264V18.7621C10.9036 18.6825 10.9266 18.6051 10.9664 18.5361C11.0061 18.4671 11.0615 18.4083 11.1281 18.3646L31.7673 6.45441C31.8935 6.38127 31.9963 6.44063 31.9963 6.58691V7.05119C31.9919 7.13075 31.9689 7.20816 31.9291 7.27721C31.8894 7.34625 31.834 7.40499 31.7673 7.44869L11.1302 19.3589C11.0019 19.432 10.8991 19.3726 10.8991 19.2264Z" fill="#FAFAFA"/>
<path d="M31.4544 7.48454C31.4478 7.48575 31.4409 7.48575 31.4343 7.48454C31.4216 7.47863 31.4112 7.46863 31.4049 7.45614C31.3985 7.44364 31.3966 7.42938 31.3993 7.41564L31.4216 7.22696L31.3336 7.16336C31.3256 7.15734 31.3192 7.14946 31.315 7.14041C31.3107 7.13136 31.3087 7.12141 31.3092 7.11142C31.3095 7.0962 31.313 7.08123 31.3196 7.06751C31.3262 7.05379 31.3357 7.04165 31.3474 7.03192L31.482 6.92592C31.4846 6.9229 31.4865 6.91925 31.4873 6.91532L31.5477 6.7171C31.5517 6.7011 31.5602 6.6866 31.5723 6.67532C31.5843 6.66404 31.5993 6.65647 31.6156 6.6535C31.6266 6.65259 31.6377 6.65517 31.6472 6.66087C31.6567 6.66658 31.6642 6.67512 31.6686 6.6853L31.7194 6.7913L31.8329 6.74784C31.8433 6.74342 31.8548 6.74237 31.8658 6.74485C31.8768 6.74732 31.8868 6.75318 31.8943 6.76162C31.9033 6.77551 31.9081 6.79171 31.9081 6.80826C31.9081 6.82481 31.9033 6.841 31.8943 6.8549L31.8 7.03616C31.8 7.04146 31.8 7.04676 31.8 7.04782L31.8222 7.21318C31.8236 7.2282 31.8218 7.24335 31.8169 7.25761C31.8119 7.27187 31.804 7.28491 31.7936 7.29586C31.7871 7.30328 31.7788 7.30906 31.7696 7.31274C31.7604 7.31642 31.7505 7.3179 31.7406 7.31706L31.6346 7.30328L31.5159 7.45486C31.5092 7.4648 31.5 7.47278 31.4892 7.478C31.4784 7.48321 31.4664 7.48547 31.4544 7.48454ZM31.3898 7.10188L31.4777 7.16548C31.4869 7.17311 31.4938 7.183 31.4979 7.19416C31.502 7.20532 31.5031 7.21736 31.5011 7.22908L31.482 7.35416L31.5615 7.24816C31.5682 7.23846 31.5773 7.23063 31.5878 7.22544C31.5984 7.22024 31.6101 7.21785 31.6219 7.21848L31.7279 7.23226C31.7285 7.22839 31.7285 7.22446 31.7279 7.2206L31.7046 7.05418C31.7026 7.03368 31.7067 7.01305 31.7162 6.99482L31.8021 6.83476L31.7141 6.86868C31.701 6.874 31.6864 6.87398 31.6733 6.86863C31.6602 6.86328 31.6498 6.85302 31.6442 6.84006L31.605 6.75632L31.5509 6.93228C31.5449 6.95169 31.5335 6.96898 31.518 6.9821L31.3834 7.0881C31.3834 7.09072 31.384 7.09331 31.3851 7.09569C31.3862 7.09807 31.3878 7.10018 31.3898 7.10188Z" fill="#E0E0E0"/>
<g opacity="0.5">
<path d="M32.2663 6.39804C32.2497 6.39727 32.2339 6.39136 32.2209 6.38115C32.2079 6.37093 32.1984 6.35692 32.1937 6.34106C32.1891 6.3252 32.1895 6.30828 32.1949 6.29265C32.2003 6.27703 32.2104 6.26347 32.2239 6.25388L32.8694 5.88076C32.8877 5.87022 32.9094 5.86737 32.9298 5.87283C32.9501 5.8783 32.9675 5.89164 32.978 5.90991C32.9886 5.92819 32.9914 5.9499 32.986 5.97027C32.9805 5.99065 32.9672 6.00802 32.9489 6.01856L32.3034 6.39168C32.2917 6.39674 32.279 6.39892 32.2663 6.39804Z" fill="#455A64"/>
<path d="M32.2663 6.77109C32.2488 6.77099 32.2319 6.76514 32.2181 6.75444C32.2043 6.74375 32.1944 6.72879 32.1899 6.7119C32.1854 6.69501 32.1867 6.67712 32.1934 6.66099C32.2001 6.64487 32.212 6.6314 32.2271 6.62269L32.8726 6.25381C32.8817 6.24859 32.8917 6.2452 32.902 6.24384C32.9124 6.24248 32.9229 6.24317 32.933 6.24588C32.9431 6.24859 32.9525 6.25326 32.9608 6.25962C32.9691 6.26598 32.9761 6.27391 32.9813 6.28296C32.9865 6.29201 32.9899 6.30199 32.9913 6.31235C32.9926 6.32271 32.9919 6.33323 32.9892 6.34332C32.9865 6.35341 32.9818 6.36287 32.9755 6.37115C32.9691 6.37944 32.9612 6.38639 32.9521 6.39161L32.3066 6.76473C32.2938 6.76986 32.2801 6.77204 32.2663 6.77109Z" fill="#455A64"/>
<path d="M32.2664 7.14423C32.2487 7.14486 32.2312 7.13953 32.2168 7.12909C32.2025 7.11865 32.192 7.1037 32.1871 7.08662C32.1823 7.06955 32.1832 7.05133 32.1899 7.03487C32.1966 7.01842 32.2086 7.00467 32.224 6.99583L32.8695 6.62271C32.8875 6.61294 32.9085 6.61046 32.9283 6.61579C32.948 6.62112 32.965 6.63385 32.9755 6.65133C32.985 6.66947 32.9871 6.69051 32.9816 6.71019C32.9761 6.72987 32.9633 6.74673 32.9459 6.75733L32.3003 7.13045C32.2901 7.13729 32.2785 7.14198 32.2664 7.14423Z" fill="#455A64"/>
</g>
<path d="M7.88497 19.9873V21.4798L7.45355 21.2307V19.7393L7.88497 19.9873Z" fill="#E0E0E0"/>
<path d="M8.97593 25.3254L13.6834 22.6065C13.8095 22.5334 13.9124 22.5927 13.9124 22.739V36.131C13.908 36.2106 13.885 36.288 13.8452 36.3571C13.8054 36.4261 13.75 36.4848 13.6834 36.5285L8.97487 39.2464C8.84873 39.3195 8.74591 39.2602 8.74591 39.1139V25.7229C8.75024 25.6432 8.77333 25.5657 8.8133 25.4966C8.85327 25.4275 8.90899 25.3689 8.97593 25.3254Z" fill="#F0F0F0"/>
<path d="M9.83677 25.8227L12.826 24.0981C12.9532 24.0249 13.056 24.0769 13.056 24.2147C13.0497 24.2911 13.0256 24.3651 12.9856 24.4306C12.9457 24.4961 12.891 24.5514 12.826 24.592L9.83677 26.3198C9.70957 26.393 9.60675 26.341 9.60675 26.2032C9.61251 26.1262 9.63634 26.0516 9.6763 25.9855C9.71626 25.9194 9.77124 25.8636 9.83677 25.8227Z" fill="#E0E0E0"/>
<path d="M9.60675 27.1085V27.2876C9.60675 27.3756 9.66823 27.4106 9.74455 27.3671L9.90037 27.277C9.94042 27.2508 9.97376 27.2156 9.9977 27.1742C10.0216 27.1328 10.0355 27.0863 10.0382 27.0385V26.8594C10.0382 26.7714 9.97563 26.7364 9.90037 26.7799L9.74455 26.87C9.70438 26.896 9.67095 26.9312 9.647 26.9727C9.62305 27.0141 9.60926 27.0607 9.60675 27.1085Z" fill="#FAFAFA"/>
<path d="M10.4681 26.7002C10.4681 26.838 10.5741 26.8899 10.6971 26.8168L12.8171 25.5904C12.8828 25.5493 12.9378 25.4934 12.9778 25.4271C13.0178 25.3608 13.0415 25.286 13.0471 25.2088C13.0471 25.072 12.9411 25.0201 12.8171 25.0932L10.6971 26.3196C10.6318 26.3607 10.5771 26.4166 10.5373 26.4827C10.4976 26.5488 10.4739 26.6233 10.4681 26.7002Z" fill="#E0E0E0"/>
<path d="M9.60675 28.1036V28.2827C9.60675 28.3707 9.66823 28.4057 9.74455 28.3622L9.90037 28.2721C9.94042 28.246 9.97376 28.2107 9.9977 28.1693C10.0216 28.1279 10.0355 28.0814 10.0382 28.0336V27.8545C10.0382 27.7665 9.97563 27.7315 9.90037 27.775L9.74455 27.8651C9.70438 27.8911 9.67095 27.9263 9.647 27.9678C9.62305 28.0092 9.60926 28.0558 9.60675 28.1036Z" fill="#FAFAFA"/>
<path d="M10.4681 27.6955C10.4681 27.8333 10.5741 27.8853 10.6971 27.8121L12.8171 26.5857C12.8828 26.5447 12.9378 26.4888 12.9778 26.4225C13.0178 26.3562 13.0415 26.2813 13.0471 26.2041C13.0471 26.0674 12.9411 26.0154 12.8171 26.0886L10.6971 27.315C10.6318 27.3561 10.5771 27.4119 10.5373 27.478C10.4976 27.5441 10.4739 27.6186 10.4681 27.6955Z" fill="#E0E0E0"/>
<path d="M9.60675 29.0969V29.276C9.60675 29.364 9.66823 29.4 9.74455 29.3555L9.90037 29.2665C9.94031 29.2402 9.97356 29.2049 9.99748 29.1635C10.0214 29.1221 10.0353 29.0757 10.0382 29.028V28.8488C10.0382 28.7609 9.97563 28.7248 9.90037 28.7693L9.74455 28.8584C9.70444 28.8845 9.67106 28.9197 9.64711 28.9612C9.62317 29.0026 9.60934 29.0491 9.60675 29.0969Z" fill="#FAFAFA"/>
<path d="M10.4681 28.69C10.4681 28.8267 10.5741 28.8787 10.6971 28.8055L12.8171 27.5791C12.8826 27.5382 12.9376 27.4824 12.9776 27.4163C13.0175 27.3502 13.0414 27.2756 13.0471 27.1986C13.0471 27.0608 12.9411 27.0088 12.8171 27.082L10.6971 28.3084C10.6317 28.3496 10.5769 28.4056 10.5371 28.4719C10.4973 28.5382 10.4737 28.6129 10.4681 28.69Z" fill="#E0E0E0"/>
<path d="M9.60675 30.0901V30.2692C9.60675 30.3572 9.66823 30.3932 9.74455 30.3487L9.90037 30.2597C9.94031 30.2334 9.97356 30.1981 9.99748 30.1567C10.0214 30.1153 10.0353 30.0689 10.0382 30.0212V29.842C10.0382 29.754 9.97563 29.718 9.90037 29.7625L9.74455 29.8516C9.70444 29.8777 9.67106 29.9129 9.64711 29.9543C9.62317 29.9958 9.60934 30.0423 9.60675 30.0901Z" fill="#FAFAFA"/>
<path d="M10.4681 29.68C10.4681 29.8167 10.5741 29.8687 10.6971 29.7955L12.8171 28.5691C12.8826 28.5282 12.9376 28.4724 12.9776 28.4063C13.0175 28.3402 13.0414 28.2656 13.0471 28.1885C13.0471 28.0507 12.9411 27.9988 12.8171 28.0719L10.6971 29.2984C10.6317 29.3396 10.5769 29.3956 10.5371 29.4619C10.4973 29.5281 10.4737 29.6029 10.4681 29.68Z" fill="#E0E0E0"/>
<path d="M9.81828 31.3006L12.8032 29.5739C12.9304 29.5008 13.0333 29.5527 13.0333 29.6905C13.0275 29.7675 13.0037 29.8421 12.9637 29.9083C12.9237 29.9744 12.8688 30.0301 12.8032 30.071L9.81828 31.7999C9.69108 31.873 9.58826 31.8211 9.58826 31.6833C9.59369 31.6059 9.61737 31.5309 9.65735 31.4644C9.69732 31.3979 9.75247 31.3418 9.81828 31.3006Z" fill="#E0E0E0"/>
<path d="M9.58826 32.5875V32.7666C9.58826 32.8535 9.64974 32.8896 9.72606 32.8461L9.88082 32.756C9.92099 32.73 9.95442 32.6948 9.97837 32.6533C10.0023 32.6119 10.0161 32.5653 10.0186 32.5175V32.3384C10.0186 32.2504 9.95714 32.2154 9.88082 32.2589L9.72606 32.349C9.68589 32.375 9.65246 32.4102 9.62851 32.4517C9.60455 32.4931 9.59076 32.5397 9.58826 32.5875Z" fill="#FAFAFA"/>
<path d="M10.4492 32.1795C10.4492 32.3173 10.5552 32.3692 10.6792 32.2961L12.7992 31.0686C12.8647 31.0277 12.9197 30.9719 12.9596 30.9058C12.9996 30.8397 13.0234 30.7651 13.0292 30.6881C13.0292 30.5503 12.9232 30.4983 12.7992 30.5715L10.6792 31.7989C10.6136 31.8398 10.5587 31.8956 10.5187 31.9617C10.4787 32.0278 10.4549 32.1024 10.4492 32.1795Z" fill="#E0E0E0"/>
<path d="M9.58826 33.5828V33.762C9.58826 33.85 9.64974 33.8849 9.72606 33.8415L9.88082 33.7514C9.92099 33.7253 9.95442 33.6901 9.97837 33.6487C10.0023 33.6072 10.0161 33.5607 10.0186 33.5129V33.3337C10.0186 33.2458 9.95714 33.2108 9.88082 33.2542L9.72606 33.3443C9.68589 33.3704 9.65246 33.4056 9.62851 33.447C9.60455 33.4885 9.59076 33.535 9.58826 33.5828Z" fill="#FAFAFA"/>
<path d="M10.4492 33.178C10.4492 33.3158 10.5552 33.3678 10.6792 33.2946L12.7992 32.0671C12.8667 32.0269 12.9236 31.9711 12.9651 31.9043C13.0066 31.8375 13.0315 31.7618 13.0377 31.6834C13.0377 31.5456 12.9317 31.4937 12.8077 31.5668L10.6877 32.7943C10.6201 32.8345 10.5632 32.8904 10.5217 32.9572C10.4802 33.0239 10.4554 33.0997 10.4492 33.178Z" fill="#E0E0E0"/>
<path d="M9.58826 34.5762V34.7553C9.58826 34.8433 9.64974 34.8793 9.72606 34.8348L9.88082 34.7458C9.92081 34.7195 9.95411 34.6843 9.97803 34.6429C10.002 34.6015 10.0159 34.555 10.0186 34.5073V34.3271C10.0186 34.2401 9.95714 34.2041 9.88082 34.2486L9.72606 34.3377C9.68589 34.3637 9.65246 34.3989 9.62851 34.4404C9.60455 34.4818 9.59076 34.5284 9.58826 34.5762Z" fill="#FAFAFA"/>
<path d="M10.4492 34.169C10.4492 34.3058 10.5552 34.3577 10.6792 34.2846L12.7992 33.0581C12.8648 33.0171 12.9199 32.9612 12.9599 32.8949C12.9998 32.8286 13.0236 32.7538 13.0292 32.6765C13.0292 32.5398 12.9232 32.4879 12.7992 32.561L10.6792 33.7874C10.6135 33.8284 10.5584 33.8844 10.5185 33.9507C10.4785 34.017 10.4548 34.0918 10.4492 34.169Z" fill="#E0E0E0"/>
<path d="M9.58826 35.5693V35.7484C9.58826 35.8364 9.64974 35.8725 9.72606 35.8279L9.88082 35.7389C9.92081 35.7127 9.95411 35.6774 9.97803 35.636C10.002 35.5946 10.0159 35.5482 10.0186 35.5004V35.3213C10.0186 35.2333 9.95714 35.1972 9.88082 35.2418L9.72606 35.3308C9.68595 35.3569 9.65256 35.3921 9.62862 35.4336C9.60467 35.475 9.59085 35.5215 9.58826 35.5693Z" fill="#FAFAFA"/>
<path d="M10.4492 35.1622C10.4492 35.2989 10.5552 35.3509 10.6792 35.2777L12.7992 34.0513C12.8648 34.0103 12.9199 33.9543 12.9599 33.888C12.9998 33.8217 13.0236 33.7469 13.0292 33.6697C13.0292 33.533 12.9232 33.481 12.7992 33.5542L10.6792 34.7806C10.6135 34.8216 10.5584 34.8775 10.5185 34.9438C10.4785 35.0101 10.4548 35.085 10.4492 35.1622Z" fill="#E0E0E0"/>
<path d="M25.1082 20.7505V20.9964C25.1082 21.1427 25.2142 21.202 25.3372 21.1278L31.3378 17.6362C31.4044 17.5922 31.4598 17.5333 31.4996 17.464C31.5393 17.3948 31.5623 17.3173 31.5668 17.2376V17.0256C31.5668 16.8794 31.4608 16.82 31.3368 16.8931L25.334 20.3519C25.2678 20.3961 25.2129 20.4551 25.1737 20.5243C25.1345 20.5936 25.1121 20.671 25.1082 20.7505Z" fill="#E0E0E0"/>
<path d="M25.334 21.8444L32.1954 17.8832C32.3215 17.8101 32.4243 17.862 32.4243 17.9998C32.4186 18.0767 32.3949 18.1513 32.3551 18.2173C32.3154 18.2834 32.2607 18.3393 32.1954 18.3804L25.334 22.3416C25.2079 22.4147 25.105 22.3628 25.105 22.226C25.1106 22.1489 25.1342 22.0742 25.174 22.0079C25.2138 21.9416 25.2686 21.8856 25.334 21.8444Z" fill="#EBEBEB"/>
<path d="M25.334 22.8386L32.1954 18.8774C32.3215 18.8043 32.4243 18.8562 32.4243 18.9929C32.4188 19.07 32.3952 19.1448 32.3554 19.2111C32.3156 19.2773 32.2608 19.3333 32.1954 19.3745L25.334 23.3358C25.2079 23.4089 25.105 23.357 25.105 23.2192C25.1108 23.1422 25.1345 23.0677 25.1742 23.0016C25.214 22.9355 25.2687 22.8797 25.334 22.8386Z" fill="#EBEBEB"/>
<path d="M25.334 23.832L32.1954 19.8708C32.3215 19.7976 32.4243 19.8496 32.4243 19.9874C32.4186 20.0643 32.3949 20.1388 32.3551 20.2049C32.3154 20.271 32.2607 20.3268 32.1954 20.3679L25.334 24.3291C25.2079 24.4023 25.105 24.3503 25.105 24.2136C25.1106 24.1365 25.1342 24.0618 25.174 23.9955C25.2138 23.9292 25.2686 23.8732 25.334 23.832Z" fill="#EBEBEB"/>
<path d="M25.334 24.8262L32.1954 20.8649C32.3215 20.7918 32.4243 20.8437 32.4243 20.9805C32.4188 21.0576 32.3952 21.1323 32.3554 21.1986C32.3156 21.2649 32.2608 21.3209 32.1954 21.3621L25.334 25.3233C25.2079 25.3964 25.105 25.3445 25.105 25.2067C25.1108 25.1298 25.1345 25.0553 25.1742 24.9892C25.214 24.9231 25.2687 24.8673 25.334 24.8262Z" fill="#EBEBEB"/>
<path d="M25.334 25.8193L32.1954 21.8581C32.3215 21.7849 32.4243 21.8369 32.4243 21.9747C32.4186 22.0516 32.3949 22.1261 32.3551 22.1922C32.3154 22.2583 32.2607 22.3141 32.1954 22.3552L25.334 26.3164C25.2079 26.3896 25.105 26.3376 25.105 26.2009C25.1106 26.1238 25.1342 26.0491 25.174 25.9828C25.2138 25.9165 25.2686 25.8605 25.334 25.8193Z" fill="#EBEBEB"/>
<path d="M25.334 26.8179L32.1954 22.8566C32.3215 22.7835 32.4243 22.8354 32.4243 22.9722C32.4188 23.0493 32.3952 23.124 32.3554 23.1903C32.3156 23.2566 32.2608 23.3126 32.1954 23.3538L25.334 27.3108C25.2079 27.3839 25.105 27.332 25.105 27.1942C25.1114 27.118 25.1354 27.0443 25.1751 26.979C25.2149 26.9137 25.2693 26.8585 25.334 26.8179Z" fill="#EBEBEB"/>
<path d="M25.334 27.807L32.1986 23.85C32.3247 23.7769 32.4275 23.8288 32.4275 23.9666C32.4218 24.0437 32.3981 24.1183 32.3583 24.1846C32.3186 24.2509 32.2639 24.3069 32.1986 24.3482L25.334 28.302C25.2079 28.3752 25.105 28.3232 25.105 28.1865C25.1109 28.1097 25.1347 28.0355 25.1745 27.9696C25.2142 27.9037 25.2689 27.848 25.334 27.807Z" fill="#EBEBEB"/>
<path d="M25.334 28.8012L32.1954 24.84C32.3215 24.7669 32.4243 24.8188 32.4243 24.9566C32.4186 25.0335 32.3949 25.108 32.3551 25.1741C32.3154 25.2402 32.2607 25.2961 32.1954 25.3372L25.334 29.2984C25.2079 29.3715 25.105 29.3196 25.105 29.1818C25.1108 29.1049 25.1345 29.0304 25.1742 28.9643C25.214 28.8982 25.2687 28.8423 25.334 28.8012Z" fill="#EBEBEB"/>
<path d="M15.0031 26.3197L24.0131 21.1151C24.1392 21.0419 24.242 21.1013 24.242 21.2476V30.1643C24.2377 30.2438 24.2147 30.3212 24.1749 30.3903C24.1351 30.4593 24.0797 30.5181 24.0131 30.5618L15.0031 35.7664C14.8769 35.8395 14.7741 35.7802 14.7741 35.6339V26.7172C14.7785 26.6376 14.8015 26.5602 14.8413 26.4911C14.881 26.4221 14.9364 26.3634 15.0031 26.3197Z" fill="#F0F0F0"/>
<path d="M21.7298 26.1736L20.2246 28.8384L21.2846 30.2111L17.7866 27.1975L14.773 33.7229V35.6309C14.773 35.7772 14.879 35.8365 15.002 35.7634L24.012 30.5588C24.0786 30.5151 24.134 30.4564 24.1738 30.3873C24.2136 30.3183 24.2366 30.2409 24.2409 30.1613V28.4653L21.7298 26.1736Z" fill="#E0E0E0"/>
<path d="M22.0933 23.4258C22.4686 23.2138 22.7717 23.3856 22.7717 23.818C22.7591 24.0535 22.6911 24.2827 22.5732 24.487C22.4553 24.6913 22.2909 24.8648 22.0933 24.9936C21.7181 25.2056 21.4149 25.0349 21.4149 24.6024C21.4275 24.3668 21.4956 24.1374 21.6134 23.933C21.7313 23.7286 21.8957 23.5548 22.0933 23.4258Z" fill="#E0E0E0"/>
<path d="M8.97487 21.8445L32.1984 8.43659C32.3246 8.36345 32.4274 8.42281 32.4274 8.56909V11.024C32.423 11.1037 32.4 11.1813 32.36 11.2504C32.32 11.3194 32.2643 11.3781 32.1974 11.4215L8.97487 24.8274C8.84873 24.9016 8.74591 24.8422 8.74591 24.6949V22.242C8.75029 22.1625 8.77328 22.0851 8.81305 22.016C8.85282 21.947 8.90825 21.8882 8.97487 21.8445Z" fill="#E0E0E0"/>
<path d="M23.8164 14.5536V14.9776C23.8164 15.0645 23.8789 15.1006 23.9542 15.0571L30.7053 11.1595V10.4175L23.9563 14.3151C23.9159 14.3411 23.8822 14.3762 23.8579 14.4177C23.8336 14.4591 23.8194 14.5057 23.8164 14.5536Z" fill="#FAFAFA"/>
<path d="M31.4289 10.0001C31.5053 9.95663 31.5667 9.99161 31.5667 10.0796V10.5036C31.564 10.5513 31.5501 10.5978 31.5262 10.6392C31.5022 10.6806 31.4689 10.7158 31.4289 10.7421L30.705 11.1597V10.4177L31.4289 10.0001Z" fill="#EBEBEB"/>
<path d="M31.3757 10.5861L31.2951 10.5617C31.3036 10.527 31.3079 10.4914 31.3079 10.4557C31.3117 10.4231 31.307 10.39 31.2941 10.3597C31.2813 10.3294 31.2608 10.3029 31.2347 10.2829C31.2169 10.2724 31.1966 10.2668 31.1759 10.2668C31.1552 10.2668 31.1349 10.2724 31.1171 10.2829C31.0659 10.3225 31.0247 10.3735 30.9967 10.4319C30.9687 10.4902 30.9548 10.5543 30.9559 10.619C30.9523 10.6516 30.9571 10.6847 30.9699 10.7149C30.9828 10.7452 31.0031 10.7716 31.0291 10.7917C31.045 10.8004 31.0629 10.8047 31.081 10.8045C31.1042 10.804 31.1269 10.7974 31.1467 10.7854C31.2082 10.7434 31.254 10.6823 31.2771 10.6115L31.3577 10.6359H31.3672C31.3736 10.6358 31.3798 10.6337 31.3849 10.6299C31.39 10.6261 31.3939 10.6208 31.3958 10.6147C31.3957 10.6085 31.3936 10.6025 31.3901 10.5974C31.3865 10.5923 31.3815 10.5884 31.3757 10.5861ZM31.1171 10.7409C31.109 10.7471 31.0994 10.751 31.0893 10.7521C31.0792 10.7532 31.069 10.7515 31.0598 10.7472C31.0433 10.7321 31.0306 10.7133 31.0228 10.6922C31.0151 10.6712 31.0125 10.6486 31.0153 10.6264C31.0145 10.5722 31.0259 10.5186 31.0487 10.4694C31.0714 10.4202 31.1049 10.3768 31.1467 10.3423C31.1576 10.3355 31.17 10.3315 31.1828 10.3306C31.1907 10.3306 31.1984 10.3328 31.205 10.337C31.2213 10.3523 31.2337 10.3712 31.2412 10.3922C31.2488 10.4132 31.2513 10.4357 31.2485 10.4578C31.2491 10.512 31.2376 10.5655 31.2146 10.6145C31.1917 10.6635 31.158 10.7067 31.116 10.7409H31.1171Z" fill="#FAFAFA"/>
<path d="M14.7741 22.2419V25.193C14.7741 25.3393 14.8801 25.3986 15.0031 25.3255L32.1984 15.3975C32.265 15.3538 32.3204 15.2951 32.3602 15.226C32.4 15.157 32.423 15.0796 32.4273 15V12.05C32.4273 11.9038 32.3214 11.8444 32.1984 11.9175L15.0031 21.8444C14.9364 21.8881 14.881 21.9469 14.8413 22.0159C14.8015 22.085 14.7785 22.1624 14.7741 22.2419Z" fill="#EBEBEB"/>
<path d="M12.8366 43.7229C12.7732 43.6792 12.721 43.6212 12.6842 43.5536C12.6474 43.4861 12.6269 43.4108 12.6246 43.3338V21.4978C12.629 21.4183 12.6521 21.3409 12.6918 21.2719C12.7316 21.2029 12.787 21.1441 12.8535 21.1003L37.7943 6.69706C37.8607 6.65538 37.9373 6.6326 38.0157 6.63117C38.0941 6.62975 38.1715 6.64974 38.2394 6.68898C38.3073 6.72823 38.3632 6.78525 38.4012 6.85391C38.4391 6.92257 38.4576 7.00028 38.4547 7.07866V28.9147C38.4503 28.9942 38.4273 29.0716 38.3875 29.1407C38.3477 29.2097 38.2923 29.2685 38.2257 29.3122L13.2807 43.7154C13.2125 43.7516 13.1367 43.7711 13.0595 43.7724C12.9823 43.7737 12.9059 43.7567 12.8366 43.7229Z" fill="#407BFF"/>
<path d="M38.4528 7.04037C38.4369 6.92165 38.3405 6.87819 38.226 6.94497L13.281 21.3461C13.2137 21.3892 13.158 21.4482 13.1188 21.5179L12.6885 21.2688C12.7274 21.1992 12.7831 21.1405 12.8507 21.0981L37.7956 6.69693C37.8588 6.6553 37.932 6.63132 38.0075 6.6275C38.0831 6.62367 38.1583 6.64013 38.2253 6.67517C38.2924 6.71021 38.3489 6.76256 38.3889 6.82677C38.4289 6.89099 38.451 6.96474 38.4528 7.04037Z" fill="#455A64"/>
<path d="M13.2373 43.7346H13.2277C13.2207 43.7383 13.2132 43.7412 13.2055 43.7431L13.1885 43.7484C13.1782 43.7521 13.1675 43.7546 13.1567 43.7558C13.1497 43.7569 13.1425 43.7569 13.1355 43.7558L13.1005 43.7611C13.0099 43.7735 12.9177 43.7576 12.8366 43.7155C12.7731 43.6719 12.7209 43.6139 12.6841 43.5463C12.6472 43.4787 12.6268 43.4034 12.6246 43.3265V24.2136L13.056 24.4627V43.5819C13.056 43.6879 13.1079 43.7462 13.1832 43.7462C13.1934 43.7477 13.2037 43.7477 13.2139 43.7462C13.2222 43.7435 13.2301 43.7396 13.2373 43.7346Z" fill="#F0F0F0"/>
<path d="M13.1184 21.5179C13.0772 21.5862 13.0542 21.6639 13.0516 21.7437V24.4626L12.6202 24.2135V21.4956C12.6197 21.4865 12.6197 21.4773 12.6202 21.4681C12.6224 21.4488 12.6255 21.4297 12.6297 21.4108C12.6423 21.3611 12.6615 21.3133 12.687 21.2688L13.1184 21.5179Z" fill="#263238"/>
<path d="M38.4547 7.07763V8.30405L20.1697 18.8606C20.0436 18.9337 19.9408 18.8744 19.9408 18.7281V18.2638C19.9408 18.1175 19.8348 18.0582 19.7108 18.1313L14.1426 21.3463C14.0757 21.3898 14.0199 21.4484 13.98 21.5175C13.94 21.5866 13.9169 21.6641 13.9126 21.7438V22.2081C13.9082 22.2876 13.8852 22.365 13.8454 22.4341C13.8057 22.5031 13.7502 22.5619 13.6836 22.6056L13.0476 22.9702V21.7438C13.052 21.6642 13.075 21.5868 13.1147 21.5178C13.1545 21.4487 13.2099 21.39 13.2766 21.3463L38.2258 6.94513C38.3519 6.87199 38.4547 6.93135 38.4547 7.07763Z" fill="#37474F"/>
<path d="M38.4558 28.9167C38.4515 28.9964 38.4284 29.0739 38.3884 29.143C38.3484 29.2121 38.2927 29.2708 38.2258 29.3142L13.2808 43.7143C13.1546 43.7875 13.0518 43.7281 13.0518 43.5818V22.9701L13.6878 22.6055C13.814 22.5323 14.0196 21.4193 14.1468 21.3462L19.6217 18.1853C19.7489 18.1121 20.0457 18.9336 20.174 18.8605L38.459 8.30396V28.9167H38.4558Z" fill="#FAFAFA"/>
<path d="M38.4547 8.30396V9.79644L13.0518 24.4626V22.9701L13.5235 22.6966C13.6497 22.6235 13.6921 22.5122 13.7525 22.2991L13.9125 21.7437C13.9634 21.5508 14.0185 21.4193 14.1426 21.3462L19.6175 18.1853C19.7447 18.1121 19.8443 18.1037 19.9408 18.2637L20.1379 18.6199C20.2089 18.7439 20.2439 18.817 20.3711 18.7439L38.4547 8.30396Z" fill="#E6E6E6"/>
<path d="M37.5825 8.29742C37.6952 8.10223 37.6953 7.89132 37.5827 7.82634C37.4702 7.76135 37.2876 7.86691 37.1749 8.0621C37.0622 8.25729 37.0621 8.46821 37.1746 8.53319C37.2872 8.59817 37.4698 8.49261 37.5825 8.29742Z" fill="white"/>
<path d="M36.3391 8.44592C36.4981 8.35476 36.6274 8.42896 36.6274 8.6134C36.6226 8.71399 36.5939 8.812 36.5438 8.89935C36.4937 8.9867 36.4235 9.0609 36.3391 9.11584C36.1791 9.207 36.0497 9.1328 36.0497 8.94836C36.0547 8.84767 36.0835 8.7496 36.1338 8.66224C36.1842 8.57488 36.2545 8.50074 36.3391 8.44592Z" fill="white"/>
<path d="M35.2981 9.04596C35.4571 8.95374 35.5864 9.02794 35.5864 9.21238C35.5813 9.31261 35.5524 9.41019 35.5023 9.49715C35.4522 9.58411 35.3822 9.65797 35.2981 9.7127C35.138 9.80492 35.0087 9.73072 35.0087 9.54628C35.014 9.44596 35.043 9.34832 35.0933 9.26135C35.1436 9.17439 35.2138 9.10058 35.2981 9.04596Z" fill="white"/>
<path opacity="0.5" d="M14.1041 23.0771L13.7448 23.2891L13.8815 23.0241C13.8872 23.0143 13.8902 23.0032 13.8902 22.9918C13.8902 22.9805 13.8872 22.9693 13.8815 22.9595C13.8709 22.9478 13.8519 22.9595 13.8402 22.9796L13.6452 23.3549C13.6452 23.3549 13.6452 23.3633 13.6399 23.3686C13.6389 23.375 13.6389 23.3814 13.6399 23.3877C13.6386 23.3933 13.6386 23.3991 13.6399 23.4047L13.6452 23.4121L13.8402 23.5626C13.8431 23.5644 13.8464 23.5653 13.8497 23.5653C13.8531 23.5653 13.8564 23.5644 13.8593 23.5626C13.8693 23.5554 13.877 23.5455 13.8815 23.534C13.8921 23.5096 13.8911 23.4821 13.8815 23.4725L13.7448 23.3665L14.1041 23.1545C14.1136 23.1473 14.1212 23.138 14.1264 23.1273C14.1315 23.1166 14.1341 23.1049 14.1338 23.093C14.1338 23.0803 14.1211 23.0687 14.1041 23.0771Z" fill="#455A64"/>
<path opacity="0.5" d="M14.405 22.9034L14.7654 22.6914L14.6287 22.5854C14.616 22.5759 14.6149 22.5483 14.6287 22.5239C14.6425 22.4995 14.6573 22.4868 14.67 22.4953L14.8651 22.6458L14.8704 22.6532C14.8715 22.6585 14.8715 22.6639 14.8704 22.6691C14.8715 22.6758 14.8715 22.6826 14.8704 22.6893C14.8704 22.6893 14.8704 22.6988 14.8651 22.7031L14.67 23.0783C14.6653 23.087 14.6588 23.0946 14.6509 23.1006C14.6479 23.1032 14.6439 23.1047 14.6398 23.1047C14.6357 23.1047 14.6318 23.1032 14.6287 23.1006C14.623 23.0907 14.62 23.0796 14.62 23.0682C14.62 23.0569 14.623 23.0457 14.6287 23.0359L14.7654 22.7709L14.405 22.9829C14.3891 22.9914 14.3764 22.9829 14.3764 22.9543C14.3789 22.9342 14.3892 22.916 14.405 22.9034Z" fill="#455A64"/>
<path opacity="0.5" d="M15.5872 21.8666C15.5872 21.8443 15.566 21.8475 15.5565 21.8666L15.5077 21.9874C15.4229 21.9779 15.3212 22.0606 15.2523 22.2058C15.1632 22.3945 15.1632 22.6181 15.2523 22.704C15.2739 22.7243 15.302 22.7363 15.3316 22.738C15.3613 22.7398 15.3905 22.7311 15.4144 22.7135C15.4862 22.6651 15.5425 22.597 15.5766 22.5174C15.582 22.5079 15.5848 22.4971 15.5848 22.4862C15.5848 22.4752 15.582 22.4644 15.5766 22.4549C15.565 22.4432 15.5469 22.4549 15.5353 22.4782C15.4685 22.6192 15.3604 22.6817 15.2936 22.6181C15.2268 22.5545 15.2268 22.3871 15.2936 22.245C15.3413 22.1454 15.4091 22.086 15.4685 22.0818L15.4314 22.1729C15.4219 22.1963 15.4314 22.2185 15.4462 22.209L15.5925 22.1125C15.5984 22.1076 15.6029 22.1014 15.6059 22.0944C15.6088 22.0874 15.6101 22.0798 15.6095 22.0722L15.5872 21.8666Z" fill="#455A64"/>
<path opacity="0.5" d="M19.4593 18.868L19.5907 18.5902C19.5987 18.5771 19.6029 18.5621 19.6029 18.5468C19.6029 18.5315 19.5987 18.5164 19.5907 18.5033C19.5759 18.4885 19.5505 18.5033 19.5346 18.5362L19.4031 18.8139L19.2717 18.6878C19.2568 18.6729 19.2314 18.6878 19.2155 18.7206C19.2081 18.7337 19.2042 18.7485 19.2042 18.7636C19.2042 18.7786 19.2081 18.7934 19.2155 18.8065L19.3469 18.9326L19.2155 19.2114C19.2081 19.2245 19.2042 19.2393 19.2042 19.2543C19.2042 19.2694 19.2081 19.2842 19.2155 19.2973C19.2195 19.3006 19.2246 19.3025 19.2298 19.3025C19.235 19.3025 19.2401 19.3006 19.2441 19.2973C19.2564 19.2889 19.266 19.2771 19.2717 19.2633L19.4031 18.9846L19.5346 19.1118C19.5386 19.1151 19.5436 19.117 19.5489 19.117C19.5541 19.117 19.5592 19.1151 19.5632 19.1118C19.5757 19.1036 19.5854 19.0918 19.5907 19.0778C19.5987 19.0647 19.6029 19.0497 19.6029 19.0344C19.6029 19.0191 19.5987 19.004 19.5907 18.9909L19.4593 18.868Z" fill="#455A64"/>
<path d="M16.0654 22.208V21.7437C16.0697 21.664 16.0928 21.5865 16.1328 21.5174C16.1727 21.4483 16.2285 21.3896 16.2954 21.3462L36.9336 9.4339C37.0608 9.36076 37.1636 9.42012 37.1636 9.5664V10.0307C37.159 10.1103 37.1358 10.1878 37.0959 10.2568C37.0559 10.3258 37.0003 10.3845 36.9336 10.4282L16.2954 22.3405C16.1682 22.4136 16.0654 22.3542 16.0654 22.208Z" fill="#FAFAFA"/>
<path d="M36.6217 10.4664C36.6147 10.4675 36.6076 10.4675 36.6005 10.4664C36.5878 10.4603 36.5775 10.45 36.5714 10.4373C36.5652 10.4246 36.5636 10.4102 36.5666 10.3964L36.5889 10.2078L36.4998 10.1442C36.4921 10.1382 36.486 10.1304 36.4819 10.1216C36.4779 10.1127 36.476 10.103 36.4765 10.0933C36.4765 10.078 36.4798 10.0628 36.4862 10.0489C36.4926 10.035 36.502 10.0227 36.5136 10.0127L36.6482 9.90672C36.6512 9.90377 36.6534 9.90013 36.6546 9.89612L36.715 9.69896C36.7187 9.68271 36.7271 9.66791 36.7392 9.65641C36.7513 9.64491 36.7665 9.63722 36.7829 9.6343C36.7938 9.63398 36.8046 9.6368 36.814 9.64243C36.8234 9.64807 36.831 9.65629 36.8359 9.6661L36.8857 9.7721L37.0002 9.72864C37.0103 9.72378 37.0218 9.72249 37.0328 9.725C37.0437 9.7275 37.0535 9.73364 37.0606 9.74242C37.07 9.75595 37.0751 9.77204 37.0751 9.78853C37.0751 9.80503 37.07 9.82112 37.0606 9.83464L36.9631 10.018C36.9621 10.0215 36.9621 10.0252 36.9631 10.0286L36.9864 10.195C36.9878 10.2101 36.9859 10.2252 36.981 10.2395C36.9761 10.2537 36.9681 10.2668 36.9578 10.2777C36.9509 10.285 36.9425 10.2907 36.9331 10.2942C36.9237 10.2977 36.9137 10.2989 36.9037 10.2979L36.7977 10.2841L36.6758 10.4378C36.6697 10.4465 36.6616 10.4536 36.6522 10.4585C36.6428 10.4635 36.6324 10.4662 36.6217 10.4664ZM36.556 10.0837L36.644 10.1473C36.6536 10.1546 36.6609 10.1644 36.6652 10.1757C36.6696 10.1869 36.6706 10.1991 36.6684 10.2109L36.6535 10.336L36.733 10.23C36.7396 10.2203 36.7487 10.2125 36.7593 10.2075C36.77 10.2024 36.7817 10.2003 36.7935 10.2014L36.8995 10.2152C36.9008 10.2111 36.9008 10.2066 36.8995 10.2025L36.8878 10.0413C36.8848 10.0208 36.8889 9.99987 36.8995 9.98198L36.9843 9.82192L36.8973 9.85478C36.8844 9.86017 36.8698 9.8603 36.8568 9.85516C36.8437 9.85002 36.8332 9.84 36.8274 9.82722L36.7871 9.74242L36.7341 9.91838C36.7279 9.93792 36.7161 9.95523 36.7002 9.9682L36.5656 10.0742C36.5614 10.0762 36.558 10.0796 36.556 10.0837Z" fill="#E0E0E0"/>
<g opacity="0.5">
<path d="M37.4333 9.37981C37.4157 9.37995 37.3986 9.37427 37.3846 9.36365C37.3706 9.35304 37.3605 9.33809 37.3559 9.32114C37.3513 9.30419 37.3525 9.28619 37.3592 9.26996C37.3659 9.25373 37.3778 9.24017 37.393 9.23141L38.0396 8.85935C38.0575 8.85124 38.0778 8.85008 38.0966 8.85608C38.1153 8.86208 38.1312 8.87482 38.1411 8.89184C38.151 8.90885 38.1542 8.92893 38.1501 8.94819C38.1461 8.96745 38.135 8.98451 38.1191 8.99609L37.4725 9.36921C37.4606 9.37627 37.4471 9.37994 37.4333 9.37981Z" fill="#455A64"/>
<path d="M37.433 9.75189C37.4155 9.75203 37.3984 9.74635 37.3844 9.73573C37.3704 9.72512 37.3603 9.71017 37.3557 9.69322C37.3511 9.67627 37.3522 9.65827 37.3589 9.64204C37.3656 9.62581 37.3775 9.61225 37.3927 9.60349L38.0393 9.23037C38.0576 9.21983 38.0793 9.21698 38.0997 9.22244C38.1201 9.22791 38.1375 9.24125 38.148 9.25952C38.1585 9.27779 38.1614 9.29951 38.1559 9.31988C38.1505 9.34026 38.1371 9.35763 38.1188 9.36817L37.4722 9.74129C37.4604 9.74835 37.4468 9.75202 37.433 9.75189Z" fill="#455A64"/>
<path d="M37.433 10.1262C37.4155 10.1263 37.3984 10.1206 37.3844 10.11C37.3704 10.0994 37.3603 10.0844 37.3557 10.0675C37.3511 10.0505 37.3522 10.0325 37.3589 10.0163C37.3656 10.0001 37.3775 9.98652 37.3927 9.97776L38.0393 9.60464C38.0576 9.5941 38.0793 9.59124 38.0997 9.59671C38.1201 9.60218 38.1375 9.61552 38.148 9.63379C38.1585 9.65206 38.1614 9.67377 38.1559 9.69415C38.1505 9.71453 38.1371 9.7319 38.1188 9.74244L37.4722 10.1156C37.4604 10.1226 37.4468 10.1263 37.433 10.1262Z" fill="#455A64"/>
</g>
<path d="M13.0512 22.9702V24.4627L12.6198 24.2136V22.7222L13.0512 22.9702Z" fill="#E0E0E0"/>
<path d="M14.1417 28.3072L18.8502 25.5894C18.9763 25.5162 19.0792 25.5745 19.0792 25.7219V39.1139C19.0748 39.1935 19.0518 39.2709 19.012 39.3399C18.9723 39.409 18.9168 39.4677 18.8502 39.5114L14.1417 42.2292C14.0155 42.3024 13.9127 42.243 13.9127 42.0967V28.7047C13.9171 28.6251 13.9401 28.5477 13.9799 28.4787C14.0196 28.4096 14.0751 28.3509 14.1417 28.3072Z" fill="#F0F0F0"/>
<path d="M15.003 28.8043L17.988 27.0808C18.1152 27.0076 18.218 27.0596 18.218 27.1963C18.2124 27.2735 18.1887 27.3483 18.1487 27.4147C18.1087 27.481 18.0537 27.5369 17.988 27.5779L15.003 29.3015C14.8758 29.3746 14.773 29.3227 14.773 29.1849C14.7788 29.1078 14.8026 29.0332 14.8426 28.9671C14.8825 28.901 14.9375 28.8452 15.003 28.8043Z" fill="#E0E0E0"/>
<path d="M14.773 30.0902V30.2694C14.773 30.3573 14.8345 30.3923 14.9108 30.3489L15.0666 30.2588C15.1067 30.2327 15.1399 30.1974 15.1637 30.156C15.1875 30.1145 15.2011 30.068 15.2034 30.0203V29.8411C15.2034 29.7542 15.1419 29.7182 15.0666 29.7616L14.9108 29.8517C14.8706 29.8778 14.8372 29.913 14.8133 29.9544C14.7893 29.9959 14.7755 30.0424 14.773 30.0902Z" fill="#FAFAFA"/>
<path d="M15.6345 29.6799C15.6345 29.8177 15.7405 29.8697 15.8634 29.7965L17.9834 28.5701C18.0491 28.5291 18.1042 28.4731 18.1441 28.4068C18.1841 28.3405 18.2078 28.2657 18.2134 28.1885C18.2134 28.0518 18.1074 27.9998 17.9834 28.073L15.8634 29.2994C15.7981 29.3405 15.7434 29.3963 15.7037 29.4624C15.6639 29.5285 15.6402 29.603 15.6345 29.6799Z" fill="#E0E0E0"/>
<path d="M14.773 31.0854V31.2698C14.773 31.3578 14.8345 31.3928 14.9108 31.3493L15.0666 31.2592C15.1067 31.2331 15.1399 31.1979 15.1637 31.1564C15.1875 31.115 15.2011 31.0685 15.2034 31.0207V30.8416C15.2034 30.7547 15.1419 30.7186 15.0666 30.7621L14.9108 30.8522C14.8713 30.8777 14.8383 30.9121 14.8144 30.9526C14.7905 30.993 14.7763 31.0385 14.773 31.0854Z" fill="#FAFAFA"/>
<path d="M15.6345 30.6775C15.6345 30.8153 15.7405 30.8672 15.8634 30.7941L17.9834 29.5677C18.0491 29.5266 18.1042 29.4707 18.1441 29.4044C18.1841 29.3381 18.2078 29.2633 18.2134 29.1861C18.2134 29.0493 18.1074 28.9974 17.9834 29.0705L15.8634 30.2969C15.7981 30.338 15.7434 30.3939 15.7037 30.46C15.6639 30.5261 15.6402 30.6006 15.6345 30.6775Z" fill="#E0E0E0"/>
<path d="M14.773 32.0788V32.258C14.773 32.3459 14.8345 32.382 14.9108 32.3375L15.0666 32.2484C15.1066 32.2223 15.1398 32.187 15.1636 32.1456C15.1874 32.1041 15.201 32.0576 15.2034 32.0099V31.8308C15.2034 31.7428 15.1419 31.7068 15.0666 31.7513L14.9108 31.8403C14.8708 31.8666 14.8375 31.9018 14.8136 31.9432C14.7897 31.9846 14.7758 32.0311 14.773 32.0788Z" fill="#FAFAFA"/>
<path d="M15.6345 31.6717C15.6345 31.8084 15.7405 31.8603 15.8634 31.7872L17.9834 30.5608C18.049 30.5199 18.1039 30.4641 18.1439 30.398C18.1839 30.3319 18.2077 30.2573 18.2134 30.1802C18.2134 30.0424 18.1074 29.9905 17.9834 30.0636L15.8634 31.2901C15.798 31.3313 15.7432 31.3873 15.7034 31.4536C15.6636 31.5198 15.64 31.5946 15.6345 31.6717Z" fill="#E0E0E0"/>
<path d="M14.773 33.072V33.2511C14.773 33.3391 14.8345 33.3751 14.9108 33.3306L15.0666 33.2416C15.1067 33.2155 15.1399 33.1803 15.1637 33.1388C15.1875 33.0973 15.2011 33.0508 15.2034 33.0031V32.8239C15.2034 32.736 15.1419 32.6999 15.0666 32.7444L14.9108 32.8335C14.8708 32.8597 14.8375 32.895 14.8136 32.9364C14.7897 32.9778 14.7758 33.0242 14.773 33.072Z" fill="#FAFAFA"/>
<path d="M15.6345 32.6648C15.6345 32.8016 15.7405 32.8535 15.8634 32.7804L17.9834 31.554C18.049 31.513 18.1039 31.4573 18.1439 31.3912C18.1839 31.325 18.2077 31.2505 18.2134 31.1734C18.2134 31.0356 18.1074 30.9837 17.9834 31.0568L15.8634 32.2832C15.798 32.3244 15.7432 32.3804 15.7034 32.4467C15.6636 32.513 15.64 32.5877 15.6345 32.6648Z" fill="#E0E0E0"/>
<path d="M14.9851 34.2836L17.97 32.559C18.0972 32.4859 18.2001 32.5378 18.2001 32.6756C18.1945 32.7528 18.1707 32.8276 18.1307 32.894C18.0908 32.9603 18.0357 33.0162 17.97 33.0572L14.984 34.7808C14.8579 34.8539 14.7551 34.802 14.7551 34.6642C14.7608 34.5871 14.7847 34.5125 14.8246 34.4464C14.8646 34.3803 14.9196 34.3245 14.9851 34.2836Z" fill="#E0E0E0"/>
<path d="M14.7551 35.5694V35.7485C14.7551 35.8365 14.8165 35.8715 14.8929 35.828L15.0476 35.7379C15.0878 35.7119 15.1212 35.6767 15.1452 35.6353C15.1691 35.5938 15.1829 35.5473 15.1854 35.4994V35.3203C15.1854 35.2323 15.1239 35.1973 15.0476 35.2408L14.8929 35.3309C14.8527 35.357 14.8193 35.3922 14.7953 35.4336C14.7714 35.4751 14.7576 35.5216 14.7551 35.5694Z" fill="#FAFAFA"/>
<path d="M15.616 35.1611C15.616 35.2989 15.722 35.3509 15.846 35.2777L17.966 34.0513C18.0317 34.0103 18.0867 33.9543 18.1267 33.888C18.1667 33.8217 18.1904 33.7469 18.196 33.6697C18.196 33.533 18.09 33.481 17.966 33.5542L15.846 34.7806C15.7805 34.8215 15.7255 34.8773 15.6855 34.9434C15.6456 35.0095 15.6217 35.0841 15.616 35.1611Z" fill="#E0E0E0"/>
<path d="M14.7551 36.5698V36.749C14.7551 36.8369 14.8165 36.8719 14.8929 36.8285L15.0476 36.7384C15.0878 36.7123 15.1212 36.6771 15.1452 36.6357C15.1691 36.5942 15.1829 36.5477 15.1854 36.4999V36.3154C15.1854 36.2274 15.1239 36.1925 15.0476 36.2359L14.8929 36.326C14.852 36.3526 14.8181 36.3886 14.7941 36.4311C14.7701 36.4735 14.7567 36.5211 14.7551 36.5698Z" fill="#FAFAFA"/>
<path d="M15.616 36.1565C15.616 36.2943 15.722 36.3462 15.846 36.2731L17.966 35.0467C18.0317 35.0056 18.0867 34.9497 18.1267 34.8834C18.1667 34.8171 18.1904 34.7423 18.196 34.6651C18.196 34.5283 18.09 34.4764 17.966 34.5495L15.846 35.7759C15.7805 35.8168 15.7255 35.8726 15.6855 35.9387C15.6456 36.0048 15.6217 36.0794 15.616 36.1565Z" fill="#E0E0E0"/>
<path d="M14.7551 37.5579V37.736C14.7551 37.824 14.8165 37.86 14.8929 37.8155L15.0476 37.7264C15.0877 37.7003 15.1211 37.6651 15.1451 37.6237C15.169 37.5822 15.1828 37.5357 15.1854 37.4879V37.312C15.1854 37.224 15.1239 37.188 15.0476 37.2325L14.8929 37.3215C14.853 37.3474 14.8198 37.3823 14.7959 37.4233C14.772 37.4644 14.758 37.5105 14.7551 37.5579Z" fill="#FAFAFA"/>
<path d="M15.616 37.1509C15.616 37.2877 15.722 37.3396 15.846 37.2665L17.966 36.04C18.0315 35.9991 18.0865 35.9434 18.1265 35.8772C18.1664 35.8111 18.1902 35.7365 18.196 35.6595C18.196 35.5217 18.09 35.4698 17.966 35.5429L15.846 36.7693C15.7803 36.8103 15.7253 36.8663 15.6853 36.9326C15.6453 36.9989 15.6216 37.0737 15.616 37.1509Z" fill="#E0E0E0"/>
<path d="M14.7551 38.5512V38.7304C14.7551 38.8184 14.8165 38.8544 14.8929 38.8099L15.0476 38.7208C15.0877 38.6947 15.1211 38.6595 15.1451 38.6181C15.169 38.5766 15.1828 38.5301 15.1854 38.4823V38.3032C15.1854 38.2152 15.1239 38.1792 15.0476 38.2237L14.8929 38.3127C14.8528 38.3388 14.8194 38.3741 14.7954 38.4155C14.7715 38.4569 14.7577 38.5034 14.7551 38.5512Z" fill="#FAFAFA"/>
<path d="M15.616 38.1441C15.616 38.2808 15.722 38.3328 15.846 38.2596L17.966 37.0332C18.0315 36.9923 18.0865 36.9365 18.1265 36.8704C18.1664 36.8043 18.1902 36.7297 18.196 36.6527C18.196 36.5149 18.09 36.4629 17.966 36.5361L15.846 37.7625C15.7803 37.8035 15.7253 37.8594 15.6853 37.9257C15.6453 37.9921 15.6216 38.0669 15.616 38.1441Z" fill="#E0E0E0"/>
<path d="M30.2745 23.7323V23.9782C30.2745 24.1245 30.3805 24.1839 30.5034 24.1097L36.5041 20.618C36.5707 20.5741 36.6261 20.5151 36.6658 20.4459C36.7056 20.3767 36.7286 20.2992 36.7331 20.2195V20.0075C36.7331 19.8601 36.6271 19.8008 36.503 19.875L30.5034 23.338C30.4371 23.3812 30.3818 23.4394 30.342 23.5079C30.3022 23.5764 30.2791 23.6533 30.2745 23.7323Z" fill="#E0E0E0"/>
<path d="M30.5034 24.8271L37.3648 20.8659C37.491 20.7928 37.5938 20.8447 37.5938 20.9815C37.5882 21.0586 37.5646 21.1333 37.5248 21.1996C37.485 21.2659 37.4302 21.3219 37.3648 21.3631L30.5034 25.3232C30.3773 25.3974 30.2745 25.3444 30.2745 25.2077C30.2799 25.1307 30.3034 25.056 30.3432 24.9899C30.383 24.9238 30.4379 24.868 30.5034 24.8271Z" fill="#EBEBEB"/>
<path d="M30.5034 25.8205L37.3648 21.8593C37.491 21.7862 37.5938 21.8381 37.5938 21.9759C37.588 22.0528 37.5643 22.1273 37.5246 22.1934C37.4848 22.2595 37.4301 22.3154 37.3648 22.3564L30.5034 26.3177C30.3773 26.3908 30.2745 26.3389 30.2745 26.2021C30.2799 26.125 30.3034 26.0502 30.3432 25.9839C30.383 25.9176 30.4379 25.8616 30.5034 25.8205Z" fill="#EBEBEB"/>
<path d="M30.5034 26.8179L37.3648 22.8535C37.491 22.7803 37.5938 22.8323 37.5938 22.969C37.5882 23.0461 37.5646 23.1208 37.5248 23.1871C37.485 23.2534 37.4302 23.3094 37.3648 23.3506L30.5034 27.3118C30.3773 27.385 30.2745 27.333 30.2745 27.1952C30.2804 27.1188 30.3043 27.0448 30.344 26.9793C30.3838 26.9138 30.4384 26.8585 30.5034 26.8179Z" fill="#EBEBEB"/>
<path d="M30.5034 27.8081L37.3648 23.85C37.491 23.7769 37.5938 23.8288 37.5938 23.9666C37.588 24.0435 37.5643 24.118 37.5246 24.1841C37.4848 24.2502 37.4301 24.3061 37.3648 24.3472L30.5034 28.302C30.3773 28.3752 30.2745 28.3232 30.2745 28.1865C30.2804 28.1099 30.3041 28.0357 30.3439 27.97C30.3837 27.9043 30.4383 27.8488 30.5034 27.8081Z" fill="#EBEBEB"/>
<path d="M30.5034 28.8022L37.3648 24.841C37.491 24.7679 37.5938 24.8198 37.5938 24.9566C37.5882 25.0337 37.5646 25.1084 37.5248 25.1747C37.485 25.241 37.4302 25.297 37.3648 25.3382L30.5034 29.2994C30.3773 29.3725 30.2745 29.3206 30.2745 29.1828C30.28 29.1058 30.3035 29.0312 30.3433 28.9651C30.3831 28.8989 30.438 28.8431 30.5034 28.8022Z" fill="#EBEBEB"/>
<path d="M30.5034 29.7954L37.3648 25.8342C37.491 25.761 37.5938 25.813 37.5938 25.9508C37.588 26.0277 37.5643 26.1022 37.5246 26.1683C37.4848 26.2344 37.4301 26.2902 37.3648 26.3313L30.5034 30.2925C30.3773 30.3657 30.2745 30.3137 30.2745 30.177C30.2799 30.0998 30.3034 30.025 30.3432 29.9587C30.383 29.8924 30.4379 29.8364 30.5034 29.7954Z" fill="#EBEBEB"/>
<path d="M30.5034 30.7898L37.3648 26.8286C37.491 26.7554 37.5938 26.8074 37.5938 26.9441C37.5882 27.0212 37.5646 27.0959 37.5248 27.1622C37.485 27.2285 37.4302 27.2845 37.3648 27.3257L30.5034 31.2869C30.3773 31.3601 30.2745 31.3081 30.2745 31.1703C30.28 31.0933 30.3035 31.0187 30.3433 30.9526C30.3831 30.8865 30.438 30.8307 30.5034 30.7898Z" fill="#EBEBEB"/>
<path d="M30.5034 31.7829L37.3648 27.8217C37.491 27.7486 37.5938 27.8005 37.5938 27.9383C37.588 28.0152 37.5643 28.0897 37.5246 28.1558C37.4848 28.2219 37.4301 28.2778 37.3648 28.3188L30.5034 32.2801C30.3773 32.3532 30.2745 32.3013 30.2745 32.1645C30.2799 32.0874 30.3034 32.0126 30.3432 31.9463C30.383 31.88 30.4379 31.824 30.5034 31.7829Z" fill="#EBEBEB"/>
<path d="M20.1693 29.3016L29.1793 24.097C29.3055 24.0238 29.4083 24.0832 29.4083 24.2295V33.1462C29.4039 33.2258 29.3809 33.3032 29.3411 33.3722C29.3014 33.4413 29.2459 33.5 29.1793 33.5437L20.1693 38.7483C20.0432 38.8214 19.9404 38.7621 19.9404 38.6158V29.6991C19.9447 29.6195 19.9677 29.5421 20.0075 29.4731C20.0473 29.404 20.1027 29.3453 20.1693 29.3016Z" fill="#F0F0F0"/>
<path d="M26.8982 29.1553L25.3919 31.8212L26.4519 33.1928L22.9539 30.1792L19.9404 36.7046V38.6126C19.9404 38.7589 20.0464 38.8182 20.1693 38.7451L29.1793 33.5405C29.2459 33.4968 29.3014 33.4381 29.3411 33.369C29.3809 33.3 29.4039 33.2226 29.4083 33.143V31.447L26.8982 29.1553Z" fill="#E0E0E0"/>
<path d="M27.2601 26.413C27.6354 26.1957 27.9385 26.3717 27.9385 26.8041C27.9259 27.0398 27.8579 27.2691 27.74 27.4736C27.6221 27.678 27.4577 27.8517 27.2601 27.9807C26.8849 28.1927 26.5817 28.021 26.5817 27.5885C26.5943 27.353 26.6624 27.1238 26.7802 26.9196C26.8981 26.7153 27.0625 26.5417 27.2601 26.413Z" fill="#E0E0E0"/>
<path d="M14.1417 24.8272L37.3652 11.4193C37.4914 11.3461 37.5942 11.4055 37.5942 11.5518V14.0046C37.5899 14.0843 37.5668 14.1618 37.5268 14.2309C37.4868 14.3 37.4311 14.3586 37.3642 14.4021L14.1417 27.81C14.0155 27.8832 13.9127 27.8238 13.9127 27.6775V25.2279C13.9164 25.1477 13.9391 25.0696 13.9789 25C14.0187 24.9303 14.0745 24.8711 14.1417 24.8272Z" fill="#E0E0E0"/>
<path d="M28.9827 17.5365V17.9605C28.9827 18.0485 29.0441 18.0835 29.1205 18.04L35.8716 14.1424V13.4004L29.1205 17.2991C29.0804 17.325 29.0471 17.36 29.0231 17.4013C28.9992 17.4426 28.9853 17.4889 28.9827 17.5365Z" fill="#FAFAFA"/>
<path d="M36.5952 12.9818C36.6705 12.9383 36.733 12.9733 36.733 13.0613V13.4853C36.7302 13.533 36.7162 13.5794 36.6923 13.6208C36.6684 13.6622 36.6351 13.6975 36.5952 13.7238L35.8712 14.1414V13.3994L36.5952 12.9818Z" fill="#EBEBEB"/>
<path d="M36.5409 13.5679L36.4604 13.5425C36.4689 13.5078 36.4732 13.4722 36.4731 13.4365C36.4767 13.4038 36.4719 13.3708 36.4591 13.3405C36.4463 13.3103 36.4259 13.2838 36.3999 13.2637C36.3816 13.2539 36.361 13.2493 36.3402 13.2504C36.3195 13.2515 36.2994 13.2583 36.2823 13.2701C36.2311 13.3094 36.1898 13.3602 36.1618 13.4184C36.1339 13.4765 36.1199 13.5405 36.1212 13.605C36.1175 13.6377 36.1224 13.6707 36.1352 13.701C36.148 13.7312 36.1683 13.7577 36.1943 13.7778C36.2098 13.7866 36.2273 13.7914 36.2452 13.7916C36.2689 13.7913 36.2921 13.7844 36.312 13.7714C36.3734 13.7295 36.4193 13.6684 36.4423 13.5976L36.5229 13.623H36.5324C36.5388 13.6229 36.545 13.6208 36.5501 13.617C36.5553 13.6132 36.5591 13.6079 36.5611 13.6018C36.5624 13.5947 36.5612 13.5873 36.5574 13.5811C36.5537 13.5748 36.5479 13.5701 36.5409 13.5679ZM36.2823 13.7216C36.2742 13.7281 36.2644 13.7321 36.2541 13.7332C36.2437 13.7343 36.2333 13.7325 36.224 13.728C36.2078 13.7127 36.1954 13.6938 36.1878 13.6728C36.1803 13.6518 36.1778 13.6293 36.1805 13.6071C36.1797 13.553 36.1911 13.4993 36.2139 13.4501C36.2367 13.401 36.2702 13.3575 36.312 13.3231C36.3229 13.3166 36.3353 13.3129 36.348 13.3125C36.3558 13.312 36.3635 13.3139 36.3703 13.3178C36.3865 13.3331 36.3989 13.352 36.4064 13.373C36.414 13.394 36.4165 13.4165 36.4137 13.4386C36.4147 13.4928 36.4034 13.5466 36.3807 13.5958C36.3579 13.645 36.3243 13.6884 36.2823 13.7227V13.7216Z" fill="#FAFAFA"/>
<path d="M19.9404 25.2279V28.1747C19.9404 28.321 20.0464 28.3803 20.1693 28.3072L37.3646 18.3792C37.4313 18.3355 37.4867 18.2768 37.5265 18.2077C37.5662 18.1387 37.5892 18.0613 37.5936 17.9817V15.0317C37.5936 14.8855 37.4876 14.8261 37.3636 14.8992L20.1693 24.8272C20.1022 24.8711 20.0464 24.9303 20.0066 25C19.9668 25.0696 19.9441 25.1477 19.9404 25.2279Z" fill="#EBEBEB"/>
<path d="M18.0135 43.9899C17.9849 43.32 17.4421 41.9504 16.7097 41.1088C15.9772 40.2672 14.8557 39.6757 14.0894 39.9746C13.376 40.2523 13.4936 41.1989 14.3989 41.7914C15.3041 42.384 16.6577 43.1196 17.0892 44.1913L17.9552 45.493L18.0135 43.9899Z" fill="#407BFF"/>
<path opacity="0.1" d="M18.0135 43.9899C17.9849 43.32 17.4421 41.9504 16.7097 41.1088C15.9772 40.2672 14.8557 39.6757 14.0894 39.9746C13.376 40.2523 13.4936 41.1989 14.3989 41.7914C15.3041 42.384 16.6577 43.1196 17.0892 44.1913L17.9552 45.493L18.0135 43.9899Z" fill="black"/>
<path d="M18.1016 44.9058C18.091 44.9056 18.0807 44.9018 18.0724 44.8951C18.0642 44.8884 18.0584 44.8791 18.056 44.8687C17.5101 42.5982 15.5799 40.8142 14.452 40.4496C14.4396 40.4455 14.4292 40.4366 14.4233 40.4249C14.4173 40.4131 14.4162 40.3995 14.4202 40.387C14.4223 40.3809 14.4255 40.3752 14.4298 40.3703C14.434 40.3654 14.4392 40.3614 14.445 40.3585C14.4509 40.3557 14.4572 40.354 14.4637 40.3536C14.4702 40.3532 14.4767 40.3541 14.4828 40.3563C15.6297 40.7273 17.596 42.5399 18.1493 44.8454C18.1522 44.8582 18.1499 44.8716 18.1429 44.8827C18.136 44.8938 18.125 44.9017 18.1122 44.9048C18.1088 44.9058 18.1052 44.9062 18.1016 44.9058Z" fill="white"/>
<path d="M17.8218 46.3867C17.6978 46.0136 17.2112 45.4105 16.4438 44.9282C15.5958 44.3982 14.5422 44.1766 14.2835 43.7441C13.9719 43.2247 14.3991 42.7032 15.2502 42.7732C16.1014 42.8431 17.6374 43.9392 17.9479 45.6638L17.8218 46.3867Z" fill="#407BFF"/>
<path d="M17.9681 45.9838C17.9587 45.9834 17.9495 45.9803 17.9418 45.9749C17.9341 45.9694 17.9281 45.9618 17.9246 45.9531C17.1402 44.0207 15.6149 43.3953 14.9185 43.3338C14.912 43.3334 14.9057 43.3317 14.8999 43.3288C14.8941 43.3259 14.889 43.3218 14.8848 43.3169C14.8807 43.3119 14.8776 43.3062 14.8757 43.3C14.8738 43.2938 14.8732 43.2872 14.874 43.2808C14.8745 43.2744 14.8763 43.2681 14.8792 43.2624C14.8822 43.2567 14.8863 43.2516 14.8912 43.2475C14.8961 43.2434 14.9018 43.2402 14.908 43.2383C14.9141 43.2364 14.9206 43.2357 14.927 43.2363C15.6976 43.3041 17.2155 43.9444 18.0158 45.916C18.0208 45.9281 18.0207 45.9416 18.0158 45.9537C18.0108 45.9658 18.0013 45.9755 17.9893 45.9806C17.9824 45.9827 17.9753 45.9838 17.9681 45.9838Z" fill="white"/>
<path d="M43.0593 28.8244C43.0593 28.8244 43.2056 27.5323 43.848 26.5306C44.4903 25.5289 45.3733 24.9024 46.1969 24.8346C47.0205 24.7667 47.6862 25.5278 46.8043 26.0483C45.9224 26.5687 44.3578 27.0998 43.637 29.0459L43.0593 28.8244Z" fill="#407BFF"/>
<path opacity="0.1" d="M43.0593 28.8244C43.0593 28.8244 43.2056 27.5323 43.848 26.5306C44.4903 25.5289 45.3733 24.9024 46.1969 24.8346C47.0205 24.7667 47.6862 25.5278 46.8043 26.0483C45.9224 26.5687 44.3578 27.0998 43.637 29.0459L43.0593 28.8244Z" fill="black"/>
<path d="M43.3009 28.4883H43.2913C43.286 28.4861 43.2812 28.4828 43.2772 28.4788C43.2731 28.4747 43.2699 28.4698 43.2677 28.4645C43.2656 28.4592 43.2645 28.4535 43.2645 28.4477C43.2646 28.442 43.2658 28.4363 43.268 28.431C44.1372 26.2898 45.7919 25.3963 46.5445 25.2235C46.5501 25.2219 46.556 25.2215 46.5618 25.2223C46.5676 25.2232 46.5732 25.2252 46.5782 25.2283C46.5832 25.2314 46.5875 25.2355 46.5908 25.2403C46.5941 25.2451 46.5964 25.2506 46.5975 25.2563C46.5987 25.2619 46.5989 25.2677 46.5979 25.2733C46.5969 25.2789 46.5949 25.2843 46.5918 25.2891C46.5888 25.2939 46.5848 25.2981 46.5801 25.3014C46.5755 25.3047 46.5702 25.307 46.5646 25.3083C45.8226 25.4789 44.2051 26.3566 43.3496 28.4639C43.3454 28.4728 43.3383 28.48 43.3294 28.4844C43.3206 28.4888 43.3106 28.4902 43.3009 28.4883Z" fill="white"/>
<path d="M47.6997 28.5139C47.6255 28.6824 47.4422 28.7694 47.2704 28.8383C47.0987 28.9072 46.9153 28.9814 46.8231 29.1404C46.6366 29.4584 46.9418 29.912 46.7426 30.2247C46.6959 30.2875 46.637 30.34 46.5694 30.3792C46.5018 30.4184 46.4269 30.4434 46.3493 30.4526C46.2221 30.477 46.0928 30.476 45.9634 30.4876C45.9021 30.4859 45.8409 30.4809 45.7801 30.4728C45.6019 30.4331 45.4157 30.4533 45.2501 30.53C44.9946 30.6731 44.9172 30.9954 44.7614 31.2434C44.6658 31.3903 44.5394 31.5146 44.391 31.6078C44.2425 31.701 44.0756 31.7607 43.9018 31.7829C43.7873 31.7978 43.5742 31.819 43.4576 31.7533C43.449 31.7492 43.4408 31.7442 43.4332 31.7384C43.4175 31.7212 43.4026 31.7031 43.3887 31.6844C43.3864 31.6823 43.3846 31.6798 43.3834 31.6769C43.3389 31.5105 43.412 31.3377 43.4152 31.165C43.4157 31.1547 43.4157 31.1445 43.4152 31.1342C43.4078 30.9339 43.4025 30.7357 43.3983 30.5364C43.3887 30.1686 43.3845 29.8018 43.3866 29.434C43.3866 29.1955 43.3601 28.9347 43.4618 28.71C43.5731 28.463 43.8509 28.4567 43.9558 28.215C43.9982 28.1185 44.0205 28.0146 44.0618 27.9171C44.1247 27.7738 44.2258 27.6505 44.354 27.5607C44.4823 27.471 44.6328 27.4183 44.789 27.4083C45.2745 27.3839 45.7091 27.7772 46.1935 27.7412C46.3187 27.7243 46.4429 27.7006 46.5655 27.6701C46.9588 27.597 47.4135 27.7083 47.634 28.0411C47.6828 28.1086 47.7143 28.1869 47.7257 28.2693C47.7372 28.3518 47.7283 28.4357 47.6997 28.5139Z" fill="#407BFF"/>
<path d="M43.3408 30.9104C43.3303 30.9076 43.3213 30.9009 43.3158 30.8915C43.3102 30.8822 43.3085 30.8711 43.3111 30.8605C43.9821 28.3452 46.631 27.9816 47.2511 28.0261C47.262 28.0272 47.272 28.0324 47.2792 28.0407C47.2863 28.049 47.2899 28.0597 47.2893 28.0706C47.289 28.076 47.2877 28.0813 47.2853 28.0862C47.283 28.091 47.2797 28.0953 47.2756 28.0989C47.2716 28.1025 47.2669 28.1052 47.2617 28.1069C47.2566 28.1086 47.2512 28.1092 47.2458 28.1088C46.6395 28.0653 44.0468 28.4204 43.3917 30.8817C43.3887 30.8923 43.3817 30.9012 43.3722 30.9066C43.3626 30.9119 43.3513 30.9133 43.3408 30.9104Z" fill="white"/>
<path d="M46.2851 29.6364C46.2771 29.6344 46.2698 29.6304 46.2639 29.6247C46.0192 29.4129 45.7309 29.2576 45.4195 29.1699C45.108 29.0821 44.7811 29.0641 44.4619 29.117C44.4509 29.1185 44.4398 29.1157 44.4309 29.1092C44.422 29.1026 44.416 29.0929 44.4142 29.082C44.4126 29.0711 44.4154 29.0599 44.422 29.051C44.4285 29.0421 44.4383 29.0361 44.4491 29.0343C44.7813 28.9791 45.1215 28.998 45.4455 29.0897C45.7694 29.1813 46.0692 29.3434 46.3232 29.5643C46.3309 29.572 46.3353 29.5825 46.3353 29.5934C46.3353 29.6044 46.3309 29.6148 46.3232 29.6226C46.3185 29.6278 46.3125 29.6318 46.3059 29.6342C46.2992 29.6366 46.2921 29.6374 46.2851 29.6364Z" fill="white"/>
<path d="M18.0034 46.7077C17.9401 46.6639 17.888 46.6059 17.8512 46.5383C17.8144 46.4708 17.7939 46.3956 17.7914 46.3187V24.4827C17.7955 24.4031 17.8184 24.3256 17.8582 24.2565C17.898 24.1874 17.9535 24.1287 18.0203 24.0852L42.9611 9.6819C43.0275 9.64027 43.1039 9.61751 43.1822 9.61604C43.2606 9.61458 43.3378 9.63447 43.4057 9.67359C43.4736 9.7127 43.5295 9.76957 43.5675 9.83807C43.6056 9.90658 43.6242 9.98414 43.6215 10.0624V31.9059C43.6171 31.9854 43.5941 32.0628 43.5543 32.1319C43.5146 32.2009 43.4591 32.2597 43.3925 32.3034L18.4443 46.7003C18.3765 46.7359 18.3013 46.7551 18.2247 46.7564C18.1482 46.7577 18.0723 46.741 18.0034 46.7077Z" fill="#407BFF"/>
<path opacity="0.4" d="M43.6191 10.0255C43.6032 9.90676 43.5067 9.8633 43.3923 9.93008L18.4441 24.3312C18.3768 24.3743 18.3211 24.4333 18.2819 24.503L17.8516 24.2539C17.8922 24.1835 17.9502 24.1247 18.0201 24.0832L42.9619 9.68204C43.0251 9.6404 43.0982 9.61643 43.1738 9.6126C43.2493 9.60878 43.3246 9.62524 43.3916 9.66028C43.4587 9.69532 43.5151 9.74766 43.5551 9.81188C43.5951 9.87609 43.6172 9.94984 43.6191 10.0255Z" fill="white"/>
<path d="M18.4041 46.7194H18.3945C18.3875 46.7232 18.38 46.726 18.3723 46.7279L18.3553 46.7332C18.345 46.7369 18.3344 46.7394 18.3235 46.7406C18.3165 46.7417 18.3093 46.7417 18.3023 46.7406L18.2673 46.7459C18.1767 46.7583 18.0846 46.7424 18.0034 46.7004C17.94 46.6567 17.8877 46.5988 17.8509 46.5312C17.814 46.4636 17.7937 46.3883 17.7914 46.3113V27.1985L18.2228 27.4476V46.5668C18.2228 46.6728 18.2747 46.7311 18.35 46.7311C18.3602 46.7326 18.3705 46.7326 18.3807 46.7311L18.4041 46.7194Z" fill="#F0F0F0"/>
<path opacity="0.1" d="M18.2847 24.5028C18.2435 24.5711 18.2205 24.6489 18.2179 24.7286V27.4475L17.7865 27.1984V24.4859C17.7859 24.4767 17.7859 24.4675 17.7865 24.4583C17.7886 24.4391 17.7918 24.42 17.796 24.4011C17.8085 24.3513 17.8278 24.3035 17.8532 24.259L18.2847 24.5028Z" fill="black"/>
<path d="M43.6211 10.0625V11.2889L25.3339 21.8455C25.2078 21.9186 25.105 21.8593 25.105 21.713V21.2487C25.105 21.1024 24.999 21.0431 24.875 21.1162L19.3068 24.3312C19.2398 24.3746 19.1841 24.4333 19.1441 24.5024C19.1042 24.5714 19.0811 24.649 19.0768 24.7287V25.193C19.0724 25.2725 19.0494 25.3499 19.0096 25.419C18.9698 25.488 18.9144 25.5468 18.8478 25.5905L18.2118 25.9551V24.7287C18.2162 24.6491 18.2392 24.5717 18.2789 24.5027C18.3187 24.4336 18.3741 24.3749 18.4408 24.3312L43.3921 9.93002C43.5182 9.85794 43.6211 9.91624 43.6211 10.0625Z" fill="#407BFF"/>
<path d="M43.622 31.9058C43.6177 31.9855 43.5946 32.063 43.5547 32.1321C43.5147 32.2012 43.459 32.2599 43.392 32.3033L18.4439 46.6992C18.3177 46.7723 18.2149 46.713 18.2149 46.5667V25.955L18.8509 25.5903C18.977 25.5172 19.1827 24.4042 19.3099 24.3311L24.7848 21.1691C24.912 21.0959 25.2088 21.9185 25.337 21.8454L43.622 11.2888V31.9058Z" fill="#FAFAFA"/>
<path d="M19.309 31.2911L24.0165 28.5733C24.1437 28.5002 24.2465 28.5595 24.2465 28.7058V42.0968C24.2422 42.1765 24.2191 42.254 24.1791 42.3231C24.1391 42.3922 24.0834 42.4508 24.0165 42.4943L19.309 45.2132C19.1818 45.2863 19.079 45.227 19.079 45.0807V31.6939C19.0825 31.6133 19.1052 31.5347 19.1452 31.4647C19.1852 31.3946 19.2414 31.3351 19.309 31.2911Z" fill="#F0F0F0"/>
<path d="M20.1693 31.7882L23.1553 30.0646C23.2825 29.9915 23.3843 30.0434 23.3843 30.1812C23.3788 30.2582 23.3552 30.3328 23.3154 30.3989C23.2757 30.4651 23.2208 30.5209 23.1553 30.5618L20.1693 32.2864C20.0432 32.3595 19.9404 32.3065 19.9404 32.1698C19.9459 32.0927 19.9696 32.018 20.0093 31.9517C20.0491 31.8854 20.1039 31.8294 20.1693 31.7882Z" fill="#E0E0E0"/>
<path d="M19.9404 33.0719V33.251C19.9404 33.3379 20.0018 33.374 20.0782 33.3305L20.2329 33.2404C20.2731 33.2143 20.3065 33.1791 20.3305 33.1377C20.3544 33.0962 20.3682 33.0497 20.3707 33.0019V32.8227C20.3707 32.7348 20.3092 32.6998 20.2329 32.7432L20.0782 32.8334C20.038 32.8594 20.0046 32.8946 19.9806 32.936C19.9567 32.9775 19.9429 33.024 19.9404 33.0719Z" fill="#407BFF"/>
<path d="M20.8018 32.667C20.8018 32.8048 20.9078 32.8568 21.0318 32.7836L23.1518 31.5562C23.2171 31.5151 23.2718 31.4592 23.3115 31.3931C23.3513 31.327 23.375 31.2525 23.3807 31.1756C23.3807 31.0378 23.2747 30.9859 23.1518 31.059L21.0318 32.2854C20.9661 32.3264 20.911 32.3824 20.8711 32.4487C20.8311 32.515 20.8074 32.5898 20.8018 32.667Z" fill="#E0E0E0"/>
<path d="M19.9404 34.0704V34.2495C19.9404 34.3364 20.0018 34.3725 20.0782 34.329L20.2329 34.2389C20.2731 34.2129 20.3065 34.1777 20.3305 34.1362C20.3544 34.0948 20.3682 34.0482 20.3707 34.0004V33.8213C20.3707 33.7333 20.3092 33.6983 20.2329 33.7418L20.0782 33.8319C20.038 33.8579 20.0046 33.8931 19.9806 33.9346C19.9567 33.976 19.9429 34.0226 19.9404 34.0704Z" fill="#407BFF"/>
<path d="M20.8018 33.6624C20.8018 33.8002 20.9078 33.8521 21.0318 33.779L23.1518 32.5515C23.2171 32.5104 23.2718 32.4546 23.3115 32.3885C23.3513 32.3224 23.375 32.2479 23.3807 32.171C23.3807 32.0332 23.2747 31.9812 23.1518 32.0544L21.0318 33.2808C20.9661 33.3218 20.911 33.3777 20.8711 33.4441C20.8311 33.5104 20.8074 33.5852 20.8018 33.6624Z" fill="#E0E0E0"/>
<path d="M19.9404 35.0636V35.2427C19.9404 35.3307 20.0018 35.3657 20.0782 35.3222L20.2329 35.2332C20.2729 35.207 20.3062 35.1717 20.3301 35.1303C20.3541 35.0889 20.368 35.0425 20.3707 34.9947V34.8145C20.3707 34.7276 20.3092 34.6915 20.2329 34.735L20.0782 34.8251C20.038 34.8512 20.0046 34.8863 19.9806 34.9278C19.9567 34.9693 19.9429 35.0158 19.9404 35.0636Z" fill="#407BFF"/>
<path d="M20.8018 34.6555C20.8018 34.7933 20.9078 34.8452 21.0318 34.7721L23.1518 33.5457C23.2172 33.5045 23.272 33.4485 23.3118 33.3822C23.3515 33.3159 23.3752 33.2412 23.3807 33.1641C23.3807 33.0273 23.2747 32.9754 23.1518 33.0485L21.0318 34.275C20.9662 34.3159 20.9113 34.3716 20.8713 34.4378C20.8313 34.5039 20.8075 34.5785 20.8018 34.6555Z" fill="#E0E0E0"/>
<path d="M19.9404 36.057V36.2362C19.9404 36.3241 20.0018 36.3602 20.0782 36.3157L20.2329 36.2266C20.2729 36.2004 20.3062 36.1651 20.3301 36.1237C20.3541 36.0823 20.368 36.0359 20.3707 35.9881V35.8079C20.3707 35.721 20.3092 35.685 20.2329 35.7284L20.0782 35.8185C20.038 35.8446 20.0046 35.8798 19.9806 35.9212C19.9567 35.9627 19.9429 36.0092 19.9404 36.057Z" fill="#407BFF"/>
<path d="M20.8018 35.6489C20.8018 35.7867 20.9078 35.8387 21.0318 35.7655L23.1518 34.5391C23.2172 34.4979 23.272 34.4419 23.3118 34.3756C23.3515 34.3093 23.3752 34.2346 23.3807 34.1575C23.3807 34.0208 23.2747 33.9688 23.1518 34.042L21.0318 35.2684C20.9662 35.3093 20.9113 35.365 20.8713 35.4312C20.8313 35.4973 20.8075 35.5719 20.8018 35.6489Z" fill="#E0E0E0"/>
<path d="M20.1519 37.2674L23.1379 35.5439C23.264 35.4707 23.3669 35.5227 23.3669 35.6605C23.3611 35.7374 23.3374 35.8119 23.2977 35.878C23.2579 35.9441 23.2032 35.9999 23.1379 36.041L20.1519 37.7646C20.0247 37.8377 19.9229 37.7858 19.9229 37.649C19.9285 37.5719 19.9521 37.4972 19.9919 37.4309C20.0316 37.3646 20.0865 37.3086 20.1519 37.2674Z" fill="#E0E0E0"/>
<path d="M19.9277 38.5532V38.7323C19.9277 38.8203 19.9892 38.8563 20.0644 38.8118L20.2202 38.7228C20.2604 38.6967 20.2938 38.6615 20.3178 38.6201C20.3417 38.5786 20.3555 38.5321 20.358 38.4843V38.3051C20.358 38.2172 20.2966 38.1811 20.2202 38.2256L20.0644 38.3147C20.0247 38.3411 19.9916 38.3764 19.9679 38.4178C19.9442 38.4592 19.9304 38.5055 19.9277 38.5532Z" fill="#407BFF"/>
<path d="M20.7833 38.146C20.7833 38.2828 20.8893 38.3347 21.0122 38.2616L23.1375 37.0352C23.2028 36.9941 23.2575 36.9382 23.2973 36.8721C23.3371 36.806 23.3608 36.7315 23.3665 36.6546C23.3665 36.5168 23.2605 36.4649 23.1375 36.538L21.0122 37.7644C20.9468 37.8056 20.892 37.8616 20.8522 37.9279C20.8125 37.9942 20.7888 38.0689 20.7833 38.146Z" fill="#E0E0E0"/>
<path d="M19.9277 39.5485V39.7277C19.9277 39.8157 19.9892 39.8517 20.0644 39.8072L20.2202 39.7182C20.2604 39.6921 20.2938 39.6569 20.3178 39.6155C20.3417 39.574 20.3555 39.5275 20.358 39.4797V39.3005C20.358 39.2125 20.2966 39.1765 20.2202 39.221L20.0644 39.31C20.0247 39.3365 19.9916 39.3718 19.9679 39.4132C19.9442 39.4546 19.9304 39.5009 19.9277 39.5485Z" fill="#407BFF"/>
<path d="M20.7833 39.1414C20.7833 39.2781 20.8893 39.3301 21.0122 39.2569L23.1375 38.0305C23.2028 37.9894 23.2575 37.9336 23.2973 37.8675C23.3371 37.8014 23.3608 37.7269 23.3665 37.65C23.3665 37.5122 23.2605 37.4602 23.1375 37.5334L21.0122 38.7598C20.9468 38.801 20.892 38.857 20.8522 38.9233C20.8125 38.9896 20.7888 39.0643 20.7833 39.1414Z" fill="#E0E0E0"/>
<path d="M19.9277 40.5428V40.7219C19.9277 40.8099 19.9892 40.8449 20.0644 40.8014L20.2202 40.7113C20.2604 40.6853 20.2938 40.6501 20.3178 40.6086C20.3417 40.5672 20.3555 40.5206 20.358 40.4728V40.2937C20.358 40.2057 20.2966 40.1707 20.2202 40.2142L20.0644 40.3043C20.0245 40.3305 19.9913 40.3658 19.9676 40.4072C19.9438 40.4487 19.9301 40.4951 19.9277 40.5428Z" fill="#407BFF"/>
<path d="M20.7833 40.1348C20.7833 40.2726 20.8893 40.3245 21.0122 40.2514L23.1375 39.0249C23.2029 38.9837 23.2577 38.9277 23.2975 38.8614C23.3373 38.7952 23.3609 38.7204 23.3665 38.6433C23.3665 38.5066 23.2605 38.4547 23.1375 38.5278L21.0122 39.75C20.9464 39.7915 20.8913 39.848 20.8515 39.9149C20.8117 39.9817 20.7883 40.0571 20.7833 40.1348Z" fill="#E0E0E0"/>
<path d="M19.9277 41.536V41.7151C19.9277 41.8031 19.9892 41.8381 20.0644 41.7946L20.2202 41.7045C20.2604 41.6785 20.2938 41.6433 20.3178 41.6018C20.3417 41.5603 20.3555 41.5138 20.358 41.466V41.2869C20.358 41.1989 20.2966 41.1639 20.2202 41.2074L20.0644 41.2975C20.0245 41.3237 19.9913 41.359 19.9676 41.4004C19.9438 41.4418 19.9301 41.4883 19.9277 41.536Z" fill="#407BFF"/>
<path d="M20.7833 41.1279C20.7833 41.2657 20.8893 41.3177 21.0122 41.2445L23.1375 40.0181C23.2029 39.9769 23.2577 39.9209 23.2975 39.8546C23.3373 39.7883 23.3609 39.7136 23.3665 39.6365C23.3665 39.4998 23.2605 39.4478 23.1375 39.521L21.0122 40.7474C20.9469 40.7885 20.8922 40.8443 20.8525 40.9104C20.8127 40.9765 20.789 41.051 20.7833 41.1279Z" fill="#E0E0E0"/>
<path d="M35.4408 26.7172V26.9631C35.4408 27.1094 35.5468 27.1688 35.6698 27.0946L41.6704 23.5966C41.737 23.5529 41.7925 23.4941 41.8322 23.4251C41.872 23.356 41.895 23.2786 41.8994 23.1991V22.9871C41.8994 22.8408 41.7934 22.7814 41.6704 22.8546L35.6708 26.3186C35.6037 26.3622 35.5479 26.421 35.5079 26.4903C35.468 26.5596 35.445 26.6373 35.4408 26.7172Z" fill="#407BFF"/>
<path d="M35.6708 27.8112L42.5311 23.85C42.6583 23.7769 42.7612 23.8288 42.7612 23.9666C42.7554 24.0437 42.7316 24.1183 42.6916 24.1844C42.6516 24.2505 42.5967 24.3063 42.5311 24.3472L35.6708 28.3084C35.5436 28.3815 35.4408 28.3296 35.4408 28.1928C35.4464 28.1156 35.4701 28.0408 35.5101 27.9745C35.5501 27.9082 35.6051 27.8523 35.6708 27.8112Z" fill="#E6E6E6"/>
<path d="M35.6708 28.8054L42.5311 24.8442C42.6583 24.7711 42.7612 24.823 42.7612 24.9597C42.7556 25.037 42.7318 25.1118 42.6918 25.1781C42.6519 25.2444 42.5968 25.3003 42.5311 25.3413L35.6708 29.3026C35.5436 29.3757 35.4408 29.3238 35.4408 29.186C35.4466 29.1089 35.4704 29.0343 35.5103 28.9682C35.5503 28.9021 35.6053 28.8463 35.6708 28.8054Z" fill="#E6E6E6"/>
<path d="M35.6708 29.7985L42.5311 25.8373C42.6583 25.7642 42.7612 25.8161 42.7612 25.9539C42.7554 26.031 42.7316 26.1056 42.6916 26.1717C42.6516 26.2378 42.5967 26.2936 42.5311 26.3345L35.6708 30.2957C35.5436 30.3688 35.4408 30.3169 35.4408 30.1801C35.4464 30.1029 35.4701 30.0281 35.5101 29.9618C35.5501 29.8955 35.6051 29.8396 35.6708 29.7985Z" fill="#E6E6E6"/>
<path d="M35.6708 30.793L42.5311 26.8317C42.6583 26.7586 42.7612 26.8105 42.7612 26.9473C42.7556 27.0245 42.7318 27.0993 42.6918 27.1656C42.6519 27.2319 42.5968 27.2879 42.5311 27.3289L35.6708 31.2901C35.5436 31.3632 35.4408 31.3113 35.4408 31.1735C35.4466 31.0965 35.4704 31.0219 35.5103 30.9558C35.5503 30.8896 35.6053 30.8339 35.6708 30.793Z" fill="#E6E6E6"/>
<path d="M35.6708 31.7861L42.5311 27.8249C42.6583 27.7517 42.7612 27.8037 42.7612 27.9415C42.7554 28.0185 42.7316 28.0931 42.6916 28.1592C42.6516 28.2253 42.5967 28.2811 42.5311 28.322L35.6708 32.2832C35.5436 32.3564 35.4408 32.3044 35.4408 32.1677C35.4464 32.0905 35.4701 32.0157 35.5101 31.9494C35.5501 31.883 35.6051 31.8271 35.6708 31.7861Z" fill="#E6E6E6"/>
<path d="M35.6708 32.7805L42.5311 28.8193C42.6583 28.7462 42.7612 28.7981 42.7612 28.9348C42.7556 29.0121 42.7318 29.0869 42.6918 29.1532C42.6519 29.2195 42.5968 29.2754 42.5311 29.3164L35.6708 33.2777C35.5436 33.3508 35.4408 33.2989 35.4408 33.1611C35.4466 33.084 35.4704 33.0094 35.5103 32.9433C35.5503 32.8772 35.6053 32.8214 35.6708 32.7805Z" fill="#E6E6E6"/>
<path d="M35.6708 33.7736L42.5311 29.8124C42.6583 29.7393 42.7612 29.7912 42.7612 29.929C42.7554 30.0061 42.7316 30.0807 42.6916 30.1468C42.6516 30.2129 42.5967 30.2687 42.5311 30.3096L35.6708 34.2708C35.5436 34.3439 35.4408 34.292 35.4408 34.1552C35.4464 34.078 35.4701 34.0032 35.5101 33.9369C35.5501 33.8706 35.6051 33.8147 35.6708 33.7736Z" fill="#E6E6E6"/>
<path d="M35.6708 34.7681L42.5311 30.8068C42.6583 30.7337 42.7612 30.7856 42.7612 30.9224C42.7556 30.9996 42.7318 31.0744 42.6918 31.1407C42.6519 31.207 42.5968 31.263 42.5311 31.304L35.6708 35.2652C35.5436 35.3383 35.4408 35.2864 35.4408 35.1486C35.4466 35.0716 35.4704 34.997 35.5103 34.9309C35.5503 34.8647 35.6053 34.809 35.6708 34.7681Z" fill="#E6E6E6"/>
<path d="M25.334 32.2854L34.344 27.0819C34.4712 27.0087 34.574 27.0681 34.574 27.2143V36.1311C34.5697 36.2108 34.5466 36.2883 34.5067 36.3574C34.4667 36.4265 34.411 36.4851 34.344 36.5286L25.334 41.7321C25.2068 41.8053 25.104 41.7459 25.104 41.5996V32.6829C25.1083 32.6032 25.1314 32.5257 25.1714 32.4566C25.2114 32.3875 25.2671 32.3288 25.334 32.2854Z" fill="#407BFF"/>
<path opacity="0.8" d="M25.334 32.2854L34.344 27.0819C34.4712 27.0087 34.574 27.0681 34.574 27.2143V36.1311C34.5697 36.2108 34.5466 36.2883 34.5067 36.3574C34.4667 36.4265 34.411 36.4851 34.344 36.5286L25.334 41.7321C25.2068 41.8053 25.104 41.7459 25.104 41.5996V32.6829C25.1083 32.6032 25.1314 32.5257 25.1714 32.4566C25.2114 32.3875 25.2671 32.3288 25.334 32.2854Z" fill="white"/>
<path d="M32.0661 32.1401L30.5598 34.805L31.6198 36.1777L28.1218 33.1641L25.1072 39.6895V41.5975C25.1072 41.7437 25.2132 41.8031 25.3372 41.73L34.3472 36.5264C34.4141 36.483 34.4699 36.4243 34.5098 36.3552C34.5498 36.2861 34.5729 36.2086 34.5772 36.1289V34.4329L32.0661 32.1401Z" fill="#407BFF"/>
<path d="M32.4274 29.397C32.8016 29.185 33.1058 29.3556 33.1058 29.7892C33.093 30.0246 33.0249 30.2537 32.907 30.4579C32.7891 30.6622 32.6249 30.8358 32.4274 30.9647C32.0522 31.182 31.748 31.006 31.748 30.5736C31.7606 30.3378 31.8288 30.1084 31.9468 29.9039C32.0649 29.6995 32.2296 29.5258 32.4274 29.397Z" fill="#407BFF"/>
<path d="M19.309 27.8111L42.5315 14.4031C42.6587 14.33 42.7615 14.3894 42.7615 14.5356V16.9895C42.7574 17.0692 42.7345 17.1467 42.6947 17.2157C42.6549 17.2848 42.5993 17.3435 42.5325 17.387L19.309 30.7939C19.1818 30.8671 19.079 30.8077 19.079 30.6614V28.2086C19.0833 28.1289 19.1064 28.0513 19.1464 27.9823C19.1863 27.9132 19.2421 27.8545 19.309 27.8111Z" fill="#455A64"/>
<path d="M34.1489 20.5205V20.9445C34.1489 21.0314 34.2115 21.0674 34.2867 21.024L41.0389 17.1253V16.3833L34.2867 20.2809C34.2466 20.3073 34.2133 20.3427 34.1894 20.3843C34.1655 20.4259 34.1516 20.4726 34.1489 20.5205Z" fill="#FAFAFA"/>
<path d="M41.7641 15.9666C41.8404 15.9221 41.9019 15.9581 41.9019 16.0461V16.4701C41.8994 16.5179 41.8856 16.5645 41.8617 16.6059C41.8377 16.6474 41.8043 16.6826 41.7641 16.7086L41.0412 17.1263V16.3843L41.7641 15.9666Z" fill="#407BFF"/>
<path d="M41.7087 16.5528L41.6282 16.5274C41.6363 16.4926 41.6405 16.4571 41.6409 16.4214C41.6445 16.3888 41.6396 16.3558 41.6266 16.3257C41.6135 16.2956 41.5929 16.2694 41.5667 16.2497C41.5484 16.2399 41.5278 16.2353 41.5071 16.2362C41.4864 16.2371 41.4664 16.2436 41.449 16.255C41.3977 16.2944 41.3563 16.3454 41.3283 16.4037C41.3003 16.4621 41.2865 16.5263 41.2879 16.591C41.2843 16.6236 41.2892 16.6566 41.3022 16.6867C41.3152 16.7168 41.3359 16.743 41.3621 16.7627C41.3774 16.7719 41.3951 16.7767 41.413 16.7765C41.4365 16.776 41.4595 16.7694 41.4798 16.7574C41.541 16.7147 41.5867 16.6534 41.6101 16.5825L41.6907 16.6079H41.6992C41.7055 16.6082 41.7117 16.6064 41.7169 16.6028C41.7221 16.5991 41.7259 16.5939 41.7278 16.5878C41.7295 16.5807 41.7285 16.5731 41.725 16.5666C41.7215 16.5602 41.7157 16.5553 41.7087 16.5528ZM41.4458 16.7076C41.4373 16.7129 41.4273 16.7158 41.4172 16.7158C41.4071 16.7158 41.3972 16.7129 41.3886 16.7076C41.3724 16.6925 41.36 16.6738 41.3524 16.6529C41.3449 16.6321 41.3424 16.6098 41.3451 16.5878C41.3443 16.5336 41.3557 16.4799 41.3784 16.4308C41.4012 16.3816 41.4347 16.3382 41.4766 16.3037C41.4874 16.2968 41.4998 16.2928 41.5126 16.2921C41.5202 16.292 41.5275 16.2943 41.5338 16.2984C41.5502 16.3134 41.5628 16.3321 41.5704 16.3529C41.5779 16.3738 41.5803 16.3962 41.5773 16.4182C41.5792 16.4733 41.5683 16.5281 41.5455 16.5783C41.5227 16.6285 41.4886 16.6728 41.4458 16.7076Z" fill="#FAFAFA"/>
<path d="M25.1072 28.2087V31.164C25.1072 31.3103 25.2132 31.3697 25.3372 31.2965L42.5315 21.3696C42.5984 21.3262 42.6541 21.2675 42.6941 21.1984C42.7341 21.1293 42.7572 21.0518 42.7615 20.9721V18.02C42.7615 17.8737 42.6555 17.8144 42.5315 17.8875L25.334 27.8112C25.2677 27.855 25.2126 27.9139 25.1732 27.9829C25.1338 28.052 25.1111 28.1293 25.1072 28.2087Z" fill="#407BFF"/>
<path opacity="0.7" d="M25.1072 28.2087V31.164C25.1072 31.3103 25.2132 31.3697 25.3372 31.2965L42.5315 21.3696C42.5984 21.3262 42.6541 21.2675 42.6941 21.1984C42.7341 21.1293 42.7572 21.0518 42.7615 20.9721V18.02C42.7615 17.8737 42.6555 17.8144 42.5315 17.8875L25.334 27.8112C25.2677 27.855 25.2126 27.9139 25.1732 27.9829C25.1338 28.052 25.1111 28.1293 25.1072 28.2087Z" fill="white"/>
<path d="M43.621 11.2888V12.7813L18.2181 27.4475V25.955L18.6898 25.6815C18.8159 25.6084 18.8583 25.4971 18.9187 25.284L19.0788 24.7286C19.1297 24.5356 19.1848 24.4042 19.3088 24.3311L24.7837 21.1691C24.9109 21.0959 25.0106 21.0885 25.107 21.2486L25.3031 21.6047C25.3752 21.7288 25.4091 21.8019 25.5374 21.7288L43.621 11.2888Z" fill="#E6E6E6"/>
<path d="M42.5442 10.8321C42.7043 10.7399 42.8336 10.8141 42.8336 10.9985C42.8283 11.0988 42.7993 11.1965 42.749 11.2834C42.6987 11.3704 42.6286 11.4442 42.5442 11.4988C42.3852 11.5911 42.2559 11.5158 42.2559 11.3324C42.2611 11.2322 42.2899 11.1346 42.34 11.0476C42.3901 10.9607 42.4601 10.8868 42.5442 10.8321Z" fill="white"/>
<path d="M41.5054 11.431C41.6644 11.3388 41.7937 11.414 41.7937 11.5985C41.7884 11.6985 41.7595 11.7959 41.7094 11.8827C41.6593 11.9694 41.5894 12.0431 41.5054 12.0977C41.3453 12.19 41.216 12.1158 41.216 11.9313C41.2213 11.831 41.2503 11.7334 41.3006 11.6464C41.3509 11.5594 41.4211 11.4856 41.5054 11.431Z" fill="white"/>
<path d="M40.6694 12.482C40.7821 12.2868 40.7822 12.0759 40.6697 12.0109C40.5571 11.9459 40.3745 12.0515 40.2619 12.2467C40.1492 12.4419 40.149 12.6528 40.2616 12.7178C40.3741 12.7827 40.5567 12.6772 40.6694 12.482Z" fill="white"/>
<path opacity="0.5" d="M19.271 26.0621L18.9106 26.2741L19.0484 26.0102C19.0537 26.0003 19.0566 25.9891 19.0566 25.9779C19.0566 25.9666 19.0537 25.9555 19.0484 25.9455C19.0378 25.9328 19.0187 25.9455 19.007 25.9657L18.812 26.3409C18.812 26.3409 18.812 26.3494 18.8067 26.3547C18.8057 26.361 18.8057 26.3674 18.8067 26.3738C18.8055 26.3794 18.8055 26.3851 18.8067 26.3907L18.812 26.3981L19.007 26.5476C19.0098 26.5497 19.0131 26.5508 19.0166 26.5508C19.02 26.5508 19.0233 26.5497 19.0261 26.5476C19.0363 26.5411 19.0442 26.5314 19.0484 26.52C19.0541 26.5108 19.0571 26.5002 19.0571 26.4893C19.0571 26.4784 19.0541 26.4678 19.0484 26.4586L18.9106 26.3526L19.271 26.1406C19.2803 26.1335 19.2879 26.1244 19.293 26.1139C19.2982 26.1034 19.3008 26.0918 19.3006 26.0801C19.3006 26.0653 19.2922 26.0536 19.271 26.0621Z" fill="#455A64"/>
<path opacity="0.5" d="M19.5719 25.8884L19.9323 25.6764L19.7945 25.5704C19.7828 25.5619 19.7818 25.5344 19.7945 25.51C19.8072 25.4856 19.8231 25.4729 19.8347 25.4814L20.0308 25.6319C20.0332 25.6339 20.035 25.6365 20.0361 25.6393C20.0368 25.6446 20.0368 25.6499 20.0361 25.6552C20.0367 25.6619 20.0367 25.6687 20.0361 25.6754C20.035 25.6802 20.0333 25.6848 20.0308 25.6891L19.8326 26.076C19.8286 26.0852 19.822 26.0929 19.8135 26.0983C19.8122 26.0997 19.8105 26.1008 19.8087 26.1016C19.8069 26.1024 19.8049 26.1028 19.803 26.1028C19.801 26.1028 19.799 26.1024 19.7972 26.1016C19.7954 26.1008 19.7937 26.0997 19.7923 26.0983C19.7869 26.0886 19.784 26.0776 19.784 26.0665C19.784 26.0554 19.7869 26.0444 19.7923 26.0347L19.9301 25.7697L19.5697 25.9817C19.5538 25.9902 19.5411 25.9817 19.5411 25.9531C19.5407 25.9406 19.5432 25.9282 19.5486 25.917C19.5539 25.9057 19.5619 25.8959 19.5719 25.8884Z" fill="#455A64"/>
<path opacity="0.5" d="M20.7535 24.8517C20.7535 24.8294 20.7323 24.8326 20.7228 24.8517L20.674 24.9725C20.5892 24.963 20.4875 25.0457 20.4186 25.1909C20.3295 25.3796 20.3295 25.6032 20.4186 25.6891C20.4403 25.7094 20.4683 25.7214 20.498 25.7231C20.5276 25.7249 20.5569 25.7162 20.5808 25.6986C20.6525 25.6504 20.7085 25.5823 20.7419 25.5025C20.7477 25.493 20.7507 25.482 20.7507 25.4707C20.7507 25.4595 20.7477 25.4485 20.7419 25.4389C20.7313 25.4283 20.7122 25.4389 20.7016 25.4633C20.6348 25.6043 20.5267 25.6668 20.4599 25.6022C20.3931 25.5375 20.3931 25.3711 20.4599 25.2301C20.5066 25.1305 20.5755 25.0711 20.6348 25.0669L20.5977 25.158C20.5882 25.1814 20.5977 25.2036 20.6115 25.1941L20.7588 25.0976C20.7647 25.0928 20.7692 25.0866 20.772 25.0796C20.7748 25.0725 20.7757 25.0649 20.7747 25.0573L20.7535 24.8517Z" fill="#455A64"/>
<path opacity="0.5" d="M24.6261 21.8509L24.7575 21.5732C24.7655 21.5601 24.7697 21.545 24.7697 21.5297C24.7697 21.5144 24.7655 21.4993 24.7575 21.4862C24.7416 21.4714 24.7173 21.4862 24.7014 21.5191L24.5699 21.7968L24.4385 21.6707C24.4236 21.6558 24.3982 21.6707 24.3823 21.7025C24.3749 21.7158 24.371 21.7307 24.371 21.7459C24.371 21.7611 24.3749 21.7761 24.3823 21.7894L24.5137 21.9155L24.3802 22.1943C24.3727 22.2074 24.3688 22.2222 24.3688 22.2372C24.3688 22.2523 24.3727 22.2671 24.3802 22.2802C24.3843 22.2834 24.3893 22.2851 24.3945 22.2851C24.3997 22.2851 24.4047 22.2834 24.4088 22.2802C24.4208 22.2715 24.4303 22.2598 24.4364 22.2463L24.5678 21.9675L24.6992 22.0947C24.7032 22.098 24.7083 22.0999 24.7135 22.0999C24.7188 22.0999 24.7238 22.098 24.7279 22.0947C24.7404 22.0865 24.75 22.0747 24.7554 22.0608C24.7634 22.0476 24.7676 22.0326 24.7676 22.0173C24.7676 22.002 24.7634 21.9869 24.7554 21.9738L24.6261 21.8509Z" fill="#455A64"/>
<path d="M21.2317 25.1928V24.7285C21.236 24.6488 21.2591 24.5713 21.2991 24.5022C21.339 24.4332 21.3948 24.3745 21.4617 24.331L42.0999 12.4219C42.226 12.3488 42.3289 12.4082 42.3289 12.5544V13.0187C42.3245 13.0983 42.3015 13.1757 42.2617 13.2447C42.222 13.3138 42.1665 13.3725 42.0999 13.4162L21.4617 25.3253C21.3345 25.3985 21.2317 25.3391 21.2317 25.1928Z" fill="#FAFAFA"/>
<path d="M41.7874 13.4515C41.7808 13.4526 41.774 13.4526 41.7673 13.4515C41.7544 13.4456 41.7439 13.4354 41.7375 13.4227C41.7312 13.41 41.7293 13.3955 41.7323 13.3815L41.7556 13.1929L41.6666 13.1293C41.6589 13.1232 41.6527 13.1155 41.6485 13.1067C41.6442 13.0979 41.6421 13.0882 41.6422 13.0784C41.6423 13.063 41.6458 13.0478 41.6524 13.0339C41.659 13.02 41.6685 13.0077 41.6804 12.9978L41.815 12.8918C41.8177 12.8887 41.8198 12.8851 41.8214 12.8812L41.8818 12.6841C41.8855 12.6678 41.8939 12.653 41.906 12.6415C41.918 12.63 41.9332 12.6223 41.9496 12.6194C41.9606 12.6191 41.9714 12.6219 41.9808 12.6275C41.9902 12.6332 41.9978 12.6414 42.0026 12.6512L42.0524 12.7572L42.1669 12.7127C42.1772 12.7083 42.1887 12.7074 42.1996 12.7101C42.2105 12.7127 42.2202 12.7189 42.2273 12.7275C42.2365 12.7412 42.2414 12.7572 42.2414 12.7736C42.2414 12.7901 42.2365 12.8061 42.2273 12.8198L42.1298 13.0031C42.1289 13.0066 42.1289 13.0103 42.1298 13.0137L42.1531 13.1801C42.1544 13.1953 42.1524 13.2104 42.1473 13.2247C42.1421 13.239 42.134 13.252 42.1235 13.2628C42.1167 13.27 42.1085 13.2755 42.0993 13.279C42.0901 13.2825 42.0802 13.2839 42.0705 13.283L41.9645 13.2692L41.8457 13.4218C41.8392 13.4312 41.8305 13.4388 41.8203 13.444C41.8102 13.4492 41.7989 13.4518 41.7874 13.4515ZM41.7228 13.0689L41.8108 13.1324C41.8202 13.1398 41.8275 13.1496 41.8318 13.1608C41.8361 13.1721 41.8373 13.1842 41.8351 13.196L41.8192 13.3211L41.8998 13.2151C41.9062 13.2052 41.9153 13.1973 41.9259 13.1922C41.9366 13.1872 41.9485 13.1852 41.9602 13.1865L42.0662 13.1992C42.0675 13.1955 42.0675 13.1913 42.0662 13.1876L42.044 13.0222C42.0411 13.0013 42.0452 12.9801 42.0556 12.9618L42.1404 12.8017L42.0524 12.8356C42.0396 12.841 42.0252 12.8411 42.0124 12.8359C41.9995 12.8308 41.9891 12.8208 41.9835 12.8081L41.9433 12.7233L41.8892 12.8993C41.8841 12.919 41.8725 12.9366 41.8563 12.9491L41.7217 13.0551C41.721 13.0597 41.7214 13.0644 41.7228 13.0689Z" fill="#E0E0E0"/>
<g opacity="0.5">
<path d="M42.6001 12.3648C42.5825 12.365 42.5654 12.3593 42.5514 12.3487C42.5374 12.338 42.5273 12.3231 42.5227 12.3061C42.5181 12.2892 42.5193 12.2712 42.526 12.255C42.5327 12.2387 42.5446 12.2252 42.5598 12.2164L43.2053 11.8433C43.2235 11.8339 43.2445 11.8317 43.2642 11.8372C43.2839 11.8427 43.3007 11.8555 43.3113 11.873C43.3213 11.891 43.3238 11.9122 43.3182 11.9321C43.3127 11.9519 43.2995 11.9687 43.2817 11.979L42.6361 12.3521C42.6253 12.3592 42.613 12.3636 42.6001 12.3648Z" fill="#455A64"/>
<path d="M42.6001 12.738C42.5826 12.7381 42.5655 12.7324 42.5515 12.7218C42.5375 12.7112 42.5274 12.6962 42.5228 12.6793C42.5182 12.6623 42.5193 12.6443 42.526 12.6281C42.5327 12.6119 42.5446 12.5983 42.5599 12.5896L43.2054 12.2164C43.2235 12.2068 43.2446 12.2044 43.2644 12.21C43.2841 12.2155 43.301 12.2285 43.3114 12.2461C43.3214 12.2642 43.3238 12.2854 43.3183 12.3052C43.3127 12.325 43.2996 12.3419 43.2817 12.3521L42.6362 12.7252C42.6254 12.7324 42.613 12.7368 42.6001 12.738Z" fill="#455A64"/>
<path d="M42.6001 13.111C42.5826 13.1112 42.5655 13.1055 42.5515 13.0949C42.5375 13.0842 42.5274 13.0693 42.5228 13.0523C42.5182 13.0354 42.5193 13.0174 42.526 13.0012C42.5327 12.9849 42.5446 12.9714 42.5599 12.9626L43.2054 12.5895C43.2235 12.5798 43.2446 12.5775 43.2644 12.583C43.2841 12.5886 43.301 12.6015 43.3114 12.6192C43.3214 12.6372 43.3238 12.6584 43.3183 12.6783C43.3127 12.6981 43.2996 12.7149 43.2817 12.7252L42.6362 13.0983C42.6254 13.1054 42.613 13.1098 42.6001 13.111Z" fill="#455A64"/>
</g>
<path d="M18.218 25.9551V27.4476L17.7866 27.1985V25.707L18.218 25.9551Z" fill="#E0E0E0"/>
</svg>
